<?xml version="1.0" encoding="utf-8" standalone="no"?>
<!DOCTYPE svg PUBLIC "-//W3C//DTD SVG 1.1//EN"
  "http://www.w3.org/Graphics/SVG/1.1/DTD/svg11.dtd">
<svg xmlns:xlink="http://www.w3.org/1999/xlink" width="791.01pt" height="360pt" viewBox="0 0 791.01 360" xmlns="http://www.w3.org/2000/svg" version="1.1">
 <metadata>
  <rdf:RDF xmlns:dc="http://purl.org/dc/elements/1.1/" xmlns:cc="http://creativecommons.org/ns#" xmlns:rdf="http://www.w3.org/1999/02/22-rdf-syntax-ns#">
   <cc:Work>
    <dc:type rdf:resource="http://purl.org/dc/dcmitype/StillImage"/>
    <dc:date>2023-11-28T14:49:40.468669</dc:date>
    <dc:format>image/svg+xml</dc:format>
    <dc:creator>
     <cc:Agent>
      <dc:title>Matplotlib v3.8.0, https://matplotlib.org/</dc:title>
     </cc:Agent>
    </dc:creator>
   </cc:Work>
  </rdf:RDF>
 </metadata>
 <defs>
  <style type="text/css">*{stroke-linejoin: round; stroke-linecap: butt}</style>
 </defs>
 <g id="figure_1">
  <g id="patch_1">
   <path d="M 0 360 
L 791.01 360 
L 791.01 0 
L 0 0 
z
" style="fill: #ffffff"/>
  </g>
  <g id="axes_1">
   <g id="patch_2">
    <path d="M 47.28482 318.04 
L 374.298343 318.04 
L 374.298343 36 
L 47.28482 36 
z
" style="fill: #ffffff"/>
   </g>
   <g id="matplotlib.axis_1">
    <g id="xtick_1">
     <g id="line2d_1">
      <path d="M 62.149071 318.04 
L 62.149071 36 
" clip-path="url(#pb213d3d3c6)" style="fill: none; stroke: #cccccc; stroke-width: 0.8; stroke-linecap: round"/>
     </g>
     <g id="text_1">
      <!-- 0 -->
      <g style="fill: #262626" transform="translate(59.368602 332.197812) scale(0.1 -0.1)">
       <defs>
        <path id="ArialMT-30" d="M 266 2259 
Q 266 3072 433 3567 
Q 600 4063 929 4331 
Q 1259 4600 1759 4600 
Q 2128 4600 2406 4451 
Q 2684 4303 2865 4023 
Q 3047 3744 3150 3342 
Q 3253 2941 3253 2259 
Q 3253 1453 3087 958 
Q 2922 463 2592 192 
Q 2263 -78 1759 -78 
Q 1097 -78 719 397 
Q 266 969 266 2259 
z
M 844 2259 
Q 844 1131 1108 757 
Q 1372 384 1759 384 
Q 2147 384 2411 759 
Q 2675 1134 2675 2259 
Q 2675 3391 2411 3762 
Q 2147 4134 1753 4134 
Q 1366 4134 1134 3806 
Q 844 3388 844 2259 
z
" transform="scale(0.015625)"/>
       </defs>
       <use xlink:href="#ArialMT-30"/>
      </g>
     </g>
    </g>
    <g id="xtick_2">
     <g id="line2d_2">
      <path d="M 101.787074 318.04 
L 101.787074 36 
" clip-path="url(#pb213d3d3c6)" style="fill: none; stroke: #cccccc; stroke-width: 0.8; stroke-linecap: round"/>
     </g>
     <g id="text_2">
      <!-- 10 -->
      <g style="fill: #262626" transform="translate(96.226136 332.197812) scale(0.1 -0.1)">
       <defs>
        <path id="ArialMT-31" d="M 2384 0 
L 1822 0 
L 1822 3584 
Q 1619 3391 1289 3197 
Q 959 3003 697 2906 
L 697 3450 
Q 1169 3672 1522 3987 
Q 1875 4303 2022 4600 
L 2384 4600 
L 2384 0 
z
" transform="scale(0.015625)"/>
       </defs>
       <use xlink:href="#ArialMT-31"/>
       <use xlink:href="#ArialMT-30" x="55.615234"/>
      </g>
     </g>
    </g>
    <g id="xtick_3">
     <g id="line2d_3">
      <path d="M 141.425077 318.04 
L 141.425077 36 
" clip-path="url(#pb213d3d3c6)" style="fill: none; stroke: #cccccc; stroke-width: 0.8; stroke-linecap: round"/>
     </g>
     <g id="text_3">
      <!-- 20 -->
      <g style="fill: #262626" transform="translate(135.864139 332.197812) scale(0.1 -0.1)">
       <defs>
        <path id="ArialMT-32" d="M 3222 541 
L 3222 0 
L 194 0 
Q 188 203 259 391 
Q 375 700 629 1000 
Q 884 1300 1366 1694 
Q 2113 2306 2375 2664 
Q 2638 3022 2638 3341 
Q 2638 3675 2398 3904 
Q 2159 4134 1775 4134 
Q 1369 4134 1125 3890 
Q 881 3647 878 3216 
L 300 3275 
Q 359 3922 746 4261 
Q 1134 4600 1788 4600 
Q 2447 4600 2831 4234 
Q 3216 3869 3216 3328 
Q 3216 3053 3103 2787 
Q 2991 2522 2730 2228 
Q 2469 1934 1863 1422 
Q 1356 997 1212 845 
Q 1069 694 975 541 
L 3222 541 
z
" transform="scale(0.015625)"/>
       </defs>
       <use xlink:href="#ArialMT-32"/>
       <use xlink:href="#ArialMT-30" x="55.615234"/>
      </g>
     </g>
    </g>
    <g id="xtick_4">
     <g id="line2d_4">
      <path d="M 181.063079 318.04 
L 181.063079 36 
" clip-path="url(#pb213d3d3c6)" style="fill: none; stroke: #cccccc; stroke-width: 0.8; stroke-linecap: round"/>
     </g>
     <g id="text_4">
      <!-- 30 -->
      <g style="fill: #262626" transform="translate(175.502142 332.197812) scale(0.1 -0.1)">
       <defs>
        <path id="ArialMT-33" d="M 269 1209 
L 831 1284 
Q 928 806 1161 595 
Q 1394 384 1728 384 
Q 2125 384 2398 659 
Q 2672 934 2672 1341 
Q 2672 1728 2419 1979 
Q 2166 2231 1775 2231 
Q 1616 2231 1378 2169 
L 1441 2663 
Q 1497 2656 1531 2656 
Q 1891 2656 2178 2843 
Q 2466 3031 2466 3422 
Q 2466 3731 2256 3934 
Q 2047 4138 1716 4138 
Q 1388 4138 1169 3931 
Q 950 3725 888 3313 
L 325 3413 
Q 428 3978 793 4289 
Q 1159 4600 1703 4600 
Q 2078 4600 2393 4439 
Q 2709 4278 2876 4000 
Q 3044 3722 3044 3409 
Q 3044 3113 2884 2869 
Q 2725 2625 2413 2481 
Q 2819 2388 3044 2092 
Q 3269 1797 3269 1353 
Q 3269 753 2831 336 
Q 2394 -81 1725 -81 
Q 1122 -81 723 278 
Q 325 638 269 1209 
z
" transform="scale(0.015625)"/>
       </defs>
       <use xlink:href="#ArialMT-33"/>
       <use xlink:href="#ArialMT-30" x="55.615234"/>
      </g>
     </g>
    </g>
    <g id="xtick_5">
     <g id="line2d_5">
      <path d="M 220.701082 318.04 
L 220.701082 36 
" clip-path="url(#pb213d3d3c6)" style="fill: none; stroke: #cccccc; stroke-width: 0.8; stroke-linecap: round"/>
     </g>
     <g id="text_5">
      <!-- 40 -->
      <g style="fill: #262626" transform="translate(215.140145 332.197812) scale(0.1 -0.1)">
       <defs>
        <path id="ArialMT-34" d="M 2069 0 
L 2069 1097 
L 81 1097 
L 81 1613 
L 2172 4581 
L 2631 4581 
L 2631 1613 
L 3250 1613 
L 3250 1097 
L 2631 1097 
L 2631 0 
L 2069 0 
z
M 2069 1613 
L 2069 3678 
L 634 1613 
L 2069 1613 
z
" transform="scale(0.015625)"/>
       </defs>
       <use xlink:href="#ArialMT-34"/>
       <use xlink:href="#ArialMT-30" x="55.615234"/>
      </g>
     </g>
    </g>
    <g id="xtick_6">
     <g id="line2d_6">
      <path d="M 260.339085 318.04 
L 260.339085 36 
" clip-path="url(#pb213d3d3c6)" style="fill: none; stroke: #cccccc; stroke-width: 0.8; stroke-linecap: round"/>
     </g>
     <g id="text_6">
      <!-- 50 -->
      <g style="fill: #262626" transform="translate(254.778148 332.197812) scale(0.1 -0.1)">
       <defs>
        <path id="ArialMT-35" d="M 266 1200 
L 856 1250 
Q 922 819 1161 601 
Q 1400 384 1738 384 
Q 2144 384 2425 690 
Q 2706 997 2706 1503 
Q 2706 1984 2436 2262 
Q 2166 2541 1728 2541 
Q 1456 2541 1237 2417 
Q 1019 2294 894 2097 
L 366 2166 
L 809 4519 
L 3088 4519 
L 3088 3981 
L 1259 3981 
L 1013 2750 
Q 1425 3038 1878 3038 
Q 2478 3038 2890 2622 
Q 3303 2206 3303 1553 
Q 3303 931 2941 478 
Q 2500 -78 1738 -78 
Q 1113 -78 717 272 
Q 322 622 266 1200 
z
" transform="scale(0.015625)"/>
       </defs>
       <use xlink:href="#ArialMT-35"/>
       <use xlink:href="#ArialMT-30" x="55.615234"/>
      </g>
     </g>
    </g>
    <g id="xtick_7">
     <g id="line2d_7">
      <path d="M 299.977088 318.04 
L 299.977088 36 
" clip-path="url(#pb213d3d3c6)" style="fill: none; stroke: #cccccc; stroke-width: 0.8; stroke-linecap: round"/>
     </g>
     <g id="text_7">
      <!-- 60 -->
      <g style="fill: #262626" transform="translate(294.41615 332.197812) scale(0.1 -0.1)">
       <defs>
        <path id="ArialMT-36" d="M 3184 3459 
L 2625 3416 
Q 2550 3747 2413 3897 
Q 2184 4138 1850 4138 
Q 1581 4138 1378 3988 
Q 1113 3794 959 3422 
Q 806 3050 800 2363 
Q 1003 2672 1297 2822 
Q 1591 2972 1913 2972 
Q 2475 2972 2870 2558 
Q 3266 2144 3266 1488 
Q 3266 1056 3080 686 
Q 2894 316 2569 119 
Q 2244 -78 1831 -78 
Q 1128 -78 684 439 
Q 241 956 241 2144 
Q 241 3472 731 4075 
Q 1159 4600 1884 4600 
Q 2425 4600 2770 4297 
Q 3116 3994 3184 3459 
z
M 888 1484 
Q 888 1194 1011 928 
Q 1134 663 1356 523 
Q 1578 384 1822 384 
Q 2178 384 2434 671 
Q 2691 959 2691 1453 
Q 2691 1928 2437 2201 
Q 2184 2475 1800 2475 
Q 1419 2475 1153 2201 
Q 888 1928 888 1484 
z
" transform="scale(0.015625)"/>
       </defs>
       <use xlink:href="#ArialMT-36"/>
       <use xlink:href="#ArialMT-30" x="55.615234"/>
      </g>
     </g>
    </g>
    <g id="xtick_8">
     <g id="line2d_8">
      <path d="M 339.615091 318.04 
L 339.615091 36 
" clip-path="url(#pb213d3d3c6)" style="fill: none; stroke: #cccccc; stroke-width: 0.8; stroke-linecap: round"/>
     </g>
     <g id="text_8">
      <!-- 70 -->
      <g style="fill: #262626" transform="translate(334.054153 332.197812) scale(0.1 -0.1)">
       <defs>
        <path id="ArialMT-37" d="M 303 3981 
L 303 4522 
L 3269 4522 
L 3269 4084 
Q 2831 3619 2401 2847 
Q 1972 2075 1738 1259 
Q 1569 684 1522 0 
L 944 0 
Q 953 541 1156 1306 
Q 1359 2072 1739 2783 
Q 2119 3494 2547 3981 
L 303 3981 
z
" transform="scale(0.015625)"/>
       </defs>
       <use xlink:href="#ArialMT-37"/>
       <use xlink:href="#ArialMT-30" x="55.615234"/>
      </g>
     </g>
    </g>
    <g id="text_9">
     <!-- offload to cloud before layer -->
     <g style="fill: #262626" transform="translate(149.177519 345.465) scale(0.1 -0.1)">
      <defs>
       <path id="ArialMT-6f" d="M 213 1659 
Q 213 2581 725 3025 
Q 1153 3394 1769 3394 
Q 2453 3394 2887 2945 
Q 3322 2497 3322 1706 
Q 3322 1066 3130 698 
Q 2938 331 2570 128 
Q 2203 -75 1769 -75 
Q 1072 -75 642 372 
Q 213 819 213 1659 
z
M 791 1659 
Q 791 1022 1069 705 
Q 1347 388 1769 388 
Q 2188 388 2466 706 
Q 2744 1025 2744 1678 
Q 2744 2294 2464 2611 
Q 2184 2928 1769 2928 
Q 1347 2928 1069 2612 
Q 791 2297 791 1659 
z
" transform="scale(0.015625)"/>
       <path id="ArialMT-66" d="M 556 0 
L 556 2881 
L 59 2881 
L 59 3319 
L 556 3319 
L 556 3672 
Q 556 4006 616 4169 
Q 697 4388 901 4523 
Q 1106 4659 1475 4659 
Q 1713 4659 2000 4603 
L 1916 4113 
Q 1741 4144 1584 4144 
Q 1328 4144 1222 4034 
Q 1116 3925 1116 3625 
L 1116 3319 
L 1763 3319 
L 1763 2881 
L 1116 2881 
L 1116 0 
L 556 0 
z
" transform="scale(0.015625)"/>
       <path id="ArialMT-6c" d="M 409 0 
L 409 4581 
L 972 4581 
L 972 0 
L 409 0 
z
" transform="scale(0.015625)"/>
       <path id="ArialMT-61" d="M 2588 409 
Q 2275 144 1986 34 
Q 1697 -75 1366 -75 
Q 819 -75 525 192 
Q 231 459 231 875 
Q 231 1119 342 1320 
Q 453 1522 633 1644 
Q 813 1766 1038 1828 
Q 1203 1872 1538 1913 
Q 2219 1994 2541 2106 
Q 2544 2222 2544 2253 
Q 2544 2597 2384 2738 
Q 2169 2928 1744 2928 
Q 1347 2928 1158 2789 
Q 969 2650 878 2297 
L 328 2372 
Q 403 2725 575 2942 
Q 747 3159 1072 3276 
Q 1397 3394 1825 3394 
Q 2250 3394 2515 3294 
Q 2781 3194 2906 3042 
Q 3031 2891 3081 2659 
Q 3109 2516 3109 2141 
L 3109 1391 
Q 3109 606 3145 398 
Q 3181 191 3288 0 
L 2700 0 
Q 2613 175 2588 409 
z
M 2541 1666 
Q 2234 1541 1622 1453 
Q 1275 1403 1131 1340 
Q 988 1278 909 1158 
Q 831 1038 831 891 
Q 831 666 1001 516 
Q 1172 366 1500 366 
Q 1825 366 2078 508 
Q 2331 650 2450 897 
Q 2541 1088 2541 1459 
L 2541 1666 
z
" transform="scale(0.015625)"/>
       <path id="ArialMT-64" d="M 2575 0 
L 2575 419 
Q 2259 -75 1647 -75 
Q 1250 -75 917 144 
Q 584 363 401 755 
Q 219 1147 219 1656 
Q 219 2153 384 2558 
Q 550 2963 881 3178 
Q 1213 3394 1622 3394 
Q 1922 3394 2156 3267 
Q 2391 3141 2538 2938 
L 2538 4581 
L 3097 4581 
L 3097 0 
L 2575 0 
z
M 797 1656 
Q 797 1019 1065 703 
Q 1334 388 1700 388 
Q 2069 388 2326 689 
Q 2584 991 2584 1609 
Q 2584 2291 2321 2609 
Q 2059 2928 1675 2928 
Q 1300 2928 1048 2622 
Q 797 2316 797 1656 
z
" transform="scale(0.015625)"/>
       <path id="ArialMT-20" transform="scale(0.015625)"/>
       <path id="ArialMT-74" d="M 1650 503 
L 1731 6 
Q 1494 -44 1306 -44 
Q 1000 -44 831 53 
Q 663 150 594 308 
Q 525 466 525 972 
L 525 2881 
L 113 2881 
L 113 3319 
L 525 3319 
L 525 4141 
L 1084 4478 
L 1084 3319 
L 1650 3319 
L 1650 2881 
L 1084 2881 
L 1084 941 
Q 1084 700 1114 631 
Q 1144 563 1211 522 
Q 1278 481 1403 481 
Q 1497 481 1650 503 
z
" transform="scale(0.015625)"/>
       <path id="ArialMT-63" d="M 2588 1216 
L 3141 1144 
Q 3050 572 2676 248 
Q 2303 -75 1759 -75 
Q 1078 -75 664 370 
Q 250 816 250 1647 
Q 250 2184 428 2587 
Q 606 2991 970 3192 
Q 1334 3394 1763 3394 
Q 2303 3394 2647 3120 
Q 2991 2847 3088 2344 
L 2541 2259 
Q 2463 2594 2264 2762 
Q 2066 2931 1784 2931 
Q 1359 2931 1093 2626 
Q 828 2322 828 1663 
Q 828 994 1084 691 
Q 1341 388 1753 388 
Q 2084 388 2306 591 
Q 2528 794 2588 1216 
z
" transform="scale(0.015625)"/>
       <path id="ArialMT-75" d="M 2597 0 
L 2597 488 
Q 2209 -75 1544 -75 
Q 1250 -75 995 37 
Q 741 150 617 320 
Q 494 491 444 738 
Q 409 903 409 1263 
L 409 3319 
L 972 3319 
L 972 1478 
Q 972 1038 1006 884 
Q 1059 663 1231 536 
Q 1403 409 1656 409 
Q 1909 409 2131 539 
Q 2353 669 2445 892 
Q 2538 1116 2538 1541 
L 2538 3319 
L 3100 3319 
L 3100 0 
L 2597 0 
z
" transform="scale(0.015625)"/>
       <path id="ArialMT-62" d="M 941 0 
L 419 0 
L 419 4581 
L 981 4581 
L 981 2947 
Q 1338 3394 1891 3394 
Q 2197 3394 2470 3270 
Q 2744 3147 2920 2923 
Q 3097 2700 3197 2384 
Q 3297 2069 3297 1709 
Q 3297 856 2875 390 
Q 2453 -75 1863 -75 
Q 1275 -75 941 416 
L 941 0 
z
M 934 1684 
Q 934 1088 1097 822 
Q 1363 388 1816 388 
Q 2184 388 2453 708 
Q 2722 1028 2722 1663 
Q 2722 2313 2464 2622 
Q 2206 2931 1841 2931 
Q 1472 2931 1203 2611 
Q 934 2291 934 1684 
z
" transform="scale(0.015625)"/>
       <path id="ArialMT-65" d="M 2694 1069 
L 3275 997 
Q 3138 488 2766 206 
Q 2394 -75 1816 -75 
Q 1088 -75 661 373 
Q 234 822 234 1631 
Q 234 2469 665 2931 
Q 1097 3394 1784 3394 
Q 2450 3394 2872 2941 
Q 3294 2488 3294 1666 
Q 3294 1616 3291 1516 
L 816 1516 
Q 847 969 1125 678 
Q 1403 388 1819 388 
Q 2128 388 2347 550 
Q 2566 713 2694 1069 
z
M 847 1978 
L 2700 1978 
Q 2663 2397 2488 2606 
Q 2219 2931 1791 2931 
Q 1403 2931 1139 2672 
Q 875 2413 847 1978 
z
" transform="scale(0.015625)"/>
       <path id="ArialMT-72" d="M 416 0 
L 416 3319 
L 922 3319 
L 922 2816 
Q 1116 3169 1280 3281 
Q 1444 3394 1641 3394 
Q 1925 3394 2219 3213 
L 2025 2691 
Q 1819 2813 1613 2813 
Q 1428 2813 1281 2702 
Q 1134 2591 1072 2394 
Q 978 2094 978 1738 
L 978 0 
L 416 0 
z
" transform="scale(0.015625)"/>
       <path id="ArialMT-79" d="M 397 -1278 
L 334 -750 
Q 519 -800 656 -800 
Q 844 -800 956 -737 
Q 1069 -675 1141 -563 
Q 1194 -478 1313 -144 
Q 1328 -97 1363 -6 
L 103 3319 
L 709 3319 
L 1400 1397 
Q 1534 1031 1641 628 
Q 1738 1016 1872 1384 
L 2581 3319 
L 3144 3319 
L 1881 -56 
Q 1678 -603 1566 -809 
Q 1416 -1088 1222 -1217 
Q 1028 -1347 759 -1347 
Q 597 -1347 397 -1278 
z
" transform="scale(0.015625)"/>
      </defs>
      <use xlink:href="#ArialMT-6f"/>
      <use xlink:href="#ArialMT-66" x="55.615234"/>
      <use xlink:href="#ArialMT-66" x="81.648438"/>
      <use xlink:href="#ArialMT-6c" x="109.431641"/>
      <use xlink:href="#ArialMT-6f" x="131.648438"/>
      <use xlink:href="#ArialMT-61" x="187.263672"/>
      <use xlink:href="#ArialMT-64" x="242.878906"/>
      <use xlink:href="#ArialMT-20" x="298.494141"/>
      <use xlink:href="#ArialMT-74" x="326.277344"/>
      <use xlink:href="#ArialMT-6f" x="354.060547"/>
      <use xlink:href="#ArialMT-20" x="409.675781"/>
      <use xlink:href="#ArialMT-63" x="437.458984"/>
      <use xlink:href="#ArialMT-6c" x="487.458984"/>
      <use xlink:href="#ArialMT-6f" x="509.675781"/>
      <use xlink:href="#ArialMT-75" x="565.291016"/>
      <use xlink:href="#ArialMT-64" x="620.90625"/>
      <use xlink:href="#ArialMT-20" x="676.521484"/>
      <use xlink:href="#ArialMT-62" x="704.304688"/>
      <use xlink:href="#ArialMT-65" x="759.919922"/>
      <use xlink:href="#ArialMT-66" x="815.535156"/>
      <use xlink:href="#ArialMT-6f" x="843.318359"/>
      <use xlink:href="#ArialMT-72" x="898.933594"/>
      <use xlink:href="#ArialMT-65" x="932.234375"/>
      <use xlink:href="#ArialMT-20" x="987.849609"/>
      <use xlink:href="#ArialMT-6c" x="1015.632812"/>
      <use xlink:href="#ArialMT-61" x="1037.849609"/>
      <use xlink:href="#ArialMT-79" x="1093.464844"/>
      <use xlink:href="#ArialMT-65" x="1143.464844"/>
      <use xlink:href="#ArialMT-72" x="1199.080078"/>
     </g>
    </g>
   </g>
   <g id="matplotlib.axis_2">
    <g id="ytick_1">
     <g id="line2d_9">
      <path d="M 47.28482 305.22 
L 374.298343 305.22 
" clip-path="url(#pb213d3d3c6)" style="fill: none; stroke: #cccccc; stroke-width: 0.8; stroke-linecap: round"/>
     </g>
     <g id="text_10">
      <!-- 0 -->
      <g style="fill: #262626" transform="translate(34.723882 308.798906) scale(0.1 -0.1)">
       <use xlink:href="#ArialMT-30"/>
      </g>
     </g>
    </g>
    <g id="ytick_2">
     <g id="line2d_10">
      <path d="M 47.28482 248.079935 
L 374.298343 248.079935 
" clip-path="url(#pb213d3d3c6)" style="fill: none; stroke: #cccccc; stroke-width: 0.8; stroke-linecap: round"/>
     </g>
     <g id="text_11">
      <!-- 20 -->
      <g style="fill: #262626" transform="translate(29.162945 251.658841) scale(0.1 -0.1)">
       <use xlink:href="#ArialMT-32"/>
       <use xlink:href="#ArialMT-30" x="55.615234"/>
      </g>
     </g>
    </g>
    <g id="ytick_3">
     <g id="line2d_11">
      <path d="M 47.28482 190.939869 
L 374.298343 190.939869 
" clip-path="url(#pb213d3d3c6)" style="fill: none; stroke: #cccccc; stroke-width: 0.8; stroke-linecap: round"/>
     </g>
     <g id="text_12">
      <!-- 40 -->
      <g style="fill: #262626" transform="translate(29.162945 194.518775) scale(0.1 -0.1)">
       <use xlink:href="#ArialMT-34"/>
       <use xlink:href="#ArialMT-30" x="55.615234"/>
      </g>
     </g>
    </g>
    <g id="ytick_4">
     <g id="line2d_12">
      <path d="M 47.28482 133.799804 
L 374.298343 133.799804 
" clip-path="url(#pb213d3d3c6)" style="fill: none; stroke: #cccccc; stroke-width: 0.8; stroke-linecap: round"/>
     </g>
     <g id="text_13">
      <!-- 60 -->
      <g style="fill: #262626" transform="translate(29.162945 137.37871) scale(0.1 -0.1)">
       <use xlink:href="#ArialMT-36"/>
       <use xlink:href="#ArialMT-30" x="55.615234"/>
      </g>
     </g>
    </g>
    <g id="ytick_5">
     <g id="line2d_13">
      <path d="M 47.28482 76.659738 
L 374.298343 76.659738 
" clip-path="url(#pb213d3d3c6)" style="fill: none; stroke: #cccccc; stroke-width: 0.8; stroke-linecap: round"/>
     </g>
     <g id="text_14">
      <!-- 80 -->
      <g style="fill: #262626" transform="translate(29.162945 80.238645) scale(0.1 -0.1)">
       <defs>
        <path id="ArialMT-38" d="M 1131 2484 
Q 781 2613 612 2850 
Q 444 3088 444 3419 
Q 444 3919 803 4259 
Q 1163 4600 1759 4600 
Q 2359 4600 2725 4251 
Q 3091 3903 3091 3403 
Q 3091 3084 2923 2848 
Q 2756 2613 2416 2484 
Q 2838 2347 3058 2040 
Q 3278 1734 3278 1309 
Q 3278 722 2862 322 
Q 2447 -78 1769 -78 
Q 1091 -78 675 323 
Q 259 725 259 1325 
Q 259 1772 486 2073 
Q 713 2375 1131 2484 
z
M 1019 3438 
Q 1019 3113 1228 2906 
Q 1438 2700 1772 2700 
Q 2097 2700 2305 2904 
Q 2513 3109 2513 3406 
Q 2513 3716 2298 3927 
Q 2084 4138 1766 4138 
Q 1444 4138 1231 3931 
Q 1019 3725 1019 3438 
z
M 838 1322 
Q 838 1081 952 856 
Q 1066 631 1291 507 
Q 1516 384 1775 384 
Q 2178 384 2440 643 
Q 2703 903 2703 1303 
Q 2703 1709 2433 1975 
Q 2163 2241 1756 2241 
Q 1359 2241 1098 1978 
Q 838 1716 838 1322 
z
" transform="scale(0.015625)"/>
       </defs>
       <use xlink:href="#ArialMT-38"/>
       <use xlink:href="#ArialMT-30" x="55.615234"/>
      </g>
     </g>
    </g>
    <g id="text_15">
     <!-- ms -->
     <g style="fill: #262626" transform="translate(23.175445 183.684844) rotate(-90) scale(0.1 -0.1)">
      <defs>
       <path id="ArialMT-6d" d="M 422 0 
L 422 3319 
L 925 3319 
L 925 2853 
Q 1081 3097 1340 3245 
Q 1600 3394 1931 3394 
Q 2300 3394 2536 3241 
Q 2772 3088 2869 2813 
Q 3263 3394 3894 3394 
Q 4388 3394 4653 3120 
Q 4919 2847 4919 2278 
L 4919 0 
L 4359 0 
L 4359 2091 
Q 4359 2428 4304 2576 
Q 4250 2725 4106 2815 
Q 3963 2906 3769 2906 
Q 3419 2906 3187 2673 
Q 2956 2441 2956 1928 
L 2956 0 
L 2394 0 
L 2394 2156 
Q 2394 2531 2256 2718 
Q 2119 2906 1806 2906 
Q 1569 2906 1367 2781 
Q 1166 2656 1075 2415 
Q 984 2175 984 1722 
L 984 0 
L 422 0 
z
" transform="scale(0.015625)"/>
       <path id="ArialMT-73" d="M 197 991 
L 753 1078 
Q 800 744 1014 566 
Q 1228 388 1613 388 
Q 2000 388 2187 545 
Q 2375 703 2375 916 
Q 2375 1106 2209 1216 
Q 2094 1291 1634 1406 
Q 1016 1563 777 1677 
Q 538 1791 414 1992 
Q 291 2194 291 2438 
Q 291 2659 392 2848 
Q 494 3038 669 3163 
Q 800 3259 1026 3326 
Q 1253 3394 1513 3394 
Q 1903 3394 2198 3281 
Q 2494 3169 2634 2976 
Q 2775 2784 2828 2463 
L 2278 2388 
Q 2241 2644 2061 2787 
Q 1881 2931 1553 2931 
Q 1166 2931 1000 2803 
Q 834 2675 834 2503 
Q 834 2394 903 2306 
Q 972 2216 1119 2156 
Q 1203 2125 1616 2013 
Q 2213 1853 2448 1751 
Q 2684 1650 2818 1456 
Q 2953 1263 2953 975 
Q 2953 694 2789 445 
Q 2625 197 2315 61 
Q 2006 -75 1616 -75 
Q 969 -75 630 194 
Q 291 463 197 991 
z
" transform="scale(0.015625)"/>
      </defs>
      <use xlink:href="#ArialMT-6d"/>
      <use xlink:href="#ArialMT-73" x="83.300781"/>
     </g>
    </g>
   </g>
   <g id="PolyCollection_1">
    <defs>
     <path id="mf5082c8cb1" d="M 62.149071 -63.895982 
L 62.149071 -63.033121 
L 66.112871 -106.752993 
L 70.076672 -107.083343 
L 74.040472 -106.00707 
L 78.004272 -107.763671 
L 81.968072 -107.430793 
L 85.931873 -108.402246 
L 89.895673 -93.372143 
L 93.859473 -92.134465 
L 97.823274 -166.036037 
L 101.787074 -165.048545 
L 105.750874 -164.350952 
L 109.714674 -167.263835 
L 113.678475 -99.934163 
L 117.642275 -102.640734 
L 121.606075 -100.539655 
L 125.569876 -83.339419 
L 129.533676 -82.756833 
L 133.497476 -83.709939 
L 137.461276 -111.705991 
L 141.425077 -112.330516 
L 145.388877 -115.464869 
L 149.352677 -113.567189 
L 153.316478 -87.548758 
L 157.280278 -89.204772 
L 161.244078 -87.567896 
L 165.207878 -80.954296 
L 169.171679 -80.875649 
L 173.135479 -81.474687 
L 177.099279 -81.351188 
L 181.063079 -92.247197 
L 185.02688 -90.842227 
L 188.99068 -90.704788 
L 192.95448 -93.146577 
L 196.918281 -83.135963 
L 200.882081 -83.31897 
L 204.845881 -83.302582 
L 208.809681 -80.674839 
L 212.773482 -80.847516 
L 216.737282 -81.325489 
L 220.701082 -81.641067 
L 224.664883 -82.085247 
L 228.628683 -86.432871 
L 232.592483 -89.165463 
L 236.556283 -88.044934 
L 240.520084 -88.071768 
L 244.483884 -87.977397 
L 248.447684 -88.175281 
L 252.411485 -83.119509 
L 256.375285 -83.121892 
L 260.339085 -84.143009 
L 264.302885 -84.270791 
L 268.266686 -92.623299 
L 272.230486 -92.171393 
L 276.194286 -92.457211 
L 280.158087 -94.418945 
L 284.121887 -85.517833 
L 288.085687 -85.943112 
L 292.049487 -85.10561 
L 296.013288 -83.48552 
L 299.977088 -83.629637 
L 303.940888 -84.023398 
L 307.904688 -84.400942 
L 311.868489 -88.737472 
L 315.832289 -88.933043 
L 319.796089 -88.850573 
L 323.75989 -88.703809 
L 327.72369 -88.426338 
L 331.68749 -89.21608 
L 335.65129 -85.360291 
L 339.615091 -85.948271 
L 343.578891 -90.087495 
L 347.542691 -90.342069 
L 351.506492 -90.059893 
L 355.470292 -85.262187 
L 359.434092 -83.875538 
L 359.434092 -85.060558 
L 359.434092 -85.060558 
L 355.470292 -86.254457 
L 351.506492 -91.374073 
L 347.542691 -93.136547 
L 343.578891 -92.480357 
L 339.615091 -86.785232 
L 335.65129 -87.122658 
L 331.68749 -90.872979 
L 327.72369 -90.713279 
L 323.75989 -92.828922 
L 319.796089 -90.569544 
L 315.832289 -90.344612 
L 311.868489 -90.84253 
L 307.904688 -85.807618 
L 303.940888 -85.228526 
L 299.977088 -84.785842 
L 296.013288 -84.799901 
L 292.049487 -86.569584 
L 288.085687 -87.267163 
L 284.121887 -86.995207 
L 280.158087 -99.803336 
L 276.194286 -96.851857 
L 272.230486 -94.840377 
L 268.266686 -104.345553 
L 264.302885 -85.477016 
L 260.339085 -85.387432 
L 256.375285 -84.627305 
L 252.411485 -84.475146 
L 248.447684 -91.178267 
L 244.483884 -91.348652 
L 240.520084 -89.890445 
L 236.556283 -91.604259 
L 232.592483 -95.677257 
L 228.628683 -88.614699 
L 224.664883 -83.15427 
L 220.701082 -83.134734 
L 216.737282 -82.542217 
L 212.773482 -82.366486 
L 208.809681 -81.94802 
L 204.845881 -85.307383 
L 200.882081 -85.302264 
L 196.918281 -85.343835 
L 192.95448 -100.948666 
L 188.99068 -95.761844 
L 185.02688 -95.891597 
L 181.063079 -96.054473 
L 177.099279 -82.705912 
L 173.135479 -82.883623 
L 169.171679 -82.366564 
L 165.207878 -83.088983 
L 161.244078 -93.045047 
L 157.280278 -95.612922 
L 153.316478 -93.805106 
L 149.352677 -126.657207 
L 145.388877 -119.650268 
L 141.425077 -125.882345 
L 137.461276 -125.153527 
L 133.497476 -84.750709 
L 129.533676 -83.893287 
L 125.569876 -89.810608 
L 121.606075 -112.933495 
L 117.642275 -119.985078 
L 113.678475 -111.152717 
L 109.714674 -192.448731 
L 105.750874 -188.284508 
L 101.787074 -191.893355 
L 97.823274 -191.334643 
L 93.859473 -107.215807 
L 89.895673 -108.605247 
L 85.931873 -124.946674 
L 81.968072 -119.520316 
L 78.004272 -114.987543 
L 74.040472 -121.510583 
L 70.076672 -122.424681 
L 66.112871 -117.883693 
L 62.149071 -63.895982 
z
" style="stroke: #1f77b4; stroke-opacity: 0.2"/>
    </defs>
    <g clip-path="url(#pb213d3d3c6)">
     <use xlink:href="#mf5082c8cb1" x="0" y="360" style="fill: #1f77b4; fill-opacity: 0.2; stroke: #1f77b4; stroke-opacity: 0.2"/>
    </g>
   </g>
   <g id="PolyCollection_2">
    <defs>
     <path id="m84918c3280" d="M 62.149071 -89.045969 
L 62.149071 -88.511852 
L 66.112871 -93.935587 
L 70.076672 -98.565932 
L 74.040472 -93.14284 
L 78.004272 -92.466159 
L 81.968072 -97.043721 
L 85.931873 -91.631914 
L 89.895673 -86.01576 
L 93.859473 -85.385076 
L 97.823274 -113.172076 
L 101.787074 -127.761434 
L 105.750874 -111.747074 
L 109.714674 -112.615674 
L 113.678475 -85.322436 
L 117.642275 -89.394809 
L 121.606075 -89.160177 
L 125.569876 -79.110597 
L 129.533676 -80.344394 
L 133.497476 -75.621125 
L 137.461276 -83.95536 
L 141.425077 -89.885999 
L 145.388877 -82.952766 
L 149.352677 -83.461456 
L 153.316478 -74.440397 
L 157.280278 -75.589555 
L 161.244078 -74.140697 
L 165.207878 -73.004467 
L 169.171679 -73.066249 
L 173.135479 -71.818168 
L 177.099279 -70.548658 
L 181.063079 -72.372569 
L 185.02688 -74.407041 
L 188.99068 -72.288787 
L 192.95448 -73.969348 
L 196.918281 -70.302384 
L 200.882081 -70.959995 
L 204.845881 -71.39676 
L 208.809681 -73.069178 
L 212.773482 -70.980994 
L 216.737282 -68.786101 
L 220.701082 -68.009068 
L 224.664883 -67.071971 
L 228.628683 -67.617016 
L 232.592483 -68.336123 
L 236.556283 -67.364314 
L 240.520084 -67.418025 
L 244.483884 -68.119991 
L 248.447684 -67.154538 
L 252.411485 -66.373076 
L 256.375285 -66.23544 
L 260.339085 -64.561522 
L 264.302885 -62.850749 
L 268.266686 -64.66766 
L 272.230486 -65.136065 
L 276.194286 -63.354295 
L 280.158087 -65.110067 
L 284.121887 -62.656472 
L 288.085687 -63.066024 
L 292.049487 -62.978814 
L 296.013288 -61.794514 
L 299.977088 -62.539407 
L 303.940888 -60.706353 
L 307.904688 -59.764256 
L 311.868489 -59.854823 
L 315.832289 -60.308516 
L 319.796089 -59.688689 
L 323.75989 -61.029409 
L 327.72369 -60.347228 
L 331.68749 -59.398417 
L 335.65129 -58.381181 
L 339.615091 -58.149121 
L 343.578891 -58.862229 
L 347.542691 -59.039506 
L 351.506492 -57.354803 
L 355.470292 -56.585983 
L 359.434092 -54.78 
L 359.434092 -54.78 
L 359.434092 -54.78 
L 355.470292 -59.614692 
L 351.506492 -62.6679 
L 347.542691 -65.691681 
L 343.578891 -63.364438 
L 339.615091 -63.300512 
L 335.65129 -61.822942 
L 331.68749 -63.122092 
L 327.72369 -66.141445 
L 323.75989 -69.658487 
L 319.796089 -61.558597 
L 315.832289 -63.188661 
L 311.868489 -63.846128 
L 307.904688 -66.217298 
L 303.940888 -64.271536 
L 299.977088 -64.847794 
L 296.013288 -64.992501 
L 292.049487 -67.85579 
L 288.085687 -66.125731 
L 284.121887 -66.686347 
L 280.158087 -71.249695 
L 276.194286 -68.465189 
L 272.230486 -69.401071 
L 268.266686 -71.109131 
L 264.302885 -64.039119 
L 260.339085 -65.350341 
L 256.375285 -67.949142 
L 252.411485 -70.424164 
L 248.447684 -71.278051 
L 244.483884 -71.756599 
L 240.520084 -69.186653 
L 236.556283 -69.251364 
L 232.592483 -71.555609 
L 228.628683 -76.718714 
L 224.664883 -68.887311 
L 220.701082 -69.992828 
L 216.737282 -71.357476 
L 212.773482 -76.293949 
L 208.809681 -86.346458 
L 204.845881 -83.911934 
L 200.882081 -77.242617 
L 196.918281 -72.992753 
L 192.95448 -81.694114 
L 188.99068 -74.221907 
L 185.02688 -77.839802 
L 181.063079 -75.559056 
L 177.099279 -71.668032 
L 173.135479 -73.295881 
L 169.171679 -76.009606 
L 165.207878 -75.18036 
L 161.244078 -79.238591 
L 157.280278 -77.172335 
L 153.316478 -76.282378 
L 149.352677 -84.553974 
L 145.388877 -83.32282 
L 141.425077 -92.099748 
L 137.461276 -86.561162 
L 133.497476 -80.10012 
L 129.533676 -83.695587 
L 125.569876 -81.491623 
L 121.606075 -102.840152 
L 117.642275 -101.520074 
L 113.678475 -86.817649 
L 109.714674 -115.390824 
L 105.750874 -113.914539 
L 101.787074 -129.133939 
L 97.823274 -114.028677 
L 93.859473 -86.097756 
L 89.895673 -86.626087 
L 85.931873 -92.088534 
L 81.968072 -97.525197 
L 78.004272 -92.93535 
L 74.040472 -93.89916 
L 70.076672 -100.012004 
L 66.112871 -94.457276 
L 62.149071 -89.045969 
z
" style="stroke: #ff7f0e; stroke-opacity: 0.2"/>
    </defs>
    <g clip-path="url(#pb213d3d3c6)">
     <use xlink:href="#m84918c3280" x="0" y="360" style="fill: #ff7f0e; fill-opacity: 0.2; stroke: #ff7f0e; stroke-opacity: 0.2"/>
    </g>
   </g>
   <g id="PolyCollection_3">
    <defs>
     <path id="mb4db3026e6" d="M 62.149071 -79.123928 
L 62.149071 -77.128029 
L 66.112871 -71.468671 
L 70.076672 -71.409366 
L 74.040472 -71.419083 
L 78.004272 -71.36886 
L 81.968072 -71.43739 
L 85.931873 -71.494904 
L 89.895673 -65.706342 
L 93.859473 -65.347914 
L 97.823274 -98.935037 
L 101.787074 -98.69136 
L 105.750874 -99.068675 
L 109.714674 -100.055293 
L 113.678475 -68.306729 
L 117.642275 -68.31365 
L 121.606075 -68.96104 
L 125.569876 -62.104083 
L 129.533676 -61.858951 
L 133.497476 -61.682827 
L 137.461276 -73.822393 
L 141.425077 -72.872089 
L 145.388877 -72.70541 
L 149.352677 -73.521378 
L 153.316478 -63.370487 
L 157.280278 -63.118049 
L 161.244078 -63.146624 
L 165.207878 -60.867912 
L 169.171679 -60.944262 
L 173.135479 -61.047407 
L 177.099279 -61.045952 
L 181.063079 -64.11186 
L 185.02688 -64.087277 
L 188.99068 -64.108485 
L 192.95448 -64.484354 
L 196.918281 -60.861204 
L 200.882081 -60.889549 
L 204.845881 -60.833492 
L 208.809681 -60.497296 
L 212.773482 -60.480207 
L 216.737282 -60.724469 
L 220.701082 -60.933429 
L 224.664883 -60.612795 
L 228.628683 -61.68381 
L 232.592483 -62.143818 
L 236.556283 -62.402073 
L 240.520084 -62.331141 
L 244.483884 -61.872067 
L 248.447684 -62.596994 
L 252.411485 -60.76689 
L 256.375285 -60.765526 
L 260.339085 -60.957925 
L 264.302885 -60.873439 
L 268.266686 -63.730551 
L 272.230486 -63.506738 
L 276.194286 -63.373864 
L 280.158087 -64.218182 
L 284.121887 -61.32973 
L 288.085687 -61.096964 
L 292.049487 -61.717641 
L 296.013288 -60.953191 
L 299.977088 -60.890953 
L 303.940888 -60.445777 
L 307.904688 -60.438399 
L 311.868489 -61.241859 
L 315.832289 -60.954958 
L 319.796089 -60.978924 
L 323.75989 -62.601886 
L 327.72369 -61.581097 
L 331.68749 -61.361281 
L 335.65129 -60.887869 
L 339.615091 -61.010019 
L 343.578891 -64.080044 
L 347.542691 -62.805597 
L 351.506492 -61.459381 
L 355.470292 -60.355855 
L 359.434092 -54.78 
L 359.434092 -54.78 
L 359.434092 -54.78 
L 355.470292 -63.494316 
L 351.506492 -67.263619 
L 347.542691 -67.129408 
L 343.578891 -68.141046 
L 339.615091 -63.898207 
L 335.65129 -62.695468 
L 331.68749 -62.983278 
L 327.72369 -64.16854 
L 323.75989 -65.658682 
L 319.796089 -62.101813 
L 315.832289 -62.070153 
L 311.868489 -63.21325 
L 307.904688 -62.376096 
L 303.940888 -61.958409 
L 299.977088 -61.937007 
L 296.013288 -61.958921 
L 292.049487 -62.509162 
L 288.085687 -62.237379 
L 284.121887 -62.244347 
L 280.158087 -66.424788 
L 276.194286 -65.129738 
L 272.230486 -64.62714 
L 268.266686 -65.954346 
L 264.302885 -62.018326 
L 260.339085 -62.025683 
L 256.375285 -61.935568 
L 252.411485 -62.012029 
L 248.447684 -63.503621 
L 244.483884 -63.366648 
L 240.520084 -63.24079 
L 236.556283 -63.203588 
L 232.592483 -63.311907 
L 228.628683 -63.664964 
L 224.664883 -62.138573 
L 220.701082 -61.890119 
L 216.737282 -61.83142 
L 212.773482 -60.929604 
L 208.809681 -61.986819 
L 204.845881 -62.402984 
L 200.882081 -62.280451 
L 196.918281 -62.219561 
L 192.95448 -66.384729 
L 188.99068 -64.777224 
L 185.02688 -65.54789 
L 181.063079 -65.062327 
L 177.099279 -62.065088 
L 173.135479 -62.209652 
L 169.171679 -62.159246 
L 165.207878 -62.118766 
L 161.244078 -64.169287 
L 157.280278 -63.898496 
L 153.316478 -64.07621 
L 149.352677 -74.721226 
L 145.388877 -73.412533 
L 141.425077 -73.812957 
L 137.461276 -74.50488 
L 133.497476 -62.230989 
L 129.533676 -63.458623 
L 125.569876 -63.615355 
L 121.606075 -74.686195 
L 117.642275 -70.627936 
L 113.678475 -68.704216 
L 109.714674 -101.669472 
L 105.750874 -100.636974 
L 101.787074 -99.615662 
L 97.823274 -99.590294 
L 93.859473 -65.688771 
L 89.895673 -66.122494 
L 85.931873 -72.128234 
L 81.968072 -72.039702 
L 78.004272 -71.958959 
L 74.040472 -72.051229 
L 70.076672 -72.161652 
L 66.112871 -72.098065 
L 62.149071 -79.123928 
z
" style="stroke: #2ca02c; stroke-opacity: 0.2"/>
    </defs>
    <g clip-path="url(#pb213d3d3c6)">
     <use xlink:href="#mb4db3026e6" x="0" y="360" style="fill: #2ca02c; fill-opacity: 0.2; stroke: #2ca02c; stroke-opacity: 0.2"/>
    </g>
   </g>
   <g id="PolyCollection_4">
    <defs>
     <path id="mfa9bccfb1d" d="M 62.149071 -121.634477 
L 62.149071 -119.880442 
L 66.112871 -163.894023 
L 70.076672 -168.679215 
L 74.040472 -161.598498 
L 78.004272 -162.568333 
L 81.968072 -166.942066 
L 85.931873 -162.693845 
L 89.895673 -136.29132 
L 93.859473 -133.894847 
L 97.823274 -270.048352 
L 101.787074 -283.485612 
L 105.750874 -268.055174 
L 109.714674 -273.163205 
L 113.678475 -145.240166 
L 117.642275 -153.418041 
L 121.606075 -153.056542 
L 125.569876 -116.999315 
L 129.533676 -116.372289 
L 133.497476 -111.962985 
L 137.461276 -161.534397 
L 141.425077 -167.426538 
L 145.388877 -162.481352 
L 149.352677 -161.542203 
L 153.316478 -117.380099 
L 157.280278 -120.124595 
L 161.244078 -117.566888 
L 165.207878 -106.516232 
L 169.171679 -106.692995 
L 173.135479 -105.893413 
L 177.099279 -104.048654 
L 181.063079 -120.780082 
L 185.02688 -120.825399 
L 188.99068 -118.346654 
L 192.95448 -123.136544 
L 196.918281 -105.45893 
L 200.882081 -107.051479 
L 204.845881 -107.067666 
L 208.809681 -105.652035 
L 212.773482 -103.341142 
L 216.737282 -102.287451 
L 220.701082 -102.2456 
L 224.664883 -101.001627 
L 228.628683 -107.127399 
L 232.592483 -111.820652 
L 236.556283 -109.148246 
L 240.520084 -108.892306 
L 244.483884 -109.667578 
L 248.447684 -109.9487 
L 252.411485 -101.735934 
L 256.375285 -101.417974 
L 260.339085 -100.885548 
L 264.302885 -99.002008 
L 268.266686 -112.200483 
L 272.230486 -113.130986 
L 276.194286 -111.743858 
L 280.158087 -115.439445 
L 284.121887 -100.767987 
L 288.085687 -101.381167 
L 292.049487 -100.723202 
L 296.013288 -97.651199 
L 299.977088 -98.270267 
L 303.940888 -96.772693 
L 307.904688 -95.899891 
L 311.868489 -102.218099 
L 315.832289 -101.410992 
L 319.796089 -101.107942 
L 323.75989 -105.419736 
L 327.72369 -102.573516 
L 331.68749 -101.115839 
L 335.65129 -96.343553 
L 339.615091 -96.339282 
L 343.578891 -104.871697 
L 347.542691 -105.094783 
L 351.506492 -99.862591 
L 355.470292 -93.38287 
L 359.434092 -83.875538 
L 359.434092 -85.060558 
L 359.434092 -85.060558 
L 355.470292 -98.276296 
L 351.506492 -111.213716 
L 347.542691 -114.774922 
L 343.578891 -114.283615 
L 339.615091 -104.468709 
L 335.65129 -101.634075 
L 331.68749 -105.455038 
L 327.72369 -112.316747 
L 323.75989 -116.976168 
L 319.796089 -104.201473 
L 315.832289 -105.374949 
L 311.868489 -107.588853 
L 307.904688 -104.163529 
L 303.940888 -101.405517 
L 299.977088 -100.918137 
L 296.013288 -102.54124 
L 292.049487 -106.810806 
L 288.085687 -104.6847 
L 284.121887 -105.451428 
L 280.158087 -128.064889 
L 276.194286 -122.545652 
L 272.230486 -118.924384 
L 268.266686 -128.460036 
L 264.302885 -101.743299 
L 260.339085 -103.258805 
L 256.375285 -103.767361 
L 252.411485 -107.459838 
L 248.447684 -116.092529 
L 244.483884 -117.59544 
L 240.520084 -112.959116 
L 236.556283 -113.691032 
L 232.592483 -118.227812 
L 228.628683 -120.730349 
L 224.664883 -104.67724 
L 220.701082 -104.121572 
L 216.737282 -105.901652 
L 212.773482 -111.161208 
L 208.809681 -121.439513 
L 204.845881 -119.392966 
L 200.882081 -116.436704 
L 196.918281 -113.696746 
L 192.95448 -142.003084 
L 188.99068 -124.434497 
L 185.02688 -130.962654 
L 181.063079 -128.418558 
L 177.099279 -106.11779 
L 173.135479 -108.422203 
L 169.171679 -111.267962 
L 165.207878 -110.539471 
L 161.244078 -128.19077 
L 157.280278 -127.321387 
L 153.316478 -125.726549 
L 149.352677 -180.9981 
L 145.388877 -167.710631 
L 141.425077 -187.16497 
L 137.461276 -184.870541 
L 133.497476 -117.584067 
L 129.533676 -120.833266 
L 125.569876 -122.849986 
L 121.606075 -178.588547 
L 117.642275 -187.624347 
L 113.678475 -156.18206 
L 109.714674 -300.120896 
L 105.750874 -293.928693 
L 101.787074 -311.18 
L 97.823274 -294.623245 
L 93.859473 -149.572184 
L 89.895673 -154.603487 
L 85.931873 -179.213193 
L 81.968072 -179.703376 
L 78.004272 -171.412808 
L 74.040472 -180.560826 
L 70.076672 -189.683568 
L 66.112871 -176.686585 
L 62.149071 -121.634477 
z
" style="stroke: #d62728; stroke-opacity: 0.2"/>
    </defs>
    <g clip-path="url(#pb213d3d3c6)">
     <use xlink:href="#mfa9bccfb1d" x="0" y="360" style="fill: #d62728; fill-opacity: 0.2; stroke: #d62728; stroke-opacity: 0.2"/>
    </g>
   </g>
   <g id="line2d_14">
    <path d="M 62.149071 296.461366 
L 66.112871 249.107584 
L 70.076672 246.780211 
L 74.040472 244.898973 
L 78.004272 248.676764 
L 81.968072 248.159758 
L 85.931873 247.472127 
L 89.895673 264.540718 
L 93.859473 264.255073 
L 97.823274 179.084223 
L 101.787074 180.79928 
L 105.750874 182.772495 
L 109.714674 177.733906 
L 113.678475 256.062016 
L 117.642275 255.130826 
L 121.606075 255.975936 
L 125.569876 275.889464 
L 129.533676 276.5749 
L 133.497476 275.698391 
L 137.461276 242.257252 
L 141.425077 241.471239 
L 145.388877 242.93274 
L 149.352677 239.094792 
L 153.316478 271.215613 
L 157.280278 267.264552 
L 161.244078 271.250611 
L 165.207878 277.993096 
L 169.171679 278.349027 
L 173.135479 277.747952 
L 177.099279 277.833872 
L 181.063079 266.533774 
L 185.02688 267.883986 
L 188.99068 268.022576 
L 192.95448 265.188696 
L 196.918281 275.748837 
L 200.882081 275.751031 
L 204.845881 275.908274 
L 208.809681 278.601658 
L 212.773482 278.266757 
L 216.737282 278.058594 
L 220.701082 277.706791 
L 224.664883 277.415803 
L 228.628683 272.665051 
L 232.592483 268.647035 
L 236.556283 270.468542 
L 240.520084 271.244844 
L 244.483884 270.977214 
L 248.447684 271.032079 
L 252.411485 276.107387 
L 256.375285 276.049085 
L 260.339085 275.290028 
L 264.302885 275.199055 
L 268.266686 266.14737 
L 272.230486 266.772808 
L 276.194286 266.726754 
L 280.158087 262.495602 
L 284.121887 273.781942 
L 288.085687 273.442941 
L 292.049487 274.233451 
L 296.013288 275.84243 
L 299.977088 275.710982 
L 303.940888 275.310054 
L 307.904688 274.689165 
L 311.868489 270.051081 
L 315.832289 270.184115 
L 319.796089 270.04354 
L 323.75989 269.895243 
L 327.72369 270.797966 
L 331.68749 270.121922 
L 335.65129 273.646368 
L 339.615091 273.632612 
L 343.578891 269.16444 
L 347.542691 268.480432 
L 351.506492 269.268587 
L 355.470292 274.181099 
L 359.434092 275.376055 
" clip-path="url(#pb213d3d3c6)" style="fill: none; stroke: #1f77b4; stroke-width: 1.5; stroke-linecap: round"/>
   </g>
   <g id="line2d_15">
    <path d="M 62.149071 271.298514 
L 66.112871 265.913778 
L 70.076672 261.201436 
L 74.040472 266.657313 
L 78.004272 267.380277 
L 81.968072 262.817786 
L 85.931873 268.153525 
L 89.895673 273.745252 
L 93.859473 274.364508 
L 97.823274 246.442872 
L 101.787074 231.696449 
L 105.750874 247.702239 
L 109.714674 246.189598 
L 113.678475 274.480359 
L 117.642275 268.837778 
L 121.606075 267.374849 
L 125.569876 279.453973 
L 129.533676 278.139895 
L 133.497476 282.984229 
L 137.461276 275.737155 
L 141.425077 269.347467 
L 145.388877 276.910669 
L 149.352677 276.274557 
L 153.316478 284.38159 
L 157.280278 283.454492 
L 161.244078 284.58158 
L 165.207878 286.743617 
L 169.171679 285.792092 
L 173.135479 287.419155 
L 177.099279 289.345776 
L 181.063079 286.548055 
L 185.02688 284.577151 
L 188.99068 287.103599 
L 192.95448 283.899327 
L 196.918281 289.267351 
L 200.882081 287.00089 
L 204.845881 285.801806 
L 208.809681 282.366259 
L 212.773482 287.942416 
L 216.737282 291.040978 
L 220.701082 291.468243 
L 224.664883 292.58276 
L 228.628683 291.804084 
L 232.592483 290.762278 
L 236.556283 292.462623 
L 240.520084 291.946363 
L 244.483884 291.395104 
L 248.447684 290.068883 
L 252.411485 291.868224 
L 256.375285 293.392578 
L 260.339085 295.201061 
L 264.302885 296.715701 
L 268.266686 292.816749 
L 272.230486 293.183017 
L 276.194286 294.762654 
L 280.158087 293.393864 
L 284.121887 295.444049 
L 288.085687 295.608327 
L 292.049487 294.728084 
L 296.013288 297.29853 
L 299.977088 296.652419 
L 303.940888 296.797697 
L 307.904688 299.22215 
L 311.868489 298.715461 
L 315.832289 299.15901 
L 319.796089 300.000969 
L 323.75989 293.604853 
L 327.72369 297.407525 
L 331.68749 300.08268 
L 335.65129 300.232244 
L 339.615091 300.678936 
L 343.578891 298.127061 
L 347.542691 296.135015 
L 351.506492 302.345712 
L 355.470292 302.983395 
L 359.434092 305.22 
" clip-path="url(#pb213d3d3c6)" style="fill: none; stroke: #ff7f0e; stroke-width: 1.5; stroke-linecap: round"/>
   </g>
   <g id="line2d_16">
    <path d="M 62.149071 282.546511 
L 66.112871 288.215469 
L 70.076672 288.242108 
L 74.040472 288.302962 
L 78.004272 288.328021 
L 81.968072 288.272279 
L 85.931873 288.117468 
L 89.895673 294.131935 
L 93.859473 294.489364 
L 97.823274 260.674528 
L 101.787074 260.870953 
L 105.750874 260.525034 
L 109.714674 259.226641 
L 113.678475 291.51346 
L 117.642275 291.320248 
L 121.606075 290.039236 
L 125.569876 297.011944 
L 129.533676 297.830381 
L 133.497476 298.067091 
L 137.461276 285.882032 
L 141.425077 286.776573 
L 145.388877 286.912776 
L 149.352677 285.94921 
L 153.316478 296.171852 
L 157.280278 296.434755 
L 161.244078 296.316158 
L 165.207878 298.458876 
L 169.171679 298.321323 
L 173.135479 298.149021 
L 177.099279 298.245992 
L 181.063079 295.608144 
L 185.02688 295.382102 
L 188.99068 295.613914 
L 192.95448 295.162223 
L 196.918281 298.559405 
L 200.882081 298.269367 
L 204.845881 298.843316 
L 208.809681 298.988884 
L 212.773482 299.369173 
L 216.737282 298.600901 
L 220.701082 298.415038 
L 224.664883 298.481993 
L 228.628683 297.347772 
L 232.592483 297.170888 
L 236.556283 297.10011 
L 240.520084 297.074089 
L 244.483884 297.237491 
L 248.447684 296.93914 
L 252.411485 298.495964 
L 256.375285 298.624121 
L 260.339085 298.374853 
L 264.302885 298.451955 
L 268.266686 295.318329 
L 272.230486 295.99985 
L 276.194286 295.664777 
L 280.158087 294.974038 
L 284.121887 298.160076 
L 288.085687 298.343629 
L 292.049487 298.002848 
L 296.013288 298.429859 
L 299.977088 298.450224 
L 303.940888 298.799055 
L 307.904688 299.022968 
L 311.868489 297.827375 
L 315.832289 298.701753 
L 319.796089 298.688279 
L 323.75989 295.902874 
L 327.72369 297.296579 
L 331.68749 298.239085 
L 335.65129 298.294258 
L 339.615091 297.931388 
L 343.578891 293.538776 
L 347.542691 294.234774 
L 351.506492 297.663339 
L 355.470292 298.257512 
L 359.434092 305.22 
" clip-path="url(#pb213d3d3c6)" style="fill: none; stroke: #2ca02c; stroke-width: 1.5; stroke-linecap: round"/>
   </g>
   <g id="line2d_17">
    <path d="M 62.149071 239.626453 
L 66.112871 192.072341 
L 70.076672 183.974989 
L 74.040472 189.310125 
L 78.004272 193.820624 
L 81.968072 188.156569 
L 85.931873 191.661702 
L 89.895673 221.04835 
L 93.859473 221.433722 
L 97.823274 75.739662 
L 101.787074 63.016661 
L 105.750874 78.914577 
L 109.714674 67.915654 
L 113.678475 210.752 
L 117.642275 195.110708 
L 121.606075 195.402117 
L 125.569876 241.273657 
L 129.533676 241.659563 
L 133.497476 246.337405 
L 137.461276 191.344898 
L 141.425077 185.410646 
L 145.388877 195.963752 
L 149.352677 190.229514 
L 153.316478 240.878469 
L 157.280278 236.94513 
L 161.244078 239.055588 
L 165.207878 252.260202 
L 169.171679 251.734519 
L 173.135479 252.97048 
L 177.099279 254.739472 
L 181.063079 236.960159 
L 185.02688 236.462912 
L 188.99068 239.712058 
L 192.95448 229.930254 
L 196.918281 252.577936 
L 200.882081 250.783228 
L 204.845881 249.515949 
L 208.809681 247.929932 
L 212.773482 254.989353 
L 216.737282 256.74478 
L 220.701082 256.724912 
L 224.664883 258.0078 
L 228.628683 250.851449 
L 232.592483 244.656528 
L 236.556283 248.833528 
L 240.520084 249.5979 
L 244.483884 247.528979 
L 248.447684 246.947847 
L 252.411485 255.98747 
L 256.375285 257.398206 
L 260.339085 258.35471 
L 264.302885 259.974005 
L 268.266686 239.675104 
L 272.230486 244.766202 
L 276.194286 244.076482 
L 280.158087 240.529682 
L 284.121887 256.851255 
L 288.085687 257.060499 
L 292.049487 256.714516 
L 296.013288 260.801892 
L 299.977088 260.735706 
L 303.940888 260.845195 
L 307.904688 262.013277 
L 311.868489 255.575484 
L 315.832289 256.952571 
L 319.796089 257.841142 
L 323.75989 246.433168 
L 327.72369 254.614958 
L 331.68749 257.440004 
L 335.65129 262.057533 
L 339.615091 261.856936 
L 343.578891 250.834706 
L 347.542691 248.557751 
L 351.506492 257.442966 
L 355.470292 264.654283 
L 359.434092 275.376055 
" clip-path="url(#pb213d3d3c6)" style="fill: none; stroke: #d62728; stroke-width: 1.5; stroke-linecap: round"/>
   </g>
   <g id="line2d_18"/>
   <g id="line2d_19"/>
   <g id="line2d_20"/>
   <g id="line2d_21"/>
   <g id="patch_3">
    <path d="M 47.28482 318.04 
L 47.28482 36 
" style="fill: none; stroke: #cccccc; stroke-width: 0.8; stroke-linejoin: miter; stroke-linecap: square"/>
   </g>
   <g id="patch_4">
    <path d="M 47.28482 318.04 
L 374.298343 318.04 
" style="fill: none; stroke: #cccccc; stroke-width: 0.8; stroke-linejoin: miter; stroke-linecap: square"/>
   </g>
   <g id="text_16">
    <!-- client_pu = TPU -->
    <g style="fill: #262626" transform="translate(175.167363 30) scale(0.1 -0.1)">
     <defs>
      <path id="ArialMT-69" d="M 425 3934 
L 425 4581 
L 988 4581 
L 988 3934 
L 425 3934 
z
M 425 0 
L 425 3319 
L 988 3319 
L 988 0 
L 425 0 
z
" transform="scale(0.015625)"/>
      <path id="ArialMT-6e" d="M 422 0 
L 422 3319 
L 928 3319 
L 928 2847 
Q 1294 3394 1984 3394 
Q 2284 3394 2536 3286 
Q 2788 3178 2913 3003 
Q 3038 2828 3088 2588 
Q 3119 2431 3119 2041 
L 3119 0 
L 2556 0 
L 2556 2019 
Q 2556 2363 2490 2533 
Q 2425 2703 2258 2804 
Q 2091 2906 1866 2906 
Q 1506 2906 1245 2678 
Q 984 2450 984 1813 
L 984 0 
L 422 0 
z
" transform="scale(0.015625)"/>
      <path id="ArialMT-5f" d="M -97 -1272 
L -97 -866 
L 3631 -866 
L 3631 -1272 
L -97 -1272 
z
" transform="scale(0.015625)"/>
      <path id="ArialMT-70" d="M 422 -1272 
L 422 3319 
L 934 3319 
L 934 2888 
Q 1116 3141 1344 3267 
Q 1572 3394 1897 3394 
Q 2322 3394 2647 3175 
Q 2972 2956 3137 2557 
Q 3303 2159 3303 1684 
Q 3303 1175 3120 767 
Q 2938 359 2589 142 
Q 2241 -75 1856 -75 
Q 1575 -75 1351 44 
Q 1128 163 984 344 
L 984 -1272 
L 422 -1272 
z
M 931 1641 
Q 931 1000 1190 694 
Q 1450 388 1819 388 
Q 2194 388 2461 705 
Q 2728 1022 2728 1688 
Q 2728 2322 2467 2637 
Q 2206 2953 1844 2953 
Q 1484 2953 1207 2617 
Q 931 2281 931 1641 
z
" transform="scale(0.015625)"/>
      <path id="ArialMT-3d" d="M 3381 2694 
L 356 2694 
L 356 3219 
L 3381 3219 
L 3381 2694 
z
M 3381 1303 
L 356 1303 
L 356 1828 
L 3381 1828 
L 3381 1303 
z
" transform="scale(0.015625)"/>
      <path id="ArialMT-54" d="M 1659 0 
L 1659 4041 
L 150 4041 
L 150 4581 
L 3781 4581 
L 3781 4041 
L 2266 4041 
L 2266 0 
L 1659 0 
z
" transform="scale(0.015625)"/>
      <path id="ArialMT-50" d="M 494 0 
L 494 4581 
L 2222 4581 
Q 2678 4581 2919 4538 
Q 3256 4481 3484 4323 
Q 3713 4166 3852 3881 
Q 3991 3597 3991 3256 
Q 3991 2672 3619 2267 
Q 3247 1863 2275 1863 
L 1100 1863 
L 1100 0 
L 494 0 
z
M 1100 2403 
L 2284 2403 
Q 2872 2403 3119 2622 
Q 3366 2841 3366 3238 
Q 3366 3525 3220 3729 
Q 3075 3934 2838 4000 
Q 2684 4041 2272 4041 
L 1100 4041 
L 1100 2403 
z
" transform="scale(0.015625)"/>
      <path id="ArialMT-55" d="M 3500 4581 
L 4106 4581 
L 4106 1934 
Q 4106 1244 3950 837 
Q 3794 431 3386 176 
Q 2978 -78 2316 -78 
Q 1672 -78 1262 144 
Q 853 366 678 786 
Q 503 1206 503 1934 
L 503 4581 
L 1109 4581 
L 1109 1938 
Q 1109 1341 1220 1058 
Q 1331 775 1601 622 
Q 1872 469 2263 469 
Q 2931 469 3215 772 
Q 3500 1075 3500 1938 
L 3500 4581 
z
" transform="scale(0.015625)"/>
     </defs>
     <use xlink:href="#ArialMT-63"/>
     <use xlink:href="#ArialMT-6c" x="50"/>
     <use xlink:href="#ArialMT-69" x="72.216797"/>
     <use xlink:href="#ArialMT-65" x="94.433594"/>
     <use xlink:href="#ArialMT-6e" x="150.048828"/>
     <use xlink:href="#ArialMT-74" x="205.664062"/>
     <use xlink:href="#ArialMT-5f" x="233.447266"/>
     <use xlink:href="#ArialMT-70" x="289.0625"/>
     <use xlink:href="#ArialMT-75" x="344.677734"/>
     <use xlink:href="#ArialMT-20" x="400.292969"/>
     <use xlink:href="#ArialMT-3d" x="428.076172"/>
     <use xlink:href="#ArialMT-20" x="486.474609"/>
     <use xlink:href="#ArialMT-54" x="512.507812"/>
     <use xlink:href="#ArialMT-50" x="573.591797"/>
     <use xlink:href="#ArialMT-55" x="640.291016"/>
    </g>
   </g>
  </g>
  <g id="axes_2">
   <g id="patch_5">
    <path d="M 385.076377 318.04 
L 712.0899 318.04 
L 712.0899 36 
L 385.076377 36 
z
" style="fill: #ffffff"/>
   </g>
   <g id="matplotlib.axis_3">
    <g id="xtick_9">
     <g id="line2d_22">
      <path d="M 399.940628 318.04 
L 399.940628 36 
" clip-path="url(#pe8f2180631)" style="fill: none; stroke: #cccccc; stroke-width: 0.8; stroke-linecap: round"/>
     </g>
     <g id="text_17">
      <!-- 0 -->
      <g style="fill: #262626" transform="translate(397.160159 332.197812) scale(0.1 -0.1)">
       <use xlink:href="#ArialMT-30"/>
      </g>
     </g>
    </g>
    <g id="xtick_10">
     <g id="line2d_23">
      <path d="M 439.578631 318.04 
L 439.578631 36 
" clip-path="url(#pe8f2180631)" style="fill: none; stroke: #cccccc; stroke-width: 0.8; stroke-linecap: round"/>
     </g>
     <g id="text_18">
      <!-- 10 -->
      <g style="fill: #262626" transform="translate(434.017693 332.197812) scale(0.1 -0.1)">
       <use xlink:href="#ArialMT-31"/>
       <use xlink:href="#ArialMT-30" x="55.615234"/>
      </g>
     </g>
    </g>
    <g id="xtick_11">
     <g id="line2d_24">
      <path d="M 479.216633 318.04 
L 479.216633 36 
" clip-path="url(#pe8f2180631)" style="fill: none; stroke: #cccccc; stroke-width: 0.8; stroke-linecap: round"/>
     </g>
     <g id="text_19">
      <!-- 20 -->
      <g style="fill: #262626" transform="translate(473.655696 332.197812) scale(0.1 -0.1)">
       <use xlink:href="#ArialMT-32"/>
       <use xlink:href="#ArialMT-30" x="55.615234"/>
      </g>
     </g>
    </g>
    <g id="xtick_12">
     <g id="line2d_25">
      <path d="M 518.854636 318.04 
L 518.854636 36 
" clip-path="url(#pe8f2180631)" style="fill: none; stroke: #cccccc; stroke-width: 0.8; stroke-linecap: round"/>
     </g>
     <g id="text_20">
      <!-- 30 -->
      <g style="fill: #262626" transform="translate(513.293699 332.197812) scale(0.1 -0.1)">
       <use xlink:href="#ArialMT-33"/>
       <use xlink:href="#ArialMT-30" x="55.615234"/>
      </g>
     </g>
    </g>
    <g id="xtick_13">
     <g id="line2d_26">
      <path d="M 558.492639 318.04 
L 558.492639 36 
" clip-path="url(#pe8f2180631)" style="fill: none; stroke: #cccccc; stroke-width: 0.8; stroke-linecap: round"/>
     </g>
     <g id="text_21">
      <!-- 40 -->
      <g style="fill: #262626" transform="translate(552.931702 332.197812) scale(0.1 -0.1)">
       <use xlink:href="#ArialMT-34"/>
       <use xlink:href="#ArialMT-30" x="55.615234"/>
      </g>
     </g>
    </g>
    <g id="xtick_14">
     <g id="line2d_27">
      <path d="M 598.130642 318.04 
L 598.130642 36 
" clip-path="url(#pe8f2180631)" style="fill: none; stroke: #cccccc; stroke-width: 0.8; stroke-linecap: round"/>
     </g>
     <g id="text_22">
      <!-- 50 -->
      <g style="fill: #262626" transform="translate(592.569704 332.197812) scale(0.1 -0.1)">
       <use xlink:href="#ArialMT-35"/>
       <use xlink:href="#ArialMT-30" x="55.615234"/>
      </g>
     </g>
    </g>
    <g id="xtick_15">
     <g id="line2d_28">
      <path d="M 637.768645 318.04 
L 637.768645 36 
" clip-path="url(#pe8f2180631)" style="fill: none; stroke: #cccccc; stroke-width: 0.8; stroke-linecap: round"/>
     </g>
     <g id="text_23">
      <!-- 60 -->
      <g style="fill: #262626" transform="translate(632.207707 332.197812) scale(0.1 -0.1)">
       <use xlink:href="#ArialMT-36"/>
       <use xlink:href="#ArialMT-30" x="55.615234"/>
      </g>
     </g>
    </g>
    <g id="xtick_16">
     <g id="line2d_29">
      <path d="M 677.406648 318.04 
L 677.406648 36 
" clip-path="url(#pe8f2180631)" style="fill: none; stroke: #cccccc; stroke-width: 0.8; stroke-linecap: round"/>
     </g>
     <g id="text_24">
      <!-- 70 -->
      <g style="fill: #262626" transform="translate(671.84571 332.197812) scale(0.1 -0.1)">
       <use xlink:href="#ArialMT-37"/>
       <use xlink:href="#ArialMT-30" x="55.615234"/>
      </g>
     </g>
    </g>
    <g id="text_25">
     <!-- offload to cloud before layer -->
     <g style="fill: #262626" transform="translate(486.969076 345.465) scale(0.1 -0.1)">
      <use xlink:href="#ArialMT-6f"/>
      <use xlink:href="#ArialMT-66" x="55.615234"/>
      <use xlink:href="#ArialMT-66" x="81.648438"/>
      <use xlink:href="#ArialMT-6c" x="109.431641"/>
      <use xlink:href="#ArialMT-6f" x="131.648438"/>
      <use xlink:href="#ArialMT-61" x="187.263672"/>
      <use xlink:href="#ArialMT-64" x="242.878906"/>
      <use xlink:href="#ArialMT-20" x="298.494141"/>
      <use xlink:href="#ArialMT-74" x="326.277344"/>
      <use xlink:href="#ArialMT-6f" x="354.060547"/>
      <use xlink:href="#ArialMT-20" x="409.675781"/>
      <use xlink:href="#ArialMT-63" x="437.458984"/>
      <use xlink:href="#ArialMT-6c" x="487.458984"/>
      <use xlink:href="#ArialMT-6f" x="509.675781"/>
      <use xlink:href="#ArialMT-75" x="565.291016"/>
      <use xlink:href="#ArialMT-64" x="620.90625"/>
      <use xlink:href="#ArialMT-20" x="676.521484"/>
      <use xlink:href="#ArialMT-62" x="704.304688"/>
      <use xlink:href="#ArialMT-65" x="759.919922"/>
      <use xlink:href="#ArialMT-66" x="815.535156"/>
      <use xlink:href="#ArialMT-6f" x="843.318359"/>
      <use xlink:href="#ArialMT-72" x="898.933594"/>
      <use xlink:href="#ArialMT-65" x="932.234375"/>
      <use xlink:href="#ArialMT-20" x="987.849609"/>
      <use xlink:href="#ArialMT-6c" x="1015.632812"/>
      <use xlink:href="#ArialMT-61" x="1037.849609"/>
      <use xlink:href="#ArialMT-79" x="1093.464844"/>
      <use xlink:href="#ArialMT-65" x="1143.464844"/>
      <use xlink:href="#ArialMT-72" x="1199.080078"/>
     </g>
    </g>
   </g>
   <g id="matplotlib.axis_4">
    <g id="ytick_6">
     <g id="line2d_30">
      <path d="M 385.076377 305.22 
L 712.0899 305.22 
" clip-path="url(#pe8f2180631)" style="fill: none; stroke: #cccccc; stroke-width: 0.8; stroke-linecap: round"/>
     </g>
    </g>
    <g id="ytick_7">
     <g id="line2d_31">
      <path d="M 385.076377 248.079935 
L 712.0899 248.079935 
" clip-path="url(#pe8f2180631)" style="fill: none; stroke: #cccccc; stroke-width: 0.8; stroke-linecap: round"/>
     </g>
    </g>
    <g id="ytick_8">
     <g id="line2d_32">
      <path d="M 385.076377 190.939869 
L 712.0899 190.939869 
" clip-path="url(#pe8f2180631)" style="fill: none; stroke: #cccccc; stroke-width: 0.8; stroke-linecap: round"/>
     </g>
    </g>
    <g id="ytick_9">
     <g id="line2d_33">
      <path d="M 385.076377 133.799804 
L 712.0899 133.799804 
" clip-path="url(#pe8f2180631)" style="fill: none; stroke: #cccccc; stroke-width: 0.8; stroke-linecap: round"/>
     </g>
    </g>
    <g id="ytick_10">
     <g id="line2d_34">
      <path d="M 385.076377 76.659738 
L 712.0899 76.659738 
" clip-path="url(#pe8f2180631)" style="fill: none; stroke: #cccccc; stroke-width: 0.8; stroke-linecap: round"/>
     </g>
    </g>
   </g>
   <g id="PolyCollection_5">
    <defs>
     <path id="m30d860ad97" d="M 399.940628 -63.725673 
L 399.940628 -62.925271 
L 403.904428 -88.751575 
L 407.868228 -89.615492 
L 411.832029 -88.698563 
L 415.795829 -93.227236 
L 419.759629 -93.587096 
L 423.72343 -93.321068 
L 427.68723 -95.397954 
L 431.65103 -95.835124 
L 435.61483 -117.33199 
L 439.578631 -116.095606 
L 443.542431 -116.434066 
L 447.506231 -120.378248 
L 451.470032 -115.445352 
L 455.433832 -116.203337 
L 459.397632 -116.865771 
L 463.361432 -118.166738 
L 467.325233 -118.040119 
L 471.289033 -133.700184 
L 475.252833 -143.013417 
L 479.216633 -142.932797 
L 483.180434 -142.41603 
L 487.144234 -143.501482 
L 491.108034 -143.127695 
L 495.071835 -143.170047 
L 499.035635 -143.31935 
L 502.999435 -143.200572 
L 506.963235 -144.119287 
L 510.927036 -149.687674 
L 514.890836 -154.380586 
L 518.854636 -158.282432 
L 522.818437 -158.450674 
L 526.782237 -158.502695 
L 530.746037 -158.32772 
L 534.709837 -157.72954 
L 538.673638 -157.987024 
L 542.637438 -157.293481 
L 546.601238 -158.278634 
L 550.565039 -158.524927 
L 554.528839 -162.157054 
L 558.492639 -167.192839 
L 562.456439 -171.273763 
L 566.42024 -173.974225 
L 570.38404 -174.016379 
L 574.34784 -174.152692 
L 578.311641 -174.89921 
L 582.275441 -174.497327 
L 586.239241 -173.938933 
L 590.203041 -175.890247 
L 594.166842 -176.626368 
L 598.130642 -185.97744 
L 602.094442 -194.853027 
L 606.058242 -199.807534 
L 610.022043 -200.163423 
L 613.985843 -200.680087 
L 617.949643 -201.07304 
L 621.913444 -199.20065 
L 625.877244 -198.575092 
L 629.841044 -200.111614 
L 633.804844 -201.444431 
L 637.768645 -201.577587 
L 641.732445 -207.108834 
L 645.696245 -213.084892 
L 649.660046 -215.867812 
L 653.623846 -215.680308 
L 657.587646 -216.458621 
L 661.551446 -216.971766 
L 665.515247 -216.684995 
L 669.479047 -216.821244 
L 673.442847 -220.924335 
L 677.406648 -220.974528 
L 681.370448 -228.086594 
L 685.334248 -227.6237 
L 689.298048 -228.15663 
L 693.261849 -227.409821 
L 697.225649 -226.625213 
L 697.225649 -227.931802 
L 697.225649 -227.931802 
L 693.261849 -228.764556 
L 689.298048 -229.139535 
L 685.334248 -228.769056 
L 681.370448 -229.359376 
L 677.406648 -222.134965 
L 673.442847 -222.280723 
L 669.479047 -217.771649 
L 665.515247 -218.407646 
L 661.551446 -218.272193 
L 657.587646 -217.919844 
L 653.623846 -216.993181 
L 649.660046 -217.100304 
L 645.696245 -214.233873 
L 641.732445 -208.57258 
L 637.768645 -202.745122 
L 633.804844 -203.117443 
L 629.841044 -201.299442 
L 625.877244 -200.487004 
L 621.913444 -201.191829 
L 617.949643 -202.221861 
L 613.985843 -201.800285 
L 610.022043 -201.753912 
L 606.058242 -201.139544 
L 602.094442 -196.015404 
L 598.130642 -187.411654 
L 594.166842 -177.932031 
L 590.203041 -177.359763 
L 586.239241 -175.395278 
L 582.275441 -175.566946 
L 578.311641 -176.34526 
L 574.34784 -175.494479 
L 570.38404 -175.419179 
L 566.42024 -175.335241 
L 562.456439 -173.017733 
L 558.492639 -168.209619 
L 554.528839 -163.475826 
L 550.565039 -159.698536 
L 546.601238 -159.67109 
L 542.637438 -158.805533 
L 538.673638 -159.01908 
L 534.709837 -158.792282 
L 530.746037 -160.077788 
L 526.782237 -159.740359 
L 522.818437 -159.54832 
L 518.854636 -159.257743 
L 514.890836 -155.638052 
L 510.927036 -150.88861 
L 506.963235 -145.19453 
L 502.999435 -144.727783 
L 499.035635 -144.563893 
L 495.071835 -144.343879 
L 491.108034 -144.40795 
L 487.144234 -144.964704 
L 483.180434 -143.861341 
L 479.216633 -144.154975 
L 475.252833 -143.990701 
L 471.289033 -134.780067 
L 467.325233 -119.456092 
L 463.361432 -119.516659 
L 459.397632 -118.109135 
L 455.433832 -117.491818 
L 451.470032 -116.841898 
L 447.506231 -122.50553 
L 443.542431 -118.25028 
L 439.578631 -118.020135 
L 435.61483 -118.802297 
L 431.65103 -97.426618 
L 427.68723 -96.663701 
L 423.72343 -94.246065 
L 419.759629 -94.956763 
L 415.795829 -94.304647 
L 411.832029 -89.802055 
L 407.868228 -91.109372 
L 403.904428 -90.062264 
L 399.940628 -63.725673 
z
" style="stroke: #1f77b4; stroke-opacity: 0.2"/>
    </defs>
    <g clip-path="url(#pe8f2180631)">
     <use xlink:href="#m30d860ad97" x="0" y="360" style="fill: #1f77b4; fill-opacity: 0.2; stroke: #1f77b4; stroke-opacity: 0.2"/>
    </g>
   </g>
   <g id="PolyCollection_6">
    <defs>
     <path id="mcff66ef1bb" d="M 399.940628 -89.064539 
L 399.940628 -88.49071 
L 403.904428 -93.945801 
L 407.868228 -98.819777 
L 411.832029 -93.191052 
L 415.795829 -92.607652 
L 419.759629 -97.250925 
L 423.72343 -91.770978 
L 427.68723 -85.865124 
L 431.65103 -85.288081 
L 435.61483 -113.956894 
L 439.578631 -128.400617 
L 443.542431 -111.604938 
L 447.506231 -111.805857 
L 451.470032 -85.505856 
L 455.433832 -89.047611 
L 459.397632 -85.225512 
L 463.361432 -78.923035 
L 467.325233 -80.948293 
L 471.289033 -78.41556 
L 475.252833 -84.294844 
L 479.216633 -89.672438 
L 483.180434 -83.611663 
L 487.144234 -84.213205 
L 491.108034 -77.692166 
L 495.071835 -80.284897 
L 499.035635 -77.180977 
L 502.999435 -78.51434 
L 506.963235 -76.005392 
L 510.927036 -76.963559 
L 514.890836 -78.85111 
L 518.854636 -73.981276 
L 522.818437 -81.580833 
L 526.782237 -78.652976 
L 530.746037 -75.905039 
L 534.709837 -76.027962 
L 538.673638 -73.429803 
L 542.637438 -71.091203 
L 546.601238 -70.710507 
L 550.565039 -70.695151 
L 554.528839 -70.787646 
L 558.492639 -71.267194 
L 562.456439 -67.884931 
L 566.42024 -67.960427 
L 570.38404 -70.640511 
L 574.34784 -69.512494 
L 578.311641 -67.894359 
L 582.275441 -69.247507 
L 586.239241 -69.488996 
L 590.203041 -67.196465 
L 594.166842 -68.688106 
L 598.130642 -68.033424 
L 602.094442 -71.311692 
L 606.058242 -66.726345 
L 610.022043 -65.433908 
L 613.985843 -65.023285 
L 617.949643 -64.188469 
L 621.913444 -64.618234 
L 625.877244 -62.953029 
L 629.841044 -68.728319 
L 633.804844 -65.545117 
L 637.768645 -62.001576 
L 641.732445 -61.652093 
L 645.696245 -61.527742 
L 649.660046 -61.414604 
L 653.623846 -65.292915 
L 657.587646 -63.664709 
L 661.551446 -63.334868 
L 665.515247 -61.550098 
L 669.479047 -64.073546 
L 673.442847 -58.41318 
L 677.406648 -58.039198 
L 681.370448 -57.676358 
L 685.334248 -58.131979 
L 689.298048 -57.707071 
L 693.261849 -57.321376 
L 697.225649 -54.78 
L 697.225649 -54.78 
L 697.225649 -54.78 
L 693.261849 -60.674998 
L 689.298048 -63.221159 
L 685.334248 -67.006474 
L 681.370448 -63.689493 
L 677.406648 -61.28004 
L 673.442847 -67.385956 
L 669.479047 -72.797263 
L 665.515247 -76.017534 
L 661.551446 -73.779572 
L 657.587646 -73.728217 
L 653.623846 -76.622504 
L 649.660046 -73.856068 
L 645.696245 -73.678791 
L 641.732445 -78.669976 
L 637.768645 -78.444201 
L 633.804844 -83.470598 
L 629.841044 -85.727631 
L 625.877244 -76.966773 
L 621.913444 -85.698275 
L 617.949643 -85.379576 
L 613.985843 -88.266078 
L 610.022043 -91.9234 
L 606.058242 -88.496924 
L 602.094442 -88.245651 
L 598.130642 -89.969995 
L 594.166842 -82.14002 
L 590.203041 -76.569578 
L 586.239241 -75.866113 
L 582.275441 -80.377178 
L 578.311641 -77.198762 
L 574.34784 -76.319019 
L 570.38404 -77.522246 
L 566.42024 -84.179135 
L 562.456439 -78.177143 
L 558.492639 -91.274503 
L 554.528839 -87.526186 
L 550.565039 -82.001813 
L 546.601238 -79.576646 
L 542.637438 -87.717748 
L 538.673638 -91.111796 
L 534.709837 -92.302667 
L 530.746037 -93.190266 
L 526.782237 -92.681077 
L 522.818437 -94.020297 
L 518.854636 -89.698437 
L 514.890836 -91.669769 
L 510.927036 -92.26374 
L 506.963235 -89.965781 
L 502.999435 -91.212077 
L 499.035635 -89.627226 
L 495.071835 -91.059227 
L 491.108034 -89.872714 
L 487.144234 -87.570041 
L 483.180434 -84.533046 
L 479.216633 -90.647962 
L 475.252833 -85.153445 
L 471.289033 -85.680705 
L 467.325233 -86.149039 
L 463.361432 -82.806916 
L 459.397632 -87.727033 
L 455.433832 -90.581894 
L 451.470032 -86.257748 
L 447.506231 -113.264428 
L 443.542431 -113.108864 
L 439.578631 -130.589939 
L 435.61483 -116.661548 
L 431.65103 -85.869052 
L 427.68723 -86.496522 
L 423.72343 -92.389305 
L 419.759629 -97.787256 
L 415.795829 -96.024913 
L 411.832029 -93.60896 
L 407.868228 -99.749803 
L 403.904428 -94.450919 
L 399.940628 -89.064539 
z
" style="stroke: #ff7f0e; stroke-opacity: 0.2"/>
    </defs>
    <g clip-path="url(#pe8f2180631)">
     <use xlink:href="#mcff66ef1bb" x="0" y="360" style="fill: #ff7f0e; fill-opacity: 0.2; stroke: #ff7f0e; stroke-opacity: 0.2"/>
    </g>
   </g>
   <g id="PolyCollection_7">
    <defs>
     <path id="md0302d5d19" d="M 399.940628 -78.060826 
L 399.940628 -77.219049 
L 403.904428 -71.580098 
L 407.868228 -71.309598 
L 411.832029 -71.851759 
L 415.795829 -71.318929 
L 419.759629 -71.431506 
L 423.72343 -71.704016 
L 427.68723 -65.632728 
L 431.65103 -65.550847 
L 435.61483 -98.819663 
L 439.578631 -99.006369 
L 443.542431 -98.886475 
L 447.506231 -99.684687 
L 451.470032 -68.579916 
L 455.433832 -68.524887 
L 459.397632 -68.23157 
L 463.361432 -62.014336 
L 467.325233 -61.653165 
L 471.289033 -62.365444 
L 475.252833 -73.514576 
L 479.216633 -73.308538 
L 483.180434 -73.218083 
L 487.144234 -73.885607 
L 491.108034 -63.797703 
L 495.071835 -63.728883 
L 499.035635 -63.990879 
L 502.999435 -61.810518 
L 506.963235 -61.622244 
L 510.927036 -61.809152 
L 514.890836 -61.911194 
L 518.854636 -64.756448 
L 522.818437 -65.175512 
L 526.782237 -65.067727 
L 530.746037 -65.239092 
L 534.709837 -62.11665 
L 538.673638 -61.976814 
L 542.637438 -61.303338 
L 546.601238 -60.580807 
L 550.565039 -60.621813 
L 554.528839 -61.433807 
L 558.492639 -61.513225 
L 562.456439 -60.633545 
L 566.42024 -62.018901 
L 570.38404 -62.207773 
L 574.34784 -62.172115 
L 578.311641 -61.930673 
L 582.275441 -61.842482 
L 586.239241 -62.024605 
L 590.203041 -60.664365 
L 594.166842 -61.096407 
L 598.130642 -61.905858 
L 602.094442 -62.395681 
L 606.058242 -65.162916 
L 610.022043 -63.593964 
L 613.985843 -64.605142 
L 617.949643 -64.313356 
L 621.913444 -62.099278 
L 625.877244 -60.894324 
L 629.841044 -62.426245 
L 633.804844 -62.013043 
L 637.768645 -60.710381 
L 641.732445 -61.410506 
L 645.696245 -61.601246 
L 649.660046 -62.479809 
L 653.623846 -63.647901 
L 657.587646 -63.389427 
L 661.551446 -63.758494 
L 665.515247 -62.363238 
L 669.479047 -63.438222 
L 673.442847 -60.860786 
L 677.406648 -60.274726 
L 681.370448 -62.501632 
L 685.334248 -61.667465 
L 689.298048 -62.545349 
L 693.261849 -61.935005 
L 697.225649 -54.78 
L 697.225649 -54.78 
L 697.225649 -54.78 
L 693.261849 -64.889904 
L 689.298048 -68.587513 
L 685.334248 -68.539431 
L 681.370448 -68.39934 
L 677.406648 -63.441527 
L 673.442847 -65.266648 
L 669.479047 -67.203938 
L 665.515247 -67.26495 
L 661.551446 -67.24445 
L 657.587646 -67.015347 
L 653.623846 -67.162168 
L 649.660046 -67.005514 
L 645.696245 -64.695706 
L 641.732445 -64.861425 
L 637.768645 -64.172782 
L 633.804844 -64.981737 
L 629.841044 -65.616188 
L 625.877244 -64.84208 
L 621.913444 -65.457799 
L 617.949643 -72.786847 
L 613.985843 -71.961814 
L 610.022043 -71.240749 
L 606.058242 -71.446994 
L 602.094442 -65.064767 
L 598.130642 -64.459578 
L 594.166842 -63.432679 
L 590.203041 -62.345947 
L 586.239241 -64.077099 
L 582.275441 -64.849008 
L 578.311641 -64.756028 
L 574.34784 -64.044587 
L 570.38404 -63.756475 
L 566.42024 -65.820595 
L 562.456439 -62.622054 
L 558.492639 -63.272957 
L 554.528839 -62.826439 
L 550.565039 -62.67118 
L 546.601238 -62.264054 
L 542.637438 -63.101097 
L 538.673638 -63.523162 
L 534.709837 -63.383415 
L 530.746037 -68.908318 
L 526.782237 -67.925366 
L 522.818437 -67.423896 
L 518.854636 -67.694356 
L 514.890836 -63.144246 
L 510.927036 -62.770997 
L 506.963235 -62.481763 
L 502.999435 -62.707602 
L 499.035635 -65.580281 
L 495.071835 -65.044249 
L 491.108034 -65.276991 
L 487.144234 -74.284392 
L 483.180434 -73.632225 
L 479.216633 -73.654058 
L 475.252833 -74.218381 
L 471.289033 -63.516445 
L 467.325233 -61.983092 
L 463.361432 -63.274781 
L 459.397632 -68.766864 
L 455.433832 -68.899772 
L 451.470032 -68.874041 
L 447.506231 -100.521935 
L 443.542431 -100.00418 
L 439.578631 -99.98549 
L 435.61483 -99.956397 
L 431.65103 -66.056483 
L 427.68723 -65.933574 
L 423.72343 -72.360093 
L 419.759629 -72.132151 
L 415.795829 -72.412397 
L 411.832029 -72.440555 
L 407.868228 -72.063705 
L 403.904428 -72.290794 
L 399.940628 -78.060826 
z
" style="stroke: #2ca02c; stroke-opacity: 0.2"/>
    </defs>
    <g clip-path="url(#pe8f2180631)">
     <use xlink:href="#md0302d5d19" x="0" y="360" style="fill: #2ca02c; fill-opacity: 0.2; stroke: #2ca02c; stroke-opacity: 0.2"/>
    </g>
   </g>
   <g id="PolyCollection_8">
    <defs>
     <path id="m592a967874" d="M 399.940628 -120.744776 
L 399.940628 -119.711585 
L 403.904428 -145.266499 
L 407.868228 -150.768225 
L 411.832029 -144.550089 
L 415.795829 -148.493068 
L 419.759629 -153.162395 
L 423.72343 -147.654269 
L 427.68723 -137.73561 
L 431.65103 -137.484209 
L 435.61483 -221.28761 
L 439.578631 -235.412925 
L 443.542431 -217.99947 
L 447.506231 -223.136851 
L 451.470032 -160.51721 
L 455.433832 -164.637469 
L 459.397632 -161.669959 
L 463.361432 -150.322586 
L 467.325233 -151.664491 
L 471.289033 -165.01694 
L 475.252833 -191.850513 
L 479.216633 -196.751955 
L 483.180434 -190.152188 
L 487.144234 -192.728199 
L 491.108034 -176.568651 
L 495.071835 -177.557362 
L 499.035635 -177.671019 
L 502.999435 -174.548043 
L 506.963235 -174.321984 
L 510.927036 -180.699889 
L 514.890836 -186.370925 
L 518.854636 -188.573192 
L 522.818437 -196.382014 
L 526.782237 -194.586564 
L 530.746037 -192.061013 
L 534.709837 -187.128556 
L 538.673638 -184.655949 
L 542.637438 -181.053542 
L 546.601238 -181.273184 
L 550.565039 -181.502031 
L 554.528839 -186.251447 
L 558.492639 -191.64101 
L 562.456439 -191.563634 
L 566.42024 -195.813816 
L 570.38404 -197.766688 
L 574.34784 -197.340088 
L 578.311641 -196.74289 
L 582.275441 -196.537835 
L 586.239241 -197.754587 
L 590.203041 -195.228931 
L 594.166842 -198.109115 
L 598.130642 -208.371523 
L 602.094442 -220.226377 
L 606.058242 -225.44505 
L 610.022043 -220.987773 
L 613.985843 -223.19292 
L 617.949643 -221.477043 
L 621.913444 -217.338411 
L 625.877244 -214.540997 
L 629.841044 -222.869196 
L 633.804844 -220.82293 
L 637.768645 -215.946194 
L 641.732445 -221.821624 
L 645.696245 -227.063059 
L 649.660046 -230.962486 
L 653.623846 -235.925074 
L 657.587646 -234.284879 
L 661.551446 -235.976091 
L 665.515247 -232.439167 
L 669.479047 -234.355498 
L 673.442847 -231.686275 
L 677.406648 -230.31248 
L 681.370448 -239.371296 
L 685.334248 -238.452757 
L 689.298048 -239.939464 
L 693.261849 -237.733138 
L 697.225649 -226.625213 
L 697.225649 -227.931802 
L 697.225649 -227.931802 
L 693.261849 -244.319442 
L 689.298048 -251.5608 
L 685.334248 -254.137088 
L 681.370448 -251.433491 
L 677.406648 -239.153214 
L 673.442847 -244.443603 
L 669.479047 -248.405473 
L 665.515247 -251.343936 
L 661.551446 -250.330767 
L 657.587646 -248.68855 
L 653.623846 -251.288397 
L 649.660046 -247.917497 
L 645.696245 -242.760161 
L 641.732445 -241.818682 
L 637.768645 -235.609589 
L 633.804844 -240.607851 
L 629.841044 -242.516443 
L 625.877244 -232.596107 
L 621.913444 -241.376898 
L 617.949643 -253.812932 
L 613.985843 -250.474439 
L 610.022043 -252.694044 
L 606.058242 -251.122709 
L 602.094442 -239.642701 
L 598.130642 -234.691152 
L 594.166842 -217.10901 
L 590.203041 -211.537077 
L 586.239241 -205.567429 
L 582.275441 -213.947648 
L 578.311641 -212.259259 
L 574.34784 -205.744604 
L 570.38404 -207.215324 
L 566.42024 -217.40107 
L 562.456439 -206.152532 
L 558.492639 -212.559824 
L 554.528839 -204.933277 
L 550.565039 -194.234572 
L 546.601238 -191.622149 
L 542.637438 -199.766151 
L 538.673638 -203.800592 
L 534.709837 -204.404198 
L 530.746037 -212.047437 
L 526.782237 -212.003723 
L 522.818437 -213.630398 
L 518.854636 -208.576279 
L 514.890836 -200.496611 
L 510.927036 -195.427508 
L 506.963235 -187.95434 
L 502.999435 -188.473225 
L 499.035635 -192.034575 
L 495.071835 -190.514057 
L 491.108034 -188.787282 
L 487.144234 -196.593883 
L 483.180434 -192.412924 
L 479.216633 -199.195383 
L 475.252833 -193.849295 
L 471.289033 -173.057947 
L 467.325233 -157.178491 
L 463.361432 -155.880104 
L 459.397632 -165.20122 
L 455.433832 -167.865597 
L 451.470032 -162.628224 
L 447.506231 -225.746407 
L 443.542431 -220.809162 
L 439.578631 -237.798777 
L 435.61483 -224.839397 
L 431.65103 -139.444992 
L 427.68723 -139.290568 
L 423.72343 -149.156378 
L 419.759629 -155.130282 
L 415.795829 -154.903456 
L 411.832029 -145.951991 
L 407.868228 -152.778078 
L 403.904428 -147.043444 
L 399.940628 -120.744776 
z
" style="stroke: #d62728; stroke-opacity: 0.2"/>
    </defs>
    <g clip-path="url(#pe8f2180631)">
     <use xlink:href="#m592a967874" x="0" y="360" style="fill: #d62728; fill-opacity: 0.2; stroke: #d62728; stroke-opacity: 0.2"/>
    </g>
   </g>
   <g id="line2d_35">
    <path d="M 399.940628 296.664368 
L 403.904428 270.610988 
L 407.868228 269.511346 
L 411.832029 270.768942 
L 415.795829 266.251431 
L 419.759629 265.751038 
L 423.72343 266.327486 
L 427.68723 264.005057 
L 431.65103 263.582039 
L 435.61483 242.06326 
L 439.578631 242.681001 
L 443.542431 242.649283 
L 447.506231 238.747741 
L 451.470032 243.692636 
L 455.433832 242.992226 
L 459.397632 242.385041 
L 463.361432 241.162175 
L 467.325233 241.257145 
L 471.289033 225.866337 
L 475.252833 216.446364 
L 479.216633 216.554056 
L 483.180434 216.795047 
L 487.144234 215.840104 
L 491.108034 216.158181 
L 495.071835 216.266852 
L 499.035635 216.013243 
L 502.999435 216.154293 
L 506.963235 215.34135 
L 510.927036 209.695866 
L 514.890836 204.98194 
L 518.854636 201.164257 
L 522.818437 201.008814 
L 526.782237 200.830202 
L 530.746037 200.646535 
L 534.709837 201.717503 
L 538.673638 201.525955 
L 542.637438 201.722452 
L 546.601238 201.096667 
L 550.565039 200.824463 
L 554.528839 197.171503 
L 558.492639 192.316395 
L 562.456439 187.843856 
L 566.42024 185.411354 
L 570.38404 185.305144 
L 574.34784 185.013046 
L 578.311641 184.095956 
L 582.275441 184.926146 
L 586.239241 185.187399 
L 590.203041 183.333595 
L 594.166842 182.625621 
L 598.130642 173.184884 
L 602.094442 164.684621 
L 606.058242 159.434193 
L 610.022043 159.213172 
L 613.985843 158.680637 
L 617.949643 158.430892 
L 621.913444 159.407237 
L 625.877244 160.408895 
L 629.841044 159.280737 
L 633.804844 157.73207 
L 637.768645 157.796936 
L 641.732445 152.189437 
L 645.696245 146.297827 
L 649.660046 143.546035 
L 653.623846 143.601559 
L 657.587646 142.747192 
L 661.551446 142.218202 
L 665.515247 142.531597 
L 669.479047 142.692225 
L 673.442847 138.248676 
L 677.406648 138.5603 
L 681.370448 131.220893 
L 685.334248 131.669545 
L 689.298048 131.364113 
L 693.261849 131.737319 
L 697.225649 132.727179 
" clip-path="url(#pe8f2180631)" style="fill: none; stroke: #1f77b4; stroke-width: 1.5; stroke-linecap: round"/>
   </g>
   <g id="line2d_36">
    <path d="M 399.940628 271.294515 
L 403.904428 265.882636 
L 407.868228 260.814312 
L 411.832029 266.607458 
L 415.795829 266.871302 
L 419.759629 262.561227 
L 423.72343 268.039531 
L 427.68723 273.905387 
L 431.65103 274.511215 
L 435.61483 245.328783 
L 439.578631 230.672071 
L 443.542431 247.803091 
L 447.506231 247.527247 
L 451.470032 274.285369 
L 455.433832 270.743684 
L 459.397632 273.940385 
L 463.361432 279.704818 
L 467.325233 276.302127 
L 471.289033 278.964426 
L 475.252833 275.364744 
L 479.216633 270.017291 
L 483.180434 275.999999 
L 487.144234 275.04576 
L 491.108034 276.175276 
L 495.071835 273.413268 
L 499.035635 275.677872 
L 502.999435 274.079521 
L 506.963235 277.239224 
L 510.927036 274.507643 
L 514.890836 274.105806 
L 518.854636 278.367883 
L 522.818437 271.662211 
L 526.782237 275.133327 
L 530.746037 276.648539 
L 534.709837 276.921668 
L 538.673638 279.540112 
L 542.637438 281.99642 
L 546.601238 286.462774 
L 550.565039 285.508963 
L 554.528839 281.883997 
L 558.492639 280.647772 
L 562.456439 288.949795 
L 566.42024 287.183596 
L 570.38404 286.100648 
L 574.34784 288.122407 
L 578.311641 289.947318 
L 582.275441 287.880847 
L 586.239241 287.327017 
L 590.203041 290.285873 
L 594.166842 286.628051 
L 598.130642 282.127271 
L 602.094442 281.577012 
L 606.058242 282.122271 
L 610.022043 285.231977 
L 613.985843 285.37297 
L 617.949643 291.222112 
L 621.913444 287.471439 
L 625.877244 295.205061 
L 629.841044 282.444113 
L 633.804844 285.089984 
L 637.768645 292.948885 
L 641.732445 289.421486 
L 645.696245 291.567381 
L 649.660046 289.24778 
L 653.623846 284.107032 
L 657.587646 287.264734 
L 661.551446 287.54972 
L 665.515247 291.070406 
L 669.479047 289.635333 
L 673.442847 299.772123 
L 677.406648 301.705457 
L 681.370448 298.333479 
L 685.334248 297.961069 
L 689.298048 299.48228 
L 693.261849 300.007969 
L 697.225649 305.22 
" clip-path="url(#pe8f2180631)" style="fill: none; stroke: #ff7f0e; stroke-width: 1.5; stroke-linecap: round"/>
   </g>
   <g id="line2d_37">
    <path d="M 399.940628 282.532928 
L 403.904428 288.074018 
L 407.868228 288.383285 
L 411.832029 287.846363 
L 415.795829 288.249788 
L 419.759629 288.304212 
L 423.72343 287.958011 
L 427.68723 294.232178 
L 431.65103 294.246535 
L 435.61483 260.698302 
L 439.578631 260.612651 
L 443.542431 260.706629 
L 447.506231 259.971008 
L 451.470032 291.274431 
L 455.433832 291.344085 
L 459.397632 291.52707 
L 463.361432 297.123044 
L 467.325233 298.192513 
L 471.289033 296.939265 
L 475.252833 286.111131 
L 479.216633 286.553968 
L 483.180434 286.637344 
L 487.144234 285.932962 
L 491.108034 295.467939 
L 495.071835 295.735995 
L 499.035635 295.254525 
L 502.999435 297.663256 
L 506.963235 297.945313 
L 510.927036 297.656101 
L 514.890836 297.471103 
L 518.854636 294.140714 
L 522.818437 293.64846 
L 526.782237 293.332107 
L 530.746037 292.857888 
L 534.709837 297.258 
L 538.673638 297.402348 
L 542.637438 297.801031 
L 546.601238 298.696392 
L 550.565039 298.763211 
L 554.528839 297.97231 
L 558.492639 297.62025 
L 562.456439 298.603393 
L 566.42024 296.512915 
L 570.38404 297.034337 
L 574.34784 296.79193 
L 578.311641 297.641906 
L 582.275441 297.117799 
L 586.239241 297.069844 
L 590.203041 298.816924 
L 594.166842 297.720445 
L 598.130642 296.543117 
L 602.094442 296.172552 
L 606.058242 291.333448 
L 610.022043 291.960362 
L 613.985843 290.884512 
L 617.949643 291.964493 
L 621.913444 296.558742 
L 625.877244 298.038118 
L 629.841044 295.400924 
L 633.804844 296.195782 
L 637.768645 297.756806 
L 641.732445 296.803436 
L 645.696245 296.564676 
L 649.660046 294.264665 
L 653.623846 293.668653 
L 657.587646 293.752095 
L 661.551446 293.490313 
L 665.515247 294.216885 
L 669.479047 294.258188 
L 673.442847 297.578785 
L 677.406648 299.198947 
L 681.370448 293.349661 
L 685.334248 294.213513 
L 689.298048 293.850191 
L 693.261849 295.858842 
L 697.225649 305.22 
" clip-path="url(#pe8f2180631)" style="fill: none; stroke: #2ca02c; stroke-width: 1.5; stroke-linecap: round"/>
   </g>
   <g id="line2d_38">
    <path d="M 399.940628 239.799635 
L 403.904428 214.013515 
L 407.868228 207.922791 
L 411.832029 214.790242 
L 415.795829 210.484757 
L 419.759629 205.914763 
L 423.72343 211.668788 
L 427.68723 221.406571 
L 431.65103 221.540294 
L 435.61483 137.335778 
L 439.578631 123.390782 
L 443.542431 140.604634 
L 447.506231 135.494035 
L 451.470032 198.530121 
L 455.433832 194.397536 
L 459.397632 197.076717 
L 463.361432 208.045171 
L 467.325233 205.687821 
L 471.289033 191.105988 
L 475.252833 167.527143 
L 479.216633 162.348032 
L 483.180434 168.89648 
L 487.144234 165.800393 
L 491.108034 176.912803 
L 495.071835 174.931598 
L 499.035635 175.869401 
L 502.999435 176.647583 
L 506.963235 179.17516 
L 510.927036 170.762112 
L 514.890836 165.839494 
L 518.854636 162.662776 
L 522.818437 155.820378 
L 526.782237 157.681803 
L 530.746037 159.156055 
L 534.709837 165.966182 
L 538.673638 166.824596 
L 542.637438 170.327618 
L 546.601238 174.242885 
L 550.565039 173.294108 
L 554.528839 166.650692 
L 558.492639 159.528732 
L 562.456439 164.087114 
L 566.42024 158.19651 
L 570.38404 156.995048 
L 574.34784 159.508392 
L 578.311641 160.619809 
L 582.275441 158.667519 
L 586.239241 158.065435 
L 590.203041 161.785215 
L 594.166842 155.333692 
L 598.130642 141.153342 
L 602.094442 129.8165 
L 606.058242 122.009741 
L 610.022043 123.522137 
L 613.985843 123.41839 
L 617.949643 128.724477 
L 621.913444 132.674085 
L 625.877244 141.465996 
L 629.841044 127.090816 
L 633.804844 128.49936 
L 637.768645 137.321932 
L 641.732445 127.625285 
L 645.696245 121.828989 
L 649.660046 117.597678 
L 653.623846 110.932861 
L 657.587646 114.534658 
L 661.551446 113.187225 
L 665.515247 117.105011 
L 669.479047 115.797863 
L 673.442847 124.355135 
L 677.406648 128.596231 
L 681.370448 111.832174 
L 685.334248 112.562501 
L 689.298048 113.646194 
L 693.261849 117.884886 
L 697.225649 132.727179 
" clip-path="url(#pe8f2180631)" style="fill: none; stroke: #d62728; stroke-width: 1.5; stroke-linecap: round"/>
   </g>
   <g id="patch_6">
    <path d="M 385.076377 318.04 
L 385.076377 36 
" style="fill: none; stroke: #cccccc; stroke-width: 0.8; stroke-linejoin: miter; stroke-linecap: square"/>
   </g>
   <g id="patch_7">
    <path d="M 385.076377 318.04 
L 712.0899 318.04 
" style="fill: none; stroke: #cccccc; stroke-width: 0.8; stroke-linejoin: miter; stroke-linecap: square"/>
   </g>
   <g id="text_26">
    <!-- client_pu = CPU -->
    <g style="fill: #262626" transform="translate(512.314388 30) scale(0.1 -0.1)">
     <defs>
      <path id="ArialMT-43" d="M 3763 1606 
L 4369 1453 
Q 4178 706 3683 314 
Q 3188 -78 2472 -78 
Q 1731 -78 1267 223 
Q 803 525 561 1097 
Q 319 1669 319 2325 
Q 319 3041 592 3573 
Q 866 4106 1370 4382 
Q 1875 4659 2481 4659 
Q 3169 4659 3637 4309 
Q 4106 3959 4291 3325 
L 3694 3184 
Q 3534 3684 3231 3912 
Q 2928 4141 2469 4141 
Q 1941 4141 1586 3887 
Q 1231 3634 1087 3207 
Q 944 2781 944 2328 
Q 944 1744 1114 1308 
Q 1284 872 1643 656 
Q 2003 441 2422 441 
Q 2931 441 3284 734 
Q 3638 1028 3763 1606 
z
" transform="scale(0.015625)"/>
     </defs>
     <use xlink:href="#ArialMT-63"/>
     <use xlink:href="#ArialMT-6c" x="50"/>
     <use xlink:href="#ArialMT-69" x="72.216797"/>
     <use xlink:href="#ArialMT-65" x="94.433594"/>
     <use xlink:href="#ArialMT-6e" x="150.048828"/>
     <use xlink:href="#ArialMT-74" x="205.664062"/>
     <use xlink:href="#ArialMT-5f" x="233.447266"/>
     <use xlink:href="#ArialMT-70" x="289.0625"/>
     <use xlink:href="#ArialMT-75" x="344.677734"/>
     <use xlink:href="#ArialMT-20" x="400.292969"/>
     <use xlink:href="#ArialMT-3d" x="428.076172"/>
     <use xlink:href="#ArialMT-20" x="486.474609"/>
     <use xlink:href="#ArialMT-43" x="514.257812"/>
     <use xlink:href="#ArialMT-50" x="586.474609"/>
     <use xlink:href="#ArialMT-55" x="653.173828"/>
    </g>
   </g>
  </g>
  <g id="text_27">
   <!-- MobileNetV2 latency -->
   <g style="fill: #262626" transform="translate(340.479375 15.825) scale(0.12 -0.12)">
    <defs>
     <path id="ArialMT-4d" d="M 475 0 
L 475 4581 
L 1388 4581 
L 2472 1338 
Q 2622 884 2691 659 
Q 2769 909 2934 1394 
L 4031 4581 
L 4847 4581 
L 4847 0 
L 4263 0 
L 4263 3834 
L 2931 0 
L 2384 0 
L 1059 3900 
L 1059 0 
L 475 0 
z
" transform="scale(0.015625)"/>
     <path id="ArialMT-4e" d="M 488 0 
L 488 4581 
L 1109 4581 
L 3516 984 
L 3516 4581 
L 4097 4581 
L 4097 0 
L 3475 0 
L 1069 3600 
L 1069 0 
L 488 0 
z
" transform="scale(0.015625)"/>
     <path id="ArialMT-56" d="M 1803 0 
L 28 4581 
L 684 4581 
L 1875 1253 
Q 2019 853 2116 503 
Q 2222 878 2363 1253 
L 3600 4581 
L 4219 4581 
L 2425 0 
L 1803 0 
z
" transform="scale(0.015625)"/>
    </defs>
    <use xlink:href="#ArialMT-4d"/>
    <use xlink:href="#ArialMT-6f" x="83.300781"/>
    <use xlink:href="#ArialMT-62" x="138.916016"/>
    <use xlink:href="#ArialMT-69" x="194.53125"/>
    <use xlink:href="#ArialMT-6c" x="216.748047"/>
    <use xlink:href="#ArialMT-65" x="238.964844"/>
    <use xlink:href="#ArialMT-4e" x="294.580078"/>
    <use xlink:href="#ArialMT-65" x="366.796875"/>
    <use xlink:href="#ArialMT-74" x="422.412109"/>
    <use xlink:href="#ArialMT-56" x="450.195312"/>
    <use xlink:href="#ArialMT-32" x="516.894531"/>
    <use xlink:href="#ArialMT-20" x="572.509766"/>
    <use xlink:href="#ArialMT-6c" x="600.292969"/>
    <use xlink:href="#ArialMT-61" x="622.509766"/>
    <use xlink:href="#ArialMT-74" x="678.125"/>
    <use xlink:href="#ArialMT-65" x="705.908203"/>
    <use xlink:href="#ArialMT-6e" x="761.523438"/>
    <use xlink:href="#ArialMT-63" x="817.138672"/>
    <use xlink:href="#ArialMT-79" x="867.138672"/>
   </g>
  </g>
  <g id="legend_1">
   <g id="text_28">
    <!-- variable -->
    <g style="fill: #262626" transform="translate(732.995156 154.294531) scale(0.1 -0.1)">
     <defs>
      <path id="ArialMT-76" d="M 1344 0 
L 81 3319 
L 675 3319 
L 1388 1331 
Q 1503 1009 1600 663 
Q 1675 925 1809 1294 
L 2547 3319 
L 3125 3319 
L 1869 0 
L 1344 0 
z
" transform="scale(0.015625)"/>
     </defs>
     <use xlink:href="#ArialMT-76"/>
     <use xlink:href="#ArialMT-61" x="50"/>
     <use xlink:href="#ArialMT-72" x="105.615234"/>
     <use xlink:href="#ArialMT-69" x="138.916016"/>
     <use xlink:href="#ArialMT-61" x="161.132812"/>
     <use xlink:href="#ArialMT-62" x="216.748047"/>
     <use xlink:href="#ArialMT-6c" x="272.363281"/>
     <use xlink:href="#ArialMT-65" x="294.580078"/>
    </g>
   </g>
   <g id="line2d_39">
    <path d="M 718.9975 164.939844 
L 728.9975 164.939844 
L 738.9975 164.939844 
" style="fill: none; stroke: #1f77b4; stroke-width: 1.5; stroke-linecap: round"/>
   </g>
   <g id="text_29">
    <!-- client -->
    <g style="fill: #262626" transform="translate(746.9975 168.439844) scale(0.1 -0.1)">
     <use xlink:href="#ArialMT-63"/>
     <use xlink:href="#ArialMT-6c" x="50"/>
     <use xlink:href="#ArialMT-69" x="72.216797"/>
     <use xlink:href="#ArialMT-65" x="94.433594"/>
     <use xlink:href="#ArialMT-6e" x="150.048828"/>
     <use xlink:href="#ArialMT-74" x="205.664062"/>
    </g>
   </g>
   <g id="line2d_40">
    <path d="M 718.9975 179.085156 
L 728.9975 179.085156 
L 738.9975 179.085156 
" style="fill: none; stroke: #ff7f0e; stroke-width: 1.5; stroke-linecap: round"/>
   </g>
   <g id="text_30">
    <!-- server -->
    <g style="fill: #262626" transform="translate(746.9975 182.585156) scale(0.1 -0.1)">
     <use xlink:href="#ArialMT-73"/>
     <use xlink:href="#ArialMT-65" x="50"/>
     <use xlink:href="#ArialMT-72" x="105.615234"/>
     <use xlink:href="#ArialMT-76" x="138.916016"/>
     <use xlink:href="#ArialMT-65" x="188.916016"/>
     <use xlink:href="#ArialMT-72" x="244.53125"/>
    </g>
   </g>
   <g id="line2d_41">
    <path d="M 718.9975 193.230469 
L 728.9975 193.230469 
L 738.9975 193.230469 
" style="fill: none; stroke: #2ca02c; stroke-width: 1.5; stroke-linecap: round"/>
   </g>
   <g id="text_31">
    <!-- network -->
    <g style="fill: #262626" transform="translate(746.9975 196.730469) scale(0.1 -0.1)">
     <defs>
      <path id="ArialMT-77" d="M 1034 0 
L 19 3319 
L 600 3319 
L 1128 1403 
L 1325 691 
Q 1338 744 1497 1375 
L 2025 3319 
L 2603 3319 
L 3100 1394 
L 3266 759 
L 3456 1400 
L 4025 3319 
L 4572 3319 
L 3534 0 
L 2950 0 
L 2422 1988 
L 2294 2553 
L 1622 0 
L 1034 0 
z
" transform="scale(0.015625)"/>
      <path id="ArialMT-6b" d="M 425 0 
L 425 4581 
L 988 4581 
L 988 1969 
L 2319 3319 
L 3047 3319 
L 1778 2088 
L 3175 0 
L 2481 0 
L 1384 1697 
L 988 1316 
L 988 0 
L 425 0 
z
" transform="scale(0.015625)"/>
     </defs>
     <use xlink:href="#ArialMT-6e"/>
     <use xlink:href="#ArialMT-65" x="55.615234"/>
     <use xlink:href="#ArialMT-74" x="111.230469"/>
     <use xlink:href="#ArialMT-77" x="139.013672"/>
     <use xlink:href="#ArialMT-6f" x="211.230469"/>
     <use xlink:href="#ArialMT-72" x="266.845703"/>
     <use xlink:href="#ArialMT-6b" x="300.146484"/>
    </g>
   </g>
   <g id="line2d_42">
    <path d="M 718.9975 207.375781 
L 728.9975 207.375781 
L 738.9975 207.375781 
" style="fill: none; stroke: #d62728; stroke-width: 1.5; stroke-linecap: round"/>
   </g>
   <g id="text_32">
    <!-- total -->
    <g style="fill: #262626" transform="translate(746.9975 210.875781) scale(0.1 -0.1)">
     <use xlink:href="#ArialMT-74"/>
     <use xlink:href="#ArialMT-6f" x="27.783203"/>
     <use xlink:href="#ArialMT-74" x="83.398438"/>
     <use xlink:href="#ArialMT-61" x="111.181641"/>
     <use xlink:href="#ArialMT-6c" x="166.796875"/>
    </g>
   </g>
  </g>
 </g>
 <defs>
  <clipPath id="pb213d3d3c6">
   <rect x="47.28482" y="36" width="327.013523" height="282.04"/>
  </clipPath>
  <clipPath id="pe8f2180631">
   <rect x="385.076377" y="36" width="327.013523" height="282.04"/>
  </clipPath>
 </defs>
</svg>
