<?xml version="1.0" encoding="utf-8" standalone="no"?>
<!DOCTYPE svg PUBLIC "-//W3C//DTD SVG 1.1//EN"
  "http://www.w3.org/Graphics/SVG/1.1/DTD/svg11.dtd">
<svg xmlns:xlink="http://www.w3.org/1999/xlink" width="791.01pt" height="360pt" viewBox="0 0 791.01 360" xmlns="http://www.w3.org/2000/svg" version="1.1">
 <metadata>
  <rdf:RDF xmlns:dc="http://purl.org/dc/elements/1.1/" xmlns:cc="http://creativecommons.org/ns#" xmlns:rdf="http://www.w3.org/1999/02/22-rdf-syntax-ns#">
   <cc:Work>
    <dc:type rdf:resource="http://purl.org/dc/dcmitype/StillImage"/>
    <dc:date>2023-11-16T16:31:44.804996</dc:date>
    <dc:format>image/svg+xml</dc:format>
    <dc:creator>
     <cc:Agent>
      <dc:title>Matplotlib v3.8.1, https://matplotlib.org/</dc:title>
     </cc:Agent>
    </dc:creator>
   </cc:Work>
  </rdf:RDF>
 </metadata>
 <defs>
  <style type="text/css">*{stroke-linejoin: round; stroke-linecap: butt}</style>
 </defs>
 <g id="figure_1">
  <g id="patch_1">
   <path d="M 0 360 
L 791.01 360 
L 791.01 0 
L 0 0 
z
" style="fill: #ffffff"/>
  </g>
  <g id="axes_1">
   <g id="patch_2">
    <path d="M 53.415148 318.04 
L 377.368098 318.04 
L 377.368098 36 
L 53.415148 36 
z
" style="fill: #ffffff"/>
   </g>
   <g id="matplotlib.axis_1">
    <g id="xtick_1">
     <g id="line2d_1">
      <path d="M 68.140282 318.04 
L 68.140282 36 
" clip-path="url(#pf3a60d932b)" style="fill: none; stroke: #cccccc; stroke-width: 0.8; stroke-linecap: round"/>
     </g>
     <g id="text_1">
      <!-- 0 -->
      <g style="fill: #262626" transform="translate(65.359813 332.197812) scale(0.1 -0.1)">
       <defs>
        <path id="ArialMT-30" d="M 266 2259 
Q 266 3072 433 3567 
Q 600 4063 929 4331 
Q 1259 4600 1759 4600 
Q 2128 4600 2406 4451 
Q 2684 4303 2865 4023 
Q 3047 3744 3150 3342 
Q 3253 2941 3253 2259 
Q 3253 1453 3087 958 
Q 2922 463 2592 192 
Q 2263 -78 1759 -78 
Q 1097 -78 719 397 
Q 266 969 266 2259 
z
M 844 2259 
Q 844 1131 1108 757 
Q 1372 384 1759 384 
Q 2147 384 2411 759 
Q 2675 1134 2675 2259 
Q 2675 3391 2411 3762 
Q 2147 4134 1753 4134 
Q 1366 4134 1134 3806 
Q 844 3388 844 2259 
z
" transform="scale(0.015625)"/>
       </defs>
       <use xlink:href="#ArialMT-30"/>
      </g>
     </g>
    </g>
    <g id="xtick_2">
     <g id="line2d_2">
      <path d="M 107.407306 318.04 
L 107.407306 36 
" clip-path="url(#pf3a60d932b)" style="fill: none; stroke: #cccccc; stroke-width: 0.8; stroke-linecap: round"/>
     </g>
     <g id="text_2">
      <!-- 10 -->
      <g style="fill: #262626" transform="translate(101.846368 332.197812) scale(0.1 -0.1)">
       <defs>
        <path id="ArialMT-31" d="M 2384 0 
L 1822 0 
L 1822 3584 
Q 1619 3391 1289 3197 
Q 959 3003 697 2906 
L 697 3450 
Q 1169 3672 1522 3987 
Q 1875 4303 2022 4600 
L 2384 4600 
L 2384 0 
z
" transform="scale(0.015625)"/>
       </defs>
       <use xlink:href="#ArialMT-31"/>
       <use xlink:href="#ArialMT-30" x="55.615234"/>
      </g>
     </g>
    </g>
    <g id="xtick_3">
     <g id="line2d_3">
      <path d="M 146.67433 318.04 
L 146.67433 36 
" clip-path="url(#pf3a60d932b)" style="fill: none; stroke: #cccccc; stroke-width: 0.8; stroke-linecap: round"/>
     </g>
     <g id="text_3">
      <!-- 20 -->
      <g style="fill: #262626" transform="translate(141.113393 332.197812) scale(0.1 -0.1)">
       <defs>
        <path id="ArialMT-32" d="M 3222 541 
L 3222 0 
L 194 0 
Q 188 203 259 391 
Q 375 700 629 1000 
Q 884 1300 1366 1694 
Q 2113 2306 2375 2664 
Q 2638 3022 2638 3341 
Q 2638 3675 2398 3904 
Q 2159 4134 1775 4134 
Q 1369 4134 1125 3890 
Q 881 3647 878 3216 
L 300 3275 
Q 359 3922 746 4261 
Q 1134 4600 1788 4600 
Q 2447 4600 2831 4234 
Q 3216 3869 3216 3328 
Q 3216 3053 3103 2787 
Q 2991 2522 2730 2228 
Q 2469 1934 1863 1422 
Q 1356 997 1212 845 
Q 1069 694 975 541 
L 3222 541 
z
" transform="scale(0.015625)"/>
       </defs>
       <use xlink:href="#ArialMT-32"/>
       <use xlink:href="#ArialMT-30" x="55.615234"/>
      </g>
     </g>
    </g>
    <g id="xtick_4">
     <g id="line2d_4">
      <path d="M 185.941355 318.04 
L 185.941355 36 
" clip-path="url(#pf3a60d932b)" style="fill: none; stroke: #cccccc; stroke-width: 0.8; stroke-linecap: round"/>
     </g>
     <g id="text_4">
      <!-- 30 -->
      <g style="fill: #262626" transform="translate(180.380417 332.197812) scale(0.1 -0.1)">
       <defs>
        <path id="ArialMT-33" d="M 269 1209 
L 831 1284 
Q 928 806 1161 595 
Q 1394 384 1728 384 
Q 2125 384 2398 659 
Q 2672 934 2672 1341 
Q 2672 1728 2419 1979 
Q 2166 2231 1775 2231 
Q 1616 2231 1378 2169 
L 1441 2663 
Q 1497 2656 1531 2656 
Q 1891 2656 2178 2843 
Q 2466 3031 2466 3422 
Q 2466 3731 2256 3934 
Q 2047 4138 1716 4138 
Q 1388 4138 1169 3931 
Q 950 3725 888 3313 
L 325 3413 
Q 428 3978 793 4289 
Q 1159 4600 1703 4600 
Q 2078 4600 2393 4439 
Q 2709 4278 2876 4000 
Q 3044 3722 3044 3409 
Q 3044 3113 2884 2869 
Q 2725 2625 2413 2481 
Q 2819 2388 3044 2092 
Q 3269 1797 3269 1353 
Q 3269 753 2831 336 
Q 2394 -81 1725 -81 
Q 1122 -81 723 278 
Q 325 638 269 1209 
z
" transform="scale(0.015625)"/>
       </defs>
       <use xlink:href="#ArialMT-33"/>
       <use xlink:href="#ArialMT-30" x="55.615234"/>
      </g>
     </g>
    </g>
    <g id="xtick_5">
     <g id="line2d_5">
      <path d="M 225.208379 318.04 
L 225.208379 36 
" clip-path="url(#pf3a60d932b)" style="fill: none; stroke: #cccccc; stroke-width: 0.8; stroke-linecap: round"/>
     </g>
     <g id="text_5">
      <!-- 40 -->
      <g style="fill: #262626" transform="translate(219.647442 332.197812) scale(0.1 -0.1)">
       <defs>
        <path id="ArialMT-34" d="M 2069 0 
L 2069 1097 
L 81 1097 
L 81 1613 
L 2172 4581 
L 2631 4581 
L 2631 1613 
L 3250 1613 
L 3250 1097 
L 2631 1097 
L 2631 0 
L 2069 0 
z
M 2069 1613 
L 2069 3678 
L 634 1613 
L 2069 1613 
z
" transform="scale(0.015625)"/>
       </defs>
       <use xlink:href="#ArialMT-34"/>
       <use xlink:href="#ArialMT-30" x="55.615234"/>
      </g>
     </g>
    </g>
    <g id="xtick_6">
     <g id="line2d_6">
      <path d="M 264.475403 318.04 
L 264.475403 36 
" clip-path="url(#pf3a60d932b)" style="fill: none; stroke: #cccccc; stroke-width: 0.8; stroke-linecap: round"/>
     </g>
     <g id="text_6">
      <!-- 50 -->
      <g style="fill: #262626" transform="translate(258.914466 332.197812) scale(0.1 -0.1)">
       <defs>
        <path id="ArialMT-35" d="M 266 1200 
L 856 1250 
Q 922 819 1161 601 
Q 1400 384 1738 384 
Q 2144 384 2425 690 
Q 2706 997 2706 1503 
Q 2706 1984 2436 2262 
Q 2166 2541 1728 2541 
Q 1456 2541 1237 2417 
Q 1019 2294 894 2097 
L 366 2166 
L 809 4519 
L 3088 4519 
L 3088 3981 
L 1259 3981 
L 1013 2750 
Q 1425 3038 1878 3038 
Q 2478 3038 2890 2622 
Q 3303 2206 3303 1553 
Q 3303 931 2941 478 
Q 2500 -78 1738 -78 
Q 1113 -78 717 272 
Q 322 622 266 1200 
z
" transform="scale(0.015625)"/>
       </defs>
       <use xlink:href="#ArialMT-35"/>
       <use xlink:href="#ArialMT-30" x="55.615234"/>
      </g>
     </g>
    </g>
    <g id="xtick_7">
     <g id="line2d_7">
      <path d="M 303.742428 318.04 
L 303.742428 36 
" clip-path="url(#pf3a60d932b)" style="fill: none; stroke: #cccccc; stroke-width: 0.8; stroke-linecap: round"/>
     </g>
     <g id="text_7">
      <!-- 60 -->
      <g style="fill: #262626" transform="translate(298.18149 332.197812) scale(0.1 -0.1)">
       <defs>
        <path id="ArialMT-36" d="M 3184 3459 
L 2625 3416 
Q 2550 3747 2413 3897 
Q 2184 4138 1850 4138 
Q 1581 4138 1378 3988 
Q 1113 3794 959 3422 
Q 806 3050 800 2363 
Q 1003 2672 1297 2822 
Q 1591 2972 1913 2972 
Q 2475 2972 2870 2558 
Q 3266 2144 3266 1488 
Q 3266 1056 3080 686 
Q 2894 316 2569 119 
Q 2244 -78 1831 -78 
Q 1128 -78 684 439 
Q 241 956 241 2144 
Q 241 3472 731 4075 
Q 1159 4600 1884 4600 
Q 2425 4600 2770 4297 
Q 3116 3994 3184 3459 
z
M 888 1484 
Q 888 1194 1011 928 
Q 1134 663 1356 523 
Q 1578 384 1822 384 
Q 2178 384 2434 671 
Q 2691 959 2691 1453 
Q 2691 1928 2437 2201 
Q 2184 2475 1800 2475 
Q 1419 2475 1153 2201 
Q 888 1928 888 1484 
z
" transform="scale(0.015625)"/>
       </defs>
       <use xlink:href="#ArialMT-36"/>
       <use xlink:href="#ArialMT-30" x="55.615234"/>
      </g>
     </g>
    </g>
    <g id="xtick_8">
     <g id="line2d_8">
      <path d="M 343.009452 318.04 
L 343.009452 36 
" clip-path="url(#pf3a60d932b)" style="fill: none; stroke: #cccccc; stroke-width: 0.8; stroke-linecap: round"/>
     </g>
     <g id="text_8">
      <!-- 70 -->
      <g style="fill: #262626" transform="translate(337.448515 332.197812) scale(0.1 -0.1)">
       <defs>
        <path id="ArialMT-37" d="M 303 3981 
L 303 4522 
L 3269 4522 
L 3269 4084 
Q 2831 3619 2401 2847 
Q 1972 2075 1738 1259 
Q 1569 684 1522 0 
L 944 0 
Q 953 541 1156 1306 
Q 1359 2072 1739 2783 
Q 2119 3494 2547 3981 
L 303 3981 
z
" transform="scale(0.015625)"/>
       </defs>
       <use xlink:href="#ArialMT-37"/>
       <use xlink:href="#ArialMT-30" x="55.615234"/>
      </g>
     </g>
    </g>
    <g id="text_9">
     <!-- offload to cloud before layer -->
     <g style="fill: #262626" transform="translate(153.77756 345.465) scale(0.1 -0.1)">
      <defs>
       <path id="ArialMT-6f" d="M 213 1659 
Q 213 2581 725 3025 
Q 1153 3394 1769 3394 
Q 2453 3394 2887 2945 
Q 3322 2497 3322 1706 
Q 3322 1066 3130 698 
Q 2938 331 2570 128 
Q 2203 -75 1769 -75 
Q 1072 -75 642 372 
Q 213 819 213 1659 
z
M 791 1659 
Q 791 1022 1069 705 
Q 1347 388 1769 388 
Q 2188 388 2466 706 
Q 2744 1025 2744 1678 
Q 2744 2294 2464 2611 
Q 2184 2928 1769 2928 
Q 1347 2928 1069 2612 
Q 791 2297 791 1659 
z
" transform="scale(0.015625)"/>
       <path id="ArialMT-66" d="M 556 0 
L 556 2881 
L 59 2881 
L 59 3319 
L 556 3319 
L 556 3672 
Q 556 4006 616 4169 
Q 697 4388 901 4523 
Q 1106 4659 1475 4659 
Q 1713 4659 2000 4603 
L 1916 4113 
Q 1741 4144 1584 4144 
Q 1328 4144 1222 4034 
Q 1116 3925 1116 3625 
L 1116 3319 
L 1763 3319 
L 1763 2881 
L 1116 2881 
L 1116 0 
L 556 0 
z
" transform="scale(0.015625)"/>
       <path id="ArialMT-6c" d="M 409 0 
L 409 4581 
L 972 4581 
L 972 0 
L 409 0 
z
" transform="scale(0.015625)"/>
       <path id="ArialMT-61" d="M 2588 409 
Q 2275 144 1986 34 
Q 1697 -75 1366 -75 
Q 819 -75 525 192 
Q 231 459 231 875 
Q 231 1119 342 1320 
Q 453 1522 633 1644 
Q 813 1766 1038 1828 
Q 1203 1872 1538 1913 
Q 2219 1994 2541 2106 
Q 2544 2222 2544 2253 
Q 2544 2597 2384 2738 
Q 2169 2928 1744 2928 
Q 1347 2928 1158 2789 
Q 969 2650 878 2297 
L 328 2372 
Q 403 2725 575 2942 
Q 747 3159 1072 3276 
Q 1397 3394 1825 3394 
Q 2250 3394 2515 3294 
Q 2781 3194 2906 3042 
Q 3031 2891 3081 2659 
Q 3109 2516 3109 2141 
L 3109 1391 
Q 3109 606 3145 398 
Q 3181 191 3288 0 
L 2700 0 
Q 2613 175 2588 409 
z
M 2541 1666 
Q 2234 1541 1622 1453 
Q 1275 1403 1131 1340 
Q 988 1278 909 1158 
Q 831 1038 831 891 
Q 831 666 1001 516 
Q 1172 366 1500 366 
Q 1825 366 2078 508 
Q 2331 650 2450 897 
Q 2541 1088 2541 1459 
L 2541 1666 
z
" transform="scale(0.015625)"/>
       <path id="ArialMT-64" d="M 2575 0 
L 2575 419 
Q 2259 -75 1647 -75 
Q 1250 -75 917 144 
Q 584 363 401 755 
Q 219 1147 219 1656 
Q 219 2153 384 2558 
Q 550 2963 881 3178 
Q 1213 3394 1622 3394 
Q 1922 3394 2156 3267 
Q 2391 3141 2538 2938 
L 2538 4581 
L 3097 4581 
L 3097 0 
L 2575 0 
z
M 797 1656 
Q 797 1019 1065 703 
Q 1334 388 1700 388 
Q 2069 388 2326 689 
Q 2584 991 2584 1609 
Q 2584 2291 2321 2609 
Q 2059 2928 1675 2928 
Q 1300 2928 1048 2622 
Q 797 2316 797 1656 
z
" transform="scale(0.015625)"/>
       <path id="ArialMT-20" transform="scale(0.015625)"/>
       <path id="ArialMT-74" d="M 1650 503 
L 1731 6 
Q 1494 -44 1306 -44 
Q 1000 -44 831 53 
Q 663 150 594 308 
Q 525 466 525 972 
L 525 2881 
L 113 2881 
L 113 3319 
L 525 3319 
L 525 4141 
L 1084 4478 
L 1084 3319 
L 1650 3319 
L 1650 2881 
L 1084 2881 
L 1084 941 
Q 1084 700 1114 631 
Q 1144 563 1211 522 
Q 1278 481 1403 481 
Q 1497 481 1650 503 
z
" transform="scale(0.015625)"/>
       <path id="ArialMT-63" d="M 2588 1216 
L 3141 1144 
Q 3050 572 2676 248 
Q 2303 -75 1759 -75 
Q 1078 -75 664 370 
Q 250 816 250 1647 
Q 250 2184 428 2587 
Q 606 2991 970 3192 
Q 1334 3394 1763 3394 
Q 2303 3394 2647 3120 
Q 2991 2847 3088 2344 
L 2541 2259 
Q 2463 2594 2264 2762 
Q 2066 2931 1784 2931 
Q 1359 2931 1093 2626 
Q 828 2322 828 1663 
Q 828 994 1084 691 
Q 1341 388 1753 388 
Q 2084 388 2306 591 
Q 2528 794 2588 1216 
z
" transform="scale(0.015625)"/>
       <path id="ArialMT-75" d="M 2597 0 
L 2597 488 
Q 2209 -75 1544 -75 
Q 1250 -75 995 37 
Q 741 150 617 320 
Q 494 491 444 738 
Q 409 903 409 1263 
L 409 3319 
L 972 3319 
L 972 1478 
Q 972 1038 1006 884 
Q 1059 663 1231 536 
Q 1403 409 1656 409 
Q 1909 409 2131 539 
Q 2353 669 2445 892 
Q 2538 1116 2538 1541 
L 2538 3319 
L 3100 3319 
L 3100 0 
L 2597 0 
z
" transform="scale(0.015625)"/>
       <path id="ArialMT-62" d="M 941 0 
L 419 0 
L 419 4581 
L 981 4581 
L 981 2947 
Q 1338 3394 1891 3394 
Q 2197 3394 2470 3270 
Q 2744 3147 2920 2923 
Q 3097 2700 3197 2384 
Q 3297 2069 3297 1709 
Q 3297 856 2875 390 
Q 2453 -75 1863 -75 
Q 1275 -75 941 416 
L 941 0 
z
M 934 1684 
Q 934 1088 1097 822 
Q 1363 388 1816 388 
Q 2184 388 2453 708 
Q 2722 1028 2722 1663 
Q 2722 2313 2464 2622 
Q 2206 2931 1841 2931 
Q 1472 2931 1203 2611 
Q 934 2291 934 1684 
z
" transform="scale(0.015625)"/>
       <path id="ArialMT-65" d="M 2694 1069 
L 3275 997 
Q 3138 488 2766 206 
Q 2394 -75 1816 -75 
Q 1088 -75 661 373 
Q 234 822 234 1631 
Q 234 2469 665 2931 
Q 1097 3394 1784 3394 
Q 2450 3394 2872 2941 
Q 3294 2488 3294 1666 
Q 3294 1616 3291 1516 
L 816 1516 
Q 847 969 1125 678 
Q 1403 388 1819 388 
Q 2128 388 2347 550 
Q 2566 713 2694 1069 
z
M 847 1978 
L 2700 1978 
Q 2663 2397 2488 2606 
Q 2219 2931 1791 2931 
Q 1403 2931 1139 2672 
Q 875 2413 847 1978 
z
" transform="scale(0.015625)"/>
       <path id="ArialMT-72" d="M 416 0 
L 416 3319 
L 922 3319 
L 922 2816 
Q 1116 3169 1280 3281 
Q 1444 3394 1641 3394 
Q 1925 3394 2219 3213 
L 2025 2691 
Q 1819 2813 1613 2813 
Q 1428 2813 1281 2702 
Q 1134 2591 1072 2394 
Q 978 2094 978 1738 
L 978 0 
L 416 0 
z
" transform="scale(0.015625)"/>
       <path id="ArialMT-79" d="M 397 -1278 
L 334 -750 
Q 519 -800 656 -800 
Q 844 -800 956 -737 
Q 1069 -675 1141 -563 
Q 1194 -478 1313 -144 
Q 1328 -97 1363 -6 
L 103 3319 
L 709 3319 
L 1400 1397 
Q 1534 1031 1641 628 
Q 1738 1016 1872 1384 
L 2581 3319 
L 3144 3319 
L 1881 -56 
Q 1678 -603 1566 -809 
Q 1416 -1088 1222 -1217 
Q 1028 -1347 759 -1347 
Q 597 -1347 397 -1278 
z
" transform="scale(0.015625)"/>
      </defs>
      <use xlink:href="#ArialMT-6f"/>
      <use xlink:href="#ArialMT-66" x="55.615234"/>
      <use xlink:href="#ArialMT-66" x="81.648438"/>
      <use xlink:href="#ArialMT-6c" x="109.431641"/>
      <use xlink:href="#ArialMT-6f" x="131.648438"/>
      <use xlink:href="#ArialMT-61" x="187.263672"/>
      <use xlink:href="#ArialMT-64" x="242.878906"/>
      <use xlink:href="#ArialMT-20" x="298.494141"/>
      <use xlink:href="#ArialMT-74" x="326.277344"/>
      <use xlink:href="#ArialMT-6f" x="354.060547"/>
      <use xlink:href="#ArialMT-20" x="409.675781"/>
      <use xlink:href="#ArialMT-63" x="437.458984"/>
      <use xlink:href="#ArialMT-6c" x="487.458984"/>
      <use xlink:href="#ArialMT-6f" x="509.675781"/>
      <use xlink:href="#ArialMT-75" x="565.291016"/>
      <use xlink:href="#ArialMT-64" x="620.90625"/>
      <use xlink:href="#ArialMT-20" x="676.521484"/>
      <use xlink:href="#ArialMT-62" x="704.304688"/>
      <use xlink:href="#ArialMT-65" x="759.919922"/>
      <use xlink:href="#ArialMT-66" x="815.535156"/>
      <use xlink:href="#ArialMT-6f" x="843.318359"/>
      <use xlink:href="#ArialMT-72" x="898.933594"/>
      <use xlink:href="#ArialMT-65" x="932.234375"/>
      <use xlink:href="#ArialMT-20" x="987.849609"/>
      <use xlink:href="#ArialMT-6c" x="1015.632812"/>
      <use xlink:href="#ArialMT-61" x="1037.849609"/>
      <use xlink:href="#ArialMT-79" x="1093.464844"/>
      <use xlink:href="#ArialMT-65" x="1143.464844"/>
      <use xlink:href="#ArialMT-72" x="1199.080078"/>
     </g>
    </g>
   </g>
   <g id="matplotlib.axis_2">
    <g id="ytick_1">
     <g id="line2d_9">
      <path d="M 53.415148 305.22 
L 377.368098 305.22 
" clip-path="url(#pf3a60d932b)" style="fill: none; stroke: #cccccc; stroke-width: 0.8; stroke-linecap: round"/>
     </g>
     <g id="text_10">
      <!-- 0 -->
      <g style="fill: #262626" transform="translate(40.85421 308.798906) scale(0.1 -0.1)">
       <use xlink:href="#ArialMT-30"/>
      </g>
     </g>
    </g>
    <g id="ytick_2">
     <g id="line2d_10">
      <path d="M 53.415148 269.138312 
L 377.368098 269.138312 
" clip-path="url(#pf3a60d932b)" style="fill: none; stroke: #cccccc; stroke-width: 0.8; stroke-linecap: round"/>
     </g>
     <g id="text_11">
      <!-- 25 -->
      <g style="fill: #262626" transform="translate(35.293273 272.717218) scale(0.1 -0.1)">
       <use xlink:href="#ArialMT-32"/>
       <use xlink:href="#ArialMT-35" x="55.615234"/>
      </g>
     </g>
    </g>
    <g id="ytick_3">
     <g id="line2d_11">
      <path d="M 53.415148 233.056624 
L 377.368098 233.056624 
" clip-path="url(#pf3a60d932b)" style="fill: none; stroke: #cccccc; stroke-width: 0.8; stroke-linecap: round"/>
     </g>
     <g id="text_12">
      <!-- 50 -->
      <g style="fill: #262626" transform="translate(35.293273 236.63553) scale(0.1 -0.1)">
       <use xlink:href="#ArialMT-35"/>
       <use xlink:href="#ArialMT-30" x="55.615234"/>
      </g>
     </g>
    </g>
    <g id="ytick_4">
     <g id="line2d_12">
      <path d="M 53.415148 196.974936 
L 377.368098 196.974936 
" clip-path="url(#pf3a60d932b)" style="fill: none; stroke: #cccccc; stroke-width: 0.8; stroke-linecap: round"/>
     </g>
     <g id="text_13">
      <!-- 75 -->
      <g style="fill: #262626" transform="translate(35.293273 200.553842) scale(0.1 -0.1)">
       <use xlink:href="#ArialMT-37"/>
       <use xlink:href="#ArialMT-35" x="55.615234"/>
      </g>
     </g>
    </g>
    <g id="ytick_5">
     <g id="line2d_13">
      <path d="M 53.415148 160.893248 
L 377.368098 160.893248 
" clip-path="url(#pf3a60d932b)" style="fill: none; stroke: #cccccc; stroke-width: 0.8; stroke-linecap: round"/>
     </g>
     <g id="text_14">
      <!-- 100 -->
      <g style="fill: #262626" transform="translate(29.732335 164.472154) scale(0.1 -0.1)">
       <use xlink:href="#ArialMT-31"/>
       <use xlink:href="#ArialMT-30" x="55.615234"/>
       <use xlink:href="#ArialMT-30" x="111.230469"/>
      </g>
     </g>
    </g>
    <g id="ytick_6">
     <g id="line2d_14">
      <path d="M 53.415148 124.81156 
L 377.368098 124.81156 
" clip-path="url(#pf3a60d932b)" style="fill: none; stroke: #cccccc; stroke-width: 0.8; stroke-linecap: round"/>
     </g>
     <g id="text_15">
      <!-- 125 -->
      <g style="fill: #262626" transform="translate(29.732335 128.390466) scale(0.1 -0.1)">
       <use xlink:href="#ArialMT-31"/>
       <use xlink:href="#ArialMT-32" x="55.615234"/>
       <use xlink:href="#ArialMT-35" x="111.230469"/>
      </g>
     </g>
    </g>
    <g id="ytick_7">
     <g id="line2d_15">
      <path d="M 53.415148 88.729871 
L 377.368098 88.729871 
" clip-path="url(#pf3a60d932b)" style="fill: none; stroke: #cccccc; stroke-width: 0.8; stroke-linecap: round"/>
     </g>
     <g id="text_16">
      <!-- 150 -->
      <g style="fill: #262626" transform="translate(29.732335 92.308778) scale(0.1 -0.1)">
       <use xlink:href="#ArialMT-31"/>
       <use xlink:href="#ArialMT-35" x="55.615234"/>
       <use xlink:href="#ArialMT-30" x="111.230469"/>
      </g>
     </g>
    </g>
    <g id="ytick_8">
     <g id="line2d_16">
      <path d="M 53.415148 52.648183 
L 377.368098 52.648183 
" clip-path="url(#pf3a60d932b)" style="fill: none; stroke: #cccccc; stroke-width: 0.8; stroke-linecap: round"/>
     </g>
     <g id="text_17">
      <!-- 175 -->
      <g style="fill: #262626" transform="translate(29.732335 56.22709) scale(0.1 -0.1)">
       <use xlink:href="#ArialMT-31"/>
       <use xlink:href="#ArialMT-37" x="55.615234"/>
       <use xlink:href="#ArialMT-35" x="111.230469"/>
      </g>
     </g>
    </g>
    <g id="text_18">
     <!-- ms -->
     <g style="fill: #262626" transform="translate(23.744835 183.684844) rotate(-90) scale(0.1 -0.1)">
      <defs>
       <path id="ArialMT-6d" d="M 422 0 
L 422 3319 
L 925 3319 
L 925 2853 
Q 1081 3097 1340 3245 
Q 1600 3394 1931 3394 
Q 2300 3394 2536 3241 
Q 2772 3088 2869 2813 
Q 3263 3394 3894 3394 
Q 4388 3394 4653 3120 
Q 4919 2847 4919 2278 
L 4919 0 
L 4359 0 
L 4359 2091 
Q 4359 2428 4304 2576 
Q 4250 2725 4106 2815 
Q 3963 2906 3769 2906 
Q 3419 2906 3187 2673 
Q 2956 2441 2956 1928 
L 2956 0 
L 2394 0 
L 2394 2156 
Q 2394 2531 2256 2718 
Q 2119 2906 1806 2906 
Q 1569 2906 1367 2781 
Q 1166 2656 1075 2415 
Q 984 2175 984 1722 
L 984 0 
L 422 0 
z
" transform="scale(0.015625)"/>
       <path id="ArialMT-73" d="M 197 991 
L 753 1078 
Q 800 744 1014 566 
Q 1228 388 1613 388 
Q 2000 388 2187 545 
Q 2375 703 2375 916 
Q 2375 1106 2209 1216 
Q 2094 1291 1634 1406 
Q 1016 1563 777 1677 
Q 538 1791 414 1992 
Q 291 2194 291 2438 
Q 291 2659 392 2848 
Q 494 3038 669 3163 
Q 800 3259 1026 3326 
Q 1253 3394 1513 3394 
Q 1903 3394 2198 3281 
Q 2494 3169 2634 2976 
Q 2775 2784 2828 2463 
L 2278 2388 
Q 2241 2644 2061 2787 
Q 1881 2931 1553 2931 
Q 1166 2931 1000 2803 
Q 834 2675 834 2503 
Q 834 2394 903 2306 
Q 972 2216 1119 2156 
Q 1203 2125 1616 2013 
Q 2213 1853 2448 1751 
Q 2684 1650 2818 1456 
Q 2953 1263 2953 975 
Q 2953 694 2789 445 
Q 2625 197 2315 61 
Q 2006 -75 1616 -75 
Q 969 -75 630 194 
Q 291 463 197 991 
z
" transform="scale(0.015625)"/>
      </defs>
      <use xlink:href="#ArialMT-6d"/>
      <use xlink:href="#ArialMT-73" x="83.300781"/>
     </g>
    </g>
   </g>
   <g id="PolyCollection_1">
    <defs>
     <path id="mbf0055a93e" d="M 68.140282 -58.509885 
L 68.140282 -58.413785 
L 72.066984 -90.442816 
L 75.993687 -87.071554 
L 79.920389 -87.125271 
L 83.847091 -88.077313 
L 87.773794 -88.22403 
L 91.700496 -89.176203 
L 95.627199 -76.76866 
L 99.553901 -77.379741 
L 103.480604 -131.422403 
L 107.407306 -132.084463 
L 111.334008 -163.273498 
L 115.260711 -159.212561 
L 119.187413 -82.059126 
L 123.114116 -82.99752 
L 127.040818 -82.459235 
L 130.967521 -69.514349 
L 134.894223 -69.923753 
L 138.820925 -70.399358 
L 142.747628 -89.812306 
L 146.67433 -91.454565 
L 150.601033 -90.282831 
L 154.527735 -92.949962 
L 158.454438 -72.805947 
L 162.38114 -73.169319 
L 166.307843 -73.205253 
L 170.234545 -67.683637 
L 174.161247 -67.826333 
L 178.08795 -67.956882 
L 182.014652 -68.657499 
L 185.941355 -75.473573 
L 189.868057 -75.667497 
L 193.79476 -75.898617 
L 197.721462 -75.522356 
L 201.648164 -69.254751 
L 205.574867 -69.022601 
L 209.501569 -69.132825 
L 213.428272 -67.480819 
L 217.354974 -67.40966 
L 221.281677 -67.716384 
L 225.208379 -68.011791 
L 229.135082 -67.991639 
L 233.061784 -72.015961 
L 236.988486 -72.160647 
L 240.915189 -71.363312 
L 244.841891 -71.63195 
L 248.768594 -72.225144 
L 252.695296 -71.594464 
L 256.621999 -68.501574 
L 260.548701 -68.782675 
L 264.475403 -69.208418 
L 268.402106 -69.40353 
L 272.328808 -74.284568 
L 276.255511 -75.012527 
L 280.182213 -74.869913 
L 284.108916 -75.495001 
L 288.035618 -70.085664 
L 291.96232 -70.129069 
L 295.889023 -70.138054 
L 299.815725 -68.75218 
L 303.742428 -68.73585 
L 307.66913 -69.003306 
L 311.595833 -69.232783 
L 315.522535 -72.397581 
L 319.449238 -72.145909 
L 323.37594 -72.08906 
L 327.302642 -71.527261 
L 331.229345 -72.118567 
L 335.156047 -72.072101 
L 339.08275 -69.987658 
L 343.009452 -70.091077 
L 346.936155 -73.522337 
L 350.862857 -72.871844 
L 354.789559 -72.989382 
L 358.716262 -69.335948 
L 362.642964 -68.847599 
L 362.642964 -69.037249 
L 362.642964 -69.037249 
L 358.716262 -69.480087 
L 354.789559 -73.710071 
L 350.862857 -73.238143 
L 346.936155 -73.987725 
L 343.009452 -70.269411 
L 339.08275 -70.162719 
L 335.156047 -72.24356 
L 331.229345 -72.358856 
L 327.302642 -71.687409 
L 323.37594 -72.228932 
L 319.449238 -72.350128 
L 315.522535 -72.688745 
L 311.595833 -69.45038 
L 307.66913 -69.205989 
L 303.742428 -68.955277 
L 299.815725 -68.999377 
L 295.889023 -70.354004 
L 291.96232 -70.370748 
L 288.035618 -70.251131 
L 284.108916 -76.864071 
L 280.182213 -75.583642 
L 276.255511 -75.255214 
L 272.328808 -74.514993 
L 268.402106 -69.584696 
L 264.475403 -69.365963 
L 260.548701 -69.065037 
L 256.621999 -68.738521 
L 252.695296 -71.81285 
L 248.768594 -72.497445 
L 244.841891 -71.97273 
L 240.915189 -71.631815 
L 236.988486 -72.564811 
L 233.061784 -72.373233 
L 229.135082 -68.28041 
L 225.208379 -68.234374 
L 221.281677 -67.92143 
L 217.354974 -67.632189 
L 213.428272 -67.661001 
L 209.501569 -69.359584 
L 205.574867 -69.218083 
L 201.648164 -69.482572 
L 197.721462 -75.768497 
L 193.79476 -76.5182 
L 189.868057 -77.318219 
L 185.941355 -76.951803 
L 182.014652 -68.897133 
L 178.08795 -68.105361 
L 174.161247 -67.996074 
L 170.234545 -67.854664 
L 166.307843 -75.07416 
L 162.38114 -73.499459 
L 158.454438 -73.107917 
L 154.527735 -93.878481 
L 150.601033 -95.738646 
L 146.67433 -93.724956 
L 142.747628 -93.404907 
L 138.820925 -70.575969 
L 134.894223 -70.098466 
L 130.967521 -69.702574 
L 127.040818 -84.610142 
L 123.114116 -86.027711 
L 119.187413 -84.638772 
L 115.260711 -164.087627 
L 111.334008 -169.313314 
L 107.407306 -132.601233 
L 103.480604 -135.576819 
L 99.553901 -78.227878 
L 95.627199 -78.657006 
L 91.700496 -92.347002 
L 87.773794 -92.054326 
L 83.847091 -92.69822 
L 79.920389 -89.007342 
L 75.993687 -88.039267 
L 72.066984 -92.393613 
L 68.140282 -58.509885 
z
" style="stroke: #1f77b4; stroke-opacity: 0.2"/>
    </defs>
    <g clip-path="url(#pf3a60d932b)">
     <use xlink:href="#mbf0055a93e" x="0" y="360" style="fill: #1f77b4; fill-opacity: 0.2; stroke: #1f77b4; stroke-opacity: 0.2"/>
    </g>
   </g>
   <g id="PolyCollection_2">
    <defs>
     <path id="mfd2656d2d7" d="M 68.140282 -72.219723 
L 68.140282 -72.027336 
L 72.066984 -75.949487 
L 75.993687 -78.343255 
L 79.920389 -75.621072 
L 83.847091 -75.947322 
L 87.773794 -78.040854 
L 91.700496 -75.153958 
L 95.627199 -69.855362 
L 99.553901 -69.546575 
L 103.480604 -88.57887 
L 107.407306 -96.210365 
L 111.334008 -87.325607 
L 115.260711 -88.298773 
L 119.187413 -71.630148 
L 123.114116 -73.424491 
L 127.040818 -71.440647 
L 130.967521 -66.751471 
L 134.894223 -66.648061 
L 138.820925 -65.016086 
L 142.747628 -71.067851 
L 146.67433 -73.856057 
L 150.601033 -70.63083 
L 154.527735 -71.658003 
L 158.454438 -64.563405 
L 162.38114 -65.150021 
L 166.307843 -64.358028 
L 170.234545 -63.838524 
L 174.161247 -63.821494 
L 178.08795 -63.485357 
L 182.014652 -62.58778 
L 185.941355 -63.088227 
L 189.868057 -63.992954 
L 193.79476 -63.045016 
L 197.721462 -63.022862 
L 201.648164 -62.391605 
L 205.574867 -62.733847 
L 209.501569 -62.341609 
L 213.428272 -62.215859 
L 217.354974 -62.199117 
L 221.281677 -61.756389 
L 225.208379 -61.330919 
L 229.135082 -60.981576 
L 233.061784 -61.030359 
L 236.988486 -61.595531 
L 240.915189 -61.508299 
L 244.841891 -60.989226 
L 248.768594 -61.368154 
L 252.695296 -60.896279 
L 256.621999 -60.439701 
L 260.548701 -60.635739 
L 264.475403 -59.820933 
L 268.402106 -58.929903 
L 272.328808 -58.859684 
L 276.255511 -59.533835 
L 280.182213 -58.767286 
L 284.108916 -58.946564 
L 288.035618 -58.646586 
L 291.96232 -58.770783 
L 295.889023 -58.427426 
L 299.815725 -58.241387 
L 303.742428 -58.107181 
L 307.66913 -57.789429 
L 311.595833 -57.195741 
L 315.522535 -57.284935 
L 319.449238 -58.737979 
L 323.37594 -57.064503 
L 327.302642 -58.601556 
L 331.229345 -57.871656 
L 335.156047 -58.655895 
L 339.08275 -58.050949 
L 343.009452 -56.525416 
L 346.936155 -56.048968 
L 350.862857 -56.305462 
L 354.789559 -55.852636 
L 358.716262 -55.681537 
L 362.642964 -54.78 
L 362.642964 -54.78 
L 362.642964 -54.78 
L 358.716262 -55.773112 
L 354.789559 -55.905965 
L 350.862857 -56.46747 
L 346.936155 -56.533787 
L 343.009452 -57.737214 
L 339.08275 -58.58137 
L 335.156047 -60.10775 
L 331.229345 -58.997372 
L 327.302642 -59.153507 
L 323.37594 -57.27274 
L 319.449238 -59.586153 
L 315.522535 -58.279904 
L 311.595833 -57.434602 
L 307.66913 -57.940467 
L 303.742428 -58.32618 
L 299.815725 -58.403612 
L 295.889023 -58.694647 
L 291.96232 -59.054069 
L 288.035618 -58.888405 
L 284.108916 -59.204856 
L 280.182213 -58.8472 
L 276.255511 -59.602871 
L 272.328808 -58.917271 
L 268.402106 -59.106339 
L 264.475403 -60.351013 
L 260.548701 -61.217767 
L 256.621999 -60.572554 
L 252.695296 -61.042193 
L 248.768594 -61.443682 
L 244.841891 -61.093718 
L 240.915189 -62.538718 
L 236.988486 -61.836135 
L 233.061784 -61.060018 
L 229.135082 -61.304309 
L 225.208379 -61.4427 
L 221.281677 -61.806548 
L 217.354974 -62.271064 
L 213.428272 -62.308314 
L 209.501569 -62.450173 
L 205.574867 -63.098417 
L 201.648164 -62.609293 
L 197.721462 -63.065366 
L 193.79476 -63.292536 
L 189.868057 -64.039138 
L 185.941355 -63.161468 
L 182.014652 -62.667208 
L 178.08795 -63.720032 
L 174.161247 -63.892944 
L 170.234545 -63.931543 
L 166.307843 -64.411646 
L 162.38114 -65.205299 
L 158.454438 -64.742515 
L 154.527735 -74.837666 
L 150.601033 -70.757188 
L 146.67433 -74.078074 
L 142.747628 -71.1786 
L 138.820925 -65.099579 
L 134.894223 -66.719431 
L 130.967521 -66.812377 
L 127.040818 -71.598945 
L 123.114116 -73.557632 
L 119.187413 -71.751888 
L 115.260711 -89.050389 
L 111.334008 -87.7679 
L 107.407306 -97.255868 
L 103.480604 -89.238795 
L 99.553901 -69.687996 
L 95.627199 -70.013481 
L 91.700496 -75.316398 
L 87.773794 -78.340982 
L 83.847091 -76.686909 
L 79.920389 -75.807831 
L 75.993687 -78.542029 
L 72.066984 -76.115685 
L 68.140282 -72.219723 
z
" style="stroke: #ff7f0e; stroke-opacity: 0.2"/>
    </defs>
    <g clip-path="url(#pf3a60d932b)">
     <use xlink:href="#mfd2656d2d7" x="0" y="360" style="fill: #ff7f0e; fill-opacity: 0.2; stroke: #ff7f0e; stroke-opacity: 0.2"/>
    </g>
   </g>
   <g id="PolyCollection_3">
    <defs>
     <path id="m8a35b243cd" d="M 68.140282 -66.97712 
L 68.140282 -66.697318 
L 72.066984 -85.106923 
L 75.993687 -85.069606 
L 79.920389 -85.083761 
L 83.847091 -85.106272 
L 87.773794 -85.063634 
L 91.700496 -85.033586 
L 95.627199 -69.538911 
L 99.553901 -69.558279 
L 103.480604 -148.034557 
L 107.407306 -147.821905 
L 111.334008 -158.638446 
L 115.260711 -161.389384 
L 119.187413 -77.500862 
L 123.114116 -77.474408 
L 127.040818 -77.501545 
L 130.967521 -61.852665 
L 134.894223 -61.864818 
L 138.820925 -61.812748 
L 142.747628 -88.809815 
L 146.67433 -88.962374 
L 150.601033 -88.833431 
L 154.527735 -90.393674 
L 158.454438 -64.08853 
L 162.38114 -64.06267 
L 166.307843 -64.020308 
L 170.234545 -59.177193 
L 174.161247 -59.165526 
L 178.08795 -58.796515 
L 182.014652 -59.267296 
L 185.941355 -66.503626 
L 189.868057 -66.530936 
L 193.79476 -66.573938 
L 197.721462 -67.138551 
L 201.648164 -59.678372 
L 205.574867 -59.811203 
L 209.501569 -59.861508 
L 213.428272 -58.502767 
L 217.354974 -58.457234 
L 221.281677 -58.46169 
L 225.208379 -58.545925 
L 229.135082 -58.59673 
L 233.061784 -62.065752 
L 236.988486 -62.009418 
L 240.915189 -61.968498 
L 244.841891 -61.896651 
L 248.768594 -61.962948 
L 252.695296 -61.915538 
L 256.621999 -58.726954 
L 260.548701 -58.520636 
L 264.475403 -58.495592 
L 268.402106 -58.418029 
L 272.328808 -64.105736 
L 276.255511 -64.305985 
L 280.182213 -64.080175 
L 284.108916 -65.20758 
L 288.035618 -59.098132 
L 291.96232 -59.033357 
L 295.889023 -59.048964 
L 299.815725 -57.87932 
L 303.742428 -57.835229 
L 307.66913 -57.942335 
L 311.595833 -57.887982 
L 315.522535 -60.432807 
L 319.449238 -61.56653 
L 323.37594 -60.256205 
L 327.302642 -61.949781 
L 331.229345 -61.005191 
L 335.156047 -62.313468 
L 339.08275 -59.718651 
L 343.009452 -59.027405 
L 346.936155 -61.890268 
L 350.862857 -61.341922 
L 354.789559 -61.227671 
L 358.716262 -57.713832 
L 362.642964 -54.78 
L 362.642964 -54.78 
L 362.642964 -54.78 
L 358.716262 -58.030885 
L 354.789559 -61.338164 
L 350.862857 -61.744789 
L 346.936155 -63.246935 
L 343.009452 -59.465033 
L 339.08275 -60.082752 
L 335.156047 -63.387402 
L 331.229345 -62.002184 
L 327.302642 -62.839554 
L 323.37594 -60.376371 
L 319.449238 -62.275707 
L 315.522535 -61.420884 
L 311.595833 -58.009259 
L 307.66913 -58.108783 
L 303.742428 -57.930487 
L 299.815725 -57.972239 
L 295.889023 -59.184764 
L 291.96232 -59.197459 
L 288.035618 -59.219725 
L 284.108916 -65.417582 
L 280.182213 -64.208826 
L 276.255511 -64.445785 
L 272.328808 -64.179225 
L 268.402106 -58.663198 
L 264.475403 -58.69201 
L 260.548701 -58.657229 
L 256.621999 -59.101165 
L 252.695296 -61.999617 
L 248.768594 -62.029055 
L 244.841891 -61.990563 
L 240.915189 -62.409415 
L 236.988486 -62.188828 
L 233.061784 -62.250039 
L 229.135082 -58.755612 
L 225.208379 -58.711833 
L 221.281677 -58.699503 
L 217.354974 -58.681857 
L 213.428272 -58.700262 
L 209.501569 -60.033188 
L 205.574867 -60.010453 
L 201.648164 -59.90871 
L 197.721462 -67.206835 
L 193.79476 -66.729862 
L 189.868057 -66.578904 
L 185.941355 -66.649454 
L 182.014652 -59.40289 
L 178.08795 -58.892763 
L 174.161247 -59.358641 
L 170.234545 -59.376694 
L 166.307843 -64.074019 
L 162.38114 -64.136839 
L 158.454438 -64.179801 
L 154.527735 -91.906935 
L 150.601033 -89.092967 
L 146.67433 -89.228987 
L 142.747628 -89.026566 
L 138.820925 -61.876734 
L 134.894223 -61.934162 
L 130.967521 -61.957111 
L 127.040818 -77.728921 
L 123.114116 -77.678504 
L 119.187413 -77.678815 
L 115.260711 -162.935824 
L 111.334008 -163.090064 
L 107.407306 -149.215881 
L 103.480604 -150.363606 
L 99.553901 -69.630237 
L 95.627199 -69.647569 
L 91.700496 -85.294225 
L 87.773794 -85.391089 
L 83.847091 -85.466311 
L 79.920389 -85.311207 
L 75.993687 -85.314306 
L 72.066984 -85.308804 
L 68.140282 -66.97712 
z
" style="stroke: #2ca02c; stroke-opacity: 0.2"/>
    </defs>
    <g clip-path="url(#pf3a60d932b)">
     <use xlink:href="#m8a35b243cd" x="0" y="360" style="fill: #2ca02c; fill-opacity: 0.2; stroke: #2ca02c; stroke-opacity: 0.2"/>
    </g>
   </g>
   <g id="PolyCollection_4">
    <defs>
     <path id="m24d60e921d" d="M 68.140282 -88.102596 
L 68.140282 -87.711814 
L 72.066984 -142.035276 
L 75.993687 -141.50571 
L 79.920389 -139.454235 
L 83.847091 -142.383516 
L 87.773794 -143.247516 
L 91.700496 -140.953815 
L 95.627199 -107.116017 
L 99.553901 -107.397678 
L 103.480604 -261.168261 
L 107.407306 -266.432295 
L 111.334008 -305.174359 
L 115.260711 -302.375676 
L 119.187413 -122.369377 
L 123.114116 -125.011544 
L 127.040818 -123.167442 
L 130.967521 -88.70982 
L 134.894223 -88.983477 
L 138.820925 -87.796401 
L 142.747628 -141.208311 
L 146.67433 -145.656308 
L 150.601033 -141.069597 
L 154.527735 -148.999388 
L 158.454438 -92.250205 
L 162.38114 -92.946007 
L 166.307843 -92.314838 
L 170.234545 -81.345385 
L 174.161247 -81.444936 
L 178.08795 -80.712198 
L 182.014652 -81.006541 
L 185.941355 -96.280606 
L 189.868057 -96.632261 
L 193.79476 -96.470971 
L 197.721462 -96.226733 
L 201.648164 -82.013718 
L 205.574867 -82.251921 
L 209.501569 -81.93359 
L 213.428272 -78.703151 
L 217.354974 -78.736107 
L 221.281677 -78.538151 
L 225.208379 -78.542522 
L 229.135082 -78.151547 
L 233.061784 -85.773991 
L 236.988486 -86.38076 
L 240.915189 -85.728271 
L 244.841891 -85.146885 
L 248.768594 -86.18907 
L 252.695296 -85.007091 
L 256.621999 -78.333859 
L 260.548701 -78.884079 
L 264.475403 -78.2907 
L 268.402106 -77.279637 
L 272.328808 -87.822341 
L 276.255511 -89.478914 
L 280.182213 -88.491244 
L 284.108916 -91.455581 
L 288.035618 -78.431405 
L 291.96232 -78.553253 
L 295.889023 -78.309463 
L 299.815725 -75.498768 
L 303.742428 -75.340653 
L 307.66913 -75.268233 
L 311.595833 -74.921389 
L 315.522535 -81.306057 
L 319.449238 -83.025541 
L 323.37594 -80.002587 
L 327.302642 -82.563489 
L 331.229345 -81.699972 
L 335.156047 -83.769743 
L 339.08275 -78.191919 
L 343.009452 -76.394068 
L 346.936155 -82.120575 
L 350.862857 -81.666323 
L 354.789559 -80.868631 
L 358.716262 -73.320002 
L 362.642964 -68.850281 
L 362.642964 -69.043891 
L 362.642964 -69.043891 
L 358.716262 -73.733885 
L 354.789559 -81.907305 
L 350.862857 -84.09077 
L 346.936155 -84.286841 
L 343.009452 -77.741625 
L 339.08275 -79.123525 
L 335.156047 -86.360046 
L 331.229345 -83.373633 
L 327.302642 -83.899982 
L 323.37594 -80.54513 
L 319.449238 -84.540774 
L 315.522535 -83.042264 
L 311.595833 -75.545648 
L 307.66913 -75.632378 
L 303.742428 -75.772317 
L 299.815725 -75.858986 
L 295.889023 -78.766774 
L 291.96232 -79.304492 
L 288.035618 -78.999474 
L 284.108916 -94.165931 
L 280.182213 -89.430316 
L 276.255511 -90.099166 
L 272.328808 -88.127201 
L 268.402106 -77.73052 
L 264.475403 -79.169442 
L 260.548701 -79.490888 
L 256.621999 -78.848064 
L 252.695296 -85.364643 
L 248.768594 -86.490076 
L 244.841891 -85.616009 
L 240.915189 -88.020326 
L 236.988486 -87.0504 
L 233.061784 -86.140712 
L 229.135082 -78.658665 
L 225.208379 -78.94106 
L 221.281677 -78.849922 
L 217.354974 -79.04305 
L 213.428272 -79.105043 
L 209.501569 -82.346199 
L 205.574867 -82.861028 
L 201.648164 -82.410255 
L 197.721462 -96.646319 
L 193.79476 -98.251737 
L 189.868057 -98.574372 
L 185.941355 -97.433187 
L 182.014652 -81.335148 
L 178.08795 -81.131509 
L 174.161247 -81.723195 
L 170.234545 -81.549899 
L 166.307843 -94.187043 
L 162.38114 -93.36602 
L 158.454438 -92.956924 
L 154.527735 -153.137197 
L 150.601033 -145.961744 
L 146.67433 -148.733777 
L 142.747628 -144.170919 
L 138.820925 -88.047555 
L 134.894223 -89.281174 
L 130.967521 -89.035273 
L 127.040818 -125.301693 
L 123.114116 -128.033126 
L 119.187413 -126.342597 
L 115.260711 -308.627395 
L 111.334008 -311.18 
L 107.407306 -270.801863 
L 103.480604 -267.066897 
L 99.553901 -108.809057 
L 95.627199 -109.143566 
L 91.700496 -143.176837 
L 87.773794 -146.75251 
L 83.847091 -147.127511 
L 79.920389 -142.245243 
L 75.993687 -142.84597 
L 72.066984 -144.602329 
L 68.140282 -88.102596 
z
" style="stroke: #d62728; stroke-opacity: 0.2"/>
    </defs>
    <g clip-path="url(#pf3a60d932b)">
     <use xlink:href="#m24d60e921d" x="0" y="360" style="fill: #d62728; fill-opacity: 0.2; stroke: #d62728; stroke-opacity: 0.2"/>
    </g>
   </g>
   <g id="line2d_17">
    <path d="M 68.140282 301.538852 
L 72.066984 268.467688 
L 75.993687 272.299136 
L 79.920389 271.876208 
L 83.847091 269.292546 
L 87.773794 268.856938 
L 91.700496 269.430818 
L 95.627199 282.462317 
L 99.553901 282.296556 
L 103.480604 227.565637 
L 107.407306 227.739535 
L 111.334008 192.802458 
L 115.260711 196.795376 
L 119.187413 277.321305 
L 123.114116 275.276657 
L 127.040818 276.49682 
L 130.967521 290.378154 
L 134.894223 289.970502 
L 138.820925 289.549179 
L 142.747628 268.314274 
L 146.67433 267.525243 
L 150.601033 267.547091 
L 154.527735 266.647625 
L 158.454438 287.091842 
L 162.38114 286.734396 
L 166.307843 286.00081 
L 170.234545 292.230182 
L 174.161247 292.086778 
L 178.08795 291.956365 
L 182.014652 291.203093 
L 185.941355 284.158766 
L 189.868057 283.745941 
L 193.79476 283.776344 
L 197.721462 284.361222 
L 201.648164 290.622063 
L 205.574867 290.876063 
L 209.501569 290.789066 
L 213.428272 292.419581 
L 217.354974 292.445734 
L 221.281677 292.180897 
L 225.208379 291.908977 
L 229.135082 291.904112 
L 233.061784 287.796175 
L 236.988486 287.696818 
L 240.915189 288.508768 
L 244.841891 288.160476 
L 248.768594 287.659253 
L 252.695296 288.30154 
L 256.621999 291.349784 
L 260.548701 291.064834 
L 264.475403 290.749792 
L 268.402106 290.508514 
L 272.328808 285.626232 
L 276.255511 284.859891 
L 280.182213 284.876369 
L 284.108916 283.801399 
L 288.035618 289.839874 
L 291.96232 289.754455 
L 295.889023 289.777881 
L 299.815725 291.131211 
L 303.742428 291.170152 
L 307.66913 290.905396 
L 311.595833 290.714658 
L 315.522535 287.438022 
L 319.449238 287.816595 
L 323.37594 287.84566 
L 327.302642 288.386679 
L 331.229345 287.732725 
L 335.156047 287.858503 
L 339.08275 289.90756 
L 343.009452 289.830733 
L 346.936155 286.193898 
L 350.862857 286.924984 
L 354.789559 286.816928 
L 358.716262 290.57155 
L 362.642964 291.076087 
" clip-path="url(#pf3a60d932b)" style="fill: none; stroke: #1f77b4; stroke-width: 1.5; stroke-linecap: round"/>
   </g>
   <g id="line2d_18">
    <path d="M 68.140282 287.914284 
L 72.066984 283.967669 
L 75.993687 281.561814 
L 79.920389 284.248168 
L 83.847091 283.827961 
L 87.773794 281.791799 
L 91.700496 284.77893 
L 95.627199 290.077021 
L 99.553901 290.412436 
L 103.480604 271.059301 
L 107.407306 263.16037 
L 111.334008 272.550629 
L 115.260711 271.395149 
L 119.187413 288.303028 
L 123.114116 286.503057 
L 127.040818 288.514323 
L 130.967521 293.223055 
L 134.894223 293.330579 
L 138.820925 294.95144 
L 142.747628 288.883799 
L 146.67433 286.001738 
L 150.601033 289.326161 
L 154.527735 286.499377 
L 158.454438 295.372514 
L 162.38114 294.819381 
L 166.307843 295.619745 
L 170.234545 296.135497 
L 174.161247 296.155414 
L 178.08795 296.391388 
L 182.014652 297.378367 
L 185.941355 296.88412 
L 189.868057 295.979047 
L 193.79476 296.883687 
L 197.721462 296.960252 
L 201.648164 297.550621 
L 205.574867 297.154949 
L 209.501569 297.618526 
L 213.428272 297.755781 
L 217.354974 297.771657 
L 221.281677 298.226719 
L 225.208379 298.626288 
L 229.135082 298.768666 
L 233.061784 298.94893 
L 236.988486 298.317645 
L 240.915189 298.134928 
L 244.841891 298.949291 
L 248.768594 298.598866 
L 252.695296 299.043464 
L 256.621999 299.51931 
L 260.548701 299.08669 
L 264.475403 299.937857 
L 268.402106 300.969794 
L 272.328808 301.115059 
L 276.255511 300.426476 
L 280.182213 301.197902 
L 284.108916 300.955794 
L 288.035618 301.266962 
L 291.96232 301.088935 
L 295.889023 301.497452 
L 299.815725 301.675984 
L 303.742428 301.83027 
L 307.66913 302.115532 
L 311.595833 302.672849 
L 315.522535 302.324733 
L 319.449238 300.803746 
L 323.37594 302.864804 
L 327.302642 301.356734 
L 331.229345 301.687603 
L 335.156047 300.762685 
L 339.08275 301.530142 
L 343.009452 302.476565 
L 346.936155 303.746857 
L 350.862857 303.652106 
L 354.789559 304.129972 
L 358.716262 304.265062 
L 362.642964 305.22 
" clip-path="url(#pf3a60d932b)" style="fill: none; stroke: #ff7f0e; stroke-width: 1.5; stroke-linecap: round"/>
   </g>
   <g id="line2d_19">
    <path d="M 68.140282 293.216949 
L 72.066984 274.77326 
L 75.993687 274.830919 
L 79.920389 274.81097 
L 83.847091 274.784286 
L 87.773794 274.828883 
L 91.700496 274.86966 
L 95.627199 290.419066 
L 99.553901 290.40674 
L 103.480604 210.347694 
L 107.407306 211.459199 
L 111.334008 199.481953 
L 115.260711 198.057916 
L 119.187413 282.409651 
L 123.114116 282.417565 
L 127.040818 282.373718 
L 130.967521 298.096399 
L 134.894223 298.090333 
L 138.820925 298.158293 
L 142.747628 271.106416 
L 146.67433 270.905779 
L 150.601033 271.055248 
L 154.527735 268.789889 
L 158.454438 295.864785 
L 162.38114 295.90705 
L 166.307843 295.944234 
L 170.234545 300.745206 
L 174.161247 300.701423 
L 178.08795 301.149937 
L 182.014652 300.649116 
L 185.941355 293.427757 
L 189.868057 293.447028 
L 193.79476 293.337403 
L 197.721462 292.823788 
L 201.648164 300.17524 
L 205.574867 300.071922 
L 209.501569 300.046065 
L 213.428272 301.352613 
L 217.354974 301.421453 
L 221.281677 301.451238 
L 225.208379 301.357207 
L 229.135082 301.318131 
L 233.061784 297.845057 
L 236.988486 297.932851 
L 240.915189 297.886987 
L 244.841891 298.059009 
L 248.768594 297.997233 
L 252.695296 298.048636 
L 256.621999 300.942265 
L 260.548701 301.419001 
L 264.475403 301.422505 
L 268.402106 301.497223 
L 272.328808 295.865576 
L 276.255511 295.642377 
L 280.182213 295.856083 
L 284.108916 294.71272 
L 288.035618 300.860025 
L 291.96232 300.886398 
L 295.889023 300.912051 
L 299.815725 302.086181 
L 303.742428 302.138739 
L 307.66913 301.979659 
L 311.595833 302.062575 
L 315.522535 299.167033 
L 319.449238 298.05468 
L 323.37594 299.691275 
L 327.302642 297.86723 
L 331.229345 298.576978 
L 335.156047 297.031269 
L 339.08275 300.074644 
L 343.009452 300.784951 
L 346.936155 297.537002 
L 350.862857 298.440886 
L 354.789559 298.715423 
L 358.716262 302.083397 
L 362.642964 305.22 
" clip-path="url(#pf3a60d932b)" style="fill: none; stroke: #2ca02c; stroke-width: 1.5; stroke-linecap: round"/>
   </g>
   <g id="line2d_20">
    <path d="M 68.140282 272.099631 
L 72.066984 216.83892 
L 75.993687 217.863241 
L 79.920389 219.121571 
L 83.847091 215.111639 
L 87.773794 215.149606 
L 91.700496 217.796183 
L 95.627199 251.577439 
L 99.553901 251.999804 
L 103.480604 95.990967 
L 107.407306 91.212023 
L 111.334008 52.157441 
L 115.260711 53.79823 
L 119.187413 236.222663 
L 123.114116 233.287074 
L 127.040818 236.036176 
L 130.967521 271.13964 
L 134.894223 270.833269 
L 138.820925 272.015466 
L 142.747628 217.788134 
L 146.67433 212.609223 
L 150.601033 216.516375 
L 154.527735 209.188943 
L 158.454438 267.59091 
L 162.38114 266.905659 
L 166.307843 267.068105 
L 170.234545 278.521423 
L 174.161247 278.412136 
L 178.08795 279.038333 
L 182.014652 278.863512 
L 185.941355 262.980133 
L 189.868057 262.755252 
L 193.79476 263.177938 
L 197.721462 263.674217 
L 201.648164 277.765331 
L 205.574867 277.411733 
L 209.501569 277.873015 
L 213.428272 281.112367 
L 217.354974 281.120772 
L 221.281677 281.229002 
L 225.208379 281.287803 
L 229.135082 281.547869 
L 233.061784 274.077593 
L 236.988486 273.335201 
L 240.915189 273.555244 
L 244.841891 274.582358 
L 248.768594 273.692164 
L 252.695296 274.849174 
L 256.621999 281.357106 
L 260.548701 280.807774 
L 264.475403 281.417361 
L 268.402106 282.574622 
L 272.328808 272.06137 
L 276.255511 270.165323 
L 280.182213 270.954649 
L 284.108916 267.40354 
L 288.035618 281.321598 
L 291.96232 281.157188 
L 295.889023 281.482414 
L 299.815725 284.255903 
L 303.742428 284.525925 
L 307.66913 284.564225 
L 311.595833 284.722916 
L 315.522535 277.769407 
L 319.449238 275.806757 
L 323.37594 279.783972 
L 327.302642 276.980722 
L 331.229345 277.89485 
L 335.156047 274.517771 
L 339.08275 281.17559 
L 343.009452 282.826309 
L 346.936155 276.836424 
L 350.862857 277.205148 
L 354.789559 278.809243 
L 358.716262 286.457104 
L 362.642964 291.076087 
" clip-path="url(#pf3a60d932b)" style="fill: none; stroke: #d62728; stroke-width: 1.5; stroke-linecap: round"/>
   </g>
   <g id="line2d_21"/>
   <g id="line2d_22"/>
   <g id="line2d_23"/>
   <g id="line2d_24"/>
   <g id="patch_3">
    <path d="M 53.415148 318.04 
L 53.415148 36 
" style="fill: none; stroke: #cccccc; stroke-width: 0.8; stroke-linejoin: miter; stroke-linecap: square"/>
   </g>
   <g id="patch_4">
    <path d="M 53.415148 318.04 
L 377.368098 318.04 
" style="fill: none; stroke: #cccccc; stroke-width: 0.8; stroke-linejoin: miter; stroke-linecap: square"/>
   </g>
   <g id="text_19">
    <!-- client_pu = TPU -->
    <g style="fill: #262626" transform="translate(179.767404 30) scale(0.1 -0.1)">
     <defs>
      <path id="ArialMT-69" d="M 425 3934 
L 425 4581 
L 988 4581 
L 988 3934 
L 425 3934 
z
M 425 0 
L 425 3319 
L 988 3319 
L 988 0 
L 425 0 
z
" transform="scale(0.015625)"/>
      <path id="ArialMT-6e" d="M 422 0 
L 422 3319 
L 928 3319 
L 928 2847 
Q 1294 3394 1984 3394 
Q 2284 3394 2536 3286 
Q 2788 3178 2913 3003 
Q 3038 2828 3088 2588 
Q 3119 2431 3119 2041 
L 3119 0 
L 2556 0 
L 2556 2019 
Q 2556 2363 2490 2533 
Q 2425 2703 2258 2804 
Q 2091 2906 1866 2906 
Q 1506 2906 1245 2678 
Q 984 2450 984 1813 
L 984 0 
L 422 0 
z
" transform="scale(0.015625)"/>
      <path id="ArialMT-5f" d="M -97 -1272 
L -97 -866 
L 3631 -866 
L 3631 -1272 
L -97 -1272 
z
" transform="scale(0.015625)"/>
      <path id="ArialMT-70" d="M 422 -1272 
L 422 3319 
L 934 3319 
L 934 2888 
Q 1116 3141 1344 3267 
Q 1572 3394 1897 3394 
Q 2322 3394 2647 3175 
Q 2972 2956 3137 2557 
Q 3303 2159 3303 1684 
Q 3303 1175 3120 767 
Q 2938 359 2589 142 
Q 2241 -75 1856 -75 
Q 1575 -75 1351 44 
Q 1128 163 984 344 
L 984 -1272 
L 422 -1272 
z
M 931 1641 
Q 931 1000 1190 694 
Q 1450 388 1819 388 
Q 2194 388 2461 705 
Q 2728 1022 2728 1688 
Q 2728 2322 2467 2637 
Q 2206 2953 1844 2953 
Q 1484 2953 1207 2617 
Q 931 2281 931 1641 
z
" transform="scale(0.015625)"/>
      <path id="ArialMT-3d" d="M 3381 2694 
L 356 2694 
L 356 3219 
L 3381 3219 
L 3381 2694 
z
M 3381 1303 
L 356 1303 
L 356 1828 
L 3381 1828 
L 3381 1303 
z
" transform="scale(0.015625)"/>
      <path id="ArialMT-54" d="M 1659 0 
L 1659 4041 
L 150 4041 
L 150 4581 
L 3781 4581 
L 3781 4041 
L 2266 4041 
L 2266 0 
L 1659 0 
z
" transform="scale(0.015625)"/>
      <path id="ArialMT-50" d="M 494 0 
L 494 4581 
L 2222 4581 
Q 2678 4581 2919 4538 
Q 3256 4481 3484 4323 
Q 3713 4166 3852 3881 
Q 3991 3597 3991 3256 
Q 3991 2672 3619 2267 
Q 3247 1863 2275 1863 
L 1100 1863 
L 1100 0 
L 494 0 
z
M 1100 2403 
L 2284 2403 
Q 2872 2403 3119 2622 
Q 3366 2841 3366 3238 
Q 3366 3525 3220 3729 
Q 3075 3934 2838 4000 
Q 2684 4041 2272 4041 
L 1100 4041 
L 1100 2403 
z
" transform="scale(0.015625)"/>
      <path id="ArialMT-55" d="M 3500 4581 
L 4106 4581 
L 4106 1934 
Q 4106 1244 3950 837 
Q 3794 431 3386 176 
Q 2978 -78 2316 -78 
Q 1672 -78 1262 144 
Q 853 366 678 786 
Q 503 1206 503 1934 
L 503 4581 
L 1109 4581 
L 1109 1938 
Q 1109 1341 1220 1058 
Q 1331 775 1601 622 
Q 1872 469 2263 469 
Q 2931 469 3215 772 
Q 3500 1075 3500 1938 
L 3500 4581 
z
" transform="scale(0.015625)"/>
     </defs>
     <use xlink:href="#ArialMT-63"/>
     <use xlink:href="#ArialMT-6c" x="50"/>
     <use xlink:href="#ArialMT-69" x="72.216797"/>
     <use xlink:href="#ArialMT-65" x="94.433594"/>
     <use xlink:href="#ArialMT-6e" x="150.048828"/>
     <use xlink:href="#ArialMT-74" x="205.664062"/>
     <use xlink:href="#ArialMT-5f" x="233.447266"/>
     <use xlink:href="#ArialMT-70" x="289.0625"/>
     <use xlink:href="#ArialMT-75" x="344.677734"/>
     <use xlink:href="#ArialMT-20" x="400.292969"/>
     <use xlink:href="#ArialMT-3d" x="428.076172"/>
     <use xlink:href="#ArialMT-20" x="486.474609"/>
     <use xlink:href="#ArialMT-54" x="512.507812"/>
     <use xlink:href="#ArialMT-50" x="573.591797"/>
     <use xlink:href="#ArialMT-55" x="640.291016"/>
    </g>
   </g>
  </g>
  <g id="axes_2">
   <g id="patch_5">
    <path d="M 388.136949 318.04 
L 712.0899 318.04 
L 712.0899 36 
L 388.136949 36 
z
" style="fill: #ffffff"/>
   </g>
   <g id="matplotlib.axis_3">
    <g id="xtick_9">
     <g id="line2d_25">
      <path d="M 402.862083 318.04 
L 402.862083 36 
" clip-path="url(#p4dc9b39114)" style="fill: none; stroke: #cccccc; stroke-width: 0.8; stroke-linecap: round"/>
     </g>
     <g id="text_20">
      <!-- 0 -->
      <g style="fill: #262626" transform="translate(400.081614 332.197812) scale(0.1 -0.1)">
       <use xlink:href="#ArialMT-30"/>
      </g>
     </g>
    </g>
    <g id="xtick_10">
     <g id="line2d_26">
      <path d="M 442.129108 318.04 
L 442.129108 36 
" clip-path="url(#p4dc9b39114)" style="fill: none; stroke: #cccccc; stroke-width: 0.8; stroke-linecap: round"/>
     </g>
     <g id="text_21">
      <!-- 10 -->
      <g style="fill: #262626" transform="translate(436.56817 332.197812) scale(0.1 -0.1)">
       <use xlink:href="#ArialMT-31"/>
       <use xlink:href="#ArialMT-30" x="55.615234"/>
      </g>
     </g>
    </g>
    <g id="xtick_11">
     <g id="line2d_27">
      <path d="M 481.396132 318.04 
L 481.396132 36 
" clip-path="url(#p4dc9b39114)" style="fill: none; stroke: #cccccc; stroke-width: 0.8; stroke-linecap: round"/>
     </g>
     <g id="text_22">
      <!-- 20 -->
      <g style="fill: #262626" transform="translate(475.835194 332.197812) scale(0.1 -0.1)">
       <use xlink:href="#ArialMT-32"/>
       <use xlink:href="#ArialMT-30" x="55.615234"/>
      </g>
     </g>
    </g>
    <g id="xtick_12">
     <g id="line2d_28">
      <path d="M 520.663156 318.04 
L 520.663156 36 
" clip-path="url(#p4dc9b39114)" style="fill: none; stroke: #cccccc; stroke-width: 0.8; stroke-linecap: round"/>
     </g>
     <g id="text_23">
      <!-- 30 -->
      <g style="fill: #262626" transform="translate(515.102219 332.197812) scale(0.1 -0.1)">
       <use xlink:href="#ArialMT-33"/>
       <use xlink:href="#ArialMT-30" x="55.615234"/>
      </g>
     </g>
    </g>
    <g id="xtick_13">
     <g id="line2d_29">
      <path d="M 559.930181 318.04 
L 559.930181 36 
" clip-path="url(#p4dc9b39114)" style="fill: none; stroke: #cccccc; stroke-width: 0.8; stroke-linecap: round"/>
     </g>
     <g id="text_24">
      <!-- 40 -->
      <g style="fill: #262626" transform="translate(554.369243 332.197812) scale(0.1 -0.1)">
       <use xlink:href="#ArialMT-34"/>
       <use xlink:href="#ArialMT-30" x="55.615234"/>
      </g>
     </g>
    </g>
    <g id="xtick_14">
     <g id="line2d_30">
      <path d="M 599.197205 318.04 
L 599.197205 36 
" clip-path="url(#p4dc9b39114)" style="fill: none; stroke: #cccccc; stroke-width: 0.8; stroke-linecap: round"/>
     </g>
     <g id="text_25">
      <!-- 50 -->
      <g style="fill: #262626" transform="translate(593.636267 332.197812) scale(0.1 -0.1)">
       <use xlink:href="#ArialMT-35"/>
       <use xlink:href="#ArialMT-30" x="55.615234"/>
      </g>
     </g>
    </g>
    <g id="xtick_15">
     <g id="line2d_31">
      <path d="M 638.464229 318.04 
L 638.464229 36 
" clip-path="url(#p4dc9b39114)" style="fill: none; stroke: #cccccc; stroke-width: 0.8; stroke-linecap: round"/>
     </g>
     <g id="text_26">
      <!-- 60 -->
      <g style="fill: #262626" transform="translate(632.903292 332.197812) scale(0.1 -0.1)">
       <use xlink:href="#ArialMT-36"/>
       <use xlink:href="#ArialMT-30" x="55.615234"/>
      </g>
     </g>
    </g>
    <g id="xtick_16">
     <g id="line2d_32">
      <path d="M 677.731254 318.04 
L 677.731254 36 
" clip-path="url(#p4dc9b39114)" style="fill: none; stroke: #cccccc; stroke-width: 0.8; stroke-linecap: round"/>
     </g>
     <g id="text_27">
      <!-- 70 -->
      <g style="fill: #262626" transform="translate(672.170316 332.197812) scale(0.1 -0.1)">
       <use xlink:href="#ArialMT-37"/>
       <use xlink:href="#ArialMT-30" x="55.615234"/>
      </g>
     </g>
    </g>
    <g id="text_28">
     <!-- offload to cloud before layer -->
     <g style="fill: #262626" transform="translate(488.499362 345.465) scale(0.1 -0.1)">
      <use xlink:href="#ArialMT-6f"/>
      <use xlink:href="#ArialMT-66" x="55.615234"/>
      <use xlink:href="#ArialMT-66" x="81.648438"/>
      <use xlink:href="#ArialMT-6c" x="109.431641"/>
      <use xlink:href="#ArialMT-6f" x="131.648438"/>
      <use xlink:href="#ArialMT-61" x="187.263672"/>
      <use xlink:href="#ArialMT-64" x="242.878906"/>
      <use xlink:href="#ArialMT-20" x="298.494141"/>
      <use xlink:href="#ArialMT-74" x="326.277344"/>
      <use xlink:href="#ArialMT-6f" x="354.060547"/>
      <use xlink:href="#ArialMT-20" x="409.675781"/>
      <use xlink:href="#ArialMT-63" x="437.458984"/>
      <use xlink:href="#ArialMT-6c" x="487.458984"/>
      <use xlink:href="#ArialMT-6f" x="509.675781"/>
      <use xlink:href="#ArialMT-75" x="565.291016"/>
      <use xlink:href="#ArialMT-64" x="620.90625"/>
      <use xlink:href="#ArialMT-20" x="676.521484"/>
      <use xlink:href="#ArialMT-62" x="704.304688"/>
      <use xlink:href="#ArialMT-65" x="759.919922"/>
      <use xlink:href="#ArialMT-66" x="815.535156"/>
      <use xlink:href="#ArialMT-6f" x="843.318359"/>
      <use xlink:href="#ArialMT-72" x="898.933594"/>
      <use xlink:href="#ArialMT-65" x="932.234375"/>
      <use xlink:href="#ArialMT-20" x="987.849609"/>
      <use xlink:href="#ArialMT-6c" x="1015.632812"/>
      <use xlink:href="#ArialMT-61" x="1037.849609"/>
      <use xlink:href="#ArialMT-79" x="1093.464844"/>
      <use xlink:href="#ArialMT-65" x="1143.464844"/>
      <use xlink:href="#ArialMT-72" x="1199.080078"/>
     </g>
    </g>
   </g>
   <g id="matplotlib.axis_4">
    <g id="ytick_9">
     <g id="line2d_33">
      <path d="M 388.136949 305.22 
L 712.0899 305.22 
" clip-path="url(#p4dc9b39114)" style="fill: none; stroke: #cccccc; stroke-width: 0.8; stroke-linecap: round"/>
     </g>
    </g>
    <g id="ytick_10">
     <g id="line2d_34">
      <path d="M 388.136949 269.138312 
L 712.0899 269.138312 
" clip-path="url(#p4dc9b39114)" style="fill: none; stroke: #cccccc; stroke-width: 0.8; stroke-linecap: round"/>
     </g>
    </g>
    <g id="ytick_11">
     <g id="line2d_35">
      <path d="M 388.136949 233.056624 
L 712.0899 233.056624 
" clip-path="url(#p4dc9b39114)" style="fill: none; stroke: #cccccc; stroke-width: 0.8; stroke-linecap: round"/>
     </g>
    </g>
    <g id="ytick_12">
     <g id="line2d_36">
      <path d="M 388.136949 196.974936 
L 712.0899 196.974936 
" clip-path="url(#p4dc9b39114)" style="fill: none; stroke: #cccccc; stroke-width: 0.8; stroke-linecap: round"/>
     </g>
    </g>
    <g id="ytick_13">
     <g id="line2d_37">
      <path d="M 388.136949 160.893248 
L 712.0899 160.893248 
" clip-path="url(#p4dc9b39114)" style="fill: none; stroke: #cccccc; stroke-width: 0.8; stroke-linecap: round"/>
     </g>
    </g>
    <g id="ytick_14">
     <g id="line2d_38">
      <path d="M 388.136949 124.81156 
L 712.0899 124.81156 
" clip-path="url(#p4dc9b39114)" style="fill: none; stroke: #cccccc; stroke-width: 0.8; stroke-linecap: round"/>
     </g>
    </g>
    <g id="ytick_15">
     <g id="line2d_39">
      <path d="M 388.136949 88.729871 
L 712.0899 88.729871 
" clip-path="url(#p4dc9b39114)" style="fill: none; stroke: #cccccc; stroke-width: 0.8; stroke-linecap: round"/>
     </g>
    </g>
    <g id="ytick_16">
     <g id="line2d_40">
      <path d="M 388.136949 52.648183 
L 712.0899 52.648183 
" clip-path="url(#p4dc9b39114)" style="fill: none; stroke: #cccccc; stroke-width: 0.8; stroke-linecap: round"/>
     </g>
    </g>
   </g>
   <g id="PolyCollection_5">
    <defs>
     <path id="mcf68a693af" d="M 402.862083 -58.410444 
L 402.862083 -58.050785 
L 406.788786 -78.200755 
L 410.715488 -78.254489 
L 414.64219 -78.094057 
L 418.568893 -79.977987 
L 422.495595 -79.426397 
L 426.422298 -79.366422 
L 430.349 -78.023436 
L 434.275703 -77.694945 
L 438.202405 -119.671763 
L 442.129108 -130.179497 
L 446.05581 -130.891691 
L 449.982512 -142.989739 
L 453.909215 -89.721733 
L 457.835917 -89.565127 
L 461.76262 -90.049752 
L 465.689322 -86.826729 
L 469.616025 -86.873789 
L 473.542727 -94.848807 
L 477.469429 -105.489513 
L 481.396132 -105.273232 
L 485.322834 -105.298957 
L 489.249537 -106.987644 
L 493.176239 -100.324674 
L 497.102942 -100.171863 
L 501.029644 -100.451441 
L 504.956347 -99.015779 
L 508.883049 -99.240085 
L 512.809751 -101.958704 
L 516.736454 -105.002293 
L 520.663156 -108.741992 
L 524.589859 -108.51326 
L 528.516561 -108.781918 
L 532.443264 -109.217327 
L 536.369966 -106.975143 
L 540.296668 -106.672128 
L 544.223371 -106.855926 
L 548.150073 -106.568359 
L 552.076776 -106.680091 
L 556.003478 -108.572481 
L 559.930181 -110.853536 
L 563.856883 -113.090991 
L 567.783585 -115.591586 
L 571.710288 -115.770723 
L 575.63699 -115.598241 
L 579.563693 -116.142467 
L 583.490395 -116.088734 
L 587.417098 -115.837769 
L 591.3438 -115.996072 
L 595.270503 -115.805623 
L 599.197205 -120.781763 
L 603.123907 -125.32309 
L 607.05061 -129.062315 
L 610.977312 -128.854274 
L 614.904015 -128.86197 
L 618.830717 -129.357555 
L 622.75742 -127.497925 
L 626.684122 -127.746998 
L 630.610824 -127.645612 
L 634.537527 -127.874494 
L 638.464229 -128.139332 
L 642.390932 -130.757765 
L 646.317634 -133.718705 
L 650.244337 -135.999524 
L 654.171039 -136.204494 
L 658.097742 -135.798004 
L 662.024444 -136.061773 
L 665.951146 -136.107008 
L 669.877849 -135.901785 
L 673.804551 -137.725497 
L 677.731254 -137.795907 
L 681.657956 -142.444222 
L 685.584659 -141.91662 
L 689.511361 -142.294833 
L 693.438063 -141.006771 
L 697.364766 -140.706241 
L 697.364766 -140.949856 
L 697.364766 -140.949856 
L 693.438063 -141.264485 
L 689.511361 -142.539821 
L 685.584659 -142.241181 
L 681.657956 -142.624789 
L 677.731254 -138.03216 
L 673.804551 -137.95254 
L 669.877849 -136.121107 
L 665.951146 -136.326262 
L 662.024444 -136.294771 
L 658.097742 -136.166698 
L 654.171039 -136.431786 
L 650.244337 -136.209559 
L 646.317634 -133.942458 
L 642.390932 -131.061731 
L 638.464229 -128.413822 
L 634.537527 -128.070991 
L 630.610824 -127.877808 
L 626.684122 -128.019033 
L 622.75742 -127.695843 
L 618.830717 -129.638375 
L 614.904015 -129.094554 
L 610.977312 -129.075092 
L 607.05061 -129.367296 
L 603.123907 -125.670847 
L 599.197205 -121.007352 
L 595.270503 -116.023601 
L 591.3438 -116.247625 
L 587.417098 -116.057571 
L 583.490395 -116.301814 
L 579.563693 -116.329115 
L 575.63699 -115.792042 
L 571.710288 -116.04442 
L 567.783585 -115.839785 
L 563.856883 -113.254066 
L 559.930181 -111.105557 
L 556.003478 -108.880761 
L 552.076776 -106.834145 
L 548.150073 -106.808287 
L 544.223371 -107.115474 
L 540.296668 -106.951729 
L 536.369966 -107.317848 
L 532.443264 -109.445535 
L 528.516561 -108.955097 
L 524.589859 -108.67958 
L 520.663156 -108.986763 
L 516.736454 -105.179267 
L 512.809751 -102.20959 
L 508.883049 -99.412954 
L 504.956347 -99.206267 
L 501.029644 -100.635561 
L 497.102942 -100.523148 
L 493.176239 -100.559028 
L 489.249537 -107.266574 
L 485.322834 -105.622073 
L 481.396132 -105.712179 
L 477.469429 -105.788368 
L 473.542727 -95.14176 
L 469.616025 -87.104167 
L 465.689322 -87.111464 
L 461.76262 -90.370058 
L 457.835917 -89.850155 
L 453.909215 -90.059507 
L 449.982512 -143.38245 
L 446.05581 -131.168097 
L 442.129108 -130.500593 
L 438.202405 -123.08623 
L 434.275703 -77.900163 
L 430.349 -78.279319 
L 426.422298 -79.539047 
L 422.495595 -79.621891 
L 418.568893 -80.425396 
L 414.64219 -78.280107 
L 410.715488 -78.678168 
L 406.788786 -78.405724 
L 402.862083 -58.410444 
z
" style="stroke: #1f77b4; stroke-opacity: 0.2"/>
    </defs>
    <g clip-path="url(#p4dc9b39114)">
     <use xlink:href="#mcf68a693af" x="0" y="360" style="fill: #1f77b4; fill-opacity: 0.2; stroke: #1f77b4; stroke-opacity: 0.2"/>
    </g>
   </g>
   <g id="PolyCollection_6">
    <defs>
     <path id="m1325f7f716" d="M 402.862083 -72.627735 
L 402.862083 -72.363328 
L 406.788786 -76.320798 
L 410.715488 -78.738818 
L 414.64219 -75.917375 
L 418.568893 -75.512827 
L 422.495595 -78.014009 
L 426.422298 -75.186792 
L 430.349 -69.863432 
L 434.275703 -69.71385 
L 438.202405 -87.623717 
L 442.129108 -95.466 
L 446.05581 -85.803286 
L 449.982512 -87.064018 
L 453.909215 -72.466522 
L 457.835917 -74.263534 
L 461.76262 -72.96262 
L 465.689322 -67.807582 
L 469.616025 -67.724378 
L 473.542727 -66.20584 
L 477.469429 -73.583827 
L 481.396132 -77.719583 
L 485.322834 -74.949808 
L 489.249537 -74.117043 
L 493.176239 -65.131746 
L 497.102942 -66.389355 
L 501.029644 -65.308348 
L 504.956347 -65.969942 
L 508.883049 -64.979319 
L 512.809751 -64.614281 
L 516.736454 -66.728451 
L 520.663156 -63.287773 
L 524.589859 -64.204272 
L 528.516561 -63.716305 
L 532.443264 -63.605292 
L 536.369966 -63.323422 
L 540.296668 -63.793206 
L 544.223371 -64.070385 
L 548.150073 -62.897803 
L 552.076776 -63.143699 
L 556.003478 -62.402902 
L 559.930181 -62.263847 
L 563.856883 -61.491849 
L 567.783585 -62.316599 
L 571.710288 -62.433215 
L 575.63699 -62.077882 
L 579.563693 -61.877124 
L 583.490395 -62.280414 
L 587.417098 -62.576675 
L 591.3438 -63.258331 
L 595.270503 -61.56291 
L 599.197205 -63.642962 
L 603.123907 -64.006376 
L 607.05061 -59.075741 
L 610.977312 -59.603472 
L 614.904015 -58.940803 
L 618.830717 -59.046077 
L 622.75742 -59.021835 
L 626.684122 -58.865457 
L 630.610824 -58.852035 
L 634.537527 -59.763314 
L 638.464229 -63.660786 
L 642.390932 -58.184244 
L 646.317634 -57.788341 
L 650.244337 -58.819778 
L 654.171039 -58.369022 
L 658.097742 -59.947733 
L 662.024444 -57.878623 
L 665.951146 -60.867111 
L 669.877849 -57.237452 
L 673.804551 -56.461511 
L 677.731254 -56.406851 
L 681.657956 -55.939016 
L 685.584659 -56.33144 
L 689.511361 -57.570125 
L 693.438063 -56.427995 
L 697.364766 -54.78 
L 697.364766 -54.78 
L 697.364766 -54.78 
L 693.438063 -57.083816 
L 689.511361 -58.250481 
L 685.584659 -56.538044 
L 681.657956 -56.079522 
L 677.731254 -56.743277 
L 673.804551 -56.782443 
L 669.877849 -57.849902 
L 665.951146 -63.383606 
L 662.024444 -59.512619 
L 658.097742 -61.855908 
L 654.171039 -60.599733 
L 650.244337 -60.859187 
L 646.317634 -59.273325 
L 642.390932 -61.280679 
L 638.464229 -65.922916 
L 634.537527 -61.740562 
L 630.610824 -59.530147 
L 626.684122 -59.301613 
L 622.75742 -60.142533 
L 618.830717 -59.348808 
L 614.904015 -59.387632 
L 610.977312 -59.925866 
L 607.05061 -59.878631 
L 603.123907 -67.552918 
L 599.197205 -65.688577 
L 595.270503 -63.695641 
L 591.3438 -65.357484 
L 587.417098 -65.265122 
L 583.490395 -62.719054 
L 579.563693 -62.260456 
L 575.63699 -62.489358 
L 571.710288 -63.331937 
L 567.783585 -63.357101 
L 563.856883 -61.796734 
L 559.930181 -62.836897 
L 556.003478 -63.016656 
L 552.076776 -63.63049 
L 548.150073 -63.477473 
L 544.223371 -65.052745 
L 540.296668 -64.358389 
L 536.369966 -63.75736 
L 532.443264 -64.518303 
L 528.516561 -64.288044 
L 524.589859 -64.599415 
L 520.663156 -63.505779 
L 516.736454 -69.518431 
L 512.809751 -65.15565 
L 508.883049 -65.995589 
L 504.956347 -66.554104 
L 501.029644 -65.844738 
L 497.102942 -67.046803 
L 493.176239 -68.252758 
L 489.249537 -78.903856 
L 485.322834 -77.416888 
L 481.396132 -79.474235 
L 477.469429 -74.515289 
L 473.542727 -66.655494 
L 469.616025 -68.364112 
L 465.689322 -68.485339 
L 461.76262 -74.348615 
L 457.835917 -75.26076 
L 453.909215 -73.892182 
L 449.982512 -88.183705 
L 446.05581 -86.15245 
L 442.129108 -96.085523 
L 438.202405 -88.347944 
L 434.275703 -69.923575 
L 430.349 -70.225777 
L 426.422298 -75.437416 
L 422.495595 -78.209716 
L 418.568893 -75.741007 
L 414.64219 -76.206533 
L 410.715488 -78.975658 
L 406.788786 -76.71745 
L 402.862083 -72.627735 
z
" style="stroke: #ff7f0e; stroke-opacity: 0.2"/>
    </defs>
    <g clip-path="url(#p4dc9b39114)">
     <use xlink:href="#m1325f7f716" x="0" y="360" style="fill: #ff7f0e; fill-opacity: 0.2; stroke: #ff7f0e; stroke-opacity: 0.2"/>
    </g>
   </g>
   <g id="PolyCollection_7">
    <defs>
     <path id="m696208604e" d="M 402.862083 -67.277926 
L 402.862083 -66.844396 
L 406.788786 -84.819892 
L 410.715488 -84.873776 
L 414.64219 -84.787435 
L 418.568893 -84.6975 
L 422.495595 -84.771697 
L 426.422298 -84.962638 
L 430.349 -69.509869 
L 434.275703 -69.603387 
L 438.202405 -162.487599 
L 442.129108 -165.041269 
L 446.05581 -165.276678 
L 449.982512 -159.263555 
L 453.909215 -77.336863 
L 457.835917 -77.366616 
L 461.76262 -77.378145 
L 465.689322 -61.938711 
L 469.616025 -61.898216 
L 473.542727 -61.871667 
L 477.469429 -89.657101 
L 481.396132 -89.425838 
L 485.322834 -91.043455 
L 489.249537 -91.713974 
L 493.176239 -64.277757 
L 497.102942 -64.306474 
L 501.029644 -64.331791 
L 504.956347 -58.921865 
L 508.883049 -59.063586 
L 512.809751 -58.84637 
L 516.736454 -59.511047 
L 520.663156 -66.47291 
L 524.589859 -66.544235 
L 528.516561 -66.500466 
L 532.443264 -67.265847 
L 536.369966 -59.519889 
L 540.296668 -59.501956 
L 544.223371 -59.755079 
L 548.150073 -58.147269 
L 552.076776 -58.14031 
L 556.003478 -58.216251 
L 559.930181 -58.192554 
L 563.856883 -58.223718 
L 567.783585 -62.265543 
L 571.710288 -61.890855 
L 575.63699 -62.055683 
L 579.563693 -61.878331 
L 583.490395 -61.952951 
L 587.417098 -62.867982 
L 591.3438 -59.269286 
L 595.270503 -59.058662 
L 599.197205 -59.408529 
L 603.123907 -60.05472 
L 607.05061 -65.243962 
L 610.977312 -64.559478 
L 614.904015 -64.321919 
L 618.830717 -65.22034 
L 622.75742 -59.458935 
L 626.684122 -58.988311 
L 630.610824 -59.174271 
L 634.537527 -58.589097 
L 638.464229 -59.283886 
L 642.390932 -58.286948 
L 646.317634 -58.385792 
L 650.244337 -61.939264 
L 654.171039 -61.858882 
L 658.097742 -62.87198 
L 662.024444 -61.00227 
L 665.951146 -63.156194 
L 669.877849 -60.24971 
L 673.804551 -58.426361 
L 677.731254 -58.17819 
L 681.657956 -61.159743 
L 685.584659 -61.287194 
L 689.511361 -67.48401 
L 693.438063 -58.527024 
L 697.364766 -54.78 
L 697.364766 -54.78 
L 697.364766 -54.78 
L 693.438063 -59.354811 
L 689.511361 -68.810818 
L 685.584659 -61.622056 
L 681.657956 -61.390758 
L 677.731254 -58.403316 
L 673.804551 -59.134778 
L 669.877849 -60.771357 
L 665.951146 -65.41906 
L 662.024444 -63.484758 
L 658.097742 -65.20918 
L 654.171039 -64.132804 
L 650.244337 -64.290098 
L 646.317634 -58.686488 
L 642.390932 -59.028193 
L 638.464229 -59.746895 
L 634.537527 -59.048619 
L 630.610824 -59.684735 
L 626.684122 -59.236116 
L 622.75742 -59.979704 
L 618.830717 -65.427416 
L 614.904015 -65.67069 
L 610.977312 -66.774113 
L 607.05061 -66.887711 
L 603.123907 -60.896233 
L 599.197205 -59.886461 
L 595.270503 -59.432305 
L 591.3438 -59.951779 
L 587.417098 -63.518143 
L 583.490395 -62.081985 
L 579.563693 -62.018635 
L 575.63699 -62.178995 
L 571.710288 -62.358607 
L 567.783585 -63.235843 
L 563.856883 -58.328349 
L 559.930181 -58.356255 
L 556.003478 -58.41384 
L 552.076776 -58.240012 
L 548.150073 -58.311776 
L 544.223371 -60.313232 
L 540.296668 -59.581141 
L 536.369966 -59.623576 
L 532.443264 -67.599018 
L 528.516561 -66.681301 
L 524.589859 -66.718962 
L 520.663156 -66.580349 
L 516.736454 -60.267615 
L 512.809751 -59.088807 
L 508.883049 -59.400724 
L 504.956347 -59.150723 
L 501.029644 -64.403092 
L 497.102942 -64.420512 
L 493.176239 -64.887694 
L 489.249537 -100.690679 
L 485.322834 -93.827496 
L 481.396132 -90.170071 
L 477.469429 -90.612144 
L 473.542727 -61.994445 
L 469.616025 -61.984828 
L 465.689322 -62.021821 
L 461.76262 -77.768182 
L 457.835917 -77.779871 
L 453.909215 -77.773697 
L 449.982512 -162.874525 
L 446.05581 -165.858575 
L 442.129108 -165.770709 
L 438.202405 -165.209683 
L 434.275703 -69.759339 
L 430.349 -69.600635 
L 426.422298 -85.094647 
L 422.495595 -85.070369 
L 418.568893 -85.046293 
L 414.64219 -85.151857 
L 410.715488 -85.148223 
L 406.788786 -85.247966 
L 402.862083 -67.277926 
z
" style="stroke: #2ca02c; stroke-opacity: 0.2"/>
    </defs>
    <g clip-path="url(#p4dc9b39114)">
     <use xlink:href="#m696208604e" x="0" y="360" style="fill: #2ca02c; fill-opacity: 0.2; stroke: #2ca02c; stroke-opacity: 0.2"/>
    </g>
   </g>
   <g id="PolyCollection_8">
    <defs>
     <path id="mebc810fce3" d="M 402.862083 -88.493328 
L 402.862083 -88.187228 
L 406.788786 -130.247062 
L 410.715488 -132.65144 
L 414.64219 -129.215456 
L 418.568893 -130.856194 
L 422.495595 -132.917199 
L 426.422298 -130.022743 
L 430.349 -108.161689 
L 434.275703 -107.75059 
L 438.202405 -259.515785 
L 442.129108 -281.761318 
L 446.05581 -272.702691 
L 449.982512 -280.583078 
L 453.909215 -130.566849 
L 457.835917 -131.836697 
L 461.76262 -131.277076 
L 465.689322 -107.264854 
L 469.616025 -107.154405 
L 473.542727 -113.620872 
L 477.469429 -159.952353 
L 481.396132 -163.797981 
L 485.322834 -163.888853 
L 489.249537 -166.26499 
L 493.176239 -120.751259 
L 497.102942 -121.741213 
L 501.029644 -120.547748 
L 504.956347 -114.462357 
L 508.883049 -113.983069 
L 512.809751 -116.203414 
L 516.736454 -122.526997 
L 520.663156 -129.199764 
L 524.589859 -129.907119 
L 528.516561 -129.653239 
L 532.443264 -130.988061 
L 536.369966 -120.481975 
L 540.296668 -120.554086 
L 544.223371 -121.780277 
L 548.150073 -118.419624 
L 552.076776 -118.414092 
L 556.003478 -120.031696 
L 559.930181 -122.00815 
L 563.856883 -123.466718 
L 567.783585 -131.10815 
L 571.710288 -130.882334 
L 575.63699 -130.253379 
L 579.563693 -130.680091 
L 583.490395 -131.106761 
L 587.417098 -132.600822 
L 591.3438 -129.180047 
L 595.270503 -127.494195 
L 599.197205 -134.310635 
L 603.123907 -140.202484 
L 607.05061 -144.598938 
L 610.977312 -143.985254 
L 614.904015 -143.132408 
L 618.830717 -144.42726 
L 622.75742 -136.751163 
L 626.684122 -136.399174 
L 630.610824 -136.243031 
L 634.537527 -136.876227 
L 638.464229 -142.254539 
L 642.390932 -138.190809 
L 646.317634 -140.387172 
L 650.244337 -146.742612 
L 654.171039 -148.268865 
L 658.097742 -149.003055 
L 662.024444 -145.7426 
L 665.951146 -150.70271 
L 669.877849 -144.060344 
L 673.804551 -143.539237 
L 677.731254 -143.20058 
L 681.657956 -150.175351 
L 685.584659 -150.455783 
L 689.511361 -158.023383 
L 693.438063 -146.303133 
L 697.364766 -140.705358 
L 697.364766 -140.953932 
L 697.364766 -140.953932 
L 693.438063 -147.864692 
L 689.511361 -159.864105 
L 685.584659 -151.142022 
L 681.657956 -150.532261 
L 677.731254 -143.946113 
L 673.804551 -145.217338 
L 669.877849 -145.106287 
L 665.951146 -155.803807 
L 662.024444 -149.711089 
L 658.097742 -154.056321 
L 654.171039 -151.267205 
L 650.244337 -152.329562 
L 646.317634 -142.523158 
L 642.390932 -142.649415 
L 638.464229 -144.215584 
L 634.537527 -140.053486 
L 630.610824 -137.721616 
L 626.684122 -137.15526 
L 622.75742 -138.49413 
L 618.830717 -145.001219 
L 614.904015 -144.667745 
L 610.977312 -146.282505 
L 607.05061 -146.405779 
L 603.123907 -143.905072 
L 599.197205 -137.19285 
L 595.270503 -130.222556 
L 591.3438 -132.870068 
L 587.417098 -135.329276 
L 583.490395 -131.785277 
L 579.563693 -131.201526 
L 575.63699 -131.052077 
L 571.710288 -132.446521 
L 567.783585 -133.540096 
L 563.856883 -124.0658 
L 559.930181 -123.030161 
L 556.003478 -120.884686 
L 552.076776 -119.577847 
L 548.150073 -119.069455 
L 544.223371 -123.383968 
L 540.296668 -121.670615 
L 536.369966 -121.845249 
L 532.443264 -132.352322 
L 528.516561 -130.430644 
L 524.589859 -131.003735 
L 520.663156 -129.454846 
L 516.736454 -126.20253 
L 512.809751 -117.258232 
L 508.883049 -115.254149 
L 504.956347 -115.369531 
L 501.029644 -121.4344 
L 497.102942 -122.712104 
L 493.176239 -124.229694 
L 489.249537 -177.60157 
L 485.322834 -169.391143 
L 481.396132 -166.094811 
L 477.469429 -162.417909 
L 473.542727 -114.24086 
L 469.616025 -108.375397 
L 465.689322 -108.229367 
L 461.76262 -134.048813 
L 457.835917 -132.836857 
L 453.909215 -133.194478 
L 449.982512 -289.248503 
L 446.05581 -273.595802 
L 442.129108 -283.308269 
L 438.202405 -267.741205 
L 434.275703 -108.076657 
L 430.349 -108.684614 
L 426.422298 -130.461463 
L 422.495595 -133.194825 
L 418.568893 -131.404179 
L 414.64219 -130.038993 
L 410.715488 -133.301838 
L 406.788786 -130.924414 
L 402.862083 -88.493328 
z
" style="stroke: #d62728; stroke-opacity: 0.2"/>
    </defs>
    <g clip-path="url(#p4dc9b39114)">
     <use xlink:href="#mebc810fce3" x="0" y="360" style="fill: #d62728; fill-opacity: 0.2; stroke: #d62728; stroke-opacity: 0.2"/>
    </g>
   </g>
   <g id="line2d_41">
    <path d="M 402.862083 301.792836 
L 406.788786 281.658982 
L 410.715488 281.557126 
L 414.64219 281.819905 
L 418.568893 279.75747 
L 422.495595 280.462672 
L 426.422298 280.525561 
L 430.349 281.819263 
L 434.275703 282.188001 
L 438.202405 238.632016 
L 442.129108 229.671007 
L 446.05581 228.974505 
L 449.982512 216.834052 
L 453.909215 270.138592 
L 457.835917 270.278601 
L 461.76262 269.74417 
L 465.689322 273.001939 
L 469.616025 273.028546 
L 473.542727 265.053347 
L 477.469429 254.366422 
L 481.396132 254.466046 
L 485.322834 254.55101 
L 489.249537 252.853678 
L 493.176239 259.572561 
L 497.102942 259.706195 
L 501.029644 259.492594 
L 504.956347 260.892789 
L 508.883049 260.667361 
L 512.809751 257.95331 
L 516.736454 254.908396 
L 520.663156 251.096581 
L 524.589859 251.432858 
L 528.516561 251.14529 
L 532.443264 250.611594 
L 536.369966 252.83666 
L 540.296668 253.152345 
L 544.223371 252.971043 
L 548.150073 253.294519 
L 552.076776 253.26719 
L 556.003478 251.234075 
L 559.930181 249.00246 
L 563.856883 246.829122 
L 567.783585 244.282879 
L 571.710288 244.121234 
L 575.63699 244.297123 
L 579.563693 243.772033 
L 583.490395 243.788255 
L 587.417098 244.067164 
L 591.3438 243.853536 
L 595.270503 244.113615 
L 599.197205 239.09675 
L 603.123907 234.446484 
L 607.05061 230.814647 
L 610.977312 231.046449 
L 614.904015 230.992113 
L 618.830717 230.494952 
L 622.75742 232.425755 
L 626.684122 232.148838 
L 630.610824 232.207009 
L 634.537527 232.072145 
L 638.464229 231.759787 
L 642.390932 228.999353 
L 646.317634 226.177154 
L 650.244337 223.850792 
L 654.171039 223.665895 
L 658.097742 223.966371 
L 662.024444 223.831186 
L 665.951146 223.776863 
L 669.877849 223.991842 
L 673.804551 222.147445 
L 677.731254 222.107354 
L 681.657956 217.460843 
L 685.584659 217.87046 
L 689.511361 217.542427 
L 693.438063 218.862121 
L 697.364766 219.167502 
" clip-path="url(#p4dc9b39114)" style="fill: none; stroke: #1f77b4; stroke-width: 1.5; stroke-linecap: round"/>
   </g>
   <g id="line2d_42">
    <path d="M 402.862083 287.517097 
L 406.788786 283.53238 
L 410.715488 281.126597 
L 414.64219 283.941618 
L 418.568893 284.39098 
L 422.495595 281.912312 
L 426.422298 284.702365 
L 430.349 289.922302 
L 434.275703 290.205183 
L 438.202405 272.027084 
L 442.129108 264.336344 
L 446.05581 274.052999 
L 449.982512 272.549403 
L 453.909215 287.057561 
L 457.835917 285.417071 
L 461.76262 286.572911 
L 465.689322 291.97499 
L 469.616025 291.951537 
L 473.542727 293.634675 
L 477.469429 285.910379 
L 481.396132 281.577113 
L 485.322834 283.847734 
L 489.249537 283.282189 
L 493.176239 293.806352 
L 497.102942 293.221828 
L 501.029644 294.480863 
L 504.956347 293.860907 
L 508.883049 294.514491 
L 512.809751 295.155879 
L 516.736454 291.528876 
L 520.663156 296.644321 
L 524.589859 295.668023 
L 528.516561 296.10057 
L 532.443264 295.937048 
L 536.369966 296.558735 
L 540.296668 295.967501 
L 544.223371 295.5395 
L 548.150073 296.867811 
L 552.076776 296.676289 
L 556.003478 297.203515 
L 559.930181 297.476292 
L 563.856883 298.389159 
L 567.783585 297.051467 
L 571.710288 297.158124 
L 575.63699 297.690618 
L 579.563693 297.901696 
L 583.490395 297.45587 
L 587.417098 295.849153 
L 591.3438 295.989583 
L 595.270503 297.177103 
L 599.197205 295.373957 
L 603.123907 294.373772 
L 607.05061 300.764489 
L 610.977312 300.302427 
L 614.904015 300.886806 
L 618.830717 300.875981 
L 622.75742 300.34024 
L 626.684122 300.964165 
L 630.610824 300.940134 
L 634.537527 299.48128 
L 638.464229 294.850123 
L 642.390932 301.125739 
L 646.317634 301.90532 
L 650.244337 300.406919 
L 654.171039 300.078071 
L 658.097742 299.342149 
L 662.024444 301.493844 
L 665.951146 298.414488 
L 669.877849 302.583222 
L 673.804551 303.393617 
L 677.731254 303.443121 
L 681.657956 303.990697 
L 685.584659 303.567675 
L 689.511361 301.978926 
L 693.438063 303.239693 
L 697.364766 305.22 
" clip-path="url(#p4dc9b39114)" style="fill: none; stroke: #ff7f0e; stroke-width: 1.5; stroke-linecap: round"/>
   </g>
   <g id="line2d_43">
    <path d="M 402.862083 292.929182 
L 406.788786 274.912843 
L 410.715488 274.946812 
L 414.64219 275.061248 
L 418.568893 275.054706 
L 422.495595 275.064619 
L 426.422298 275.001327 
L 430.349 290.446805 
L 434.275703 290.305504 
L 438.202405 195.524295 
L 442.129108 194.512934 
L 446.05581 194.493649 
L 449.982512 199.505756 
L 453.909215 282.4443 
L 457.835917 282.54162 
L 461.76262 282.42874 
L 465.689322 298.022425 
L 469.616025 298.062469 
L 473.542727 298.073024 
L 477.469429 269.877409 
L 481.396132 270.320007 
L 485.322834 267.567885 
L 489.249537 265.747701 
L 493.176239 295.630017 
L 497.102942 295.662061 
L 501.029644 295.629051 
L 504.956347 300.971788 
L 508.883049 300.763287 
L 512.809751 301.038723 
L 516.736454 300.150852 
L 520.663156 293.470259 
L 524.589859 293.406759 
L 528.516561 293.450194 
L 532.443264 292.549025 
L 536.369966 300.445929 
L 540.296668 300.471144 
L 544.223371 299.987562 
L 548.150073 301.798922 
L 552.076776 301.821054 
L 556.003478 301.671951 
L 559.930181 301.744729 
L 563.856883 301.752583 
L 567.783585 297.529259 
L 571.710288 298.000987 
L 575.63699 297.897149 
L 579.563693 298.045756 
L 583.490395 297.973544 
L 587.417098 296.807279 
L 591.3438 300.531544 
L 595.270503 300.750124 
L 599.197205 300.312291 
L 603.123907 299.787349 
L 607.05061 294.420601 
L 610.977312 294.367495 
L 614.904015 295.148915 
L 618.830717 294.684182 
L 622.75742 300.378737 
L 626.684122 300.926047 
L 630.610824 300.666924 
L 634.537527 301.117178 
L 638.464229 300.435965 
L 642.390932 301.370441 
L 646.317634 301.484267 
L 650.244337 296.911779 
L 654.171039 297.12025 
L 658.097742 296.36263 
L 662.024444 298.294255 
L 665.951146 295.461401 
L 669.877849 299.615853 
L 673.804551 301.175694 
L 677.731254 301.73171 
L 681.657956 298.764137 
L 685.584659 298.54108 
L 689.511361 291.473596 
L 693.438063 300.921876 
L 697.364766 305.22 
" clip-path="url(#p4dc9b39114)" style="fill: none; stroke: #2ca02c; stroke-width: 1.5; stroke-linecap: round"/>
   </g>
   <g id="line2d_44">
    <path d="M 402.862083 271.674295 
L 406.788786 229.574416 
L 410.715488 227.238098 
L 414.64219 230.392727 
L 418.568893 228.779278 
L 422.495595 226.919887 
L 426.422298 229.793029 
L 430.349 251.629921 
L 434.275703 252.093273 
L 438.202405 95.597187 
L 442.129108 77.659482 
L 446.05581 86.714342 
L 449.982512 75.664893 
L 453.909215 229.098424 
L 457.835917 227.818285 
L 461.76262 227.935308 
L 465.689322 252.175457 
L 469.616025 252.322869 
L 473.542727 246.018635 
L 477.469429 198.987818 
L 481.396132 195.750776 
L 485.322834 192.986334 
L 489.249537 187.637144 
L 493.176239 237.056443 
L 497.102942 237.906544 
L 501.029644 239.049866 
L 504.956347 245.161904 
L 508.883049 245.617932 
L 512.809751 243.216867 
L 516.736454 235.761428 
L 520.663156 230.681514 
L 524.589859 229.800475 
L 528.516561 229.959994 
L 532.443264 228.62067 
L 536.369966 238.934722 
L 540.296668 238.933747 
L 544.223371 237.731089 
L 548.150073 241.284897 
L 552.076776 241.159507 
L 556.003478 239.590197 
L 559.930181 237.542343 
L 563.856883 236.282905 
L 567.783585 227.645749 
L 571.710288 228.615401 
L 575.63699 229.234209 
L 579.563693 229.129867 
L 583.490395 228.663189 
L 587.417098 226.083654 
L 591.3438 229.876762 
L 595.270503 231.268149 
L 599.197205 224.338667 
L 603.123907 218.342972 
L 607.05061 214.681494 
L 610.977312 214.887878 
L 614.904015 216.221657 
L 618.830717 215.302252 
L 622.75742 222.693412 
L 626.684122 223.105353 
L 630.610824 223.038202 
L 634.537527 221.99735 
L 638.464229 216.499721 
L 642.390932 220.719215 
L 646.317634 218.639169 
L 650.244337 210.544339 
L 654.171039 210.035473 
L 658.097742 208.919478 
L 662.024444 213.076445 
L 665.951146 207.209891 
L 669.877849 215.465868 
L 673.804551 216.027936 
L 677.731254 216.546931 
L 681.657956 209.655735 
L 685.584659 209.34239 
L 689.511361 200.732307 
L 693.438063 212.582784 
L 697.364766 219.167502 
" clip-path="url(#p4dc9b39114)" style="fill: none; stroke: #d62728; stroke-width: 1.5; stroke-linecap: round"/>
   </g>
   <g id="patch_6">
    <path d="M 388.136949 318.04 
L 388.136949 36 
" style="fill: none; stroke: #cccccc; stroke-width: 0.8; stroke-linejoin: miter; stroke-linecap: square"/>
   </g>
   <g id="patch_7">
    <path d="M 388.136949 318.04 
L 712.0899 318.04 
" style="fill: none; stroke: #cccccc; stroke-width: 0.8; stroke-linejoin: miter; stroke-linecap: square"/>
   </g>
   <g id="text_29">
    <!-- client_pu = CPU -->
    <g style="fill: #262626" transform="translate(513.844675 30) scale(0.1 -0.1)">
     <defs>
      <path id="ArialMT-43" d="M 3763 1606 
L 4369 1453 
Q 4178 706 3683 314 
Q 3188 -78 2472 -78 
Q 1731 -78 1267 223 
Q 803 525 561 1097 
Q 319 1669 319 2325 
Q 319 3041 592 3573 
Q 866 4106 1370 4382 
Q 1875 4659 2481 4659 
Q 3169 4659 3637 4309 
Q 4106 3959 4291 3325 
L 3694 3184 
Q 3534 3684 3231 3912 
Q 2928 4141 2469 4141 
Q 1941 4141 1586 3887 
Q 1231 3634 1087 3207 
Q 944 2781 944 2328 
Q 944 1744 1114 1308 
Q 1284 872 1643 656 
Q 2003 441 2422 441 
Q 2931 441 3284 734 
Q 3638 1028 3763 1606 
z
" transform="scale(0.015625)"/>
     </defs>
     <use xlink:href="#ArialMT-63"/>
     <use xlink:href="#ArialMT-6c" x="50"/>
     <use xlink:href="#ArialMT-69" x="72.216797"/>
     <use xlink:href="#ArialMT-65" x="94.433594"/>
     <use xlink:href="#ArialMT-6e" x="150.048828"/>
     <use xlink:href="#ArialMT-74" x="205.664062"/>
     <use xlink:href="#ArialMT-5f" x="233.447266"/>
     <use xlink:href="#ArialMT-70" x="289.0625"/>
     <use xlink:href="#ArialMT-75" x="344.677734"/>
     <use xlink:href="#ArialMT-20" x="400.292969"/>
     <use xlink:href="#ArialMT-3d" x="428.076172"/>
     <use xlink:href="#ArialMT-20" x="486.474609"/>
     <use xlink:href="#ArialMT-43" x="514.257812"/>
     <use xlink:href="#ArialMT-50" x="586.474609"/>
     <use xlink:href="#ArialMT-55" x="653.173828"/>
    </g>
   </g>
  </g>
  <g id="text_30">
   <!-- MobileNetV2 latency -->
   <g style="fill: #262626" transform="translate(340.479375 15.825) scale(0.12 -0.12)">
    <defs>
     <path id="ArialMT-4d" d="M 475 0 
L 475 4581 
L 1388 4581 
L 2472 1338 
Q 2622 884 2691 659 
Q 2769 909 2934 1394 
L 4031 4581 
L 4847 4581 
L 4847 0 
L 4263 0 
L 4263 3834 
L 2931 0 
L 2384 0 
L 1059 3900 
L 1059 0 
L 475 0 
z
" transform="scale(0.015625)"/>
     <path id="ArialMT-4e" d="M 488 0 
L 488 4581 
L 1109 4581 
L 3516 984 
L 3516 4581 
L 4097 4581 
L 4097 0 
L 3475 0 
L 1069 3600 
L 1069 0 
L 488 0 
z
" transform="scale(0.015625)"/>
     <path id="ArialMT-56" d="M 1803 0 
L 28 4581 
L 684 4581 
L 1875 1253 
Q 2019 853 2116 503 
Q 2222 878 2363 1253 
L 3600 4581 
L 4219 4581 
L 2425 0 
L 1803 0 
z
" transform="scale(0.015625)"/>
    </defs>
    <use xlink:href="#ArialMT-4d"/>
    <use xlink:href="#ArialMT-6f" x="83.300781"/>
    <use xlink:href="#ArialMT-62" x="138.916016"/>
    <use xlink:href="#ArialMT-69" x="194.53125"/>
    <use xlink:href="#ArialMT-6c" x="216.748047"/>
    <use xlink:href="#ArialMT-65" x="238.964844"/>
    <use xlink:href="#ArialMT-4e" x="294.580078"/>
    <use xlink:href="#ArialMT-65" x="366.796875"/>
    <use xlink:href="#ArialMT-74" x="422.412109"/>
    <use xlink:href="#ArialMT-56" x="450.195312"/>
    <use xlink:href="#ArialMT-32" x="516.894531"/>
    <use xlink:href="#ArialMT-20" x="572.509766"/>
    <use xlink:href="#ArialMT-6c" x="600.292969"/>
    <use xlink:href="#ArialMT-61" x="622.509766"/>
    <use xlink:href="#ArialMT-74" x="678.125"/>
    <use xlink:href="#ArialMT-65" x="705.908203"/>
    <use xlink:href="#ArialMT-6e" x="761.523438"/>
    <use xlink:href="#ArialMT-63" x="817.138672"/>
    <use xlink:href="#ArialMT-79" x="867.138672"/>
   </g>
  </g>
  <g id="legend_1">
   <g id="text_31">
    <!-- variable -->
    <g style="fill: #262626" transform="translate(732.995156 154.294531) scale(0.1 -0.1)">
     <defs>
      <path id="ArialMT-76" d="M 1344 0 
L 81 3319 
L 675 3319 
L 1388 1331 
Q 1503 1009 1600 663 
Q 1675 925 1809 1294 
L 2547 3319 
L 3125 3319 
L 1869 0 
L 1344 0 
z
" transform="scale(0.015625)"/>
     </defs>
     <use xlink:href="#ArialMT-76"/>
     <use xlink:href="#ArialMT-61" x="50"/>
     <use xlink:href="#ArialMT-72" x="105.615234"/>
     <use xlink:href="#ArialMT-69" x="138.916016"/>
     <use xlink:href="#ArialMT-61" x="161.132812"/>
     <use xlink:href="#ArialMT-62" x="216.748047"/>
     <use xlink:href="#ArialMT-6c" x="272.363281"/>
     <use xlink:href="#ArialMT-65" x="294.580078"/>
    </g>
   </g>
   <g id="line2d_45">
    <path d="M 718.9975 164.939844 
L 728.9975 164.939844 
L 738.9975 164.939844 
" style="fill: none; stroke: #1f77b4; stroke-width: 1.5; stroke-linecap: round"/>
   </g>
   <g id="text_32">
    <!-- client -->
    <g style="fill: #262626" transform="translate(746.9975 168.439844) scale(0.1 -0.1)">
     <use xlink:href="#ArialMT-63"/>
     <use xlink:href="#ArialMT-6c" x="50"/>
     <use xlink:href="#ArialMT-69" x="72.216797"/>
     <use xlink:href="#ArialMT-65" x="94.433594"/>
     <use xlink:href="#ArialMT-6e" x="150.048828"/>
     <use xlink:href="#ArialMT-74" x="205.664062"/>
    </g>
   </g>
   <g id="line2d_46">
    <path d="M 718.9975 179.085156 
L 728.9975 179.085156 
L 738.9975 179.085156 
" style="fill: none; stroke: #ff7f0e; stroke-width: 1.5; stroke-linecap: round"/>
   </g>
   <g id="text_33">
    <!-- server -->
    <g style="fill: #262626" transform="translate(746.9975 182.585156) scale(0.1 -0.1)">
     <use xlink:href="#ArialMT-73"/>
     <use xlink:href="#ArialMT-65" x="50"/>
     <use xlink:href="#ArialMT-72" x="105.615234"/>
     <use xlink:href="#ArialMT-76" x="138.916016"/>
     <use xlink:href="#ArialMT-65" x="188.916016"/>
     <use xlink:href="#ArialMT-72" x="244.53125"/>
    </g>
   </g>
   <g id="line2d_47">
    <path d="M 718.9975 193.230469 
L 728.9975 193.230469 
L 738.9975 193.230469 
" style="fill: none; stroke: #2ca02c; stroke-width: 1.5; stroke-linecap: round"/>
   </g>
   <g id="text_34">
    <!-- network -->
    <g style="fill: #262626" transform="translate(746.9975 196.730469) scale(0.1 -0.1)">
     <defs>
      <path id="ArialMT-77" d="M 1034 0 
L 19 3319 
L 600 3319 
L 1128 1403 
L 1325 691 
Q 1338 744 1497 1375 
L 2025 3319 
L 2603 3319 
L 3100 1394 
L 3266 759 
L 3456 1400 
L 4025 3319 
L 4572 3319 
L 3534 0 
L 2950 0 
L 2422 1988 
L 2294 2553 
L 1622 0 
L 1034 0 
z
" transform="scale(0.015625)"/>
      <path id="ArialMT-6b" d="M 425 0 
L 425 4581 
L 988 4581 
L 988 1969 
L 2319 3319 
L 3047 3319 
L 1778 2088 
L 3175 0 
L 2481 0 
L 1384 1697 
L 988 1316 
L 988 0 
L 425 0 
z
" transform="scale(0.015625)"/>
     </defs>
     <use xlink:href="#ArialMT-6e"/>
     <use xlink:href="#ArialMT-65" x="55.615234"/>
     <use xlink:href="#ArialMT-74" x="111.230469"/>
     <use xlink:href="#ArialMT-77" x="139.013672"/>
     <use xlink:href="#ArialMT-6f" x="211.230469"/>
     <use xlink:href="#ArialMT-72" x="266.845703"/>
     <use xlink:href="#ArialMT-6b" x="300.146484"/>
    </g>
   </g>
   <g id="line2d_48">
    <path d="M 718.9975 207.375781 
L 728.9975 207.375781 
L 738.9975 207.375781 
" style="fill: none; stroke: #d62728; stroke-width: 1.5; stroke-linecap: round"/>
   </g>
   <g id="text_35">
    <!-- total -->
    <g style="fill: #262626" transform="translate(746.9975 210.875781) scale(0.1 -0.1)">
     <use xlink:href="#ArialMT-74"/>
     <use xlink:href="#ArialMT-6f" x="27.783203"/>
     <use xlink:href="#ArialMT-74" x="83.398438"/>
     <use xlink:href="#ArialMT-61" x="111.181641"/>
     <use xlink:href="#ArialMT-6c" x="166.796875"/>
    </g>
   </g>
  </g>
 </g>
 <defs>
  <clipPath id="pf3a60d932b">
   <rect x="53.415148" y="36" width="323.952951" height="282.04"/>
  </clipPath>
  <clipPath id="p4dc9b39114">
   <rect x="388.136949" y="36" width="323.952951" height="282.04"/>
  </clipPath>
 </defs>
</svg>
