<?xml version="1.0" encoding="utf-8" standalone="no"?>
<!DOCTYPE svg PUBLIC "-//W3C//DTD SVG 1.1//EN"
  "http://www.w3.org/Graphics/SVG/1.1/DTD/svg11.dtd">
<svg xmlns:xlink="http://www.w3.org/1999/xlink" width="791.01pt" height="360pt" viewBox="0 0 791.01 360" xmlns="http://www.w3.org/2000/svg" version="1.1">
 <metadata>
  <rdf:RDF xmlns:dc="http://purl.org/dc/elements/1.1/" xmlns:cc="http://creativecommons.org/ns#" xmlns:rdf="http://www.w3.org/1999/02/22-rdf-syntax-ns#">
   <cc:Work>
    <dc:type rdf:resource="http://purl.org/dc/dcmitype/StillImage"/>
    <dc:date>2023-12-04T17:01:38.738681</dc:date>
    <dc:format>image/svg+xml</dc:format>
    <dc:creator>
     <cc:Agent>
      <dc:title>Matplotlib v3.8.0, https://matplotlib.org/</dc:title>
     </cc:Agent>
    </dc:creator>
   </cc:Work>
  </rdf:RDF>
 </metadata>
 <defs>
  <style type="text/css">*{stroke-linejoin: round; stroke-linecap: butt}</style>
 </defs>
 <g id="figure_1">
  <g id="patch_1">
   <path d="M 0 360 
L 791.01 360 
L 791.01 0 
L 0 0 
z
" style="fill: #ffffff"/>
  </g>
  <g id="axes_1">
   <g id="patch_2">
    <path d="M 53.415148 318.04 
L 377.368098 318.04 
L 377.368098 36 
L 53.415148 36 
z
" style="fill: #ffffff"/>
   </g>
   <g id="matplotlib.axis_1">
    <g id="xtick_1">
     <g id="line2d_1">
      <path d="M 68.140282 318.04 
L 68.140282 36 
" clip-path="url(#pc6704f90c8)" style="fill: none; stroke: #cccccc; stroke-width: 0.8; stroke-linecap: round"/>
     </g>
     <g id="text_1">
      <!-- 0 -->
      <g style="fill: #262626" transform="translate(65.359813 332.197812) scale(0.1 -0.1)">
       <defs>
        <path id="ArialMT-30" d="M 266 2259 
Q 266 3072 433 3567 
Q 600 4063 929 4331 
Q 1259 4600 1759 4600 
Q 2128 4600 2406 4451 
Q 2684 4303 2865 4023 
Q 3047 3744 3150 3342 
Q 3253 2941 3253 2259 
Q 3253 1453 3087 958 
Q 2922 463 2592 192 
Q 2263 -78 1759 -78 
Q 1097 -78 719 397 
Q 266 969 266 2259 
z
M 844 2259 
Q 844 1131 1108 757 
Q 1372 384 1759 384 
Q 2147 384 2411 759 
Q 2675 1134 2675 2259 
Q 2675 3391 2411 3762 
Q 2147 4134 1753 4134 
Q 1366 4134 1134 3806 
Q 844 3388 844 2259 
z
" transform="scale(0.015625)"/>
       </defs>
       <use xlink:href="#ArialMT-30"/>
      </g>
     </g>
    </g>
    <g id="xtick_2">
     <g id="line2d_2">
      <path d="M 107.407306 318.04 
L 107.407306 36 
" clip-path="url(#pc6704f90c8)" style="fill: none; stroke: #cccccc; stroke-width: 0.8; stroke-linecap: round"/>
     </g>
     <g id="text_2">
      <!-- 10 -->
      <g style="fill: #262626" transform="translate(101.846368 332.197812) scale(0.1 -0.1)">
       <defs>
        <path id="ArialMT-31" d="M 2384 0 
L 1822 0 
L 1822 3584 
Q 1619 3391 1289 3197 
Q 959 3003 697 2906 
L 697 3450 
Q 1169 3672 1522 3987 
Q 1875 4303 2022 4600 
L 2384 4600 
L 2384 0 
z
" transform="scale(0.015625)"/>
       </defs>
       <use xlink:href="#ArialMT-31"/>
       <use xlink:href="#ArialMT-30" x="55.615234"/>
      </g>
     </g>
    </g>
    <g id="xtick_3">
     <g id="line2d_3">
      <path d="M 146.67433 318.04 
L 146.67433 36 
" clip-path="url(#pc6704f90c8)" style="fill: none; stroke: #cccccc; stroke-width: 0.8; stroke-linecap: round"/>
     </g>
     <g id="text_3">
      <!-- 20 -->
      <g style="fill: #262626" transform="translate(141.113393 332.197812) scale(0.1 -0.1)">
       <defs>
        <path id="ArialMT-32" d="M 3222 541 
L 3222 0 
L 194 0 
Q 188 203 259 391 
Q 375 700 629 1000 
Q 884 1300 1366 1694 
Q 2113 2306 2375 2664 
Q 2638 3022 2638 3341 
Q 2638 3675 2398 3904 
Q 2159 4134 1775 4134 
Q 1369 4134 1125 3890 
Q 881 3647 878 3216 
L 300 3275 
Q 359 3922 746 4261 
Q 1134 4600 1788 4600 
Q 2447 4600 2831 4234 
Q 3216 3869 3216 3328 
Q 3216 3053 3103 2787 
Q 2991 2522 2730 2228 
Q 2469 1934 1863 1422 
Q 1356 997 1212 845 
Q 1069 694 975 541 
L 3222 541 
z
" transform="scale(0.015625)"/>
       </defs>
       <use xlink:href="#ArialMT-32"/>
       <use xlink:href="#ArialMT-30" x="55.615234"/>
      </g>
     </g>
    </g>
    <g id="xtick_4">
     <g id="line2d_4">
      <path d="M 185.941355 318.04 
L 185.941355 36 
" clip-path="url(#pc6704f90c8)" style="fill: none; stroke: #cccccc; stroke-width: 0.8; stroke-linecap: round"/>
     </g>
     <g id="text_4">
      <!-- 30 -->
      <g style="fill: #262626" transform="translate(180.380417 332.197812) scale(0.1 -0.1)">
       <defs>
        <path id="ArialMT-33" d="M 269 1209 
L 831 1284 
Q 928 806 1161 595 
Q 1394 384 1728 384 
Q 2125 384 2398 659 
Q 2672 934 2672 1341 
Q 2672 1728 2419 1979 
Q 2166 2231 1775 2231 
Q 1616 2231 1378 2169 
L 1441 2663 
Q 1497 2656 1531 2656 
Q 1891 2656 2178 2843 
Q 2466 3031 2466 3422 
Q 2466 3731 2256 3934 
Q 2047 4138 1716 4138 
Q 1388 4138 1169 3931 
Q 950 3725 888 3313 
L 325 3413 
Q 428 3978 793 4289 
Q 1159 4600 1703 4600 
Q 2078 4600 2393 4439 
Q 2709 4278 2876 4000 
Q 3044 3722 3044 3409 
Q 3044 3113 2884 2869 
Q 2725 2625 2413 2481 
Q 2819 2388 3044 2092 
Q 3269 1797 3269 1353 
Q 3269 753 2831 336 
Q 2394 -81 1725 -81 
Q 1122 -81 723 278 
Q 325 638 269 1209 
z
" transform="scale(0.015625)"/>
       </defs>
       <use xlink:href="#ArialMT-33"/>
       <use xlink:href="#ArialMT-30" x="55.615234"/>
      </g>
     </g>
    </g>
    <g id="xtick_5">
     <g id="line2d_5">
      <path d="M 225.208379 318.04 
L 225.208379 36 
" clip-path="url(#pc6704f90c8)" style="fill: none; stroke: #cccccc; stroke-width: 0.8; stroke-linecap: round"/>
     </g>
     <g id="text_5">
      <!-- 40 -->
      <g style="fill: #262626" transform="translate(219.647442 332.197812) scale(0.1 -0.1)">
       <defs>
        <path id="ArialMT-34" d="M 2069 0 
L 2069 1097 
L 81 1097 
L 81 1613 
L 2172 4581 
L 2631 4581 
L 2631 1613 
L 3250 1613 
L 3250 1097 
L 2631 1097 
L 2631 0 
L 2069 0 
z
M 2069 1613 
L 2069 3678 
L 634 1613 
L 2069 1613 
z
" transform="scale(0.015625)"/>
       </defs>
       <use xlink:href="#ArialMT-34"/>
       <use xlink:href="#ArialMT-30" x="55.615234"/>
      </g>
     </g>
    </g>
    <g id="xtick_6">
     <g id="line2d_6">
      <path d="M 264.475403 318.04 
L 264.475403 36 
" clip-path="url(#pc6704f90c8)" style="fill: none; stroke: #cccccc; stroke-width: 0.8; stroke-linecap: round"/>
     </g>
     <g id="text_6">
      <!-- 50 -->
      <g style="fill: #262626" transform="translate(258.914466 332.197812) scale(0.1 -0.1)">
       <defs>
        <path id="ArialMT-35" d="M 266 1200 
L 856 1250 
Q 922 819 1161 601 
Q 1400 384 1738 384 
Q 2144 384 2425 690 
Q 2706 997 2706 1503 
Q 2706 1984 2436 2262 
Q 2166 2541 1728 2541 
Q 1456 2541 1237 2417 
Q 1019 2294 894 2097 
L 366 2166 
L 809 4519 
L 3088 4519 
L 3088 3981 
L 1259 3981 
L 1013 2750 
Q 1425 3038 1878 3038 
Q 2478 3038 2890 2622 
Q 3303 2206 3303 1553 
Q 3303 931 2941 478 
Q 2500 -78 1738 -78 
Q 1113 -78 717 272 
Q 322 622 266 1200 
z
" transform="scale(0.015625)"/>
       </defs>
       <use xlink:href="#ArialMT-35"/>
       <use xlink:href="#ArialMT-30" x="55.615234"/>
      </g>
     </g>
    </g>
    <g id="xtick_7">
     <g id="line2d_7">
      <path d="M 303.742428 318.04 
L 303.742428 36 
" clip-path="url(#pc6704f90c8)" style="fill: none; stroke: #cccccc; stroke-width: 0.8; stroke-linecap: round"/>
     </g>
     <g id="text_7">
      <!-- 60 -->
      <g style="fill: #262626" transform="translate(298.18149 332.197812) scale(0.1 -0.1)">
       <defs>
        <path id="ArialMT-36" d="M 3184 3459 
L 2625 3416 
Q 2550 3747 2413 3897 
Q 2184 4138 1850 4138 
Q 1581 4138 1378 3988 
Q 1113 3794 959 3422 
Q 806 3050 800 2363 
Q 1003 2672 1297 2822 
Q 1591 2972 1913 2972 
Q 2475 2972 2870 2558 
Q 3266 2144 3266 1488 
Q 3266 1056 3080 686 
Q 2894 316 2569 119 
Q 2244 -78 1831 -78 
Q 1128 -78 684 439 
Q 241 956 241 2144 
Q 241 3472 731 4075 
Q 1159 4600 1884 4600 
Q 2425 4600 2770 4297 
Q 3116 3994 3184 3459 
z
M 888 1484 
Q 888 1194 1011 928 
Q 1134 663 1356 523 
Q 1578 384 1822 384 
Q 2178 384 2434 671 
Q 2691 959 2691 1453 
Q 2691 1928 2437 2201 
Q 2184 2475 1800 2475 
Q 1419 2475 1153 2201 
Q 888 1928 888 1484 
z
" transform="scale(0.015625)"/>
       </defs>
       <use xlink:href="#ArialMT-36"/>
       <use xlink:href="#ArialMT-30" x="55.615234"/>
      </g>
     </g>
    </g>
    <g id="xtick_8">
     <g id="line2d_8">
      <path d="M 343.009452 318.04 
L 343.009452 36 
" clip-path="url(#pc6704f90c8)" style="fill: none; stroke: #cccccc; stroke-width: 0.8; stroke-linecap: round"/>
     </g>
     <g id="text_8">
      <!-- 70 -->
      <g style="fill: #262626" transform="translate(337.448515 332.197812) scale(0.1 -0.1)">
       <defs>
        <path id="ArialMT-37" d="M 303 3981 
L 303 4522 
L 3269 4522 
L 3269 4084 
Q 2831 3619 2401 2847 
Q 1972 2075 1738 1259 
Q 1569 684 1522 0 
L 944 0 
Q 953 541 1156 1306 
Q 1359 2072 1739 2783 
Q 2119 3494 2547 3981 
L 303 3981 
z
" transform="scale(0.015625)"/>
       </defs>
       <use xlink:href="#ArialMT-37"/>
       <use xlink:href="#ArialMT-30" x="55.615234"/>
      </g>
     </g>
    </g>
    <g id="text_9">
     <!-- offload to cloud before layer -->
     <g style="fill: #262626" transform="translate(153.77756 345.465) scale(0.1 -0.1)">
      <defs>
       <path id="ArialMT-6f" d="M 213 1659 
Q 213 2581 725 3025 
Q 1153 3394 1769 3394 
Q 2453 3394 2887 2945 
Q 3322 2497 3322 1706 
Q 3322 1066 3130 698 
Q 2938 331 2570 128 
Q 2203 -75 1769 -75 
Q 1072 -75 642 372 
Q 213 819 213 1659 
z
M 791 1659 
Q 791 1022 1069 705 
Q 1347 388 1769 388 
Q 2188 388 2466 706 
Q 2744 1025 2744 1678 
Q 2744 2294 2464 2611 
Q 2184 2928 1769 2928 
Q 1347 2928 1069 2612 
Q 791 2297 791 1659 
z
" transform="scale(0.015625)"/>
       <path id="ArialMT-66" d="M 556 0 
L 556 2881 
L 59 2881 
L 59 3319 
L 556 3319 
L 556 3672 
Q 556 4006 616 4169 
Q 697 4388 901 4523 
Q 1106 4659 1475 4659 
Q 1713 4659 2000 4603 
L 1916 4113 
Q 1741 4144 1584 4144 
Q 1328 4144 1222 4034 
Q 1116 3925 1116 3625 
L 1116 3319 
L 1763 3319 
L 1763 2881 
L 1116 2881 
L 1116 0 
L 556 0 
z
" transform="scale(0.015625)"/>
       <path id="ArialMT-6c" d="M 409 0 
L 409 4581 
L 972 4581 
L 972 0 
L 409 0 
z
" transform="scale(0.015625)"/>
       <path id="ArialMT-61" d="M 2588 409 
Q 2275 144 1986 34 
Q 1697 -75 1366 -75 
Q 819 -75 525 192 
Q 231 459 231 875 
Q 231 1119 342 1320 
Q 453 1522 633 1644 
Q 813 1766 1038 1828 
Q 1203 1872 1538 1913 
Q 2219 1994 2541 2106 
Q 2544 2222 2544 2253 
Q 2544 2597 2384 2738 
Q 2169 2928 1744 2928 
Q 1347 2928 1158 2789 
Q 969 2650 878 2297 
L 328 2372 
Q 403 2725 575 2942 
Q 747 3159 1072 3276 
Q 1397 3394 1825 3394 
Q 2250 3394 2515 3294 
Q 2781 3194 2906 3042 
Q 3031 2891 3081 2659 
Q 3109 2516 3109 2141 
L 3109 1391 
Q 3109 606 3145 398 
Q 3181 191 3288 0 
L 2700 0 
Q 2613 175 2588 409 
z
M 2541 1666 
Q 2234 1541 1622 1453 
Q 1275 1403 1131 1340 
Q 988 1278 909 1158 
Q 831 1038 831 891 
Q 831 666 1001 516 
Q 1172 366 1500 366 
Q 1825 366 2078 508 
Q 2331 650 2450 897 
Q 2541 1088 2541 1459 
L 2541 1666 
z
" transform="scale(0.015625)"/>
       <path id="ArialMT-64" d="M 2575 0 
L 2575 419 
Q 2259 -75 1647 -75 
Q 1250 -75 917 144 
Q 584 363 401 755 
Q 219 1147 219 1656 
Q 219 2153 384 2558 
Q 550 2963 881 3178 
Q 1213 3394 1622 3394 
Q 1922 3394 2156 3267 
Q 2391 3141 2538 2938 
L 2538 4581 
L 3097 4581 
L 3097 0 
L 2575 0 
z
M 797 1656 
Q 797 1019 1065 703 
Q 1334 388 1700 388 
Q 2069 388 2326 689 
Q 2584 991 2584 1609 
Q 2584 2291 2321 2609 
Q 2059 2928 1675 2928 
Q 1300 2928 1048 2622 
Q 797 2316 797 1656 
z
" transform="scale(0.015625)"/>
       <path id="ArialMT-20" transform="scale(0.015625)"/>
       <path id="ArialMT-74" d="M 1650 503 
L 1731 6 
Q 1494 -44 1306 -44 
Q 1000 -44 831 53 
Q 663 150 594 308 
Q 525 466 525 972 
L 525 2881 
L 113 2881 
L 113 3319 
L 525 3319 
L 525 4141 
L 1084 4478 
L 1084 3319 
L 1650 3319 
L 1650 2881 
L 1084 2881 
L 1084 941 
Q 1084 700 1114 631 
Q 1144 563 1211 522 
Q 1278 481 1403 481 
Q 1497 481 1650 503 
z
" transform="scale(0.015625)"/>
       <path id="ArialMT-63" d="M 2588 1216 
L 3141 1144 
Q 3050 572 2676 248 
Q 2303 -75 1759 -75 
Q 1078 -75 664 370 
Q 250 816 250 1647 
Q 250 2184 428 2587 
Q 606 2991 970 3192 
Q 1334 3394 1763 3394 
Q 2303 3394 2647 3120 
Q 2991 2847 3088 2344 
L 2541 2259 
Q 2463 2594 2264 2762 
Q 2066 2931 1784 2931 
Q 1359 2931 1093 2626 
Q 828 2322 828 1663 
Q 828 994 1084 691 
Q 1341 388 1753 388 
Q 2084 388 2306 591 
Q 2528 794 2588 1216 
z
" transform="scale(0.015625)"/>
       <path id="ArialMT-75" d="M 2597 0 
L 2597 488 
Q 2209 -75 1544 -75 
Q 1250 -75 995 37 
Q 741 150 617 320 
Q 494 491 444 738 
Q 409 903 409 1263 
L 409 3319 
L 972 3319 
L 972 1478 
Q 972 1038 1006 884 
Q 1059 663 1231 536 
Q 1403 409 1656 409 
Q 1909 409 2131 539 
Q 2353 669 2445 892 
Q 2538 1116 2538 1541 
L 2538 3319 
L 3100 3319 
L 3100 0 
L 2597 0 
z
" transform="scale(0.015625)"/>
       <path id="ArialMT-62" d="M 941 0 
L 419 0 
L 419 4581 
L 981 4581 
L 981 2947 
Q 1338 3394 1891 3394 
Q 2197 3394 2470 3270 
Q 2744 3147 2920 2923 
Q 3097 2700 3197 2384 
Q 3297 2069 3297 1709 
Q 3297 856 2875 390 
Q 2453 -75 1863 -75 
Q 1275 -75 941 416 
L 941 0 
z
M 934 1684 
Q 934 1088 1097 822 
Q 1363 388 1816 388 
Q 2184 388 2453 708 
Q 2722 1028 2722 1663 
Q 2722 2313 2464 2622 
Q 2206 2931 1841 2931 
Q 1472 2931 1203 2611 
Q 934 2291 934 1684 
z
" transform="scale(0.015625)"/>
       <path id="ArialMT-65" d="M 2694 1069 
L 3275 997 
Q 3138 488 2766 206 
Q 2394 -75 1816 -75 
Q 1088 -75 661 373 
Q 234 822 234 1631 
Q 234 2469 665 2931 
Q 1097 3394 1784 3394 
Q 2450 3394 2872 2941 
Q 3294 2488 3294 1666 
Q 3294 1616 3291 1516 
L 816 1516 
Q 847 969 1125 678 
Q 1403 388 1819 388 
Q 2128 388 2347 550 
Q 2566 713 2694 1069 
z
M 847 1978 
L 2700 1978 
Q 2663 2397 2488 2606 
Q 2219 2931 1791 2931 
Q 1403 2931 1139 2672 
Q 875 2413 847 1978 
z
" transform="scale(0.015625)"/>
       <path id="ArialMT-72" d="M 416 0 
L 416 3319 
L 922 3319 
L 922 2816 
Q 1116 3169 1280 3281 
Q 1444 3394 1641 3394 
Q 1925 3394 2219 3213 
L 2025 2691 
Q 1819 2813 1613 2813 
Q 1428 2813 1281 2702 
Q 1134 2591 1072 2394 
Q 978 2094 978 1738 
L 978 0 
L 416 0 
z
" transform="scale(0.015625)"/>
       <path id="ArialMT-79" d="M 397 -1278 
L 334 -750 
Q 519 -800 656 -800 
Q 844 -800 956 -737 
Q 1069 -675 1141 -563 
Q 1194 -478 1313 -144 
Q 1328 -97 1363 -6 
L 103 3319 
L 709 3319 
L 1400 1397 
Q 1534 1031 1641 628 
Q 1738 1016 1872 1384 
L 2581 3319 
L 3144 3319 
L 1881 -56 
Q 1678 -603 1566 -809 
Q 1416 -1088 1222 -1217 
Q 1028 -1347 759 -1347 
Q 597 -1347 397 -1278 
z
" transform="scale(0.015625)"/>
      </defs>
      <use xlink:href="#ArialMT-6f"/>
      <use xlink:href="#ArialMT-66" x="55.615234"/>
      <use xlink:href="#ArialMT-66" x="81.648438"/>
      <use xlink:href="#ArialMT-6c" x="109.431641"/>
      <use xlink:href="#ArialMT-6f" x="131.648438"/>
      <use xlink:href="#ArialMT-61" x="187.263672"/>
      <use xlink:href="#ArialMT-64" x="242.878906"/>
      <use xlink:href="#ArialMT-20" x="298.494141"/>
      <use xlink:href="#ArialMT-74" x="326.277344"/>
      <use xlink:href="#ArialMT-6f" x="354.060547"/>
      <use xlink:href="#ArialMT-20" x="409.675781"/>
      <use xlink:href="#ArialMT-63" x="437.458984"/>
      <use xlink:href="#ArialMT-6c" x="487.458984"/>
      <use xlink:href="#ArialMT-6f" x="509.675781"/>
      <use xlink:href="#ArialMT-75" x="565.291016"/>
      <use xlink:href="#ArialMT-64" x="620.90625"/>
      <use xlink:href="#ArialMT-20" x="676.521484"/>
      <use xlink:href="#ArialMT-62" x="704.304688"/>
      <use xlink:href="#ArialMT-65" x="759.919922"/>
      <use xlink:href="#ArialMT-66" x="815.535156"/>
      <use xlink:href="#ArialMT-6f" x="843.318359"/>
      <use xlink:href="#ArialMT-72" x="898.933594"/>
      <use xlink:href="#ArialMT-65" x="932.234375"/>
      <use xlink:href="#ArialMT-20" x="987.849609"/>
      <use xlink:href="#ArialMT-6c" x="1015.632812"/>
      <use xlink:href="#ArialMT-61" x="1037.849609"/>
      <use xlink:href="#ArialMT-79" x="1093.464844"/>
      <use xlink:href="#ArialMT-65" x="1143.464844"/>
      <use xlink:href="#ArialMT-72" x="1199.080078"/>
     </g>
    </g>
   </g>
   <g id="matplotlib.axis_2">
    <g id="ytick_1">
     <g id="line2d_9">
      <path d="M 53.415148 305.22 
L 377.368098 305.22 
" clip-path="url(#pc6704f90c8)" style="fill: none; stroke: #cccccc; stroke-width: 0.8; stroke-linecap: round"/>
     </g>
     <g id="text_10">
      <!-- 0 -->
      <g style="fill: #262626" transform="translate(40.85421 308.798906) scale(0.1 -0.1)">
       <use xlink:href="#ArialMT-30"/>
      </g>
     </g>
    </g>
    <g id="ytick_2">
     <g id="line2d_10">
      <path d="M 53.415148 270.39473 
L 377.368098 270.39473 
" clip-path="url(#pc6704f90c8)" style="fill: none; stroke: #cccccc; stroke-width: 0.8; stroke-linecap: round"/>
     </g>
     <g id="text_11">
      <!-- 25 -->
      <g style="fill: #262626" transform="translate(35.293273 273.973637) scale(0.1 -0.1)">
       <use xlink:href="#ArialMT-32"/>
       <use xlink:href="#ArialMT-35" x="55.615234"/>
      </g>
     </g>
    </g>
    <g id="ytick_3">
     <g id="line2d_11">
      <path d="M 53.415148 235.569461 
L 377.368098 235.569461 
" clip-path="url(#pc6704f90c8)" style="fill: none; stroke: #cccccc; stroke-width: 0.8; stroke-linecap: round"/>
     </g>
     <g id="text_12">
      <!-- 50 -->
      <g style="fill: #262626" transform="translate(35.293273 239.148367) scale(0.1 -0.1)">
       <use xlink:href="#ArialMT-35"/>
       <use xlink:href="#ArialMT-30" x="55.615234"/>
      </g>
     </g>
    </g>
    <g id="ytick_4">
     <g id="line2d_12">
      <path d="M 53.415148 200.744191 
L 377.368098 200.744191 
" clip-path="url(#pc6704f90c8)" style="fill: none; stroke: #cccccc; stroke-width: 0.8; stroke-linecap: round"/>
     </g>
     <g id="text_13">
      <!-- 75 -->
      <g style="fill: #262626" transform="translate(35.293273 204.323098) scale(0.1 -0.1)">
       <use xlink:href="#ArialMT-37"/>
       <use xlink:href="#ArialMT-35" x="55.615234"/>
      </g>
     </g>
    </g>
    <g id="ytick_5">
     <g id="line2d_13">
      <path d="M 53.415148 165.918922 
L 377.368098 165.918922 
" clip-path="url(#pc6704f90c8)" style="fill: none; stroke: #cccccc; stroke-width: 0.8; stroke-linecap: round"/>
     </g>
     <g id="text_14">
      <!-- 100 -->
      <g style="fill: #262626" transform="translate(29.732335 169.497828) scale(0.1 -0.1)">
       <use xlink:href="#ArialMT-31"/>
       <use xlink:href="#ArialMT-30" x="55.615234"/>
       <use xlink:href="#ArialMT-30" x="111.230469"/>
      </g>
     </g>
    </g>
    <g id="ytick_6">
     <g id="line2d_14">
      <path d="M 53.415148 131.093652 
L 377.368098 131.093652 
" clip-path="url(#pc6704f90c8)" style="fill: none; stroke: #cccccc; stroke-width: 0.8; stroke-linecap: round"/>
     </g>
     <g id="text_15">
      <!-- 125 -->
      <g style="fill: #262626" transform="translate(29.732335 134.672558) scale(0.1 -0.1)">
       <use xlink:href="#ArialMT-31"/>
       <use xlink:href="#ArialMT-32" x="55.615234"/>
       <use xlink:href="#ArialMT-35" x="111.230469"/>
      </g>
     </g>
    </g>
    <g id="ytick_7">
     <g id="line2d_15">
      <path d="M 53.415148 96.268383 
L 377.368098 96.268383 
" clip-path="url(#pc6704f90c8)" style="fill: none; stroke: #cccccc; stroke-width: 0.8; stroke-linecap: round"/>
     </g>
     <g id="text_16">
      <!-- 150 -->
      <g style="fill: #262626" transform="translate(29.732335 99.847289) scale(0.1 -0.1)">
       <use xlink:href="#ArialMT-31"/>
       <use xlink:href="#ArialMT-35" x="55.615234"/>
       <use xlink:href="#ArialMT-30" x="111.230469"/>
      </g>
     </g>
    </g>
    <g id="ytick_8">
     <g id="line2d_16">
      <path d="M 53.415148 61.443113 
L 377.368098 61.443113 
" clip-path="url(#pc6704f90c8)" style="fill: none; stroke: #cccccc; stroke-width: 0.8; stroke-linecap: round"/>
     </g>
     <g id="text_17">
      <!-- 175 -->
      <g style="fill: #262626" transform="translate(29.732335 65.022019) scale(0.1 -0.1)">
       <use xlink:href="#ArialMT-31"/>
       <use xlink:href="#ArialMT-37" x="55.615234"/>
       <use xlink:href="#ArialMT-35" x="111.230469"/>
      </g>
     </g>
    </g>
    <g id="text_18">
     <!-- ms -->
     <g style="fill: #262626" transform="translate(23.744835 183.684844) rotate(-90) scale(0.1 -0.1)">
      <defs>
       <path id="ArialMT-6d" d="M 422 0 
L 422 3319 
L 925 3319 
L 925 2853 
Q 1081 3097 1340 3245 
Q 1600 3394 1931 3394 
Q 2300 3394 2536 3241 
Q 2772 3088 2869 2813 
Q 3263 3394 3894 3394 
Q 4388 3394 4653 3120 
Q 4919 2847 4919 2278 
L 4919 0 
L 4359 0 
L 4359 2091 
Q 4359 2428 4304 2576 
Q 4250 2725 4106 2815 
Q 3963 2906 3769 2906 
Q 3419 2906 3187 2673 
Q 2956 2441 2956 1928 
L 2956 0 
L 2394 0 
L 2394 2156 
Q 2394 2531 2256 2718 
Q 2119 2906 1806 2906 
Q 1569 2906 1367 2781 
Q 1166 2656 1075 2415 
Q 984 2175 984 1722 
L 984 0 
L 422 0 
z
" transform="scale(0.015625)"/>
       <path id="ArialMT-73" d="M 197 991 
L 753 1078 
Q 800 744 1014 566 
Q 1228 388 1613 388 
Q 2000 388 2187 545 
Q 2375 703 2375 916 
Q 2375 1106 2209 1216 
Q 2094 1291 1634 1406 
Q 1016 1563 777 1677 
Q 538 1791 414 1992 
Q 291 2194 291 2438 
Q 291 2659 392 2848 
Q 494 3038 669 3163 
Q 800 3259 1026 3326 
Q 1253 3394 1513 3394 
Q 1903 3394 2198 3281 
Q 2494 3169 2634 2976 
Q 2775 2784 2828 2463 
L 2278 2388 
Q 2241 2644 2061 2787 
Q 1881 2931 1553 2931 
Q 1166 2931 1000 2803 
Q 834 2675 834 2503 
Q 834 2394 903 2306 
Q 972 2216 1119 2156 
Q 1203 2125 1616 2013 
Q 2213 1853 2448 1751 
Q 2684 1650 2818 1456 
Q 2953 1263 2953 975 
Q 2953 694 2789 445 
Q 2625 197 2315 61 
Q 2006 -75 1616 -75 
Q 969 -75 630 194 
Q 291 463 197 991 
z
" transform="scale(0.015625)"/>
      </defs>
      <use xlink:href="#ArialMT-6d"/>
      <use xlink:href="#ArialMT-73" x="83.300781"/>
     </g>
    </g>
   </g>
   <g id="PolyCollection_1">
    <defs>
     <path id="m7f666faa78" d="M 68.140282 -59.418016 
L 68.140282 -58.988521 
L 72.066984 -77.851883 
L 75.993687 -78.616891 
L 79.920389 -78.097098 
L 83.847091 -78.408114 
L 87.773794 -78.060351 
L 91.700496 -78.500337 
L 95.627199 -71.64235 
L 99.553901 -71.472422 
L 103.480604 -105.779611 
L 107.407306 -103.025998 
L 111.334008 -103.422176 
L 115.260711 -103.198991 
L 119.187413 -75.042225 
L 123.114116 -74.827788 
L 127.040818 -75.151724 
L 130.967521 -67.887563 
L 134.894223 -68.403655 
L 138.820925 -67.902917 
L 142.747628 -79.81004 
L 146.67433 -80.468705 
L 150.601033 -80.862485 
L 154.527735 -80.981597 
L 158.454438 -69.157004 
L 162.38114 -70.172316 
L 166.307843 -69.52241 
L 170.234545 -66.186373 
L 174.161247 -66.177121 
L 178.08795 -66.221137 
L 182.014652 -66.482244 
L 185.941355 -71.555644 
L 189.868057 -70.440589 
L 193.79476 -70.861285 
L 197.721462 -71.188226 
L 201.648164 -66.774711 
L 205.574867 -67.176248 
L 209.501569 -66.745501 
L 213.428272 -65.548398 
L 217.354974 -65.83625 
L 221.281677 -65.899593 
L 225.208379 -66.012938 
L 229.135082 -66.161357 
L 233.061784 -68.74545 
L 236.988486 -68.42264 
L 240.915189 -68.425201 
L 244.841891 -68.735141 
L 248.768594 -68.669475 
L 252.695296 -68.748796 
L 256.621999 -66.642332 
L 260.548701 -66.346899 
L 264.475403 -66.576598 
L 268.402106 -66.784441 
L 272.328808 -70.468659 
L 276.255511 -70.539303 
L 280.182213 -70.607032 
L 284.108916 -70.95548 
L 288.035618 -67.332343 
L 291.96232 -67.351956 
L 295.889023 -67.441257 
L 299.815725 -66.399002 
L 303.742428 -66.423032 
L 307.66913 -66.665887 
L 311.595833 -66.631004 
L 315.522535 -68.342042 
L 319.449238 -68.240146 
L 323.37594 -68.256166 
L 327.302642 -68.395067 
L 331.229345 -68.397087 
L 335.156047 -68.347732 
L 339.08275 -67.157753 
L 343.009452 -67.320394 
L 346.936155 -69.239829 
L 350.862857 -69.204811 
L 354.789559 -69.389661 
L 358.716262 -66.872967 
L 362.642964 -66.262003 
L 362.642964 -67.019608 
L 362.642964 -67.019608 
L 358.716262 -67.401209 
L 354.789559 -70.728346 
L 350.862857 -70.390334 
L 346.936155 -70.314891 
L 343.009452 -67.904871 
L 339.08275 -67.865912 
L 335.156047 -69.193865 
L 331.229345 -69.33748 
L 327.302642 -69.281875 
L 323.37594 -69.218775 
L 319.449238 -69.244514 
L 315.522535 -69.349686 
L 311.595833 -67.313051 
L 307.66913 -67.261432 
L 303.742428 -67.077844 
L 299.815725 -67.029404 
L 295.889023 -68.097301 
L 291.96232 -68.033403 
L 288.035618 -68.185118 
L 284.108916 -75.917016 
L 280.182213 -75.330558 
L 276.255511 -72.734984 
L 272.328808 -74.158041 
L 268.402106 -67.603725 
L 264.475403 -67.301963 
L 260.548701 -67.154807 
L 256.621999 -67.19993 
L 252.695296 -70.255414 
L 248.768594 -70.107262 
L 244.841891 -71.082388 
L 240.915189 -70.051798 
L 236.988486 -71.266824 
L 233.061784 -70.091258 
L 229.135082 -66.709107 
L 225.208379 -66.608417 
L 221.281677 -66.580445 
L 217.354974 -66.529689 
L 213.428272 -66.344051 
L 209.501569 -67.531461 
L 205.574867 -67.791675 
L 201.648164 -67.782302 
L 197.721462 -78.153776 
L 193.79476 -77.47623 
L 189.868057 -74.103251 
L 185.941355 -76.501565 
L 182.014652 -67.13559 
L 178.08795 -66.832622 
L 174.161247 -66.754135 
L 170.234545 -66.879909 
L 166.307843 -72.739513 
L 162.38114 -72.815958 
L 158.454438 -71.893901 
L 154.527735 -83.648216 
L 150.601033 -82.629602 
L 146.67433 -85.192519 
L 142.747628 -83.580582 
L 138.820925 -69.509265 
L 134.894223 -69.930845 
L 130.967521 -69.156675 
L 127.040818 -79.967131 
L 123.114116 -76.262633 
L 119.187413 -83.552314 
L 115.260711 -114.570453 
L 111.334008 -111.691063 
L 107.407306 -109.837099 
L 103.480604 -111.504713 
L 99.553901 -79.757465 
L 95.627199 -80.898008 
L 91.700496 -82.483215 
L 87.773794 -80.91715 
L 83.847091 -79.858971 
L 79.920389 -82.983194 
L 75.993687 -82.039063 
L 72.066984 -81.167151 
L 68.140282 -59.418016 
z
" style="stroke: #1f77b4; stroke-opacity: 0.2"/>
    </defs>
    <g clip-path="url(#pc6704f90c8)">
     <use xlink:href="#m7f666faa78" x="0" y="360" style="fill: #1f77b4; fill-opacity: 0.2; stroke: #1f77b4; stroke-opacity: 0.2"/>
    </g>
   </g>
   <g id="PolyCollection_2">
    <defs>
     <path id="m804f54ecef" d="M 68.140282 -178.183273 
L 68.140282 -170.812957 
L 72.066984 -168.142486 
L 75.993687 -165.772209 
L 79.920389 -172.218645 
L 83.847091 -168.681547 
L 87.773794 -169.994877 
L 91.700496 -171.410281 
L 95.627199 -176.67419 
L 99.553901 -171.176429 
L 103.480604 -184.459448 
L 107.407306 -182.120374 
L 111.334008 -178.921081 
L 115.260711 -178.263754 
L 119.187413 -177.098919 
L 123.114116 -171.166121 
L 127.040818 -172.6043 
L 130.967521 -175.506011 
L 134.894223 -173.707042 
L 138.820925 -175.77333 
L 142.747628 -170.881285 
L 146.67433 -171.251791 
L 150.601033 -177.581945 
L 154.527735 -168.348269 
L 158.454438 -190.420525 
L 162.38114 -177.512086 
L 166.307843 -173.985331 
L 170.234545 -172.577032 
L 174.161247 -168.62499 
L 178.08795 -167.252457 
L 182.014652 -174.734387 
L 185.941355 -168.037941 
L 189.868057 -164.260827 
L 193.79476 -166.318547 
L 197.721462 -163.81576 
L 201.648164 -209.258 
L 205.574867 -198.839255 
L 209.501569 -174.958314 
L 213.428272 -180.964001 
L 217.354974 -162.871682 
L 221.281677 -163.67726 
L 225.208379 -155.39891 
L 229.135082 -155.322991 
L 233.061784 -156.552253 
L 236.988486 -154.089724 
L 240.915189 -157.244824 
L 244.841891 -152.936346 
L 248.768594 -152.535542 
L 252.695296 -153.744153 
L 256.621999 -152.1541 
L 260.548701 -154.56575 
L 264.475403 -158.729738 
L 268.402106 -149.422546 
L 272.328808 -153.473525 
L 276.255511 -151.230674 
L 280.182213 -151.045821 
L 284.108916 -152.579212 
L 288.035618 -159.742248 
L 291.96232 -152.497617 
L 295.889023 -148.951429 
L 299.815725 -149.68983 
L 303.742428 -146.751064 
L 307.66913 -144.456149 
L 311.595833 -143.893825 
L 315.522535 -141.588462 
L 319.449238 -141.383863 
L 323.37594 -140.610603 
L 327.302642 -143.999659 
L 331.229345 -141.558791 
L 335.156047 -141.305437 
L 339.08275 -141.454907 
L 343.009452 -143.195927 
L 346.936155 -139.090968 
L 350.862857 -137.829422 
L 354.789559 -135.95544 
L 358.716262 -141.09356 
L 362.642964 -54.78 
L 362.642964 -54.78 
L 362.642964 -54.78 
L 358.716262 -150.687608 
L 354.789559 -150.921913 
L 350.862857 -151.731391 
L 346.936155 -151.482878 
L 343.009452 -155.814306 
L 339.08275 -155.7278 
L 335.156047 -155.007161 
L 331.229345 -156.335884 
L 327.302642 -155.52658 
L 323.37594 -155.158198 
L 319.449238 -152.844651 
L 315.522535 -154.054481 
L 311.595833 -156.981301 
L 307.66913 -157.94011 
L 303.742428 -158.848875 
L 299.815725 -160.26804 
L 295.889023 -161.484591 
L 291.96232 -162.31594 
L 288.035618 -176.246292 
L 284.108916 -173.009492 
L 280.182213 -165.176557 
L 276.255511 -164.851115 
L 272.328808 -165.892077 
L 268.402106 -161.719557 
L 264.475403 -169.531771 
L 260.548701 -166.790743 
L 256.621999 -165.092524 
L 252.695296 -167.368878 
L 248.768594 -166.328925 
L 244.841891 -165.608704 
L 240.915189 -168.758893 
L 236.988486 -165.367678 
L 233.061784 -168.506654 
L 229.135082 -166.483271 
L 225.208379 -165.604943 
L 221.281677 -169.750439 
L 217.354974 -172.567176 
L 213.428272 -217.080104 
L 209.501569 -198.370611 
L 205.574867 -235.587437 
L 201.648164 -292.457868 
L 197.721462 -178.835899 
L 193.79476 -178.43492 
L 189.868057 -182.308048 
L 185.941355 -180.205263 
L 182.014652 -192.410719 
L 178.08795 -173.466504 
L 174.161247 -185.474675 
L 170.234545 -181.553523 
L 166.307843 -188.663311 
L 162.38114 -197.43611 
L 158.454438 -222.471195 
L 154.527735 -184.262546 
L 150.601033 -195.647867 
L 146.67433 -197.718438 
L 142.747628 -182.099514 
L 138.820925 -199.573615 
L 134.894223 -188.599476 
L 130.967521 -185.464192 
L 127.040818 -182.195736 
L 123.114116 -181.989466 
L 119.187413 -186.963664 
L 115.260711 -188.463936 
L 111.334008 -191.483148 
L 107.407306 -191.743885 
L 103.480604 -198.174092 
L 99.553901 -188.219568 
L 95.627199 -199.969718 
L 91.700496 -187.494471 
L 87.773794 -183.668183 
L 83.847091 -177.637074 
L 79.920389 -183.187212 
L 75.993687 -173.951237 
L 72.066984 -178.50485 
L 68.140282 -178.183273 
z
" style="stroke: #ff7f0e; stroke-opacity: 0.2"/>
    </defs>
    <g clip-path="url(#pc6704f90c8)">
     <use xlink:href="#m804f54ecef" x="0" y="360" style="fill: #ff7f0e; fill-opacity: 0.2; stroke: #ff7f0e; stroke-opacity: 0.2"/>
    </g>
   </g>
   <g id="PolyCollection_3">
    <defs>
     <path id="m995b853c34" d="M 68.140282 -68.483147 
L 68.140282 -65.859284 
L 72.066984 -63.044966 
L 75.993687 -62.756578 
L 79.920389 -62.977886 
L 83.847091 -62.9349 
L 87.773794 -63.080068 
L 91.700496 -63.077535 
L 95.627199 -60.197886 
L 99.553901 -60.251274 
L 103.480604 -75.749247 
L 107.407306 -75.50337 
L 111.334008 -75.29208 
L 115.260711 -76.012036 
L 119.187413 -61.724087 
L 123.114116 -61.763465 
L 127.040818 -61.757535 
L 130.967521 -58.421053 
L 134.894223 -58.525016 
L 138.820925 -58.628859 
L 142.747628 -63.732267 
L 146.67433 -63.990292 
L 150.601033 -64.041553 
L 154.527735 -64.049637 
L 158.454438 -58.989273 
L 162.38114 -58.926968 
L 166.307843 -58.986915 
L 170.234545 -57.975696 
L 174.161247 -57.878215 
L 178.08795 -58.118124 
L 182.014652 -57.866062 
L 185.941355 -59.561284 
L 189.868057 -59.48786 
L 193.79476 -59.54298 
L 197.721462 -59.75024 
L 201.648164 -58.275705 
L 205.574867 -58.066691 
L 209.501569 -57.897239 
L 213.428272 -57.866213 
L 217.354974 -57.959528 
L 221.281677 -57.96751 
L 225.208379 -57.936667 
L 229.135082 -57.931586 
L 233.061784 -58.972318 
L 236.988486 -58.678397 
L 240.915189 -58.996763 
L 244.841891 -58.81833 
L 248.768594 -58.774874 
L 252.695296 -58.709447 
L 256.621999 -57.805907 
L 260.548701 -57.893409 
L 264.475403 -57.81139 
L 268.402106 -57.833111 
L 272.328808 -59.012695 
L 276.255511 -59.171733 
L 280.182213 -59.615501 
L 284.108916 -59.220352 
L 288.035618 -57.837325 
L 291.96232 -57.963566 
L 295.889023 -57.91024 
L 299.815725 -57.743377 
L 303.742428 -57.878744 
L 307.66913 -57.880558 
L 311.595833 -58.094714 
L 315.522535 -58.169745 
L 319.449238 -58.120162 
L 323.37594 -58.234655 
L 327.302642 -58.562063 
L 331.229345 -58.366491 
L 335.156047 -58.330854 
L 339.08275 -58.070568 
L 343.009452 -57.671883 
L 346.936155 -58.754252 
L 350.862857 -58.759627 
L 354.789559 -58.681946 
L 358.716262 -57.564939 
L 362.642964 -54.78 
L 362.642964 -54.78 
L 362.642964 -54.78 
L 358.716262 -58.158908 
L 354.789559 -59.752888 
L 350.862857 -59.70905 
L 346.936155 -59.699979 
L 343.009452 -58.266879 
L 339.08275 -58.568602 
L 335.156047 -59.218291 
L 331.229345 -59.227489 
L 327.302642 -59.226388 
L 323.37594 -59.2014 
L 319.449238 -59.054758 
L 315.522535 -59.169478 
L 311.595833 -58.467475 
L 307.66913 -58.423464 
L 303.742428 -58.405663 
L 299.815725 -58.395915 
L 295.889023 -58.627623 
L 291.96232 -58.570143 
L 288.035618 -58.31705 
L 284.108916 -61.185598 
L 280.182213 -61.197526 
L 276.255511 -61.169365 
L 272.328808 -60.854513 
L 268.402106 -58.557479 
L 264.475403 -58.45242 
L 260.548701 -58.437258 
L 256.621999 -58.478151 
L 252.695296 -60.047549 
L 248.768594 -59.881355 
L 244.841891 -59.866588 
L 240.915189 -59.914968 
L 236.988486 -59.861767 
L 233.061784 -59.931215 
L 229.135082 -58.394498 
L 225.208379 -58.41237 
L 221.281677 -58.407995 
L 217.354974 -58.39067 
L 213.428272 -58.31051 
L 209.501569 -58.453683 
L 205.574867 -58.869314 
L 201.648164 -59.579699 
L 197.721462 -61.721459 
L 193.79476 -61.242308 
L 189.868057 -60.997346 
L 185.941355 -61.101254 
L 182.014652 -58.468305 
L 178.08795 -58.472803 
L 174.161247 -58.408528 
L 170.234545 -58.433856 
L 166.307843 -60.396424 
L 162.38114 -59.893194 
L 158.454438 -59.886554 
L 154.527735 -66.002317 
L 150.601033 -65.970398 
L 146.67433 -66.881046 
L 142.747628 -65.816174 
L 138.820925 -59.665801 
L 134.894223 -59.551284 
L 130.967521 -59.39826 
L 127.040818 -62.12775 
L 123.114116 -63.106764 
L 119.187413 -62.4175 
L 115.260711 -77.139863 
L 111.334008 -76.581225 
L 107.407306 -76.208181 
L 103.480604 -77.049899 
L 99.553901 -61.603971 
L 95.627199 -61.263831 
L 91.700496 -64.12894 
L 87.773794 -64.714876 
L 83.847091 -63.614329 
L 79.920389 -64.557233 
L 75.993687 -63.929374 
L 72.066984 -63.982125 
L 68.140282 -68.483147 
z
" style="stroke: #2ca02c; stroke-opacity: 0.2"/>
    </defs>
    <g clip-path="url(#pc6704f90c8)">
     <use xlink:href="#m995b853c34" x="0" y="360" style="fill: #2ca02c; fill-opacity: 0.2; stroke: #2ca02c; stroke-opacity: 0.2"/>
    </g>
   </g>
   <g id="PolyCollection_4">
    <defs>
     <path id="m28fd3b7912" d="M 68.140282 -194.847022 
L 68.140282 -187.109622 
L 72.066984 -200.879359 
L 75.993687 -200.579485 
L 79.920389 -205.989655 
L 83.847091 -202.656357 
L 87.773794 -204.010844 
L 91.700496 -205.909249 
L 95.627199 -203.669381 
L 99.553901 -198.610226 
L 103.480604 -260.041699 
L 107.407306 -256.418945 
L 111.334008 -253.191344 
L 115.260711 -253.28796 
L 119.187413 -206.373888 
L 123.114116 -200.656441 
L 127.040818 -203.556691 
L 130.967521 -194.035287 
L 134.894223 -192.985415 
L 138.820925 -194.484694 
L 142.747628 -207.976026 
L 146.67433 -212.831936 
L 150.601033 -216.672653 
L 154.527735 -205.95916 
L 158.454438 -212.577342 
L 162.38114 -199.678246 
L 166.307843 -196.305522 
L 170.234545 -187.616594 
L 174.161247 -184.253495 
L 178.08795 -182.241271 
L 182.014652 -190.458438 
L 185.941355 -191.320383 
L 189.868057 -188.533286 
L 193.79476 -188.748245 
L 197.721462 -187.645542 
L 201.648164 -225.111571 
L 205.574867 -214.809569 
L 209.501569 -191.26372 
L 213.428272 -196.209098 
L 217.354974 -177.892361 
L 221.281677 -178.758373 
L 225.208379 -170.583061 
L 229.135082 -169.878911 
L 233.061784 -176.703681 
L 236.988486 -173.239576 
L 240.915189 -176.456326 
L 244.841891 -172.775358 
L 248.768594 -171.757619 
L 252.695296 -172.178186 
L 256.621999 -167.680723 
L 260.548701 -169.099541 
L 264.475403 -174.434784 
L 268.402106 -165.295598 
L 272.328808 -175.558156 
L 276.255511 -173.685992 
L 280.182213 -173.922848 
L 284.108916 -175.091224 
L 288.035618 -175.554287 
L 291.96232 -168.957006 
L 295.889023 -164.949454 
L 299.815725 -164.333353 
L 303.742428 -162.542505 
L 307.66913 -159.058754 
L 311.595833 -159.584988 
L 315.522535 -159.924317 
L 319.449238 -158.888988 
L 323.37594 -158.39787 
L 327.302642 -162.499788 
L 331.229345 -159.535194 
L 335.156047 -159.224651 
L 339.08275 -158.659763 
L 343.009452 -159.228088 
L 346.936155 -158.679845 
L 350.862857 -156.755254 
L 354.789559 -155.395954 
L 358.716262 -156.50798 
L 362.642964 -66.262003 
L 362.642964 -67.019608 
L 362.642964 -67.019608 
L 358.716262 -166.407586 
L 354.789559 -171.218331 
L 350.862857 -171.455035 
L 346.936155 -171.734731 
L 343.009452 -172.324166 
L 339.08275 -172.23842 
L 335.156047 -173.332093 
L 331.229345 -174.859523 
L 327.302642 -174.977786 
L 323.37594 -174.320345 
L 319.449238 -171.324008 
L 315.522535 -173.968472 
L 311.595833 -172.528199 
L 307.66913 -173.269211 
L 303.742428 -174.651997 
L 299.815725 -175.833259 
L 295.889023 -178.046383 
L 291.96232 -178.934113 
L 288.035618 -192.843687 
L 284.108916 -197.645919 
L 280.182213 -191.252811 
L 276.255511 -188.861988 
L 272.328808 -190.165194 
L 268.402106 -177.820881 
L 264.475403 -184.727155 
L 260.548701 -182.478587 
L 256.621999 -180.803595 
L 252.695296 -187.585456 
L 248.768594 -185.68635 
L 244.841891 -186.465328 
L 240.915189 -188.535991 
L 236.988486 -186.85845 
L 233.061784 -188.78225 
L 229.135082 -181.497679 
L 225.208379 -180.74353 
L 221.281677 -184.451034 
L 217.354974 -187.741572 
L 213.428272 -232.319295 
L 209.501569 -213.169465 
L 205.574867 -253.787507 
L 201.648164 -311.18 
L 197.721462 -206.608527 
L 193.79476 -204.588495 
L 189.868057 -207.129455 
L 185.941355 -206.702552 
L 182.014652 -209.712607 
L 178.08795 -188.593024 
L 174.161247 -201.431845 
L 170.234545 -197.54519 
L 166.307843 -211.84805 
L 162.38114 -218.705415 
L 158.454438 -242.161494 
L 154.527735 -227.767493 
L 150.601033 -240.78009 
L 146.67433 -239.79128 
L 142.747628 -225.496097 
L 138.820925 -217.934258 
L 134.894223 -208.030837 
L 130.967521 -204.380062 
L 127.040818 -214.716059 
L 123.114116 -214.280094 
L 119.187413 -219.907507 
L 115.260711 -267.485981 
L 111.334008 -268.940285 
L 107.407306 -269.355908 
L 103.480604 -277.392141 
L 99.553901 -220.59079 
L 95.627199 -230.769288 
L 91.700496 -228.151024 
L 87.773794 -222.00337 
L 83.847091 -215.556693 
L 79.920389 -221.243959 
L 75.993687 -212.009458 
L 72.066984 -217.46493 
L 68.140282 -194.847022 
z
" style="stroke: #d62728; stroke-opacity: 0.2"/>
    </defs>
    <g clip-path="url(#pc6704f90c8)">
     <use xlink:href="#m28fd3b7912" x="0" y="360" style="fill: #d62728; fill-opacity: 0.2; stroke: #d62728; stroke-opacity: 0.2"/>
    </g>
   </g>
   <g id="line2d_17">
    <path d="M 68.140282 300.782311 
L 72.066984 281.176183 
L 75.993687 280.552036 
L 79.920389 280.787121 
L 83.847091 280.973607 
L 87.773794 280.828559 
L 91.700496 280.859881 
L 95.627199 285.351179 
L 99.553901 285.215187 
L 103.480604 252.634062 
L 107.407306 253.303238 
L 111.334008 252.720586 
L 115.260711 252.080658 
L 119.187413 284.210118 
L 123.114116 284.731444 
L 127.040818 284.203748 
L 130.967521 291.444194 
L 134.894223 291.043329 
L 138.820925 291.472976 
L 142.747628 279.022305 
L 146.67433 278.654172 
L 150.601033 278.720311 
L 154.527735 278.35245 
L 158.454438 289.713739 
L 162.38114 288.787231 
L 166.307843 289.058697 
L 170.234545 293.431886 
L 174.161247 293.547309 
L 178.08795 293.409929 
L 182.014652 293.157186 
L 185.941355 286.686457 
L 189.868057 288.249564 
L 193.79476 287.076985 
L 197.721462 286.894551 
L 201.648164 292.73818 
L 205.574867 292.534012 
L 209.501569 292.831251 
L 213.428272 293.922724 
L 217.354974 293.861726 
L 221.281677 293.756824 
L 225.208379 293.617883 
L 229.135082 293.587158 
L 233.061784 290.263076 
L 236.988486 290.960585 
L 240.915189 291.046125 
L 244.841891 290.116703 
L 248.768594 290.79675 
L 252.695296 290.510123 
L 256.621999 293.098026 
L 260.548701 293.19066 
L 264.475403 293.070783 
L 268.402106 292.709257 
L 272.328808 288.326974 
L 276.255511 288.210399 
L 280.182213 287.663513 
L 284.108916 287.052225 
L 288.035618 292.178168 
L 291.96232 292.30288 
L 295.889023 292.197849 
L 299.815725 293.184848 
L 303.742428 293.208039 
L 307.66913 292.961515 
L 311.595833 293.002001 
L 315.522535 291.145259 
L 319.449238 291.305752 
L 323.37594 291.242949 
L 327.302642 291.131069 
L 331.229345 291.127818 
L 335.156047 291.370189 
L 339.08275 292.451308 
L 343.009452 292.333688 
L 346.936155 290.174881 
L 350.862857 290.298329 
L 354.789559 289.981689 
L 358.716262 292.787937 
L 362.642964 293.262464 
" clip-path="url(#pc6704f90c8)" style="fill: none; stroke: #1f77b4; stroke-width: 1.5; stroke-linecap: round"/>
   </g>
   <g id="line2d_18">
    <path d="M 68.140282 186.505044 
L 72.066984 188.539745 
L 75.993687 190.140941 
L 79.920389 182.686105 
L 83.847091 186.519392 
L 87.773794 184.631584 
L 91.700496 181.338367 
L 95.627199 176.030648 
L 99.553901 180.741183 
L 103.480604 168.694705 
L 107.407306 171.909007 
L 111.334008 175.614486 
L 115.260711 177.661445 
L 119.187413 178.84244 
L 123.114116 183.102197 
L 127.040818 182.348021 
L 130.967521 179.613054 
L 134.894223 180.459168 
L 138.820925 178.216491 
L 142.747628 183.644357 
L 146.67433 173.52685 
L 150.601033 174.368716 
L 154.527735 186.002376 
L 158.454438 150.651384 
L 162.38114 172.190744 
L 166.307843 179.813717 
L 170.234545 184.565346 
L 174.161247 183.502409 
L 178.08795 189.538534 
L 182.014652 179.410719 
L 185.941355 187.929607 
L 189.868057 189.267106 
L 193.79476 188.225691 
L 197.721462 187.839966 
L 201.648164 112.673035 
L 205.574867 152.081728 
L 209.501569 176.091592 
L 213.428272 160.28287 
L 217.354974 191.039364 
L 221.281677 192.824716 
L 225.208379 197.511222 
L 229.135082 198.357546 
L 233.061784 195.529943 
L 236.988486 198.891557 
L 240.915189 196.888059 
L 244.841891 199.772497 
L 248.768594 198.894761 
L 252.695296 197.256928 
L 256.621999 200.890945 
L 260.548701 197.721288 
L 264.475403 197.416567 
L 268.402106 204.502883 
L 272.328808 200.835921 
L 276.255511 200.881333 
L 280.182213 198.464808 
L 284.108916 194.246632 
L 288.035618 193.513908 
L 291.96232 202.326025 
L 295.889023 204.124123 
L 299.815725 205.697598 
L 303.742428 206.177491 
L 307.66913 207.023954 
L 311.595833 206.851568 
L 315.522535 210.79351 
L 319.449238 214.586261 
L 323.37594 210.690149 
L 327.302642 209.822791 
L 331.229345 211.675356 
L 335.156047 211.854149 
L 339.08275 208.640473 
L 343.009452 209.259248 
L 346.936155 212.332857 
L 350.862857 213.181479 
L 354.789559 217.224623 
L 358.716262 213.201051 
L 362.642964 305.22 
" clip-path="url(#pc6704f90c8)" style="fill: none; stroke: #ff7f0e; stroke-width: 1.5; stroke-linecap: round"/>
   </g>
   <g id="line2d_19">
    <path d="M 68.140282 293.772125 
L 72.066984 296.823203 
L 75.993687 297.114774 
L 79.920389 296.836889 
L 83.847091 296.855612 
L 87.773794 296.755629 
L 91.700496 296.637362 
L 95.627199 299.685554 
L 99.553901 299.577116 
L 103.480604 283.910753 
L 107.407306 284.289858 
L 111.334008 284.467542 
L 115.260711 283.587747 
L 119.187413 298.104064 
L 123.114116 298.121873 
L 127.040818 298.093837 
L 130.967521 301.22749 
L 134.894223 301.039123 
L 138.820925 300.920155 
L 142.747628 296.054883 
L 146.67433 295.756785 
L 150.601033 295.672542 
L 154.527735 295.675933 
L 158.454438 300.799686 
L 162.38114 300.893692 
L 166.307843 300.535209 
L 170.234545 301.768395 
L 174.161247 301.849926 
L 178.08795 301.727094 
L 182.014652 301.955573 
L 185.941355 300.167285 
L 189.868057 300.233806 
L 193.79476 300.205 
L 197.721462 299.77856 
L 201.648164 301.424676 
L 205.574867 301.740771 
L 209.501569 301.944711 
L 213.428272 302.01277 
L 217.354974 301.769508 
L 221.281677 301.750675 
L 225.208379 301.765342 
L 229.135082 301.803993 
L 233.061784 300.436877 
L 236.988486 300.674763 
L 240.915189 300.45909 
L 244.841891 300.597528 
L 248.768594 300.541869 
L 252.695296 300.332318 
L 256.621999 301.740691 
L 260.548701 301.785415 
L 264.475403 301.745365 
L 268.402106 301.678517 
L 272.328808 300.343797 
L 276.255511 299.739092 
L 280.182213 299.094853 
L 284.108916 300.235587 
L 288.035618 302.007364 
L 291.96232 301.681152 
L 295.889023 301.692509 
L 299.815725 301.90941 
L 303.742428 301.842535 
L 307.66913 301.810302 
L 311.595833 301.687534 
L 315.522535 301.346167 
L 319.449238 301.436838 
L 323.37594 301.116087 
L 327.302642 301.160628 
L 331.229345 301.105433 
L 335.156047 301.136098 
L 339.08275 301.589277 
L 343.009452 302.047516 
L 346.936155 300.754641 
L 350.862857 300.583119 
L 354.789559 300.85814 
L 358.716262 302.083791 
L 362.642964 305.22 
" clip-path="url(#pc6704f90c8)" style="fill: none; stroke: #2ca02c; stroke-width: 1.5; stroke-linecap: round"/>
   </g>
   <g id="line2d_20">
    <path d="M 68.140282 169.671833 
L 72.066984 154.110692 
L 75.993687 155.569164 
L 79.920389 147.583455 
L 83.847091 152.575629 
L 87.773794 149.474669 
L 91.700496 146.019958 
L 95.627199 145.02291 
L 99.553901 152.500091 
L 103.480604 94.266172 
L 107.407306 98.662923 
L 111.334008 99.594669 
L 115.260711 100.360505 
L 119.187413 146.989422 
L 123.114116 153.795302 
L 127.040818 151.730734 
L 130.967521 161.735448 
L 134.894223 161.463622 
L 138.820925 158.459726 
L 142.747628 146.876443 
L 146.67433 134.173956 
L 150.601033 132.766451 
L 154.527735 146.246531 
L 158.454438 129.030928 
L 162.38114 148.67753 
L 166.307843 157.217132 
L 170.234545 169.418012 
L 174.161247 168.578405 
L 178.08795 174.141943 
L 182.014652 164.068759 
L 185.941355 163.609266 
L 189.868057 166.51889 
L 193.79476 161.980472 
L 197.721462 162.501826 
L 201.648164 95.67938 
L 205.574867 134.398972 
L 209.501569 158.872085 
L 213.428272 145.803774 
L 217.354974 176.387422 
L 221.281677 177.728536 
L 225.208379 182.425577 
L 229.135082 183.218386 
L 233.061784 176.841255 
L 236.988486 179.325888 
L 240.915189 177.486952 
L 244.841891 179.699571 
L 248.768594 179.509843 
L 252.695296 177.229244 
L 256.621999 185.656549 
L 260.548701 182.351234 
L 264.475403 181.645149 
L 268.402106 188.401179 
L 272.328808 177.937996 
L 276.255511 178.518706 
L 280.182213 175.625777 
L 284.108916 170.202433 
L 288.035618 177.224037 
L 291.96232 185.988622 
L 295.889023 187.710996 
L 299.815725 190.308129 
L 303.742428 190.700618 
L 307.66913 191.680725 
L 311.595833 191.601112 
L 315.522535 191.552201 
L 319.449238 196.321221 
L 323.37594 191.593389 
L 327.302642 190.899471 
L 331.229345 193.160172 
L 335.156047 193.566656 
L 339.08275 191.817043 
L 343.009452 193.183377 
L 346.936155 192.925668 
L 350.862857 193.795289 
L 354.789559 197.399794 
L 358.716262 197.573248 
L 362.642964 293.262464 
" clip-path="url(#pc6704f90c8)" style="fill: none; stroke: #d62728; stroke-width: 1.5; stroke-linecap: round"/>
   </g>
   <g id="line2d_21"/>
   <g id="line2d_22"/>
   <g id="line2d_23"/>
   <g id="line2d_24"/>
   <g id="patch_3">
    <path d="M 53.415148 318.04 
L 53.415148 36 
" style="fill: none; stroke: #cccccc; stroke-width: 0.8; stroke-linejoin: miter; stroke-linecap: square"/>
   </g>
   <g id="patch_4">
    <path d="M 53.415148 318.04 
L 377.368098 318.04 
" style="fill: none; stroke: #cccccc; stroke-width: 0.8; stroke-linejoin: miter; stroke-linecap: square"/>
   </g>
   <g id="text_19">
    <!-- client_pu = TPU -->
    <g style="fill: #262626" transform="translate(179.767404 30) scale(0.1 -0.1)">
     <defs>
      <path id="ArialMT-69" d="M 425 3934 
L 425 4581 
L 988 4581 
L 988 3934 
L 425 3934 
z
M 425 0 
L 425 3319 
L 988 3319 
L 988 0 
L 425 0 
z
" transform="scale(0.015625)"/>
      <path id="ArialMT-6e" d="M 422 0 
L 422 3319 
L 928 3319 
L 928 2847 
Q 1294 3394 1984 3394 
Q 2284 3394 2536 3286 
Q 2788 3178 2913 3003 
Q 3038 2828 3088 2588 
Q 3119 2431 3119 2041 
L 3119 0 
L 2556 0 
L 2556 2019 
Q 2556 2363 2490 2533 
Q 2425 2703 2258 2804 
Q 2091 2906 1866 2906 
Q 1506 2906 1245 2678 
Q 984 2450 984 1813 
L 984 0 
L 422 0 
z
" transform="scale(0.015625)"/>
      <path id="ArialMT-5f" d="M -97 -1272 
L -97 -866 
L 3631 -866 
L 3631 -1272 
L -97 -1272 
z
" transform="scale(0.015625)"/>
      <path id="ArialMT-70" d="M 422 -1272 
L 422 3319 
L 934 3319 
L 934 2888 
Q 1116 3141 1344 3267 
Q 1572 3394 1897 3394 
Q 2322 3394 2647 3175 
Q 2972 2956 3137 2557 
Q 3303 2159 3303 1684 
Q 3303 1175 3120 767 
Q 2938 359 2589 142 
Q 2241 -75 1856 -75 
Q 1575 -75 1351 44 
Q 1128 163 984 344 
L 984 -1272 
L 422 -1272 
z
M 931 1641 
Q 931 1000 1190 694 
Q 1450 388 1819 388 
Q 2194 388 2461 705 
Q 2728 1022 2728 1688 
Q 2728 2322 2467 2637 
Q 2206 2953 1844 2953 
Q 1484 2953 1207 2617 
Q 931 2281 931 1641 
z
" transform="scale(0.015625)"/>
      <path id="ArialMT-3d" d="M 3381 2694 
L 356 2694 
L 356 3219 
L 3381 3219 
L 3381 2694 
z
M 3381 1303 
L 356 1303 
L 356 1828 
L 3381 1828 
L 3381 1303 
z
" transform="scale(0.015625)"/>
      <path id="ArialMT-54" d="M 1659 0 
L 1659 4041 
L 150 4041 
L 150 4581 
L 3781 4581 
L 3781 4041 
L 2266 4041 
L 2266 0 
L 1659 0 
z
" transform="scale(0.015625)"/>
      <path id="ArialMT-50" d="M 494 0 
L 494 4581 
L 2222 4581 
Q 2678 4581 2919 4538 
Q 3256 4481 3484 4323 
Q 3713 4166 3852 3881 
Q 3991 3597 3991 3256 
Q 3991 2672 3619 2267 
Q 3247 1863 2275 1863 
L 1100 1863 
L 1100 0 
L 494 0 
z
M 1100 2403 
L 2284 2403 
Q 2872 2403 3119 2622 
Q 3366 2841 3366 3238 
Q 3366 3525 3220 3729 
Q 3075 3934 2838 4000 
Q 2684 4041 2272 4041 
L 1100 4041 
L 1100 2403 
z
" transform="scale(0.015625)"/>
      <path id="ArialMT-55" d="M 3500 4581 
L 4106 4581 
L 4106 1934 
Q 4106 1244 3950 837 
Q 3794 431 3386 176 
Q 2978 -78 2316 -78 
Q 1672 -78 1262 144 
Q 853 366 678 786 
Q 503 1206 503 1934 
L 503 4581 
L 1109 4581 
L 1109 1938 
Q 1109 1341 1220 1058 
Q 1331 775 1601 622 
Q 1872 469 2263 469 
Q 2931 469 3215 772 
Q 3500 1075 3500 1938 
L 3500 4581 
z
" transform="scale(0.015625)"/>
     </defs>
     <use xlink:href="#ArialMT-63"/>
     <use xlink:href="#ArialMT-6c" x="50"/>
     <use xlink:href="#ArialMT-69" x="72.216797"/>
     <use xlink:href="#ArialMT-65" x="94.433594"/>
     <use xlink:href="#ArialMT-6e" x="150.048828"/>
     <use xlink:href="#ArialMT-74" x="205.664062"/>
     <use xlink:href="#ArialMT-5f" x="233.447266"/>
     <use xlink:href="#ArialMT-70" x="289.0625"/>
     <use xlink:href="#ArialMT-75" x="344.677734"/>
     <use xlink:href="#ArialMT-20" x="400.292969"/>
     <use xlink:href="#ArialMT-3d" x="428.076172"/>
     <use xlink:href="#ArialMT-20" x="486.474609"/>
     <use xlink:href="#ArialMT-54" x="512.507812"/>
     <use xlink:href="#ArialMT-50" x="573.591797"/>
     <use xlink:href="#ArialMT-55" x="640.291016"/>
    </g>
   </g>
  </g>
  <g id="axes_2">
   <g id="patch_5">
    <path d="M 388.136949 318.04 
L 712.0899 318.04 
L 712.0899 36 
L 388.136949 36 
z
" style="fill: #ffffff"/>
   </g>
   <g id="matplotlib.axis_3">
    <g id="xtick_9">
     <g id="line2d_25">
      <path d="M 402.862083 318.04 
L 402.862083 36 
" clip-path="url(#p445d834333)" style="fill: none; stroke: #cccccc; stroke-width: 0.8; stroke-linecap: round"/>
     </g>
     <g id="text_20">
      <!-- 0 -->
      <g style="fill: #262626" transform="translate(400.081614 332.197812) scale(0.1 -0.1)">
       <use xlink:href="#ArialMT-30"/>
      </g>
     </g>
    </g>
    <g id="xtick_10">
     <g id="line2d_26">
      <path d="M 442.129108 318.04 
L 442.129108 36 
" clip-path="url(#p445d834333)" style="fill: none; stroke: #cccccc; stroke-width: 0.8; stroke-linecap: round"/>
     </g>
     <g id="text_21">
      <!-- 10 -->
      <g style="fill: #262626" transform="translate(436.56817 332.197812) scale(0.1 -0.1)">
       <use xlink:href="#ArialMT-31"/>
       <use xlink:href="#ArialMT-30" x="55.615234"/>
      </g>
     </g>
    </g>
    <g id="xtick_11">
     <g id="line2d_27">
      <path d="M 481.396132 318.04 
L 481.396132 36 
" clip-path="url(#p445d834333)" style="fill: none; stroke: #cccccc; stroke-width: 0.8; stroke-linecap: round"/>
     </g>
     <g id="text_22">
      <!-- 20 -->
      <g style="fill: #262626" transform="translate(475.835194 332.197812) scale(0.1 -0.1)">
       <use xlink:href="#ArialMT-32"/>
       <use xlink:href="#ArialMT-30" x="55.615234"/>
      </g>
     </g>
    </g>
    <g id="xtick_12">
     <g id="line2d_28">
      <path d="M 520.663156 318.04 
L 520.663156 36 
" clip-path="url(#p445d834333)" style="fill: none; stroke: #cccccc; stroke-width: 0.8; stroke-linecap: round"/>
     </g>
     <g id="text_23">
      <!-- 30 -->
      <g style="fill: #262626" transform="translate(515.102219 332.197812) scale(0.1 -0.1)">
       <use xlink:href="#ArialMT-33"/>
       <use xlink:href="#ArialMT-30" x="55.615234"/>
      </g>
     </g>
    </g>
    <g id="xtick_13">
     <g id="line2d_29">
      <path d="M 559.930181 318.04 
L 559.930181 36 
" clip-path="url(#p445d834333)" style="fill: none; stroke: #cccccc; stroke-width: 0.8; stroke-linecap: round"/>
     </g>
     <g id="text_24">
      <!-- 40 -->
      <g style="fill: #262626" transform="translate(554.369243 332.197812) scale(0.1 -0.1)">
       <use xlink:href="#ArialMT-34"/>
       <use xlink:href="#ArialMT-30" x="55.615234"/>
      </g>
     </g>
    </g>
    <g id="xtick_14">
     <g id="line2d_30">
      <path d="M 599.197205 318.04 
L 599.197205 36 
" clip-path="url(#p445d834333)" style="fill: none; stroke: #cccccc; stroke-width: 0.8; stroke-linecap: round"/>
     </g>
     <g id="text_25">
      <!-- 50 -->
      <g style="fill: #262626" transform="translate(593.636267 332.197812) scale(0.1 -0.1)">
       <use xlink:href="#ArialMT-35"/>
       <use xlink:href="#ArialMT-30" x="55.615234"/>
      </g>
     </g>
    </g>
    <g id="xtick_15">
     <g id="line2d_31">
      <path d="M 638.464229 318.04 
L 638.464229 36 
" clip-path="url(#p445d834333)" style="fill: none; stroke: #cccccc; stroke-width: 0.8; stroke-linecap: round"/>
     </g>
     <g id="text_26">
      <!-- 60 -->
      <g style="fill: #262626" transform="translate(632.903292 332.197812) scale(0.1 -0.1)">
       <use xlink:href="#ArialMT-36"/>
       <use xlink:href="#ArialMT-30" x="55.615234"/>
      </g>
     </g>
    </g>
    <g id="xtick_16">
     <g id="line2d_32">
      <path d="M 677.731254 318.04 
L 677.731254 36 
" clip-path="url(#p445d834333)" style="fill: none; stroke: #cccccc; stroke-width: 0.8; stroke-linecap: round"/>
     </g>
     <g id="text_27">
      <!-- 70 -->
      <g style="fill: #262626" transform="translate(672.170316 332.197812) scale(0.1 -0.1)">
       <use xlink:href="#ArialMT-37"/>
       <use xlink:href="#ArialMT-30" x="55.615234"/>
      </g>
     </g>
    </g>
    <g id="text_28">
     <!-- offload to cloud before layer -->
     <g style="fill: #262626" transform="translate(488.499362 345.465) scale(0.1 -0.1)">
      <use xlink:href="#ArialMT-6f"/>
      <use xlink:href="#ArialMT-66" x="55.615234"/>
      <use xlink:href="#ArialMT-66" x="81.648438"/>
      <use xlink:href="#ArialMT-6c" x="109.431641"/>
      <use xlink:href="#ArialMT-6f" x="131.648438"/>
      <use xlink:href="#ArialMT-61" x="187.263672"/>
      <use xlink:href="#ArialMT-64" x="242.878906"/>
      <use xlink:href="#ArialMT-20" x="298.494141"/>
      <use xlink:href="#ArialMT-74" x="326.277344"/>
      <use xlink:href="#ArialMT-6f" x="354.060547"/>
      <use xlink:href="#ArialMT-20" x="409.675781"/>
      <use xlink:href="#ArialMT-63" x="437.458984"/>
      <use xlink:href="#ArialMT-6c" x="487.458984"/>
      <use xlink:href="#ArialMT-6f" x="509.675781"/>
      <use xlink:href="#ArialMT-75" x="565.291016"/>
      <use xlink:href="#ArialMT-64" x="620.90625"/>
      <use xlink:href="#ArialMT-20" x="676.521484"/>
      <use xlink:href="#ArialMT-62" x="704.304688"/>
      <use xlink:href="#ArialMT-65" x="759.919922"/>
      <use xlink:href="#ArialMT-66" x="815.535156"/>
      <use xlink:href="#ArialMT-6f" x="843.318359"/>
      <use xlink:href="#ArialMT-72" x="898.933594"/>
      <use xlink:href="#ArialMT-65" x="932.234375"/>
      <use xlink:href="#ArialMT-20" x="987.849609"/>
      <use xlink:href="#ArialMT-6c" x="1015.632812"/>
      <use xlink:href="#ArialMT-61" x="1037.849609"/>
      <use xlink:href="#ArialMT-79" x="1093.464844"/>
      <use xlink:href="#ArialMT-65" x="1143.464844"/>
      <use xlink:href="#ArialMT-72" x="1199.080078"/>
     </g>
    </g>
   </g>
   <g id="matplotlib.axis_4">
    <g id="ytick_9">
     <g id="line2d_33">
      <path d="M 388.136949 305.22 
L 712.0899 305.22 
" clip-path="url(#p445d834333)" style="fill: none; stroke: #cccccc; stroke-width: 0.8; stroke-linecap: round"/>
     </g>
    </g>
    <g id="ytick_10">
     <g id="line2d_34">
      <path d="M 388.136949 270.39473 
L 712.0899 270.39473 
" clip-path="url(#p445d834333)" style="fill: none; stroke: #cccccc; stroke-width: 0.8; stroke-linecap: round"/>
     </g>
    </g>
    <g id="ytick_11">
     <g id="line2d_35">
      <path d="M 388.136949 235.569461 
L 712.0899 235.569461 
" clip-path="url(#p445d834333)" style="fill: none; stroke: #cccccc; stroke-width: 0.8; stroke-linecap: round"/>
     </g>
    </g>
    <g id="ytick_12">
     <g id="line2d_36">
      <path d="M 388.136949 200.744191 
L 712.0899 200.744191 
" clip-path="url(#p445d834333)" style="fill: none; stroke: #cccccc; stroke-width: 0.8; stroke-linecap: round"/>
     </g>
    </g>
    <g id="ytick_13">
     <g id="line2d_37">
      <path d="M 388.136949 165.918922 
L 712.0899 165.918922 
" clip-path="url(#p445d834333)" style="fill: none; stroke: #cccccc; stroke-width: 0.8; stroke-linecap: round"/>
     </g>
    </g>
    <g id="ytick_14">
     <g id="line2d_38">
      <path d="M 388.136949 131.093652 
L 712.0899 131.093652 
" clip-path="url(#p445d834333)" style="fill: none; stroke: #cccccc; stroke-width: 0.8; stroke-linecap: round"/>
     </g>
    </g>
    <g id="ytick_15">
     <g id="line2d_39">
      <path d="M 388.136949 96.268383 
L 712.0899 96.268383 
" clip-path="url(#p445d834333)" style="fill: none; stroke: #cccccc; stroke-width: 0.8; stroke-linecap: round"/>
     </g>
    </g>
    <g id="ytick_16">
     <g id="line2d_40">
      <path d="M 388.136949 61.443113 
L 712.0899 61.443113 
" clip-path="url(#p445d834333)" style="fill: none; stroke: #cccccc; stroke-width: 0.8; stroke-linecap: round"/>
     </g>
    </g>
   </g>
   <g id="PolyCollection_5">
    <defs>
     <path id="m3e07b7ef0f" d="M 402.862083 -59.444125 
L 402.862083 -58.876493 
L 406.788786 -68.632091 
L 410.715488 -68.302459 
L 414.64219 -68.428405 
L 418.568893 -69.817612 
L 422.495595 -69.813007 
L 426.422298 -69.970333 
L 430.349 -71.827385 
L 434.275703 -71.9307 
L 438.202405 -85.773614 
L 442.129108 -85.061911 
L 446.05581 -85.195872 
L 449.982512 -91.772423 
L 453.909215 -90.608279 
L 457.835917 -90.292111 
L 461.76262 -90.432129 
L 465.689322 -91.40911 
L 469.616025 -91.693828 
L 473.542727 -101.306672 
L 477.469429 -107.671818 
L 481.396132 -107.120573 
L 485.322834 -107.21609 
L 489.249537 -110.378663 
L 493.176239 -109.489454 
L 497.102942 -109.459019 
L 501.029644 -109.838179 
L 504.956347 -109.333251 
L 508.883049 -109.373687 
L 512.809751 -112.847644 
L 516.736454 -115.958166 
L 520.663156 -118.371278 
L 524.589859 -117.874676 
L 528.516561 -117.960165 
L 532.443264 -118.742589 
L 536.369966 -118.287286 
L 540.296668 -118.162876 
L 544.223371 -118.674488 
L 548.150073 -118.649421 
L 552.076776 -118.955735 
L 556.003478 -120.896015 
L 559.930181 -123.20722 
L 563.856883 -125.225674 
L 567.783585 -127.026088 
L 571.710288 -126.817097 
L 575.63699 -127.006878 
L 579.563693 -127.234143 
L 583.490395 -127.141483 
L 587.417098 -127.405506 
L 591.3438 -128.307474 
L 595.270503 -127.858395 
L 599.197205 -132.658175 
L 603.123907 -136.611125 
L 607.05061 -138.782547 
L 610.977312 -139.341394 
L 614.904015 -138.930316 
L 618.830717 -140.00679 
L 622.75742 -139.744833 
L 626.684122 -139.127242 
L 630.610824 -139.332381 
L 634.537527 -140.324604 
L 638.464229 -140.324529 
L 642.390932 -142.704972 
L 646.317634 -146.456846 
L 650.244337 -147.849085 
L 654.171039 -147.7494 
L 658.097742 -147.884371 
L 662.024444 -148.18323 
L 665.951146 -147.878425 
L 669.877849 -148.452179 
L 673.804551 -150.294487 
L 677.731254 -150.703762 
L 681.657956 -154.144928 
L 685.584659 -153.755618 
L 689.511361 -154.364893 
L 693.438063 -158.76974 
L 697.364766 -159.296486 
L 697.364766 -159.937849 
L 697.364766 -159.937849 
L 693.438063 -159.479282 
L 689.511361 -155.012201 
L 685.584659 -154.578851 
L 681.657956 -154.718395 
L 677.731254 -151.299563 
L 673.804551 -150.916366 
L 669.877849 -148.890945 
L 665.951146 -148.67228 
L 662.024444 -148.815728 
L 658.097742 -148.534665 
L 654.171039 -148.502432 
L 650.244337 -148.630098 
L 646.317634 -146.975807 
L 642.390932 -143.428861 
L 638.464229 -140.883 
L 634.537527 -140.943482 
L 630.610824 -139.965193 
L 626.684122 -139.775673 
L 622.75742 -140.460594 
L 618.830717 -140.559754 
L 614.904015 -139.384092 
L 610.977312 -139.957358 
L 607.05061 -139.465864 
L 603.123907 -137.202308 
L 599.197205 -133.209415 
L 595.270503 -128.447137 
L 591.3438 -128.847331 
L 587.417098 -128.106978 
L 583.490395 -127.842312 
L 579.563693 -127.924955 
L 575.63699 -127.641088 
L 571.710288 -127.408608 
L 567.783585 -127.593539 
L 563.856883 -125.944345 
L 559.930181 -123.828022 
L 556.003478 -121.422416 
L 552.076776 -119.494527 
L 548.150073 -119.539165 
L 544.223371 -119.300871 
L 540.296668 -119.040017 
L 536.369966 -119.191721 
L 532.443264 -119.640124 
L 528.516561 -118.637327 
L 524.589859 -118.465739 
L 520.663156 -118.883567 
L 516.736454 -116.886769 
L 512.809751 -113.50712 
L 508.883049 -110.124122 
L 504.956347 -110.053529 
L 501.029644 -110.389868 
L 497.102942 -109.899745 
L 493.176239 -110.047974 
L 489.249537 -110.959916 
L 485.322834 -108.20826 
L 481.396132 -107.781673 
L 477.469429 -108.220451 
L 473.542727 -101.882063 
L 469.616025 -92.273805 
L 465.689322 -92.070643 
L 461.76262 -91.173574 
L 457.835917 -91.089412 
L 453.909215 -91.21903 
L 449.982512 -92.45796 
L 446.05581 -85.975921 
L 442.129108 -86.102708 
L 438.202405 -86.482909 
L 434.275703 -72.463076 
L 430.349 -72.329765 
L 426.422298 -70.634936 
L 422.495595 -70.511165 
L 418.568893 -70.438831 
L 414.64219 -69.294512 
L 410.715488 -69.106358 
L 406.788786 -69.221716 
L 402.862083 -59.444125 
z
" style="stroke: #1f77b4; stroke-opacity: 0.2"/>
    </defs>
    <g clip-path="url(#p445d834333)">
     <use xlink:href="#m3e07b7ef0f" x="0" y="360" style="fill: #1f77b4; fill-opacity: 0.2; stroke: #1f77b4; stroke-opacity: 0.2"/>
    </g>
   </g>
   <g id="PolyCollection_6">
    <defs>
     <path id="mbff54823de" d="M 402.862083 -193.175308 
L 402.862083 -170.712591 
L 406.788786 -173.334516 
L 410.715488 -170.928473 
L 414.64219 -174.422945 
L 418.568893 -173.018059 
L 422.495595 -170.379313 
L 426.422298 -175.951391 
L 430.349 -169.767224 
L 434.275703 -175.763683 
L 438.202405 -190.064227 
L 442.129108 -181.327368 
L 446.05581 -178.492939 
L 449.982512 -175.238553 
L 453.909215 -170.251087 
L 457.835917 -166.224868 
L 461.76262 -164.930691 
L 465.689322 -165.879436 
L 469.616025 -170.949612 
L 473.542727 -171.151703 
L 477.469429 -165.994638 
L 481.396132 -181.97867 
L 485.322834 -164.573697 
L 489.249537 -165.593625 
L 493.176239 -160.714082 
L 497.102942 -160.408003 
L 501.029644 -159.152134 
L 504.956347 -155.633737 
L 508.883049 -155.707218 
L 512.809751 -152.495214 
L 516.736454 -152.384052 
L 520.663156 -153.712705 
L 524.589859 -152.984892 
L 528.516561 -154.840696 
L 532.443264 -156.576457 
L 536.369966 -154.106475 
L 540.296668 -152.719384 
L 544.223371 -153.045488 
L 548.150073 -162.492992 
L 552.076776 -166.528091 
L 556.003478 -159.514804 
L 559.930181 -152.70817 
L 563.856883 -162.575493 
L 567.783585 -156.148141 
L 571.710288 -156.56096 
L 575.63699 -156.037397 
L 579.563693 -167.611122 
L 583.490395 -166.755639 
L 587.417098 -166.943487 
L 591.3438 -154.628436 
L 595.270503 -152.693021 
L 599.197205 -160.56691 
L 603.123907 -157.297166 
L 607.05061 -159.971468 
L 610.977312 -165.021515 
L 614.904015 -160.896079 
L 618.830717 -154.166653 
L 622.75742 -158.144708 
L 626.684122 -158.847134 
L 630.610824 -158.715808 
L 634.537527 -152.706986 
L 638.464229 -149.576438 
L 642.390932 -147.093014 
L 646.317634 -144.000007 
L 650.244337 -143.984928 
L 654.171039 -141.270855 
L 658.097742 -148.167896 
L 662.024444 -156.636078 
L 665.951146 -157.558425 
L 669.877849 -149.683004 
L 673.804551 -145.628994 
L 677.731254 -146.798427 
L 681.657956 -140.048105 
L 685.584659 -139.512493 
L 689.511361 -139.15529 
L 693.438063 -138.261465 
L 697.364766 -54.78 
L 697.364766 -54.78 
L 697.364766 -54.78 
L 693.438063 -158.341924 
L 689.511361 -159.096901 
L 685.584659 -155.565758 
L 681.657956 -159.976552 
L 677.731254 -166.035139 
L 673.804551 -156.77207 
L 669.877849 -162.257468 
L 665.951146 -189.348847 
L 662.024444 -200.955691 
L 658.097742 -163.681787 
L 654.171039 -154.998594 
L 650.244337 -155.921394 
L 646.317634 -154.352028 
L 642.390932 -158.387998 
L 638.464229 -161.890201 
L 634.537527 -172.07499 
L 630.610824 -180.689474 
L 626.684122 -177.308602 
L 622.75742 -172.957358 
L 618.830717 -167.566058 
L 614.904015 -175.870248 
L 610.977312 -182.449682 
L 607.05061 -190.004154 
L 603.123907 -167.786363 
L 599.197205 -176.276555 
L 595.270503 -169.054839 
L 591.3438 -165.835521 
L 587.417098 -177.525493 
L 583.490395 -184.694101 
L 579.563693 -178.170179 
L 575.63699 -172.568917 
L 571.710288 -176.937295 
L 567.783585 -177.729709 
L 563.856883 -182.353495 
L 559.930181 -163.285092 
L 556.003478 -179.852309 
L 552.076776 -180.562814 
L 548.150073 -176.543212 
L 544.223371 -172.153208 
L 540.296668 -162.351706 
L 536.369966 -167.239641 
L 532.443264 -172.719954 
L 528.516561 -171.912113 
L 524.589859 -158.926327 
L 520.663156 -162.673979 
L 516.736454 -166.214246 
L 512.809751 -162.992247 
L 508.883049 -172.03226 
L 504.956347 -164.00103 
L 501.029644 -167.097624 
L 497.102942 -178.590206 
L 493.176239 -170.100189 
L 489.249537 -191.067613 
L 485.322834 -174.219635 
L 481.396132 -233.533651 
L 477.469429 -187.36196 
L 473.542727 -186.803189 
L 469.616025 -193.551665 
L 465.689322 -176.088394 
L 461.76262 -170.603901 
L 457.835917 -176.691707 
L 453.909215 -182.233939 
L 449.982512 -183.958974 
L 446.05581 -191.049225 
L 442.129108 -193.19979 
L 438.202405 -237.316825 
L 434.275703 -192.815563 
L 430.349 -182.453896 
L 426.422298 -188.69845 
L 422.495595 -181.408476 
L 418.568893 -183.697262 
L 414.64219 -188.459618 
L 410.715488 -184.111788 
L 406.788786 -187.397134 
L 402.862083 -193.175308 
z
" style="stroke: #ff7f0e; stroke-opacity: 0.2"/>
    </defs>
    <g clip-path="url(#p445d834333)">
     <use xlink:href="#mbff54823de" x="0" y="360" style="fill: #ff7f0e; fill-opacity: 0.2; stroke: #ff7f0e; stroke-opacity: 0.2"/>
    </g>
   </g>
   <g id="PolyCollection_7">
    <defs>
     <path id="m01faf3fc32" d="M 402.862083 -67.339364 
L 402.862083 -65.84622 
L 406.788786 -63.11857 
L 410.715488 -63.036231 
L 414.64219 -63.078387 
L 418.568893 -62.860993 
L 422.495595 -62.782175 
L 426.422298 -63.35982 
L 430.349 -60.111723 
L 434.275703 -60.288161 
L 438.202405 -76.046597 
L 442.129108 -75.767296 
L 446.05581 -75.65199 
L 449.982512 -75.665204 
L 453.909215 -61.676403 
L 457.835917 -61.601091 
L 461.76262 -61.381242 
L 465.689322 -58.75508 
L 469.616025 -58.519486 
L 473.542727 -58.373973 
L 477.469429 -64.042425 
L 481.396132 -64.13365 
L 485.322834 -63.992103 
L 489.249537 -63.865046 
L 493.176239 -59.230835 
L 497.102942 -59.429134 
L 501.029644 -59.220378 
L 504.956347 -57.991701 
L 508.883049 -58.021704 
L 512.809751 -57.954925 
L 516.736454 -58.031922 
L 520.663156 -59.602898 
L 524.589859 -59.543136 
L 528.516561 -59.527281 
L 532.443264 -59.813243 
L 536.369966 -58.174746 
L 540.296668 -58.286938 
L 544.223371 -58.110926 
L 548.150073 -57.742964 
L 552.076776 -57.763302 
L 556.003478 -57.796389 
L 559.930181 -58.006732 
L 563.856883 -57.752818 
L 567.783585 -58.566438 
L 571.710288 -58.534685 
L 575.63699 -58.42309 
L 579.563693 -58.425887 
L 583.490395 -58.474292 
L 587.417098 -58.437434 
L 591.3438 -57.969682 
L 595.270503 -57.951672 
L 599.197205 -57.823963 
L 603.123907 -57.909932 
L 607.05061 -58.987486 
L 610.977312 -59.195654 
L 614.904015 -58.995976 
L 618.830717 -59.253862 
L 622.75742 -57.902399 
L 626.684122 -57.95314 
L 630.610824 -58.073985 
L 634.537527 -57.805864 
L 638.464229 -58.035307 
L 642.390932 -57.939548 
L 646.317634 -57.934809 
L 650.244337 -58.520752 
L 654.171039 -58.272415 
L 658.097742 -58.160691 
L 662.024444 -58.162242 
L 665.951146 -58.110743 
L 669.877849 -58.141623 
L 673.804551 -57.866544 
L 677.731254 -58.174087 
L 681.657956 -59.017547 
L 685.584659 -58.960743 
L 689.511361 -58.949055 
L 693.438063 -57.648377 
L 697.364766 -54.78 
L 697.364766 -54.78 
L 697.364766 -54.78 
L 693.438063 -58.306977 
L 689.511361 -59.940928 
L 685.584659 -59.863715 
L 681.657956 -59.99959 
L 677.731254 -59.15768 
L 673.804551 -58.576172 
L 669.877849 -59.328533 
L 665.951146 -59.301995 
L 662.024444 -58.994594 
L 658.097742 -58.906888 
L 654.171039 -58.914034 
L 650.244337 -59.136264 
L 646.317634 -58.473543 
L 642.390932 -58.529211 
L 638.464229 -58.584635 
L 634.537527 -58.528072 
L 630.610824 -58.851518 
L 626.684122 -58.662574 
L 622.75742 -58.55956 
L 618.830717 -60.967612 
L 614.904015 -59.856654 
L 610.977312 -60.513572 
L 607.05061 -61.829236 
L 603.123907 -58.696772 
L 599.197205 -58.605507 
L 595.270503 -58.609051 
L 591.3438 -58.62235 
L 587.417098 -59.625263 
L 583.490395 -60.105412 
L 579.563693 -59.657969 
L 575.63699 -59.424445 
L 571.710288 -60.631088 
L 567.783585 -59.863289 
L 563.856883 -58.364384 
L 559.930181 -58.51516 
L 556.003478 -58.534225 
L 552.076776 -58.426741 
L 548.150073 -58.208342 
L 544.223371 -58.782245 
L 540.296668 -58.684691 
L 536.369966 -58.803606 
L 532.443264 -60.59561 
L 528.516561 -62.322423 
L 524.589859 -60.304516 
L 520.663156 -60.314579 
L 516.736454 -58.751739 
L 512.809751 -58.58946 
L 508.883049 -58.673893 
L 504.956347 -58.525297 
L 501.029644 -59.920428 
L 497.102942 -61.103894 
L 493.176239 -59.758964 
L 489.249537 -65.414757 
L 485.322834 -64.316489 
L 481.396132 -68.831817 
L 477.469429 -66.950941 
L 473.542727 -59.376993 
L 469.616025 -59.76774 
L 465.689322 -59.400837 
L 461.76262 -61.607092 
L 457.835917 -63.591116 
L 453.909215 -62.248363 
L 449.982512 -76.430182 
L 446.05581 -76.289512 
L 442.129108 -77.305152 
L 438.202405 -81.165416 
L 434.275703 -61.444708 
L 430.349 -61.620734 
L 426.422298 -64.950214 
L 422.495595 -65.88179 
L 418.568893 -64.699091 
L 414.64219 -65.418184 
L 410.715488 -64.156928 
L 406.788786 -65.434779 
L 402.862083 -67.339364 
z
" style="stroke: #2ca02c; stroke-opacity: 0.2"/>
    </defs>
    <g clip-path="url(#p445d834333)">
     <use xlink:href="#m01faf3fc32" x="0" y="360" style="fill: #2ca02c; fill-opacity: 0.2; stroke: #2ca02c; stroke-opacity: 0.2"/>
    </g>
   </g>
   <g id="PolyCollection_8">
    <defs>
     <path id="mf5555e57ec" d="M 402.862083 -209.507676 
L 402.862083 -186.72609 
L 406.788786 -195.819213 
L 410.715488 -193.894063 
L 414.64219 -196.98585 
L 418.568893 -196.877077 
L 422.495595 -193.859512 
L 426.422298 -200.156759 
L 430.349 -192.765416 
L 434.275703 -198.603674 
L 438.202405 -243.674006 
L 442.129108 -233.777315 
L 446.05581 -230.788613 
L 449.982512 -233.767037 
L 453.909215 -213.365845 
L 457.835917 -208.975118 
L 461.76262 -207.577508 
L 465.689322 -206.869672 
L 469.616025 -212.229549 
L 473.542727 -221.36146 
L 477.469429 -228.305985 
L 481.396132 -244.737326 
L 485.322834 -226.339122 
L 489.249537 -230.646617 
L 493.176239 -220.050739 
L 497.102942 -220.523294 
L 501.029644 -219.148297 
L 504.956347 -214.022246 
L 508.883049 -214.12763 
L 512.809751 -213.924684 
L 516.736454 -217.029305 
L 520.663156 -221.885112 
L 524.589859 -221.152298 
L 528.516561 -223.258986 
L 532.443264 -226.419903 
L 536.369966 -221.645829 
L 540.296668 -220.368596 
L 544.223371 -220.597809 
L 548.150073 -229.509508 
L 552.076776 -234.487814 
L 556.003478 -229.017799 
L 559.930181 -225.209307 
L 563.856883 -236.801786 
L 567.783585 -232.934508 
L 571.710288 -233.13165 
L 575.63699 -232.39548 
L 579.563693 -244.263924 
L 583.490395 -244.856729 
L 587.417098 -244.378518 
L 591.3438 -231.867594 
L 595.270503 -229.697206 
L 599.197205 -241.830559 
L 603.123907 -243.193202 
L 607.05061 -249.13683 
L 610.977312 -254.430316 
L 614.904015 -249.775908 
L 618.830717 -244.714528 
L 622.75742 -247.189935 
L 626.684122 -246.910989 
L 630.610824 -247.022791 
L 634.537527 -242.40299 
L 638.464229 -238.922689 
L 642.390932 -238.933799 
L 646.317634 -239.387941 
L 650.244337 -241.729745 
L 654.171039 -238.92417 
L 658.097742 -245.057018 
L 662.024444 -254.067516 
L 665.951146 -255.685255 
L 669.877849 -247.368033 
L 673.804551 -245.133517 
L 677.731254 -246.8764 
L 681.657956 -244.742447 
L 685.584659 -244.673531 
L 689.511361 -242.939177 
L 693.438063 -246.407092 
L 697.364766 -159.296486 
L 697.364766 -159.937849 
L 697.364766 -159.937849 
L 693.438063 -265.989076 
L 689.511361 -263.059913 
L 685.584659 -260.178373 
L 681.657956 -264.639969 
L 677.731254 -267.131482 
L 673.804551 -256.436214 
L 669.877849 -261.798912 
L 665.951146 -286.988009 
L 662.024444 -298.548936 
L 658.097742 -264.945206 
L 654.171039 -252.504442 
L 650.244337 -254.422998 
L 646.317634 -250.224079 
L 642.390932 -250.032709 
L 638.464229 -252.667422 
L 634.537527 -261.483133 
L 630.610824 -269.08413 
L 626.684122 -266.539996 
L 622.75742 -262.893282 
L 618.830717 -258.711408 
L 614.904015 -267.121542 
L 610.977312 -273.378156 
L 607.05061 -280.184084 
L 603.123907 -253.455073 
L 599.197205 -258.447284 
L 595.270503 -246.18041 
L 591.3438 -243.753141 
L 587.417098 -255.761066 
L 583.490395 -262.137681 
L 579.563693 -255.724128 
L 575.63699 -250.187555 
L 571.710288 -255.043161 
L 567.783585 -256.481214 
L 563.856883 -257.326279 
L 559.930181 -235.518005 
L 556.003478 -250.728077 
L 552.076776 -248.431085 
L 548.150073 -244.266981 
L 544.223371 -241.312378 
L 540.296668 -234.542782 
L 536.369966 -235.301067 
L 532.443264 -242.124816 
L 528.516561 -246.440437 
L 524.589859 -229.029374 
L 520.663156 -232.658016 
L 516.736454 -231.754069 
L 512.809751 -225.02464 
L 508.883049 -231.385183 
L 504.956347 -222.803446 
L 501.029644 -229.244503 
L 497.102942 -240.668335 
L 493.176239 -229.809005 
L 489.249537 -259.929937 
L 485.322834 -239.555194 
L 481.396132 -300.820479 
L 477.469429 -254.638845 
L 473.542727 -238.001739 
L 469.616025 -236.369179 
L 465.689322 -217.956537 
L 461.76262 -213.810315 
L 457.835917 -222.28692 
L 453.909215 -226.176554 
L 449.982512 -243.241152 
L 446.05581 -243.047375 
L 442.129108 -246.605504 
L 438.202405 -294.027894 
L 434.275703 -217.225294 
L 430.349 -206.631658 
L 426.422298 -214.219842 
L 422.495595 -208.43798 
L 418.568893 -209.021917 
L 414.64219 -212.656843 
L 410.715488 -207.889062 
L 406.788786 -212.24974 
L 402.862083 -209.507676 
z
" style="stroke: #d62728; stroke-opacity: 0.2"/>
    </defs>
    <g clip-path="url(#p445d834333)">
     <use xlink:href="#mf5555e57ec" x="0" y="360" style="fill: #d62728; fill-opacity: 0.2; stroke: #d62728; stroke-opacity: 0.2"/>
    </g>
   </g>
   <g id="line2d_41">
    <path d="M 402.862083 300.747931 
L 406.788786 291.029892 
L 410.715488 291.307364 
L 414.64219 291.087718 
L 418.568893 289.748737 
L 422.495595 289.752814 
L 426.422298 289.724826 
L 430.349 287.929215 
L 434.275703 287.786109 
L 438.202405 273.798527 
L 442.129108 274.506805 
L 446.05581 274.398537 
L 449.982512 267.802819 
L 453.909215 269.059007 
L 457.835917 269.183645 
L 461.76262 269.166492 
L 465.689322 268.197205 
L 469.616025 268.025838 
L 473.542727 258.369823 
L 477.469429 251.98751 
L 481.396132 252.513197 
L 485.322834 252.293178 
L 489.249537 249.22504 
L 493.176239 250.220797 
L 497.102942 250.310777 
L 501.029644 249.89772 
L 504.956347 250.312249 
L 508.883049 250.175256 
L 512.809751 246.781624 
L 516.736454 243.572157 
L 520.663156 241.38634 
L 524.589859 241.814074 
L 528.516561 241.638137 
L 532.443264 240.693785 
L 536.369966 241.152245 
L 540.296668 241.278839 
L 544.223371 240.974157 
L 548.150073 240.73577 
L 552.076776 240.720218 
L 556.003478 238.878666 
L 559.930181 236.413745 
L 563.856883 234.317282 
L 567.783585 232.687908 
L 571.710288 232.869036 
L 575.63699 232.638931 
L 579.563693 232.326535 
L 583.490395 232.459454 
L 587.417098 232.236713 
L 591.3438 231.353448 
L 595.270503 231.85483 
L 599.197205 227.022077 
L 603.123907 222.973884 
L 607.05061 220.880774 
L 610.977312 220.306349 
L 614.904015 220.837747 
L 618.830717 219.685473 
L 622.75742 219.830643 
L 626.684122 220.577087 
L 630.610824 220.3513 
L 634.537527 219.382869 
L 638.464229 219.388905 
L 642.390932 216.868918 
L 646.317634 213.289719 
L 650.244337 211.622853 
L 654.171039 211.804518 
L 658.097742 211.781868 
L 662.024444 211.44082 
L 665.951146 211.661447 
L 669.877849 211.333677 
L 673.804551 209.36022 
L 677.731254 208.970986 
L 681.657956 205.562526 
L 685.584659 205.708787 
L 689.511361 205.292725 
L 693.438063 200.768377 
L 697.364766 200.301926 
" clip-path="url(#p445d834333)" style="fill: none; stroke: #1f77b4; stroke-width: 1.5; stroke-linecap: round"/>
   </g>
   <g id="line2d_42">
    <path d="M 402.862083 185.427689 
L 406.788786 181.451549 
L 410.715488 184.412951 
L 414.64219 180.055334 
L 418.568893 182.041141 
L 422.495595 184.209084 
L 426.422298 178.288579 
L 430.349 185.330527 
L 434.275703 176.259032 
L 438.202405 159.239923 
L 442.129108 174.024085 
L 446.05581 177.034869 
L 449.982512 179.206294 
L 453.909215 185.248548 
L 457.835917 189.044503 
L 461.76262 191.790197 
L 465.689322 190.903685 
L 469.616025 179.851049 
L 473.542727 183.232165 
L 477.469429 184.903291 
L 481.396132 159.091567 
L 485.322834 191.731063 
L 489.249537 188.133683 
L 493.176239 197.01148 
L 497.102942 193.155138 
L 501.029644 199.015744 
L 504.956347 201.485412 
L 508.883049 202.329507 
L 512.809751 205.501323 
L 516.736454 205.693907 
L 520.663156 203.535924 
L 524.589859 205.000605 
L 528.516561 199.737184 
L 532.443264 199.000211 
L 536.369966 202.736475 
L 540.296668 204.684392 
L 544.223371 203.169214 
L 548.150073 192.124241 
L 552.076776 187.786823 
L 556.003478 190.506328 
L 559.930181 204.312597 
L 563.856883 191.135342 
L 567.783585 195.270355 
L 571.710288 195.624319 
L 575.63699 196.996435 
L 579.563693 189.279016 
L 583.490395 185.114123 
L 587.417098 188.256407 
L 591.3438 200.810638 
L 595.270503 199.84765 
L 599.197205 193.737138 
L 603.123907 197.965065 
L 607.05061 193.947692 
L 610.977312 188.032411 
L 614.904015 195.70602 
L 618.830717 200.814817 
L 622.75742 196.001338 
L 626.684122 193.450665 
L 630.610824 189.418526 
L 634.537527 200.111764 
L 638.464229 206.5224 
L 642.390932 208.623478 
L 646.317634 209.806771 
L 650.244337 209.607849 
L 654.171039 211.563567 
L 658.097742 206.627224 
L 662.024444 192.490881 
L 665.951146 192.292934 
L 669.877849 205.939077 
L 673.804551 208.822261 
L 677.731254 204.615438 
L 681.657956 207.642102 
L 685.584659 209.439225 
L 689.511361 215.298089 
L 693.438063 210.499933 
L 697.364766 305.22 
" clip-path="url(#p445d834333)" style="fill: none; stroke: #ff7f0e; stroke-width: 1.5; stroke-linecap: round"/>
   </g>
   <g id="line2d_43">
    <path d="M 402.862083 293.931037 
L 406.788786 296.609043 
L 410.715488 296.787714 
L 414.64219 296.67604 
L 418.568893 297.013324 
L 422.495595 297.114021 
L 426.422298 296.49828 
L 430.349 299.707715 
L 434.275703 299.559506 
L 438.202405 283.34966 
L 442.129108 283.921512 
L 446.05581 284.151106 
L 449.982512 283.958348 
L 453.909215 298.1231 
L 457.835917 298.254208 
L 461.76262 298.534248 
L 465.689322 300.963138 
L 469.616025 301.116463 
L 473.542727 301.261513 
L 477.469429 295.705949 
L 481.396132 295.238022 
L 485.322834 295.887455 
L 489.249537 296.002109 
L 493.176239 300.551202 
L 497.102942 300.227738 
L 501.029644 300.451244 
L 504.956347 301.662956 
L 508.883049 301.659904 
L 512.809751 301.697519 
L 516.736454 301.637133 
L 520.663156 300.08741 
L 524.589859 300.074328 
L 528.516561 300.032737 
L 532.443264 299.794598 
L 536.369966 301.49944 
L 540.296668 301.52312 
L 544.223371 301.534862 
L 548.150073 302.167304 
L 552.076776 302.104533 
L 556.003478 301.76634 
L 559.930181 301.712198 
L 563.856883 302.082879 
L 567.783585 300.926017 
L 571.710288 300.749918 
L 575.63699 301.136011 
L 579.563693 301.294007 
L 583.490395 300.981279 
L 587.417098 301.215368 
L 591.3438 301.668731 
L 595.270503 301.676374 
L 599.197205 302.066166 
L 603.123907 301.726878 
L 607.05061 300.518238 
L 610.977312 300.499453 
L 614.904015 300.735425 
L 618.830717 300.006295 
L 622.75742 301.953479 
L 626.684122 301.896058 
L 630.610824 301.575015 
L 634.537527 301.816573 
L 638.464229 301.685685 
L 642.390932 301.677956 
L 646.317634 301.775137 
L 650.244337 301.132508 
L 654.171039 301.339307 
L 658.097742 301.360191 
L 662.024444 301.434111 
L 665.951146 301.430667 
L 669.877849 301.232254 
L 673.804551 301.70081 
L 677.731254 301.530945 
L 681.657956 300.595021 
L 685.584659 300.630756 
L 689.511361 300.620145 
L 693.438063 301.980266 
L 697.364766 305.22 
" clip-path="url(#p445d834333)" style="fill: none; stroke: #2ca02c; stroke-width: 1.5; stroke-linecap: round"/>
   </g>
   <g id="line2d_44">
    <path d="M 402.862083 168.791993 
L 406.788786 157.43193 
L 410.715488 162.295247 
L 414.64219 157.009838 
L 418.568893 158.047796 
L 422.495595 160.249831 
L 426.422298 153.074224 
L 430.349 161.904909 
L 434.275703 152.686901 
L 438.202405 105.376402 
L 442.129108 121.01732 
L 446.05581 124.442523 
L 449.982512 120.852585 
L 453.909215 142.14119 
L 457.835917 145.753851 
L 461.76262 148.864521 
L 465.689322 149.479908 
L 469.616025 138.005056 
L 473.542727 131.542815 
L 477.469429 122.206944 
L 481.396132 94.393072 
L 485.322834 129.276879 
L 489.249537 122.139483 
L 493.176239 137.317596 
L 497.102942 131.368 
L 501.029644 138.978581 
L 504.956347 143.285016 
L 508.883049 143.830274 
L 512.809751 143.358048 
L 516.736454 140.274705 
L 520.663156 134.429142 
L 524.589859 136.376085 
L 528.516561 130.471103 
L 532.443264 129.2451 
L 536.369966 135.276087 
L 540.296668 136.683779 
L 544.223371 135.044797 
L 548.150073 125.292232 
L 552.076776 120.395137 
L 556.003478 120.48627 
L 559.930181 131.728272 
L 563.856883 116.895101 
L 567.783585 118.132284 
L 571.710288 117.439253 
L 575.63699 120.037942 
L 579.563693 112.063829 
L 583.490395 107.278777 
L 587.417098 111.251162 
L 591.3438 124.039678 
L 595.270503 123.323286 
L 599.197205 111.756231 
L 603.123907 112.387698 
L 607.05061 103.96985 
L 610.977312 97.757382 
L 614.904015 106.156853 
L 618.830717 109.590372 
L 622.75742 107.243582 
L 626.684122 105.315894 
L 630.610824 100.731235 
L 634.537527 110.935907 
L 638.464229 117.765349 
L 642.390932 117.017365 
L 646.317634 114.295232 
L 650.244337 111.49469 
L 654.171039 114.004422 
L 658.097742 109.862817 
L 662.024444 95.386511 
L 665.951146 93.814719 
L 669.877849 108.026845 
L 673.804551 109.360534 
L 677.731254 104.572728 
L 681.657956 102.635512 
L 685.584659 105.633886 
L 689.511361 110.238312 
L 693.438063 102.249127 
L 697.364766 200.301926 
" clip-path="url(#p445d834333)" style="fill: none; stroke: #d62728; stroke-width: 1.5; stroke-linecap: round"/>
   </g>
   <g id="patch_6">
    <path d="M 388.136949 318.04 
L 388.136949 36 
" style="fill: none; stroke: #cccccc; stroke-width: 0.8; stroke-linejoin: miter; stroke-linecap: square"/>
   </g>
   <g id="patch_7">
    <path d="M 388.136949 318.04 
L 712.0899 318.04 
" style="fill: none; stroke: #cccccc; stroke-width: 0.8; stroke-linejoin: miter; stroke-linecap: square"/>
   </g>
   <g id="text_29">
    <!-- client_pu = CPU -->
    <g style="fill: #262626" transform="translate(513.844675 30) scale(0.1 -0.1)">
     <defs>
      <path id="ArialMT-43" d="M 3763 1606 
L 4369 1453 
Q 4178 706 3683 314 
Q 3188 -78 2472 -78 
Q 1731 -78 1267 223 
Q 803 525 561 1097 
Q 319 1669 319 2325 
Q 319 3041 592 3573 
Q 866 4106 1370 4382 
Q 1875 4659 2481 4659 
Q 3169 4659 3637 4309 
Q 4106 3959 4291 3325 
L 3694 3184 
Q 3534 3684 3231 3912 
Q 2928 4141 2469 4141 
Q 1941 4141 1586 3887 
Q 1231 3634 1087 3207 
Q 944 2781 944 2328 
Q 944 1744 1114 1308 
Q 1284 872 1643 656 
Q 2003 441 2422 441 
Q 2931 441 3284 734 
Q 3638 1028 3763 1606 
z
" transform="scale(0.015625)"/>
     </defs>
     <use xlink:href="#ArialMT-63"/>
     <use xlink:href="#ArialMT-6c" x="50"/>
     <use xlink:href="#ArialMT-69" x="72.216797"/>
     <use xlink:href="#ArialMT-65" x="94.433594"/>
     <use xlink:href="#ArialMT-6e" x="150.048828"/>
     <use xlink:href="#ArialMT-74" x="205.664062"/>
     <use xlink:href="#ArialMT-5f" x="233.447266"/>
     <use xlink:href="#ArialMT-70" x="289.0625"/>
     <use xlink:href="#ArialMT-75" x="344.677734"/>
     <use xlink:href="#ArialMT-20" x="400.292969"/>
     <use xlink:href="#ArialMT-3d" x="428.076172"/>
     <use xlink:href="#ArialMT-20" x="486.474609"/>
     <use xlink:href="#ArialMT-43" x="514.257812"/>
     <use xlink:href="#ArialMT-50" x="586.474609"/>
     <use xlink:href="#ArialMT-55" x="653.173828"/>
    </g>
   </g>
  </g>
  <g id="text_30">
   <!-- MobileNetV2 latency -->
   <g style="fill: #262626" transform="translate(340.479375 15.825) scale(0.12 -0.12)">
    <defs>
     <path id="ArialMT-4d" d="M 475 0 
L 475 4581 
L 1388 4581 
L 2472 1338 
Q 2622 884 2691 659 
Q 2769 909 2934 1394 
L 4031 4581 
L 4847 4581 
L 4847 0 
L 4263 0 
L 4263 3834 
L 2931 0 
L 2384 0 
L 1059 3900 
L 1059 0 
L 475 0 
z
" transform="scale(0.015625)"/>
     <path id="ArialMT-4e" d="M 488 0 
L 488 4581 
L 1109 4581 
L 3516 984 
L 3516 4581 
L 4097 4581 
L 4097 0 
L 3475 0 
L 1069 3600 
L 1069 0 
L 488 0 
z
" transform="scale(0.015625)"/>
     <path id="ArialMT-56" d="M 1803 0 
L 28 4581 
L 684 4581 
L 1875 1253 
Q 2019 853 2116 503 
Q 2222 878 2363 1253 
L 3600 4581 
L 4219 4581 
L 2425 0 
L 1803 0 
z
" transform="scale(0.015625)"/>
    </defs>
    <use xlink:href="#ArialMT-4d"/>
    <use xlink:href="#ArialMT-6f" x="83.300781"/>
    <use xlink:href="#ArialMT-62" x="138.916016"/>
    <use xlink:href="#ArialMT-69" x="194.53125"/>
    <use xlink:href="#ArialMT-6c" x="216.748047"/>
    <use xlink:href="#ArialMT-65" x="238.964844"/>
    <use xlink:href="#ArialMT-4e" x="294.580078"/>
    <use xlink:href="#ArialMT-65" x="366.796875"/>
    <use xlink:href="#ArialMT-74" x="422.412109"/>
    <use xlink:href="#ArialMT-56" x="450.195312"/>
    <use xlink:href="#ArialMT-32" x="516.894531"/>
    <use xlink:href="#ArialMT-20" x="572.509766"/>
    <use xlink:href="#ArialMT-6c" x="600.292969"/>
    <use xlink:href="#ArialMT-61" x="622.509766"/>
    <use xlink:href="#ArialMT-74" x="678.125"/>
    <use xlink:href="#ArialMT-65" x="705.908203"/>
    <use xlink:href="#ArialMT-6e" x="761.523438"/>
    <use xlink:href="#ArialMT-63" x="817.138672"/>
    <use xlink:href="#ArialMT-79" x="867.138672"/>
   </g>
  </g>
  <g id="legend_1">
   <g id="text_31">
    <!-- variable -->
    <g style="fill: #262626" transform="translate(732.995156 154.294531) scale(0.1 -0.1)">
     <defs>
      <path id="ArialMT-76" d="M 1344 0 
L 81 3319 
L 675 3319 
L 1388 1331 
Q 1503 1009 1600 663 
Q 1675 925 1809 1294 
L 2547 3319 
L 3125 3319 
L 1869 0 
L 1344 0 
z
" transform="scale(0.015625)"/>
     </defs>
     <use xlink:href="#ArialMT-76"/>
     <use xlink:href="#ArialMT-61" x="50"/>
     <use xlink:href="#ArialMT-72" x="105.615234"/>
     <use xlink:href="#ArialMT-69" x="138.916016"/>
     <use xlink:href="#ArialMT-61" x="161.132812"/>
     <use xlink:href="#ArialMT-62" x="216.748047"/>
     <use xlink:href="#ArialMT-6c" x="272.363281"/>
     <use xlink:href="#ArialMT-65" x="294.580078"/>
    </g>
   </g>
   <g id="line2d_45">
    <path d="M 718.9975 164.939844 
L 728.9975 164.939844 
L 738.9975 164.939844 
" style="fill: none; stroke: #1f77b4; stroke-width: 1.5; stroke-linecap: round"/>
   </g>
   <g id="text_32">
    <!-- client -->
    <g style="fill: #262626" transform="translate(746.9975 168.439844) scale(0.1 -0.1)">
     <use xlink:href="#ArialMT-63"/>
     <use xlink:href="#ArialMT-6c" x="50"/>
     <use xlink:href="#ArialMT-69" x="72.216797"/>
     <use xlink:href="#ArialMT-65" x="94.433594"/>
     <use xlink:href="#ArialMT-6e" x="150.048828"/>
     <use xlink:href="#ArialMT-74" x="205.664062"/>
    </g>
   </g>
   <g id="line2d_46">
    <path d="M 718.9975 179.085156 
L 728.9975 179.085156 
L 738.9975 179.085156 
" style="fill: none; stroke: #ff7f0e; stroke-width: 1.5; stroke-linecap: round"/>
   </g>
   <g id="text_33">
    <!-- server -->
    <g style="fill: #262626" transform="translate(746.9975 182.585156) scale(0.1 -0.1)">
     <use xlink:href="#ArialMT-73"/>
     <use xlink:href="#ArialMT-65" x="50"/>
     <use xlink:href="#ArialMT-72" x="105.615234"/>
     <use xlink:href="#ArialMT-76" x="138.916016"/>
     <use xlink:href="#ArialMT-65" x="188.916016"/>
     <use xlink:href="#ArialMT-72" x="244.53125"/>
    </g>
   </g>
   <g id="line2d_47">
    <path d="M 718.9975 193.230469 
L 728.9975 193.230469 
L 738.9975 193.230469 
" style="fill: none; stroke: #2ca02c; stroke-width: 1.5; stroke-linecap: round"/>
   </g>
   <g id="text_34">
    <!-- network -->
    <g style="fill: #262626" transform="translate(746.9975 196.730469) scale(0.1 -0.1)">
     <defs>
      <path id="ArialMT-77" d="M 1034 0 
L 19 3319 
L 600 3319 
L 1128 1403 
L 1325 691 
Q 1338 744 1497 1375 
L 2025 3319 
L 2603 3319 
L 3100 1394 
L 3266 759 
L 3456 1400 
L 4025 3319 
L 4572 3319 
L 3534 0 
L 2950 0 
L 2422 1988 
L 2294 2553 
L 1622 0 
L 1034 0 
z
" transform="scale(0.015625)"/>
      <path id="ArialMT-6b" d="M 425 0 
L 425 4581 
L 988 4581 
L 988 1969 
L 2319 3319 
L 3047 3319 
L 1778 2088 
L 3175 0 
L 2481 0 
L 1384 1697 
L 988 1316 
L 988 0 
L 425 0 
z
" transform="scale(0.015625)"/>
     </defs>
     <use xlink:href="#ArialMT-6e"/>
     <use xlink:href="#ArialMT-65" x="55.615234"/>
     <use xlink:href="#ArialMT-74" x="111.230469"/>
     <use xlink:href="#ArialMT-77" x="139.013672"/>
     <use xlink:href="#ArialMT-6f" x="211.230469"/>
     <use xlink:href="#ArialMT-72" x="266.845703"/>
     <use xlink:href="#ArialMT-6b" x="300.146484"/>
    </g>
   </g>
   <g id="line2d_48">
    <path d="M 718.9975 207.375781 
L 728.9975 207.375781 
L 738.9975 207.375781 
" style="fill: none; stroke: #d62728; stroke-width: 1.5; stroke-linecap: round"/>
   </g>
   <g id="text_35">
    <!-- total -->
    <g style="fill: #262626" transform="translate(746.9975 210.875781) scale(0.1 -0.1)">
     <use xlink:href="#ArialMT-74"/>
     <use xlink:href="#ArialMT-6f" x="27.783203"/>
     <use xlink:href="#ArialMT-74" x="83.398438"/>
     <use xlink:href="#ArialMT-61" x="111.181641"/>
     <use xlink:href="#ArialMT-6c" x="166.796875"/>
    </g>
   </g>
  </g>
 </g>
 <defs>
  <clipPath id="pc6704f90c8">
   <rect x="53.415148" y="36" width="323.952951" height="282.04"/>
  </clipPath>
  <clipPath id="p445d834333">
   <rect x="388.136949" y="36" width="323.952951" height="282.04"/>
  </clipPath>
 </defs>
</svg>
