<?xml version="1.0" encoding="utf-8" standalone="no"?>
<!DOCTYPE svg PUBLIC "-//W3C//DTD SVG 1.1//EN"
  "http://www.w3.org/Graphics/SVG/1.1/DTD/svg11.dtd">
<svg xmlns:xlink="http://www.w3.org/1999/xlink" width="791.01pt" height="360pt" viewBox="0 0 791.01 360" xmlns="http://www.w3.org/2000/svg" version="1.1">
 <metadata>
  <rdf:RDF xmlns:dc="http://purl.org/dc/elements/1.1/" xmlns:cc="http://creativecommons.org/ns#" xmlns:rdf="http://www.w3.org/1999/02/22-rdf-syntax-ns#">
   <cc:Work>
    <dc:type rdf:resource="http://purl.org/dc/dcmitype/StillImage"/>
    <dc:date>2023-11-16T16:31:16.183352</dc:date>
    <dc:format>image/svg+xml</dc:format>
    <dc:creator>
     <cc:Agent>
      <dc:title>Matplotlib v3.8.1, https://matplotlib.org/</dc:title>
     </cc:Agent>
    </dc:creator>
   </cc:Work>
  </rdf:RDF>
 </metadata>
 <defs>
  <style type="text/css">*{stroke-linejoin: round; stroke-linecap: butt}</style>
 </defs>
 <g id="figure_1">
  <g id="patch_1">
   <path d="M 0 360 
L 791.01 360 
L 791.01 0 
L 0 0 
z
" style="fill: #ffffff"/>
  </g>
  <g id="axes_1">
   <g id="patch_2">
    <path d="M 53.415148 318.04 
L 377.368098 318.04 
L 377.368098 36 
L 53.415148 36 
z
" style="fill: #ffffff"/>
   </g>
   <g id="matplotlib.axis_1">
    <g id="xtick_1">
     <g id="line2d_1">
      <path d="M 68.140282 318.04 
L 68.140282 36 
" clip-path="url(#p491537e449)" style="fill: none; stroke: #cccccc; stroke-width: 0.8; stroke-linecap: round"/>
     </g>
     <g id="text_1">
      <!-- 0 -->
      <g style="fill: #262626" transform="translate(65.359813 332.197812) scale(0.1 -0.1)">
       <defs>
        <path id="ArialMT-30" d="M 266 2259 
Q 266 3072 433 3567 
Q 600 4063 929 4331 
Q 1259 4600 1759 4600 
Q 2128 4600 2406 4451 
Q 2684 4303 2865 4023 
Q 3047 3744 3150 3342 
Q 3253 2941 3253 2259 
Q 3253 1453 3087 958 
Q 2922 463 2592 192 
Q 2263 -78 1759 -78 
Q 1097 -78 719 397 
Q 266 969 266 2259 
z
M 844 2259 
Q 844 1131 1108 757 
Q 1372 384 1759 384 
Q 2147 384 2411 759 
Q 2675 1134 2675 2259 
Q 2675 3391 2411 3762 
Q 2147 4134 1753 4134 
Q 1366 4134 1134 3806 
Q 844 3388 844 2259 
z
" transform="scale(0.015625)"/>
       </defs>
       <use xlink:href="#ArialMT-30"/>
      </g>
     </g>
    </g>
    <g id="xtick_2">
     <g id="line2d_2">
      <path d="M 104.953117 318.04 
L 104.953117 36 
" clip-path="url(#p491537e449)" style="fill: none; stroke: #cccccc; stroke-width: 0.8; stroke-linecap: round"/>
     </g>
     <g id="text_2">
      <!-- 5 -->
      <g style="fill: #262626" transform="translate(102.172648 332.197812) scale(0.1 -0.1)">
       <defs>
        <path id="ArialMT-35" d="M 266 1200 
L 856 1250 
Q 922 819 1161 601 
Q 1400 384 1738 384 
Q 2144 384 2425 690 
Q 2706 997 2706 1503 
Q 2706 1984 2436 2262 
Q 2166 2541 1728 2541 
Q 1456 2541 1237 2417 
Q 1019 2294 894 2097 
L 366 2166 
L 809 4519 
L 3088 4519 
L 3088 3981 
L 1259 3981 
L 1013 2750 
Q 1425 3038 1878 3038 
Q 2478 3038 2890 2622 
Q 3303 2206 3303 1553 
Q 3303 931 2941 478 
Q 2500 -78 1738 -78 
Q 1113 -78 717 272 
Q 322 622 266 1200 
z
" transform="scale(0.015625)"/>
       </defs>
       <use xlink:href="#ArialMT-35"/>
      </g>
     </g>
    </g>
    <g id="xtick_3">
     <g id="line2d_3">
      <path d="M 141.765952 318.04 
L 141.765952 36 
" clip-path="url(#p491537e449)" style="fill: none; stroke: #cccccc; stroke-width: 0.8; stroke-linecap: round"/>
     </g>
     <g id="text_3">
      <!-- 10 -->
      <g style="fill: #262626" transform="translate(136.205015 332.197812) scale(0.1 -0.1)">
       <defs>
        <path id="ArialMT-31" d="M 2384 0 
L 1822 0 
L 1822 3584 
Q 1619 3391 1289 3197 
Q 959 3003 697 2906 
L 697 3450 
Q 1169 3672 1522 3987 
Q 1875 4303 2022 4600 
L 2384 4600 
L 2384 0 
z
" transform="scale(0.015625)"/>
       </defs>
       <use xlink:href="#ArialMT-31"/>
       <use xlink:href="#ArialMT-30" x="55.615234"/>
      </g>
     </g>
    </g>
    <g id="xtick_4">
     <g id="line2d_4">
      <path d="M 178.578788 318.04 
L 178.578788 36 
" clip-path="url(#p491537e449)" style="fill: none; stroke: #cccccc; stroke-width: 0.8; stroke-linecap: round"/>
     </g>
     <g id="text_4">
      <!-- 15 -->
      <g style="fill: #262626" transform="translate(173.01785 332.197812) scale(0.1 -0.1)">
       <use xlink:href="#ArialMT-31"/>
       <use xlink:href="#ArialMT-35" x="55.615234"/>
      </g>
     </g>
    </g>
    <g id="xtick_5">
     <g id="line2d_5">
      <path d="M 215.391623 318.04 
L 215.391623 36 
" clip-path="url(#p491537e449)" style="fill: none; stroke: #cccccc; stroke-width: 0.8; stroke-linecap: round"/>
     </g>
     <g id="text_5">
      <!-- 20 -->
      <g style="fill: #262626" transform="translate(209.830685 332.197812) scale(0.1 -0.1)">
       <defs>
        <path id="ArialMT-32" d="M 3222 541 
L 3222 0 
L 194 0 
Q 188 203 259 391 
Q 375 700 629 1000 
Q 884 1300 1366 1694 
Q 2113 2306 2375 2664 
Q 2638 3022 2638 3341 
Q 2638 3675 2398 3904 
Q 2159 4134 1775 4134 
Q 1369 4134 1125 3890 
Q 881 3647 878 3216 
L 300 3275 
Q 359 3922 746 4261 
Q 1134 4600 1788 4600 
Q 2447 4600 2831 4234 
Q 3216 3869 3216 3328 
Q 3216 3053 3103 2787 
Q 2991 2522 2730 2228 
Q 2469 1934 1863 1422 
Q 1356 997 1212 845 
Q 1069 694 975 541 
L 3222 541 
z
" transform="scale(0.015625)"/>
       </defs>
       <use xlink:href="#ArialMT-32"/>
       <use xlink:href="#ArialMT-30" x="55.615234"/>
      </g>
     </g>
    </g>
    <g id="xtick_6">
     <g id="line2d_6">
      <path d="M 252.204458 318.04 
L 252.204458 36 
" clip-path="url(#p491537e449)" style="fill: none; stroke: #cccccc; stroke-width: 0.8; stroke-linecap: round"/>
     </g>
     <g id="text_6">
      <!-- 25 -->
      <g style="fill: #262626" transform="translate(246.643521 332.197812) scale(0.1 -0.1)">
       <use xlink:href="#ArialMT-32"/>
       <use xlink:href="#ArialMT-35" x="55.615234"/>
      </g>
     </g>
    </g>
    <g id="xtick_7">
     <g id="line2d_7">
      <path d="M 289.017294 318.04 
L 289.017294 36 
" clip-path="url(#p491537e449)" style="fill: none; stroke: #cccccc; stroke-width: 0.8; stroke-linecap: round"/>
     </g>
     <g id="text_7">
      <!-- 30 -->
      <g style="fill: #262626" transform="translate(283.456356 332.197812) scale(0.1 -0.1)">
       <defs>
        <path id="ArialMT-33" d="M 269 1209 
L 831 1284 
Q 928 806 1161 595 
Q 1394 384 1728 384 
Q 2125 384 2398 659 
Q 2672 934 2672 1341 
Q 2672 1728 2419 1979 
Q 2166 2231 1775 2231 
Q 1616 2231 1378 2169 
L 1441 2663 
Q 1497 2656 1531 2656 
Q 1891 2656 2178 2843 
Q 2466 3031 2466 3422 
Q 2466 3731 2256 3934 
Q 2047 4138 1716 4138 
Q 1388 4138 1169 3931 
Q 950 3725 888 3313 
L 325 3413 
Q 428 3978 793 4289 
Q 1159 4600 1703 4600 
Q 2078 4600 2393 4439 
Q 2709 4278 2876 4000 
Q 3044 3722 3044 3409 
Q 3044 3113 2884 2869 
Q 2725 2625 2413 2481 
Q 2819 2388 3044 2092 
Q 3269 1797 3269 1353 
Q 3269 753 2831 336 
Q 2394 -81 1725 -81 
Q 1122 -81 723 278 
Q 325 638 269 1209 
z
" transform="scale(0.015625)"/>
       </defs>
       <use xlink:href="#ArialMT-33"/>
       <use xlink:href="#ArialMT-30" x="55.615234"/>
      </g>
     </g>
    </g>
    <g id="xtick_8">
     <g id="line2d_8">
      <path d="M 325.830129 318.04 
L 325.830129 36 
" clip-path="url(#p491537e449)" style="fill: none; stroke: #cccccc; stroke-width: 0.8; stroke-linecap: round"/>
     </g>
     <g id="text_8">
      <!-- 35 -->
      <g style="fill: #262626" transform="translate(320.269191 332.197812) scale(0.1 -0.1)">
       <use xlink:href="#ArialMT-33"/>
       <use xlink:href="#ArialMT-35" x="55.615234"/>
      </g>
     </g>
    </g>
    <g id="xtick_9">
     <g id="line2d_9">
      <path d="M 362.642964 318.04 
L 362.642964 36 
" clip-path="url(#p491537e449)" style="fill: none; stroke: #cccccc; stroke-width: 0.8; stroke-linecap: round"/>
     </g>
     <g id="text_9">
      <!-- 40 -->
      <g style="fill: #262626" transform="translate(357.082027 332.197812) scale(0.1 -0.1)">
       <defs>
        <path id="ArialMT-34" d="M 2069 0 
L 2069 1097 
L 81 1097 
L 81 1613 
L 2172 4581 
L 2631 4581 
L 2631 1613 
L 3250 1613 
L 3250 1097 
L 2631 1097 
L 2631 0 
L 2069 0 
z
M 2069 1613 
L 2069 3678 
L 634 1613 
L 2069 1613 
z
" transform="scale(0.015625)"/>
       </defs>
       <use xlink:href="#ArialMT-34"/>
       <use xlink:href="#ArialMT-30" x="55.615234"/>
      </g>
     </g>
    </g>
    <g id="text_10">
     <!-- offload to cloud before layer -->
     <g style="fill: #262626" transform="translate(153.77756 345.465) scale(0.1 -0.1)">
      <defs>
       <path id="ArialMT-6f" d="M 213 1659 
Q 213 2581 725 3025 
Q 1153 3394 1769 3394 
Q 2453 3394 2887 2945 
Q 3322 2497 3322 1706 
Q 3322 1066 3130 698 
Q 2938 331 2570 128 
Q 2203 -75 1769 -75 
Q 1072 -75 642 372 
Q 213 819 213 1659 
z
M 791 1659 
Q 791 1022 1069 705 
Q 1347 388 1769 388 
Q 2188 388 2466 706 
Q 2744 1025 2744 1678 
Q 2744 2294 2464 2611 
Q 2184 2928 1769 2928 
Q 1347 2928 1069 2612 
Q 791 2297 791 1659 
z
" transform="scale(0.015625)"/>
       <path id="ArialMT-66" d="M 556 0 
L 556 2881 
L 59 2881 
L 59 3319 
L 556 3319 
L 556 3672 
Q 556 4006 616 4169 
Q 697 4388 901 4523 
Q 1106 4659 1475 4659 
Q 1713 4659 2000 4603 
L 1916 4113 
Q 1741 4144 1584 4144 
Q 1328 4144 1222 4034 
Q 1116 3925 1116 3625 
L 1116 3319 
L 1763 3319 
L 1763 2881 
L 1116 2881 
L 1116 0 
L 556 0 
z
" transform="scale(0.015625)"/>
       <path id="ArialMT-6c" d="M 409 0 
L 409 4581 
L 972 4581 
L 972 0 
L 409 0 
z
" transform="scale(0.015625)"/>
       <path id="ArialMT-61" d="M 2588 409 
Q 2275 144 1986 34 
Q 1697 -75 1366 -75 
Q 819 -75 525 192 
Q 231 459 231 875 
Q 231 1119 342 1320 
Q 453 1522 633 1644 
Q 813 1766 1038 1828 
Q 1203 1872 1538 1913 
Q 2219 1994 2541 2106 
Q 2544 2222 2544 2253 
Q 2544 2597 2384 2738 
Q 2169 2928 1744 2928 
Q 1347 2928 1158 2789 
Q 969 2650 878 2297 
L 328 2372 
Q 403 2725 575 2942 
Q 747 3159 1072 3276 
Q 1397 3394 1825 3394 
Q 2250 3394 2515 3294 
Q 2781 3194 2906 3042 
Q 3031 2891 3081 2659 
Q 3109 2516 3109 2141 
L 3109 1391 
Q 3109 606 3145 398 
Q 3181 191 3288 0 
L 2700 0 
Q 2613 175 2588 409 
z
M 2541 1666 
Q 2234 1541 1622 1453 
Q 1275 1403 1131 1340 
Q 988 1278 909 1158 
Q 831 1038 831 891 
Q 831 666 1001 516 
Q 1172 366 1500 366 
Q 1825 366 2078 508 
Q 2331 650 2450 897 
Q 2541 1088 2541 1459 
L 2541 1666 
z
" transform="scale(0.015625)"/>
       <path id="ArialMT-64" d="M 2575 0 
L 2575 419 
Q 2259 -75 1647 -75 
Q 1250 -75 917 144 
Q 584 363 401 755 
Q 219 1147 219 1656 
Q 219 2153 384 2558 
Q 550 2963 881 3178 
Q 1213 3394 1622 3394 
Q 1922 3394 2156 3267 
Q 2391 3141 2538 2938 
L 2538 4581 
L 3097 4581 
L 3097 0 
L 2575 0 
z
M 797 1656 
Q 797 1019 1065 703 
Q 1334 388 1700 388 
Q 2069 388 2326 689 
Q 2584 991 2584 1609 
Q 2584 2291 2321 2609 
Q 2059 2928 1675 2928 
Q 1300 2928 1048 2622 
Q 797 2316 797 1656 
z
" transform="scale(0.015625)"/>
       <path id="ArialMT-20" transform="scale(0.015625)"/>
       <path id="ArialMT-74" d="M 1650 503 
L 1731 6 
Q 1494 -44 1306 -44 
Q 1000 -44 831 53 
Q 663 150 594 308 
Q 525 466 525 972 
L 525 2881 
L 113 2881 
L 113 3319 
L 525 3319 
L 525 4141 
L 1084 4478 
L 1084 3319 
L 1650 3319 
L 1650 2881 
L 1084 2881 
L 1084 941 
Q 1084 700 1114 631 
Q 1144 563 1211 522 
Q 1278 481 1403 481 
Q 1497 481 1650 503 
z
" transform="scale(0.015625)"/>
       <path id="ArialMT-63" d="M 2588 1216 
L 3141 1144 
Q 3050 572 2676 248 
Q 2303 -75 1759 -75 
Q 1078 -75 664 370 
Q 250 816 250 1647 
Q 250 2184 428 2587 
Q 606 2991 970 3192 
Q 1334 3394 1763 3394 
Q 2303 3394 2647 3120 
Q 2991 2847 3088 2344 
L 2541 2259 
Q 2463 2594 2264 2762 
Q 2066 2931 1784 2931 
Q 1359 2931 1093 2626 
Q 828 2322 828 1663 
Q 828 994 1084 691 
Q 1341 388 1753 388 
Q 2084 388 2306 591 
Q 2528 794 2588 1216 
z
" transform="scale(0.015625)"/>
       <path id="ArialMT-75" d="M 2597 0 
L 2597 488 
Q 2209 -75 1544 -75 
Q 1250 -75 995 37 
Q 741 150 617 320 
Q 494 491 444 738 
Q 409 903 409 1263 
L 409 3319 
L 972 3319 
L 972 1478 
Q 972 1038 1006 884 
Q 1059 663 1231 536 
Q 1403 409 1656 409 
Q 1909 409 2131 539 
Q 2353 669 2445 892 
Q 2538 1116 2538 1541 
L 2538 3319 
L 3100 3319 
L 3100 0 
L 2597 0 
z
" transform="scale(0.015625)"/>
       <path id="ArialMT-62" d="M 941 0 
L 419 0 
L 419 4581 
L 981 4581 
L 981 2947 
Q 1338 3394 1891 3394 
Q 2197 3394 2470 3270 
Q 2744 3147 2920 2923 
Q 3097 2700 3197 2384 
Q 3297 2069 3297 1709 
Q 3297 856 2875 390 
Q 2453 -75 1863 -75 
Q 1275 -75 941 416 
L 941 0 
z
M 934 1684 
Q 934 1088 1097 822 
Q 1363 388 1816 388 
Q 2184 388 2453 708 
Q 2722 1028 2722 1663 
Q 2722 2313 2464 2622 
Q 2206 2931 1841 2931 
Q 1472 2931 1203 2611 
Q 934 2291 934 1684 
z
" transform="scale(0.015625)"/>
       <path id="ArialMT-65" d="M 2694 1069 
L 3275 997 
Q 3138 488 2766 206 
Q 2394 -75 1816 -75 
Q 1088 -75 661 373 
Q 234 822 234 1631 
Q 234 2469 665 2931 
Q 1097 3394 1784 3394 
Q 2450 3394 2872 2941 
Q 3294 2488 3294 1666 
Q 3294 1616 3291 1516 
L 816 1516 
Q 847 969 1125 678 
Q 1403 388 1819 388 
Q 2128 388 2347 550 
Q 2566 713 2694 1069 
z
M 847 1978 
L 2700 1978 
Q 2663 2397 2488 2606 
Q 2219 2931 1791 2931 
Q 1403 2931 1139 2672 
Q 875 2413 847 1978 
z
" transform="scale(0.015625)"/>
       <path id="ArialMT-72" d="M 416 0 
L 416 3319 
L 922 3319 
L 922 2816 
Q 1116 3169 1280 3281 
Q 1444 3394 1641 3394 
Q 1925 3394 2219 3213 
L 2025 2691 
Q 1819 2813 1613 2813 
Q 1428 2813 1281 2702 
Q 1134 2591 1072 2394 
Q 978 2094 978 1738 
L 978 0 
L 416 0 
z
" transform="scale(0.015625)"/>
       <path id="ArialMT-79" d="M 397 -1278 
L 334 -750 
Q 519 -800 656 -800 
Q 844 -800 956 -737 
Q 1069 -675 1141 -563 
Q 1194 -478 1313 -144 
Q 1328 -97 1363 -6 
L 103 3319 
L 709 3319 
L 1400 1397 
Q 1534 1031 1641 628 
Q 1738 1016 1872 1384 
L 2581 3319 
L 3144 3319 
L 1881 -56 
Q 1678 -603 1566 -809 
Q 1416 -1088 1222 -1217 
Q 1028 -1347 759 -1347 
Q 597 -1347 397 -1278 
z
" transform="scale(0.015625)"/>
      </defs>
      <use xlink:href="#ArialMT-6f"/>
      <use xlink:href="#ArialMT-66" x="55.615234"/>
      <use xlink:href="#ArialMT-66" x="81.648438"/>
      <use xlink:href="#ArialMT-6c" x="109.431641"/>
      <use xlink:href="#ArialMT-6f" x="131.648438"/>
      <use xlink:href="#ArialMT-61" x="187.263672"/>
      <use xlink:href="#ArialMT-64" x="242.878906"/>
      <use xlink:href="#ArialMT-20" x="298.494141"/>
      <use xlink:href="#ArialMT-74" x="326.277344"/>
      <use xlink:href="#ArialMT-6f" x="354.060547"/>
      <use xlink:href="#ArialMT-20" x="409.675781"/>
      <use xlink:href="#ArialMT-63" x="437.458984"/>
      <use xlink:href="#ArialMT-6c" x="487.458984"/>
      <use xlink:href="#ArialMT-6f" x="509.675781"/>
      <use xlink:href="#ArialMT-75" x="565.291016"/>
      <use xlink:href="#ArialMT-64" x="620.90625"/>
      <use xlink:href="#ArialMT-20" x="676.521484"/>
      <use xlink:href="#ArialMT-62" x="704.304688"/>
      <use xlink:href="#ArialMT-65" x="759.919922"/>
      <use xlink:href="#ArialMT-66" x="815.535156"/>
      <use xlink:href="#ArialMT-6f" x="843.318359"/>
      <use xlink:href="#ArialMT-72" x="898.933594"/>
      <use xlink:href="#ArialMT-65" x="932.234375"/>
      <use xlink:href="#ArialMT-20" x="987.849609"/>
      <use xlink:href="#ArialMT-6c" x="1015.632812"/>
      <use xlink:href="#ArialMT-61" x="1037.849609"/>
      <use xlink:href="#ArialMT-79" x="1093.464844"/>
      <use xlink:href="#ArialMT-65" x="1143.464844"/>
      <use xlink:href="#ArialMT-72" x="1199.080078"/>
     </g>
    </g>
   </g>
   <g id="matplotlib.axis_2">
    <g id="ytick_1">
     <g id="line2d_10">
      <path d="M 53.415148 305.22 
L 377.368098 305.22 
" clip-path="url(#p491537e449)" style="fill: none; stroke: #cccccc; stroke-width: 0.8; stroke-linecap: round"/>
     </g>
     <g id="text_11">
      <!-- 0 -->
      <g style="fill: #262626" transform="translate(40.85421 308.798906) scale(0.1 -0.1)">
       <use xlink:href="#ArialMT-30"/>
      </g>
     </g>
    </g>
    <g id="ytick_2">
     <g id="line2d_11">
      <path d="M 53.415148 257.132716 
L 377.368098 257.132716 
" clip-path="url(#p491537e449)" style="fill: none; stroke: #cccccc; stroke-width: 0.8; stroke-linecap: round"/>
     </g>
     <g id="text_12">
      <!-- 100 -->
      <g style="fill: #262626" transform="translate(29.732335 260.711622) scale(0.1 -0.1)">
       <use xlink:href="#ArialMT-31"/>
       <use xlink:href="#ArialMT-30" x="55.615234"/>
       <use xlink:href="#ArialMT-30" x="111.230469"/>
      </g>
     </g>
    </g>
    <g id="ytick_3">
     <g id="line2d_12">
      <path d="M 53.415148 209.045432 
L 377.368098 209.045432 
" clip-path="url(#p491537e449)" style="fill: none; stroke: #cccccc; stroke-width: 0.8; stroke-linecap: round"/>
     </g>
     <g id="text_13">
      <!-- 200 -->
      <g style="fill: #262626" transform="translate(29.732335 212.624338) scale(0.1 -0.1)">
       <use xlink:href="#ArialMT-32"/>
       <use xlink:href="#ArialMT-30" x="55.615234"/>
       <use xlink:href="#ArialMT-30" x="111.230469"/>
      </g>
     </g>
    </g>
    <g id="ytick_4">
     <g id="line2d_13">
      <path d="M 53.415148 160.958148 
L 377.368098 160.958148 
" clip-path="url(#p491537e449)" style="fill: none; stroke: #cccccc; stroke-width: 0.8; stroke-linecap: round"/>
     </g>
     <g id="text_14">
      <!-- 300 -->
      <g style="fill: #262626" transform="translate(29.732335 164.537054) scale(0.1 -0.1)">
       <use xlink:href="#ArialMT-33"/>
       <use xlink:href="#ArialMT-30" x="55.615234"/>
       <use xlink:href="#ArialMT-30" x="111.230469"/>
      </g>
     </g>
    </g>
    <g id="ytick_5">
     <g id="line2d_14">
      <path d="M 53.415148 112.870863 
L 377.368098 112.870863 
" clip-path="url(#p491537e449)" style="fill: none; stroke: #cccccc; stroke-width: 0.8; stroke-linecap: round"/>
     </g>
     <g id="text_15">
      <!-- 400 -->
      <g style="fill: #262626" transform="translate(29.732335 116.44977) scale(0.1 -0.1)">
       <use xlink:href="#ArialMT-34"/>
       <use xlink:href="#ArialMT-30" x="55.615234"/>
       <use xlink:href="#ArialMT-30" x="111.230469"/>
      </g>
     </g>
    </g>
    <g id="ytick_6">
     <g id="line2d_15">
      <path d="M 53.415148 64.783579 
L 377.368098 64.783579 
" clip-path="url(#p491537e449)" style="fill: none; stroke: #cccccc; stroke-width: 0.8; stroke-linecap: round"/>
     </g>
     <g id="text_16">
      <!-- 500 -->
      <g style="fill: #262626" transform="translate(29.732335 68.362485) scale(0.1 -0.1)">
       <use xlink:href="#ArialMT-35"/>
       <use xlink:href="#ArialMT-30" x="55.615234"/>
       <use xlink:href="#ArialMT-30" x="111.230469"/>
      </g>
     </g>
    </g>
    <g id="text_17">
     <!-- ms -->
     <g style="fill: #262626" transform="translate(23.744835 183.684844) rotate(-90) scale(0.1 -0.1)">
      <defs>
       <path id="ArialMT-6d" d="M 422 0 
L 422 3319 
L 925 3319 
L 925 2853 
Q 1081 3097 1340 3245 
Q 1600 3394 1931 3394 
Q 2300 3394 2536 3241 
Q 2772 3088 2869 2813 
Q 3263 3394 3894 3394 
Q 4388 3394 4653 3120 
Q 4919 2847 4919 2278 
L 4919 0 
L 4359 0 
L 4359 2091 
Q 4359 2428 4304 2576 
Q 4250 2725 4106 2815 
Q 3963 2906 3769 2906 
Q 3419 2906 3187 2673 
Q 2956 2441 2956 1928 
L 2956 0 
L 2394 0 
L 2394 2156 
Q 2394 2531 2256 2718 
Q 2119 2906 1806 2906 
Q 1569 2906 1367 2781 
Q 1166 2656 1075 2415 
Q 984 2175 984 1722 
L 984 0 
L 422 0 
z
" transform="scale(0.015625)"/>
       <path id="ArialMT-73" d="M 197 991 
L 753 1078 
Q 800 744 1014 566 
Q 1228 388 1613 388 
Q 2000 388 2187 545 
Q 2375 703 2375 916 
Q 2375 1106 2209 1216 
Q 2094 1291 1634 1406 
Q 1016 1563 777 1677 
Q 538 1791 414 1992 
Q 291 2194 291 2438 
Q 291 2659 392 2848 
Q 494 3038 669 3163 
Q 800 3259 1026 3326 
Q 1253 3394 1513 3394 
Q 1903 3394 2198 3281 
Q 2494 3169 2634 2976 
Q 2775 2784 2828 2463 
L 2278 2388 
Q 2241 2644 2061 2787 
Q 1881 2931 1553 2931 
Q 1166 2931 1000 2803 
Q 834 2675 834 2503 
Q 834 2394 903 2306 
Q 972 2216 1119 2156 
Q 1203 2125 1616 2013 
Q 2213 1853 2448 1751 
Q 2684 1650 2818 1456 
Q 2953 1263 2953 975 
Q 2953 694 2789 445 
Q 2625 197 2315 61 
Q 2006 -75 1616 -75 
Q 969 -75 630 194 
Q 291 463 197 991 
z
" transform="scale(0.015625)"/>
      </defs>
      <use xlink:href="#ArialMT-6d"/>
      <use xlink:href="#ArialMT-73" x="83.300781"/>
     </g>
    </g>
   </g>
   <g id="PolyCollection_1">
    <defs>
     <path id="m008ba7756a" d="M 68.140282 -56.01266 
L 68.140282 -55.956359 
L 75.502849 -64.386973 
L 82.865416 -83.017454 
L 90.227983 -84.073106 
L 97.59055 -79.50022 
L 104.953117 -75.23332 
L 112.315684 -64.453537 
L 119.678251 -76.66124 
L 127.040818 -82.163191 
L 134.403385 -74.625923 
L 141.765952 -76.428101 
L 149.128519 -74.310797 
L 156.491086 -75.175306 
L 163.853654 -66.929006 
L 171.216221 -67.398052 
L 178.578788 -66.572028 
L 185.941355 -67.364004 
L 193.303922 -67.373992 
L 200.666489 -67.660708 
L 208.029056 -67.364327 
L 215.391623 -67.454536 
L 222.75419 -66.698162 
L 230.116757 -63.876893 
L 237.479324 -64.116801 
L 244.841891 -63.993473 
L 252.204458 -64.382343 
L 259.567025 -64.440287 
L 266.929592 -64.922206 
L 274.29216 -64.572755 
L 281.654727 -65.038803 
L 289.017294 -65.022899 
L 296.379861 -65.707374 
L 303.742428 -65.694249 
L 311.104995 -71.86826 
L 318.467562 -71.946514 
L 325.830129 -78.514813 
L 333.192696 -78.452002 
L 340.555263 -84.884464 
L 347.91783 -86.250926 
L 355.280397 -82.983839 
L 362.642964 -85.986694 
L 362.642964 -86.803243 
L 362.642964 -86.803243 
L 355.280397 -83.070872 
L 347.91783 -86.708953 
L 340.555263 -85.326943 
L 333.192696 -79.583929 
L 325.830129 -79.912277 
L 318.467562 -73.128197 
L 311.104995 -72.775192 
L 303.742428 -66.298161 
L 296.379861 -66.692308 
L 289.017294 -65.782141 
L 281.654727 -66.287528 
L 274.29216 -64.889107 
L 266.929592 -65.270831 
L 259.567025 -65.335503 
L 252.204458 -64.943075 
L 244.841891 -65.163708 
L 237.479324 -64.382347 
L 230.116757 -64.253642 
L 222.75419 -67.423169 
L 215.391623 -68.839427 
L 208.029056 -68.472876 
L 200.666489 -68.480601 
L 193.303922 -68.635071 
L 185.941355 -68.066278 
L 178.578788 -67.773084 
L 171.216221 -69.620489 
L 163.853654 -68.605729 
L 156.491086 -77.732016 
L 149.128519 -76.470638 
L 141.765952 -78.032777 
L 134.403385 -75.937396 
L 127.040818 -85.083425 
L 119.678251 -79.024798 
L 112.315684 -65.917426 
L 104.953117 -76.933326 
L 97.59055 -82.598897 
L 90.227983 -85.381884 
L 82.865416 -84.534082 
L 75.502849 -66.095981 
L 68.140282 -56.01266 
z
" style="stroke: #1f77b4; stroke-opacity: 0.2"/>
    </defs>
    <g clip-path="url(#p491537e449)">
     <use xlink:href="#m008ba7756a" x="0" y="360" style="fill: #1f77b4; fill-opacity: 0.2; stroke: #1f77b4; stroke-opacity: 0.2"/>
    </g>
   </g>
   <g id="PolyCollection_2">
    <defs>
     <path id="mbd49601a26" d="M 68.140282 -102.468544 
L 68.140282 -101.093056 
L 75.502849 -104.042249 
L 82.865416 -103.648414 
L 90.227983 -109.699477 
L 97.59055 -106.582583 
L 104.953117 -107.271338 
L 112.315684 -100.422741 
L 119.678251 -105.495489 
L 127.040818 -105.199638 
L 134.403385 -105.202621 
L 141.765952 -102.407344 
L 149.128519 -103.327215 
L 156.491086 -102.052517 
L 163.853654 -95.144587 
L 171.216221 -89.940788 
L 178.578788 -86.652877 
L 185.941355 -85.543455 
L 193.303922 -83.218195 
L 200.666489 -82.61821 
L 208.029056 -80.966866 
L 215.391623 -79.72475 
L 222.75419 -76.152249 
L 230.116757 -74.587994 
L 237.479324 -72.200377 
L 244.841891 -71.812901 
L 252.204458 -71.084451 
L 259.567025 -70.028814 
L 266.929592 -68.073946 
L 274.29216 -68.656788 
L 281.654727 -66.006938 
L 289.017294 -65.663667 
L 296.379861 -68.417232 
L 303.742428 -68.790062 
L 311.104995 -60.205712 
L 318.467562 -59.950152 
L 325.830129 -58.14998 
L 333.192696 -57.80796 
L 340.555263 -55.647062 
L 347.91783 -55.264503 
L 355.280397 -55.144694 
L 362.642964 -54.78 
L 362.642964 -54.78 
L 362.642964 -54.78 
L 355.280397 -55.301747 
L 347.91783 -55.359235 
L 340.555263 -55.74724 
L 333.192696 -58.026883 
L 325.830129 -58.455667 
L 318.467562 -60.122773 
L 311.104995 -60.560621 
L 303.742428 -69.507606 
L 296.379861 -72.762192 
L 289.017294 -66.614184 
L 281.654727 -66.779147 
L 274.29216 -69.920618 
L 266.929592 -68.522865 
L 259.567025 -70.982241 
L 252.204458 -71.784409 
L 244.841891 -72.10027 
L 237.479324 -72.345203 
L 230.116757 -75.02068 
L 222.75419 -77.444547 
L 215.391623 -80.555539 
L 208.029056 -81.430358 
L 200.666489 -83.125386 
L 193.303922 -83.850062 
L 185.941355 -85.88075 
L 178.578788 -87.836353 
L 171.216221 -91.237071 
L 163.853654 -98.465831 
L 156.491086 -105.43767 
L 149.128519 -105.265163 
L 141.765952 -104.145011 
L 134.403385 -107.122792 
L 127.040818 -107.413889 
L 119.678251 -107.226589 
L 112.315684 -102.669669 
L 104.953117 -108.730062 
L 97.59055 -108.45998 
L 90.227983 -111.761797 
L 82.865416 -106.030591 
L 75.502849 -106.630523 
L 68.140282 -102.468544 
z
" style="stroke: #ff7f0e; stroke-opacity: 0.2"/>
    </defs>
    <g clip-path="url(#p491537e449)">
     <use xlink:href="#mbd49601a26" x="0" y="360" style="fill: #ff7f0e; fill-opacity: 0.2; stroke: #ff7f0e; stroke-opacity: 0.2"/>
    </g>
   </g>
   <g id="PolyCollection_3">
    <defs>
     <path id="mcda7120009" d="M 68.140282 -59.725422 
L 68.140282 -59.591851 
L 75.502849 -59.5548 
L 82.865416 -77.213136 
L 90.227983 -78.669196 
L 97.59055 -78.030934 
L 104.953117 -76.138903 
L 112.315684 -59.902778 
L 119.678251 -75.652032 
L 127.040818 -76.890615 
L 134.403385 -75.521427 
L 141.765952 -75.82462 
L 149.128519 -75.851525 
L 156.491086 -76.259501 
L 163.853654 -65.081821 
L 171.216221 -65.140647 
L 178.578788 -64.8509 
L 185.941355 -64.897794 
L 193.303922 -64.931976 
L 200.666489 -64.920229 
L 208.029056 -64.897685 
L 215.391623 -64.973146 
L 222.75419 -60.430479 
L 230.116757 -59.771393 
L 237.479324 -59.749125 
L 244.841891 -59.783916 
L 252.204458 -59.836667 
L 259.567025 -59.825138 
L 266.929592 -59.776497 
L 274.29216 -59.830087 
L 281.654727 -59.797136 
L 289.017294 -59.810046 
L 296.379861 -60.584291 
L 303.742428 -60.116792 
L 311.104995 -57.740936 
L 318.467562 -57.716194 
L 325.830129 -57.83206 
L 333.192696 -57.774531 
L 340.555263 -58.302436 
L 347.91783 -58.160381 
L 355.280397 -55.937268 
L 362.642964 -54.78 
L 362.642964 -54.78 
L 362.642964 -54.78 
L 355.280397 -56.142648 
L 347.91783 -58.481799 
L 340.555263 -58.702121 
L 333.192696 -57.995979 
L 325.830129 -58.132 
L 318.467562 -57.761141 
L 311.104995 -57.86438 
L 303.742428 -60.673217 
L 296.379861 -62.002865 
L 289.017294 -59.988679 
L 281.654727 -60.124544 
L 274.29216 -59.976588 
L 266.929592 -59.83341 
L 259.567025 -59.973073 
L 252.204458 -59.966826 
L 244.841891 -60.109827 
L 237.479324 -59.97058 
L 230.116757 -59.844691 
L 222.75419 -60.569112 
L 215.391623 -65.224438 
L 208.029056 -65.354413 
L 200.666489 -65.016227 
L 193.303922 -65.141081 
L 185.941355 -65.006991 
L 178.578788 -64.96404 
L 171.216221 -65.421393 
L 163.853654 -65.31516 
L 156.491086 -77.02952 
L 149.128519 -76.091557 
L 141.765952 -75.971159 
L 134.403385 -75.745818 
L 127.040818 -77.404029 
L 119.678251 -77.517483 
L 112.315684 -60.577115 
L 104.953117 -76.441346 
L 97.59055 -79.27372 
L 90.227983 -79.143712 
L 82.865416 -77.783261 
L 75.502849 -59.953276 
L 68.140282 -59.725422 
z
" style="stroke: #2ca02c; stroke-opacity: 0.2"/>
    </defs>
    <g clip-path="url(#p491537e449)">
     <use xlink:href="#mcda7120009" x="0" y="360" style="fill: #2ca02c; fill-opacity: 0.2; stroke: #2ca02c; stroke-opacity: 0.2"/>
    </g>
   </g>
   <g id="PolyCollection_4">
    <defs>
     <path id="mfa4cd4ea74" d="M 68.140282 -108.574078 
L 68.140282 -107.206098 
L 75.502849 -120.162409 
L 82.865416 -155.790836 
L 90.227983 -163.647882 
L 97.59055 -156.816948 
L 104.953117 -150.763895 
L 112.315684 -116.69307 
L 119.678251 -150.556557 
L 127.040818 -155.799948 
L 134.403385 -147.328179 
L 141.765952 -146.967205 
L 149.128519 -145.752991 
L 156.491086 -146.905605 
L 163.853654 -119.044815 
L 171.216221 -114.492011 
L 178.578788 -110.289975 
L 185.941355 -109.071175 
L 193.303922 -107.493836 
L 200.666489 -106.084925 
L 208.029056 -105.192643 
L 215.391623 -103.884799 
L 222.75419 -95.120679 
L 230.116757 -89.473581 
L 237.479324 -87.61236 
L 244.841891 -87.668855 
L 252.204458 -86.040185 
L 259.567025 -85.132378 
L 266.929592 -83.488714 
L 274.29216 -84.551017 
L 281.654727 -82.891276 
L 289.017294 -81.502832 
L 296.379861 -86.1379 
L 303.742428 -85.547341 
L 311.104995 -81.058622 
L 318.467562 -80.875861 
L 325.830129 -85.775888 
L 333.192696 -84.888356 
L 340.555263 -89.931897 
L 347.91783 -90.606693 
L 355.280397 -84.632762 
L 362.642964 -85.987949 
L 362.642964 -86.774824 
L 362.642964 -86.774824 
L 355.280397 -85.133772 
L 347.91783 -91.650022 
L 340.555263 -91.019684 
L 333.192696 -85.961315 
L 325.830129 -86.895756 
L 318.467562 -81.396881 
L 311.104995 -82.120569 
L 303.742428 -87.967601 
L 296.379861 -94.166358 
L 289.017294 -83.556192 
L 281.654727 -85.32444 
L 274.29216 -87.901411 
L 266.929592 -84.666682 
L 259.567025 -87.77504 
L 252.204458 -87.96005 
L 244.841891 -89.241572 
L 237.479324 -88.787641 
L 230.116757 -90.699158 
L 222.75419 -96.493264 
L 215.391623 -106.888276 
L 208.029056 -107.925532 
L 200.666489 -108.452067 
L 193.303922 -110.107931 
L 185.941355 -111.029871 
L 178.578788 -112.093996 
L 171.216221 -118.243333 
L 163.853654 -122.825126 
L 156.491086 -154.539565 
L 149.128519 -148.063655 
L 141.765952 -149.442089 
L 134.403385 -150.98258 
L 127.040818 -158.935461 
L 119.678251 -153.681498 
L 112.315684 -119.270005 
L 104.953117 -153.184093 
L 97.59055 -160.298238 
L 90.227983 -166.293964 
L 82.865416 -160.231253 
L 75.502849 -122.371727 
L 68.140282 -108.574078 
z
" style="stroke: #d62728; stroke-opacity: 0.2"/>
    </defs>
    <g clip-path="url(#p491537e449)">
     <use xlink:href="#mfa4cd4ea74" x="0" y="360" style="fill: #d62728; fill-opacity: 0.2; stroke: #d62728; stroke-opacity: 0.2"/>
    </g>
   </g>
   <g id="line2d_16">
    <path d="M 68.140282 304.017394 
L 75.502849 294.496149 
L 82.865416 276.112725 
L 90.227983 275.130098 
L 97.59055 278.771621 
L 104.953117 284.308386 
L 112.315684 294.85391 
L 119.678251 282.254813 
L 127.040818 276.658126 
L 134.403385 284.453621 
L 141.765952 282.430338 
L 149.128519 284.636703 
L 156.491086 283.563308 
L 163.853654 292.757104 
L 171.216221 291.896292 
L 178.578788 293.214863 
L 185.941355 292.215388 
L 193.303922 292.348963 
L 200.666489 291.943947 
L 208.029056 292.082023 
L 215.391623 291.634099 
L 222.75419 292.933243 
L 230.116757 295.894223 
L 237.479324 295.741605 
L 244.841891 295.675962 
L 252.204458 295.345357 
L 259.567025 295.313584 
L 266.929592 294.968009 
L 274.29216 295.21367 
L 281.654727 294.843731 
L 289.017294 294.557317 
L 296.379861 294.041964 
L 303.742428 294.171981 
L 311.104995 287.992638 
L 318.467562 287.635264 
L 325.830129 281.06933 
L 333.192696 281.399922 
L 340.555263 275.053419 
L 347.91783 273.553183 
L 355.280397 276.992029 
L 362.642964 273.687038 
" clip-path="url(#p491537e449)" style="fill: none; stroke: #1f77b4; stroke-width: 1.5; stroke-linecap: round"/>
   </g>
   <g id="line2d_17">
    <path d="M 68.140282 258.276376 
L 75.502849 254.822915 
L 82.865416 255.415375 
L 90.227983 249.241665 
L 97.59055 252.805269 
L 104.953117 251.830083 
L 112.315684 258.70856 
L 119.678251 254.032529 
L 127.040818 253.759465 
L 134.403385 253.566899 
L 141.765952 256.417586 
L 149.128519 255.413042 
L 156.491086 256.571128 
L 163.853654 263.488196 
L 171.216221 269.28103 
L 178.578788 273.010344 
L 185.941355 274.283887 
L 193.303922 276.423651 
L 200.666489 277.207714 
L 208.029056 278.914356 
L 215.391623 279.978408 
L 222.75419 283.528499 
L 230.116757 285.315158 
L 237.479324 287.723802 
L 244.841891 288.021583 
L 252.204458 288.583507 
L 259.567025 289.545108 
L 266.929592 291.729834 
L 274.29216 290.946107 
L 281.654727 293.561214 
L 289.017294 294.014268 
L 296.379861 289.575139 
L 303.742428 290.943799 
L 311.104995 299.708235 
L 318.467562 299.993393 
L 325.830129 301.668033 
L 333.192696 302.102622 
L 340.555263 304.311775 
L 347.91783 304.696257 
L 355.280397 304.799693 
L 362.642964 305.22 
" clip-path="url(#p491537e449)" style="fill: none; stroke: #ff7f0e; stroke-width: 1.5; stroke-linecap: round"/>
   </g>
   <g id="line2d_18">
    <path d="M 68.140282 300.380667 
L 75.502849 300.312874 
L 82.865416 282.624985 
L 90.227983 281.089733 
L 97.59055 281.073996 
L 104.953117 283.756519 
L 112.315684 299.56176 
L 119.678251 282.909544 
L 127.040818 282.79716 
L 134.403385 284.362659 
L 141.765952 284.093037 
L 149.128519 284.047589 
L 156.491086 283.516726 
L 163.853654 294.820522 
L 171.216221 294.77129 
L 178.578788 295.097586 
L 185.941355 295.076848 
L 193.303922 295.007036 
L 200.666489 295.032217 
L 208.029056 294.993225 
L 215.391623 294.945009 
L 222.75419 299.529992 
L 230.116757 300.202862 
L 237.479324 300.194139 
L 244.841891 300.01723 
L 252.204458 300.131913 
L 259.567025 300.141668 
L 266.929592 300.198595 
L 274.29216 300.121548 
L 281.654727 300.145233 
L 289.017294 300.142978 
L 296.379861 298.918034 
L 303.742428 299.585704 
L 311.104995 302.21789 
L 318.467562 302.269813 
L 325.830129 302.023494 
L 333.192696 302.159993 
L 340.555263 301.547866 
L 347.91783 301.753315 
L 355.280397 303.96118 
L 362.642964 305.22 
" clip-path="url(#p491537e449)" style="fill: none; stroke: #2ca02c; stroke-width: 1.5; stroke-linecap: round"/>
   </g>
   <g id="line2d_19">
    <path d="M 68.140282 252.019482 
L 75.502849 238.80429 
L 82.865416 202.554258 
L 90.227983 194.967887 
L 97.59055 201.602553 
L 104.953117 208.423185 
L 112.315684 241.772254 
L 119.678251 208.211398 
L 127.040818 202.823216 
L 134.403385 210.522897 
L 141.765952 212.232952 
L 149.128519 213.229684 
L 156.491086 209.894794 
L 163.853654 239.031118 
L 171.216221 243.124723 
L 178.578788 248.957445 
L 185.941355 249.908717 
L 193.303922 251.064273 
L 200.666489 252.729349 
L 208.029056 253.532661 
L 215.391623 254.421225 
L 222.75419 264.358643 
L 230.116757 269.778669 
L 237.479324 271.730926 
L 244.841891 271.494592 
L 252.204458 273.049314 
L 259.567025 274.056545 
L 266.929592 275.955737 
L 274.29216 273.913175 
L 281.654727 275.682199 
L 289.017294 277.53452 
L 296.379861 270.035648 
L 303.742428 273.731265 
L 311.104995 278.54273 
L 318.467562 278.748506 
L 325.830129 273.831734 
L 333.192696 274.512554 
L 340.555263 269.63858 
L 347.91783 268.968553 
L 355.280397 275.032893 
L 362.642964 273.687038 
" clip-path="url(#p491537e449)" style="fill: none; stroke: #d62728; stroke-width: 1.5; stroke-linecap: round"/>
   </g>
   <g id="line2d_20"/>
   <g id="line2d_21"/>
   <g id="line2d_22"/>
   <g id="line2d_23"/>
   <g id="patch_3">
    <path d="M 53.415148 318.04 
L 53.415148 36 
" style="fill: none; stroke: #cccccc; stroke-width: 0.8; stroke-linejoin: miter; stroke-linecap: square"/>
   </g>
   <g id="patch_4">
    <path d="M 53.415148 318.04 
L 377.368098 318.04 
" style="fill: none; stroke: #cccccc; stroke-width: 0.8; stroke-linejoin: miter; stroke-linecap: square"/>
   </g>
   <g id="text_18">
    <!-- client_pu = TPU -->
    <g style="fill: #262626" transform="translate(179.767404 30) scale(0.1 -0.1)">
     <defs>
      <path id="ArialMT-69" d="M 425 3934 
L 425 4581 
L 988 4581 
L 988 3934 
L 425 3934 
z
M 425 0 
L 425 3319 
L 988 3319 
L 988 0 
L 425 0 
z
" transform="scale(0.015625)"/>
      <path id="ArialMT-6e" d="M 422 0 
L 422 3319 
L 928 3319 
L 928 2847 
Q 1294 3394 1984 3394 
Q 2284 3394 2536 3286 
Q 2788 3178 2913 3003 
Q 3038 2828 3088 2588 
Q 3119 2431 3119 2041 
L 3119 0 
L 2556 0 
L 2556 2019 
Q 2556 2363 2490 2533 
Q 2425 2703 2258 2804 
Q 2091 2906 1866 2906 
Q 1506 2906 1245 2678 
Q 984 2450 984 1813 
L 984 0 
L 422 0 
z
" transform="scale(0.015625)"/>
      <path id="ArialMT-5f" d="M -97 -1272 
L -97 -866 
L 3631 -866 
L 3631 -1272 
L -97 -1272 
z
" transform="scale(0.015625)"/>
      <path id="ArialMT-70" d="M 422 -1272 
L 422 3319 
L 934 3319 
L 934 2888 
Q 1116 3141 1344 3267 
Q 1572 3394 1897 3394 
Q 2322 3394 2647 3175 
Q 2972 2956 3137 2557 
Q 3303 2159 3303 1684 
Q 3303 1175 3120 767 
Q 2938 359 2589 142 
Q 2241 -75 1856 -75 
Q 1575 -75 1351 44 
Q 1128 163 984 344 
L 984 -1272 
L 422 -1272 
z
M 931 1641 
Q 931 1000 1190 694 
Q 1450 388 1819 388 
Q 2194 388 2461 705 
Q 2728 1022 2728 1688 
Q 2728 2322 2467 2637 
Q 2206 2953 1844 2953 
Q 1484 2953 1207 2617 
Q 931 2281 931 1641 
z
" transform="scale(0.015625)"/>
      <path id="ArialMT-3d" d="M 3381 2694 
L 356 2694 
L 356 3219 
L 3381 3219 
L 3381 2694 
z
M 3381 1303 
L 356 1303 
L 356 1828 
L 3381 1828 
L 3381 1303 
z
" transform="scale(0.015625)"/>
      <path id="ArialMT-54" d="M 1659 0 
L 1659 4041 
L 150 4041 
L 150 4581 
L 3781 4581 
L 3781 4041 
L 2266 4041 
L 2266 0 
L 1659 0 
z
" transform="scale(0.015625)"/>
      <path id="ArialMT-50" d="M 494 0 
L 494 4581 
L 2222 4581 
Q 2678 4581 2919 4538 
Q 3256 4481 3484 4323 
Q 3713 4166 3852 3881 
Q 3991 3597 3991 3256 
Q 3991 2672 3619 2267 
Q 3247 1863 2275 1863 
L 1100 1863 
L 1100 0 
L 494 0 
z
M 1100 2403 
L 2284 2403 
Q 2872 2403 3119 2622 
Q 3366 2841 3366 3238 
Q 3366 3525 3220 3729 
Q 3075 3934 2838 4000 
Q 2684 4041 2272 4041 
L 1100 4041 
L 1100 2403 
z
" transform="scale(0.015625)"/>
      <path id="ArialMT-55" d="M 3500 4581 
L 4106 4581 
L 4106 1934 
Q 4106 1244 3950 837 
Q 3794 431 3386 176 
Q 2978 -78 2316 -78 
Q 1672 -78 1262 144 
Q 853 366 678 786 
Q 503 1206 503 1934 
L 503 4581 
L 1109 4581 
L 1109 1938 
Q 1109 1341 1220 1058 
Q 1331 775 1601 622 
Q 1872 469 2263 469 
Q 2931 469 3215 772 
Q 3500 1075 3500 1938 
L 3500 4581 
z
" transform="scale(0.015625)"/>
     </defs>
     <use xlink:href="#ArialMT-63"/>
     <use xlink:href="#ArialMT-6c" x="50"/>
     <use xlink:href="#ArialMT-69" x="72.216797"/>
     <use xlink:href="#ArialMT-65" x="94.433594"/>
     <use xlink:href="#ArialMT-6e" x="150.048828"/>
     <use xlink:href="#ArialMT-74" x="205.664062"/>
     <use xlink:href="#ArialMT-5f" x="233.447266"/>
     <use xlink:href="#ArialMT-70" x="289.0625"/>
     <use xlink:href="#ArialMT-75" x="344.677734"/>
     <use xlink:href="#ArialMT-20" x="400.292969"/>
     <use xlink:href="#ArialMT-3d" x="428.076172"/>
     <use xlink:href="#ArialMT-20" x="486.474609"/>
     <use xlink:href="#ArialMT-54" x="512.507812"/>
     <use xlink:href="#ArialMT-50" x="573.591797"/>
     <use xlink:href="#ArialMT-55" x="640.291016"/>
    </g>
   </g>
  </g>
  <g id="axes_2">
   <g id="patch_5">
    <path d="M 388.136949 318.04 
L 712.0899 318.04 
L 712.0899 36 
L 388.136949 36 
z
" style="fill: #ffffff"/>
   </g>
   <g id="matplotlib.axis_3">
    <g id="xtick_10">
     <g id="line2d_24">
      <path d="M 402.862083 318.04 
L 402.862083 36 
" clip-path="url(#pd2f12e36b5)" style="fill: none; stroke: #cccccc; stroke-width: 0.8; stroke-linecap: round"/>
     </g>
     <g id="text_19">
      <!-- 0 -->
      <g style="fill: #262626" transform="translate(400.081614 332.197812) scale(0.1 -0.1)">
       <use xlink:href="#ArialMT-30"/>
      </g>
     </g>
    </g>
    <g id="xtick_11">
     <g id="line2d_25">
      <path d="M 439.674919 318.04 
L 439.674919 36 
" clip-path="url(#pd2f12e36b5)" style="fill: none; stroke: #cccccc; stroke-width: 0.8; stroke-linecap: round"/>
     </g>
     <g id="text_20">
      <!-- 5 -->
      <g style="fill: #262626" transform="translate(436.89445 332.197812) scale(0.1 -0.1)">
       <use xlink:href="#ArialMT-35"/>
      </g>
     </g>
    </g>
    <g id="xtick_12">
     <g id="line2d_26">
      <path d="M 476.487754 318.04 
L 476.487754 36 
" clip-path="url(#pd2f12e36b5)" style="fill: none; stroke: #cccccc; stroke-width: 0.8; stroke-linecap: round"/>
     </g>
     <g id="text_21">
      <!-- 10 -->
      <g style="fill: #262626" transform="translate(470.926816 332.197812) scale(0.1 -0.1)">
       <use xlink:href="#ArialMT-31"/>
       <use xlink:href="#ArialMT-30" x="55.615234"/>
      </g>
     </g>
    </g>
    <g id="xtick_13">
     <g id="line2d_27">
      <path d="M 513.300589 318.04 
L 513.300589 36 
" clip-path="url(#pd2f12e36b5)" style="fill: none; stroke: #cccccc; stroke-width: 0.8; stroke-linecap: round"/>
     </g>
     <g id="text_22">
      <!-- 15 -->
      <g style="fill: #262626" transform="translate(507.739652 332.197812) scale(0.1 -0.1)">
       <use xlink:href="#ArialMT-31"/>
       <use xlink:href="#ArialMT-35" x="55.615234"/>
      </g>
     </g>
    </g>
    <g id="xtick_14">
     <g id="line2d_28">
      <path d="M 550.113425 318.04 
L 550.113425 36 
" clip-path="url(#pd2f12e36b5)" style="fill: none; stroke: #cccccc; stroke-width: 0.8; stroke-linecap: round"/>
     </g>
     <g id="text_23">
      <!-- 20 -->
      <g style="fill: #262626" transform="translate(544.552487 332.197812) scale(0.1 -0.1)">
       <use xlink:href="#ArialMT-32"/>
       <use xlink:href="#ArialMT-30" x="55.615234"/>
      </g>
     </g>
    </g>
    <g id="xtick_15">
     <g id="line2d_29">
      <path d="M 586.92626 318.04 
L 586.92626 36 
" clip-path="url(#pd2f12e36b5)" style="fill: none; stroke: #cccccc; stroke-width: 0.8; stroke-linecap: round"/>
     </g>
     <g id="text_24">
      <!-- 25 -->
      <g style="fill: #262626" transform="translate(581.365322 332.197812) scale(0.1 -0.1)">
       <use xlink:href="#ArialMT-32"/>
       <use xlink:href="#ArialMT-35" x="55.615234"/>
      </g>
     </g>
    </g>
    <g id="xtick_16">
     <g id="line2d_30">
      <path d="M 623.739095 318.04 
L 623.739095 36 
" clip-path="url(#pd2f12e36b5)" style="fill: none; stroke: #cccccc; stroke-width: 0.8; stroke-linecap: round"/>
     </g>
     <g id="text_25">
      <!-- 30 -->
      <g style="fill: #262626" transform="translate(618.178158 332.197812) scale(0.1 -0.1)">
       <use xlink:href="#ArialMT-33"/>
       <use xlink:href="#ArialMT-30" x="55.615234"/>
      </g>
     </g>
    </g>
    <g id="xtick_17">
     <g id="line2d_31">
      <path d="M 660.551931 318.04 
L 660.551931 36 
" clip-path="url(#pd2f12e36b5)" style="fill: none; stroke: #cccccc; stroke-width: 0.8; stroke-linecap: round"/>
     </g>
     <g id="text_26">
      <!-- 35 -->
      <g style="fill: #262626" transform="translate(654.990993 332.197812) scale(0.1 -0.1)">
       <use xlink:href="#ArialMT-33"/>
       <use xlink:href="#ArialMT-35" x="55.615234"/>
      </g>
     </g>
    </g>
    <g id="xtick_18">
     <g id="line2d_32">
      <path d="M 697.364766 318.04 
L 697.364766 36 
" clip-path="url(#pd2f12e36b5)" style="fill: none; stroke: #cccccc; stroke-width: 0.8; stroke-linecap: round"/>
     </g>
     <g id="text_27">
      <!-- 40 -->
      <g style="fill: #262626" transform="translate(691.803828 332.197812) scale(0.1 -0.1)">
       <use xlink:href="#ArialMT-34"/>
       <use xlink:href="#ArialMT-30" x="55.615234"/>
      </g>
     </g>
    </g>
    <g id="text_28">
     <!-- offload to cloud before layer -->
     <g style="fill: #262626" transform="translate(488.499362 345.465) scale(0.1 -0.1)">
      <use xlink:href="#ArialMT-6f"/>
      <use xlink:href="#ArialMT-66" x="55.615234"/>
      <use xlink:href="#ArialMT-66" x="81.648438"/>
      <use xlink:href="#ArialMT-6c" x="109.431641"/>
      <use xlink:href="#ArialMT-6f" x="131.648438"/>
      <use xlink:href="#ArialMT-61" x="187.263672"/>
      <use xlink:href="#ArialMT-64" x="242.878906"/>
      <use xlink:href="#ArialMT-20" x="298.494141"/>
      <use xlink:href="#ArialMT-74" x="326.277344"/>
      <use xlink:href="#ArialMT-6f" x="354.060547"/>
      <use xlink:href="#ArialMT-20" x="409.675781"/>
      <use xlink:href="#ArialMT-63" x="437.458984"/>
      <use xlink:href="#ArialMT-6c" x="487.458984"/>
      <use xlink:href="#ArialMT-6f" x="509.675781"/>
      <use xlink:href="#ArialMT-75" x="565.291016"/>
      <use xlink:href="#ArialMT-64" x="620.90625"/>
      <use xlink:href="#ArialMT-20" x="676.521484"/>
      <use xlink:href="#ArialMT-62" x="704.304688"/>
      <use xlink:href="#ArialMT-65" x="759.919922"/>
      <use xlink:href="#ArialMT-66" x="815.535156"/>
      <use xlink:href="#ArialMT-6f" x="843.318359"/>
      <use xlink:href="#ArialMT-72" x="898.933594"/>
      <use xlink:href="#ArialMT-65" x="932.234375"/>
      <use xlink:href="#ArialMT-20" x="987.849609"/>
      <use xlink:href="#ArialMT-6c" x="1015.632812"/>
      <use xlink:href="#ArialMT-61" x="1037.849609"/>
      <use xlink:href="#ArialMT-79" x="1093.464844"/>
      <use xlink:href="#ArialMT-65" x="1143.464844"/>
      <use xlink:href="#ArialMT-72" x="1199.080078"/>
     </g>
    </g>
   </g>
   <g id="matplotlib.axis_4">
    <g id="ytick_7">
     <g id="line2d_33">
      <path d="M 388.136949 305.22 
L 712.0899 305.22 
" clip-path="url(#pd2f12e36b5)" style="fill: none; stroke: #cccccc; stroke-width: 0.8; stroke-linecap: round"/>
     </g>
    </g>
    <g id="ytick_8">
     <g id="line2d_34">
      <path d="M 388.136949 257.132716 
L 712.0899 257.132716 
" clip-path="url(#pd2f12e36b5)" style="fill: none; stroke: #cccccc; stroke-width: 0.8; stroke-linecap: round"/>
     </g>
    </g>
    <g id="ytick_9">
     <g id="line2d_35">
      <path d="M 388.136949 209.045432 
L 712.0899 209.045432 
" clip-path="url(#pd2f12e36b5)" style="fill: none; stroke: #cccccc; stroke-width: 0.8; stroke-linecap: round"/>
     </g>
    </g>
    <g id="ytick_10">
     <g id="line2d_36">
      <path d="M 388.136949 160.958148 
L 712.0899 160.958148 
" clip-path="url(#pd2f12e36b5)" style="fill: none; stroke: #cccccc; stroke-width: 0.8; stroke-linecap: round"/>
     </g>
    </g>
    <g id="ytick_11">
     <g id="line2d_37">
      <path d="M 388.136949 112.870863 
L 712.0899 112.870863 
" clip-path="url(#pd2f12e36b5)" style="fill: none; stroke: #cccccc; stroke-width: 0.8; stroke-linecap: round"/>
     </g>
    </g>
    <g id="ytick_12">
     <g id="line2d_38">
      <path d="M 388.136949 64.783579 
L 712.0899 64.783579 
" clip-path="url(#pd2f12e36b5)" style="fill: none; stroke: #cccccc; stroke-width: 0.8; stroke-linecap: round"/>
     </g>
    </g>
   </g>
   <g id="PolyCollection_5">
    <defs>
     <path id="mf43ed86be7" d="M 402.862083 -56.040916 
L 402.862083 -55.921549 
L 410.22465 -60.449629 
L 417.587217 -92.183621 
L 424.949784 -90.626165 
L 432.312351 -90.72806 
L 439.674919 -92.059147 
L 447.037486 -88.607957 
L 454.400053 -106.348802 
L 461.76262 -107.104465 
L 469.125187 -120.77525 
L 476.487754 -121.037861 
L 483.850321 -134.11836 
L 491.212888 -134.138698 
L 498.575455 -150.060228 
L 505.938022 -149.912084 
L 513.300589 -163.504627 
L 520.663156 -163.02814 
L 528.025723 -176.842171 
L 535.38829 -176.426966 
L 542.750857 -189.454593 
L 550.113425 -188.767067 
L 557.475992 -204.720765 
L 564.838559 -203.994983 
L 572.201126 -216.582596 
L 579.563693 -216.344513 
L 586.92626 -229.063139 
L 594.288827 -228.356512 
L 601.651394 -241.273551 
L 609.013961 -241.079887 
L 616.376528 -252.698695 
L 623.739095 -252.000587 
L 631.101662 -264.576807 
L 638.464229 -265.54372 
L 645.826796 -282.231365 
L 653.189363 -281.650079 
L 660.551931 -294.643221 
L 667.914498 -294.386001 
L 675.277065 -307.130727 
L 682.639632 -306.974164 
L 690.002199 -306.541685 
L 697.364766 -306.659256 
L 697.364766 -306.770259 
L 697.364766 -306.770259 
L 690.002199 -306.686138 
L 682.639632 -307.084565 
L 675.277065 -307.21764 
L 667.914498 -294.605843 
L 660.551931 -294.820772 
L 653.189363 -281.896013 
L 645.826796 -282.795969 
L 638.464229 -265.973155 
L 631.101662 -264.977811 
L 623.739095 -252.165713 
L 616.376528 -252.745857 
L 609.013961 -241.300312 
L 601.651394 -241.666152 
L 594.288827 -228.624294 
L 586.92626 -229.368032 
L 579.563693 -216.435604 
L 572.201126 -216.712075 
L 564.838559 -204.180086 
L 557.475992 -204.848295 
L 550.113425 -188.931884 
L 542.750857 -189.602994 
L 535.38829 -176.534767 
L 528.025723 -177.12473 
L 520.663156 -163.206573 
L 513.300589 -163.673656 
L 505.938022 -150.060129 
L 498.575455 -150.202863 
L 491.212888 -134.28714 
L 483.850321 -134.229361 
L 476.487754 -121.105495 
L 469.125187 -120.884407 
L 461.76262 -107.245285 
L 454.400053 -106.415817 
L 447.037486 -88.688592 
L 439.674919 -92.146514 
L 432.312351 -90.848922 
L 424.949784 -90.695727 
L 417.587217 -92.325063 
L 410.22465 -61.787898 
L 402.862083 -56.040916 
z
" style="stroke: #1f77b4; stroke-opacity: 0.2"/>
    </defs>
    <g clip-path="url(#pd2f12e36b5)">
     <use xlink:href="#mf43ed86be7" x="0" y="360" style="fill: #1f77b4; fill-opacity: 0.2; stroke: #1f77b4; stroke-opacity: 0.2"/>
    </g>
   </g>
   <g id="PolyCollection_6">
    <defs>
     <path id="m7c8fe29083" d="M 402.862083 -120.777297 
L 402.862083 -118.869169 
L 410.22465 -123.001166 
L 417.587217 -119.997658 
L 424.949784 -109.193623 
L 432.312351 -112.060004 
L 439.674919 -105.703983 
L 447.037486 -100.422815 
L 454.400053 -105.688997 
L 461.76262 -100.972392 
L 469.125187 -102.472512 
L 476.487754 -101.433869 
L 483.850321 -100.624758 
L 491.212888 -94.997776 
L 498.575455 -89.143414 
L 505.938022 -87.267903 
L 513.300589 -85.130722 
L 520.663156 -85.950322 
L 528.025723 -86.778168 
L 535.38829 -87.900915 
L 542.750857 -81.61525 
L 550.113425 -81.385918 
L 557.475992 -76.814948 
L 564.838559 -79.714796 
L 572.201126 -77.770386 
L 579.563693 -75.43175 
L 586.92626 -71.731237 
L 594.288827 -71.364751 
L 601.651394 -69.637684 
L 609.013961 -70.028639 
L 616.376528 -67.030448 
L 623.739095 -66.16307 
L 631.101662 -63.769389 
L 638.464229 -63.38106 
L 645.826796 -60.090375 
L 653.189363 -59.883023 
L 660.551931 -57.806229 
L 667.914498 -57.589355 
L 675.277065 -55.449447 
L 682.639632 -55.214493 
L 690.002199 -55.083527 
L 697.364766 -54.78 
L 697.364766 -54.78 
L 697.364766 -54.78 
L 690.002199 -55.158158 
L 682.639632 -55.251929 
L 675.277065 -55.488494 
L 667.914498 -57.717436 
L 660.551931 -58.001223 
L 653.189363 -60.13524 
L 645.826796 -60.554778 
L 638.464229 -63.45473 
L 631.101662 -63.843275 
L 623.739095 -66.713633 
L 616.376528 -67.684199 
L 609.013961 -72.845383 
L 601.651394 -71.989189 
L 594.288827 -74.96375 
L 586.92626 -73.883852 
L 579.563693 -77.295188 
L 572.201126 -81.297444 
L 564.838559 -82.152532 
L 557.475992 -78.907578 
L 550.113425 -85.821785 
L 542.750857 -82.914379 
L 535.38829 -94.08972 
L 528.025723 -92.034784 
L 520.663156 -87.968281 
L 513.300589 -85.393183 
L 505.938022 -88.081935 
L 498.575455 -91.674825 
L 491.212888 -96.287645 
L 483.850321 -103.081273 
L 476.487754 -103.603645 
L 469.125187 -104.347098 
L 461.76262 -102.311684 
L 454.400053 -108.342166 
L 447.037486 -101.89621 
L 439.674919 -107.631628 
L 432.312351 -118.90586 
L 424.949784 -111.630038 
L 417.587217 -124.479321 
L 410.22465 -131.398924 
L 402.862083 -120.777297 
z
" style="stroke: #ff7f0e; stroke-opacity: 0.2"/>
    </defs>
    <g clip-path="url(#pd2f12e36b5)">
     <use xlink:href="#m7c8fe29083" x="0" y="360" style="fill: #ff7f0e; fill-opacity: 0.2; stroke: #ff7f0e; stroke-opacity: 0.2"/>
    </g>
   </g>
   <g id="PolyCollection_7">
    <defs>
     <path id="m704388a873" d="M 402.862083 -60.199354 
L 402.862083 -59.724637 
L 410.22465 -60.062005 
L 417.587217 -76.868607 
L 424.949784 -75.436177 
L 432.312351 -76.231472 
L 439.674919 -75.868727 
L 447.037486 -59.644882 
L 454.400053 -76.060307 
L 461.76262 -75.812877 
L 469.125187 -76.589832 
L 476.487754 -75.87003 
L 483.850321 -76.424571 
L 491.212888 -76.186427 
L 498.575455 -65.087029 
L 505.938022 -65.634883 
L 513.300589 -67.044484 
L 520.663156 -65.52106 
L 528.025723 -66.025224 
L 535.38829 -65.96109 
L 542.750857 -65.654193 
L 550.113425 -66.670873 
L 557.475992 -59.986576 
L 564.838559 -59.990806 
L 572.201126 -60.484186 
L 579.563693 -59.927817 
L 586.92626 -59.95267 
L 594.288827 -60.012391 
L 601.651394 -60.116013 
L 609.013961 -60.01825 
L 616.376528 -59.792526 
L 623.739095 -59.760321 
L 631.101662 -59.75301 
L 638.464229 -59.744104 
L 645.826796 -57.747759 
L 653.189363 -57.765175 
L 660.551931 -57.6977 
L 667.914498 -57.716505 
L 675.277065 -57.658994 
L 682.639632 -57.663306 
L 690.002199 -55.858075 
L 697.364766 -54.78 
L 697.364766 -54.78 
L 697.364766 -54.78 
L 690.002199 -56.013721 
L 682.639632 -57.907605 
L 675.277065 -57.742537 
L 667.914498 -57.790153 
L 660.551931 -57.776407 
L 653.189363 -57.829379 
L 645.826796 -57.846555 
L 638.464229 -59.811678 
L 631.101662 -59.864397 
L 623.739095 -59.84855 
L 616.376528 -59.903481 
L 609.013961 -62.766468 
L 601.651394 -62.213347 
L 594.288827 -61.924274 
L 586.92626 -62.844985 
L 579.563693 -61.46522 
L 572.201126 -64.232112 
L 564.838559 -61.844849 
L 557.475992 -60.683848 
L 550.113425 -69.773357 
L 542.750857 -66.8382 
L 535.38829 -69.206799 
L 528.025723 -70.631978 
L 520.663156 -68.709462 
L 513.300589 -69.357728 
L 505.938022 -67.664954 
L 498.575455 -65.675995 
L 491.212888 -78.203379 
L 483.850321 -78.296263 
L 476.487754 -76.651955 
L 469.125187 -78.40895 
L 461.76262 -76.406023 
L 454.400053 -76.966015 
L 447.037486 -59.808959 
L 439.674919 -76.122654 
L 432.312351 -78.578078 
L 424.949784 -77.032904 
L 417.587217 -78.30954 
L 410.22465 -60.573546 
L 402.862083 -60.199354 
z
" style="stroke: #2ca02c; stroke-opacity: 0.2"/>
    </defs>
    <g clip-path="url(#pd2f12e36b5)">
     <use xlink:href="#m704388a873" x="0" y="360" style="fill: #2ca02c; fill-opacity: 0.2; stroke: #2ca02c; stroke-opacity: 0.2"/>
    </g>
   </g>
   <g id="PolyCollection_8">
    <defs>
     <path id="mfda33fc8a2" d="M 402.862083 -127.623334 
L 402.862083 -125.625408 
L 410.22465 -134.38436 
L 417.587217 -179.925602 
L 424.949784 -166.907531 
L 432.312351 -171.557969 
L 439.674919 -165.043129 
L 447.037486 -139.77804 
L 454.400053 -179.543189 
L 461.76262 -175.365082 
L 469.125187 -192.071953 
L 476.487754 -190.591085 
L 483.850321 -202.600979 
L 491.212888 -196.994147 
L 498.575455 -197.340216 
L 505.938022 -194.576053 
L 513.300589 -207.418967 
L 520.663156 -206.831804 
L 528.025723 -222.330941 
L 535.38829 -222.115697 
L 542.750857 -228.154878 
L 550.113425 -229.736045 
L 557.475992 -232.805455 
L 564.838559 -235.248924 
L 572.201126 -247.402295 
L 579.563693 -243.426808 
L 586.92626 -251.81523 
L 594.288827 -250.903368 
L 601.651394 -262.679881 
L 609.013961 -263.04263 
L 616.376528 -270.47086 
L 623.739095 -268.633473 
L 631.101662 -278.727852 
L 638.464229 -279.41688 
L 645.826796 -290.988221 
L 653.189363 -289.969182 
L 660.551931 -300.733695 
L 667.914498 -300.306293 
L 675.277065 -310.786567 
L 682.639632 -310.580351 
L 690.002199 -308.063872 
L 697.364766 -306.658784 
L 697.364766 -306.769951 
L 697.364766 -306.769951 
L 690.002199 -308.263006 
L 682.639632 -311.18 
L 675.277065 -311.016103 
L 667.914498 -300.983556 
L 660.551931 -301.144844 
L 653.189363 -290.734439 
L 645.826796 -291.832208 
L 638.464229 -279.915254 
L 631.101662 -279.35114 
L 623.739095 -269.627933 
L 616.376528 -272.104742 
L 609.013961 -268.27512 
L 601.651394 -267.354931 
L 594.288827 -256.993365 
L 586.92626 -256.921868 
L 579.563693 -247.690492 
L 572.201126 -252.141881 
L 564.838559 -240.841075 
L 557.475992 -237.520042 
L 550.113425 -233.737058 
L 542.750857 -230.716611 
L 535.38829 -232.05326 
L 528.025723 -235.052844 
L 520.663156 -210.440553 
L 513.300589 -208.72135 
L 505.938022 -195.998576 
L 498.575455 -199.491307 
L 491.212888 -199.433007 
L 483.850321 -205.291684 
L 476.487754 -193.209392 
L 469.125187 -194.967259 
L 461.76262 -177.259988 
L 454.400053 -182.763397 
L 447.037486 -142.378801 
L 439.674919 -167.051714 
L 432.312351 -181.237164 
L 424.949784 -170.836178 
L 417.587217 -187.918924 
L 410.22465 -144.076286 
L 402.862083 -127.623334 
z
" style="stroke: #d62728; stroke-opacity: 0.2"/>
    </defs>
    <g clip-path="url(#pd2f12e36b5)">
     <use xlink:href="#mfda33fc8a2" x="0" y="360" style="fill: #d62728; fill-opacity: 0.2; stroke: #d62728; stroke-opacity: 0.2"/>
    </g>
   </g>
   <g id="line2d_39">
    <path d="M 402.862083 304.02763 
L 410.22465 298.884408 
L 417.587217 267.755807 
L 424.949784 269.342204 
L 432.312351 269.207276 
L 439.674919 267.895611 
L 447.037486 271.351485 
L 454.400053 253.608298 
L 461.76262 252.825174 
L 469.125187 239.184918 
L 476.487754 238.932534 
L 483.850321 225.818161 
L 491.212888 225.785356 
L 498.575455 209.877652 
L 505.938022 209.98579 
L 513.300589 196.423955 
L 520.663156 196.875241 
L 528.025723 183.048013 
L 535.38829 183.505555 
L 542.750857 170.464243 
L 550.113425 171.130406 
L 557.475992 155.201865 
L 564.838559 155.901697 
L 572.201126 143.359472 
L 579.563693 143.609262 
L 586.92626 130.726646 
L 594.288827 131.537434 
L 601.651394 118.552896 
L 609.013961 118.757041 
L 616.376528 107.282024 
L 623.739095 107.918753 
L 631.101662 95.304761 
L 638.464229 94.235467 
L 645.826796 77.345564 
L 653.189363 78.289193 
L 660.551931 65.252371 
L 667.914498 65.529885 
L 675.277065 52.836185 
L 682.639632 52.989817 
L 690.002199 53.38651 
L 697.364766 53.287619 
" clip-path="url(#pd2f12e36b5)" style="fill: none; stroke: #1f77b4; stroke-width: 1.5; stroke-linecap: round"/>
   </g>
   <g id="line2d_40">
    <path d="M 402.862083 240.145258 
L 410.22465 234.197726 
L 417.587217 237.929588 
L 424.949784 249.930154 
L 432.312351 245.343469 
L 439.674919 253.308334 
L 447.037486 258.799469 
L 454.400053 253.058881 
L 461.76262 258.392555 
L 469.125187 256.773047 
L 476.487754 257.810194 
L 483.850321 258.387698 
L 491.212888 264.240834 
L 498.575455 269.71372 
L 505.938022 272.415889 
L 513.300589 274.758966 
L 520.663156 273.368979 
L 528.025723 272.106351 
L 535.38829 270.464651 
L 542.750857 277.900099 
L 550.113425 276.968985 
L 557.475992 281.651653 
L 564.838559 279.2074 
L 572.201126 280.784471 
L 579.563693 283.5423 
L 586.92626 287.506905 
L 594.288827 287.367307 
L 601.651394 288.827333 
L 609.013961 288.189912 
L 616.376528 292.565975 
L 623.739095 293.597448 
L 631.101662 296.195772 
L 638.464229 296.584798 
L 645.826796 299.747883 
L 653.189363 300.036672 
L 660.551931 302.090864 
L 667.914498 302.337552 
L 675.277065 304.537401 
L 682.639632 304.771394 
L 690.002199 304.881778 
L 697.364766 305.22 
" clip-path="url(#pd2f12e36b5)" style="fill: none; stroke: #ff7f0e; stroke-width: 1.5; stroke-linecap: round"/>
   </g>
   <g id="line2d_41">
    <path d="M 402.862083 300.018006 
L 410.22465 299.70273 
L 417.587217 282.698307 
L 424.949784 284.142053 
L 432.312351 282.931657 
L 439.674919 284.054572 
L 447.037486 300.304086 
L 454.400053 283.682926 
L 461.76262 283.945051 
L 469.125187 282.782464 
L 476.487754 283.689987 
L 483.850321 282.913102 
L 491.212888 283.249129 
L 498.575455 294.741617 
L 505.938022 294.107947 
L 513.300589 291.415236 
L 520.663156 293.968417 
L 528.025723 291.855091 
L 535.38829 293.004046 
L 542.750857 294.078296 
L 550.113425 291.569431 
L 557.475992 299.711636 
L 564.838559 299.232323 
L 572.201126 298.089602 
L 579.563693 299.64565 
L 586.92626 299.526589 
L 594.288827 299.415909 
L 601.651394 299.312147 
L 609.013961 299.498851 
L 616.376528 300.171668 
L 623.739095 300.206604 
L 631.101662 300.198009 
L 638.464229 300.224977 
L 645.826796 302.231267 
L 653.189363 302.191543 
L 660.551931 302.267452 
L 667.914498 302.25689 
L 675.277065 302.311528 
L 682.639632 302.292086 
L 690.002199 304.032312 
L 697.364766 305.22 
" clip-path="url(#pd2f12e36b5)" style="fill: none; stroke: #2ca02c; stroke-width: 1.5; stroke-linecap: round"/>
   </g>
   <g id="line2d_42">
    <path d="M 402.862083 233.942242 
L 410.22465 221.039014 
L 417.587217 177.188348 
L 424.949784 191.792042 
L 432.312351 184.784523 
L 439.674919 193.912221 
L 447.037486 219.287019 
L 454.400053 178.781151 
L 461.76262 183.738165 
L 469.125187 166.433843 
L 476.487754 167.95161 
L 483.850321 156.147735 
L 491.212888 161.951439 
L 498.575455 161.483501 
L 505.938022 164.864676 
L 513.300589 151.923803 
L 520.663156 151.836699 
L 528.025723 134.624735 
L 535.38829 132.820158 
L 542.750857 131.275781 
L 550.113425 128.69482 
L 557.475992 125.080355 
L 564.838559 121.950546 
L 572.201126 110.429912 
L 579.563693 113.91983 
L 586.92626 106.397239 
L 594.288827 106.086105 
L 601.651394 96.398593 
L 609.013961 94.716843 
L 616.376528 89.147999 
L 623.739095 91.100024 
L 631.101662 80.921317 
L 638.464229 80.267503 
L 645.826796 68.697437 
L 653.189363 69.811538 
L 660.551931 59.124365 
L 667.914498 59.392548 
L 675.277065 49.121563 
L 682.639632 49.082563 
L 690.002199 51.859291 
L 697.364766 53.287619 
" clip-path="url(#pd2f12e36b5)" style="fill: none; stroke: #d62728; stroke-width: 1.5; stroke-linecap: round"/>
   </g>
   <g id="patch_6">
    <path d="M 388.136949 318.04 
L 388.136949 36 
" style="fill: none; stroke: #cccccc; stroke-width: 0.8; stroke-linejoin: miter; stroke-linecap: square"/>
   </g>
   <g id="patch_7">
    <path d="M 388.136949 318.04 
L 712.0899 318.04 
" style="fill: none; stroke: #cccccc; stroke-width: 0.8; stroke-linejoin: miter; stroke-linecap: square"/>
   </g>
   <g id="text_29">
    <!-- client_pu = CPU -->
    <g style="fill: #262626" transform="translate(513.844675 30) scale(0.1 -0.1)">
     <defs>
      <path id="ArialMT-43" d="M 3763 1606 
L 4369 1453 
Q 4178 706 3683 314 
Q 3188 -78 2472 -78 
Q 1731 -78 1267 223 
Q 803 525 561 1097 
Q 319 1669 319 2325 
Q 319 3041 592 3573 
Q 866 4106 1370 4382 
Q 1875 4659 2481 4659 
Q 3169 4659 3637 4309 
Q 4106 3959 4291 3325 
L 3694 3184 
Q 3534 3684 3231 3912 
Q 2928 4141 2469 4141 
Q 1941 4141 1586 3887 
Q 1231 3634 1087 3207 
Q 944 2781 944 2328 
Q 944 1744 1114 1308 
Q 1284 872 1643 656 
Q 2003 441 2422 441 
Q 2931 441 3284 734 
Q 3638 1028 3763 1606 
z
" transform="scale(0.015625)"/>
     </defs>
     <use xlink:href="#ArialMT-63"/>
     <use xlink:href="#ArialMT-6c" x="50"/>
     <use xlink:href="#ArialMT-69" x="72.216797"/>
     <use xlink:href="#ArialMT-65" x="94.433594"/>
     <use xlink:href="#ArialMT-6e" x="150.048828"/>
     <use xlink:href="#ArialMT-74" x="205.664062"/>
     <use xlink:href="#ArialMT-5f" x="233.447266"/>
     <use xlink:href="#ArialMT-70" x="289.0625"/>
     <use xlink:href="#ArialMT-75" x="344.677734"/>
     <use xlink:href="#ArialMT-20" x="400.292969"/>
     <use xlink:href="#ArialMT-3d" x="428.076172"/>
     <use xlink:href="#ArialMT-20" x="486.474609"/>
     <use xlink:href="#ArialMT-43" x="514.257812"/>
     <use xlink:href="#ArialMT-50" x="586.474609"/>
     <use xlink:href="#ArialMT-55" x="653.173828"/>
    </g>
   </g>
  </g>
  <g id="text_30">
   <!-- ResNet50 latency -->
   <g style="fill: #262626" transform="translate(348.149063 15.825) scale(0.12 -0.12)">
    <defs>
     <path id="ArialMT-52" d="M 503 0 
L 503 4581 
L 2534 4581 
Q 3147 4581 3465 4457 
Q 3784 4334 3975 4021 
Q 4166 3709 4166 3331 
Q 4166 2844 3850 2509 
Q 3534 2175 2875 2084 
Q 3116 1969 3241 1856 
Q 3506 1613 3744 1247 
L 4541 0 
L 3778 0 
L 3172 953 
Q 2906 1366 2734 1584 
Q 2563 1803 2427 1890 
Q 2291 1978 2150 2013 
Q 2047 2034 1813 2034 
L 1109 2034 
L 1109 0 
L 503 0 
z
M 1109 2559 
L 2413 2559 
Q 2828 2559 3062 2645 
Q 3297 2731 3419 2920 
Q 3541 3109 3541 3331 
Q 3541 3656 3305 3865 
Q 3069 4075 2559 4075 
L 1109 4075 
L 1109 2559 
z
" transform="scale(0.015625)"/>
     <path id="ArialMT-4e" d="M 488 0 
L 488 4581 
L 1109 4581 
L 3516 984 
L 3516 4581 
L 4097 4581 
L 4097 0 
L 3475 0 
L 1069 3600 
L 1069 0 
L 488 0 
z
" transform="scale(0.015625)"/>
    </defs>
    <use xlink:href="#ArialMT-52"/>
    <use xlink:href="#ArialMT-65" x="72.216797"/>
    <use xlink:href="#ArialMT-73" x="127.832031"/>
    <use xlink:href="#ArialMT-4e" x="177.832031"/>
    <use xlink:href="#ArialMT-65" x="250.048828"/>
    <use xlink:href="#ArialMT-74" x="305.664062"/>
    <use xlink:href="#ArialMT-35" x="333.447266"/>
    <use xlink:href="#ArialMT-30" x="389.0625"/>
    <use xlink:href="#ArialMT-20" x="444.677734"/>
    <use xlink:href="#ArialMT-6c" x="472.460938"/>
    <use xlink:href="#ArialMT-61" x="494.677734"/>
    <use xlink:href="#ArialMT-74" x="550.292969"/>
    <use xlink:href="#ArialMT-65" x="578.076172"/>
    <use xlink:href="#ArialMT-6e" x="633.691406"/>
    <use xlink:href="#ArialMT-63" x="689.306641"/>
    <use xlink:href="#ArialMT-79" x="739.306641"/>
   </g>
  </g>
  <g id="legend_1">
   <g id="text_31">
    <!-- variable -->
    <g style="fill: #262626" transform="translate(732.995156 154.294531) scale(0.1 -0.1)">
     <defs>
      <path id="ArialMT-76" d="M 1344 0 
L 81 3319 
L 675 3319 
L 1388 1331 
Q 1503 1009 1600 663 
Q 1675 925 1809 1294 
L 2547 3319 
L 3125 3319 
L 1869 0 
L 1344 0 
z
" transform="scale(0.015625)"/>
     </defs>
     <use xlink:href="#ArialMT-76"/>
     <use xlink:href="#ArialMT-61" x="50"/>
     <use xlink:href="#ArialMT-72" x="105.615234"/>
     <use xlink:href="#ArialMT-69" x="138.916016"/>
     <use xlink:href="#ArialMT-61" x="161.132812"/>
     <use xlink:href="#ArialMT-62" x="216.748047"/>
     <use xlink:href="#ArialMT-6c" x="272.363281"/>
     <use xlink:href="#ArialMT-65" x="294.580078"/>
    </g>
   </g>
   <g id="line2d_43">
    <path d="M 718.9975 164.939844 
L 728.9975 164.939844 
L 738.9975 164.939844 
" style="fill: none; stroke: #1f77b4; stroke-width: 1.5; stroke-linecap: round"/>
   </g>
   <g id="text_32">
    <!-- client -->
    <g style="fill: #262626" transform="translate(746.9975 168.439844) scale(0.1 -0.1)">
     <use xlink:href="#ArialMT-63"/>
     <use xlink:href="#ArialMT-6c" x="50"/>
     <use xlink:href="#ArialMT-69" x="72.216797"/>
     <use xlink:href="#ArialMT-65" x="94.433594"/>
     <use xlink:href="#ArialMT-6e" x="150.048828"/>
     <use xlink:href="#ArialMT-74" x="205.664062"/>
    </g>
   </g>
   <g id="line2d_44">
    <path d="M 718.9975 179.085156 
L 728.9975 179.085156 
L 738.9975 179.085156 
" style="fill: none; stroke: #ff7f0e; stroke-width: 1.5; stroke-linecap: round"/>
   </g>
   <g id="text_33">
    <!-- server -->
    <g style="fill: #262626" transform="translate(746.9975 182.585156) scale(0.1 -0.1)">
     <use xlink:href="#ArialMT-73"/>
     <use xlink:href="#ArialMT-65" x="50"/>
     <use xlink:href="#ArialMT-72" x="105.615234"/>
     <use xlink:href="#ArialMT-76" x="138.916016"/>
     <use xlink:href="#ArialMT-65" x="188.916016"/>
     <use xlink:href="#ArialMT-72" x="244.53125"/>
    </g>
   </g>
   <g id="line2d_45">
    <path d="M 718.9975 193.230469 
L 728.9975 193.230469 
L 738.9975 193.230469 
" style="fill: none; stroke: #2ca02c; stroke-width: 1.5; stroke-linecap: round"/>
   </g>
   <g id="text_34">
    <!-- network -->
    <g style="fill: #262626" transform="translate(746.9975 196.730469) scale(0.1 -0.1)">
     <defs>
      <path id="ArialMT-77" d="M 1034 0 
L 19 3319 
L 600 3319 
L 1128 1403 
L 1325 691 
Q 1338 744 1497 1375 
L 2025 3319 
L 2603 3319 
L 3100 1394 
L 3266 759 
L 3456 1400 
L 4025 3319 
L 4572 3319 
L 3534 0 
L 2950 0 
L 2422 1988 
L 2294 2553 
L 1622 0 
L 1034 0 
z
" transform="scale(0.015625)"/>
      <path id="ArialMT-6b" d="M 425 0 
L 425 4581 
L 988 4581 
L 988 1969 
L 2319 3319 
L 3047 3319 
L 1778 2088 
L 3175 0 
L 2481 0 
L 1384 1697 
L 988 1316 
L 988 0 
L 425 0 
z
" transform="scale(0.015625)"/>
     </defs>
     <use xlink:href="#ArialMT-6e"/>
     <use xlink:href="#ArialMT-65" x="55.615234"/>
     <use xlink:href="#ArialMT-74" x="111.230469"/>
     <use xlink:href="#ArialMT-77" x="139.013672"/>
     <use xlink:href="#ArialMT-6f" x="211.230469"/>
     <use xlink:href="#ArialMT-72" x="266.845703"/>
     <use xlink:href="#ArialMT-6b" x="300.146484"/>
    </g>
   </g>
   <g id="line2d_46">
    <path d="M 718.9975 207.375781 
L 728.9975 207.375781 
L 738.9975 207.375781 
" style="fill: none; stroke: #d62728; stroke-width: 1.5; stroke-linecap: round"/>
   </g>
   <g id="text_35">
    <!-- total -->
    <g style="fill: #262626" transform="translate(746.9975 210.875781) scale(0.1 -0.1)">
     <use xlink:href="#ArialMT-74"/>
     <use xlink:href="#ArialMT-6f" x="27.783203"/>
     <use xlink:href="#ArialMT-74" x="83.398438"/>
     <use xlink:href="#ArialMT-61" x="111.181641"/>
     <use xlink:href="#ArialMT-6c" x="166.796875"/>
    </g>
   </g>
  </g>
 </g>
 <defs>
  <clipPath id="p491537e449">
   <rect x="53.415148" y="36" width="323.952951" height="282.04"/>
  </clipPath>
  <clipPath id="pd2f12e36b5">
   <rect x="388.136949" y="36" width="323.952951" height="282.04"/>
  </clipPath>
 </defs>
</svg>
