<?xml version="1.0" encoding="utf-8" standalone="no"?>
<!DOCTYPE svg PUBLIC "-//W3C//DTD SVG 1.1//EN"
  "http://www.w3.org/Graphics/SVG/1.1/DTD/svg11.dtd">
<svg xmlns:xlink="http://www.w3.org/1999/xlink" width="791.01pt" height="360pt" viewBox="0 0 791.01 360" xmlns="http://www.w3.org/2000/svg" version="1.1">
 <metadata>
  <rdf:RDF xmlns:dc="http://purl.org/dc/elements/1.1/" xmlns:cc="http://creativecommons.org/ns#" xmlns:rdf="http://www.w3.org/1999/02/22-rdf-syntax-ns#">
   <cc:Work>
    <dc:type rdf:resource="http://purl.org/dc/dcmitype/StillImage"/>
    <dc:date>2023-11-28T14:49:38.962944</dc:date>
    <dc:format>image/svg+xml</dc:format>
    <dc:creator>
     <cc:Agent>
      <dc:title>Matplotlib v3.8.0, https://matplotlib.org/</dc:title>
     </cc:Agent>
    </dc:creator>
   </cc:Work>
  </rdf:RDF>
 </metadata>
 <defs>
  <style type="text/css">*{stroke-linejoin: round; stroke-linecap: butt}</style>
 </defs>
 <g id="figure_1">
  <g id="patch_1">
   <path d="M 0 360 
L 791.01 360 
L 791.01 0 
L 0 0 
z
" style="fill: #ffffff"/>
  </g>
  <g id="axes_1">
   <g id="patch_2">
    <path d="M 53.415148 318.04 
L 377.368098 318.04 
L 377.368098 36 
L 53.415148 36 
z
" style="fill: #ffffff"/>
   </g>
   <g id="matplotlib.axis_1">
    <g id="xtick_1">
     <g id="line2d_1">
      <path d="M 68.140282 318.04 
L 68.140282 36 
" clip-path="url(#p5989cd3561)" style="fill: none; stroke: #cccccc; stroke-width: 0.8; stroke-linecap: round"/>
     </g>
     <g id="text_1">
      <!-- 0 -->
      <g style="fill: #262626" transform="translate(65.359813 332.197812) scale(0.1 -0.1)">
       <defs>
        <path id="ArialMT-30" d="M 266 2259 
Q 266 3072 433 3567 
Q 600 4063 929 4331 
Q 1259 4600 1759 4600 
Q 2128 4600 2406 4451 
Q 2684 4303 2865 4023 
Q 3047 3744 3150 3342 
Q 3253 2941 3253 2259 
Q 3253 1453 3087 958 
Q 2922 463 2592 192 
Q 2263 -78 1759 -78 
Q 1097 -78 719 397 
Q 266 969 266 2259 
z
M 844 2259 
Q 844 1131 1108 757 
Q 1372 384 1759 384 
Q 2147 384 2411 759 
Q 2675 1134 2675 2259 
Q 2675 3391 2411 3762 
Q 2147 4134 1753 4134 
Q 1366 4134 1134 3806 
Q 844 3388 844 2259 
z
" transform="scale(0.015625)"/>
       </defs>
       <use xlink:href="#ArialMT-30"/>
      </g>
     </g>
    </g>
    <g id="xtick_2">
     <g id="line2d_2">
      <path d="M 104.953117 318.04 
L 104.953117 36 
" clip-path="url(#p5989cd3561)" style="fill: none; stroke: #cccccc; stroke-width: 0.8; stroke-linecap: round"/>
     </g>
     <g id="text_2">
      <!-- 5 -->
      <g style="fill: #262626" transform="translate(102.172648 332.197812) scale(0.1 -0.1)">
       <defs>
        <path id="ArialMT-35" d="M 266 1200 
L 856 1250 
Q 922 819 1161 601 
Q 1400 384 1738 384 
Q 2144 384 2425 690 
Q 2706 997 2706 1503 
Q 2706 1984 2436 2262 
Q 2166 2541 1728 2541 
Q 1456 2541 1237 2417 
Q 1019 2294 894 2097 
L 366 2166 
L 809 4519 
L 3088 4519 
L 3088 3981 
L 1259 3981 
L 1013 2750 
Q 1425 3038 1878 3038 
Q 2478 3038 2890 2622 
Q 3303 2206 3303 1553 
Q 3303 931 2941 478 
Q 2500 -78 1738 -78 
Q 1113 -78 717 272 
Q 322 622 266 1200 
z
" transform="scale(0.015625)"/>
       </defs>
       <use xlink:href="#ArialMT-35"/>
      </g>
     </g>
    </g>
    <g id="xtick_3">
     <g id="line2d_3">
      <path d="M 141.765952 318.04 
L 141.765952 36 
" clip-path="url(#p5989cd3561)" style="fill: none; stroke: #cccccc; stroke-width: 0.8; stroke-linecap: round"/>
     </g>
     <g id="text_3">
      <!-- 10 -->
      <g style="fill: #262626" transform="translate(136.205015 332.197812) scale(0.1 -0.1)">
       <defs>
        <path id="ArialMT-31" d="M 2384 0 
L 1822 0 
L 1822 3584 
Q 1619 3391 1289 3197 
Q 959 3003 697 2906 
L 697 3450 
Q 1169 3672 1522 3987 
Q 1875 4303 2022 4600 
L 2384 4600 
L 2384 0 
z
" transform="scale(0.015625)"/>
       </defs>
       <use xlink:href="#ArialMT-31"/>
       <use xlink:href="#ArialMT-30" x="55.615234"/>
      </g>
     </g>
    </g>
    <g id="xtick_4">
     <g id="line2d_4">
      <path d="M 178.578788 318.04 
L 178.578788 36 
" clip-path="url(#p5989cd3561)" style="fill: none; stroke: #cccccc; stroke-width: 0.8; stroke-linecap: round"/>
     </g>
     <g id="text_4">
      <!-- 15 -->
      <g style="fill: #262626" transform="translate(173.01785 332.197812) scale(0.1 -0.1)">
       <use xlink:href="#ArialMT-31"/>
       <use xlink:href="#ArialMT-35" x="55.615234"/>
      </g>
     </g>
    </g>
    <g id="xtick_5">
     <g id="line2d_5">
      <path d="M 215.391623 318.04 
L 215.391623 36 
" clip-path="url(#p5989cd3561)" style="fill: none; stroke: #cccccc; stroke-width: 0.8; stroke-linecap: round"/>
     </g>
     <g id="text_5">
      <!-- 20 -->
      <g style="fill: #262626" transform="translate(209.830685 332.197812) scale(0.1 -0.1)">
       <defs>
        <path id="ArialMT-32" d="M 3222 541 
L 3222 0 
L 194 0 
Q 188 203 259 391 
Q 375 700 629 1000 
Q 884 1300 1366 1694 
Q 2113 2306 2375 2664 
Q 2638 3022 2638 3341 
Q 2638 3675 2398 3904 
Q 2159 4134 1775 4134 
Q 1369 4134 1125 3890 
Q 881 3647 878 3216 
L 300 3275 
Q 359 3922 746 4261 
Q 1134 4600 1788 4600 
Q 2447 4600 2831 4234 
Q 3216 3869 3216 3328 
Q 3216 3053 3103 2787 
Q 2991 2522 2730 2228 
Q 2469 1934 1863 1422 
Q 1356 997 1212 845 
Q 1069 694 975 541 
L 3222 541 
z
" transform="scale(0.015625)"/>
       </defs>
       <use xlink:href="#ArialMT-32"/>
       <use xlink:href="#ArialMT-30" x="55.615234"/>
      </g>
     </g>
    </g>
    <g id="xtick_6">
     <g id="line2d_6">
      <path d="M 252.204458 318.04 
L 252.204458 36 
" clip-path="url(#p5989cd3561)" style="fill: none; stroke: #cccccc; stroke-width: 0.8; stroke-linecap: round"/>
     </g>
     <g id="text_6">
      <!-- 25 -->
      <g style="fill: #262626" transform="translate(246.643521 332.197812) scale(0.1 -0.1)">
       <use xlink:href="#ArialMT-32"/>
       <use xlink:href="#ArialMT-35" x="55.615234"/>
      </g>
     </g>
    </g>
    <g id="xtick_7">
     <g id="line2d_7">
      <path d="M 289.017294 318.04 
L 289.017294 36 
" clip-path="url(#p5989cd3561)" style="fill: none; stroke: #cccccc; stroke-width: 0.8; stroke-linecap: round"/>
     </g>
     <g id="text_7">
      <!-- 30 -->
      <g style="fill: #262626" transform="translate(283.456356 332.197812) scale(0.1 -0.1)">
       <defs>
        <path id="ArialMT-33" d="M 269 1209 
L 831 1284 
Q 928 806 1161 595 
Q 1394 384 1728 384 
Q 2125 384 2398 659 
Q 2672 934 2672 1341 
Q 2672 1728 2419 1979 
Q 2166 2231 1775 2231 
Q 1616 2231 1378 2169 
L 1441 2663 
Q 1497 2656 1531 2656 
Q 1891 2656 2178 2843 
Q 2466 3031 2466 3422 
Q 2466 3731 2256 3934 
Q 2047 4138 1716 4138 
Q 1388 4138 1169 3931 
Q 950 3725 888 3313 
L 325 3413 
Q 428 3978 793 4289 
Q 1159 4600 1703 4600 
Q 2078 4600 2393 4439 
Q 2709 4278 2876 4000 
Q 3044 3722 3044 3409 
Q 3044 3113 2884 2869 
Q 2725 2625 2413 2481 
Q 2819 2388 3044 2092 
Q 3269 1797 3269 1353 
Q 3269 753 2831 336 
Q 2394 -81 1725 -81 
Q 1122 -81 723 278 
Q 325 638 269 1209 
z
" transform="scale(0.015625)"/>
       </defs>
       <use xlink:href="#ArialMT-33"/>
       <use xlink:href="#ArialMT-30" x="55.615234"/>
      </g>
     </g>
    </g>
    <g id="xtick_8">
     <g id="line2d_8">
      <path d="M 325.830129 318.04 
L 325.830129 36 
" clip-path="url(#p5989cd3561)" style="fill: none; stroke: #cccccc; stroke-width: 0.8; stroke-linecap: round"/>
     </g>
     <g id="text_8">
      <!-- 35 -->
      <g style="fill: #262626" transform="translate(320.269191 332.197812) scale(0.1 -0.1)">
       <use xlink:href="#ArialMT-33"/>
       <use xlink:href="#ArialMT-35" x="55.615234"/>
      </g>
     </g>
    </g>
    <g id="xtick_9">
     <g id="line2d_9">
      <path d="M 362.642964 318.04 
L 362.642964 36 
" clip-path="url(#p5989cd3561)" style="fill: none; stroke: #cccccc; stroke-width: 0.8; stroke-linecap: round"/>
     </g>
     <g id="text_9">
      <!-- 40 -->
      <g style="fill: #262626" transform="translate(357.082027 332.197812) scale(0.1 -0.1)">
       <defs>
        <path id="ArialMT-34" d="M 2069 0 
L 2069 1097 
L 81 1097 
L 81 1613 
L 2172 4581 
L 2631 4581 
L 2631 1613 
L 3250 1613 
L 3250 1097 
L 2631 1097 
L 2631 0 
L 2069 0 
z
M 2069 1613 
L 2069 3678 
L 634 1613 
L 2069 1613 
z
" transform="scale(0.015625)"/>
       </defs>
       <use xlink:href="#ArialMT-34"/>
       <use xlink:href="#ArialMT-30" x="55.615234"/>
      </g>
     </g>
    </g>
    <g id="text_10">
     <!-- offload to cloud before layer -->
     <g style="fill: #262626" transform="translate(153.77756 345.465) scale(0.1 -0.1)">
      <defs>
       <path id="ArialMT-6f" d="M 213 1659 
Q 213 2581 725 3025 
Q 1153 3394 1769 3394 
Q 2453 3394 2887 2945 
Q 3322 2497 3322 1706 
Q 3322 1066 3130 698 
Q 2938 331 2570 128 
Q 2203 -75 1769 -75 
Q 1072 -75 642 372 
Q 213 819 213 1659 
z
M 791 1659 
Q 791 1022 1069 705 
Q 1347 388 1769 388 
Q 2188 388 2466 706 
Q 2744 1025 2744 1678 
Q 2744 2294 2464 2611 
Q 2184 2928 1769 2928 
Q 1347 2928 1069 2612 
Q 791 2297 791 1659 
z
" transform="scale(0.015625)"/>
       <path id="ArialMT-66" d="M 556 0 
L 556 2881 
L 59 2881 
L 59 3319 
L 556 3319 
L 556 3672 
Q 556 4006 616 4169 
Q 697 4388 901 4523 
Q 1106 4659 1475 4659 
Q 1713 4659 2000 4603 
L 1916 4113 
Q 1741 4144 1584 4144 
Q 1328 4144 1222 4034 
Q 1116 3925 1116 3625 
L 1116 3319 
L 1763 3319 
L 1763 2881 
L 1116 2881 
L 1116 0 
L 556 0 
z
" transform="scale(0.015625)"/>
       <path id="ArialMT-6c" d="M 409 0 
L 409 4581 
L 972 4581 
L 972 0 
L 409 0 
z
" transform="scale(0.015625)"/>
       <path id="ArialMT-61" d="M 2588 409 
Q 2275 144 1986 34 
Q 1697 -75 1366 -75 
Q 819 -75 525 192 
Q 231 459 231 875 
Q 231 1119 342 1320 
Q 453 1522 633 1644 
Q 813 1766 1038 1828 
Q 1203 1872 1538 1913 
Q 2219 1994 2541 2106 
Q 2544 2222 2544 2253 
Q 2544 2597 2384 2738 
Q 2169 2928 1744 2928 
Q 1347 2928 1158 2789 
Q 969 2650 878 2297 
L 328 2372 
Q 403 2725 575 2942 
Q 747 3159 1072 3276 
Q 1397 3394 1825 3394 
Q 2250 3394 2515 3294 
Q 2781 3194 2906 3042 
Q 3031 2891 3081 2659 
Q 3109 2516 3109 2141 
L 3109 1391 
Q 3109 606 3145 398 
Q 3181 191 3288 0 
L 2700 0 
Q 2613 175 2588 409 
z
M 2541 1666 
Q 2234 1541 1622 1453 
Q 1275 1403 1131 1340 
Q 988 1278 909 1158 
Q 831 1038 831 891 
Q 831 666 1001 516 
Q 1172 366 1500 366 
Q 1825 366 2078 508 
Q 2331 650 2450 897 
Q 2541 1088 2541 1459 
L 2541 1666 
z
" transform="scale(0.015625)"/>
       <path id="ArialMT-64" d="M 2575 0 
L 2575 419 
Q 2259 -75 1647 -75 
Q 1250 -75 917 144 
Q 584 363 401 755 
Q 219 1147 219 1656 
Q 219 2153 384 2558 
Q 550 2963 881 3178 
Q 1213 3394 1622 3394 
Q 1922 3394 2156 3267 
Q 2391 3141 2538 2938 
L 2538 4581 
L 3097 4581 
L 3097 0 
L 2575 0 
z
M 797 1656 
Q 797 1019 1065 703 
Q 1334 388 1700 388 
Q 2069 388 2326 689 
Q 2584 991 2584 1609 
Q 2584 2291 2321 2609 
Q 2059 2928 1675 2928 
Q 1300 2928 1048 2622 
Q 797 2316 797 1656 
z
" transform="scale(0.015625)"/>
       <path id="ArialMT-20" transform="scale(0.015625)"/>
       <path id="ArialMT-74" d="M 1650 503 
L 1731 6 
Q 1494 -44 1306 -44 
Q 1000 -44 831 53 
Q 663 150 594 308 
Q 525 466 525 972 
L 525 2881 
L 113 2881 
L 113 3319 
L 525 3319 
L 525 4141 
L 1084 4478 
L 1084 3319 
L 1650 3319 
L 1650 2881 
L 1084 2881 
L 1084 941 
Q 1084 700 1114 631 
Q 1144 563 1211 522 
Q 1278 481 1403 481 
Q 1497 481 1650 503 
z
" transform="scale(0.015625)"/>
       <path id="ArialMT-63" d="M 2588 1216 
L 3141 1144 
Q 3050 572 2676 248 
Q 2303 -75 1759 -75 
Q 1078 -75 664 370 
Q 250 816 250 1647 
Q 250 2184 428 2587 
Q 606 2991 970 3192 
Q 1334 3394 1763 3394 
Q 2303 3394 2647 3120 
Q 2991 2847 3088 2344 
L 2541 2259 
Q 2463 2594 2264 2762 
Q 2066 2931 1784 2931 
Q 1359 2931 1093 2626 
Q 828 2322 828 1663 
Q 828 994 1084 691 
Q 1341 388 1753 388 
Q 2084 388 2306 591 
Q 2528 794 2588 1216 
z
" transform="scale(0.015625)"/>
       <path id="ArialMT-75" d="M 2597 0 
L 2597 488 
Q 2209 -75 1544 -75 
Q 1250 -75 995 37 
Q 741 150 617 320 
Q 494 491 444 738 
Q 409 903 409 1263 
L 409 3319 
L 972 3319 
L 972 1478 
Q 972 1038 1006 884 
Q 1059 663 1231 536 
Q 1403 409 1656 409 
Q 1909 409 2131 539 
Q 2353 669 2445 892 
Q 2538 1116 2538 1541 
L 2538 3319 
L 3100 3319 
L 3100 0 
L 2597 0 
z
" transform="scale(0.015625)"/>
       <path id="ArialMT-62" d="M 941 0 
L 419 0 
L 419 4581 
L 981 4581 
L 981 2947 
Q 1338 3394 1891 3394 
Q 2197 3394 2470 3270 
Q 2744 3147 2920 2923 
Q 3097 2700 3197 2384 
Q 3297 2069 3297 1709 
Q 3297 856 2875 390 
Q 2453 -75 1863 -75 
Q 1275 -75 941 416 
L 941 0 
z
M 934 1684 
Q 934 1088 1097 822 
Q 1363 388 1816 388 
Q 2184 388 2453 708 
Q 2722 1028 2722 1663 
Q 2722 2313 2464 2622 
Q 2206 2931 1841 2931 
Q 1472 2931 1203 2611 
Q 934 2291 934 1684 
z
" transform="scale(0.015625)"/>
       <path id="ArialMT-65" d="M 2694 1069 
L 3275 997 
Q 3138 488 2766 206 
Q 2394 -75 1816 -75 
Q 1088 -75 661 373 
Q 234 822 234 1631 
Q 234 2469 665 2931 
Q 1097 3394 1784 3394 
Q 2450 3394 2872 2941 
Q 3294 2488 3294 1666 
Q 3294 1616 3291 1516 
L 816 1516 
Q 847 969 1125 678 
Q 1403 388 1819 388 
Q 2128 388 2347 550 
Q 2566 713 2694 1069 
z
M 847 1978 
L 2700 1978 
Q 2663 2397 2488 2606 
Q 2219 2931 1791 2931 
Q 1403 2931 1139 2672 
Q 875 2413 847 1978 
z
" transform="scale(0.015625)"/>
       <path id="ArialMT-72" d="M 416 0 
L 416 3319 
L 922 3319 
L 922 2816 
Q 1116 3169 1280 3281 
Q 1444 3394 1641 3394 
Q 1925 3394 2219 3213 
L 2025 2691 
Q 1819 2813 1613 2813 
Q 1428 2813 1281 2702 
Q 1134 2591 1072 2394 
Q 978 2094 978 1738 
L 978 0 
L 416 0 
z
" transform="scale(0.015625)"/>
       <path id="ArialMT-79" d="M 397 -1278 
L 334 -750 
Q 519 -800 656 -800 
Q 844 -800 956 -737 
Q 1069 -675 1141 -563 
Q 1194 -478 1313 -144 
Q 1328 -97 1363 -6 
L 103 3319 
L 709 3319 
L 1400 1397 
Q 1534 1031 1641 628 
Q 1738 1016 1872 1384 
L 2581 3319 
L 3144 3319 
L 1881 -56 
Q 1678 -603 1566 -809 
Q 1416 -1088 1222 -1217 
Q 1028 -1347 759 -1347 
Q 597 -1347 397 -1278 
z
" transform="scale(0.015625)"/>
      </defs>
      <use xlink:href="#ArialMT-6f"/>
      <use xlink:href="#ArialMT-66" x="55.615234"/>
      <use xlink:href="#ArialMT-66" x="81.648438"/>
      <use xlink:href="#ArialMT-6c" x="109.431641"/>
      <use xlink:href="#ArialMT-6f" x="131.648438"/>
      <use xlink:href="#ArialMT-61" x="187.263672"/>
      <use xlink:href="#ArialMT-64" x="242.878906"/>
      <use xlink:href="#ArialMT-20" x="298.494141"/>
      <use xlink:href="#ArialMT-74" x="326.277344"/>
      <use xlink:href="#ArialMT-6f" x="354.060547"/>
      <use xlink:href="#ArialMT-20" x="409.675781"/>
      <use xlink:href="#ArialMT-63" x="437.458984"/>
      <use xlink:href="#ArialMT-6c" x="487.458984"/>
      <use xlink:href="#ArialMT-6f" x="509.675781"/>
      <use xlink:href="#ArialMT-75" x="565.291016"/>
      <use xlink:href="#ArialMT-64" x="620.90625"/>
      <use xlink:href="#ArialMT-20" x="676.521484"/>
      <use xlink:href="#ArialMT-62" x="704.304688"/>
      <use xlink:href="#ArialMT-65" x="759.919922"/>
      <use xlink:href="#ArialMT-66" x="815.535156"/>
      <use xlink:href="#ArialMT-6f" x="843.318359"/>
      <use xlink:href="#ArialMT-72" x="898.933594"/>
      <use xlink:href="#ArialMT-65" x="932.234375"/>
      <use xlink:href="#ArialMT-20" x="987.849609"/>
      <use xlink:href="#ArialMT-6c" x="1015.632812"/>
      <use xlink:href="#ArialMT-61" x="1037.849609"/>
      <use xlink:href="#ArialMT-79" x="1093.464844"/>
      <use xlink:href="#ArialMT-65" x="1143.464844"/>
      <use xlink:href="#ArialMT-72" x="1199.080078"/>
     </g>
    </g>
   </g>
   <g id="matplotlib.axis_2">
    <g id="ytick_1">
     <g id="line2d_10">
      <path d="M 53.415148 305.22 
L 377.368098 305.22 
" clip-path="url(#p5989cd3561)" style="fill: none; stroke: #cccccc; stroke-width: 0.8; stroke-linecap: round"/>
     </g>
     <g id="text_11">
      <!-- 0 -->
      <g style="fill: #262626" transform="translate(40.85421 308.798906) scale(0.1 -0.1)">
       <use xlink:href="#ArialMT-30"/>
      </g>
     </g>
    </g>
    <g id="ytick_2">
     <g id="line2d_11">
      <path d="M 53.415148 257.194479 
L 377.368098 257.194479 
" clip-path="url(#p5989cd3561)" style="fill: none; stroke: #cccccc; stroke-width: 0.8; stroke-linecap: round"/>
     </g>
     <g id="text_12">
      <!-- 100 -->
      <g style="fill: #262626" transform="translate(29.732335 260.773386) scale(0.1 -0.1)">
       <use xlink:href="#ArialMT-31"/>
       <use xlink:href="#ArialMT-30" x="55.615234"/>
       <use xlink:href="#ArialMT-30" x="111.230469"/>
      </g>
     </g>
    </g>
    <g id="ytick_3">
     <g id="line2d_12">
      <path d="M 53.415148 209.168959 
L 377.368098 209.168959 
" clip-path="url(#p5989cd3561)" style="fill: none; stroke: #cccccc; stroke-width: 0.8; stroke-linecap: round"/>
     </g>
     <g id="text_13">
      <!-- 200 -->
      <g style="fill: #262626" transform="translate(29.732335 212.747865) scale(0.1 -0.1)">
       <use xlink:href="#ArialMT-32"/>
       <use xlink:href="#ArialMT-30" x="55.615234"/>
       <use xlink:href="#ArialMT-30" x="111.230469"/>
      </g>
     </g>
    </g>
    <g id="ytick_4">
     <g id="line2d_13">
      <path d="M 53.415148 161.143438 
L 377.368098 161.143438 
" clip-path="url(#p5989cd3561)" style="fill: none; stroke: #cccccc; stroke-width: 0.8; stroke-linecap: round"/>
     </g>
     <g id="text_14">
      <!-- 300 -->
      <g style="fill: #262626" transform="translate(29.732335 164.722345) scale(0.1 -0.1)">
       <use xlink:href="#ArialMT-33"/>
       <use xlink:href="#ArialMT-30" x="55.615234"/>
       <use xlink:href="#ArialMT-30" x="111.230469"/>
      </g>
     </g>
    </g>
    <g id="ytick_5">
     <g id="line2d_14">
      <path d="M 53.415148 113.117918 
L 377.368098 113.117918 
" clip-path="url(#p5989cd3561)" style="fill: none; stroke: #cccccc; stroke-width: 0.8; stroke-linecap: round"/>
     </g>
     <g id="text_15">
      <!-- 400 -->
      <g style="fill: #262626" transform="translate(29.732335 116.696824) scale(0.1 -0.1)">
       <use xlink:href="#ArialMT-34"/>
       <use xlink:href="#ArialMT-30" x="55.615234"/>
       <use xlink:href="#ArialMT-30" x="111.230469"/>
      </g>
     </g>
    </g>
    <g id="ytick_6">
     <g id="line2d_15">
      <path d="M 53.415148 65.092397 
L 377.368098 65.092397 
" clip-path="url(#p5989cd3561)" style="fill: none; stroke: #cccccc; stroke-width: 0.8; stroke-linecap: round"/>
     </g>
     <g id="text_16">
      <!-- 500 -->
      <g style="fill: #262626" transform="translate(29.732335 68.671303) scale(0.1 -0.1)">
       <use xlink:href="#ArialMT-35"/>
       <use xlink:href="#ArialMT-30" x="55.615234"/>
       <use xlink:href="#ArialMT-30" x="111.230469"/>
      </g>
     </g>
    </g>
    <g id="text_17">
     <!-- ms -->
     <g style="fill: #262626" transform="translate(23.744835 183.684844) rotate(-90) scale(0.1 -0.1)">
      <defs>
       <path id="ArialMT-6d" d="M 422 0 
L 422 3319 
L 925 3319 
L 925 2853 
Q 1081 3097 1340 3245 
Q 1600 3394 1931 3394 
Q 2300 3394 2536 3241 
Q 2772 3088 2869 2813 
Q 3263 3394 3894 3394 
Q 4388 3394 4653 3120 
Q 4919 2847 4919 2278 
L 4919 0 
L 4359 0 
L 4359 2091 
Q 4359 2428 4304 2576 
Q 4250 2725 4106 2815 
Q 3963 2906 3769 2906 
Q 3419 2906 3187 2673 
Q 2956 2441 2956 1928 
L 2956 0 
L 2394 0 
L 2394 2156 
Q 2394 2531 2256 2718 
Q 2119 2906 1806 2906 
Q 1569 2906 1367 2781 
Q 1166 2656 1075 2415 
Q 984 2175 984 1722 
L 984 0 
L 422 0 
z
" transform="scale(0.015625)"/>
       <path id="ArialMT-73" d="M 197 991 
L 753 1078 
Q 800 744 1014 566 
Q 1228 388 1613 388 
Q 2000 388 2187 545 
Q 2375 703 2375 916 
Q 2375 1106 2209 1216 
Q 2094 1291 1634 1406 
Q 1016 1563 777 1677 
Q 538 1791 414 1992 
Q 291 2194 291 2438 
Q 291 2659 392 2848 
Q 494 3038 669 3163 
Q 800 3259 1026 3326 
Q 1253 3394 1513 3394 
Q 1903 3394 2198 3281 
Q 2494 3169 2634 2976 
Q 2775 2784 2828 2463 
L 2278 2388 
Q 2241 2644 2061 2787 
Q 1881 2931 1553 2931 
Q 1166 2931 1000 2803 
Q 834 2675 834 2503 
Q 834 2394 903 2306 
Q 972 2216 1119 2156 
Q 1203 2125 1616 2013 
Q 2213 1853 2448 1751 
Q 2684 1650 2818 1456 
Q 2953 1263 2953 975 
Q 2953 694 2789 445 
Q 2625 197 2315 61 
Q 2006 -75 1616 -75 
Q 969 -75 630 194 
Q 291 463 197 991 
z
" transform="scale(0.015625)"/>
      </defs>
      <use xlink:href="#ArialMT-6d"/>
      <use xlink:href="#ArialMT-73" x="83.300781"/>
     </g>
    </g>
   </g>
   <g id="PolyCollection_1">
    <defs>
     <path id="maefa3c967a" d="M 68.140282 -56.33727 
L 68.140282 -56.05428 
L 75.502849 -64.736838 
L 82.865416 -69.958648 
L 90.227983 -69.984577 
L 97.59055 -69.902727 
L 104.953117 -70.773868 
L 112.315684 -63.908985 
L 119.678251 -70.677499 
L 127.040818 -70.010949 
L 134.403385 -69.555093 
L 141.765952 -70.149107 
L 149.128519 -70.520756 
L 156.491086 -70.349627 
L 163.853654 -67.981027 
L 171.216221 -68.17405 
L 178.578788 -65.587254 
L 185.941355 -69.295023 
L 193.303922 -65.523089 
L 200.666489 -65.326556 
L 208.029056 -65.311279 
L 215.391623 -65.68864 
L 222.75419 -62.942264 
L 230.116757 -63.350328 
L 237.479324 -63.485898 
L 244.841891 -63.474915 
L 252.204458 -63.374222 
L 259.567025 -63.426691 
L 266.929592 -63.677616 
L 274.29216 -63.699163 
L 281.654727 -63.761735 
L 289.017294 -63.981612 
L 296.379861 -64.493908 
L 303.742428 -64.641371 
L 311.104995 -71.447988 
L 318.467562 -71.368139 
L 325.830129 -78.060325 
L 333.192696 -78.018301 
L 340.555263 -84.504912 
L 347.91783 -84.536525 
L 355.280397 -83.353372 
L 362.642964 -86.148811 
L 362.642964 -86.375207 
L 362.642964 -86.375207 
L 355.280397 -84.377215 
L 347.91783 -86.598795 
L 340.555263 -86.453855 
L 333.192696 -79.966647 
L 325.830129 -80.090759 
L 318.467562 -72.938055 
L 311.104995 -73.568333 
L 303.742428 -67.418772 
L 296.379861 -67.072332 
L 289.017294 -64.431666 
L 281.654727 -64.782533 
L 274.29216 -65.768781 
L 266.929592 -66.741092 
L 259.567025 -66.213584 
L 252.204458 -66.433955 
L 244.841891 -67.99076 
L 237.479324 -68.19958 
L 230.116757 -69.416216 
L 222.75419 -66.703718 
L 215.391623 -72.368916 
L 208.029056 -66.474412 
L 200.666489 -72.668316 
L 193.303922 -70.491402 
L 185.941355 -73.965973 
L 178.578788 -72.414425 
L 171.216221 -73.034143 
L 163.853654 -72.896696 
L 156.491086 -75.648254 
L 149.128519 -75.410986 
L 141.765952 -74.832071 
L 134.403385 -74.499798 
L 127.040818 -74.661063 
L 119.678251 -76.674764 
L 112.315684 -66.104279 
L 104.953117 -76.642846 
L 97.59055 -74.293817 
L 90.227983 -73.774542 
L 82.865416 -74.615128 
L 75.502849 -67.737601 
L 68.140282 -56.33727 
z
" style="stroke: #1f77b4; stroke-opacity: 0.2"/>
    </defs>
    <g clip-path="url(#p5989cd3561)">
     <use xlink:href="#maefa3c967a" x="0" y="360" style="fill: #1f77b4; fill-opacity: 0.2; stroke: #1f77b4; stroke-opacity: 0.2"/>
    </g>
   </g>
   <g id="PolyCollection_2">
    <defs>
     <path id="mc2ec5be5f5" d="M 68.140282 -108.748967 
L 68.140282 -102.481264 
L 75.502849 -102.713804 
L 82.865416 -100.130955 
L 90.227983 -106.386195 
L 97.59055 -106.237472 
L 104.953117 -104.209703 
L 112.315684 -98.316803 
L 119.678251 -99.593406 
L 127.040818 -100.216141 
L 134.403385 -101.387243 
L 141.765952 -100.989231 
L 149.128519 -100.051641 
L 156.491086 -93.978094 
L 163.853654 -91.668186 
L 171.216221 -94.345993 
L 178.578788 -92.105459 
L 185.941355 -87.763579 
L 193.303922 -85.035538 
L 200.666489 -84.648548 
L 208.029056 -82.116823 
L 215.391623 -81.97301 
L 222.75419 -78.29548 
L 230.116757 -77.339184 
L 237.479324 -74.431683 
L 244.841891 -74.181146 
L 252.204458 -70.881528 
L 259.567025 -70.751763 
L 266.929592 -68.79626 
L 274.29216 -68.277128 
L 281.654727 -66.10958 
L 289.017294 -65.885938 
L 296.379861 -64.023244 
L 303.742428 -63.362401 
L 311.104995 -60.757424 
L 318.467562 -60.313825 
L 325.830129 -58.866119 
L 333.192696 -57.98688 
L 340.555263 -55.565842 
L 347.91783 -55.647665 
L 355.280397 -55.135401 
L 362.642964 -54.78 
L 362.642964 -54.78 
L 362.642964 -54.78 
L 355.280397 -55.724062 
L 347.91783 -56.544734 
L 340.555263 -56.160217 
L 333.192696 -61.50254 
L 325.830129 -63.921009 
L 318.467562 -62.228866 
L 311.104995 -65.601747 
L 303.742428 -64.983238 
L 296.379861 -67.754178 
L 289.017294 -69.015076 
L 281.654727 -66.868744 
L 274.29216 -70.478774 
L 266.929592 -72.158443 
L 259.567025 -73.283897 
L 252.204458 -74.23425 
L 244.841891 -79.434934 
L 237.479324 -78.928456 
L 230.116757 -82.887188 
L 222.75419 -84.013218 
L 215.391623 -87.705456 
L 208.029056 -87.185988 
L 200.666489 -90.693064 
L 193.303922 -90.969799 
L 185.941355 -92.197956 
L 178.578788 -96.576863 
L 171.216221 -98.048857 
L 163.853654 -99.090687 
L 156.491086 -102.02513 
L 149.128519 -107.420353 
L 141.765952 -106.809792 
L 134.403385 -108.719731 
L 127.040818 -107.730658 
L 119.678251 -108.921367 
L 112.315684 -103.218024 
L 104.953117 -113.316314 
L 97.59055 -113.973471 
L 90.227983 -115.964477 
L 82.865416 -106.298032 
L 75.502849 -109.418875 
L 68.140282 -108.748967 
z
" style="stroke: #ff7f0e; stroke-opacity: 0.2"/>
    </defs>
    <g clip-path="url(#p5989cd3561)">
     <use xlink:href="#mc2ec5be5f5" x="0" y="360" style="fill: #ff7f0e; fill-opacity: 0.2; stroke: #ff7f0e; stroke-opacity: 0.2"/>
    </g>
   </g>
   <g id="PolyCollection_3">
    <defs>
     <path id="m7313e79351" d="M 68.140282 -59.558466 
L 68.140282 -59.115797 
L 75.502849 -56.781994 
L 82.865416 -59.554418 
L 90.227983 -59.622937 
L 97.59055 -59.673421 
L 104.953117 -59.777665 
L 112.315684 -56.959137 
L 119.678251 -59.652708 
L 127.040818 -59.593895 
L 134.403385 -59.608774 
L 141.765952 -59.763276 
L 149.128519 -59.663984 
L 156.491086 -59.681331 
L 163.853654 -57.914972 
L 171.216221 -58.058103 
L 178.578788 -57.672196 
L 185.941355 -58.048037 
L 193.303922 -57.702795 
L 200.666489 -57.725135 
L 208.029056 -57.706424 
L 215.391623 -57.788951 
L 222.75419 -56.644471 
L 230.116757 -56.669934 
L 237.479324 -56.681862 
L 244.841891 -56.785799 
L 252.204458 -56.59956 
L 259.567025 -56.629695 
L 266.929592 -56.610904 
L 274.29216 -56.63378 
L 281.654727 -56.571611 
L 289.017294 -56.625243 
L 296.379861 -56.638082 
L 303.742428 -56.58243 
L 311.104995 -56.259614 
L 318.467562 -56.152288 
L 325.830129 -56.517552 
L 333.192696 -56.198544 
L 340.555263 -56.106702 
L 347.91783 -56.644396 
L 355.280397 -55.843257 
L 362.642964 -54.78 
L 362.642964 -54.78 
L 362.642964 -54.78 
L 355.280397 -56.377936 
L 347.91783 -57.615133 
L 340.555263 -56.667198 
L 333.192696 -57.064732 
L 325.830129 -57.272388 
L 318.467562 -56.407852 
L 311.104995 -56.630625 
L 303.742428 -56.826235 
L 296.379861 -56.9221 
L 289.017294 -56.97175 
L 281.654727 -56.641467 
L 274.29216 -56.934283 
L 266.929592 -57.058957 
L 259.567025 -56.931503 
L 252.204458 -57.085445 
L 244.841891 -57.476325 
L 237.479324 -57.354521 
L 230.116757 -57.197241 
L 222.75419 -57.181683 
L 215.391623 -58.417517 
L 208.029056 -59.341188 
L 200.666489 -58.889795 
L 193.303922 -58.785056 
L 185.941355 -58.30749 
L 178.578788 -58.321799 
L 171.216221 -58.506684 
L 163.853654 -58.494037 
L 156.491086 -60.267957 
L 149.128519 -59.93101 
L 141.765952 -60.434321 
L 134.403385 -59.998582 
L 127.040818 -59.837819 
L 119.678251 -60.248478 
L 112.315684 -57.525874 
L 104.953117 -60.053607 
L 97.59055 -60.280417 
L 90.227983 -59.885435 
L 82.865416 -59.801317 
L 75.502849 -57.043194 
L 68.140282 -59.558466 
z
" style="stroke: #2ca02c; stroke-opacity: 0.2"/>
    </defs>
    <g clip-path="url(#p5989cd3561)">
     <use xlink:href="#m7313e79351" x="0" y="360" style="fill: #2ca02c; fill-opacity: 0.2; stroke: #2ca02c; stroke-opacity: 0.2"/>
    </g>
   </g>
   <g id="PolyCollection_4">
    <defs>
     <path id="m99316ec57c" d="M 68.140282 -114.831318 
L 68.140282 -108.012423 
L 75.502849 -116.037643 
L 82.865416 -122.437742 
L 90.227983 -127.548467 
L 97.59055 -129.493785 
L 104.953117 -127.524348 
L 112.315684 -110.527322 
L 119.678251 -122.938001 
L 127.040818 -122.662411 
L 134.403385 -124.573278 
L 141.765952 -122.892791 
L 149.128519 -122.186215 
L 156.491086 -117.25768 
L 163.853654 -110.597397 
L 171.216221 -110.652667 
L 178.578788 -108.960346 
L 185.941355 -107.789744 
L 193.303922 -100.20519 
L 200.666489 -101.418613 
L 208.029056 -96.309383 
L 215.391623 -101.143515 
L 222.75419 -90.604379 
L 230.116757 -91.33246 
L 237.479324 -86.883154 
L 244.841891 -86.880274 
L 252.204458 -81.745891 
L 259.567025 -82.197754 
L 266.929592 -80.194816 
L 274.29216 -79.456952 
L 281.654727 -77.172387 
L 289.017294 -77.205529 
L 296.379861 -76.484411 
L 303.742428 -75.401991 
L 311.104995 -80.104142 
L 318.467562 -78.71948 
L 325.830129 -85.698993 
L 333.192696 -83.682504 
L 340.555263 -86.926003 
L 347.91783 -87.957621 
L 355.280397 -85.22107 
L 362.642964 -86.148811 
L 362.642964 -86.375207 
L 362.642964 -86.375207 
L 355.280397 -86.178578 
L 347.91783 -90.722482 
L 340.555263 -89.399041 
L 333.192696 -88.82462 
L 325.830129 -90.760089 
L 318.467562 -82.091866 
L 311.104995 -84.976866 
L 303.742428 -79.349273 
L 296.379861 -81.890313 
L 289.017294 -81.645108 
L 281.654727 -79.588071 
L 274.29216 -83.160638 
L 266.929592 -85.919543 
L 259.567025 -86.365444 
L 252.204458 -86.885262 
L 244.841891 -95.105969 
L 237.479324 -93.282568 
L 230.116757 -99.140946 
L 222.75419 -97.977189 
L 215.391623 -109.865789 
L 208.029056 -104.667569 
L 200.666489 -111.051611 
L 193.303922 -109.267172 
L 185.941355 -113.503826 
L 178.578788 -117.188519 
L 171.216221 -119.992563 
L 163.853654 -120.264159 
L 156.491086 -127.221434 
L 149.128519 -131.781102 
L 141.765952 -132.336068 
L 134.403385 -134.92047 
L 127.040818 -132.288377 
L 119.678251 -132.64932 
L 112.315684 -116.143258 
L 104.953117 -138.841596 
L 97.59055 -138.806872 
L 90.227983 -138.970795 
L 82.865416 -130.986261 
L 75.502849 -123.978412 
L 68.140282 -114.831318 
z
" style="stroke: #d62728; stroke-opacity: 0.2"/>
    </defs>
    <g clip-path="url(#p5989cd3561)">
     <use xlink:href="#m99316ec57c" x="0" y="360" style="fill: #d62728; fill-opacity: 0.2; stroke: #d62728; stroke-opacity: 0.2"/>
    </g>
   </g>
   <g id="line2d_16">
    <path d="M 68.140282 303.778702 
L 75.502849 294.058454 
L 82.865416 288.563295 
L 90.227983 288.561667 
L 97.59055 288.406164 
L 104.953117 287.36656 
L 112.315684 295.208281 
L 119.678251 287.77376 
L 127.040818 288.567734 
L 134.403385 288.46999 
L 141.765952 288.332234 
L 149.128519 288.897943 
L 156.491086 288.333805 
L 163.853654 289.832786 
L 171.216221 290.210059 
L 178.578788 290.652743 
L 185.941355 288.815737 
L 193.303922 293.695681 
L 200.666489 291.582513 
L 208.029056 294.431038 
L 215.391623 289.747445 
L 222.75419 296.361725 
L 230.116757 293.240516 
L 237.479324 294.309308 
L 244.841891 293.896275 
L 252.204458 296.299568 
L 259.567025 296.277334 
L 266.929592 295.878095 
L 274.29216 296.098574 
L 281.654727 295.988428 
L 289.017294 295.870233 
L 296.379861 294.86836 
L 303.742428 294.737185 
L 311.104995 287.099502 
L 318.467562 288.414076 
L 325.830129 280.572158 
L 333.192696 281.041709 
L 340.555263 275.178698 
L 347.91783 275.021807 
L 355.280397 276.415387 
L 362.642964 273.767874 
" clip-path="url(#p5989cd3561)" style="fill: none; stroke: #1f77b4; stroke-width: 1.5; stroke-linecap: round"/>
   </g>
   <g id="line2d_17">
    <path d="M 68.140282 255.089185 
L 75.502849 255.09502 
L 82.865416 257.213281 
L 90.227983 249.971273 
L 97.59055 249.162811 
L 104.953117 253.693563 
L 112.315684 260.359073 
L 119.678251 258.008008 
L 127.040818 255.737745 
L 134.403385 255.774173 
L 141.765952 257.002738 
L 149.128519 256.498926 
L 156.491086 263.570011 
L 163.853654 264.260618 
L 171.216221 263.883714 
L 178.578788 265.342705 
L 185.941355 270.450003 
L 193.303922 273.312324 
L 200.666489 272.774727 
L 208.029056 276.575803 
L 215.391623 276.522566 
L 222.75419 279.325384 
L 230.116757 280.23979 
L 237.479324 284.115929 
L 244.841891 283.21012 
L 252.204458 288.752673 
L 259.567025 288.403 
L 266.929592 290.30918 
L 274.29216 291.25634 
L 281.654727 293.697573 
L 289.017294 293.303019 
L 296.379861 294.698281 
L 303.742428 296.211301 
L 311.104995 297.817971 
L 318.467562 298.854337 
L 325.830129 298.394301 
L 333.192696 301.333223 
L 340.555263 304.322043 
L 347.91783 303.716537 
L 355.280397 304.590914 
L 362.642964 305.22 
" clip-path="url(#p5989cd3561)" style="fill: none; stroke: #ff7f0e; stroke-width: 1.5; stroke-linecap: round"/>
   </g>
   <g id="line2d_18">
    <path d="M 68.140282 300.657443 
L 75.502849 303.111354 
L 82.865416 300.379604 
L 90.227983 300.312614 
L 97.59055 300.218903 
L 104.953117 300.09334 
L 112.315684 302.87294 
L 119.678251 300.238611 
L 127.040818 300.320748 
L 134.403385 300.302801 
L 141.765952 300.15003 
L 149.128519 300.233198 
L 156.491086 300.194774 
L 163.853654 301.842614 
L 171.216221 301.812973 
L 178.578788 301.930874 
L 185.941355 301.846576 
L 193.303922 302.125321 
L 200.666489 301.800412 
L 208.029056 302.059406 
L 215.391623 301.932741 
L 222.75419 303.206607 
L 230.116757 303.07005 
L 237.479324 303.077479 
L 244.841891 303.019438 
L 252.204458 303.29951 
L 259.567025 303.304807 
L 266.929592 303.303131 
L 274.29216 303.321601 
L 281.654727 303.395003 
L 289.017294 303.336866 
L 296.379861 303.29734 
L 303.742428 303.357058 
L 311.104995 303.574236 
L 318.467562 303.685182 
L 325.830129 303.140555 
L 333.192696 303.55486 
L 340.555263 303.718328 
L 347.91783 302.727756 
L 355.280397 303.873928 
L 362.642964 305.22 
" clip-path="url(#p5989cd3561)" style="fill: none; stroke: #2ca02c; stroke-width: 1.5; stroke-linecap: round"/>
   </g>
   <g id="line2d_19">
    <path d="M 68.140282 248.892267 
L 75.502849 240.427596 
L 82.865416 233.943365 
L 90.227983 225.836531 
L 97.59055 227.332721 
L 104.953117 226.665882 
L 112.315684 247.733937 
L 119.678251 232.588938 
L 127.040818 232.99319 
L 134.403385 232.05717 
L 141.765952 233.418178 
L 149.128519 232.831817 
L 156.491086 239.969094 
L 163.853654 245.511812 
L 171.216221 244.422347 
L 178.578788 247.046672 
L 185.941355 250.267369 
L 193.303922 256.479724 
L 200.666489 253.638559 
L 208.029056 260.753384 
L 215.391623 256.12237 
L 222.75419 266.560986 
L 230.116757 266.423941 
L 237.479324 269.835444 
L 244.841891 269.486387 
L 252.204458 275.46397 
L 259.567025 276.043707 
L 266.929592 278.346966 
L 274.29216 278.906671 
L 281.654727 282.344418 
L 289.017294 281.038778 
L 296.379861 281.601383 
L 303.742428 283.461014 
L 311.104995 277.764836 
L 318.467562 280.147269 
L 325.830129 272.46511 
L 333.192696 274.828031 
L 340.555263 271.584358 
L 347.91783 270.87827 
L 355.280397 274.161755 
L 362.642964 273.767874 
" clip-path="url(#p5989cd3561)" style="fill: none; stroke: #d62728; stroke-width: 1.5; stroke-linecap: round"/>
   </g>
   <g id="line2d_20"/>
   <g id="line2d_21"/>
   <g id="line2d_22"/>
   <g id="line2d_23"/>
   <g id="patch_3">
    <path d="M 53.415148 318.04 
L 53.415148 36 
" style="fill: none; stroke: #cccccc; stroke-width: 0.8; stroke-linejoin: miter; stroke-linecap: square"/>
   </g>
   <g id="patch_4">
    <path d="M 53.415148 318.04 
L 377.368098 318.04 
" style="fill: none; stroke: #cccccc; stroke-width: 0.8; stroke-linejoin: miter; stroke-linecap: square"/>
   </g>
   <g id="text_18">
    <!-- client_pu = TPU -->
    <g style="fill: #262626" transform="translate(179.767404 30) scale(0.1 -0.1)">
     <defs>
      <path id="ArialMT-69" d="M 425 3934 
L 425 4581 
L 988 4581 
L 988 3934 
L 425 3934 
z
M 425 0 
L 425 3319 
L 988 3319 
L 988 0 
L 425 0 
z
" transform="scale(0.015625)"/>
      <path id="ArialMT-6e" d="M 422 0 
L 422 3319 
L 928 3319 
L 928 2847 
Q 1294 3394 1984 3394 
Q 2284 3394 2536 3286 
Q 2788 3178 2913 3003 
Q 3038 2828 3088 2588 
Q 3119 2431 3119 2041 
L 3119 0 
L 2556 0 
L 2556 2019 
Q 2556 2363 2490 2533 
Q 2425 2703 2258 2804 
Q 2091 2906 1866 2906 
Q 1506 2906 1245 2678 
Q 984 2450 984 1813 
L 984 0 
L 422 0 
z
" transform="scale(0.015625)"/>
      <path id="ArialMT-5f" d="M -97 -1272 
L -97 -866 
L 3631 -866 
L 3631 -1272 
L -97 -1272 
z
" transform="scale(0.015625)"/>
      <path id="ArialMT-70" d="M 422 -1272 
L 422 3319 
L 934 3319 
L 934 2888 
Q 1116 3141 1344 3267 
Q 1572 3394 1897 3394 
Q 2322 3394 2647 3175 
Q 2972 2956 3137 2557 
Q 3303 2159 3303 1684 
Q 3303 1175 3120 767 
Q 2938 359 2589 142 
Q 2241 -75 1856 -75 
Q 1575 -75 1351 44 
Q 1128 163 984 344 
L 984 -1272 
L 422 -1272 
z
M 931 1641 
Q 931 1000 1190 694 
Q 1450 388 1819 388 
Q 2194 388 2461 705 
Q 2728 1022 2728 1688 
Q 2728 2322 2467 2637 
Q 2206 2953 1844 2953 
Q 1484 2953 1207 2617 
Q 931 2281 931 1641 
z
" transform="scale(0.015625)"/>
      <path id="ArialMT-3d" d="M 3381 2694 
L 356 2694 
L 356 3219 
L 3381 3219 
L 3381 2694 
z
M 3381 1303 
L 356 1303 
L 356 1828 
L 3381 1828 
L 3381 1303 
z
" transform="scale(0.015625)"/>
      <path id="ArialMT-54" d="M 1659 0 
L 1659 4041 
L 150 4041 
L 150 4581 
L 3781 4581 
L 3781 4041 
L 2266 4041 
L 2266 0 
L 1659 0 
z
" transform="scale(0.015625)"/>
      <path id="ArialMT-50" d="M 494 0 
L 494 4581 
L 2222 4581 
Q 2678 4581 2919 4538 
Q 3256 4481 3484 4323 
Q 3713 4166 3852 3881 
Q 3991 3597 3991 3256 
Q 3991 2672 3619 2267 
Q 3247 1863 2275 1863 
L 1100 1863 
L 1100 0 
L 494 0 
z
M 1100 2403 
L 2284 2403 
Q 2872 2403 3119 2622 
Q 3366 2841 3366 3238 
Q 3366 3525 3220 3729 
Q 3075 3934 2838 4000 
Q 2684 4041 2272 4041 
L 1100 4041 
L 1100 2403 
z
" transform="scale(0.015625)"/>
      <path id="ArialMT-55" d="M 3500 4581 
L 4106 4581 
L 4106 1934 
Q 4106 1244 3950 837 
Q 3794 431 3386 176 
Q 2978 -78 2316 -78 
Q 1672 -78 1262 144 
Q 853 366 678 786 
Q 503 1206 503 1934 
L 503 4581 
L 1109 4581 
L 1109 1938 
Q 1109 1341 1220 1058 
Q 1331 775 1601 622 
Q 1872 469 2263 469 
Q 2931 469 3215 772 
Q 3500 1075 3500 1938 
L 3500 4581 
z
" transform="scale(0.015625)"/>
     </defs>
     <use xlink:href="#ArialMT-63"/>
     <use xlink:href="#ArialMT-6c" x="50"/>
     <use xlink:href="#ArialMT-69" x="72.216797"/>
     <use xlink:href="#ArialMT-65" x="94.433594"/>
     <use xlink:href="#ArialMT-6e" x="150.048828"/>
     <use xlink:href="#ArialMT-74" x="205.664062"/>
     <use xlink:href="#ArialMT-5f" x="233.447266"/>
     <use xlink:href="#ArialMT-70" x="289.0625"/>
     <use xlink:href="#ArialMT-75" x="344.677734"/>
     <use xlink:href="#ArialMT-20" x="400.292969"/>
     <use xlink:href="#ArialMT-3d" x="428.076172"/>
     <use xlink:href="#ArialMT-20" x="486.474609"/>
     <use xlink:href="#ArialMT-54" x="512.507812"/>
     <use xlink:href="#ArialMT-50" x="573.591797"/>
     <use xlink:href="#ArialMT-55" x="640.291016"/>
    </g>
   </g>
  </g>
  <g id="axes_2">
   <g id="patch_5">
    <path d="M 388.136949 318.04 
L 712.0899 318.04 
L 712.0899 36 
L 388.136949 36 
z
" style="fill: #ffffff"/>
   </g>
   <g id="matplotlib.axis_3">
    <g id="xtick_10">
     <g id="line2d_24">
      <path d="M 402.862083 318.04 
L 402.862083 36 
" clip-path="url(#pd19b224c23)" style="fill: none; stroke: #cccccc; stroke-width: 0.8; stroke-linecap: round"/>
     </g>
     <g id="text_19">
      <!-- 0 -->
      <g style="fill: #262626" transform="translate(400.081614 332.197812) scale(0.1 -0.1)">
       <use xlink:href="#ArialMT-30"/>
      </g>
     </g>
    </g>
    <g id="xtick_11">
     <g id="line2d_25">
      <path d="M 439.674919 318.04 
L 439.674919 36 
" clip-path="url(#pd19b224c23)" style="fill: none; stroke: #cccccc; stroke-width: 0.8; stroke-linecap: round"/>
     </g>
     <g id="text_20">
      <!-- 5 -->
      <g style="fill: #262626" transform="translate(436.89445 332.197812) scale(0.1 -0.1)">
       <use xlink:href="#ArialMT-35"/>
      </g>
     </g>
    </g>
    <g id="xtick_12">
     <g id="line2d_26">
      <path d="M 476.487754 318.04 
L 476.487754 36 
" clip-path="url(#pd19b224c23)" style="fill: none; stroke: #cccccc; stroke-width: 0.8; stroke-linecap: round"/>
     </g>
     <g id="text_21">
      <!-- 10 -->
      <g style="fill: #262626" transform="translate(470.926816 332.197812) scale(0.1 -0.1)">
       <use xlink:href="#ArialMT-31"/>
       <use xlink:href="#ArialMT-30" x="55.615234"/>
      </g>
     </g>
    </g>
    <g id="xtick_13">
     <g id="line2d_27">
      <path d="M 513.300589 318.04 
L 513.300589 36 
" clip-path="url(#pd19b224c23)" style="fill: none; stroke: #cccccc; stroke-width: 0.8; stroke-linecap: round"/>
     </g>
     <g id="text_22">
      <!-- 15 -->
      <g style="fill: #262626" transform="translate(507.739652 332.197812) scale(0.1 -0.1)">
       <use xlink:href="#ArialMT-31"/>
       <use xlink:href="#ArialMT-35" x="55.615234"/>
      </g>
     </g>
    </g>
    <g id="xtick_14">
     <g id="line2d_28">
      <path d="M 550.113425 318.04 
L 550.113425 36 
" clip-path="url(#pd19b224c23)" style="fill: none; stroke: #cccccc; stroke-width: 0.8; stroke-linecap: round"/>
     </g>
     <g id="text_23">
      <!-- 20 -->
      <g style="fill: #262626" transform="translate(544.552487 332.197812) scale(0.1 -0.1)">
       <use xlink:href="#ArialMT-32"/>
       <use xlink:href="#ArialMT-30" x="55.615234"/>
      </g>
     </g>
    </g>
    <g id="xtick_15">
     <g id="line2d_29">
      <path d="M 586.92626 318.04 
L 586.92626 36 
" clip-path="url(#pd19b224c23)" style="fill: none; stroke: #cccccc; stroke-width: 0.8; stroke-linecap: round"/>
     </g>
     <g id="text_24">
      <!-- 25 -->
      <g style="fill: #262626" transform="translate(581.365322 332.197812) scale(0.1 -0.1)">
       <use xlink:href="#ArialMT-32"/>
       <use xlink:href="#ArialMT-35" x="55.615234"/>
      </g>
     </g>
    </g>
    <g id="xtick_16">
     <g id="line2d_30">
      <path d="M 623.739095 318.04 
L 623.739095 36 
" clip-path="url(#pd19b224c23)" style="fill: none; stroke: #cccccc; stroke-width: 0.8; stroke-linecap: round"/>
     </g>
     <g id="text_25">
      <!-- 30 -->
      <g style="fill: #262626" transform="translate(618.178158 332.197812) scale(0.1 -0.1)">
       <use xlink:href="#ArialMT-33"/>
       <use xlink:href="#ArialMT-30" x="55.615234"/>
      </g>
     </g>
    </g>
    <g id="xtick_17">
     <g id="line2d_31">
      <path d="M 660.551931 318.04 
L 660.551931 36 
" clip-path="url(#pd19b224c23)" style="fill: none; stroke: #cccccc; stroke-width: 0.8; stroke-linecap: round"/>
     </g>
     <g id="text_26">
      <!-- 35 -->
      <g style="fill: #262626" transform="translate(654.990993 332.197812) scale(0.1 -0.1)">
       <use xlink:href="#ArialMT-33"/>
       <use xlink:href="#ArialMT-35" x="55.615234"/>
      </g>
     </g>
    </g>
    <g id="xtick_18">
     <g id="line2d_32">
      <path d="M 697.364766 318.04 
L 697.364766 36 
" clip-path="url(#pd19b224c23)" style="fill: none; stroke: #cccccc; stroke-width: 0.8; stroke-linecap: round"/>
     </g>
     <g id="text_27">
      <!-- 40 -->
      <g style="fill: #262626" transform="translate(691.803828 332.197812) scale(0.1 -0.1)">
       <use xlink:href="#ArialMT-34"/>
       <use xlink:href="#ArialMT-30" x="55.615234"/>
      </g>
     </g>
    </g>
    <g id="text_28">
     <!-- offload to cloud before layer -->
     <g style="fill: #262626" transform="translate(488.499362 345.465) scale(0.1 -0.1)">
      <use xlink:href="#ArialMT-6f"/>
      <use xlink:href="#ArialMT-66" x="55.615234"/>
      <use xlink:href="#ArialMT-66" x="81.648438"/>
      <use xlink:href="#ArialMT-6c" x="109.431641"/>
      <use xlink:href="#ArialMT-6f" x="131.648438"/>
      <use xlink:href="#ArialMT-61" x="187.263672"/>
      <use xlink:href="#ArialMT-64" x="242.878906"/>
      <use xlink:href="#ArialMT-20" x="298.494141"/>
      <use xlink:href="#ArialMT-74" x="326.277344"/>
      <use xlink:href="#ArialMT-6f" x="354.060547"/>
      <use xlink:href="#ArialMT-20" x="409.675781"/>
      <use xlink:href="#ArialMT-63" x="437.458984"/>
      <use xlink:href="#ArialMT-6c" x="487.458984"/>
      <use xlink:href="#ArialMT-6f" x="509.675781"/>
      <use xlink:href="#ArialMT-75" x="565.291016"/>
      <use xlink:href="#ArialMT-64" x="620.90625"/>
      <use xlink:href="#ArialMT-20" x="676.521484"/>
      <use xlink:href="#ArialMT-62" x="704.304688"/>
      <use xlink:href="#ArialMT-65" x="759.919922"/>
      <use xlink:href="#ArialMT-66" x="815.535156"/>
      <use xlink:href="#ArialMT-6f" x="843.318359"/>
      <use xlink:href="#ArialMT-72" x="898.933594"/>
      <use xlink:href="#ArialMT-65" x="932.234375"/>
      <use xlink:href="#ArialMT-20" x="987.849609"/>
      <use xlink:href="#ArialMT-6c" x="1015.632812"/>
      <use xlink:href="#ArialMT-61" x="1037.849609"/>
      <use xlink:href="#ArialMT-79" x="1093.464844"/>
      <use xlink:href="#ArialMT-65" x="1143.464844"/>
      <use xlink:href="#ArialMT-72" x="1199.080078"/>
     </g>
    </g>
   </g>
   <g id="matplotlib.axis_4">
    <g id="ytick_7">
     <g id="line2d_33">
      <path d="M 388.136949 305.22 
L 712.0899 305.22 
" clip-path="url(#pd19b224c23)" style="fill: none; stroke: #cccccc; stroke-width: 0.8; stroke-linecap: round"/>
     </g>
    </g>
    <g id="ytick_8">
     <g id="line2d_34">
      <path d="M 388.136949 257.194479 
L 712.0899 257.194479 
" clip-path="url(#pd19b224c23)" style="fill: none; stroke: #cccccc; stroke-width: 0.8; stroke-linecap: round"/>
     </g>
    </g>
    <g id="ytick_9">
     <g id="line2d_35">
      <path d="M 388.136949 209.168959 
L 712.0899 209.168959 
" clip-path="url(#pd19b224c23)" style="fill: none; stroke: #cccccc; stroke-width: 0.8; stroke-linecap: round"/>
     </g>
    </g>
    <g id="ytick_10">
     <g id="line2d_36">
      <path d="M 388.136949 161.143438 
L 712.0899 161.143438 
" clip-path="url(#pd19b224c23)" style="fill: none; stroke: #cccccc; stroke-width: 0.8; stroke-linecap: round"/>
     </g>
    </g>
    <g id="ytick_11">
     <g id="line2d_37">
      <path d="M 388.136949 113.117918 
L 712.0899 113.117918 
" clip-path="url(#pd19b224c23)" style="fill: none; stroke: #cccccc; stroke-width: 0.8; stroke-linecap: round"/>
     </g>
    </g>
    <g id="ytick_12">
     <g id="line2d_38">
      <path d="M 388.136949 65.092397 
L 712.0899 65.092397 
" clip-path="url(#pd19b224c23)" style="fill: none; stroke: #cccccc; stroke-width: 0.8; stroke-linecap: round"/>
     </g>
    </g>
   </g>
   <g id="PolyCollection_5">
    <defs>
     <path id="m987b2f0fb3" d="M 402.862083 -56.279713 
L 402.862083 -55.942722 
L 410.22465 -58.498863 
L 417.587217 -87.925974 
L 424.949784 -87.183951 
L 432.312351 -87.851246 
L 439.674919 -88.005683 
L 447.037486 -86.98902 
L 454.400053 -103.694794 
L 461.76262 -103.71158 
L 469.125187 -117.600912 
L 476.487754 -117.473036 
L 483.850321 -130.965381 
L 491.212888 -130.287038 
L 498.575455 -147.400609 
L 505.938022 -148.079663 
L 513.300589 -160.602879 
L 520.663156 -160.337842 
L 528.025723 -173.164646 
L 535.38829 -173.987163 
L 542.750857 -186.216972 
L 550.113425 -186.047859 
L 557.475992 -201.97385 
L 564.838559 -202.205942 
L 572.201126 -214.232505 
L 579.563693 -213.99827 
L 586.92626 -226.012213 
L 594.288827 -225.864602 
L 601.651394 -238.905427 
L 609.013961 -239.440108 
L 616.376528 -251.527902 
L 623.739095 -250.252999 
L 631.101662 -262.447749 
L 638.464229 -262.918771 
L 645.826796 -279.784098 
L 653.189363 -280.178968 
L 660.551931 -292.687037 
L 667.914498 -293.520735 
L 675.277065 -305.783433 
L 682.639632 -306.061768 
L 690.002199 -305.562105 
L 697.364766 -305.837592 
L 697.364766 -306.059905 
L 697.364766 -306.059905 
L 690.002199 -305.850279 
L 682.639632 -306.318006 
L 675.277065 -306.081711 
L 667.914498 -293.730829 
L 660.551931 -293.02455 
L 653.189363 -280.463656 
L 645.826796 -280.172984 
L 638.464229 -263.143439 
L 631.101662 -262.73886 
L 623.739095 -250.568259 
L 616.376528 -251.832106 
L 609.013961 -239.729681 
L 601.651394 -239.229605 
L 594.288827 -226.091216 
L 586.92626 -226.293564 
L 579.563693 -214.170385 
L 572.201126 -214.494064 
L 564.838559 -202.440794 
L 557.475992 -202.290295 
L 550.113425 -186.280778 
L 542.750857 -186.430541 
L 535.38829 -174.240108 
L 528.025723 -173.398369 
L 520.663156 -160.556467 
L 513.300589 -160.923789 
L 505.938022 -148.361749 
L 498.575455 -147.640685 
L 491.212888 -130.554414 
L 483.850321 -131.245782 
L 476.487754 -117.81164 
L 469.125187 -117.827411 
L 461.76262 -104.042407 
L 454.400053 -103.967649 
L 447.037486 -87.21628 
L 439.674919 -88.253032 
L 432.312351 -88.125384 
L 424.949784 -87.405838 
L 417.587217 -88.149787 
L 410.22465 -60.408894 
L 402.862083 -56.279713 
z
" style="stroke: #1f77b4; stroke-opacity: 0.2"/>
    </defs>
    <g clip-path="url(#pd19b224c23)">
     <use xlink:href="#m987b2f0fb3" x="0" y="360" style="fill: #1f77b4; fill-opacity: 0.2; stroke: #1f77b4; stroke-opacity: 0.2"/>
    </g>
   </g>
   <g id="PolyCollection_6">
    <defs>
     <path id="m16c837f40e" d="M 402.862083 -104.423068 
L 402.862083 -98.339735 
L 410.22465 -98.201362 
L 417.587217 -95.983351 
L 424.949784 -97.830569 
L 432.312351 -96.171131 
L 439.674919 -95.742479 
L 447.037486 -94.860875 
L 454.400053 -97.625668 
L 461.76262 -93.338826 
L 469.125187 -92.494513 
L 476.487754 -91.202999 
L 483.850321 -90.958993 
L 491.212888 -88.835761 
L 498.575455 -85.485261 
L 505.938022 -84.476857 
L 513.300589 -83.262207 
L 520.663156 -82.145362 
L 528.025723 -80.978366 
L 535.38829 -80.083134 
L 542.750857 -78.985391 
L 550.113425 -77.969843 
L 557.475992 -74.984216 
L 564.838559 -74.515824 
L 572.201126 -72.672172 
L 579.563693 -72.582364 
L 586.92626 -70.793425 
L 594.288827 -70.490805 
L 601.651394 -68.927226 
L 609.013961 -68.375184 
L 616.376528 -66.792299 
L 623.739095 -66.358245 
L 631.101662 -64.439421 
L 638.464229 -64.092677 
L 645.826796 -61.28388 
L 653.189363 -61.213883 
L 660.551931 -58.14444 
L 667.914498 -57.823653 
L 675.277065 -55.575723 
L 682.639632 -55.400454 
L 690.002199 -55.096152 
L 697.364766 -54.78 
L 697.364766 -54.78 
L 697.364766 -54.78 
L 690.002199 -55.34789 
L 682.639632 -56.560438 
L 675.277065 -56.150816 
L 667.914498 -60.818009 
L 660.551931 -61.600993 
L 653.189363 -68.154507 
L 645.826796 -69.635686 
L 638.464229 -65.624919 
L 631.101662 -65.645942 
L 623.739095 -67.516932 
L 616.376528 -68.029365 
L 609.013961 -70.066235 
L 601.651394 -71.268614 
L 594.288827 -72.120455 
L 586.92626 -72.405522 
L 579.563693 -73.62513 
L 572.201126 -74.279094 
L 564.838559 -76.595761 
L 557.475992 -76.186667 
L 550.113425 -82.487604 
L 542.750857 -82.58159 
L 535.38829 -83.905281 
L 528.025723 -82.682984 
L 520.663156 -85.375642 
L 513.300589 -85.335133 
L 505.938022 -91.69364 
L 498.575455 -93.970302 
L 491.212888 -92.252753 
L 483.850321 -93.160027 
L 476.487754 -94.085743 
L 469.125187 -93.672063 
L 461.76262 -95.075981 
L 454.400053 -102.38639 
L 447.037486 -99.328269 
L 439.674919 -96.742191 
L 432.312351 -99.642104 
L 424.949784 -101.391793 
L 417.587217 -97.094422 
L 410.22465 -102.778902 
L 402.862083 -104.423068 
z
" style="stroke: #ff7f0e; stroke-opacity: 0.2"/>
    </defs>
    <g clip-path="url(#pd19b224c23)">
     <use xlink:href="#m16c837f40e" x="0" y="360" style="fill: #ff7f0e; fill-opacity: 0.2; stroke: #ff7f0e; stroke-opacity: 0.2"/>
    </g>
   </g>
   <g id="PolyCollection_7">
    <defs>
     <path id="m72f1d9f2c8" d="M 402.862083 -59.733554 
L 402.862083 -58.645698 
L 410.22465 -56.813697 
L 417.587217 -59.59482 
L 424.949784 -59.585055 
L 432.312351 -59.543738 
L 439.674919 -59.695348 
L 447.037486 -56.700429 
L 454.400053 -59.851601 
L 461.76262 -59.7606 
L 469.125187 -59.669383 
L 476.487754 -59.715078 
L 483.850321 -59.733599 
L 491.212888 -59.836097 
L 498.575455 -58.622514 
L 505.938022 -58.093632 
L 513.300589 -57.668807 
L 520.663156 -57.643546 
L 528.025723 -57.741546 
L 535.38829 -57.666106 
L 542.750857 -57.755039 
L 550.113425 -57.829699 
L 557.475992 -57.010724 
L 564.838559 -57.104411 
L 572.201126 -56.746178 
L 579.563693 -57.870747 
L 586.92626 -56.855275 
L 594.288827 -57.152593 
L 601.651394 -57.081105 
L 609.013961 -57.335756 
L 616.376528 -57.307015 
L 623.739095 -57.50277 
L 631.101662 -57.463581 
L 638.464229 -57.368341 
L 645.826796 -57.258047 
L 653.189363 -56.306829 
L 660.551931 -56.316215 
L 667.914498 -56.208149 
L 675.277065 -56.131302 
L 682.639632 -56.34559 
L 690.002199 -55.639519 
L 697.364766 -54.78 
L 697.364766 -54.78 
L 697.364766 -54.78 
L 690.002199 -55.981819 
L 682.639632 -57.824355 
L 675.277065 -57.08073 
L 667.914498 -57.164335 
L 660.551931 -57.602859 
L 653.189363 -57.717778 
L 645.826796 -57.835792 
L 638.464229 -58.621067 
L 631.101662 -58.523078 
L 623.739095 -58.603965 
L 616.376528 -58.553325 
L 609.013961 -58.494086 
L 601.651394 -58.480805 
L 594.288827 -58.527632 
L 586.92626 -58.619826 
L 579.563693 -58.492394 
L 572.201126 -58.465501 
L 564.838559 -58.62833 
L 557.475992 -58.594766 
L 550.113425 -59.643552 
L 542.750857 -59.251512 
L 535.38829 -59.237984 
L 528.025723 -58.941208 
L 520.663156 -58.855694 
L 513.300589 -59.184421 
L 505.938022 -61.645101 
L 498.575455 -61.578239 
L 491.212888 -64.487952 
L 483.850321 -63.186313 
L 476.487754 -63.202751 
L 469.125187 -65.039797 
L 461.76262 -63.533355 
L 454.400053 -61.005871 
L 447.037486 -57.033422 
L 439.674919 -59.809913 
L 432.312351 -59.746389 
L 424.949784 -60.076253 
L 417.587217 -59.775177 
L 410.22465 -57.145924 
L 402.862083 -59.733554 
z
" style="stroke: #2ca02c; stroke-opacity: 0.2"/>
    </defs>
    <g clip-path="url(#pd19b224c23)">
     <use xlink:href="#m72f1d9f2c8" x="0" y="360" style="fill: #2ca02c; fill-opacity: 0.2; stroke: #2ca02c; stroke-opacity: 0.2"/>
    </g>
   </g>
   <g id="PolyCollection_8">
    <defs>
     <path id="md945cdeb94" d="M 402.862083 -110.71657 
L 402.862083 -104.553152 
L 410.22465 -105.415426 
L 417.587217 -134.182466 
L 424.949784 -135.415952 
L 432.312351 -134.218836 
L 439.674919 -134.075992 
L 447.037486 -129.618445 
L 454.400053 -152.924909 
L 461.76262 -148.081642 
L 469.125187 -160.596371 
L 476.487754 -159.935763 
L 483.850321 -172.910083 
L 491.212888 -170.135217 
L 498.575455 -182.467881 
L 505.938022 -182.005155 
L 513.300589 -192.156905 
L 520.663156 -191.040468 
L 528.025723 -202.676526 
L 535.38829 -202.555245 
L 542.750857 -213.626171 
L 550.113425 -212.653308 
L 557.475992 -225.512131 
L 564.838559 -224.921806 
L 572.201126 -235.406623 
L 579.563693 -235.040811 
L 586.92626 -245.30827 
L 594.288827 -244.939975 
L 601.651394 -256.151776 
L 609.013961 -256.530317 
L 616.376528 -267.0572 
L 623.739095 -265.182016 
L 631.101662 -275.237012 
L 638.464229 -275.844874 
L 645.826796 -289.056085 
L 653.189363 -288.555928 
L 660.551931 -297.808596 
L 667.914498 -298.240195 
L 675.277065 -308.073873 
L 682.639632 -308.517338 
L 690.002199 -306.908649 
L 697.364766 -305.837592 
L 697.364766 -306.059905 
L 697.364766 -306.059905 
L 690.002199 -307.604684 
L 682.639632 -311.18 
L 675.277065 -309.888276 
L 667.914498 -302.487179 
L 660.551931 -302.356212 
L 653.189363 -296.887259 
L 645.826796 -297.955832 
L 638.464229 -278.303961 
L 631.101662 -277.075306 
L 623.739095 -267.364216 
L 616.376528 -268.877639 
L 609.013961 -259.062257 
L 601.651394 -259.3741 
L 594.288827 -247.2711 
L 586.92626 -247.41449 
L 579.563693 -236.612298 
L 572.201126 -237.623161 
L 564.838559 -228.949318 
L 557.475992 -227.423848 
L 550.113425 -219.580044 
L 542.750857 -221.286958 
L 535.38829 -210.336366 
L 528.025723 -205.27822 
L 520.663156 -194.621162 
L 513.300589 -198.907448 
L 505.938022 -194.846195 
L 498.575455 -194.844744 
L 491.212888 -176.194184 
L 483.850321 -178.562677 
L 476.487754 -165.579994 
L 469.125187 -167.807538 
L 461.76262 -152.950064 
L 454.400053 -160.574962 
L 447.037486 -134.264536 
L 439.674919 -135.369421 
L 432.312351 -138.553772 
L 424.949784 -139.851058 
L 417.587217 -135.916647 
L 410.22465 -110.4369 
L 402.862083 -110.71657 
z
" style="stroke: #d62728; stroke-opacity: 0.2"/>
    </defs>
    <g clip-path="url(#pd19b224c23)">
     <use xlink:href="#md945cdeb94" x="0" y="360" style="fill: #d62728; fill-opacity: 0.2; stroke: #d62728; stroke-opacity: 0.2"/>
    </g>
   </g>
   <g id="line2d_39">
    <path d="M 402.862083 303.823661 
L 410.22465 299.973461 
L 417.587217 271.971963 
L 424.949784 272.691531 
L 432.312351 272.049053 
L 439.674919 271.883602 
L 447.037486 272.924164 
L 454.400053 256.195902 
L 461.76262 256.134538 
L 469.125187 242.292075 
L 476.487754 242.382599 
L 483.850321 228.90404 
L 491.212888 229.594912 
L 498.575455 212.48576 
L 505.938022 211.803256 
L 513.300589 199.266616 
L 520.663156 199.565208 
L 528.025723 186.7144 
L 535.38829 185.898095 
L 542.750857 173.666826 
L 550.113425 173.825804 
L 557.475992 157.882246 
L 564.838559 157.67525 
L 572.201126 145.620379 
L 579.563693 145.924119 
L 586.92626 133.852074 
L 594.288827 134.030531 
L 601.651394 120.946808 
L 609.013961 120.405946 
L 616.376528 108.323968 
L 623.739095 109.591856 
L 631.101662 97.397834 
L 638.464229 96.948821 
L 645.826796 80.008731 
L 653.189363 79.667729 
L 660.551931 67.153808 
L 667.914498 66.392661 
L 675.277065 54.044467 
L 682.639632 53.802072 
L 690.002199 54.288506 
L 697.364766 54.058787 
" clip-path="url(#pd19b224c23)" style="fill: none; stroke: #1f77b4; stroke-width: 1.5; stroke-linecap: round"/>
   </g>
   <g id="line2d_40">
    <path d="M 402.862083 259.809469 
L 410.22465 260.628016 
L 417.587217 263.711447 
L 424.949784 260.859859 
L 432.312351 263.381007 
L 439.674919 263.927801 
L 447.037486 262.65647 
L 454.400053 260.246525 
L 461.76262 266.037923 
L 469.125187 267.215701 
L 476.487754 267.901121 
L 483.850321 268.566611 
L 491.212888 270.724925 
L 498.575455 273.820626 
L 505.938022 274.757436 
L 513.300589 276.288562 
L 520.663156 277.147426 
L 528.025723 278.422072 
L 535.38829 279.101273 
L 542.750857 280.152887 
L 550.113425 281.496065 
L 557.475992 284.446657 
L 564.838559 284.674994 
L 572.201126 286.52549 
L 579.563693 287.006201 
L 586.92626 288.66361 
L 594.288827 288.978129 
L 601.651394 290.675735 
L 609.013961 291.083016 
L 616.376528 292.80389 
L 623.739095 293.162929 
L 631.101662 295.027736 
L 638.464229 295.264406 
L 645.826796 296.914394 
L 653.189363 295.731478 
L 660.551931 300.901737 
L 667.914498 301.371259 
L 675.277065 304.3024 
L 682.639632 304.110466 
L 690.002199 304.770745 
L 697.364766 305.22 
" clip-path="url(#pd19b224c23)" style="fill: none; stroke: #ff7f0e; stroke-width: 1.5; stroke-linecap: round"/>
   </g>
   <g id="line2d_41">
    <path d="M 402.862083 300.664035 
L 410.22465 303.047668 
L 417.587217 300.342976 
L 424.949784 300.35104 
L 432.312351 300.402622 
L 439.674919 300.250222 
L 447.037486 303.125864 
L 454.400053 299.747903 
L 461.76262 299.481077 
L 469.125187 299.61042 
L 476.487754 299.355572 
L 483.850321 299.41898 
L 491.212888 299.378944 
L 498.575455 300.729592 
L 505.938022 300.753718 
L 513.300589 302.191422 
L 520.663156 301.915249 
L 528.025723 302.117888 
L 535.38829 301.985945 
L 542.750857 301.914423 
L 550.113425 301.222032 
L 557.475992 301.761358 
L 564.838559 301.659447 
L 572.201126 301.845396 
L 579.563693 301.689496 
L 586.92626 301.765148 
L 594.288827 301.774616 
L 601.651394 301.716493 
L 609.013961 301.6901 
L 616.376528 301.717905 
L 623.739095 301.697864 
L 631.101662 301.684282 
L 638.464229 301.599475 
L 645.826796 302.262772 
L 653.189363 302.991503 
L 660.551931 303.186138 
L 667.914498 303.591571 
L 675.277065 303.715205 
L 682.639632 302.675262 
L 690.002199 304.207404 
L 697.364766 305.22 
" clip-path="url(#pd19b224c23)" style="fill: none; stroke: #2ca02c; stroke-width: 1.5; stroke-linecap: round"/>
   </g>
   <g id="line2d_42">
    <path d="M 402.862083 254.22763 
L 410.22465 253.233281 
L 417.587217 225.525826 
L 424.949784 222.57701 
L 432.312351 224.611901 
L 439.674919 225.618856 
L 447.037486 228.001568 
L 454.400053 205.285539 
L 461.76262 210.358432 
L 469.125187 198.558482 
L 476.487754 198.392987 
L 483.850321 186.09153 
L 491.212888 188.671758 
L 498.575455 176.582854 
L 505.938022 176.590139 
L 513.300589 166.798692 
L 520.663156 168.01021 
L 528.025723 156.474493 
L 535.38829 156.199417 
L 542.750857 144.868195 
L 550.113425 145.872684 
L 557.475992 133.725814 
L 564.838559 133.774039 
L 572.201126 123.575999 
L 579.563693 124.308979 
L 586.92626 113.783819 
L 594.288827 114.419919 
L 601.651394 102.86869 
L 609.013961 102.796776 
L 616.376528 92.456158 
L 623.739095 94.129728 
L 631.101662 83.800708 
L 638.464229 83.441068 
L 645.826796 68.082567 
L 653.189363 67.87909 
L 660.551931 60.528433 
L 667.914498 60.520455 
L 675.277065 51.579207 
L 682.639632 50.211128 
L 690.002199 52.769849 
L 697.364766 54.058787 
" clip-path="url(#pd19b224c23)" style="fill: none; stroke: #d62728; stroke-width: 1.5; stroke-linecap: round"/>
   </g>
   <g id="patch_6">
    <path d="M 388.136949 318.04 
L 388.136949 36 
" style="fill: none; stroke: #cccccc; stroke-width: 0.8; stroke-linejoin: miter; stroke-linecap: square"/>
   </g>
   <g id="patch_7">
    <path d="M 388.136949 318.04 
L 712.0899 318.04 
" style="fill: none; stroke: #cccccc; stroke-width: 0.8; stroke-linejoin: miter; stroke-linecap: square"/>
   </g>
   <g id="text_29">
    <!-- client_pu = CPU -->
    <g style="fill: #262626" transform="translate(513.844675 30) scale(0.1 -0.1)">
     <defs>
      <path id="ArialMT-43" d="M 3763 1606 
L 4369 1453 
Q 4178 706 3683 314 
Q 3188 -78 2472 -78 
Q 1731 -78 1267 223 
Q 803 525 561 1097 
Q 319 1669 319 2325 
Q 319 3041 592 3573 
Q 866 4106 1370 4382 
Q 1875 4659 2481 4659 
Q 3169 4659 3637 4309 
Q 4106 3959 4291 3325 
L 3694 3184 
Q 3534 3684 3231 3912 
Q 2928 4141 2469 4141 
Q 1941 4141 1586 3887 
Q 1231 3634 1087 3207 
Q 944 2781 944 2328 
Q 944 1744 1114 1308 
Q 1284 872 1643 656 
Q 2003 441 2422 441 
Q 2931 441 3284 734 
Q 3638 1028 3763 1606 
z
" transform="scale(0.015625)"/>
     </defs>
     <use xlink:href="#ArialMT-63"/>
     <use xlink:href="#ArialMT-6c" x="50"/>
     <use xlink:href="#ArialMT-69" x="72.216797"/>
     <use xlink:href="#ArialMT-65" x="94.433594"/>
     <use xlink:href="#ArialMT-6e" x="150.048828"/>
     <use xlink:href="#ArialMT-74" x="205.664062"/>
     <use xlink:href="#ArialMT-5f" x="233.447266"/>
     <use xlink:href="#ArialMT-70" x="289.0625"/>
     <use xlink:href="#ArialMT-75" x="344.677734"/>
     <use xlink:href="#ArialMT-20" x="400.292969"/>
     <use xlink:href="#ArialMT-3d" x="428.076172"/>
     <use xlink:href="#ArialMT-20" x="486.474609"/>
     <use xlink:href="#ArialMT-43" x="514.257812"/>
     <use xlink:href="#ArialMT-50" x="586.474609"/>
     <use xlink:href="#ArialMT-55" x="653.173828"/>
    </g>
   </g>
  </g>
  <g id="text_30">
   <!-- ResNet50 latency -->
   <g style="fill: #262626" transform="translate(348.149063 15.825) scale(0.12 -0.12)">
    <defs>
     <path id="ArialMT-52" d="M 503 0 
L 503 4581 
L 2534 4581 
Q 3147 4581 3465 4457 
Q 3784 4334 3975 4021 
Q 4166 3709 4166 3331 
Q 4166 2844 3850 2509 
Q 3534 2175 2875 2084 
Q 3116 1969 3241 1856 
Q 3506 1613 3744 1247 
L 4541 0 
L 3778 0 
L 3172 953 
Q 2906 1366 2734 1584 
Q 2563 1803 2427 1890 
Q 2291 1978 2150 2013 
Q 2047 2034 1813 2034 
L 1109 2034 
L 1109 0 
L 503 0 
z
M 1109 2559 
L 2413 2559 
Q 2828 2559 3062 2645 
Q 3297 2731 3419 2920 
Q 3541 3109 3541 3331 
Q 3541 3656 3305 3865 
Q 3069 4075 2559 4075 
L 1109 4075 
L 1109 2559 
z
" transform="scale(0.015625)"/>
     <path id="ArialMT-4e" d="M 488 0 
L 488 4581 
L 1109 4581 
L 3516 984 
L 3516 4581 
L 4097 4581 
L 4097 0 
L 3475 0 
L 1069 3600 
L 1069 0 
L 488 0 
z
" transform="scale(0.015625)"/>
    </defs>
    <use xlink:href="#ArialMT-52"/>
    <use xlink:href="#ArialMT-65" x="72.216797"/>
    <use xlink:href="#ArialMT-73" x="127.832031"/>
    <use xlink:href="#ArialMT-4e" x="177.832031"/>
    <use xlink:href="#ArialMT-65" x="250.048828"/>
    <use xlink:href="#ArialMT-74" x="305.664062"/>
    <use xlink:href="#ArialMT-35" x="333.447266"/>
    <use xlink:href="#ArialMT-30" x="389.0625"/>
    <use xlink:href="#ArialMT-20" x="444.677734"/>
    <use xlink:href="#ArialMT-6c" x="472.460938"/>
    <use xlink:href="#ArialMT-61" x="494.677734"/>
    <use xlink:href="#ArialMT-74" x="550.292969"/>
    <use xlink:href="#ArialMT-65" x="578.076172"/>
    <use xlink:href="#ArialMT-6e" x="633.691406"/>
    <use xlink:href="#ArialMT-63" x="689.306641"/>
    <use xlink:href="#ArialMT-79" x="739.306641"/>
   </g>
  </g>
  <g id="legend_1">
   <g id="text_31">
    <!-- variable -->
    <g style="fill: #262626" transform="translate(732.995156 154.294531) scale(0.1 -0.1)">
     <defs>
      <path id="ArialMT-76" d="M 1344 0 
L 81 3319 
L 675 3319 
L 1388 1331 
Q 1503 1009 1600 663 
Q 1675 925 1809 1294 
L 2547 3319 
L 3125 3319 
L 1869 0 
L 1344 0 
z
" transform="scale(0.015625)"/>
     </defs>
     <use xlink:href="#ArialMT-76"/>
     <use xlink:href="#ArialMT-61" x="50"/>
     <use xlink:href="#ArialMT-72" x="105.615234"/>
     <use xlink:href="#ArialMT-69" x="138.916016"/>
     <use xlink:href="#ArialMT-61" x="161.132812"/>
     <use xlink:href="#ArialMT-62" x="216.748047"/>
     <use xlink:href="#ArialMT-6c" x="272.363281"/>
     <use xlink:href="#ArialMT-65" x="294.580078"/>
    </g>
   </g>
   <g id="line2d_43">
    <path d="M 718.9975 164.939844 
L 728.9975 164.939844 
L 738.9975 164.939844 
" style="fill: none; stroke: #1f77b4; stroke-width: 1.5; stroke-linecap: round"/>
   </g>
   <g id="text_32">
    <!-- client -->
    <g style="fill: #262626" transform="translate(746.9975 168.439844) scale(0.1 -0.1)">
     <use xlink:href="#ArialMT-63"/>
     <use xlink:href="#ArialMT-6c" x="50"/>
     <use xlink:href="#ArialMT-69" x="72.216797"/>
     <use xlink:href="#ArialMT-65" x="94.433594"/>
     <use xlink:href="#ArialMT-6e" x="150.048828"/>
     <use xlink:href="#ArialMT-74" x="205.664062"/>
    </g>
   </g>
   <g id="line2d_44">
    <path d="M 718.9975 179.085156 
L 728.9975 179.085156 
L 738.9975 179.085156 
" style="fill: none; stroke: #ff7f0e; stroke-width: 1.5; stroke-linecap: round"/>
   </g>
   <g id="text_33">
    <!-- server -->
    <g style="fill: #262626" transform="translate(746.9975 182.585156) scale(0.1 -0.1)">
     <use xlink:href="#ArialMT-73"/>
     <use xlink:href="#ArialMT-65" x="50"/>
     <use xlink:href="#ArialMT-72" x="105.615234"/>
     <use xlink:href="#ArialMT-76" x="138.916016"/>
     <use xlink:href="#ArialMT-65" x="188.916016"/>
     <use xlink:href="#ArialMT-72" x="244.53125"/>
    </g>
   </g>
   <g id="line2d_45">
    <path d="M 718.9975 193.230469 
L 728.9975 193.230469 
L 738.9975 193.230469 
" style="fill: none; stroke: #2ca02c; stroke-width: 1.5; stroke-linecap: round"/>
   </g>
   <g id="text_34">
    <!-- network -->
    <g style="fill: #262626" transform="translate(746.9975 196.730469) scale(0.1 -0.1)">
     <defs>
      <path id="ArialMT-77" d="M 1034 0 
L 19 3319 
L 600 3319 
L 1128 1403 
L 1325 691 
Q 1338 744 1497 1375 
L 2025 3319 
L 2603 3319 
L 3100 1394 
L 3266 759 
L 3456 1400 
L 4025 3319 
L 4572 3319 
L 3534 0 
L 2950 0 
L 2422 1988 
L 2294 2553 
L 1622 0 
L 1034 0 
z
" transform="scale(0.015625)"/>
      <path id="ArialMT-6b" d="M 425 0 
L 425 4581 
L 988 4581 
L 988 1969 
L 2319 3319 
L 3047 3319 
L 1778 2088 
L 3175 0 
L 2481 0 
L 1384 1697 
L 988 1316 
L 988 0 
L 425 0 
z
" transform="scale(0.015625)"/>
     </defs>
     <use xlink:href="#ArialMT-6e"/>
     <use xlink:href="#ArialMT-65" x="55.615234"/>
     <use xlink:href="#ArialMT-74" x="111.230469"/>
     <use xlink:href="#ArialMT-77" x="139.013672"/>
     <use xlink:href="#ArialMT-6f" x="211.230469"/>
     <use xlink:href="#ArialMT-72" x="266.845703"/>
     <use xlink:href="#ArialMT-6b" x="300.146484"/>
    </g>
   </g>
   <g id="line2d_46">
    <path d="M 718.9975 207.375781 
L 728.9975 207.375781 
L 738.9975 207.375781 
" style="fill: none; stroke: #d62728; stroke-width: 1.5; stroke-linecap: round"/>
   </g>
   <g id="text_35">
    <!-- total -->
    <g style="fill: #262626" transform="translate(746.9975 210.875781) scale(0.1 -0.1)">
     <use xlink:href="#ArialMT-74"/>
     <use xlink:href="#ArialMT-6f" x="27.783203"/>
     <use xlink:href="#ArialMT-74" x="83.398438"/>
     <use xlink:href="#ArialMT-61" x="111.181641"/>
     <use xlink:href="#ArialMT-6c" x="166.796875"/>
    </g>
   </g>
  </g>
 </g>
 <defs>
  <clipPath id="p5989cd3561">
   <rect x="53.415148" y="36" width="323.952951" height="282.04"/>
  </clipPath>
  <clipPath id="pd19b224c23">
   <rect x="388.136949" y="36" width="323.952951" height="282.04"/>
  </clipPath>
 </defs>
</svg>
