<?xml version="1.0" encoding="utf-8" standalone="no"?>
<!DOCTYPE svg PUBLIC "-//W3C//DTD SVG 1.1//EN"
  "http://www.w3.org/Graphics/SVG/1.1/DTD/svg11.dtd">
<svg xmlns:xlink="http://www.w3.org/1999/xlink" width="791.01pt" height="360pt" viewBox="0 0 791.01 360" xmlns="http://www.w3.org/2000/svg" version="1.1">
 <metadata>
  <rdf:RDF xmlns:dc="http://purl.org/dc/elements/1.1/" xmlns:cc="http://creativecommons.org/ns#" xmlns:rdf="http://www.w3.org/1999/02/22-rdf-syntax-ns#">
   <cc:Work>
    <dc:type rdf:resource="http://purl.org/dc/dcmitype/StillImage"/>
    <dc:date>2023-12-04T17:01:37.018656</dc:date>
    <dc:format>image/svg+xml</dc:format>
    <dc:creator>
     <cc:Agent>
      <dc:title>Matplotlib v3.8.0, https://matplotlib.org/</dc:title>
     </cc:Agent>
    </dc:creator>
   </cc:Work>
  </rdf:RDF>
 </metadata>
 <defs>
  <style type="text/css">*{stroke-linejoin: round; stroke-linecap: butt}</style>
 </defs>
 <g id="figure_1">
  <g id="patch_1">
   <path d="M 0 360 
L 791.01 360 
L 791.01 0 
L 0 0 
z
" style="fill: #ffffff"/>
  </g>
  <g id="axes_1">
   <g id="patch_2">
    <path d="M 53.415148 318.04 
L 377.368098 318.04 
L 377.368098 36 
L 53.415148 36 
z
" style="fill: #ffffff"/>
   </g>
   <g id="matplotlib.axis_1">
    <g id="xtick_1">
     <g id="line2d_1">
      <path d="M 68.140282 318.04 
L 68.140282 36 
" clip-path="url(#p332cbab09e)" style="fill: none; stroke: #cccccc; stroke-width: 0.8; stroke-linecap: round"/>
     </g>
     <g id="text_1">
      <!-- 0 -->
      <g style="fill: #262626" transform="translate(65.359813 332.197812) scale(0.1 -0.1)">
       <defs>
        <path id="ArialMT-30" d="M 266 2259 
Q 266 3072 433 3567 
Q 600 4063 929 4331 
Q 1259 4600 1759 4600 
Q 2128 4600 2406 4451 
Q 2684 4303 2865 4023 
Q 3047 3744 3150 3342 
Q 3253 2941 3253 2259 
Q 3253 1453 3087 958 
Q 2922 463 2592 192 
Q 2263 -78 1759 -78 
Q 1097 -78 719 397 
Q 266 969 266 2259 
z
M 844 2259 
Q 844 1131 1108 757 
Q 1372 384 1759 384 
Q 2147 384 2411 759 
Q 2675 1134 2675 2259 
Q 2675 3391 2411 3762 
Q 2147 4134 1753 4134 
Q 1366 4134 1134 3806 
Q 844 3388 844 2259 
z
" transform="scale(0.015625)"/>
       </defs>
       <use xlink:href="#ArialMT-30"/>
      </g>
     </g>
    </g>
    <g id="xtick_2">
     <g id="line2d_2">
      <path d="M 104.953117 318.04 
L 104.953117 36 
" clip-path="url(#p332cbab09e)" style="fill: none; stroke: #cccccc; stroke-width: 0.8; stroke-linecap: round"/>
     </g>
     <g id="text_2">
      <!-- 5 -->
      <g style="fill: #262626" transform="translate(102.172648 332.197812) scale(0.1 -0.1)">
       <defs>
        <path id="ArialMT-35" d="M 266 1200 
L 856 1250 
Q 922 819 1161 601 
Q 1400 384 1738 384 
Q 2144 384 2425 690 
Q 2706 997 2706 1503 
Q 2706 1984 2436 2262 
Q 2166 2541 1728 2541 
Q 1456 2541 1237 2417 
Q 1019 2294 894 2097 
L 366 2166 
L 809 4519 
L 3088 4519 
L 3088 3981 
L 1259 3981 
L 1013 2750 
Q 1425 3038 1878 3038 
Q 2478 3038 2890 2622 
Q 3303 2206 3303 1553 
Q 3303 931 2941 478 
Q 2500 -78 1738 -78 
Q 1113 -78 717 272 
Q 322 622 266 1200 
z
" transform="scale(0.015625)"/>
       </defs>
       <use xlink:href="#ArialMT-35"/>
      </g>
     </g>
    </g>
    <g id="xtick_3">
     <g id="line2d_3">
      <path d="M 141.765952 318.04 
L 141.765952 36 
" clip-path="url(#p332cbab09e)" style="fill: none; stroke: #cccccc; stroke-width: 0.8; stroke-linecap: round"/>
     </g>
     <g id="text_3">
      <!-- 10 -->
      <g style="fill: #262626" transform="translate(136.205015 332.197812) scale(0.1 -0.1)">
       <defs>
        <path id="ArialMT-31" d="M 2384 0 
L 1822 0 
L 1822 3584 
Q 1619 3391 1289 3197 
Q 959 3003 697 2906 
L 697 3450 
Q 1169 3672 1522 3987 
Q 1875 4303 2022 4600 
L 2384 4600 
L 2384 0 
z
" transform="scale(0.015625)"/>
       </defs>
       <use xlink:href="#ArialMT-31"/>
       <use xlink:href="#ArialMT-30" x="55.615234"/>
      </g>
     </g>
    </g>
    <g id="xtick_4">
     <g id="line2d_4">
      <path d="M 178.578788 318.04 
L 178.578788 36 
" clip-path="url(#p332cbab09e)" style="fill: none; stroke: #cccccc; stroke-width: 0.8; stroke-linecap: round"/>
     </g>
     <g id="text_4">
      <!-- 15 -->
      <g style="fill: #262626" transform="translate(173.01785 332.197812) scale(0.1 -0.1)">
       <use xlink:href="#ArialMT-31"/>
       <use xlink:href="#ArialMT-35" x="55.615234"/>
      </g>
     </g>
    </g>
    <g id="xtick_5">
     <g id="line2d_5">
      <path d="M 215.391623 318.04 
L 215.391623 36 
" clip-path="url(#p332cbab09e)" style="fill: none; stroke: #cccccc; stroke-width: 0.8; stroke-linecap: round"/>
     </g>
     <g id="text_5">
      <!-- 20 -->
      <g style="fill: #262626" transform="translate(209.830685 332.197812) scale(0.1 -0.1)">
       <defs>
        <path id="ArialMT-32" d="M 3222 541 
L 3222 0 
L 194 0 
Q 188 203 259 391 
Q 375 700 629 1000 
Q 884 1300 1366 1694 
Q 2113 2306 2375 2664 
Q 2638 3022 2638 3341 
Q 2638 3675 2398 3904 
Q 2159 4134 1775 4134 
Q 1369 4134 1125 3890 
Q 881 3647 878 3216 
L 300 3275 
Q 359 3922 746 4261 
Q 1134 4600 1788 4600 
Q 2447 4600 2831 4234 
Q 3216 3869 3216 3328 
Q 3216 3053 3103 2787 
Q 2991 2522 2730 2228 
Q 2469 1934 1863 1422 
Q 1356 997 1212 845 
Q 1069 694 975 541 
L 3222 541 
z
" transform="scale(0.015625)"/>
       </defs>
       <use xlink:href="#ArialMT-32"/>
       <use xlink:href="#ArialMT-30" x="55.615234"/>
      </g>
     </g>
    </g>
    <g id="xtick_6">
     <g id="line2d_6">
      <path d="M 252.204458 318.04 
L 252.204458 36 
" clip-path="url(#p332cbab09e)" style="fill: none; stroke: #cccccc; stroke-width: 0.8; stroke-linecap: round"/>
     </g>
     <g id="text_6">
      <!-- 25 -->
      <g style="fill: #262626" transform="translate(246.643521 332.197812) scale(0.1 -0.1)">
       <use xlink:href="#ArialMT-32"/>
       <use xlink:href="#ArialMT-35" x="55.615234"/>
      </g>
     </g>
    </g>
    <g id="xtick_7">
     <g id="line2d_7">
      <path d="M 289.017294 318.04 
L 289.017294 36 
" clip-path="url(#p332cbab09e)" style="fill: none; stroke: #cccccc; stroke-width: 0.8; stroke-linecap: round"/>
     </g>
     <g id="text_7">
      <!-- 30 -->
      <g style="fill: #262626" transform="translate(283.456356 332.197812) scale(0.1 -0.1)">
       <defs>
        <path id="ArialMT-33" d="M 269 1209 
L 831 1284 
Q 928 806 1161 595 
Q 1394 384 1728 384 
Q 2125 384 2398 659 
Q 2672 934 2672 1341 
Q 2672 1728 2419 1979 
Q 2166 2231 1775 2231 
Q 1616 2231 1378 2169 
L 1441 2663 
Q 1497 2656 1531 2656 
Q 1891 2656 2178 2843 
Q 2466 3031 2466 3422 
Q 2466 3731 2256 3934 
Q 2047 4138 1716 4138 
Q 1388 4138 1169 3931 
Q 950 3725 888 3313 
L 325 3413 
Q 428 3978 793 4289 
Q 1159 4600 1703 4600 
Q 2078 4600 2393 4439 
Q 2709 4278 2876 4000 
Q 3044 3722 3044 3409 
Q 3044 3113 2884 2869 
Q 2725 2625 2413 2481 
Q 2819 2388 3044 2092 
Q 3269 1797 3269 1353 
Q 3269 753 2831 336 
Q 2394 -81 1725 -81 
Q 1122 -81 723 278 
Q 325 638 269 1209 
z
" transform="scale(0.015625)"/>
       </defs>
       <use xlink:href="#ArialMT-33"/>
       <use xlink:href="#ArialMT-30" x="55.615234"/>
      </g>
     </g>
    </g>
    <g id="xtick_8">
     <g id="line2d_8">
      <path d="M 325.830129 318.04 
L 325.830129 36 
" clip-path="url(#p332cbab09e)" style="fill: none; stroke: #cccccc; stroke-width: 0.8; stroke-linecap: round"/>
     </g>
     <g id="text_8">
      <!-- 35 -->
      <g style="fill: #262626" transform="translate(320.269191 332.197812) scale(0.1 -0.1)">
       <use xlink:href="#ArialMT-33"/>
       <use xlink:href="#ArialMT-35" x="55.615234"/>
      </g>
     </g>
    </g>
    <g id="xtick_9">
     <g id="line2d_9">
      <path d="M 362.642964 318.04 
L 362.642964 36 
" clip-path="url(#p332cbab09e)" style="fill: none; stroke: #cccccc; stroke-width: 0.8; stroke-linecap: round"/>
     </g>
     <g id="text_9">
      <!-- 40 -->
      <g style="fill: #262626" transform="translate(357.082027 332.197812) scale(0.1 -0.1)">
       <defs>
        <path id="ArialMT-34" d="M 2069 0 
L 2069 1097 
L 81 1097 
L 81 1613 
L 2172 4581 
L 2631 4581 
L 2631 1613 
L 3250 1613 
L 3250 1097 
L 2631 1097 
L 2631 0 
L 2069 0 
z
M 2069 1613 
L 2069 3678 
L 634 1613 
L 2069 1613 
z
" transform="scale(0.015625)"/>
       </defs>
       <use xlink:href="#ArialMT-34"/>
       <use xlink:href="#ArialMT-30" x="55.615234"/>
      </g>
     </g>
    </g>
    <g id="text_10">
     <!-- offload to cloud before layer -->
     <g style="fill: #262626" transform="translate(153.77756 345.465) scale(0.1 -0.1)">
      <defs>
       <path id="ArialMT-6f" d="M 213 1659 
Q 213 2581 725 3025 
Q 1153 3394 1769 3394 
Q 2453 3394 2887 2945 
Q 3322 2497 3322 1706 
Q 3322 1066 3130 698 
Q 2938 331 2570 128 
Q 2203 -75 1769 -75 
Q 1072 -75 642 372 
Q 213 819 213 1659 
z
M 791 1659 
Q 791 1022 1069 705 
Q 1347 388 1769 388 
Q 2188 388 2466 706 
Q 2744 1025 2744 1678 
Q 2744 2294 2464 2611 
Q 2184 2928 1769 2928 
Q 1347 2928 1069 2612 
Q 791 2297 791 1659 
z
" transform="scale(0.015625)"/>
       <path id="ArialMT-66" d="M 556 0 
L 556 2881 
L 59 2881 
L 59 3319 
L 556 3319 
L 556 3672 
Q 556 4006 616 4169 
Q 697 4388 901 4523 
Q 1106 4659 1475 4659 
Q 1713 4659 2000 4603 
L 1916 4113 
Q 1741 4144 1584 4144 
Q 1328 4144 1222 4034 
Q 1116 3925 1116 3625 
L 1116 3319 
L 1763 3319 
L 1763 2881 
L 1116 2881 
L 1116 0 
L 556 0 
z
" transform="scale(0.015625)"/>
       <path id="ArialMT-6c" d="M 409 0 
L 409 4581 
L 972 4581 
L 972 0 
L 409 0 
z
" transform="scale(0.015625)"/>
       <path id="ArialMT-61" d="M 2588 409 
Q 2275 144 1986 34 
Q 1697 -75 1366 -75 
Q 819 -75 525 192 
Q 231 459 231 875 
Q 231 1119 342 1320 
Q 453 1522 633 1644 
Q 813 1766 1038 1828 
Q 1203 1872 1538 1913 
Q 2219 1994 2541 2106 
Q 2544 2222 2544 2253 
Q 2544 2597 2384 2738 
Q 2169 2928 1744 2928 
Q 1347 2928 1158 2789 
Q 969 2650 878 2297 
L 328 2372 
Q 403 2725 575 2942 
Q 747 3159 1072 3276 
Q 1397 3394 1825 3394 
Q 2250 3394 2515 3294 
Q 2781 3194 2906 3042 
Q 3031 2891 3081 2659 
Q 3109 2516 3109 2141 
L 3109 1391 
Q 3109 606 3145 398 
Q 3181 191 3288 0 
L 2700 0 
Q 2613 175 2588 409 
z
M 2541 1666 
Q 2234 1541 1622 1453 
Q 1275 1403 1131 1340 
Q 988 1278 909 1158 
Q 831 1038 831 891 
Q 831 666 1001 516 
Q 1172 366 1500 366 
Q 1825 366 2078 508 
Q 2331 650 2450 897 
Q 2541 1088 2541 1459 
L 2541 1666 
z
" transform="scale(0.015625)"/>
       <path id="ArialMT-64" d="M 2575 0 
L 2575 419 
Q 2259 -75 1647 -75 
Q 1250 -75 917 144 
Q 584 363 401 755 
Q 219 1147 219 1656 
Q 219 2153 384 2558 
Q 550 2963 881 3178 
Q 1213 3394 1622 3394 
Q 1922 3394 2156 3267 
Q 2391 3141 2538 2938 
L 2538 4581 
L 3097 4581 
L 3097 0 
L 2575 0 
z
M 797 1656 
Q 797 1019 1065 703 
Q 1334 388 1700 388 
Q 2069 388 2326 689 
Q 2584 991 2584 1609 
Q 2584 2291 2321 2609 
Q 2059 2928 1675 2928 
Q 1300 2928 1048 2622 
Q 797 2316 797 1656 
z
" transform="scale(0.015625)"/>
       <path id="ArialMT-20" transform="scale(0.015625)"/>
       <path id="ArialMT-74" d="M 1650 503 
L 1731 6 
Q 1494 -44 1306 -44 
Q 1000 -44 831 53 
Q 663 150 594 308 
Q 525 466 525 972 
L 525 2881 
L 113 2881 
L 113 3319 
L 525 3319 
L 525 4141 
L 1084 4478 
L 1084 3319 
L 1650 3319 
L 1650 2881 
L 1084 2881 
L 1084 941 
Q 1084 700 1114 631 
Q 1144 563 1211 522 
Q 1278 481 1403 481 
Q 1497 481 1650 503 
z
" transform="scale(0.015625)"/>
       <path id="ArialMT-63" d="M 2588 1216 
L 3141 1144 
Q 3050 572 2676 248 
Q 2303 -75 1759 -75 
Q 1078 -75 664 370 
Q 250 816 250 1647 
Q 250 2184 428 2587 
Q 606 2991 970 3192 
Q 1334 3394 1763 3394 
Q 2303 3394 2647 3120 
Q 2991 2847 3088 2344 
L 2541 2259 
Q 2463 2594 2264 2762 
Q 2066 2931 1784 2931 
Q 1359 2931 1093 2626 
Q 828 2322 828 1663 
Q 828 994 1084 691 
Q 1341 388 1753 388 
Q 2084 388 2306 591 
Q 2528 794 2588 1216 
z
" transform="scale(0.015625)"/>
       <path id="ArialMT-75" d="M 2597 0 
L 2597 488 
Q 2209 -75 1544 -75 
Q 1250 -75 995 37 
Q 741 150 617 320 
Q 494 491 444 738 
Q 409 903 409 1263 
L 409 3319 
L 972 3319 
L 972 1478 
Q 972 1038 1006 884 
Q 1059 663 1231 536 
Q 1403 409 1656 409 
Q 1909 409 2131 539 
Q 2353 669 2445 892 
Q 2538 1116 2538 1541 
L 2538 3319 
L 3100 3319 
L 3100 0 
L 2597 0 
z
" transform="scale(0.015625)"/>
       <path id="ArialMT-62" d="M 941 0 
L 419 0 
L 419 4581 
L 981 4581 
L 981 2947 
Q 1338 3394 1891 3394 
Q 2197 3394 2470 3270 
Q 2744 3147 2920 2923 
Q 3097 2700 3197 2384 
Q 3297 2069 3297 1709 
Q 3297 856 2875 390 
Q 2453 -75 1863 -75 
Q 1275 -75 941 416 
L 941 0 
z
M 934 1684 
Q 934 1088 1097 822 
Q 1363 388 1816 388 
Q 2184 388 2453 708 
Q 2722 1028 2722 1663 
Q 2722 2313 2464 2622 
Q 2206 2931 1841 2931 
Q 1472 2931 1203 2611 
Q 934 2291 934 1684 
z
" transform="scale(0.015625)"/>
       <path id="ArialMT-65" d="M 2694 1069 
L 3275 997 
Q 3138 488 2766 206 
Q 2394 -75 1816 -75 
Q 1088 -75 661 373 
Q 234 822 234 1631 
Q 234 2469 665 2931 
Q 1097 3394 1784 3394 
Q 2450 3394 2872 2941 
Q 3294 2488 3294 1666 
Q 3294 1616 3291 1516 
L 816 1516 
Q 847 969 1125 678 
Q 1403 388 1819 388 
Q 2128 388 2347 550 
Q 2566 713 2694 1069 
z
M 847 1978 
L 2700 1978 
Q 2663 2397 2488 2606 
Q 2219 2931 1791 2931 
Q 1403 2931 1139 2672 
Q 875 2413 847 1978 
z
" transform="scale(0.015625)"/>
       <path id="ArialMT-72" d="M 416 0 
L 416 3319 
L 922 3319 
L 922 2816 
Q 1116 3169 1280 3281 
Q 1444 3394 1641 3394 
Q 1925 3394 2219 3213 
L 2025 2691 
Q 1819 2813 1613 2813 
Q 1428 2813 1281 2702 
Q 1134 2591 1072 2394 
Q 978 2094 978 1738 
L 978 0 
L 416 0 
z
" transform="scale(0.015625)"/>
       <path id="ArialMT-79" d="M 397 -1278 
L 334 -750 
Q 519 -800 656 -800 
Q 844 -800 956 -737 
Q 1069 -675 1141 -563 
Q 1194 -478 1313 -144 
Q 1328 -97 1363 -6 
L 103 3319 
L 709 3319 
L 1400 1397 
Q 1534 1031 1641 628 
Q 1738 1016 1872 1384 
L 2581 3319 
L 3144 3319 
L 1881 -56 
Q 1678 -603 1566 -809 
Q 1416 -1088 1222 -1217 
Q 1028 -1347 759 -1347 
Q 597 -1347 397 -1278 
z
" transform="scale(0.015625)"/>
      </defs>
      <use xlink:href="#ArialMT-6f"/>
      <use xlink:href="#ArialMT-66" x="55.615234"/>
      <use xlink:href="#ArialMT-66" x="81.648438"/>
      <use xlink:href="#ArialMT-6c" x="109.431641"/>
      <use xlink:href="#ArialMT-6f" x="131.648438"/>
      <use xlink:href="#ArialMT-61" x="187.263672"/>
      <use xlink:href="#ArialMT-64" x="242.878906"/>
      <use xlink:href="#ArialMT-20" x="298.494141"/>
      <use xlink:href="#ArialMT-74" x="326.277344"/>
      <use xlink:href="#ArialMT-6f" x="354.060547"/>
      <use xlink:href="#ArialMT-20" x="409.675781"/>
      <use xlink:href="#ArialMT-63" x="437.458984"/>
      <use xlink:href="#ArialMT-6c" x="487.458984"/>
      <use xlink:href="#ArialMT-6f" x="509.675781"/>
      <use xlink:href="#ArialMT-75" x="565.291016"/>
      <use xlink:href="#ArialMT-64" x="620.90625"/>
      <use xlink:href="#ArialMT-20" x="676.521484"/>
      <use xlink:href="#ArialMT-62" x="704.304688"/>
      <use xlink:href="#ArialMT-65" x="759.919922"/>
      <use xlink:href="#ArialMT-66" x="815.535156"/>
      <use xlink:href="#ArialMT-6f" x="843.318359"/>
      <use xlink:href="#ArialMT-72" x="898.933594"/>
      <use xlink:href="#ArialMT-65" x="932.234375"/>
      <use xlink:href="#ArialMT-20" x="987.849609"/>
      <use xlink:href="#ArialMT-6c" x="1015.632812"/>
      <use xlink:href="#ArialMT-61" x="1037.849609"/>
      <use xlink:href="#ArialMT-79" x="1093.464844"/>
      <use xlink:href="#ArialMT-65" x="1143.464844"/>
      <use xlink:href="#ArialMT-72" x="1199.080078"/>
     </g>
    </g>
   </g>
   <g id="matplotlib.axis_2">
    <g id="ytick_1">
     <g id="line2d_10">
      <path d="M 53.415148 305.22 
L 377.368098 305.22 
" clip-path="url(#p332cbab09e)" style="fill: none; stroke: #cccccc; stroke-width: 0.8; stroke-linecap: round"/>
     </g>
     <g id="text_11">
      <!-- 0 -->
      <g style="fill: #262626" transform="translate(40.85421 308.798906) scale(0.1 -0.1)">
       <use xlink:href="#ArialMT-30"/>
      </g>
     </g>
    </g>
    <g id="ytick_2">
     <g id="line2d_11">
      <path d="M 53.415148 260.609646 
L 377.368098 260.609646 
" clip-path="url(#p332cbab09e)" style="fill: none; stroke: #cccccc; stroke-width: 0.8; stroke-linecap: round"/>
     </g>
     <g id="text_12">
      <!-- 100 -->
      <g style="fill: #262626" transform="translate(29.732335 264.188553) scale(0.1 -0.1)">
       <use xlink:href="#ArialMT-31"/>
       <use xlink:href="#ArialMT-30" x="55.615234"/>
       <use xlink:href="#ArialMT-30" x="111.230469"/>
      </g>
     </g>
    </g>
    <g id="ytick_3">
     <g id="line2d_12">
      <path d="M 53.415148 215.999293 
L 377.368098 215.999293 
" clip-path="url(#p332cbab09e)" style="fill: none; stroke: #cccccc; stroke-width: 0.8; stroke-linecap: round"/>
     </g>
     <g id="text_13">
      <!-- 200 -->
      <g style="fill: #262626" transform="translate(29.732335 219.578199) scale(0.1 -0.1)">
       <use xlink:href="#ArialMT-32"/>
       <use xlink:href="#ArialMT-30" x="55.615234"/>
       <use xlink:href="#ArialMT-30" x="111.230469"/>
      </g>
     </g>
    </g>
    <g id="ytick_4">
     <g id="line2d_13">
      <path d="M 53.415148 171.388939 
L 377.368098 171.388939 
" clip-path="url(#p332cbab09e)" style="fill: none; stroke: #cccccc; stroke-width: 0.8; stroke-linecap: round"/>
     </g>
     <g id="text_14">
      <!-- 300 -->
      <g style="fill: #262626" transform="translate(29.732335 174.967845) scale(0.1 -0.1)">
       <use xlink:href="#ArialMT-33"/>
       <use xlink:href="#ArialMT-30" x="55.615234"/>
       <use xlink:href="#ArialMT-30" x="111.230469"/>
      </g>
     </g>
    </g>
    <g id="ytick_5">
     <g id="line2d_14">
      <path d="M 53.415148 126.778585 
L 377.368098 126.778585 
" clip-path="url(#p332cbab09e)" style="fill: none; stroke: #cccccc; stroke-width: 0.8; stroke-linecap: round"/>
     </g>
     <g id="text_15">
      <!-- 400 -->
      <g style="fill: #262626" transform="translate(29.732335 130.357492) scale(0.1 -0.1)">
       <use xlink:href="#ArialMT-34"/>
       <use xlink:href="#ArialMT-30" x="55.615234"/>
       <use xlink:href="#ArialMT-30" x="111.230469"/>
      </g>
     </g>
    </g>
    <g id="ytick_6">
     <g id="line2d_15">
      <path d="M 53.415148 82.168232 
L 377.368098 82.168232 
" clip-path="url(#p332cbab09e)" style="fill: none; stroke: #cccccc; stroke-width: 0.8; stroke-linecap: round"/>
     </g>
     <g id="text_16">
      <!-- 500 -->
      <g style="fill: #262626" transform="translate(29.732335 85.747138) scale(0.1 -0.1)">
       <use xlink:href="#ArialMT-35"/>
       <use xlink:href="#ArialMT-30" x="55.615234"/>
       <use xlink:href="#ArialMT-30" x="111.230469"/>
      </g>
     </g>
    </g>
    <g id="ytick_7">
     <g id="line2d_16">
      <path d="M 53.415148 37.557878 
L 377.368098 37.557878 
" clip-path="url(#p332cbab09e)" style="fill: none; stroke: #cccccc; stroke-width: 0.8; stroke-linecap: round"/>
     </g>
     <g id="text_17">
      <!-- 600 -->
      <g style="fill: #262626" transform="translate(29.732335 41.136784) scale(0.1 -0.1)">
       <defs>
        <path id="ArialMT-36" d="M 3184 3459 
L 2625 3416 
Q 2550 3747 2413 3897 
Q 2184 4138 1850 4138 
Q 1581 4138 1378 3988 
Q 1113 3794 959 3422 
Q 806 3050 800 2363 
Q 1003 2672 1297 2822 
Q 1591 2972 1913 2972 
Q 2475 2972 2870 2558 
Q 3266 2144 3266 1488 
Q 3266 1056 3080 686 
Q 2894 316 2569 119 
Q 2244 -78 1831 -78 
Q 1128 -78 684 439 
Q 241 956 241 2144 
Q 241 3472 731 4075 
Q 1159 4600 1884 4600 
Q 2425 4600 2770 4297 
Q 3116 3994 3184 3459 
z
M 888 1484 
Q 888 1194 1011 928 
Q 1134 663 1356 523 
Q 1578 384 1822 384 
Q 2178 384 2434 671 
Q 2691 959 2691 1453 
Q 2691 1928 2437 2201 
Q 2184 2475 1800 2475 
Q 1419 2475 1153 2201 
Q 888 1928 888 1484 
z
" transform="scale(0.015625)"/>
       </defs>
       <use xlink:href="#ArialMT-36"/>
       <use xlink:href="#ArialMT-30" x="55.615234"/>
       <use xlink:href="#ArialMT-30" x="111.230469"/>
      </g>
     </g>
    </g>
    <g id="text_18">
     <!-- ms -->
     <g style="fill: #262626" transform="translate(23.744835 183.684844) rotate(-90) scale(0.1 -0.1)">
      <defs>
       <path id="ArialMT-6d" d="M 422 0 
L 422 3319 
L 925 3319 
L 925 2853 
Q 1081 3097 1340 3245 
Q 1600 3394 1931 3394 
Q 2300 3394 2536 3241 
Q 2772 3088 2869 2813 
Q 3263 3394 3894 3394 
Q 4388 3394 4653 3120 
Q 4919 2847 4919 2278 
L 4919 0 
L 4359 0 
L 4359 2091 
Q 4359 2428 4304 2576 
Q 4250 2725 4106 2815 
Q 3963 2906 3769 2906 
Q 3419 2906 3187 2673 
Q 2956 2441 2956 1928 
L 2956 0 
L 2394 0 
L 2394 2156 
Q 2394 2531 2256 2718 
Q 2119 2906 1806 2906 
Q 1569 2906 1367 2781 
Q 1166 2656 1075 2415 
Q 984 2175 984 1722 
L 984 0 
L 422 0 
z
" transform="scale(0.015625)"/>
       <path id="ArialMT-73" d="M 197 991 
L 753 1078 
Q 800 744 1014 566 
Q 1228 388 1613 388 
Q 2000 388 2187 545 
Q 2375 703 2375 916 
Q 2375 1106 2209 1216 
Q 2094 1291 1634 1406 
Q 1016 1563 777 1677 
Q 538 1791 414 1992 
Q 291 2194 291 2438 
Q 291 2659 392 2848 
Q 494 3038 669 3163 
Q 800 3259 1026 3326 
Q 1253 3394 1513 3394 
Q 1903 3394 2198 3281 
Q 2494 3169 2634 2976 
Q 2775 2784 2828 2463 
L 2278 2388 
Q 2241 2644 2061 2787 
Q 1881 2931 1553 2931 
Q 1166 2931 1000 2803 
Q 834 2675 834 2503 
Q 834 2394 903 2306 
Q 972 2216 1119 2156 
Q 1203 2125 1616 2013 
Q 2213 1853 2448 1751 
Q 2684 1650 2818 1456 
Q 2953 1263 2953 975 
Q 2953 694 2789 445 
Q 2625 197 2315 61 
Q 2006 -75 1616 -75 
Q 969 -75 630 194 
Q 291 463 197 991 
z
" transform="scale(0.015625)"/>
      </defs>
      <use xlink:href="#ArialMT-6d"/>
      <use xlink:href="#ArialMT-73" x="83.300781"/>
     </g>
    </g>
   </g>
   <g id="PolyCollection_1">
    <defs>
     <path id="mcb864ee90a" d="M 68.140282 -56.418462 
L 68.140282 -56.190469 
L 75.502849 -60.52026 
L 82.865416 -66.771071 
L 90.227983 -67.294725 
L 97.59055 -67.194307 
L 104.953117 -67.28306 
L 112.315684 -60.736813 
L 119.678251 -67.214616 
L 127.040818 -67.001255 
L 134.403385 -67.419359 
L 141.765952 -67.320609 
L 149.128519 -67.297239 
L 156.491086 -67.402531 
L 163.853654 -62.972974 
L 171.216221 -62.950845 
L 178.578788 -63.21288 
L 185.941355 -63.162672 
L 193.303922 -63.205219 
L 200.666489 -63.49483 
L 208.029056 -63.479593 
L 215.391623 -63.201491 
L 222.75419 -61.456056 
L 230.116757 -61.488577 
L 237.479324 -61.446481 
L 244.841891 -61.494853 
L 252.204458 -61.629599 
L 259.567025 -61.623583 
L 266.929592 -61.726553 
L 274.29216 -61.572977 
L 281.654727 -61.711709 
L 289.017294 -61.927928 
L 296.379861 -63.043242 
L 303.742428 -62.994395 
L 311.104995 -69.773251 
L 318.467562 -69.827901 
L 325.830129 -75.825668 
L 333.192696 -75.792206 
L 340.555263 -82.043454 
L 347.91783 -82.025899 
L 355.280397 -80.922106 
L 362.642964 -83.710154 
L 362.642964 -83.880293 
L 362.642964 -83.880293 
L 355.280397 -81.130763 
L 347.91783 -82.994148 
L 340.555263 -82.335727 
L 333.192696 -76.295961 
L 325.830129 -76.250296 
L 318.467562 -71.07798 
L 311.104995 -70.618573 
L 303.742428 -65.412468 
L 296.379861 -63.534037 
L 289.017294 -64.416335 
L 281.654727 -62.185128 
L 274.29216 -62.177863 
L 266.929592 -62.834345 
L 259.567025 -62.586355 
L 252.204458 -62.79771 
L 244.841891 -61.888022 
L 237.479324 -62.611268 
L 230.116757 -61.943947 
L 222.75419 -62.659833 
L 215.391623 -64.230584 
L 208.029056 -64.546782 
L 200.666489 -64.250638 
L 193.303922 -63.841572 
L 185.941355 -64.167516 
L 178.578788 -63.968703 
L 171.216221 -63.949743 
L 163.853654 -65.659847 
L 156.491086 -68.769967 
L 149.128519 -70.152004 
L 141.765952 -68.603362 
L 134.403385 -68.793264 
L 127.040818 -68.806559 
L 119.678251 -68.710465 
L 112.315684 -62.805966 
L 104.953117 -68.43872 
L 97.59055 -68.589663 
L 90.227983 -68.712168 
L 82.865416 -69.750327 
L 75.502849 -61.899667 
L 68.140282 -56.418462 
z
" style="stroke: #1f77b4; stroke-opacity: 0.2"/>
    </defs>
    <g clip-path="url(#p332cbab09e)">
     <use xlink:href="#mcb864ee90a" x="0" y="360" style="fill: #1f77b4; fill-opacity: 0.2; stroke: #1f77b4; stroke-opacity: 0.2"/>
    </g>
   </g>
   <g id="PolyCollection_2">
    <defs>
     <path id="m5d3c5c5174" d="M 68.140282 -128.150771 
L 68.140282 -122.04561 
L 75.502849 -132.565903 
L 82.865416 -140.927199 
L 90.227983 -128.858046 
L 97.59055 -128.237617 
L 104.953117 -127.841521 
L 112.315684 -132.770575 
L 119.678251 -130.705339 
L 127.040818 -132.639108 
L 134.403385 -127.192987 
L 141.765952 -126.017504 
L 149.128519 -124.009403 
L 156.491086 -127.592629 
L 163.853654 -120.568796 
L 171.216221 -119.165287 
L 178.578788 -126.42115 
L 185.941355 -124.992961 
L 193.303922 -119.588372 
L 200.666489 -115.670657 
L 208.029056 -113.590967 
L 215.391623 -112.289248 
L 222.75419 -109.965851 
L 230.116757 -110.752767 
L 237.479324 -104.931662 
L 244.841891 -109.690617 
L 252.204458 -111.205673 
L 259.567025 -103.167077 
L 266.929592 -99.972273 
L 274.29216 -101.21456 
L 281.654727 -102.29374 
L 289.017294 -100.315572 
L 296.379861 -104.456361 
L 303.742428 -96.240941 
L 311.104995 -92.287304 
L 318.467562 -94.161585 
L 325.830129 -87.968676 
L 333.192696 -89.112675 
L 340.555263 -82.907196 
L 347.91783 -84.262169 
L 355.280397 -82.797075 
L 362.642964 -54.78 
L 362.642964 -54.78 
L 362.642964 -54.78 
L 355.280397 -87.690095 
L 347.91783 -89.583202 
L 340.555263 -88.018394 
L 333.192696 -95.972688 
L 325.830129 -98.693707 
L 318.467562 -105.897343 
L 311.104995 -102.655843 
L 303.742428 -102.01468 
L 296.379861 -136.467881 
L 289.017294 -107.938021 
L 281.654727 -124.816159 
L 274.29216 -105.667978 
L 266.929592 -104.37991 
L 259.567025 -108.496989 
L 252.204458 -125.343096 
L 244.841891 -116.733197 
L 237.479324 -110.690067 
L 230.116757 -115.057711 
L 222.75419 -113.85845 
L 215.391623 -115.754089 
L 208.029056 -119.06981 
L 200.666489 -120.578922 
L 193.303922 -128.778472 
L 185.941355 -145.277121 
L 178.578788 -147.372949 
L 171.216221 -123.900185 
L 163.853654 -126.765999 
L 156.491086 -147.115871 
L 149.128519 -139.240091 
L 141.765952 -137.821649 
L 134.403385 -136.502878 
L 127.040818 -155.40008 
L 119.678251 -140.268137 
L 112.315684 -137.600159 
L 104.953117 -135.150024 
L 97.59055 -139.035597 
L 90.227983 -137.867598 
L 82.865416 -173.054371 
L 75.502849 -144.206227 
L 68.140282 -128.150771 
z
" style="stroke: #ff7f0e; stroke-opacity: 0.2"/>
    </defs>
    <g clip-path="url(#p332cbab09e)">
     <use xlink:href="#m5d3c5c5174" x="0" y="360" style="fill: #ff7f0e; fill-opacity: 0.2; stroke: #ff7f0e; stroke-opacity: 0.2"/>
    </g>
   </g>
   <g id="PolyCollection_3">
    <defs>
     <path id="m9e8b537e36" d="M 68.140282 -60.831195 
L 68.140282 -58.469387 
L 75.502849 -56.425873 
L 82.865416 -60.812041 
L 90.227983 -60.9026 
L 97.59055 -60.478737 
L 104.953117 -60.869035 
L 112.315684 -57.127408 
L 119.678251 -60.812831 
L 127.040818 -59.989264 
L 134.403385 -60.171331 
L 141.765952 -59.577044 
L 149.128519 -59.916412 
L 156.491086 -59.839632 
L 163.853654 -57.832428 
L 171.216221 -57.599663 
L 178.578788 -57.631766 
L 185.941355 -57.814556 
L 193.303922 -57.63173 
L 200.666489 -57.547218 
L 208.029056 -57.467362 
L 215.391623 -57.555378 
L 222.75419 -56.566502 
L 230.116757 -56.51659 
L 237.479324 -56.558767 
L 244.841891 -56.668352 
L 252.204458 -56.603006 
L 259.567025 -56.508903 
L 266.929592 -56.525789 
L 274.29216 -56.516601 
L 281.654727 -56.582943 
L 289.017294 -56.518413 
L 296.379861 -56.657413 
L 303.742428 -56.517659 
L 311.104995 -56.097179 
L 318.467562 -56.069946 
L 325.830129 -56.155133 
L 333.192696 -56.157455 
L 340.555263 -56.069137 
L 347.91783 -56.107567 
L 355.280397 -55.673487 
L 362.642964 -54.78 
L 362.642964 -54.78 
L 362.642964 -54.78 
L 355.280397 -55.91296 
L 347.91783 -56.480003 
L 340.555263 -56.432783 
L 333.192696 -56.700506 
L 325.830129 -56.533819 
L 318.467562 -56.854608 
L 311.104995 -56.527015 
L 303.742428 -57.235113 
L 296.379861 -57.670263 
L 289.017294 -57.447759 
L 281.654727 -57.324248 
L 274.29216 -57.134525 
L 266.929592 -57.432303 
L 259.567025 -57.648256 
L 252.204458 -57.607069 
L 244.841891 -57.833214 
L 237.479324 -57.710885 
L 230.116757 -57.719233 
L 222.75419 -57.807802 
L 215.391623 -59.540893 
L 208.029056 -59.509553 
L 200.666489 -59.469717 
L 193.303922 -60.163619 
L 185.941355 -59.811241 
L 178.578788 -59.52408 
L 171.216221 -59.835848 
L 163.853654 -59.746355 
L 156.491086 -63.65084 
L 149.128519 -63.436082 
L 141.765952 -63.068112 
L 134.403385 -63.352871 
L 127.040818 -62.564951 
L 119.678251 -64.816188 
L 112.315684 -57.854738 
L 104.953117 -64.176121 
L 97.59055 -64.123594 
L 90.227983 -64.061432 
L 82.865416 -64.566854 
L 75.502849 -57.472159 
L 68.140282 -60.831195 
z
" style="stroke: #2ca02c; stroke-opacity: 0.2"/>
    </defs>
    <g clip-path="url(#p332cbab09e)">
     <use xlink:href="#m9e8b537e36" x="0" y="360" style="fill: #2ca02c; fill-opacity: 0.2; stroke: #2ca02c; stroke-opacity: 0.2"/>
    </g>
   </g>
   <g id="PolyCollection_4">
    <defs>
     <path id="m70d393db2e" d="M 68.140282 -134.686367 
L 68.140282 -128.373374 
L 75.502849 -141.233975 
L 82.865416 -163.429077 
L 90.227983 -148.940217 
L 97.59055 -148.299853 
L 104.953117 -147.739779 
L 112.315684 -142.553825 
L 119.678251 -152.215447 
L 127.040818 -152.75925 
L 134.403385 -146.716222 
L 141.765952 -145.55921 
L 149.128519 -145.092837 
L 156.491086 -149.494485 
L 163.853654 -134.50897 
L 171.216221 -132.831518 
L 178.578788 -140.595694 
L 185.941355 -139.239927 
L 193.303922 -133.402789 
L 200.666489 -128.86385 
L 208.029056 -126.567569 
L 215.391623 -124.432876 
L 222.75419 -119.641736 
L 230.116757 -120.541071 
L 237.479324 -113.962005 
L 244.841891 -118.833785 
L 252.204458 -121.378874 
L 259.567025 -112.347599 
L 266.929592 -109.268326 
L 274.29216 -110.375899 
L 281.654727 -111.614739 
L 289.017294 -110.613444 
L 296.379861 -116.722291 
L 303.742428 -107.468929 
L 311.104995 -109.119776 
L 318.467562 -110.926012 
L 325.830129 -110.765146 
L 333.192696 -112.225457 
L 340.555263 -111.596607 
L 347.91783 -113.366123 
L 355.280397 -110.22629 
L 362.642964 -83.710154 
L 362.642964 -83.880293 
L 362.642964 -83.880293 
L 355.280397 -115.103154 
L 347.91783 -119.979509 
L 340.555263 -117.487514 
L 333.192696 -119.366411 
L 325.830129 -122.361287 
L 318.467562 -124.730993 
L 311.104995 -120.817591 
L 303.742428 -113.677617 
L 296.379861 -148.07741 
L 289.017294 -118.520453 
L 281.654727 -134.738863 
L 274.29216 -115.123751 
L 266.929592 -114.504084 
L 259.567025 -118.541776 
L 252.204458 -135.270348 
L 244.841891 -127.114074 
L 237.479324 -120.535127 
L 230.116757 -125.226922 
L 222.75419 -124.685923 
L 215.391623 -129.524475 
L 208.029056 -134.359007 
L 200.666489 -134.456839 
L 193.303922 -143.352022 
L 185.941355 -160.044142 
L 178.578788 -163.666383 
L 171.216221 -137.769805 
L 163.853654 -142.082534 
L 156.491086 -169.10684 
L 149.128519 -161.184058 
L 141.765952 -160.285158 
L 134.403385 -160.79486 
L 127.040818 -176.152744 
L 119.678251 -165.316285 
L 112.315684 -147.753615 
L 104.953117 -158.117118 
L 97.59055 -163.012326 
L 90.227983 -162.143601 
L 82.865416 -198.368119 
L 75.502849 -153.409793 
L 68.140282 -134.686367 
z
" style="stroke: #d62728; stroke-opacity: 0.2"/>
    </defs>
    <g clip-path="url(#p332cbab09e)">
     <use xlink:href="#m70d393db2e" x="0" y="360" style="fill: #d62728; fill-opacity: 0.2; stroke: #d62728; stroke-opacity: 0.2"/>
    </g>
   </g>
   <g id="line2d_17">
    <path d="M 68.140282 303.74299 
L 75.502849 299.3047 
L 82.865416 292.640629 
L 90.227983 292.446073 
L 97.59055 292.477335 
L 104.953117 292.203486 
L 112.315684 298.699916 
L 119.678251 292.411777 
L 127.040818 292.493363 
L 134.403385 292.355743 
L 141.765952 292.413036 
L 149.128519 292.169419 
L 156.491086 292.342435 
L 163.853654 296.665845 
L 171.216221 296.733436 
L 178.578788 296.548628 
L 185.941355 296.542541 
L 193.303922 296.470934 
L 200.666489 296.311908 
L 208.029056 296.363156 
L 215.391623 296.459555 
L 222.75419 298.39631 
L 230.116757 298.363322 
L 237.479324 298.384297 
L 244.841891 298.399764 
L 252.204458 298.111242 
L 259.567025 298.125553 
L 266.929592 298.106201 
L 274.29216 298.223845 
L 281.654727 298.114341 
L 289.017294 297.898257 
L 296.379861 296.765818 
L 303.742428 296.778772 
L 311.104995 290.108523 
L 318.467562 290.036089 
L 325.830129 284.022014 
L 333.192696 284.021809 
L 340.555263 277.820439 
L 347.91783 277.826525 
L 355.280397 278.985397 
L 362.642964 276.203102 
" clip-path="url(#p332cbab09e)" style="fill: none; stroke: #1f77b4; stroke-width: 1.5; stroke-linecap: round"/>
   </g>
   <g id="line2d_18">
    <path d="M 68.140282 235.2504 
L 75.502849 222.90328 
L 82.865416 207.71234 
L 90.227983 227.761259 
L 97.59055 228.482831 
L 104.953117 228.493203 
L 112.315684 225.037395 
L 119.678251 225.083723 
L 127.040818 218.905746 
L 134.403385 229.911255 
L 141.765952 228.688953 
L 149.128519 231.63453 
L 156.491086 224.229903 
L 163.853654 236.429429 
L 171.216221 238.76128 
L 178.578788 224.19736 
L 185.941355 226.406219 
L 193.303922 237.10318 
L 200.666489 242.067219 
L 208.029056 243.820785 
L 215.391623 245.949725 
L 222.75419 248.200117 
L 230.116757 246.878111 
L 237.479324 251.939825 
L 244.841891 247.888848 
L 252.204458 243.59354 
L 259.567025 255.005828 
L 266.929592 258.446847 
L 274.29216 257.362213 
L 281.654727 252.456993 
L 289.017294 255.838792 
L 296.379861 236.903035 
L 303.742428 260.779924 
L 311.104995 264.961676 
L 318.467562 262.954143 
L 325.830129 269.188061 
L 333.192696 267.650677 
L 340.555263 274.580806 
L 347.91783 273.84672 
L 355.280397 275.965043 
L 362.642964 305.22 
" clip-path="url(#p332cbab09e)" style="fill: none; stroke: #ff7f0e; stroke-width: 1.5; stroke-linecap: round"/>
   </g>
   <g id="line2d_19">
    <path d="M 68.140282 301.110387 
L 75.502849 302.736898 
L 82.865416 297.428061 
L 90.227983 297.431662 
L 97.59055 297.749974 
L 104.953117 297.911145 
L 112.315684 302.322458 
L 119.678251 296.671439 
L 127.040818 299.028731 
L 134.403385 298.279223 
L 141.765952 298.585943 
L 149.128519 298.76874 
L 156.491086 298.579315 
L 163.853654 300.560191 
L 171.216221 300.487918 
L 178.578788 301.755376 
L 185.941355 300.916557 
L 193.303922 300.468962 
L 200.666489 300.896479 
L 208.029056 301.091244 
L 215.391623 300.83772 
L 222.75419 302.450945 
L 230.116757 302.41102 
L 237.479324 302.718619 
L 244.841891 302.698029 
L 252.204458 302.986808 
L 259.567025 303.128639 
L 266.929592 303.429447 
L 274.29216 303.448119 
L 281.654727 303.167026 
L 289.017294 303.440553 
L 296.379861 303.036148 
L 303.742428 303.413927 
L 311.104995 303.787019 
L 318.467562 303.731344 
L 325.830129 303.759165 
L 333.192696 303.746611 
L 340.555263 303.754909 
L 347.91783 303.7143 
L 355.280397 304.21658 
L 362.642964 305.22 
" clip-path="url(#p332cbab09e)" style="fill: none; stroke: #2ca02c; stroke-width: 1.5; stroke-linecap: round"/>
   </g>
   <g id="line2d_20">
    <path d="M 68.140282 229.343807 
L 75.502849 214.435415 
L 82.865416 184.569167 
L 90.227983 206.46811 
L 97.59055 206.590611 
L 104.953117 207.93301 
L 112.315684 215.042063 
L 119.678251 202.509265 
L 127.040818 198.518045 
L 134.403385 209.036352 
L 141.765952 208.362256 
L 149.128519 210.429444 
L 156.491086 203.113841 
L 163.853654 222.49881 
L 171.216221 224.938968 
L 178.578788 210.262018 
L 185.941355 213.543529 
L 193.303922 222.510853 
L 200.666489 228.275645 
L 208.029056 230.471979 
L 215.391623 232.393815 
L 222.75419 237.866893 
L 230.116757 237.055863 
L 237.479324 241.921505 
L 244.841891 237.997177 
L 252.204458 233.358035 
L 259.567025 244.612458 
L 266.929592 248.270148 
L 274.29216 248.070068 
L 281.654727 241.658432 
L 289.017294 245.596179 
L 296.379861 225.381089 
L 303.742428 250.108602 
L 311.104995 247.169932 
L 318.467562 245.077512 
L 325.830129 244.851037 
L 333.192696 244.469677 
L 340.555263 245.69085 
L 347.91783 244.766036 
L 355.280397 248.695358 
L 362.642964 276.203102 
" clip-path="url(#p332cbab09e)" style="fill: none; stroke: #d62728; stroke-width: 1.5; stroke-linecap: round"/>
   </g>
   <g id="line2d_21"/>
   <g id="line2d_22"/>
   <g id="line2d_23"/>
   <g id="line2d_24"/>
   <g id="patch_3">
    <path d="M 53.415148 318.04 
L 53.415148 36 
" style="fill: none; stroke: #cccccc; stroke-width: 0.8; stroke-linejoin: miter; stroke-linecap: square"/>
   </g>
   <g id="patch_4">
    <path d="M 53.415148 318.04 
L 377.368098 318.04 
" style="fill: none; stroke: #cccccc; stroke-width: 0.8; stroke-linejoin: miter; stroke-linecap: square"/>
   </g>
   <g id="text_19">
    <!-- client_pu = TPU -->
    <g style="fill: #262626" transform="translate(179.767404 30) scale(0.1 -0.1)">
     <defs>
      <path id="ArialMT-69" d="M 425 3934 
L 425 4581 
L 988 4581 
L 988 3934 
L 425 3934 
z
M 425 0 
L 425 3319 
L 988 3319 
L 988 0 
L 425 0 
z
" transform="scale(0.015625)"/>
      <path id="ArialMT-6e" d="M 422 0 
L 422 3319 
L 928 3319 
L 928 2847 
Q 1294 3394 1984 3394 
Q 2284 3394 2536 3286 
Q 2788 3178 2913 3003 
Q 3038 2828 3088 2588 
Q 3119 2431 3119 2041 
L 3119 0 
L 2556 0 
L 2556 2019 
Q 2556 2363 2490 2533 
Q 2425 2703 2258 2804 
Q 2091 2906 1866 2906 
Q 1506 2906 1245 2678 
Q 984 2450 984 1813 
L 984 0 
L 422 0 
z
" transform="scale(0.015625)"/>
      <path id="ArialMT-5f" d="M -97 -1272 
L -97 -866 
L 3631 -866 
L 3631 -1272 
L -97 -1272 
z
" transform="scale(0.015625)"/>
      <path id="ArialMT-70" d="M 422 -1272 
L 422 3319 
L 934 3319 
L 934 2888 
Q 1116 3141 1344 3267 
Q 1572 3394 1897 3394 
Q 2322 3394 2647 3175 
Q 2972 2956 3137 2557 
Q 3303 2159 3303 1684 
Q 3303 1175 3120 767 
Q 2938 359 2589 142 
Q 2241 -75 1856 -75 
Q 1575 -75 1351 44 
Q 1128 163 984 344 
L 984 -1272 
L 422 -1272 
z
M 931 1641 
Q 931 1000 1190 694 
Q 1450 388 1819 388 
Q 2194 388 2461 705 
Q 2728 1022 2728 1688 
Q 2728 2322 2467 2637 
Q 2206 2953 1844 2953 
Q 1484 2953 1207 2617 
Q 931 2281 931 1641 
z
" transform="scale(0.015625)"/>
      <path id="ArialMT-3d" d="M 3381 2694 
L 356 2694 
L 356 3219 
L 3381 3219 
L 3381 2694 
z
M 3381 1303 
L 356 1303 
L 356 1828 
L 3381 1828 
L 3381 1303 
z
" transform="scale(0.015625)"/>
      <path id="ArialMT-54" d="M 1659 0 
L 1659 4041 
L 150 4041 
L 150 4581 
L 3781 4581 
L 3781 4041 
L 2266 4041 
L 2266 0 
L 1659 0 
z
" transform="scale(0.015625)"/>
      <path id="ArialMT-50" d="M 494 0 
L 494 4581 
L 2222 4581 
Q 2678 4581 2919 4538 
Q 3256 4481 3484 4323 
Q 3713 4166 3852 3881 
Q 3991 3597 3991 3256 
Q 3991 2672 3619 2267 
Q 3247 1863 2275 1863 
L 1100 1863 
L 1100 0 
L 494 0 
z
M 1100 2403 
L 2284 2403 
Q 2872 2403 3119 2622 
Q 3366 2841 3366 3238 
Q 3366 3525 3220 3729 
Q 3075 3934 2838 4000 
Q 2684 4041 2272 4041 
L 1100 4041 
L 1100 2403 
z
" transform="scale(0.015625)"/>
      <path id="ArialMT-55" d="M 3500 4581 
L 4106 4581 
L 4106 1934 
Q 4106 1244 3950 837 
Q 3794 431 3386 176 
Q 2978 -78 2316 -78 
Q 1672 -78 1262 144 
Q 853 366 678 786 
Q 503 1206 503 1934 
L 503 4581 
L 1109 4581 
L 1109 1938 
Q 1109 1341 1220 1058 
Q 1331 775 1601 622 
Q 1872 469 2263 469 
Q 2931 469 3215 772 
Q 3500 1075 3500 1938 
L 3500 4581 
z
" transform="scale(0.015625)"/>
     </defs>
     <use xlink:href="#ArialMT-63"/>
     <use xlink:href="#ArialMT-6c" x="50"/>
     <use xlink:href="#ArialMT-69" x="72.216797"/>
     <use xlink:href="#ArialMT-65" x="94.433594"/>
     <use xlink:href="#ArialMT-6e" x="150.048828"/>
     <use xlink:href="#ArialMT-74" x="205.664062"/>
     <use xlink:href="#ArialMT-5f" x="233.447266"/>
     <use xlink:href="#ArialMT-70" x="289.0625"/>
     <use xlink:href="#ArialMT-75" x="344.677734"/>
     <use xlink:href="#ArialMT-20" x="400.292969"/>
     <use xlink:href="#ArialMT-3d" x="428.076172"/>
     <use xlink:href="#ArialMT-20" x="486.474609"/>
     <use xlink:href="#ArialMT-54" x="512.507812"/>
     <use xlink:href="#ArialMT-50" x="573.591797"/>
     <use xlink:href="#ArialMT-55" x="640.291016"/>
    </g>
   </g>
  </g>
  <g id="axes_2">
   <g id="patch_5">
    <path d="M 388.136949 318.04 
L 712.0899 318.04 
L 712.0899 36 
L 388.136949 36 
z
" style="fill: #ffffff"/>
   </g>
   <g id="matplotlib.axis_3">
    <g id="xtick_10">
     <g id="line2d_25">
      <path d="M 402.862083 318.04 
L 402.862083 36 
" clip-path="url(#p60724fc1a0)" style="fill: none; stroke: #cccccc; stroke-width: 0.8; stroke-linecap: round"/>
     </g>
     <g id="text_20">
      <!-- 0 -->
      <g style="fill: #262626" transform="translate(400.081614 332.197812) scale(0.1 -0.1)">
       <use xlink:href="#ArialMT-30"/>
      </g>
     </g>
    </g>
    <g id="xtick_11">
     <g id="line2d_26">
      <path d="M 439.674919 318.04 
L 439.674919 36 
" clip-path="url(#p60724fc1a0)" style="fill: none; stroke: #cccccc; stroke-width: 0.8; stroke-linecap: round"/>
     </g>
     <g id="text_21">
      <!-- 5 -->
      <g style="fill: #262626" transform="translate(436.89445 332.197812) scale(0.1 -0.1)">
       <use xlink:href="#ArialMT-35"/>
      </g>
     </g>
    </g>
    <g id="xtick_12">
     <g id="line2d_27">
      <path d="M 476.487754 318.04 
L 476.487754 36 
" clip-path="url(#p60724fc1a0)" style="fill: none; stroke: #cccccc; stroke-width: 0.8; stroke-linecap: round"/>
     </g>
     <g id="text_22">
      <!-- 10 -->
      <g style="fill: #262626" transform="translate(470.926816 332.197812) scale(0.1 -0.1)">
       <use xlink:href="#ArialMT-31"/>
       <use xlink:href="#ArialMT-30" x="55.615234"/>
      </g>
     </g>
    </g>
    <g id="xtick_13">
     <g id="line2d_28">
      <path d="M 513.300589 318.04 
L 513.300589 36 
" clip-path="url(#p60724fc1a0)" style="fill: none; stroke: #cccccc; stroke-width: 0.8; stroke-linecap: round"/>
     </g>
     <g id="text_23">
      <!-- 15 -->
      <g style="fill: #262626" transform="translate(507.739652 332.197812) scale(0.1 -0.1)">
       <use xlink:href="#ArialMT-31"/>
       <use xlink:href="#ArialMT-35" x="55.615234"/>
      </g>
     </g>
    </g>
    <g id="xtick_14">
     <g id="line2d_29">
      <path d="M 550.113425 318.04 
L 550.113425 36 
" clip-path="url(#p60724fc1a0)" style="fill: none; stroke: #cccccc; stroke-width: 0.8; stroke-linecap: round"/>
     </g>
     <g id="text_24">
      <!-- 20 -->
      <g style="fill: #262626" transform="translate(544.552487 332.197812) scale(0.1 -0.1)">
       <use xlink:href="#ArialMT-32"/>
       <use xlink:href="#ArialMT-30" x="55.615234"/>
      </g>
     </g>
    </g>
    <g id="xtick_15">
     <g id="line2d_30">
      <path d="M 586.92626 318.04 
L 586.92626 36 
" clip-path="url(#p60724fc1a0)" style="fill: none; stroke: #cccccc; stroke-width: 0.8; stroke-linecap: round"/>
     </g>
     <g id="text_25">
      <!-- 25 -->
      <g style="fill: #262626" transform="translate(581.365322 332.197812) scale(0.1 -0.1)">
       <use xlink:href="#ArialMT-32"/>
       <use xlink:href="#ArialMT-35" x="55.615234"/>
      </g>
     </g>
    </g>
    <g id="xtick_16">
     <g id="line2d_31">
      <path d="M 623.739095 318.04 
L 623.739095 36 
" clip-path="url(#p60724fc1a0)" style="fill: none; stroke: #cccccc; stroke-width: 0.8; stroke-linecap: round"/>
     </g>
     <g id="text_26">
      <!-- 30 -->
      <g style="fill: #262626" transform="translate(618.178158 332.197812) scale(0.1 -0.1)">
       <use xlink:href="#ArialMT-33"/>
       <use xlink:href="#ArialMT-30" x="55.615234"/>
      </g>
     </g>
    </g>
    <g id="xtick_17">
     <g id="line2d_32">
      <path d="M 660.551931 318.04 
L 660.551931 36 
" clip-path="url(#p60724fc1a0)" style="fill: none; stroke: #cccccc; stroke-width: 0.8; stroke-linecap: round"/>
     </g>
     <g id="text_27">
      <!-- 35 -->
      <g style="fill: #262626" transform="translate(654.990993 332.197812) scale(0.1 -0.1)">
       <use xlink:href="#ArialMT-33"/>
       <use xlink:href="#ArialMT-35" x="55.615234"/>
      </g>
     </g>
    </g>
    <g id="xtick_18">
     <g id="line2d_33">
      <path d="M 697.364766 318.04 
L 697.364766 36 
" clip-path="url(#p60724fc1a0)" style="fill: none; stroke: #cccccc; stroke-width: 0.8; stroke-linecap: round"/>
     </g>
     <g id="text_28">
      <!-- 40 -->
      <g style="fill: #262626" transform="translate(691.803828 332.197812) scale(0.1 -0.1)">
       <use xlink:href="#ArialMT-34"/>
       <use xlink:href="#ArialMT-30" x="55.615234"/>
      </g>
     </g>
    </g>
    <g id="text_29">
     <!-- offload to cloud before layer -->
     <g style="fill: #262626" transform="translate(488.499362 345.465) scale(0.1 -0.1)">
      <use xlink:href="#ArialMT-6f"/>
      <use xlink:href="#ArialMT-66" x="55.615234"/>
      <use xlink:href="#ArialMT-66" x="81.648438"/>
      <use xlink:href="#ArialMT-6c" x="109.431641"/>
      <use xlink:href="#ArialMT-6f" x="131.648438"/>
      <use xlink:href="#ArialMT-61" x="187.263672"/>
      <use xlink:href="#ArialMT-64" x="242.878906"/>
      <use xlink:href="#ArialMT-20" x="298.494141"/>
      <use xlink:href="#ArialMT-74" x="326.277344"/>
      <use xlink:href="#ArialMT-6f" x="354.060547"/>
      <use xlink:href="#ArialMT-20" x="409.675781"/>
      <use xlink:href="#ArialMT-63" x="437.458984"/>
      <use xlink:href="#ArialMT-6c" x="487.458984"/>
      <use xlink:href="#ArialMT-6f" x="509.675781"/>
      <use xlink:href="#ArialMT-75" x="565.291016"/>
      <use xlink:href="#ArialMT-64" x="620.90625"/>
      <use xlink:href="#ArialMT-20" x="676.521484"/>
      <use xlink:href="#ArialMT-62" x="704.304688"/>
      <use xlink:href="#ArialMT-65" x="759.919922"/>
      <use xlink:href="#ArialMT-66" x="815.535156"/>
      <use xlink:href="#ArialMT-6f" x="843.318359"/>
      <use xlink:href="#ArialMT-72" x="898.933594"/>
      <use xlink:href="#ArialMT-65" x="932.234375"/>
      <use xlink:href="#ArialMT-20" x="987.849609"/>
      <use xlink:href="#ArialMT-6c" x="1015.632812"/>
      <use xlink:href="#ArialMT-61" x="1037.849609"/>
      <use xlink:href="#ArialMT-79" x="1093.464844"/>
      <use xlink:href="#ArialMT-65" x="1143.464844"/>
      <use xlink:href="#ArialMT-72" x="1199.080078"/>
     </g>
    </g>
   </g>
   <g id="matplotlib.axis_4">
    <g id="ytick_8">
     <g id="line2d_34">
      <path d="M 388.136949 305.22 
L 712.0899 305.22 
" clip-path="url(#p60724fc1a0)" style="fill: none; stroke: #cccccc; stroke-width: 0.8; stroke-linecap: round"/>
     </g>
    </g>
    <g id="ytick_9">
     <g id="line2d_35">
      <path d="M 388.136949 260.609646 
L 712.0899 260.609646 
" clip-path="url(#p60724fc1a0)" style="fill: none; stroke: #cccccc; stroke-width: 0.8; stroke-linecap: round"/>
     </g>
    </g>
    <g id="ytick_10">
     <g id="line2d_36">
      <path d="M 388.136949 215.999293 
L 712.0899 215.999293 
" clip-path="url(#p60724fc1a0)" style="fill: none; stroke: #cccccc; stroke-width: 0.8; stroke-linecap: round"/>
     </g>
    </g>
    <g id="ytick_11">
     <g id="line2d_37">
      <path d="M 388.136949 171.388939 
L 712.0899 171.388939 
" clip-path="url(#p60724fc1a0)" style="fill: none; stroke: #cccccc; stroke-width: 0.8; stroke-linecap: round"/>
     </g>
    </g>
    <g id="ytick_12">
     <g id="line2d_38">
      <path d="M 388.136949 126.778585 
L 712.0899 126.778585 
" clip-path="url(#p60724fc1a0)" style="fill: none; stroke: #cccccc; stroke-width: 0.8; stroke-linecap: round"/>
     </g>
    </g>
    <g id="ytick_13">
     <g id="line2d_39">
      <path d="M 388.136949 82.168232 
L 712.0899 82.168232 
" clip-path="url(#p60724fc1a0)" style="fill: none; stroke: #cccccc; stroke-width: 0.8; stroke-linecap: round"/>
     </g>
    </g>
    <g id="ytick_14">
     <g id="line2d_40">
      <path d="M 388.136949 37.557878 
L 712.0899 37.557878 
" clip-path="url(#p60724fc1a0)" style="fill: none; stroke: #cccccc; stroke-width: 0.8; stroke-linecap: round"/>
     </g>
    </g>
   </g>
   <g id="PolyCollection_5">
    <defs>
     <path id="me150d4b081" d="M 402.862083 -56.18854 
L 402.862083 -56.064937 
L 410.22465 -57.900618 
L 417.587217 -67.484318 
L 424.949784 -67.430946 
L 432.312351 -67.474146 
L 439.674919 -68.812472 
L 447.037486 -68.33664 
L 454.400053 -85.176387 
L 461.76262 -85.375472 
L 469.125187 -99.7921 
L 476.487754 -99.585538 
L 483.850321 -114.28166 
L 491.212888 -114.082811 
L 498.575455 -129.56327 
L 505.938022 -129.803775 
L 513.300589 -141.98656 
L 520.663156 -141.468489 
L 528.025723 -153.86574 
L 535.38829 -153.660952 
L 542.750857 -165.035208 
L 550.113425 -165.81868 
L 557.475992 -179.733063 
L 564.838559 -180.307218 
L 572.201126 -189.748669 
L 579.563693 -189.651584 
L 586.92626 -200.877696 
L 594.288827 -200.452582 
L 601.651394 -210.319779 
L 609.013961 -210.03906 
L 616.376528 -220.972661 
L 623.739095 -221.789343 
L 631.101662 -231.790639 
L 638.464229 -231.612771 
L 645.826796 -248.302731 
L 653.189363 -246.677963 
L 660.551931 -259.131126 
L 667.914498 -258.94858 
L 675.277065 -271.282254 
L 682.639632 -271.495928 
L 690.002199 -274.16922 
L 697.364766 -273.274611 
L 697.364766 -273.866282 
L 697.364766 -273.866282 
L 690.002199 -274.554785 
L 682.639632 -271.842211 
L 675.277065 -271.648823 
L 667.914498 -259.372051 
L 660.551931 -259.837416 
L 653.189363 -247.089821 
L 645.826796 -248.625206 
L 638.464229 -231.993064 
L 631.101662 -232.065135 
L 623.739095 -222.125716 
L 616.376528 -221.370904 
L 609.013961 -210.37397 
L 601.651394 -210.845358 
L 594.288827 -200.751075 
L 586.92626 -201.224615 
L 579.563693 -190.038625 
L 572.201126 -190.058365 
L 564.838559 -180.559719 
L 557.475992 -180.030429 
L 550.113425 -166.107493 
L 542.750857 -165.325614 
L 535.38829 -153.899557 
L 528.025723 -154.183551 
L 520.663156 -141.746517 
L 513.300589 -142.216962 
L 505.938022 -130.132058 
L 498.575455 -129.771654 
L 491.212888 -114.339764 
L 483.850321 -114.527303 
L 476.487754 -99.804925 
L 469.125187 -100.023863 
L 461.76262 -85.614818 
L 454.400053 -85.453926 
L 447.037486 -68.514169 
L 439.674919 -69.014096 
L 432.312351 -67.672383 
L 424.949784 -67.676949 
L 417.587217 -67.719984 
L 410.22465 -58.0721 
L 402.862083 -56.18854 
z
" style="stroke: #1f77b4; stroke-opacity: 0.2"/>
    </defs>
    <g clip-path="url(#p60724fc1a0)">
     <use xlink:href="#me150d4b081" x="0" y="360" style="fill: #1f77b4; fill-opacity: 0.2; stroke: #1f77b4; stroke-opacity: 0.2"/>
    </g>
   </g>
   <g id="PolyCollection_6">
    <defs>
     <path id="m6e34936b3f" d="M 402.862083 -143.149932 
L 402.862083 -124.801393 
L 410.22465 -128.908768 
L 417.587217 -133.151101 
L 424.949784 -134.339231 
L 432.312351 -132.663566 
L 439.674919 -135.13373 
L 447.037486 -141.837417 
L 454.400053 -130.038603 
L 461.76262 -128.319398 
L 469.125187 -134.796119 
L 476.487754 -124.662744 
L 483.850321 -119.753921 
L 491.212888 -120.853231 
L 498.575455 -129.238193 
L 505.938022 -120.749256 
L 513.300589 -118.924079 
L 520.663156 -118.064917 
L 528.025723 -116.061912 
L 535.38829 -126.964705 
L 542.750857 -110.342742 
L 550.113425 -115.907326 
L 557.475992 -112.901915 
L 564.838559 -113.228251 
L 572.201126 -108.729643 
L 579.563693 -106.402209 
L 586.92626 -103.226978 
L 594.288827 -103.439702 
L 601.651394 -100.264516 
L 609.013961 -99.952779 
L 616.376528 -99.22079 
L 623.739095 -99.619974 
L 631.101662 -104.183814 
L 638.464229 -95.759684 
L 645.826796 -88.383418 
L 653.189363 -89.684211 
L 660.551931 -85.265154 
L 667.914498 -86.131264 
L 675.277065 -81.385135 
L 682.639632 -81.553183 
L 690.002199 -81.535338 
L 697.364766 -54.78 
L 697.364766 -54.78 
L 697.364766 -54.78 
L 690.002199 -90.282782 
L 682.639632 -90.30057 
L 675.277065 -90.783422 
L 667.914498 -94.123945 
L 660.551931 -93.926355 
L 653.189363 -97.67184 
L 645.826796 -97.647371 
L 638.464229 -104.362858 
L 631.101662 -115.338009 
L 623.739095 -108.731215 
L 616.376528 -106.425641 
L 609.013961 -109.067176 
L 601.651394 -108.319986 
L 594.288827 -109.081518 
L 586.92626 -108.431389 
L 579.563693 -112.550531 
L 572.201126 -117.874196 
L 564.838559 -123.873129 
L 557.475992 -124.721127 
L 550.113425 -125.408439 
L 542.750857 -118.983522 
L 535.38829 -165.513214 
L 528.025723 -123.483703 
L 520.663156 -140.848607 
L 513.300589 -126.954779 
L 505.938022 -135.098343 
L 498.575455 -143.178795 
L 491.212888 -135.875244 
L 483.850321 -135.35328 
L 476.487754 -138.910354 
L 469.125187 -152.540657 
L 461.76262 -158.445607 
L 454.400053 -147.778056 
L 447.037486 -162.921966 
L 439.674919 -160.0839 
L 432.312351 -140.76939 
L 424.949784 -149.437862 
L 417.587217 -145.588747 
L 410.22465 -137.615795 
L 402.862083 -143.149932 
z
" style="stroke: #ff7f0e; stroke-opacity: 0.2"/>
    </defs>
    <g clip-path="url(#p60724fc1a0)">
     <use xlink:href="#m6e34936b3f" x="0" y="360" style="fill: #ff7f0e; fill-opacity: 0.2; stroke: #ff7f0e; stroke-opacity: 0.2"/>
    </g>
   </g>
   <g id="PolyCollection_7">
    <defs>
     <path id="mf9b902c82f" d="M 402.862083 -60.925379 
L 402.862083 -58.530717 
L 410.22465 -56.379727 
L 417.587217 -60.071638 
L 424.949784 -59.451455 
L 432.312351 -60.256072 
L 439.674919 -61.012165 
L 447.037486 -56.958874 
L 454.400053 -60.373302 
L 461.76262 -59.956068 
L 469.125187 -60.201944 
L 476.487754 -59.731221 
L 483.850321 -60.008217 
L 491.212888 -59.798851 
L 498.575455 -57.524854 
L 505.938022 -57.555222 
L 513.300589 -57.813735 
L 520.663156 -57.620315 
L 528.025723 -57.65497 
L 535.38829 -57.813492 
L 542.750857 -57.501954 
L 550.113425 -57.509593 
L 557.475992 -56.575623 
L 564.838559 -56.590222 
L 572.201126 -56.590451 
L 579.563693 -56.649225 
L 586.92626 -56.607502 
L 594.288827 -56.565716 
L 601.651394 -56.668306 
L 609.013961 -56.772181 
L 616.376528 -56.665717 
L 623.739095 -56.724412 
L 631.101662 -56.532769 
L 638.464229 -56.754568 
L 645.826796 -56.310842 
L 653.189363 -56.343989 
L 660.551931 -56.236654 
L 667.914498 -56.223857 
L 675.277065 -56.290739 
L 682.639632 -56.388782 
L 690.002199 -55.892329 
L 697.364766 -54.78 
L 697.364766 -54.78 
L 697.364766 -54.78 
L 690.002199 -56.318578 
L 682.639632 -57.692086 
L 675.277065 -57.687771 
L 667.914498 -57.550949 
L 660.551931 -57.306333 
L 653.189363 -57.555701 
L 645.826796 -57.502116 
L 638.464229 -58.872788 
L 631.101662 -57.095625 
L 623.739095 -58.846184 
L 616.376528 -58.82517 
L 609.013961 -59.073888 
L 601.651394 -58.729822 
L 594.288827 -57.324107 
L 586.92626 -57.782389 
L 579.563693 -58.126059 
L 572.201126 -58.764807 
L 564.838559 -58.500901 
L 557.475992 -58.347455 
L 550.113425 -60.186163 
L 542.750857 -61.214595 
L 535.38829 -60.143039 
L 528.025723 -61.123824 
L 520.663156 -61.443323 
L 513.300589 -61.3882 
L 505.938022 -61.577303 
L 498.575455 -59.061897 
L 491.212888 -65.080268 
L 483.850321 -65.37583 
L 476.487754 -65.467146 
L 469.125187 -66.391377 
L 461.76262 -64.00958 
L 454.400053 -64.628434 
L 447.037486 -57.962845 
L 439.674919 -64.757322 
L 432.312351 -64.300959 
L 424.949784 -63.79874 
L 417.587217 -63.649906 
L 410.22465 -57.203151 
L 402.862083 -60.925379 
z
" style="stroke: #2ca02c; stroke-opacity: 0.2"/>
    </defs>
    <g clip-path="url(#p60724fc1a0)">
     <use xlink:href="#mf9b902c82f" x="0" y="360" style="fill: #2ca02c; fill-opacity: 0.2; stroke: #2ca02c; stroke-opacity: 0.2"/>
    </g>
   </g>
   <g id="PolyCollection_8">
    <defs>
     <path id="mfa66775882" d="M 402.862083 -149.526881 
L 402.862083 -130.788286 
L 410.22465 -133.652978 
L 417.587217 -152.217026 
L 424.949784 -154.039477 
L 432.312351 -151.874237 
L 439.674919 -156.860535 
L 447.037486 -158.064981 
L 454.400053 -168.827055 
L 461.76262 -166.225041 
L 469.125187 -187.787139 
L 476.487754 -176.632253 
L 483.850321 -187.219944 
L 491.212888 -188.56288 
L 498.575455 -207.748054 
L 505.938022 -201.050251 
L 513.300589 -210.844998 
L 520.663156 -209.04149 
L 528.025723 -220.222589 
L 535.38829 -229.43321 
L 542.750857 -224.664378 
L 550.113425 -230.791893 
L 557.475992 -240.5485 
L 564.838559 -240.93647 
L 572.201126 -245.901342 
L 579.563693 -243.514125 
L 586.92626 -251.876395 
L 594.288827 -251.235364 
L 601.651394 -258.112795 
L 609.013961 -258.153636 
L 616.376528 -268.06739 
L 623.739095 -270.052112 
L 631.101662 -283.127022 
L 638.464229 -274.937015 
L 645.826796 -284.772883 
L 653.189363 -283.594701 
L 660.551931 -291.775898 
L 667.914498 -292.591118 
L 675.277065 -300.405595 
L 682.639632 -300.898956 
L 690.002199 -302.549654 
L 697.364766 -273.274611 
L 697.364766 -273.866282 
L 697.364766 -273.866282 
L 690.002199 -311.18 
L 682.639632 -310.057998 
L 675.277065 -310.535065 
L 667.914498 -301.348271 
L 660.551931 -301.020148 
L 653.189363 -292.468676 
L 645.826796 -293.837103 
L 638.464229 -285.5379 
L 631.101662 -298.080939 
L 623.739095 -279.848303 
L 616.376528 -277.156981 
L 609.013961 -268.716708 
L 601.651394 -268.455277 
L 594.288827 -257.939637 
L 586.92626 -258.293663 
L 579.563693 -250.837563 
L 572.201126 -255.932193 
L 564.838559 -252.199789 
L 557.475992 -252.983602 
L 550.113425 -241.367874 
L 542.750857 -235.732087 
L 535.38829 -269.981525 
L 528.025723 -228.229584 
L 520.663156 -240.401837 
L 513.300589 -220.054273 
L 505.938022 -215.847326 
L 498.575455 -223.806988 
L 491.212888 -204.107583 
L 483.850321 -204.912565 
L 476.487754 -193.995267 
L 469.125187 -206.664843 
L 461.76262 -194.586736 
L 454.400053 -186.724123 
L 447.037486 -179.289718 
L 439.674919 -183.311654 
L 432.312351 -162.330616 
L 424.949784 -168.848627 
L 417.587217 -167.269428 
L 410.22465 -142.86584 
L 402.862083 -149.526881 
z
" style="stroke: #d62728; stroke-opacity: 0.2"/>
    </defs>
    <g clip-path="url(#p60724fc1a0)">
     <use xlink:href="#mfa66775882" x="0" y="360" style="fill: #d62728; fill-opacity: 0.2; stroke: #d62728; stroke-opacity: 0.2"/>
    </g>
   </g>
   <g id="line2d_41">
    <path d="M 402.862083 303.86752 
L 410.22465 302.00415 
L 417.587217 292.399052 
L 424.949784 292.43357 
L 432.312351 292.420256 
L 439.674919 291.078036 
L 447.037486 291.567699 
L 454.400053 274.666719 
L 461.76262 274.480408 
L 469.125187 260.122332 
L 476.487754 260.302946 
L 483.850321 245.594483 
L 491.212888 245.764722 
L 498.575455 230.325082 
L 505.938022 230.058316 
L 513.300589 217.911591 
L 520.663156 218.348794 
L 528.025723 206.013856 
L 535.38829 206.231637 
L 542.750857 194.855531 
L 550.113425 194.025351 
L 557.475992 180.116509 
L 564.838559 179.567351 
L 572.201126 170.069353 
L 579.563693 170.182198 
L 586.92626 158.906567 
L 594.288827 159.374318 
L 601.651394 149.317932 
L 609.013961 149.783374 
L 616.376528 138.831855 
L 623.739095 138.050688 
L 631.101662 128.081198 
L 638.464229 128.206691 
L 645.826796 111.516376 
L 653.189363 113.085113 
L 660.551931 100.525936 
L 667.914498 100.784001 
L 675.277065 88.512374 
L 682.639632 88.317096 
L 690.002199 85.623043 
L 697.364766 86.333562 
" clip-path="url(#p60724fc1a0)" style="fill: none; stroke: #1f77b4; stroke-width: 1.5; stroke-linecap: round"/>
   </g>
   <g id="line2d_42">
    <path d="M 402.862083 228.24024 
L 410.22465 227.731303 
L 417.587217 222.726467 
L 424.949784 219.119832 
L 432.312351 223.082592 
L 439.674919 217.570046 
L 447.037486 208.625714 
L 454.400053 223.264959 
L 461.76262 224.660415 
L 469.125187 217.000438 
L 476.487754 230.087198 
L 483.850321 234.791828 
L 491.212888 233.327404 
L 498.575455 224.486948 
L 505.938022 235.512107 
L 513.300589 237.180712 
L 520.663156 235.828885 
L 528.025723 240.423662 
L 535.38829 222.263077 
L 542.750857 244.835113 
L 550.113425 241.611413 
L 557.475992 242.889945 
L 564.838559 242.787007 
L 572.201126 246.707722 
L 579.563693 251.640066 
L 586.92626 254.82413 
L 594.288827 254.448533 
L 601.651394 256.391604 
L 609.013961 253.004183 
L 616.376528 256.993286 
L 623.739095 255.893417 
L 631.101662 252.52083 
L 638.464229 259.592419 
L 645.826796 266.440376 
L 653.189363 266.682677 
L 660.551931 271.19952 
L 667.914498 270.328168 
L 675.277065 274.022307 
L 682.639632 271.556648 
L 690.002199 272.341835 
L 697.364766 305.22 
" clip-path="url(#p60724fc1a0)" style="fill: none; stroke: #ff7f0e; stroke-width: 1.5; stroke-linecap: round"/>
   </g>
   <g id="line2d_43">
    <path d="M 402.862083 300.683182 
L 410.22465 303.042091 
L 417.587217 297.356826 
L 424.949784 297.710301 
L 432.312351 297.861783 
L 439.674919 296.656743 
L 447.037486 302.435783 
L 454.400053 297.440216 
L 461.76262 298.327811 
L 469.125187 298.303652 
L 476.487754 296.44107 
L 483.850321 296.743522 
L 491.212888 297.013328 
L 498.575455 302.203777 
L 505.938022 300.365623 
L 513.300589 299.793889 
L 520.663156 301.073887 
L 528.025723 300.832854 
L 535.38829 301.482181 
L 542.750857 300.38919 
L 550.113425 301.708646 
L 557.475992 303.034838 
L 564.838559 302.752225 
L 572.201126 303.111401 
L 579.563693 303.089378 
L 586.92626 303.200163 
L 594.288827 303.242659 
L 601.651394 302.943775 
L 609.013961 301.54414 
L 616.376528 301.982003 
L 623.739095 301.870657 
L 631.101662 303.404571 
L 638.464229 301.955738 
L 645.826796 302.69811 
L 653.189363 302.739786 
L 660.551931 303.373172 
L 667.914498 302.966442 
L 675.277065 302.613486 
L 682.639632 302.516917 
L 690.002199 303.794649 
L 697.364766 305.22 
" clip-path="url(#p60724fc1a0)" style="fill: none; stroke: #2ca02c; stroke-width: 1.5; stroke-linecap: round"/>
   </g>
   <g id="line2d_44">
    <path d="M 402.862083 222.276331 
L 410.22465 222.282321 
L 417.587217 201.200855 
L 424.949784 199.602473 
L 432.312351 202.308498 
L 439.674919 194.838004 
L 447.037486 191.943333 
L 454.400053 183.954445 
L 461.76262 185.38813 
L 469.125187 163.548933 
L 476.487754 174.918365 
L 483.850321 165.412117 
L 491.212888 165.312013 
L 498.575455 146.205189 
L 505.938022 155.418585 
L 513.300589 144.039437 
L 520.663156 144.335688 
L 528.025723 135.721936 
L 535.38829 118.2038 
L 542.750857 129.135988 
L 550.113425 125.906561 
L 557.475992 114.431167 
L 564.838559 114.3722 
L 572.201126 108.071008 
L 579.563693 113.637354 
L 586.92626 106.068603 
L 594.288827 106.379917 
L 601.651394 98.004681 
L 609.013961 93.42528 
L 616.376528 86.42121 
L 623.739095 84.707339 
L 631.101662 73.051106 
L 638.464229 79.281848 
L 645.826796 70.344588 
L 653.189363 72.501421 
L 660.551931 63.514085 
L 667.914498 63.372916 
L 675.277065 54.706226 
L 682.639632 52.114654 
L 690.002199 51.399727 
L 697.364766 86.333562 
" clip-path="url(#p60724fc1a0)" style="fill: none; stroke: #d62728; stroke-width: 1.5; stroke-linecap: round"/>
   </g>
   <g id="patch_6">
    <path d="M 388.136949 318.04 
L 388.136949 36 
" style="fill: none; stroke: #cccccc; stroke-width: 0.8; stroke-linejoin: miter; stroke-linecap: square"/>
   </g>
   <g id="patch_7">
    <path d="M 388.136949 318.04 
L 712.0899 318.04 
" style="fill: none; stroke: #cccccc; stroke-width: 0.8; stroke-linejoin: miter; stroke-linecap: square"/>
   </g>
   <g id="text_30">
    <!-- client_pu = CPU -->
    <g style="fill: #262626" transform="translate(513.844675 30) scale(0.1 -0.1)">
     <defs>
      <path id="ArialMT-43" d="M 3763 1606 
L 4369 1453 
Q 4178 706 3683 314 
Q 3188 -78 2472 -78 
Q 1731 -78 1267 223 
Q 803 525 561 1097 
Q 319 1669 319 2325 
Q 319 3041 592 3573 
Q 866 4106 1370 4382 
Q 1875 4659 2481 4659 
Q 3169 4659 3637 4309 
Q 4106 3959 4291 3325 
L 3694 3184 
Q 3534 3684 3231 3912 
Q 2928 4141 2469 4141 
Q 1941 4141 1586 3887 
Q 1231 3634 1087 3207 
Q 944 2781 944 2328 
Q 944 1744 1114 1308 
Q 1284 872 1643 656 
Q 2003 441 2422 441 
Q 2931 441 3284 734 
Q 3638 1028 3763 1606 
z
" transform="scale(0.015625)"/>
     </defs>
     <use xlink:href="#ArialMT-63"/>
     <use xlink:href="#ArialMT-6c" x="50"/>
     <use xlink:href="#ArialMT-69" x="72.216797"/>
     <use xlink:href="#ArialMT-65" x="94.433594"/>
     <use xlink:href="#ArialMT-6e" x="150.048828"/>
     <use xlink:href="#ArialMT-74" x="205.664062"/>
     <use xlink:href="#ArialMT-5f" x="233.447266"/>
     <use xlink:href="#ArialMT-70" x="289.0625"/>
     <use xlink:href="#ArialMT-75" x="344.677734"/>
     <use xlink:href="#ArialMT-20" x="400.292969"/>
     <use xlink:href="#ArialMT-3d" x="428.076172"/>
     <use xlink:href="#ArialMT-20" x="486.474609"/>
     <use xlink:href="#ArialMT-43" x="514.257812"/>
     <use xlink:href="#ArialMT-50" x="586.474609"/>
     <use xlink:href="#ArialMT-55" x="653.173828"/>
    </g>
   </g>
  </g>
  <g id="text_31">
   <!-- ResNet50 latency -->
   <g style="fill: #262626" transform="translate(348.149063 15.825) scale(0.12 -0.12)">
    <defs>
     <path id="ArialMT-52" d="M 503 0 
L 503 4581 
L 2534 4581 
Q 3147 4581 3465 4457 
Q 3784 4334 3975 4021 
Q 4166 3709 4166 3331 
Q 4166 2844 3850 2509 
Q 3534 2175 2875 2084 
Q 3116 1969 3241 1856 
Q 3506 1613 3744 1247 
L 4541 0 
L 3778 0 
L 3172 953 
Q 2906 1366 2734 1584 
Q 2563 1803 2427 1890 
Q 2291 1978 2150 2013 
Q 2047 2034 1813 2034 
L 1109 2034 
L 1109 0 
L 503 0 
z
M 1109 2559 
L 2413 2559 
Q 2828 2559 3062 2645 
Q 3297 2731 3419 2920 
Q 3541 3109 3541 3331 
Q 3541 3656 3305 3865 
Q 3069 4075 2559 4075 
L 1109 4075 
L 1109 2559 
z
" transform="scale(0.015625)"/>
     <path id="ArialMT-4e" d="M 488 0 
L 488 4581 
L 1109 4581 
L 3516 984 
L 3516 4581 
L 4097 4581 
L 4097 0 
L 3475 0 
L 1069 3600 
L 1069 0 
L 488 0 
z
" transform="scale(0.015625)"/>
    </defs>
    <use xlink:href="#ArialMT-52"/>
    <use xlink:href="#ArialMT-65" x="72.216797"/>
    <use xlink:href="#ArialMT-73" x="127.832031"/>
    <use xlink:href="#ArialMT-4e" x="177.832031"/>
    <use xlink:href="#ArialMT-65" x="250.048828"/>
    <use xlink:href="#ArialMT-74" x="305.664062"/>
    <use xlink:href="#ArialMT-35" x="333.447266"/>
    <use xlink:href="#ArialMT-30" x="389.0625"/>
    <use xlink:href="#ArialMT-20" x="444.677734"/>
    <use xlink:href="#ArialMT-6c" x="472.460938"/>
    <use xlink:href="#ArialMT-61" x="494.677734"/>
    <use xlink:href="#ArialMT-74" x="550.292969"/>
    <use xlink:href="#ArialMT-65" x="578.076172"/>
    <use xlink:href="#ArialMT-6e" x="633.691406"/>
    <use xlink:href="#ArialMT-63" x="689.306641"/>
    <use xlink:href="#ArialMT-79" x="739.306641"/>
   </g>
  </g>
  <g id="legend_1">
   <g id="text_32">
    <!-- variable -->
    <g style="fill: #262626" transform="translate(732.995156 154.294531) scale(0.1 -0.1)">
     <defs>
      <path id="ArialMT-76" d="M 1344 0 
L 81 3319 
L 675 3319 
L 1388 1331 
Q 1503 1009 1600 663 
Q 1675 925 1809 1294 
L 2547 3319 
L 3125 3319 
L 1869 0 
L 1344 0 
z
" transform="scale(0.015625)"/>
     </defs>
     <use xlink:href="#ArialMT-76"/>
     <use xlink:href="#ArialMT-61" x="50"/>
     <use xlink:href="#ArialMT-72" x="105.615234"/>
     <use xlink:href="#ArialMT-69" x="138.916016"/>
     <use xlink:href="#ArialMT-61" x="161.132812"/>
     <use xlink:href="#ArialMT-62" x="216.748047"/>
     <use xlink:href="#ArialMT-6c" x="272.363281"/>
     <use xlink:href="#ArialMT-65" x="294.580078"/>
    </g>
   </g>
   <g id="line2d_45">
    <path d="M 718.9975 164.939844 
L 728.9975 164.939844 
L 738.9975 164.939844 
" style="fill: none; stroke: #1f77b4; stroke-width: 1.5; stroke-linecap: round"/>
   </g>
   <g id="text_33">
    <!-- client -->
    <g style="fill: #262626" transform="translate(746.9975 168.439844) scale(0.1 -0.1)">
     <use xlink:href="#ArialMT-63"/>
     <use xlink:href="#ArialMT-6c" x="50"/>
     <use xlink:href="#ArialMT-69" x="72.216797"/>
     <use xlink:href="#ArialMT-65" x="94.433594"/>
     <use xlink:href="#ArialMT-6e" x="150.048828"/>
     <use xlink:href="#ArialMT-74" x="205.664062"/>
    </g>
   </g>
   <g id="line2d_46">
    <path d="M 718.9975 179.085156 
L 728.9975 179.085156 
L 738.9975 179.085156 
" style="fill: none; stroke: #ff7f0e; stroke-width: 1.5; stroke-linecap: round"/>
   </g>
   <g id="text_34">
    <!-- server -->
    <g style="fill: #262626" transform="translate(746.9975 182.585156) scale(0.1 -0.1)">
     <use xlink:href="#ArialMT-73"/>
     <use xlink:href="#ArialMT-65" x="50"/>
     <use xlink:href="#ArialMT-72" x="105.615234"/>
     <use xlink:href="#ArialMT-76" x="138.916016"/>
     <use xlink:href="#ArialMT-65" x="188.916016"/>
     <use xlink:href="#ArialMT-72" x="244.53125"/>
    </g>
   </g>
   <g id="line2d_47">
    <path d="M 718.9975 193.230469 
L 728.9975 193.230469 
L 738.9975 193.230469 
" style="fill: none; stroke: #2ca02c; stroke-width: 1.5; stroke-linecap: round"/>
   </g>
   <g id="text_35">
    <!-- network -->
    <g style="fill: #262626" transform="translate(746.9975 196.730469) scale(0.1 -0.1)">
     <defs>
      <path id="ArialMT-77" d="M 1034 0 
L 19 3319 
L 600 3319 
L 1128 1403 
L 1325 691 
Q 1338 744 1497 1375 
L 2025 3319 
L 2603 3319 
L 3100 1394 
L 3266 759 
L 3456 1400 
L 4025 3319 
L 4572 3319 
L 3534 0 
L 2950 0 
L 2422 1988 
L 2294 2553 
L 1622 0 
L 1034 0 
z
" transform="scale(0.015625)"/>
      <path id="ArialMT-6b" d="M 425 0 
L 425 4581 
L 988 4581 
L 988 1969 
L 2319 3319 
L 3047 3319 
L 1778 2088 
L 3175 0 
L 2481 0 
L 1384 1697 
L 988 1316 
L 988 0 
L 425 0 
z
" transform="scale(0.015625)"/>
     </defs>
     <use xlink:href="#ArialMT-6e"/>
     <use xlink:href="#ArialMT-65" x="55.615234"/>
     <use xlink:href="#ArialMT-74" x="111.230469"/>
     <use xlink:href="#ArialMT-77" x="139.013672"/>
     <use xlink:href="#ArialMT-6f" x="211.230469"/>
     <use xlink:href="#ArialMT-72" x="266.845703"/>
     <use xlink:href="#ArialMT-6b" x="300.146484"/>
    </g>
   </g>
   <g id="line2d_48">
    <path d="M 718.9975 207.375781 
L 728.9975 207.375781 
L 738.9975 207.375781 
" style="fill: none; stroke: #d62728; stroke-width: 1.5; stroke-linecap: round"/>
   </g>
   <g id="text_36">
    <!-- total -->
    <g style="fill: #262626" transform="translate(746.9975 210.875781) scale(0.1 -0.1)">
     <use xlink:href="#ArialMT-74"/>
     <use xlink:href="#ArialMT-6f" x="27.783203"/>
     <use xlink:href="#ArialMT-74" x="83.398438"/>
     <use xlink:href="#ArialMT-61" x="111.181641"/>
     <use xlink:href="#ArialMT-6c" x="166.796875"/>
    </g>
   </g>
  </g>
 </g>
 <defs>
  <clipPath id="p332cbab09e">
   <rect x="53.415148" y="36" width="323.952951" height="282.04"/>
  </clipPath>
  <clipPath id="p60724fc1a0">
   <rect x="388.136949" y="36" width="323.952951" height="282.04"/>
  </clipPath>
 </defs>
</svg>
