<?xml version="1.0" encoding="utf-8" standalone="no"?>
<!DOCTYPE svg PUBLIC "-//W3C//DTD SVG 1.1//EN"
  "http://www.w3.org/Graphics/SVG/1.1/DTD/svg11.dtd">
<svg xmlns:xlink="http://www.w3.org/1999/xlink" width="791.01pt" height="360pt" viewBox="0 0 791.01 360" xmlns="http://www.w3.org/2000/svg" version="1.1">
 <metadata>
  <rdf:RDF xmlns:dc="http://purl.org/dc/elements/1.1/" xmlns:cc="http://creativecommons.org/ns#" xmlns:rdf="http://www.w3.org/1999/02/22-rdf-syntax-ns#">
   <cc:Work>
    <dc:type rdf:resource="http://purl.org/dc/dcmitype/StillImage"/>
    <dc:date>2023-12-04T17:01:35.450309</dc:date>
    <dc:format>image/svg+xml</dc:format>
    <dc:creator>
     <cc:Agent>
      <dc:title>Matplotlib v3.8.0, https://matplotlib.org/</dc:title>
     </cc:Agent>
    </dc:creator>
   </cc:Work>
  </rdf:RDF>
 </metadata>
 <defs>
  <style type="text/css">*{stroke-linejoin: round; stroke-linecap: butt}</style>
 </defs>
 <g id="figure_1">
  <g id="patch_1">
   <path d="M 0 360 
L 791.01 360 
L 791.01 0 
L 0 0 
z
" style="fill: #ffffff"/>
  </g>
  <g id="axes_1">
   <g id="patch_2">
    <path d="M 59.545475 318.04 
L 380.437932 318.04 
L 380.437932 36 
L 59.545475 36 
z
" style="fill: #ffffff"/>
   </g>
   <g id="matplotlib.axis_1">
    <g id="xtick_1">
     <g id="line2d_1">
      <path d="M 74.131496 318.04 
L 74.131496 36 
" clip-path="url(#p02634fced9)" style="fill: none; stroke: #cccccc; stroke-width: 0.8; stroke-linecap: round"/>
     </g>
     <g id="text_1">
      <!-- 0 -->
      <g style="fill: #262626" transform="translate(71.351027 332.197812) scale(0.1 -0.1)">
       <defs>
        <path id="ArialMT-30" d="M 266 2259 
Q 266 3072 433 3567 
Q 600 4063 929 4331 
Q 1259 4600 1759 4600 
Q 2128 4600 2406 4451 
Q 2684 4303 2865 4023 
Q 3047 3744 3150 3342 
Q 3253 2941 3253 2259 
Q 3253 1453 3087 958 
Q 2922 463 2592 192 
Q 2263 -78 1759 -78 
Q 1097 -78 719 397 
Q 266 969 266 2259 
z
M 844 2259 
Q 844 1131 1108 757 
Q 1372 384 1759 384 
Q 2147 384 2411 759 
Q 2675 1134 2675 2259 
Q 2675 3391 2411 3762 
Q 2147 4134 1753 4134 
Q 1366 4134 1134 3806 
Q 844 3388 844 2259 
z
" transform="scale(0.015625)"/>
       </defs>
       <use xlink:href="#ArialMT-30"/>
      </g>
     </g>
    </g>
    <g id="xtick_2">
     <g id="line2d_2">
      <path d="M 140.43159 318.04 
L 140.43159 36 
" clip-path="url(#p02634fced9)" style="fill: none; stroke: #cccccc; stroke-width: 0.8; stroke-linecap: round"/>
     </g>
     <g id="text_2">
      <!-- 5 -->
      <g style="fill: #262626" transform="translate(137.651121 332.197812) scale(0.1 -0.1)">
       <defs>
        <path id="ArialMT-35" d="M 266 1200 
L 856 1250 
Q 922 819 1161 601 
Q 1400 384 1738 384 
Q 2144 384 2425 690 
Q 2706 997 2706 1503 
Q 2706 1984 2436 2262 
Q 2166 2541 1728 2541 
Q 1456 2541 1237 2417 
Q 1019 2294 894 2097 
L 366 2166 
L 809 4519 
L 3088 4519 
L 3088 3981 
L 1259 3981 
L 1013 2750 
Q 1425 3038 1878 3038 
Q 2478 3038 2890 2622 
Q 3303 2206 3303 1553 
Q 3303 931 2941 478 
Q 2500 -78 1738 -78 
Q 1113 -78 717 272 
Q 322 622 266 1200 
z
" transform="scale(0.015625)"/>
       </defs>
       <use xlink:href="#ArialMT-35"/>
      </g>
     </g>
    </g>
    <g id="xtick_3">
     <g id="line2d_3">
      <path d="M 206.731685 318.04 
L 206.731685 36 
" clip-path="url(#p02634fced9)" style="fill: none; stroke: #cccccc; stroke-width: 0.8; stroke-linecap: round"/>
     </g>
     <g id="text_3">
      <!-- 10 -->
      <g style="fill: #262626" transform="translate(201.170747 332.197812) scale(0.1 -0.1)">
       <defs>
        <path id="ArialMT-31" d="M 2384 0 
L 1822 0 
L 1822 3584 
Q 1619 3391 1289 3197 
Q 959 3003 697 2906 
L 697 3450 
Q 1169 3672 1522 3987 
Q 1875 4303 2022 4600 
L 2384 4600 
L 2384 0 
z
" transform="scale(0.015625)"/>
       </defs>
       <use xlink:href="#ArialMT-31"/>
       <use xlink:href="#ArialMT-30" x="55.615234"/>
      </g>
     </g>
    </g>
    <g id="xtick_4">
     <g id="line2d_4">
      <path d="M 273.031779 318.04 
L 273.031779 36 
" clip-path="url(#p02634fced9)" style="fill: none; stroke: #cccccc; stroke-width: 0.8; stroke-linecap: round"/>
     </g>
     <g id="text_4">
      <!-- 15 -->
      <g style="fill: #262626" transform="translate(267.470841 332.197812) scale(0.1 -0.1)">
       <use xlink:href="#ArialMT-31"/>
       <use xlink:href="#ArialMT-35" x="55.615234"/>
      </g>
     </g>
    </g>
    <g id="xtick_5">
     <g id="line2d_5">
      <path d="M 339.331873 318.04 
L 339.331873 36 
" clip-path="url(#p02634fced9)" style="fill: none; stroke: #cccccc; stroke-width: 0.8; stroke-linecap: round"/>
     </g>
     <g id="text_5">
      <!-- 20 -->
      <g style="fill: #262626" transform="translate(333.770936 332.197812) scale(0.1 -0.1)">
       <defs>
        <path id="ArialMT-32" d="M 3222 541 
L 3222 0 
L 194 0 
Q 188 203 259 391 
Q 375 700 629 1000 
Q 884 1300 1366 1694 
Q 2113 2306 2375 2664 
Q 2638 3022 2638 3341 
Q 2638 3675 2398 3904 
Q 2159 4134 1775 4134 
Q 1369 4134 1125 3890 
Q 881 3647 878 3216 
L 300 3275 
Q 359 3922 746 4261 
Q 1134 4600 1788 4600 
Q 2447 4600 2831 4234 
Q 3216 3869 3216 3328 
Q 3216 3053 3103 2787 
Q 2991 2522 2730 2228 
Q 2469 1934 1863 1422 
Q 1356 997 1212 845 
Q 1069 694 975 541 
L 3222 541 
z
" transform="scale(0.015625)"/>
       </defs>
       <use xlink:href="#ArialMT-32"/>
       <use xlink:href="#ArialMT-30" x="55.615234"/>
      </g>
     </g>
    </g>
    <g id="text_6">
     <!-- offload to cloud before layer -->
     <g style="fill: #262626" transform="translate(158.377641 345.465) scale(0.1 -0.1)">
      <defs>
       <path id="ArialMT-6f" d="M 213 1659 
Q 213 2581 725 3025 
Q 1153 3394 1769 3394 
Q 2453 3394 2887 2945 
Q 3322 2497 3322 1706 
Q 3322 1066 3130 698 
Q 2938 331 2570 128 
Q 2203 -75 1769 -75 
Q 1072 -75 642 372 
Q 213 819 213 1659 
z
M 791 1659 
Q 791 1022 1069 705 
Q 1347 388 1769 388 
Q 2188 388 2466 706 
Q 2744 1025 2744 1678 
Q 2744 2294 2464 2611 
Q 2184 2928 1769 2928 
Q 1347 2928 1069 2612 
Q 791 2297 791 1659 
z
" transform="scale(0.015625)"/>
       <path id="ArialMT-66" d="M 556 0 
L 556 2881 
L 59 2881 
L 59 3319 
L 556 3319 
L 556 3672 
Q 556 4006 616 4169 
Q 697 4388 901 4523 
Q 1106 4659 1475 4659 
Q 1713 4659 2000 4603 
L 1916 4113 
Q 1741 4144 1584 4144 
Q 1328 4144 1222 4034 
Q 1116 3925 1116 3625 
L 1116 3319 
L 1763 3319 
L 1763 2881 
L 1116 2881 
L 1116 0 
L 556 0 
z
" transform="scale(0.015625)"/>
       <path id="ArialMT-6c" d="M 409 0 
L 409 4581 
L 972 4581 
L 972 0 
L 409 0 
z
" transform="scale(0.015625)"/>
       <path id="ArialMT-61" d="M 2588 409 
Q 2275 144 1986 34 
Q 1697 -75 1366 -75 
Q 819 -75 525 192 
Q 231 459 231 875 
Q 231 1119 342 1320 
Q 453 1522 633 1644 
Q 813 1766 1038 1828 
Q 1203 1872 1538 1913 
Q 2219 1994 2541 2106 
Q 2544 2222 2544 2253 
Q 2544 2597 2384 2738 
Q 2169 2928 1744 2928 
Q 1347 2928 1158 2789 
Q 969 2650 878 2297 
L 328 2372 
Q 403 2725 575 2942 
Q 747 3159 1072 3276 
Q 1397 3394 1825 3394 
Q 2250 3394 2515 3294 
Q 2781 3194 2906 3042 
Q 3031 2891 3081 2659 
Q 3109 2516 3109 2141 
L 3109 1391 
Q 3109 606 3145 398 
Q 3181 191 3288 0 
L 2700 0 
Q 2613 175 2588 409 
z
M 2541 1666 
Q 2234 1541 1622 1453 
Q 1275 1403 1131 1340 
Q 988 1278 909 1158 
Q 831 1038 831 891 
Q 831 666 1001 516 
Q 1172 366 1500 366 
Q 1825 366 2078 508 
Q 2331 650 2450 897 
Q 2541 1088 2541 1459 
L 2541 1666 
z
" transform="scale(0.015625)"/>
       <path id="ArialMT-64" d="M 2575 0 
L 2575 419 
Q 2259 -75 1647 -75 
Q 1250 -75 917 144 
Q 584 363 401 755 
Q 219 1147 219 1656 
Q 219 2153 384 2558 
Q 550 2963 881 3178 
Q 1213 3394 1622 3394 
Q 1922 3394 2156 3267 
Q 2391 3141 2538 2938 
L 2538 4581 
L 3097 4581 
L 3097 0 
L 2575 0 
z
M 797 1656 
Q 797 1019 1065 703 
Q 1334 388 1700 388 
Q 2069 388 2326 689 
Q 2584 991 2584 1609 
Q 2584 2291 2321 2609 
Q 2059 2928 1675 2928 
Q 1300 2928 1048 2622 
Q 797 2316 797 1656 
z
" transform="scale(0.015625)"/>
       <path id="ArialMT-20" transform="scale(0.015625)"/>
       <path id="ArialMT-74" d="M 1650 503 
L 1731 6 
Q 1494 -44 1306 -44 
Q 1000 -44 831 53 
Q 663 150 594 308 
Q 525 466 525 972 
L 525 2881 
L 113 2881 
L 113 3319 
L 525 3319 
L 525 4141 
L 1084 4478 
L 1084 3319 
L 1650 3319 
L 1650 2881 
L 1084 2881 
L 1084 941 
Q 1084 700 1114 631 
Q 1144 563 1211 522 
Q 1278 481 1403 481 
Q 1497 481 1650 503 
z
" transform="scale(0.015625)"/>
       <path id="ArialMT-63" d="M 2588 1216 
L 3141 1144 
Q 3050 572 2676 248 
Q 2303 -75 1759 -75 
Q 1078 -75 664 370 
Q 250 816 250 1647 
Q 250 2184 428 2587 
Q 606 2991 970 3192 
Q 1334 3394 1763 3394 
Q 2303 3394 2647 3120 
Q 2991 2847 3088 2344 
L 2541 2259 
Q 2463 2594 2264 2762 
Q 2066 2931 1784 2931 
Q 1359 2931 1093 2626 
Q 828 2322 828 1663 
Q 828 994 1084 691 
Q 1341 388 1753 388 
Q 2084 388 2306 591 
Q 2528 794 2588 1216 
z
" transform="scale(0.015625)"/>
       <path id="ArialMT-75" d="M 2597 0 
L 2597 488 
Q 2209 -75 1544 -75 
Q 1250 -75 995 37 
Q 741 150 617 320 
Q 494 491 444 738 
Q 409 903 409 1263 
L 409 3319 
L 972 3319 
L 972 1478 
Q 972 1038 1006 884 
Q 1059 663 1231 536 
Q 1403 409 1656 409 
Q 1909 409 2131 539 
Q 2353 669 2445 892 
Q 2538 1116 2538 1541 
L 2538 3319 
L 3100 3319 
L 3100 0 
L 2597 0 
z
" transform="scale(0.015625)"/>
       <path id="ArialMT-62" d="M 941 0 
L 419 0 
L 419 4581 
L 981 4581 
L 981 2947 
Q 1338 3394 1891 3394 
Q 2197 3394 2470 3270 
Q 2744 3147 2920 2923 
Q 3097 2700 3197 2384 
Q 3297 2069 3297 1709 
Q 3297 856 2875 390 
Q 2453 -75 1863 -75 
Q 1275 -75 941 416 
L 941 0 
z
M 934 1684 
Q 934 1088 1097 822 
Q 1363 388 1816 388 
Q 2184 388 2453 708 
Q 2722 1028 2722 1663 
Q 2722 2313 2464 2622 
Q 2206 2931 1841 2931 
Q 1472 2931 1203 2611 
Q 934 2291 934 1684 
z
" transform="scale(0.015625)"/>
       <path id="ArialMT-65" d="M 2694 1069 
L 3275 997 
Q 3138 488 2766 206 
Q 2394 -75 1816 -75 
Q 1088 -75 661 373 
Q 234 822 234 1631 
Q 234 2469 665 2931 
Q 1097 3394 1784 3394 
Q 2450 3394 2872 2941 
Q 3294 2488 3294 1666 
Q 3294 1616 3291 1516 
L 816 1516 
Q 847 969 1125 678 
Q 1403 388 1819 388 
Q 2128 388 2347 550 
Q 2566 713 2694 1069 
z
M 847 1978 
L 2700 1978 
Q 2663 2397 2488 2606 
Q 2219 2931 1791 2931 
Q 1403 2931 1139 2672 
Q 875 2413 847 1978 
z
" transform="scale(0.015625)"/>
       <path id="ArialMT-72" d="M 416 0 
L 416 3319 
L 922 3319 
L 922 2816 
Q 1116 3169 1280 3281 
Q 1444 3394 1641 3394 
Q 1925 3394 2219 3213 
L 2025 2691 
Q 1819 2813 1613 2813 
Q 1428 2813 1281 2702 
Q 1134 2591 1072 2394 
Q 978 2094 978 1738 
L 978 0 
L 416 0 
z
" transform="scale(0.015625)"/>
       <path id="ArialMT-79" d="M 397 -1278 
L 334 -750 
Q 519 -800 656 -800 
Q 844 -800 956 -737 
Q 1069 -675 1141 -563 
Q 1194 -478 1313 -144 
Q 1328 -97 1363 -6 
L 103 3319 
L 709 3319 
L 1400 1397 
Q 1534 1031 1641 628 
Q 1738 1016 1872 1384 
L 2581 3319 
L 3144 3319 
L 1881 -56 
Q 1678 -603 1566 -809 
Q 1416 -1088 1222 -1217 
Q 1028 -1347 759 -1347 
Q 597 -1347 397 -1278 
z
" transform="scale(0.015625)"/>
      </defs>
      <use xlink:href="#ArialMT-6f"/>
      <use xlink:href="#ArialMT-66" x="55.615234"/>
      <use xlink:href="#ArialMT-66" x="81.648438"/>
      <use xlink:href="#ArialMT-6c" x="109.431641"/>
      <use xlink:href="#ArialMT-6f" x="131.648438"/>
      <use xlink:href="#ArialMT-61" x="187.263672"/>
      <use xlink:href="#ArialMT-64" x="242.878906"/>
      <use xlink:href="#ArialMT-20" x="298.494141"/>
      <use xlink:href="#ArialMT-74" x="326.277344"/>
      <use xlink:href="#ArialMT-6f" x="354.060547"/>
      <use xlink:href="#ArialMT-20" x="409.675781"/>
      <use xlink:href="#ArialMT-63" x="437.458984"/>
      <use xlink:href="#ArialMT-6c" x="487.458984"/>
      <use xlink:href="#ArialMT-6f" x="509.675781"/>
      <use xlink:href="#ArialMT-75" x="565.291016"/>
      <use xlink:href="#ArialMT-64" x="620.90625"/>
      <use xlink:href="#ArialMT-20" x="676.521484"/>
      <use xlink:href="#ArialMT-62" x="704.304688"/>
      <use xlink:href="#ArialMT-65" x="759.919922"/>
      <use xlink:href="#ArialMT-66" x="815.535156"/>
      <use xlink:href="#ArialMT-6f" x="843.318359"/>
      <use xlink:href="#ArialMT-72" x="898.933594"/>
      <use xlink:href="#ArialMT-65" x="932.234375"/>
      <use xlink:href="#ArialMT-20" x="987.849609"/>
      <use xlink:href="#ArialMT-6c" x="1015.632812"/>
      <use xlink:href="#ArialMT-61" x="1037.849609"/>
      <use xlink:href="#ArialMT-79" x="1093.464844"/>
      <use xlink:href="#ArialMT-65" x="1143.464844"/>
      <use xlink:href="#ArialMT-72" x="1199.080078"/>
     </g>
    </g>
   </g>
   <g id="matplotlib.axis_2">
    <g id="ytick_1">
     <g id="line2d_6">
      <path d="M 59.545475 305.22 
L 380.437932 305.22 
" clip-path="url(#p02634fced9)" style="fill: none; stroke: #cccccc; stroke-width: 0.8; stroke-linecap: round"/>
     </g>
     <g id="text_7">
      <!-- 0 -->
      <g style="fill: #262626" transform="translate(46.984537 308.798906) scale(0.1 -0.1)">
       <use xlink:href="#ArialMT-30"/>
      </g>
     </g>
    </g>
    <g id="ytick_2">
     <g id="line2d_7">
      <path d="M 59.545475 269.693204 
L 380.437932 269.693204 
" clip-path="url(#p02634fced9)" style="fill: none; stroke: #cccccc; stroke-width: 0.8; stroke-linecap: round"/>
     </g>
     <g id="text_8">
      <!-- 250 -->
      <g style="fill: #262626" transform="translate(35.862662 273.272111) scale(0.1 -0.1)">
       <use xlink:href="#ArialMT-32"/>
       <use xlink:href="#ArialMT-35" x="55.615234"/>
       <use xlink:href="#ArialMT-30" x="111.230469"/>
      </g>
     </g>
    </g>
    <g id="ytick_3">
     <g id="line2d_8">
      <path d="M 59.545475 234.166409 
L 380.437932 234.166409 
" clip-path="url(#p02634fced9)" style="fill: none; stroke: #cccccc; stroke-width: 0.8; stroke-linecap: round"/>
     </g>
     <g id="text_9">
      <!-- 500 -->
      <g style="fill: #262626" transform="translate(35.862662 237.745315) scale(0.1 -0.1)">
       <use xlink:href="#ArialMT-35"/>
       <use xlink:href="#ArialMT-30" x="55.615234"/>
       <use xlink:href="#ArialMT-30" x="111.230469"/>
      </g>
     </g>
    </g>
    <g id="ytick_4">
     <g id="line2d_9">
      <path d="M 59.545475 198.639613 
L 380.437932 198.639613 
" clip-path="url(#p02634fced9)" style="fill: none; stroke: #cccccc; stroke-width: 0.8; stroke-linecap: round"/>
     </g>
     <g id="text_10">
      <!-- 750 -->
      <g style="fill: #262626" transform="translate(35.862662 202.218519) scale(0.1 -0.1)">
       <defs>
        <path id="ArialMT-37" d="M 303 3981 
L 303 4522 
L 3269 4522 
L 3269 4084 
Q 2831 3619 2401 2847 
Q 1972 2075 1738 1259 
Q 1569 684 1522 0 
L 944 0 
Q 953 541 1156 1306 
Q 1359 2072 1739 2783 
Q 2119 3494 2547 3981 
L 303 3981 
z
" transform="scale(0.015625)"/>
       </defs>
       <use xlink:href="#ArialMT-37"/>
       <use xlink:href="#ArialMT-35" x="55.615234"/>
       <use xlink:href="#ArialMT-30" x="111.230469"/>
      </g>
     </g>
    </g>
    <g id="ytick_5">
     <g id="line2d_10">
      <path d="M 59.545475 163.112818 
L 380.437932 163.112818 
" clip-path="url(#p02634fced9)" style="fill: none; stroke: #cccccc; stroke-width: 0.8; stroke-linecap: round"/>
     </g>
     <g id="text_11">
      <!-- 1000 -->
      <g style="fill: #262626" transform="translate(30.301725 166.691724) scale(0.1 -0.1)">
       <use xlink:href="#ArialMT-31"/>
       <use xlink:href="#ArialMT-30" x="55.615234"/>
       <use xlink:href="#ArialMT-30" x="111.230469"/>
       <use xlink:href="#ArialMT-30" x="166.845703"/>
      </g>
     </g>
    </g>
    <g id="ytick_6">
     <g id="line2d_11">
      <path d="M 59.545475 127.586022 
L 380.437932 127.586022 
" clip-path="url(#p02634fced9)" style="fill: none; stroke: #cccccc; stroke-width: 0.8; stroke-linecap: round"/>
     </g>
     <g id="text_12">
      <!-- 1250 -->
      <g style="fill: #262626" transform="translate(30.301725 131.164928) scale(0.1 -0.1)">
       <use xlink:href="#ArialMT-31"/>
       <use xlink:href="#ArialMT-32" x="55.615234"/>
       <use xlink:href="#ArialMT-35" x="111.230469"/>
       <use xlink:href="#ArialMT-30" x="166.845703"/>
      </g>
     </g>
    </g>
    <g id="ytick_7">
     <g id="line2d_12">
      <path d="M 59.545475 92.059226 
L 380.437932 92.059226 
" clip-path="url(#p02634fced9)" style="fill: none; stroke: #cccccc; stroke-width: 0.8; stroke-linecap: round"/>
     </g>
     <g id="text_13">
      <!-- 1500 -->
      <g style="fill: #262626" transform="translate(30.301725 95.638133) scale(0.1 -0.1)">
       <use xlink:href="#ArialMT-31"/>
       <use xlink:href="#ArialMT-35" x="55.615234"/>
       <use xlink:href="#ArialMT-30" x="111.230469"/>
       <use xlink:href="#ArialMT-30" x="166.845703"/>
      </g>
     </g>
    </g>
    <g id="ytick_8">
     <g id="line2d_13">
      <path d="M 59.545475 56.532431 
L 380.437932 56.532431 
" clip-path="url(#p02634fced9)" style="fill: none; stroke: #cccccc; stroke-width: 0.8; stroke-linecap: round"/>
     </g>
     <g id="text_14">
      <!-- 1750 -->
      <g style="fill: #262626" transform="translate(30.301725 60.111337) scale(0.1 -0.1)">
       <use xlink:href="#ArialMT-31"/>
       <use xlink:href="#ArialMT-37" x="55.615234"/>
       <use xlink:href="#ArialMT-35" x="111.230469"/>
       <use xlink:href="#ArialMT-30" x="166.845703"/>
      </g>
     </g>
    </g>
    <g id="text_15">
     <!-- ms -->
     <g style="fill: #262626" transform="translate(24.314225 183.684844) rotate(-90) scale(0.1 -0.1)">
      <defs>
       <path id="ArialMT-6d" d="M 422 0 
L 422 3319 
L 925 3319 
L 925 2853 
Q 1081 3097 1340 3245 
Q 1600 3394 1931 3394 
Q 2300 3394 2536 3241 
Q 2772 3088 2869 2813 
Q 3263 3394 3894 3394 
Q 4388 3394 4653 3120 
Q 4919 2847 4919 2278 
L 4919 0 
L 4359 0 
L 4359 2091 
Q 4359 2428 4304 2576 
Q 4250 2725 4106 2815 
Q 3963 2906 3769 2906 
Q 3419 2906 3187 2673 
Q 2956 2441 2956 1928 
L 2956 0 
L 2394 0 
L 2394 2156 
Q 2394 2531 2256 2718 
Q 2119 2906 1806 2906 
Q 1569 2906 1367 2781 
Q 1166 2656 1075 2415 
Q 984 2175 984 1722 
L 984 0 
L 422 0 
z
" transform="scale(0.015625)"/>
       <path id="ArialMT-73" d="M 197 991 
L 753 1078 
Q 800 744 1014 566 
Q 1228 388 1613 388 
Q 2000 388 2187 545 
Q 2375 703 2375 916 
Q 2375 1106 2209 1216 
Q 2094 1291 1634 1406 
Q 1016 1563 777 1677 
Q 538 1791 414 1992 
Q 291 2194 291 2438 
Q 291 2659 392 2848 
Q 494 3038 669 3163 
Q 800 3259 1026 3326 
Q 1253 3394 1513 3394 
Q 1903 3394 2198 3281 
Q 2494 3169 2634 2976 
Q 2775 2784 2828 2463 
L 2278 2388 
Q 2241 2644 2061 2787 
Q 1881 2931 1553 2931 
Q 1166 2931 1000 2803 
Q 834 2675 834 2503 
Q 834 2394 903 2306 
Q 972 2216 1119 2156 
Q 1203 2125 1616 2013 
Q 2213 1853 2448 1751 
Q 2684 1650 2818 1456 
Q 2953 1263 2953 975 
Q 2953 694 2789 445 
Q 2625 197 2315 61 
Q 2006 -75 1616 -75 
Q 969 -75 630 194 
Q 291 463 197 991 
z
" transform="scale(0.015625)"/>
      </defs>
      <use xlink:href="#ArialMT-6d"/>
      <use xlink:href="#ArialMT-73" x="83.300781"/>
     </g>
    </g>
   </g>
   <g id="PolyCollection_1">
    <defs>
     <path id="m8ef623b72b" d="M 74.131496 -55.257427 
L 74.131496 -55.225423 
L 87.391515 -66.849185 
L 100.651534 -67.498538 
L 113.911552 -58.95897 
L 127.171571 -61.374074 
L 140.43159 -62.152916 
L 153.691609 -57.78256 
L 166.951628 -59.262008 
L 180.211647 -59.445334 
L 193.471666 -59.609728 
L 206.731685 -57.526902 
L 219.991703 -58.306778 
L 233.251722 -58.405315 
L 246.511741 -59.138337 
L 259.77176 -58.104369 
L 273.031779 -59.12504 
L 286.291798 -60.14088 
L 299.551817 -61.156731 
L 312.811836 -60.902569 
L 326.071855 -60.901476 
L 339.331873 -105.647559 
L 352.591892 -112.978225 
L 365.851911 -114.744024 
L 365.851911 -114.802458 
L 365.851911 -114.802458 
L 352.591892 -113.023603 
L 339.331873 -105.711259 
L 326.071855 -60.985452 
L 312.811836 -60.983581 
L 299.551817 -61.234494 
L 286.291798 -60.5867 
L 273.031779 -59.63815 
L 259.77176 -58.578299 
L 246.511741 -59.302701 
L 233.251722 -58.707869 
L 219.991703 -59.392808 
L 206.731685 -57.672836 
L 193.471666 -59.830026 
L 180.211647 -59.656334 
L 166.951628 -59.473024 
L 153.691609 -58.025025 
L 140.43159 -62.291077 
L 127.171571 -62.041339 
L 113.911552 -59.35847 
L 100.651534 -67.720229 
L 87.391515 -68.629885 
L 74.131496 -55.257427 
z
" style="stroke: #1f77b4; stroke-opacity: 0.2"/>
    </defs>
    <g clip-path="url(#p02634fced9)">
     <use xlink:href="#m8ef623b72b" x="0" y="360" style="fill: #1f77b4; fill-opacity: 0.2; stroke: #1f77b4; stroke-opacity: 0.2"/>
    </g>
   </g>
   <g id="PolyCollection_2">
    <defs>
     <path id="m9f0f197614" d="M 74.131496 -90.992495 
L 74.131496 -88.188276 
L 87.391515 -88.560199 
L 100.651534 -88.165002 
L 113.911552 -90.750859 
L 127.171571 -89.340474 
L 140.43159 -84.497593 
L 153.691609 -89.570709 
L 166.951628 -93.010513 
L 180.211647 -86.644757 
L 193.471666 -84.35913 
L 206.731685 -80.332445 
L 219.991703 -79.109084 
L 233.251722 -76.786836 
L 246.511741 -73.757761 
L 259.77176 -73.72509 
L 273.031779 -74.902135 
L 286.291798 -72.635316 
L 299.551817 -69.478583 
L 312.811836 -69.543462 
L 326.071855 -69.376436 
L 339.331873 -64.880318 
L 352.591892 -63.307166 
L 365.851911 -54.78 
L 365.851911 -54.78 
L 365.851911 -54.78 
L 352.591892 -65.941642 
L 339.331873 -66.95909 
L 326.071855 -72.478252 
L 312.811836 -73.532521 
L 299.551817 -71.972759 
L 286.291798 -81.010488 
L 273.031779 -79.387702 
L 259.77176 -76.92113 
L 246.511741 -77.268405 
L 233.251722 -80.102349 
L 219.991703 -81.689036 
L 206.731685 -83.571004 
L 193.471666 -92.681385 
L 180.211647 -98.713718 
L 166.951628 -104.926168 
L 153.691609 -97.665106 
L 140.43159 -89.842954 
L 127.171571 -102.994249 
L 113.911552 -94.953153 
L 100.651534 -91.844704 
L 87.391515 -90.931715 
L 74.131496 -90.992495 
z
" style="stroke: #ff7f0e; stroke-opacity: 0.2"/>
    </defs>
    <g clip-path="url(#p02634fced9)">
     <use xlink:href="#m9f0f197614" x="0" y="360" style="fill: #ff7f0e; fill-opacity: 0.2; stroke: #ff7f0e; stroke-opacity: 0.2"/>
    </g>
   </g>
   <g id="PolyCollection_3">
    <defs>
     <path id="m110e4d9618" d="M 74.131496 -56.951982 
L 74.131496 -56.020801 
L 87.391515 -61.618885 
L 100.651534 -61.106749 
L 113.911552 -56.904286 
L 127.171571 -58.403492 
L 140.43159 -58.702341 
L 153.691609 -55.7815 
L 166.951628 -56.681919 
L 180.211647 -56.472743 
L 193.471666 -56.494903 
L 206.731685 -55.40332 
L 219.991703 -56.592932 
L 233.251722 -55.724697 
L 246.511741 -55.71741 
L 259.77176 -55.282022 
L 273.031779 -55.226013 
L 286.291798 -55.23722 
L 299.551817 -55.212537 
L 312.811836 -55.113749 
L 326.071855 -55.124649 
L 339.331873 -55.077394 
L 352.591892 -55.112847 
L 365.851911 -54.78 
L 365.851911 -54.78 
L 365.851911 -54.78 
L 352.591892 -55.216757 
L 339.331873 -55.185163 
L 326.071855 -55.254477 
L 312.811836 -55.271059 
L 299.551817 -55.470504 
L 286.291798 -55.561669 
L 273.031779 -55.59247 
L 259.77176 -55.578573 
L 246.511741 -56.727518 
L 233.251722 -56.758675 
L 219.991703 -56.915596 
L 206.731685 -56.031506 
L 193.471666 -58.000713 
L 180.211647 -58.115701 
L 166.951628 -57.971095 
L 153.691609 -56.803383 
L 140.43159 -60.660514 
L 127.171571 -60.197771 
L 113.911552 -58.164333 
L 100.651534 -62.599785 
L 87.391515 -62.699845 
L 74.131496 -56.951982 
z
" style="stroke: #2ca02c; stroke-opacity: 0.2"/>
    </defs>
    <g clip-path="url(#p02634fced9)">
     <use xlink:href="#m110e4d9618" x="0" y="360" style="fill: #2ca02c; fill-opacity: 0.2; stroke: #2ca02c; stroke-opacity: 0.2"/>
    </g>
   </g>
   <g id="PolyCollection_4">
    <defs>
     <path id="m76ba87b991" d="M 74.131496 -93.349045 
L 74.131496 -90.17196 
L 87.391515 -108.612087 
L 100.651534 -107.890847 
L 113.911552 -98.320998 
L 127.171571 -101.23374 
L 140.43159 -96.573717 
L 153.691609 -94.255756 
L 166.951628 -100.340597 
L 180.211647 -94.416396 
L 193.471666 -91.628287 
L 206.731685 -84.178579 
L 219.991703 -85.005947 
L 233.251722 -81.838076 
L 246.511741 -79.87747 
L 259.77176 -78.092202 
L 273.031779 -80.099699 
L 286.291798 -79.108228 
L 299.551817 -76.717819 
L 312.811836 -76.050666 
L 326.071855 -75.934198 
L 339.331873 -116.142669 
L 352.591892 -121.900868 
L 365.851911 -114.744024 
L 365.851911 -114.802458 
L 365.851911 -114.802458 
L 352.591892 -124.609304 
L 339.331873 -118.269705 
L 326.071855 -79.13352 
L 312.811836 -80.158734 
L 299.551817 -79.244457 
L 286.291798 -87.260593 
L 273.031779 -85.160871 
L 259.77176 -81.386991 
L 246.511741 -83.657724 
L 233.251722 -85.503396 
L 219.991703 -88.072237 
L 206.731685 -87.62802 
L 193.471666 -100.114855 
L 180.211647 -107.487528 
L 166.951628 -112.838916 
L 153.691609 -103.258313 
L 140.43159 -103.07395 
L 127.171571 -114.149978 
L 113.911552 -103.715354 
L 100.651534 -112.234728 
L 87.391515 -111.597869 
L 74.131496 -93.349045 
z
" style="stroke: #d62728; stroke-opacity: 0.2"/>
    </defs>
    <g clip-path="url(#p02634fced9)">
     <use xlink:href="#m76ba87b991" x="0" y="360" style="fill: #d62728; fill-opacity: 0.2; stroke: #d62728; stroke-opacity: 0.2"/>
    </g>
   </g>
   <g id="line2d_14">
    <path d="M 74.131496 304.75541 
L 87.391515 292.756479 
L 100.651534 292.391033 
L 113.911552 300.892191 
L 127.171571 298.257511 
L 140.43159 297.785519 
L 153.691609 302.125885 
L 166.951628 300.621253 
L 180.211647 300.453442 
L 193.471666 300.259251 
L 206.731685 302.41475 
L 219.991703 301.631767 
L 233.251722 301.482405 
L 246.511741 300.811017 
L 259.77176 301.839661 
L 273.031779 300.815524 
L 286.291798 299.801144 
L 299.551817 298.802861 
L 312.811836 299.060349 
L 326.071855 299.060956 
L 339.331873 254.325613 
L 352.591892 246.998077 
L 365.851911 245.221764 
" clip-path="url(#p02634fced9)" style="fill: none; stroke: #1f77b4; stroke-width: 1.5; stroke-linecap: round"/>
   </g>
   <g id="line2d_15">
    <path d="M 74.131496 270.57034 
L 87.391515 270.526919 
L 100.651534 270.844329 
L 113.911552 267.881537 
L 127.171571 267.955845 
L 140.43159 273.248058 
L 153.691609 267.727585 
L 166.951628 262.258306 
L 180.211647 268.766118 
L 193.471666 272.858493 
L 206.731685 277.760729 
L 219.991703 279.534404 
L 233.251722 281.709496 
L 246.511741 285.081906 
L 259.77176 284.865512 
L 273.031779 283.038589 
L 286.291798 284.790615 
L 299.551817 289.224586 
L 312.811836 289.129374 
L 326.071855 289.486156 
L 339.331873 293.814549 
L 352.591892 295.175523 
L 365.851911 305.22 
" clip-path="url(#p02634fced9)" style="fill: none; stroke: #ff7f0e; stroke-width: 1.5; stroke-linecap: round"/>
   </g>
   <g id="line2d_16">
    <path d="M 74.131496 303.644991 
L 87.391515 297.76439 
L 100.651534 298.322715 
L 113.911552 302.019749 
L 127.171571 300.811812 
L 140.43159 300.412348 
L 153.691609 303.656667 
L 166.951628 302.867631 
L 180.211647 302.833651 
L 193.471666 303.009781 
L 206.731685 304.11014 
L 219.991703 303.215033 
L 233.251722 303.765398 
L 246.511741 303.429813 
L 259.77176 304.462605 
L 273.031779 304.664527 
L 286.291798 304.678914 
L 299.551817 304.730916 
L 312.811836 304.838566 
L 326.071855 304.82344 
L 339.331873 304.871217 
L 352.591892 304.847938 
L 365.851911 305.22 
" clip-path="url(#p02634fced9)" style="fill: none; stroke: #2ca02c; stroke-width: 1.5; stroke-linecap: round"/>
   </g>
   <g id="line2d_17">
    <path d="M 74.131496 268.326792 
L 87.391515 250.006363 
L 100.651534 250.704915 
L 113.911552 260.143273 
L 127.171571 255.32402 
L 140.43159 260.298754 
L 153.691609 262.593579 
L 166.951628 255.274054 
L 180.211647 261.10687 
L 193.471666 265.637272 
L 206.731685 273.68426 
L 219.991703 273.447295 
L 233.251722 276.443343 
L 246.511741 278.703646 
L 259.77176 280.724982 
L 273.031779 277.637209 
L 286.291798 278.707658 
L 299.551817 282.070508 
L 312.811836 282.520947 
L 326.071855 282.825216 
L 339.331873 242.569645 
L 352.591892 236.629772 
L 365.851911 245.221764 
" clip-path="url(#p02634fced9)" style="fill: none; stroke: #d62728; stroke-width: 1.5; stroke-linecap: round"/>
   </g>
   <g id="line2d_18"/>
   <g id="line2d_19"/>
   <g id="line2d_20"/>
   <g id="line2d_21"/>
   <g id="patch_3">
    <path d="M 59.545475 318.04 
L 59.545475 36 
" style="fill: none; stroke: #cccccc; stroke-width: 0.8; stroke-linejoin: miter; stroke-linecap: square"/>
   </g>
   <g id="patch_4">
    <path d="M 59.545475 318.04 
L 380.437932 318.04 
" style="fill: none; stroke: #cccccc; stroke-width: 0.8; stroke-linejoin: miter; stroke-linecap: square"/>
   </g>
   <g id="text_16">
    <!-- client_pu = TPU -->
    <g style="fill: #262626" transform="translate(184.367485 30) scale(0.1 -0.1)">
     <defs>
      <path id="ArialMT-69" d="M 425 3934 
L 425 4581 
L 988 4581 
L 988 3934 
L 425 3934 
z
M 425 0 
L 425 3319 
L 988 3319 
L 988 0 
L 425 0 
z
" transform="scale(0.015625)"/>
      <path id="ArialMT-6e" d="M 422 0 
L 422 3319 
L 928 3319 
L 928 2847 
Q 1294 3394 1984 3394 
Q 2284 3394 2536 3286 
Q 2788 3178 2913 3003 
Q 3038 2828 3088 2588 
Q 3119 2431 3119 2041 
L 3119 0 
L 2556 0 
L 2556 2019 
Q 2556 2363 2490 2533 
Q 2425 2703 2258 2804 
Q 2091 2906 1866 2906 
Q 1506 2906 1245 2678 
Q 984 2450 984 1813 
L 984 0 
L 422 0 
z
" transform="scale(0.015625)"/>
      <path id="ArialMT-5f" d="M -97 -1272 
L -97 -866 
L 3631 -866 
L 3631 -1272 
L -97 -1272 
z
" transform="scale(0.015625)"/>
      <path id="ArialMT-70" d="M 422 -1272 
L 422 3319 
L 934 3319 
L 934 2888 
Q 1116 3141 1344 3267 
Q 1572 3394 1897 3394 
Q 2322 3394 2647 3175 
Q 2972 2956 3137 2557 
Q 3303 2159 3303 1684 
Q 3303 1175 3120 767 
Q 2938 359 2589 142 
Q 2241 -75 1856 -75 
Q 1575 -75 1351 44 
Q 1128 163 984 344 
L 984 -1272 
L 422 -1272 
z
M 931 1641 
Q 931 1000 1190 694 
Q 1450 388 1819 388 
Q 2194 388 2461 705 
Q 2728 1022 2728 1688 
Q 2728 2322 2467 2637 
Q 2206 2953 1844 2953 
Q 1484 2953 1207 2617 
Q 931 2281 931 1641 
z
" transform="scale(0.015625)"/>
      <path id="ArialMT-3d" d="M 3381 2694 
L 356 2694 
L 356 3219 
L 3381 3219 
L 3381 2694 
z
M 3381 1303 
L 356 1303 
L 356 1828 
L 3381 1828 
L 3381 1303 
z
" transform="scale(0.015625)"/>
      <path id="ArialMT-54" d="M 1659 0 
L 1659 4041 
L 150 4041 
L 150 4581 
L 3781 4581 
L 3781 4041 
L 2266 4041 
L 2266 0 
L 1659 0 
z
" transform="scale(0.015625)"/>
      <path id="ArialMT-50" d="M 494 0 
L 494 4581 
L 2222 4581 
Q 2678 4581 2919 4538 
Q 3256 4481 3484 4323 
Q 3713 4166 3852 3881 
Q 3991 3597 3991 3256 
Q 3991 2672 3619 2267 
Q 3247 1863 2275 1863 
L 1100 1863 
L 1100 0 
L 494 0 
z
M 1100 2403 
L 2284 2403 
Q 2872 2403 3119 2622 
Q 3366 2841 3366 3238 
Q 3366 3525 3220 3729 
Q 3075 3934 2838 4000 
Q 2684 4041 2272 4041 
L 1100 4041 
L 1100 2403 
z
" transform="scale(0.015625)"/>
      <path id="ArialMT-55" d="M 3500 4581 
L 4106 4581 
L 4106 1934 
Q 4106 1244 3950 837 
Q 3794 431 3386 176 
Q 2978 -78 2316 -78 
Q 1672 -78 1262 144 
Q 853 366 678 786 
Q 503 1206 503 1934 
L 503 4581 
L 1109 4581 
L 1109 1938 
Q 1109 1341 1220 1058 
Q 1331 775 1601 622 
Q 1872 469 2263 469 
Q 2931 469 3215 772 
Q 3500 1075 3500 1938 
L 3500 4581 
z
" transform="scale(0.015625)"/>
     </defs>
     <use xlink:href="#ArialMT-63"/>
     <use xlink:href="#ArialMT-6c" x="50"/>
     <use xlink:href="#ArialMT-69" x="72.216797"/>
     <use xlink:href="#ArialMT-65" x="94.433594"/>
     <use xlink:href="#ArialMT-6e" x="150.048828"/>
     <use xlink:href="#ArialMT-74" x="205.664062"/>
     <use xlink:href="#ArialMT-5f" x="233.447266"/>
     <use xlink:href="#ArialMT-70" x="289.0625"/>
     <use xlink:href="#ArialMT-75" x="344.677734"/>
     <use xlink:href="#ArialMT-20" x="400.292969"/>
     <use xlink:href="#ArialMT-3d" x="428.076172"/>
     <use xlink:href="#ArialMT-20" x="486.474609"/>
     <use xlink:href="#ArialMT-54" x="512.507812"/>
     <use xlink:href="#ArialMT-50" x="573.591797"/>
     <use xlink:href="#ArialMT-55" x="640.291016"/>
    </g>
   </g>
  </g>
  <g id="axes_2">
   <g id="patch_5">
    <path d="M 391.197443 318.04 
L 712.0899 318.04 
L 712.0899 36 
L 391.197443 36 
z
" style="fill: #ffffff"/>
   </g>
   <g id="matplotlib.axis_3">
    <g id="xtick_6">
     <g id="line2d_22">
      <path d="M 405.783464 318.04 
L 405.783464 36 
" clip-path="url(#p94737ec68a)" style="fill: none; stroke: #cccccc; stroke-width: 0.8; stroke-linecap: round"/>
     </g>
     <g id="text_17">
      <!-- 0 -->
      <g style="fill: #262626" transform="translate(403.002995 332.197812) scale(0.1 -0.1)">
       <use xlink:href="#ArialMT-30"/>
      </g>
     </g>
    </g>
    <g id="xtick_7">
     <g id="line2d_23">
      <path d="M 472.083558 318.04 
L 472.083558 36 
" clip-path="url(#p94737ec68a)" style="fill: none; stroke: #cccccc; stroke-width: 0.8; stroke-linecap: round"/>
     </g>
     <g id="text_18">
      <!-- 5 -->
      <g style="fill: #262626" transform="translate(469.303089 332.197812) scale(0.1 -0.1)">
       <use xlink:href="#ArialMT-35"/>
      </g>
     </g>
    </g>
    <g id="xtick_8">
     <g id="line2d_24">
      <path d="M 538.383653 318.04 
L 538.383653 36 
" clip-path="url(#p94737ec68a)" style="fill: none; stroke: #cccccc; stroke-width: 0.8; stroke-linecap: round"/>
     </g>
     <g id="text_19">
      <!-- 10 -->
      <g style="fill: #262626" transform="translate(532.822715 332.197812) scale(0.1 -0.1)">
       <use xlink:href="#ArialMT-31"/>
       <use xlink:href="#ArialMT-30" x="55.615234"/>
      </g>
     </g>
    </g>
    <g id="xtick_9">
     <g id="line2d_25">
      <path d="M 604.683747 318.04 
L 604.683747 36 
" clip-path="url(#p94737ec68a)" style="fill: none; stroke: #cccccc; stroke-width: 0.8; stroke-linecap: round"/>
     </g>
     <g id="text_20">
      <!-- 15 -->
      <g style="fill: #262626" transform="translate(599.12281 332.197812) scale(0.1 -0.1)">
       <use xlink:href="#ArialMT-31"/>
       <use xlink:href="#ArialMT-35" x="55.615234"/>
      </g>
     </g>
    </g>
    <g id="xtick_10">
     <g id="line2d_26">
      <path d="M 670.983841 318.04 
L 670.983841 36 
" clip-path="url(#p94737ec68a)" style="fill: none; stroke: #cccccc; stroke-width: 0.8; stroke-linecap: round"/>
     </g>
     <g id="text_21">
      <!-- 20 -->
      <g style="fill: #262626" transform="translate(665.422904 332.197812) scale(0.1 -0.1)">
       <use xlink:href="#ArialMT-32"/>
       <use xlink:href="#ArialMT-30" x="55.615234"/>
      </g>
     </g>
    </g>
    <g id="text_22">
     <!-- offload to cloud before layer -->
     <g style="fill: #262626" transform="translate(490.029609 345.465) scale(0.1 -0.1)">
      <use xlink:href="#ArialMT-6f"/>
      <use xlink:href="#ArialMT-66" x="55.615234"/>
      <use xlink:href="#ArialMT-66" x="81.648438"/>
      <use xlink:href="#ArialMT-6c" x="109.431641"/>
      <use xlink:href="#ArialMT-6f" x="131.648438"/>
      <use xlink:href="#ArialMT-61" x="187.263672"/>
      <use xlink:href="#ArialMT-64" x="242.878906"/>
      <use xlink:href="#ArialMT-20" x="298.494141"/>
      <use xlink:href="#ArialMT-74" x="326.277344"/>
      <use xlink:href="#ArialMT-6f" x="354.060547"/>
      <use xlink:href="#ArialMT-20" x="409.675781"/>
      <use xlink:href="#ArialMT-63" x="437.458984"/>
      <use xlink:href="#ArialMT-6c" x="487.458984"/>
      <use xlink:href="#ArialMT-6f" x="509.675781"/>
      <use xlink:href="#ArialMT-75" x="565.291016"/>
      <use xlink:href="#ArialMT-64" x="620.90625"/>
      <use xlink:href="#ArialMT-20" x="676.521484"/>
      <use xlink:href="#ArialMT-62" x="704.304688"/>
      <use xlink:href="#ArialMT-65" x="759.919922"/>
      <use xlink:href="#ArialMT-66" x="815.535156"/>
      <use xlink:href="#ArialMT-6f" x="843.318359"/>
      <use xlink:href="#ArialMT-72" x="898.933594"/>
      <use xlink:href="#ArialMT-65" x="932.234375"/>
      <use xlink:href="#ArialMT-20" x="987.849609"/>
      <use xlink:href="#ArialMT-6c" x="1015.632812"/>
      <use xlink:href="#ArialMT-61" x="1037.849609"/>
      <use xlink:href="#ArialMT-79" x="1093.464844"/>
      <use xlink:href="#ArialMT-65" x="1143.464844"/>
      <use xlink:href="#ArialMT-72" x="1199.080078"/>
     </g>
    </g>
   </g>
   <g id="matplotlib.axis_4">
    <g id="ytick_9">
     <g id="line2d_27">
      <path d="M 391.197443 305.22 
L 712.0899 305.22 
" clip-path="url(#p94737ec68a)" style="fill: none; stroke: #cccccc; stroke-width: 0.8; stroke-linecap: round"/>
     </g>
    </g>
    <g id="ytick_10">
     <g id="line2d_28">
      <path d="M 391.197443 269.693204 
L 712.0899 269.693204 
" clip-path="url(#p94737ec68a)" style="fill: none; stroke: #cccccc; stroke-width: 0.8; stroke-linecap: round"/>
     </g>
    </g>
    <g id="ytick_11">
     <g id="line2d_29">
      <path d="M 391.197443 234.166409 
L 712.0899 234.166409 
" clip-path="url(#p94737ec68a)" style="fill: none; stroke: #cccccc; stroke-width: 0.8; stroke-linecap: round"/>
     </g>
    </g>
    <g id="ytick_12">
     <g id="line2d_30">
      <path d="M 391.197443 198.639613 
L 712.0899 198.639613 
" clip-path="url(#p94737ec68a)" style="fill: none; stroke: #cccccc; stroke-width: 0.8; stroke-linecap: round"/>
     </g>
    </g>
    <g id="ytick_13">
     <g id="line2d_31">
      <path d="M 391.197443 163.112818 
L 712.0899 163.112818 
" clip-path="url(#p94737ec68a)" style="fill: none; stroke: #cccccc; stroke-width: 0.8; stroke-linecap: round"/>
     </g>
    </g>
    <g id="ytick_14">
     <g id="line2d_32">
      <path d="M 391.197443 127.586022 
L 712.0899 127.586022 
" clip-path="url(#p94737ec68a)" style="fill: none; stroke: #cccccc; stroke-width: 0.8; stroke-linecap: round"/>
     </g>
    </g>
    <g id="ytick_15">
     <g id="line2d_33">
      <path d="M 391.197443 92.059226 
L 712.0899 92.059226 
" clip-path="url(#p94737ec68a)" style="fill: none; stroke: #cccccc; stroke-width: 0.8; stroke-linecap: round"/>
     </g>
    </g>
    <g id="ytick_16">
     <g id="line2d_34">
      <path d="M 391.197443 56.532431 
L 712.0899 56.532431 
" clip-path="url(#p94737ec68a)" style="fill: none; stroke: #cccccc; stroke-width: 0.8; stroke-linecap: round"/>
     </g>
    </g>
   </g>
   <g id="PolyCollection_5">
    <defs>
     <path id="m4ca442406a" d="M 405.783464 -55.279313 
L 405.783464 -55.243425 
L 419.043483 -62.636482 
L 432.303502 -94.874981 
L 445.56352 -94.725835 
L 458.823539 -111.690786 
L 472.083558 -140.25929 
L 485.343577 -140.978467 
L 498.603596 -153.856517 
L 511.863615 -180.786932 
L 525.123634 -208.158909 
L 538.383653 -207.189022 
L 551.643672 -219.710455 
L 564.90369 -246.663171 
L 578.163709 -272.20354 
L 591.423728 -272.540195 
L 604.683747 -278.492003 
L 617.943766 -286.037621 
L 631.203785 -291.980834 
L 644.463804 -292.730514 
L 657.723823 -291.208858 
L 670.983841 -298.725782 
L 684.24386 -298.607833 
L 697.503879 -299.461523 
L 697.503879 -299.653887 
L 697.503879 -299.653887 
L 684.24386 -298.741666 
L 670.983841 -299.185775 
L 657.723823 -291.571629 
L 644.463804 -293.434979 
L 631.203785 -292.327969 
L 617.943766 -286.564772 
L 604.683747 -278.709141 
L 591.423728 -272.693043 
L 578.163709 -272.373206 
L 564.90369 -246.887993 
L 551.643672 -219.819448 
L 538.383653 -207.360423 
L 525.123634 -208.369815 
L 511.863615 -180.924583 
L 498.603596 -153.957451 
L 485.343577 -141.088639 
L 472.083558 -140.427742 
L 458.823539 -111.779625 
L 445.56352 -95.437131 
L 432.303502 -94.975661 
L 419.043483 -62.734048 
L 405.783464 -55.279313 
z
" style="stroke: #1f77b4; stroke-opacity: 0.2"/>
    </defs>
    <g clip-path="url(#p94737ec68a)">
     <use xlink:href="#m4ca442406a" x="0" y="360" style="fill: #1f77b4; fill-opacity: 0.2; stroke: #1f77b4; stroke-opacity: 0.2"/>
    </g>
   </g>
   <g id="PolyCollection_6">
    <defs>
     <path id="mbaa40fe6cc" d="M 405.783464 -94.400342 
L 405.783464 -89.45621 
L 419.043483 -88.219195 
L 432.303502 -85.140578 
L 445.56352 -88.921318 
L 458.823539 -83.736871 
L 472.083558 -84.713347 
L 485.343577 -81.468891 
L 498.603596 -82.332316 
L 511.863615 -80.046284 
L 525.123634 -76.304531 
L 538.383653 -76.982947 
L 551.643672 -74.453489 
L 564.90369 -72.165613 
L 578.163709 -70.892663 
L 591.423728 -70.305792 
L 604.683747 -69.223767 
L 617.943766 -69.341016 
L 631.203785 -67.767175 
L 644.463804 -67.537409 
L 657.723823 -67.589652 
L 670.983841 -64.123085 
L 684.24386 -63.32633 
L 697.503879 -54.78 
L 697.503879 -54.78 
L 697.503879 -54.78 
L 684.24386 -66.014933 
L 670.983841 -66.518028 
L 657.723823 -69.961818 
L 644.463804 -69.934033 
L 631.203785 -70.034023 
L 617.943766 -72.625415 
L 604.683747 -71.957653 
L 591.423728 -72.608479 
L 578.163709 -74.079719 
L 564.90369 -75.131422 
L 551.643672 -77.77939 
L 538.383653 -82.822909 
L 525.123634 -80.965906 
L 511.863615 -87.63696 
L 498.603596 -90.117463 
L 485.343577 -86.566577 
L 472.083558 -92.51906 
L 458.823539 -90.087865 
L 445.56352 -99.357531 
L 432.303502 -89.985623 
L 419.043483 -92.981466 
L 405.783464 -94.400342 
z
" style="stroke: #ff7f0e; stroke-opacity: 0.2"/>
    </defs>
    <g clip-path="url(#p94737ec68a)">
     <use xlink:href="#mbaa40fe6cc" x="0" y="360" style="fill: #ff7f0e; fill-opacity: 0.2; stroke: #ff7f0e; stroke-opacity: 0.2"/>
    </g>
   </g>
   <g id="PolyCollection_7">
    <defs>
     <path id="mf35bd92e12" d="M 405.783464 -56.703197 
L 405.783464 -56.020054 
L 419.043483 -62.161237 
L 432.303502 -60.905587 
L 445.56352 -56.292355 
L 458.823539 -57.733606 
L 472.083558 -57.841783 
L 485.343577 -55.663374 
L 498.603596 -56.263988 
L 511.863615 -56.267027 
L 525.123634 -56.292714 
L 538.383653 -55.399794 
L 551.643672 -55.720605 
L 564.90369 -55.72476 
L 578.163709 -55.697502 
L 591.423728 -55.231476 
L 604.683747 -55.242501 
L 617.943766 -55.234792 
L 631.203785 -55.22222 
L 644.463804 -55.092993 
L 657.723823 -55.094238 
L 670.983841 -55.060878 
L 684.24386 -55.069622 
L 697.503879 -54.78 
L 697.503879 -54.78 
L 697.503879 -54.78 
L 684.24386 -55.220538 
L 670.983841 -55.212544 
L 657.723823 -55.267009 
L 644.463804 -55.24809 
L 631.203785 -55.51073 
L 617.943766 -55.556745 
L 604.683747 -55.54187 
L 591.423728 -55.518365 
L 578.163709 -56.490403 
L 564.90369 -56.60643 
L 551.643672 -56.431261 
L 538.383653 -55.82053 
L 525.123634 -57.81389 
L 511.863615 -57.452175 
L 498.603596 -57.577788 
L 485.343577 -56.273469 
L 472.083558 -59.087273 
L 458.823539 -59.502786 
L 445.56352 -57.685822 
L 432.303502 -63.76819 
L 419.043483 -65.159106 
L 405.783464 -56.703197 
z
" style="stroke: #2ca02c; stroke-opacity: 0.2"/>
    </defs>
    <g clip-path="url(#p94737ec68a)">
     <use xlink:href="#mf35bd92e12" x="0" y="360" style="fill: #2ca02c; fill-opacity: 0.2; stroke: #2ca02c; stroke-opacity: 0.2"/>
    </g>
   </g>
   <g id="PolyCollection_8">
    <defs>
     <path id="m78982ca675" d="M 405.783464 -96.393664 
L 405.783464 -91.64382 
L 419.043483 -105.286128 
L 432.303502 -133.096472 
L 445.56352 -131.710284 
L 458.823539 -144.630563 
L 472.083558 -174.098974 
L 485.343577 -168.749965 
L 498.603596 -183.26595 
L 511.863615 -208.212153 
L 525.123634 -231.779673 
L 538.383653 -230.337914 
L 551.643672 -240.526903 
L 564.90369 -265.374644 
L 578.163709 -289.738618 
L 591.423728 -288.719172 
L 604.683747 -293.844657 
L 617.943766 -301.369398 
L 631.203785 -305.525672 
L 644.463804 -306.303009 
L 657.723823 -304.666861 
L 670.983841 -308.498853 
L 684.24386 -307.697653 
L 697.503879 -299.461523 
L 697.503879 -299.653887 
L 697.503879 -299.653887 
L 684.24386 -310.454458 
L 670.983841 -311.18 
L 657.723823 -307.389156 
L 644.463804 -308.772741 
L 631.203785 -308.20323 
L 617.943766 -305.43189 
L 604.683747 -296.385748 
L 591.423728 -291.261518 
L 578.163709 -292.919362 
L 564.90369 -268.80218 
L 551.643672 -244.389003 
L 538.383653 -236.184833 
L 525.123634 -236.636474 
L 511.863615 -215.397257 
L 498.603596 -190.863725 
L 485.343577 -174.064881 
L 472.083558 -182.247745 
L 458.823539 -151.941788 
L 445.56352 -142.25865 
L 432.303502 -138.235273 
L 419.043483 -109.623792 
L 405.783464 -96.393664 
z
" style="stroke: #d62728; stroke-opacity: 0.2"/>
    </defs>
    <g clip-path="url(#p94737ec68a)">
     <use xlink:href="#m78982ca675" x="0" y="360" style="fill: #d62728; fill-opacity: 0.2; stroke: #d62728; stroke-opacity: 0.2"/>
    </g>
   </g>
   <g id="line2d_35">
    <path d="M 405.783464 304.739042 
L 419.043483 297.313237 
L 432.303502 265.074305 
L 445.56352 265.209151 
L 458.823539 248.269856 
L 472.083558 219.652806 
L 485.343577 218.97419 
L 498.603596 206.091745 
L 511.863615 179.147229 
L 525.123634 151.752067 
L 538.383653 152.745722 
L 551.643672 140.237741 
L 564.90369 113.259893 
L 578.163709 87.713438 
L 591.423728 87.395828 
L 604.683747 81.429393 
L 617.943766 73.831086 
L 631.203785 67.911826 
L 644.463804 66.934286 
L 657.723823 68.562654 
L 670.983841 60.986463 
L 684.24386 61.30045 
L 697.503879 60.485384 
" clip-path="url(#p94737ec68a)" style="fill: none; stroke: #1f77b4; stroke-width: 1.5; stroke-linecap: round"/>
   </g>
   <g id="line2d_36">
    <path d="M 405.783464 268.125762 
L 419.043483 270.427721 
L 432.303502 272.888996 
L 445.56352 267.296581 
L 458.823539 274.141756 
L 472.083558 271.841439 
L 485.343577 276.698371 
L 498.603596 275.292178 
L 511.863615 277.220707 
L 525.123634 282.420857 
L 538.383653 281.555417 
L 551.643672 283.848309 
L 564.90369 285.953883 
L 578.163709 287.995728 
L 591.423728 288.22548 
L 604.683747 289.27303 
L 617.943766 289.575029 
L 631.203785 291.068015 
L 644.463804 291.488993 
L 657.723823 291.255085 
L 670.983841 294.845835 
L 684.24386 295.632639 
L 697.503879 305.22 
" clip-path="url(#p94737ec68a)" style="fill: none; stroke: #ff7f0e; stroke-width: 1.5; stroke-linecap: round"/>
   </g>
   <g id="line2d_37">
    <path d="M 405.783464 303.891563 
L 419.043483 296.442121 
L 432.303502 297.396976 
L 445.56352 303.519041 
L 458.823539 301.835283 
L 472.083558 301.934246 
L 485.343577 304.229991 
L 498.603596 303.567195 
L 511.863615 303.226711 
L 525.123634 303.579337 
L 538.383653 304.47872 
L 551.643672 303.939188 
L 564.90369 303.963672 
L 578.163709 304.178361 
L 591.423728 304.67452 
L 604.683747 304.633617 
L 617.943766 304.652871 
L 631.203785 304.653199 
L 644.463804 304.844281 
L 657.723823 304.853717 
L 670.983841 304.870287 
L 684.24386 304.863184 
L 697.503879 305.22 
" clip-path="url(#p94737ec68a)" style="fill: none; stroke: #2ca02c; stroke-width: 1.5; stroke-linecap: round"/>
   </g>
   <g id="line2d_38">
    <path d="M 405.783464 265.981381 
L 419.043483 253.187724 
L 432.303502 225.111296 
L 445.56352 224.354461 
L 458.823539 213.622235 
L 472.083558 182.042691 
L 485.343577 188.914208 
L 498.603596 174.247939 
L 511.863615 148.883544 
L 525.123634 126.126493 
L 538.383653 128.036939 
L 551.643672 117.176449 
L 564.90369 92.640732 
L 578.163709 68.89797 
L 591.423728 69.865896 
L 604.683747 64.848121 
L 617.943766 57.126997 
L 631.203785 52.892871 
L 644.463804 52.502162 
L 657.723823 54.351484 
L 670.983841 50.152912 
L 684.24386 51.087104 
L 697.503879 60.485384 
" clip-path="url(#p94737ec68a)" style="fill: none; stroke: #d62728; stroke-width: 1.5; stroke-linecap: round"/>
   </g>
   <g id="patch_6">
    <path d="M 391.197443 318.04 
L 391.197443 36 
" style="fill: none; stroke: #cccccc; stroke-width: 0.8; stroke-linejoin: miter; stroke-linecap: square"/>
   </g>
   <g id="patch_7">
    <path d="M 391.197443 318.04 
L 712.0899 318.04 
" style="fill: none; stroke: #cccccc; stroke-width: 0.8; stroke-linejoin: miter; stroke-linecap: square"/>
   </g>
   <g id="text_23">
    <!-- client_pu = CPU -->
    <g style="fill: #262626" transform="translate(515.374922 30) scale(0.1 -0.1)">
     <defs>
      <path id="ArialMT-43" d="M 3763 1606 
L 4369 1453 
Q 4178 706 3683 314 
Q 3188 -78 2472 -78 
Q 1731 -78 1267 223 
Q 803 525 561 1097 
Q 319 1669 319 2325 
Q 319 3041 592 3573 
Q 866 4106 1370 4382 
Q 1875 4659 2481 4659 
Q 3169 4659 3637 4309 
Q 4106 3959 4291 3325 
L 3694 3184 
Q 3534 3684 3231 3912 
Q 2928 4141 2469 4141 
Q 1941 4141 1586 3887 
Q 1231 3634 1087 3207 
Q 944 2781 944 2328 
Q 944 1744 1114 1308 
Q 1284 872 1643 656 
Q 2003 441 2422 441 
Q 2931 441 3284 734 
Q 3638 1028 3763 1606 
z
" transform="scale(0.015625)"/>
     </defs>
     <use xlink:href="#ArialMT-63"/>
     <use xlink:href="#ArialMT-6c" x="50"/>
     <use xlink:href="#ArialMT-69" x="72.216797"/>
     <use xlink:href="#ArialMT-65" x="94.433594"/>
     <use xlink:href="#ArialMT-6e" x="150.048828"/>
     <use xlink:href="#ArialMT-74" x="205.664062"/>
     <use xlink:href="#ArialMT-5f" x="233.447266"/>
     <use xlink:href="#ArialMT-70" x="289.0625"/>
     <use xlink:href="#ArialMT-75" x="344.677734"/>
     <use xlink:href="#ArialMT-20" x="400.292969"/>
     <use xlink:href="#ArialMT-3d" x="428.076172"/>
     <use xlink:href="#ArialMT-20" x="486.474609"/>
     <use xlink:href="#ArialMT-43" x="514.257812"/>
     <use xlink:href="#ArialMT-50" x="586.474609"/>
     <use xlink:href="#ArialMT-55" x="653.173828"/>
    </g>
   </g>
  </g>
  <g id="text_24">
   <!-- VGG16 latency -->
   <g style="fill: #262626" transform="translate(354.819375 15.935625) scale(0.12 -0.12)">
    <defs>
     <path id="ArialMT-56" d="M 1803 0 
L 28 4581 
L 684 4581 
L 1875 1253 
Q 2019 853 2116 503 
Q 2222 878 2363 1253 
L 3600 4581 
L 4219 4581 
L 2425 0 
L 1803 0 
z
" transform="scale(0.015625)"/>
     <path id="ArialMT-47" d="M 2638 1797 
L 2638 2334 
L 4578 2338 
L 4578 638 
Q 4131 281 3656 101 
Q 3181 -78 2681 -78 
Q 2006 -78 1454 211 
Q 903 500 622 1047 
Q 341 1594 341 2269 
Q 341 2938 620 3517 
Q 900 4097 1425 4378 
Q 1950 4659 2634 4659 
Q 3131 4659 3532 4498 
Q 3934 4338 4162 4050 
Q 4391 3763 4509 3300 
L 3963 3150 
Q 3859 3500 3706 3700 
Q 3553 3900 3268 4020 
Q 2984 4141 2638 4141 
Q 2222 4141 1919 4014 
Q 1616 3888 1430 3681 
Q 1244 3475 1141 3228 
Q 966 2803 966 2306 
Q 966 1694 1177 1281 
Q 1388 869 1791 669 
Q 2194 469 2647 469 
Q 3041 469 3416 620 
Q 3791 772 3984 944 
L 3984 1797 
L 2638 1797 
z
" transform="scale(0.015625)"/>
     <path id="ArialMT-36" d="M 3184 3459 
L 2625 3416 
Q 2550 3747 2413 3897 
Q 2184 4138 1850 4138 
Q 1581 4138 1378 3988 
Q 1113 3794 959 3422 
Q 806 3050 800 2363 
Q 1003 2672 1297 2822 
Q 1591 2972 1913 2972 
Q 2475 2972 2870 2558 
Q 3266 2144 3266 1488 
Q 3266 1056 3080 686 
Q 2894 316 2569 119 
Q 2244 -78 1831 -78 
Q 1128 -78 684 439 
Q 241 956 241 2144 
Q 241 3472 731 4075 
Q 1159 4600 1884 4600 
Q 2425 4600 2770 4297 
Q 3116 3994 3184 3459 
z
M 888 1484 
Q 888 1194 1011 928 
Q 1134 663 1356 523 
Q 1578 384 1822 384 
Q 2178 384 2434 671 
Q 2691 959 2691 1453 
Q 2691 1928 2437 2201 
Q 2184 2475 1800 2475 
Q 1419 2475 1153 2201 
Q 888 1928 888 1484 
z
" transform="scale(0.015625)"/>
    </defs>
    <use xlink:href="#ArialMT-56"/>
    <use xlink:href="#ArialMT-47" x="66.699219"/>
    <use xlink:href="#ArialMT-47" x="144.482422"/>
    <use xlink:href="#ArialMT-31" x="222.265625"/>
    <use xlink:href="#ArialMT-36" x="277.880859"/>
    <use xlink:href="#ArialMT-20" x="333.496094"/>
    <use xlink:href="#ArialMT-6c" x="361.279297"/>
    <use xlink:href="#ArialMT-61" x="383.496094"/>
    <use xlink:href="#ArialMT-74" x="439.111328"/>
    <use xlink:href="#ArialMT-65" x="466.894531"/>
    <use xlink:href="#ArialMT-6e" x="522.509766"/>
    <use xlink:href="#ArialMT-63" x="578.125"/>
    <use xlink:href="#ArialMT-79" x="628.125"/>
   </g>
  </g>
  <g id="legend_1">
   <g id="text_25">
    <!-- variable -->
    <g style="fill: #262626" transform="translate(732.995156 154.294531) scale(0.1 -0.1)">
     <defs>
      <path id="ArialMT-76" d="M 1344 0 
L 81 3319 
L 675 3319 
L 1388 1331 
Q 1503 1009 1600 663 
Q 1675 925 1809 1294 
L 2547 3319 
L 3125 3319 
L 1869 0 
L 1344 0 
z
" transform="scale(0.015625)"/>
     </defs>
     <use xlink:href="#ArialMT-76"/>
     <use xlink:href="#ArialMT-61" x="50"/>
     <use xlink:href="#ArialMT-72" x="105.615234"/>
     <use xlink:href="#ArialMT-69" x="138.916016"/>
     <use xlink:href="#ArialMT-61" x="161.132812"/>
     <use xlink:href="#ArialMT-62" x="216.748047"/>
     <use xlink:href="#ArialMT-6c" x="272.363281"/>
     <use xlink:href="#ArialMT-65" x="294.580078"/>
    </g>
   </g>
   <g id="line2d_39">
    <path d="M 718.9975 164.939844 
L 728.9975 164.939844 
L 738.9975 164.939844 
" style="fill: none; stroke: #1f77b4; stroke-width: 1.5; stroke-linecap: round"/>
   </g>
   <g id="text_26">
    <!-- client -->
    <g style="fill: #262626" transform="translate(746.9975 168.439844) scale(0.1 -0.1)">
     <use xlink:href="#ArialMT-63"/>
     <use xlink:href="#ArialMT-6c" x="50"/>
     <use xlink:href="#ArialMT-69" x="72.216797"/>
     <use xlink:href="#ArialMT-65" x="94.433594"/>
     <use xlink:href="#ArialMT-6e" x="150.048828"/>
     <use xlink:href="#ArialMT-74" x="205.664062"/>
    </g>
   </g>
   <g id="line2d_40">
    <path d="M 718.9975 179.085156 
L 728.9975 179.085156 
L 738.9975 179.085156 
" style="fill: none; stroke: #ff7f0e; stroke-width: 1.5; stroke-linecap: round"/>
   </g>
   <g id="text_27">
    <!-- server -->
    <g style="fill: #262626" transform="translate(746.9975 182.585156) scale(0.1 -0.1)">
     <use xlink:href="#ArialMT-73"/>
     <use xlink:href="#ArialMT-65" x="50"/>
     <use xlink:href="#ArialMT-72" x="105.615234"/>
     <use xlink:href="#ArialMT-76" x="138.916016"/>
     <use xlink:href="#ArialMT-65" x="188.916016"/>
     <use xlink:href="#ArialMT-72" x="244.53125"/>
    </g>
   </g>
   <g id="line2d_41">
    <path d="M 718.9975 193.230469 
L 728.9975 193.230469 
L 738.9975 193.230469 
" style="fill: none; stroke: #2ca02c; stroke-width: 1.5; stroke-linecap: round"/>
   </g>
   <g id="text_28">
    <!-- network -->
    <g style="fill: #262626" transform="translate(746.9975 196.730469) scale(0.1 -0.1)">
     <defs>
      <path id="ArialMT-77" d="M 1034 0 
L 19 3319 
L 600 3319 
L 1128 1403 
L 1325 691 
Q 1338 744 1497 1375 
L 2025 3319 
L 2603 3319 
L 3100 1394 
L 3266 759 
L 3456 1400 
L 4025 3319 
L 4572 3319 
L 3534 0 
L 2950 0 
L 2422 1988 
L 2294 2553 
L 1622 0 
L 1034 0 
z
" transform="scale(0.015625)"/>
      <path id="ArialMT-6b" d="M 425 0 
L 425 4581 
L 988 4581 
L 988 1969 
L 2319 3319 
L 3047 3319 
L 1778 2088 
L 3175 0 
L 2481 0 
L 1384 1697 
L 988 1316 
L 988 0 
L 425 0 
z
" transform="scale(0.015625)"/>
     </defs>
     <use xlink:href="#ArialMT-6e"/>
     <use xlink:href="#ArialMT-65" x="55.615234"/>
     <use xlink:href="#ArialMT-74" x="111.230469"/>
     <use xlink:href="#ArialMT-77" x="139.013672"/>
     <use xlink:href="#ArialMT-6f" x="211.230469"/>
     <use xlink:href="#ArialMT-72" x="266.845703"/>
     <use xlink:href="#ArialMT-6b" x="300.146484"/>
    </g>
   </g>
   <g id="line2d_42">
    <path d="M 718.9975 207.375781 
L 728.9975 207.375781 
L 738.9975 207.375781 
" style="fill: none; stroke: #d62728; stroke-width: 1.5; stroke-linecap: round"/>
   </g>
   <g id="text_29">
    <!-- total -->
    <g style="fill: #262626" transform="translate(746.9975 210.875781) scale(0.1 -0.1)">
     <use xlink:href="#ArialMT-74"/>
     <use xlink:href="#ArialMT-6f" x="27.783203"/>
     <use xlink:href="#ArialMT-74" x="83.398438"/>
     <use xlink:href="#ArialMT-61" x="111.181641"/>
     <use xlink:href="#ArialMT-6c" x="166.796875"/>
    </g>
   </g>
  </g>
 </g>
 <defs>
  <clipPath id="p02634fced9">
   <rect x="59.545475" y="36" width="320.892457" height="282.04"/>
  </clipPath>
  <clipPath id="p94737ec68a">
   <rect x="391.197443" y="36" width="320.892457" height="282.04"/>
  </clipPath>
 </defs>
</svg>
