<?xml version="1.0" encoding="utf-8" standalone="no"?>
<!DOCTYPE svg PUBLIC "-//W3C//DTD SVG 1.1//EN"
  "http://www.w3.org/Graphics/SVG/1.1/DTD/svg11.dtd">
<svg xmlns:xlink="http://www.w3.org/1999/xlink" width="791.01pt" height="360pt" viewBox="0 0 791.01 360" xmlns="http://www.w3.org/2000/svg" version="1.1">
 <metadata>
  <rdf:RDF xmlns:dc="http://purl.org/dc/elements/1.1/" xmlns:cc="http://creativecommons.org/ns#" xmlns:rdf="http://www.w3.org/1999/02/22-rdf-syntax-ns#">
   <cc:Work>
    <dc:type rdf:resource="http://purl.org/dc/dcmitype/StillImage"/>
    <dc:date>2023-11-16T16:31:00.986032</dc:date>
    <dc:format>image/svg+xml</dc:format>
    <dc:creator>
     <cc:Agent>
      <dc:title>Matplotlib v3.8.1, https://matplotlib.org/</dc:title>
     </cc:Agent>
    </dc:creator>
   </cc:Work>
  </rdf:RDF>
 </metadata>
 <defs>
  <style type="text/css">*{stroke-linejoin: round; stroke-linecap: butt}</style>
 </defs>
 <g id="figure_1">
  <g id="patch_1">
   <path d="M 0 360 
L 791.01 360 
L 791.01 0 
L 0 0 
z
" style="fill: #ffffff"/>
  </g>
  <g id="axes_1">
   <g id="patch_2">
    <path d="M 59.545475 318.04 
L 380.437932 318.04 
L 380.437932 36 
L 59.545475 36 
z
" style="fill: #ffffff"/>
   </g>
   <g id="matplotlib.axis_1">
    <g id="xtick_1">
     <g id="line2d_1">
      <path d="M 74.131496 318.04 
L 74.131496 36 
" clip-path="url(#p2b4ca814b0)" style="fill: none; stroke: #cccccc; stroke-width: 0.8; stroke-linecap: round"/>
     </g>
     <g id="text_1">
      <!-- 0 -->
      <g style="fill: #262626" transform="translate(71.351027 332.197812) scale(0.1 -0.1)">
       <defs>
        <path id="ArialMT-30" d="M 266 2259 
Q 266 3072 433 3567 
Q 600 4063 929 4331 
Q 1259 4600 1759 4600 
Q 2128 4600 2406 4451 
Q 2684 4303 2865 4023 
Q 3047 3744 3150 3342 
Q 3253 2941 3253 2259 
Q 3253 1453 3087 958 
Q 2922 463 2592 192 
Q 2263 -78 1759 -78 
Q 1097 -78 719 397 
Q 266 969 266 2259 
z
M 844 2259 
Q 844 1131 1108 757 
Q 1372 384 1759 384 
Q 2147 384 2411 759 
Q 2675 1134 2675 2259 
Q 2675 3391 2411 3762 
Q 2147 4134 1753 4134 
Q 1366 4134 1134 3806 
Q 844 3388 844 2259 
z
" transform="scale(0.015625)"/>
       </defs>
       <use xlink:href="#ArialMT-30"/>
      </g>
     </g>
    </g>
    <g id="xtick_2">
     <g id="line2d_2">
      <path d="M 140.43159 318.04 
L 140.43159 36 
" clip-path="url(#p2b4ca814b0)" style="fill: none; stroke: #cccccc; stroke-width: 0.8; stroke-linecap: round"/>
     </g>
     <g id="text_2">
      <!-- 5 -->
      <g style="fill: #262626" transform="translate(137.651121 332.197812) scale(0.1 -0.1)">
       <defs>
        <path id="ArialMT-35" d="M 266 1200 
L 856 1250 
Q 922 819 1161 601 
Q 1400 384 1738 384 
Q 2144 384 2425 690 
Q 2706 997 2706 1503 
Q 2706 1984 2436 2262 
Q 2166 2541 1728 2541 
Q 1456 2541 1237 2417 
Q 1019 2294 894 2097 
L 366 2166 
L 809 4519 
L 3088 4519 
L 3088 3981 
L 1259 3981 
L 1013 2750 
Q 1425 3038 1878 3038 
Q 2478 3038 2890 2622 
Q 3303 2206 3303 1553 
Q 3303 931 2941 478 
Q 2500 -78 1738 -78 
Q 1113 -78 717 272 
Q 322 622 266 1200 
z
" transform="scale(0.015625)"/>
       </defs>
       <use xlink:href="#ArialMT-35"/>
      </g>
     </g>
    </g>
    <g id="xtick_3">
     <g id="line2d_3">
      <path d="M 206.731685 318.04 
L 206.731685 36 
" clip-path="url(#p2b4ca814b0)" style="fill: none; stroke: #cccccc; stroke-width: 0.8; stroke-linecap: round"/>
     </g>
     <g id="text_3">
      <!-- 10 -->
      <g style="fill: #262626" transform="translate(201.170747 332.197812) scale(0.1 -0.1)">
       <defs>
        <path id="ArialMT-31" d="M 2384 0 
L 1822 0 
L 1822 3584 
Q 1619 3391 1289 3197 
Q 959 3003 697 2906 
L 697 3450 
Q 1169 3672 1522 3987 
Q 1875 4303 2022 4600 
L 2384 4600 
L 2384 0 
z
" transform="scale(0.015625)"/>
       </defs>
       <use xlink:href="#ArialMT-31"/>
       <use xlink:href="#ArialMT-30" x="55.615234"/>
      </g>
     </g>
    </g>
    <g id="xtick_4">
     <g id="line2d_4">
      <path d="M 273.031779 318.04 
L 273.031779 36 
" clip-path="url(#p2b4ca814b0)" style="fill: none; stroke: #cccccc; stroke-width: 0.8; stroke-linecap: round"/>
     </g>
     <g id="text_4">
      <!-- 15 -->
      <g style="fill: #262626" transform="translate(267.470841 332.197812) scale(0.1 -0.1)">
       <use xlink:href="#ArialMT-31"/>
       <use xlink:href="#ArialMT-35" x="55.615234"/>
      </g>
     </g>
    </g>
    <g id="xtick_5">
     <g id="line2d_5">
      <path d="M 339.331873 318.04 
L 339.331873 36 
" clip-path="url(#p2b4ca814b0)" style="fill: none; stroke: #cccccc; stroke-width: 0.8; stroke-linecap: round"/>
     </g>
     <g id="text_5">
      <!-- 20 -->
      <g style="fill: #262626" transform="translate(333.770936 332.197812) scale(0.1 -0.1)">
       <defs>
        <path id="ArialMT-32" d="M 3222 541 
L 3222 0 
L 194 0 
Q 188 203 259 391 
Q 375 700 629 1000 
Q 884 1300 1366 1694 
Q 2113 2306 2375 2664 
Q 2638 3022 2638 3341 
Q 2638 3675 2398 3904 
Q 2159 4134 1775 4134 
Q 1369 4134 1125 3890 
Q 881 3647 878 3216 
L 300 3275 
Q 359 3922 746 4261 
Q 1134 4600 1788 4600 
Q 2447 4600 2831 4234 
Q 3216 3869 3216 3328 
Q 3216 3053 3103 2787 
Q 2991 2522 2730 2228 
Q 2469 1934 1863 1422 
Q 1356 997 1212 845 
Q 1069 694 975 541 
L 3222 541 
z
" transform="scale(0.015625)"/>
       </defs>
       <use xlink:href="#ArialMT-32"/>
       <use xlink:href="#ArialMT-30" x="55.615234"/>
      </g>
     </g>
    </g>
    <g id="text_6">
     <!-- offload to cloud before layer -->
     <g style="fill: #262626" transform="translate(158.377641 345.465) scale(0.1 -0.1)">
      <defs>
       <path id="ArialMT-6f" d="M 213 1659 
Q 213 2581 725 3025 
Q 1153 3394 1769 3394 
Q 2453 3394 2887 2945 
Q 3322 2497 3322 1706 
Q 3322 1066 3130 698 
Q 2938 331 2570 128 
Q 2203 -75 1769 -75 
Q 1072 -75 642 372 
Q 213 819 213 1659 
z
M 791 1659 
Q 791 1022 1069 705 
Q 1347 388 1769 388 
Q 2188 388 2466 706 
Q 2744 1025 2744 1678 
Q 2744 2294 2464 2611 
Q 2184 2928 1769 2928 
Q 1347 2928 1069 2612 
Q 791 2297 791 1659 
z
" transform="scale(0.015625)"/>
       <path id="ArialMT-66" d="M 556 0 
L 556 2881 
L 59 2881 
L 59 3319 
L 556 3319 
L 556 3672 
Q 556 4006 616 4169 
Q 697 4388 901 4523 
Q 1106 4659 1475 4659 
Q 1713 4659 2000 4603 
L 1916 4113 
Q 1741 4144 1584 4144 
Q 1328 4144 1222 4034 
Q 1116 3925 1116 3625 
L 1116 3319 
L 1763 3319 
L 1763 2881 
L 1116 2881 
L 1116 0 
L 556 0 
z
" transform="scale(0.015625)"/>
       <path id="ArialMT-6c" d="M 409 0 
L 409 4581 
L 972 4581 
L 972 0 
L 409 0 
z
" transform="scale(0.015625)"/>
       <path id="ArialMT-61" d="M 2588 409 
Q 2275 144 1986 34 
Q 1697 -75 1366 -75 
Q 819 -75 525 192 
Q 231 459 231 875 
Q 231 1119 342 1320 
Q 453 1522 633 1644 
Q 813 1766 1038 1828 
Q 1203 1872 1538 1913 
Q 2219 1994 2541 2106 
Q 2544 2222 2544 2253 
Q 2544 2597 2384 2738 
Q 2169 2928 1744 2928 
Q 1347 2928 1158 2789 
Q 969 2650 878 2297 
L 328 2372 
Q 403 2725 575 2942 
Q 747 3159 1072 3276 
Q 1397 3394 1825 3394 
Q 2250 3394 2515 3294 
Q 2781 3194 2906 3042 
Q 3031 2891 3081 2659 
Q 3109 2516 3109 2141 
L 3109 1391 
Q 3109 606 3145 398 
Q 3181 191 3288 0 
L 2700 0 
Q 2613 175 2588 409 
z
M 2541 1666 
Q 2234 1541 1622 1453 
Q 1275 1403 1131 1340 
Q 988 1278 909 1158 
Q 831 1038 831 891 
Q 831 666 1001 516 
Q 1172 366 1500 366 
Q 1825 366 2078 508 
Q 2331 650 2450 897 
Q 2541 1088 2541 1459 
L 2541 1666 
z
" transform="scale(0.015625)"/>
       <path id="ArialMT-64" d="M 2575 0 
L 2575 419 
Q 2259 -75 1647 -75 
Q 1250 -75 917 144 
Q 584 363 401 755 
Q 219 1147 219 1656 
Q 219 2153 384 2558 
Q 550 2963 881 3178 
Q 1213 3394 1622 3394 
Q 1922 3394 2156 3267 
Q 2391 3141 2538 2938 
L 2538 4581 
L 3097 4581 
L 3097 0 
L 2575 0 
z
M 797 1656 
Q 797 1019 1065 703 
Q 1334 388 1700 388 
Q 2069 388 2326 689 
Q 2584 991 2584 1609 
Q 2584 2291 2321 2609 
Q 2059 2928 1675 2928 
Q 1300 2928 1048 2622 
Q 797 2316 797 1656 
z
" transform="scale(0.015625)"/>
       <path id="ArialMT-20" transform="scale(0.015625)"/>
       <path id="ArialMT-74" d="M 1650 503 
L 1731 6 
Q 1494 -44 1306 -44 
Q 1000 -44 831 53 
Q 663 150 594 308 
Q 525 466 525 972 
L 525 2881 
L 113 2881 
L 113 3319 
L 525 3319 
L 525 4141 
L 1084 4478 
L 1084 3319 
L 1650 3319 
L 1650 2881 
L 1084 2881 
L 1084 941 
Q 1084 700 1114 631 
Q 1144 563 1211 522 
Q 1278 481 1403 481 
Q 1497 481 1650 503 
z
" transform="scale(0.015625)"/>
       <path id="ArialMT-63" d="M 2588 1216 
L 3141 1144 
Q 3050 572 2676 248 
Q 2303 -75 1759 -75 
Q 1078 -75 664 370 
Q 250 816 250 1647 
Q 250 2184 428 2587 
Q 606 2991 970 3192 
Q 1334 3394 1763 3394 
Q 2303 3394 2647 3120 
Q 2991 2847 3088 2344 
L 2541 2259 
Q 2463 2594 2264 2762 
Q 2066 2931 1784 2931 
Q 1359 2931 1093 2626 
Q 828 2322 828 1663 
Q 828 994 1084 691 
Q 1341 388 1753 388 
Q 2084 388 2306 591 
Q 2528 794 2588 1216 
z
" transform="scale(0.015625)"/>
       <path id="ArialMT-75" d="M 2597 0 
L 2597 488 
Q 2209 -75 1544 -75 
Q 1250 -75 995 37 
Q 741 150 617 320 
Q 494 491 444 738 
Q 409 903 409 1263 
L 409 3319 
L 972 3319 
L 972 1478 
Q 972 1038 1006 884 
Q 1059 663 1231 536 
Q 1403 409 1656 409 
Q 1909 409 2131 539 
Q 2353 669 2445 892 
Q 2538 1116 2538 1541 
L 2538 3319 
L 3100 3319 
L 3100 0 
L 2597 0 
z
" transform="scale(0.015625)"/>
       <path id="ArialMT-62" d="M 941 0 
L 419 0 
L 419 4581 
L 981 4581 
L 981 2947 
Q 1338 3394 1891 3394 
Q 2197 3394 2470 3270 
Q 2744 3147 2920 2923 
Q 3097 2700 3197 2384 
Q 3297 2069 3297 1709 
Q 3297 856 2875 390 
Q 2453 -75 1863 -75 
Q 1275 -75 941 416 
L 941 0 
z
M 934 1684 
Q 934 1088 1097 822 
Q 1363 388 1816 388 
Q 2184 388 2453 708 
Q 2722 1028 2722 1663 
Q 2722 2313 2464 2622 
Q 2206 2931 1841 2931 
Q 1472 2931 1203 2611 
Q 934 2291 934 1684 
z
" transform="scale(0.015625)"/>
       <path id="ArialMT-65" d="M 2694 1069 
L 3275 997 
Q 3138 488 2766 206 
Q 2394 -75 1816 -75 
Q 1088 -75 661 373 
Q 234 822 234 1631 
Q 234 2469 665 2931 
Q 1097 3394 1784 3394 
Q 2450 3394 2872 2941 
Q 3294 2488 3294 1666 
Q 3294 1616 3291 1516 
L 816 1516 
Q 847 969 1125 678 
Q 1403 388 1819 388 
Q 2128 388 2347 550 
Q 2566 713 2694 1069 
z
M 847 1978 
L 2700 1978 
Q 2663 2397 2488 2606 
Q 2219 2931 1791 2931 
Q 1403 2931 1139 2672 
Q 875 2413 847 1978 
z
" transform="scale(0.015625)"/>
       <path id="ArialMT-72" d="M 416 0 
L 416 3319 
L 922 3319 
L 922 2816 
Q 1116 3169 1280 3281 
Q 1444 3394 1641 3394 
Q 1925 3394 2219 3213 
L 2025 2691 
Q 1819 2813 1613 2813 
Q 1428 2813 1281 2702 
Q 1134 2591 1072 2394 
Q 978 2094 978 1738 
L 978 0 
L 416 0 
z
" transform="scale(0.015625)"/>
       <path id="ArialMT-79" d="M 397 -1278 
L 334 -750 
Q 519 -800 656 -800 
Q 844 -800 956 -737 
Q 1069 -675 1141 -563 
Q 1194 -478 1313 -144 
Q 1328 -97 1363 -6 
L 103 3319 
L 709 3319 
L 1400 1397 
Q 1534 1031 1641 628 
Q 1738 1016 1872 1384 
L 2581 3319 
L 3144 3319 
L 1881 -56 
Q 1678 -603 1566 -809 
Q 1416 -1088 1222 -1217 
Q 1028 -1347 759 -1347 
Q 597 -1347 397 -1278 
z
" transform="scale(0.015625)"/>
      </defs>
      <use xlink:href="#ArialMT-6f"/>
      <use xlink:href="#ArialMT-66" x="55.615234"/>
      <use xlink:href="#ArialMT-66" x="81.648438"/>
      <use xlink:href="#ArialMT-6c" x="109.431641"/>
      <use xlink:href="#ArialMT-6f" x="131.648438"/>
      <use xlink:href="#ArialMT-61" x="187.263672"/>
      <use xlink:href="#ArialMT-64" x="242.878906"/>
      <use xlink:href="#ArialMT-20" x="298.494141"/>
      <use xlink:href="#ArialMT-74" x="326.277344"/>
      <use xlink:href="#ArialMT-6f" x="354.060547"/>
      <use xlink:href="#ArialMT-20" x="409.675781"/>
      <use xlink:href="#ArialMT-63" x="437.458984"/>
      <use xlink:href="#ArialMT-6c" x="487.458984"/>
      <use xlink:href="#ArialMT-6f" x="509.675781"/>
      <use xlink:href="#ArialMT-75" x="565.291016"/>
      <use xlink:href="#ArialMT-64" x="620.90625"/>
      <use xlink:href="#ArialMT-20" x="676.521484"/>
      <use xlink:href="#ArialMT-62" x="704.304688"/>
      <use xlink:href="#ArialMT-65" x="759.919922"/>
      <use xlink:href="#ArialMT-66" x="815.535156"/>
      <use xlink:href="#ArialMT-6f" x="843.318359"/>
      <use xlink:href="#ArialMT-72" x="898.933594"/>
      <use xlink:href="#ArialMT-65" x="932.234375"/>
      <use xlink:href="#ArialMT-20" x="987.849609"/>
      <use xlink:href="#ArialMT-6c" x="1015.632812"/>
      <use xlink:href="#ArialMT-61" x="1037.849609"/>
      <use xlink:href="#ArialMT-79" x="1093.464844"/>
      <use xlink:href="#ArialMT-65" x="1143.464844"/>
      <use xlink:href="#ArialMT-72" x="1199.080078"/>
     </g>
    </g>
   </g>
   <g id="matplotlib.axis_2">
    <g id="ytick_1">
     <g id="line2d_6">
      <path d="M 59.545475 305.22 
L 380.437932 305.22 
" clip-path="url(#p2b4ca814b0)" style="fill: none; stroke: #cccccc; stroke-width: 0.8; stroke-linecap: round"/>
     </g>
     <g id="text_7">
      <!-- 0 -->
      <g style="fill: #262626" transform="translate(46.984537 308.798906) scale(0.1 -0.1)">
       <use xlink:href="#ArialMT-30"/>
      </g>
     </g>
    </g>
    <g id="ytick_2">
     <g id="line2d_7">
      <path d="M 59.545475 271.248437 
L 380.437932 271.248437 
" clip-path="url(#p2b4ca814b0)" style="fill: none; stroke: #cccccc; stroke-width: 0.8; stroke-linecap: round"/>
     </g>
     <g id="text_8">
      <!-- 250 -->
      <g style="fill: #262626" transform="translate(35.862662 274.827344) scale(0.1 -0.1)">
       <use xlink:href="#ArialMT-32"/>
       <use xlink:href="#ArialMT-35" x="55.615234"/>
       <use xlink:href="#ArialMT-30" x="111.230469"/>
      </g>
     </g>
    </g>
    <g id="ytick_3">
     <g id="line2d_8">
      <path d="M 59.545475 237.276875 
L 380.437932 237.276875 
" clip-path="url(#p2b4ca814b0)" style="fill: none; stroke: #cccccc; stroke-width: 0.8; stroke-linecap: round"/>
     </g>
     <g id="text_9">
      <!-- 500 -->
      <g style="fill: #262626" transform="translate(35.862662 240.855781) scale(0.1 -0.1)">
       <use xlink:href="#ArialMT-35"/>
       <use xlink:href="#ArialMT-30" x="55.615234"/>
       <use xlink:href="#ArialMT-30" x="111.230469"/>
      </g>
     </g>
    </g>
    <g id="ytick_4">
     <g id="line2d_9">
      <path d="M 59.545475 203.305312 
L 380.437932 203.305312 
" clip-path="url(#p2b4ca814b0)" style="fill: none; stroke: #cccccc; stroke-width: 0.8; stroke-linecap: round"/>
     </g>
     <g id="text_10">
      <!-- 750 -->
      <g style="fill: #262626" transform="translate(35.862662 206.884218) scale(0.1 -0.1)">
       <defs>
        <path id="ArialMT-37" d="M 303 3981 
L 303 4522 
L 3269 4522 
L 3269 4084 
Q 2831 3619 2401 2847 
Q 1972 2075 1738 1259 
Q 1569 684 1522 0 
L 944 0 
Q 953 541 1156 1306 
Q 1359 2072 1739 2783 
Q 2119 3494 2547 3981 
L 303 3981 
z
" transform="scale(0.015625)"/>
       </defs>
       <use xlink:href="#ArialMT-37"/>
       <use xlink:href="#ArialMT-35" x="55.615234"/>
       <use xlink:href="#ArialMT-30" x="111.230469"/>
      </g>
     </g>
    </g>
    <g id="ytick_5">
     <g id="line2d_10">
      <path d="M 59.545475 169.333749 
L 380.437932 169.333749 
" clip-path="url(#p2b4ca814b0)" style="fill: none; stroke: #cccccc; stroke-width: 0.8; stroke-linecap: round"/>
     </g>
     <g id="text_11">
      <!-- 1000 -->
      <g style="fill: #262626" transform="translate(30.301725 172.912655) scale(0.1 -0.1)">
       <use xlink:href="#ArialMT-31"/>
       <use xlink:href="#ArialMT-30" x="55.615234"/>
       <use xlink:href="#ArialMT-30" x="111.230469"/>
       <use xlink:href="#ArialMT-30" x="166.845703"/>
      </g>
     </g>
    </g>
    <g id="ytick_6">
     <g id="line2d_11">
      <path d="M 59.545475 135.362186 
L 380.437932 135.362186 
" clip-path="url(#p2b4ca814b0)" style="fill: none; stroke: #cccccc; stroke-width: 0.8; stroke-linecap: round"/>
     </g>
     <g id="text_12">
      <!-- 1250 -->
      <g style="fill: #262626" transform="translate(30.301725 138.941093) scale(0.1 -0.1)">
       <use xlink:href="#ArialMT-31"/>
       <use xlink:href="#ArialMT-32" x="55.615234"/>
       <use xlink:href="#ArialMT-35" x="111.230469"/>
       <use xlink:href="#ArialMT-30" x="166.845703"/>
      </g>
     </g>
    </g>
    <g id="ytick_7">
     <g id="line2d_12">
      <path d="M 59.545475 101.390624 
L 380.437932 101.390624 
" clip-path="url(#p2b4ca814b0)" style="fill: none; stroke: #cccccc; stroke-width: 0.8; stroke-linecap: round"/>
     </g>
     <g id="text_13">
      <!-- 1500 -->
      <g style="fill: #262626" transform="translate(30.301725 104.96953) scale(0.1 -0.1)">
       <use xlink:href="#ArialMT-31"/>
       <use xlink:href="#ArialMT-35" x="55.615234"/>
       <use xlink:href="#ArialMT-30" x="111.230469"/>
       <use xlink:href="#ArialMT-30" x="166.845703"/>
      </g>
     </g>
    </g>
    <g id="ytick_8">
     <g id="line2d_13">
      <path d="M 59.545475 67.419061 
L 380.437932 67.419061 
" clip-path="url(#p2b4ca814b0)" style="fill: none; stroke: #cccccc; stroke-width: 0.8; stroke-linecap: round"/>
     </g>
     <g id="text_14">
      <!-- 1750 -->
      <g style="fill: #262626" transform="translate(30.301725 70.997967) scale(0.1 -0.1)">
       <use xlink:href="#ArialMT-31"/>
       <use xlink:href="#ArialMT-37" x="55.615234"/>
       <use xlink:href="#ArialMT-35" x="111.230469"/>
       <use xlink:href="#ArialMT-30" x="166.845703"/>
      </g>
     </g>
    </g>
    <g id="text_15">
     <!-- ms -->
     <g style="fill: #262626" transform="translate(24.314225 183.684844) rotate(-90) scale(0.1 -0.1)">
      <defs>
       <path id="ArialMT-6d" d="M 422 0 
L 422 3319 
L 925 3319 
L 925 2853 
Q 1081 3097 1340 3245 
Q 1600 3394 1931 3394 
Q 2300 3394 2536 3241 
Q 2772 3088 2869 2813 
Q 3263 3394 3894 3394 
Q 4388 3394 4653 3120 
Q 4919 2847 4919 2278 
L 4919 0 
L 4359 0 
L 4359 2091 
Q 4359 2428 4304 2576 
Q 4250 2725 4106 2815 
Q 3963 2906 3769 2906 
Q 3419 2906 3187 2673 
Q 2956 2441 2956 1928 
L 2956 0 
L 2394 0 
L 2394 2156 
Q 2394 2531 2256 2718 
Q 2119 2906 1806 2906 
Q 1569 2906 1367 2781 
Q 1166 2656 1075 2415 
Q 984 2175 984 1722 
L 984 0 
L 422 0 
z
" transform="scale(0.015625)"/>
       <path id="ArialMT-73" d="M 197 991 
L 753 1078 
Q 800 744 1014 566 
Q 1228 388 1613 388 
Q 2000 388 2187 545 
Q 2375 703 2375 916 
Q 2375 1106 2209 1216 
Q 2094 1291 1634 1406 
Q 1016 1563 777 1677 
Q 538 1791 414 1992 
Q 291 2194 291 2438 
Q 291 2659 392 2848 
Q 494 3038 669 3163 
Q 800 3259 1026 3326 
Q 1253 3394 1513 3394 
Q 1903 3394 2198 3281 
Q 2494 3169 2634 2976 
Q 2775 2784 2828 2463 
L 2278 2388 
Q 2241 2644 2061 2787 
Q 1881 2931 1553 2931 
Q 1166 2931 1000 2803 
Q 834 2675 834 2503 
Q 834 2394 903 2306 
Q 972 2216 1119 2156 
Q 1203 2125 1616 2013 
Q 2213 1853 2448 1751 
Q 2684 1650 2818 1456 
Q 2953 1263 2953 975 
Q 2953 694 2789 445 
Q 2625 197 2315 61 
Q 2006 -75 1616 -75 
Q 969 -75 630 194 
Q 291 463 197 991 
z
" transform="scale(0.015625)"/>
      </defs>
      <use xlink:href="#ArialMT-6d"/>
      <use xlink:href="#ArialMT-73" x="83.300781"/>
     </g>
    </g>
   </g>
   <g id="PolyCollection_1">
    <defs>
     <path id="m929735b036" d="M 74.131496 -55.199302 
L 74.131496 -55.183638 
L 87.391515 -80.529114 
L 100.651534 -80.025316 
L 113.911552 -60.883128 
L 127.171571 -65.347826 
L 140.43159 -65.59475 
L 153.691609 -58.901283 
L 166.951628 -61.257579 
L 180.211647 -61.598818 
L 193.471666 -61.843497 
L 206.731685 -59.736132 
L 219.991703 -59.790665 
L 233.251722 -60.075393 
L 246.511741 -60.722568 
L 259.77176 -59.709214 
L 273.031779 -60.539411 
L 286.291798 -61.505123 
L 299.551817 -62.653042 
L 312.811836 -61.661809 
L 326.071855 -61.752571 
L 339.331873 -104.808607 
L 352.591892 -111.855469 
L 365.851911 -113.540313 
L 365.851911 -113.572994 
L 365.851911 -113.572994 
L 352.591892 -111.877081 
L 339.331873 -104.844182 
L 326.071855 -61.997412 
L 312.811836 -61.711242 
L 299.551817 -62.753529 
L 286.291798 -61.615161 
L 273.031779 -60.632906 
L 259.77176 -59.805703 
L 246.511741 -61.136738 
L 233.251722 -60.139431 
L 219.991703 -59.892069 
L 206.731685 -60.310504 
L 193.471666 -62.289539 
L 180.211647 -62.02025 
L 166.951628 -61.657894 
L 153.691609 -59.064871 
L 140.43159 -66.325347 
L 127.171571 -65.872728 
L 113.911552 -61.406675 
L 100.651534 -81.079451 
L 87.391515 -82.738014 
L 74.131496 -55.199302 
z
" style="stroke: #1f77b4; stroke-opacity: 0.2"/>
    </defs>
    <g clip-path="url(#p2b4ca814b0)">
     <use xlink:href="#m929735b036" x="0" y="360" style="fill: #1f77b4; fill-opacity: 0.2; stroke: #1f77b4; stroke-opacity: 0.2"/>
    </g>
   </g>
   <g id="PolyCollection_2">
    <defs>
     <path id="m0aaa6f61eb" d="M 74.131496 -104.661152 
L 74.131496 -103.572499 
L 87.391515 -112.894853 
L 100.651534 -111.119751 
L 113.911552 -101.892925 
L 127.171571 -102.306135 
L 140.43159 -97.636551 
L 153.691609 -93.518554 
L 166.951628 -90.333135 
L 180.211647 -82.871114 
L 193.471666 -76.749505 
L 206.731685 -75.227735 
L 219.991703 -72.772215 
L 233.251722 -66.887059 
L 246.511741 -60.528233 
L 259.77176 -59.963245 
L 273.031779 -58.618868 
L 286.291798 -57.344445 
L 299.551817 -56.110666 
L 312.811836 -56.494613 
L 326.071855 -56.488653 
L 339.331873 -55.489197 
L 352.591892 -55.105604 
L 365.851911 -54.78 
L 365.851911 -54.78 
L 365.851911 -54.78 
L 352.591892 -55.136171 
L 339.331873 -55.614049 
L 326.071855 -56.968788 
L 312.811836 -56.952116 
L 299.551817 -56.363278 
L 286.291798 -57.438268 
L 273.031779 -58.788128 
L 259.77176 -60.041919 
L 246.511741 -60.565941 
L 233.251722 -67.319148 
L 219.991703 -73.133368 
L 206.731685 -75.615602 
L 193.471666 -77.294646 
L 180.211647 -83.471268 
L 166.951628 -91.161777 
L 153.691609 -94.295493 
L 140.43159 -100.87282 
L 127.171571 -104.281534 
L 113.911552 -102.773923 
L 100.651534 -116.839549 
L 87.391515 -114.792613 
L 74.131496 -104.661152 
z
" style="stroke: #ff7f0e; stroke-opacity: 0.2"/>
    </defs>
    <g clip-path="url(#p2b4ca814b0)">
     <use xlink:href="#m0aaa6f61eb" x="0" y="360" style="fill: #ff7f0e; fill-opacity: 0.2; stroke: #ff7f0e; stroke-opacity: 0.2"/>
    </g>
   </g>
   <g id="PolyCollection_3">
    <defs>
     <path id="m48eaee57b4" d="M 74.131496 -56.177929 
L 74.131496 -56.142779 
L 87.391515 -81.8309 
L 100.651534 -83.112126 
L 113.911552 -60.612351 
L 127.171571 -66.424874 
L 140.43159 -66.451579 
L 153.691609 -57.650065 
L 166.951628 -60.569135 
L 180.211647 -60.459748 
L 193.471666 -60.548225 
L 206.731685 -56.306309 
L 219.991703 -57.635394 
L 233.251722 -57.638622 
L 246.511741 -57.627702 
L 259.77176 -55.706202 
L 273.031779 -55.673913 
L 286.291798 -55.667584 
L 299.551817 -55.759943 
L 312.811836 -55.298782 
L 326.071855 -55.305156 
L 339.331873 -55.285711 
L 352.591892 -55.328711 
L 365.851911 -54.78 
L 365.851911 -54.78 
L 365.851911 -54.78 
L 352.591892 -55.343305 
L 339.331873 -55.312943 
L 326.071855 -55.375464 
L 312.811836 -55.358576 
L 299.551817 -55.952355 
L 286.291798 -55.692333 
L 273.031779 -55.695715 
L 259.77176 -55.727427 
L 246.511741 -57.653526 
L 233.251722 -57.662236 
L 219.991703 -57.66871 
L 206.731685 -56.38184 
L 193.471666 -60.650638 
L 180.211647 -60.498604 
L 166.951628 -60.659119 
L 153.691609 -57.682989 
L 140.43159 -66.759535 
L 127.171571 -66.994676 
L 113.911552 -60.733536 
L 100.651534 -83.840116 
L 87.391515 -83.246818 
L 74.131496 -56.177929 
z
" style="stroke: #2ca02c; stroke-opacity: 0.2"/>
    </defs>
    <g clip-path="url(#p2b4ca814b0)">
     <use xlink:href="#m48eaee57b4" x="0" y="360" style="fill: #2ca02c; fill-opacity: 0.2; stroke: #2ca02c; stroke-opacity: 0.2"/>
    </g>
   </g>
   <g id="PolyCollection_4">
    <defs>
     <path id="m9ba78272a2" d="M 74.131496 -106.561006 
L 74.131496 -105.427375 
L 87.391515 -167.538906 
L 100.651534 -165.085099 
L 113.911552 -114.417039 
L 127.171571 -125.86653 
L 140.43159 -120.945373 
L 153.691609 -101.164785 
L 166.951628 -103.350828 
L 180.211647 -95.730106 
L 193.471666 -90.065243 
L 206.731685 -81.892859 
L 219.991703 -80.971182 
L 233.251722 -75.291108 
L 246.511741 -69.609202 
L 259.77176 -65.909979 
L 273.031779 -65.396378 
L 286.291798 -65.099667 
L 299.551817 -65.239706 
L 312.811836 -64.011438 
L 326.071855 -64.164626 
L 339.331873 -105.887756 
L 352.591892 -112.722873 
L 365.851911 -113.541289 
L 365.851911 -113.5735 
L 365.851911 -113.5735 
L 352.591892 -112.786838 
L 339.331873 -106.169103 
L 326.071855 -64.738433 
L 312.811836 -64.410872 
L 299.551817 -65.522367 
L 286.291798 -65.296309 
L 273.031779 -65.746969 
L 259.77176 -66.291258 
L 246.511741 -70.152261 
L 233.251722 -75.945665 
L 219.991703 -81.645287 
L 206.731685 -82.859913 
L 193.471666 -91.102093 
L 180.211647 -96.559288 
L 166.951628 -104.522435 
L 153.691609 -101.903149 
L 140.43159 -127.220768 
L 127.171571 -128.748302 
L 113.911552 -116.299912 
L 100.651534 -174.308559 
L 87.391515 -170.663686 
L 74.131496 -106.561006 
z
" style="stroke: #d62728; stroke-opacity: 0.2"/>
    </defs>
    <g clip-path="url(#p2b4ca814b0)">
     <use xlink:href="#m9ba78272a2" x="0" y="360" style="fill: #d62728; fill-opacity: 0.2; stroke: #d62728; stroke-opacity: 0.2"/>
    </g>
   </g>
   <g id="line2d_14">
    <path d="M 74.131496 304.810225 
L 87.391515 278.45696 
L 100.651534 279.588636 
L 113.911552 298.986617 
L 127.171571 294.394467 
L 140.43159 294.078524 
L 153.691609 301.059783 
L 166.951628 298.611205 
L 180.211647 298.160072 
L 193.471666 297.934608 
L 206.731685 299.983812 
L 219.991703 300.173767 
L 233.251722 299.90149 
L 246.511741 299.096383 
L 259.77176 300.245992 
L 273.031779 299.406164 
L 286.291798 298.433746 
L 299.551817 297.301078 
L 312.811836 298.299424 
L 326.071855 298.079298 
L 339.331873 255.173697 
L 352.591892 248.133968 
L 365.851911 246.440039 
" clip-path="url(#p2b4ca814b0)" style="fill: none; stroke: #1f77b4; stroke-width: 1.5; stroke-linecap: round"/>
   </g>
   <g id="line2d_15">
    <path d="M 74.131496 255.916908 
L 87.391515 246.22724 
L 100.651534 246.787777 
L 113.911552 257.727049 
L 127.171571 256.653738 
L 140.43159 260.896718 
L 153.691609 266.168126 
L 166.951628 269.28361 
L 180.211647 276.853378 
L 193.471666 282.993528 
L 206.731685 284.659344 
L 219.991703 287.070013 
L 233.251722 292.948602 
L 246.511741 299.454401 
L 259.77176 299.999665 
L 273.031779 301.334339 
L 286.291798 302.621889 
L 299.551817 303.758217 
L 312.811836 303.321479 
L 326.071855 303.353996 
L 339.331873 304.417796 
L 352.591892 304.875325 
L 365.851911 305.22 
" clip-path="url(#p2b4ca814b0)" style="fill: none; stroke: #ff7f0e; stroke-width: 1.5; stroke-linecap: round"/>
   </g>
   <g id="line2d_16">
    <path d="M 74.131496 303.844101 
L 87.391515 277.27781 
L 100.651534 276.541456 
L 113.911552 299.351321 
L 127.171571 293.389163 
L 140.43159 293.440497 
L 153.691609 302.337889 
L 166.951628 299.386022 
L 180.211647 299.520048 
L 193.471666 299.402487 
L 206.731685 303.655912 
L 219.991703 302.346736 
L 233.251722 302.346448 
L 246.511741 302.35488 
L 259.77176 304.2869 
L 273.031779 304.316249 
L 286.291798 304.317501 
L 299.551817 304.144548 
L 312.811836 304.679357 
L 326.071855 304.644649 
L 339.331873 304.700541 
L 352.591892 304.665105 
L 365.851911 305.22 
" clip-path="url(#p2b4ca814b0)" style="fill: none; stroke: #2ca02c; stroke-width: 1.5; stroke-linecap: round"/>
   </g>
   <g id="line2d_17">
    <path d="M 74.131496 254.055675 
L 87.391515 191.348828 
L 100.651534 190.357558 
L 113.911552 244.839402 
L 127.171571 232.504152 
L 140.43159 235.806035 
L 153.691609 258.490132 
L 166.951628 256.323272 
L 180.211647 263.827536 
L 193.471666 269.493432 
L 206.731685 277.775207 
L 219.991703 278.720849 
L 233.251722 284.486488 
L 246.511741 290.188409 
L 259.77176 293.881286 
L 273.031779 294.429496 
L 286.291798 294.848551 
L 299.551817 294.600336 
L 312.811836 295.770455 
L 326.071855 295.494002 
L 339.331873 253.900509 
L 352.591892 247.236319 
L 365.851911 246.440039 
" clip-path="url(#p2b4ca814b0)" style="fill: none; stroke: #d62728; stroke-width: 1.5; stroke-linecap: round"/>
   </g>
   <g id="line2d_18"/>
   <g id="line2d_19"/>
   <g id="line2d_20"/>
   <g id="line2d_21"/>
   <g id="patch_3">
    <path d="M 59.545475 318.04 
L 59.545475 36 
" style="fill: none; stroke: #cccccc; stroke-width: 0.8; stroke-linejoin: miter; stroke-linecap: square"/>
   </g>
   <g id="patch_4">
    <path d="M 59.545475 318.04 
L 380.437932 318.04 
" style="fill: none; stroke: #cccccc; stroke-width: 0.8; stroke-linejoin: miter; stroke-linecap: square"/>
   </g>
   <g id="text_16">
    <!-- client_pu = TPU -->
    <g style="fill: #262626" transform="translate(184.367485 30) scale(0.1 -0.1)">
     <defs>
      <path id="ArialMT-69" d="M 425 3934 
L 425 4581 
L 988 4581 
L 988 3934 
L 425 3934 
z
M 425 0 
L 425 3319 
L 988 3319 
L 988 0 
L 425 0 
z
" transform="scale(0.015625)"/>
      <path id="ArialMT-6e" d="M 422 0 
L 422 3319 
L 928 3319 
L 928 2847 
Q 1294 3394 1984 3394 
Q 2284 3394 2536 3286 
Q 2788 3178 2913 3003 
Q 3038 2828 3088 2588 
Q 3119 2431 3119 2041 
L 3119 0 
L 2556 0 
L 2556 2019 
Q 2556 2363 2490 2533 
Q 2425 2703 2258 2804 
Q 2091 2906 1866 2906 
Q 1506 2906 1245 2678 
Q 984 2450 984 1813 
L 984 0 
L 422 0 
z
" transform="scale(0.015625)"/>
      <path id="ArialMT-5f" d="M -97 -1272 
L -97 -866 
L 3631 -866 
L 3631 -1272 
L -97 -1272 
z
" transform="scale(0.015625)"/>
      <path id="ArialMT-70" d="M 422 -1272 
L 422 3319 
L 934 3319 
L 934 2888 
Q 1116 3141 1344 3267 
Q 1572 3394 1897 3394 
Q 2322 3394 2647 3175 
Q 2972 2956 3137 2557 
Q 3303 2159 3303 1684 
Q 3303 1175 3120 767 
Q 2938 359 2589 142 
Q 2241 -75 1856 -75 
Q 1575 -75 1351 44 
Q 1128 163 984 344 
L 984 -1272 
L 422 -1272 
z
M 931 1641 
Q 931 1000 1190 694 
Q 1450 388 1819 388 
Q 2194 388 2461 705 
Q 2728 1022 2728 1688 
Q 2728 2322 2467 2637 
Q 2206 2953 1844 2953 
Q 1484 2953 1207 2617 
Q 931 2281 931 1641 
z
" transform="scale(0.015625)"/>
      <path id="ArialMT-3d" d="M 3381 2694 
L 356 2694 
L 356 3219 
L 3381 3219 
L 3381 2694 
z
M 3381 1303 
L 356 1303 
L 356 1828 
L 3381 1828 
L 3381 1303 
z
" transform="scale(0.015625)"/>
      <path id="ArialMT-54" d="M 1659 0 
L 1659 4041 
L 150 4041 
L 150 4581 
L 3781 4581 
L 3781 4041 
L 2266 4041 
L 2266 0 
L 1659 0 
z
" transform="scale(0.015625)"/>
      <path id="ArialMT-50" d="M 494 0 
L 494 4581 
L 2222 4581 
Q 2678 4581 2919 4538 
Q 3256 4481 3484 4323 
Q 3713 4166 3852 3881 
Q 3991 3597 3991 3256 
Q 3991 2672 3619 2267 
Q 3247 1863 2275 1863 
L 1100 1863 
L 1100 0 
L 494 0 
z
M 1100 2403 
L 2284 2403 
Q 2872 2403 3119 2622 
Q 3366 2841 3366 3238 
Q 3366 3525 3220 3729 
Q 3075 3934 2838 4000 
Q 2684 4041 2272 4041 
L 1100 4041 
L 1100 2403 
z
" transform="scale(0.015625)"/>
      <path id="ArialMT-55" d="M 3500 4581 
L 4106 4581 
L 4106 1934 
Q 4106 1244 3950 837 
Q 3794 431 3386 176 
Q 2978 -78 2316 -78 
Q 1672 -78 1262 144 
Q 853 366 678 786 
Q 503 1206 503 1934 
L 503 4581 
L 1109 4581 
L 1109 1938 
Q 1109 1341 1220 1058 
Q 1331 775 1601 622 
Q 1872 469 2263 469 
Q 2931 469 3215 772 
Q 3500 1075 3500 1938 
L 3500 4581 
z
" transform="scale(0.015625)"/>
     </defs>
     <use xlink:href="#ArialMT-63"/>
     <use xlink:href="#ArialMT-6c" x="50"/>
     <use xlink:href="#ArialMT-69" x="72.216797"/>
     <use xlink:href="#ArialMT-65" x="94.433594"/>
     <use xlink:href="#ArialMT-6e" x="150.048828"/>
     <use xlink:href="#ArialMT-74" x="205.664062"/>
     <use xlink:href="#ArialMT-5f" x="233.447266"/>
     <use xlink:href="#ArialMT-70" x="289.0625"/>
     <use xlink:href="#ArialMT-75" x="344.677734"/>
     <use xlink:href="#ArialMT-20" x="400.292969"/>
     <use xlink:href="#ArialMT-3d" x="428.076172"/>
     <use xlink:href="#ArialMT-20" x="486.474609"/>
     <use xlink:href="#ArialMT-54" x="512.507812"/>
     <use xlink:href="#ArialMT-50" x="573.591797"/>
     <use xlink:href="#ArialMT-55" x="640.291016"/>
    </g>
   </g>
  </g>
  <g id="axes_2">
   <g id="patch_5">
    <path d="M 391.197443 318.04 
L 712.0899 318.04 
L 712.0899 36 
L 391.197443 36 
z
" style="fill: #ffffff"/>
   </g>
   <g id="matplotlib.axis_3">
    <g id="xtick_6">
     <g id="line2d_22">
      <path d="M 405.783464 318.04 
L 405.783464 36 
" clip-path="url(#pd7bb76e061)" style="fill: none; stroke: #cccccc; stroke-width: 0.8; stroke-linecap: round"/>
     </g>
     <g id="text_17">
      <!-- 0 -->
      <g style="fill: #262626" transform="translate(403.002995 332.197812) scale(0.1 -0.1)">
       <use xlink:href="#ArialMT-30"/>
      </g>
     </g>
    </g>
    <g id="xtick_7">
     <g id="line2d_23">
      <path d="M 472.083558 318.04 
L 472.083558 36 
" clip-path="url(#pd7bb76e061)" style="fill: none; stroke: #cccccc; stroke-width: 0.8; stroke-linecap: round"/>
     </g>
     <g id="text_18">
      <!-- 5 -->
      <g style="fill: #262626" transform="translate(469.303089 332.197812) scale(0.1 -0.1)">
       <use xlink:href="#ArialMT-35"/>
      </g>
     </g>
    </g>
    <g id="xtick_8">
     <g id="line2d_24">
      <path d="M 538.383653 318.04 
L 538.383653 36 
" clip-path="url(#pd7bb76e061)" style="fill: none; stroke: #cccccc; stroke-width: 0.8; stroke-linecap: round"/>
     </g>
     <g id="text_19">
      <!-- 10 -->
      <g style="fill: #262626" transform="translate(532.822715 332.197812) scale(0.1 -0.1)">
       <use xlink:href="#ArialMT-31"/>
       <use xlink:href="#ArialMT-30" x="55.615234"/>
      </g>
     </g>
    </g>
    <g id="xtick_9">
     <g id="line2d_25">
      <path d="M 604.683747 318.04 
L 604.683747 36 
" clip-path="url(#pd7bb76e061)" style="fill: none; stroke: #cccccc; stroke-width: 0.8; stroke-linecap: round"/>
     </g>
     <g id="text_20">
      <!-- 15 -->
      <g style="fill: #262626" transform="translate(599.12281 332.197812) scale(0.1 -0.1)">
       <use xlink:href="#ArialMT-31"/>
       <use xlink:href="#ArialMT-35" x="55.615234"/>
      </g>
     </g>
    </g>
    <g id="xtick_10">
     <g id="line2d_26">
      <path d="M 670.983841 318.04 
L 670.983841 36 
" clip-path="url(#pd7bb76e061)" style="fill: none; stroke: #cccccc; stroke-width: 0.8; stroke-linecap: round"/>
     </g>
     <g id="text_21">
      <!-- 20 -->
      <g style="fill: #262626" transform="translate(665.422904 332.197812) scale(0.1 -0.1)">
       <use xlink:href="#ArialMT-32"/>
       <use xlink:href="#ArialMT-30" x="55.615234"/>
      </g>
     </g>
    </g>
    <g id="text_22">
     <!-- offload to cloud before layer -->
     <g style="fill: #262626" transform="translate(490.029609 345.465) scale(0.1 -0.1)">
      <use xlink:href="#ArialMT-6f"/>
      <use xlink:href="#ArialMT-66" x="55.615234"/>
      <use xlink:href="#ArialMT-66" x="81.648438"/>
      <use xlink:href="#ArialMT-6c" x="109.431641"/>
      <use xlink:href="#ArialMT-6f" x="131.648438"/>
      <use xlink:href="#ArialMT-61" x="187.263672"/>
      <use xlink:href="#ArialMT-64" x="242.878906"/>
      <use xlink:href="#ArialMT-20" x="298.494141"/>
      <use xlink:href="#ArialMT-74" x="326.277344"/>
      <use xlink:href="#ArialMT-6f" x="354.060547"/>
      <use xlink:href="#ArialMT-20" x="409.675781"/>
      <use xlink:href="#ArialMT-63" x="437.458984"/>
      <use xlink:href="#ArialMT-6c" x="487.458984"/>
      <use xlink:href="#ArialMT-6f" x="509.675781"/>
      <use xlink:href="#ArialMT-75" x="565.291016"/>
      <use xlink:href="#ArialMT-64" x="620.90625"/>
      <use xlink:href="#ArialMT-20" x="676.521484"/>
      <use xlink:href="#ArialMT-62" x="704.304688"/>
      <use xlink:href="#ArialMT-65" x="759.919922"/>
      <use xlink:href="#ArialMT-66" x="815.535156"/>
      <use xlink:href="#ArialMT-6f" x="843.318359"/>
      <use xlink:href="#ArialMT-72" x="898.933594"/>
      <use xlink:href="#ArialMT-65" x="932.234375"/>
      <use xlink:href="#ArialMT-20" x="987.849609"/>
      <use xlink:href="#ArialMT-6c" x="1015.632812"/>
      <use xlink:href="#ArialMT-61" x="1037.849609"/>
      <use xlink:href="#ArialMT-79" x="1093.464844"/>
      <use xlink:href="#ArialMT-65" x="1143.464844"/>
      <use xlink:href="#ArialMT-72" x="1199.080078"/>
     </g>
    </g>
   </g>
   <g id="matplotlib.axis_4">
    <g id="ytick_9">
     <g id="line2d_27">
      <path d="M 391.197443 305.22 
L 712.0899 305.22 
" clip-path="url(#pd7bb76e061)" style="fill: none; stroke: #cccccc; stroke-width: 0.8; stroke-linecap: round"/>
     </g>
    </g>
    <g id="ytick_10">
     <g id="line2d_28">
      <path d="M 391.197443 271.248437 
L 712.0899 271.248437 
" clip-path="url(#pd7bb76e061)" style="fill: none; stroke: #cccccc; stroke-width: 0.8; stroke-linecap: round"/>
     </g>
    </g>
    <g id="ytick_11">
     <g id="line2d_29">
      <path d="M 391.197443 237.276875 
L 712.0899 237.276875 
" clip-path="url(#pd7bb76e061)" style="fill: none; stroke: #cccccc; stroke-width: 0.8; stroke-linecap: round"/>
     </g>
    </g>
    <g id="ytick_12">
     <g id="line2d_30">
      <path d="M 391.197443 203.305312 
L 712.0899 203.305312 
" clip-path="url(#pd7bb76e061)" style="fill: none; stroke: #cccccc; stroke-width: 0.8; stroke-linecap: round"/>
     </g>
    </g>
    <g id="ytick_13">
     <g id="line2d_31">
      <path d="M 391.197443 169.333749 
L 712.0899 169.333749 
" clip-path="url(#pd7bb76e061)" style="fill: none; stroke: #cccccc; stroke-width: 0.8; stroke-linecap: round"/>
     </g>
    </g>
    <g id="ytick_14">
     <g id="line2d_32">
      <path d="M 391.197443 135.362186 
L 712.0899 135.362186 
" clip-path="url(#pd7bb76e061)" style="fill: none; stroke: #cccccc; stroke-width: 0.8; stroke-linecap: round"/>
     </g>
    </g>
    <g id="ytick_15">
     <g id="line2d_33">
      <path d="M 391.197443 101.390624 
L 712.0899 101.390624 
" clip-path="url(#pd7bb76e061)" style="fill: none; stroke: #cccccc; stroke-width: 0.8; stroke-linecap: round"/>
     </g>
    </g>
    <g id="ytick_16">
     <g id="line2d_34">
      <path d="M 391.197443 67.419061 
L 712.0899 67.419061 
" clip-path="url(#pd7bb76e061)" style="fill: none; stroke: #cccccc; stroke-width: 0.8; stroke-linecap: round"/>
     </g>
    </g>
   </g>
   <g id="PolyCollection_5">
    <defs>
     <path id="mf6903ca2cc" d="M 405.783464 -55.203966 
L 405.783464 -55.181172 
L 419.043483 -68.203328 
L 432.303502 -98.65817 
L 445.56352 -94.505062 
L 458.823539 -112.359162 
L 472.083558 -141.587031 
L 485.343577 -139.326333 
L 498.603596 -155.285178 
L 511.863615 -183.314085 
L 525.123634 -210.688887 
L 538.383653 -209.130455 
L 551.643672 -225.107637 
L 564.90369 -253.706003 
L 578.163709 -282.853402 
L 591.423728 -283.547972 
L 604.683747 -290.272267 
L 617.943766 -298.55212 
L 631.203785 -307.305058 
L 644.463804 -305.751072 
L 657.723823 -305.359357 
L 670.983841 -309.559365 
L 684.24386 -309.832294 
L 697.503879 -310.111499 
L 697.503879 -310.228296 
L 697.503879 -310.228296 
L 684.24386 -309.964469 
L 670.983841 -309.607423 
L 657.723823 -305.423866 
L 644.463804 -306.351965 
L 631.203785 -307.927566 
L 617.943766 -298.594946 
L 604.683747 -290.292043 
L 591.423728 -283.678468 
L 578.163709 -283.140807 
L 564.90369 -253.760174 
L 551.643672 -225.362438 
L 538.383653 -209.393606 
L 525.123634 -210.779064 
L 511.863615 -183.519977 
L 498.603596 -155.376757 
L 485.343577 -139.528519 
L 472.083558 -141.695427 
L 458.823539 -112.436257 
L 445.56352 -94.556517 
L 432.303502 -98.873221 
L 419.043483 -68.600498 
L 405.783464 -55.203966 
z
" style="stroke: #1f77b4; stroke-opacity: 0.2"/>
    </defs>
    <g clip-path="url(#pd7bb76e061)">
     <use xlink:href="#mf6903ca2cc" x="0" y="360" style="fill: #1f77b4; fill-opacity: 0.2; stroke: #1f77b4; stroke-opacity: 0.2"/>
    </g>
   </g>
   <g id="PolyCollection_6">
    <defs>
     <path id="m9a4d53889f" d="M 405.783464 -104.690775 
L 405.783464 -103.463193 
L 419.043483 -109.94638 
L 432.303502 -102.248369 
L 445.56352 -94.699178 
L 458.823539 -97.452311 
L 472.083558 -96.33961 
L 485.343577 -89.56937 
L 498.603596 -83.884389 
L 511.863615 -78.263305 
L 525.123634 -73.592224 
L 538.383653 -73.614337 
L 551.643672 -70.763933 
L 564.90369 -65.40818 
L 578.163709 -60.413882 
L 591.423728 -60.728978 
L 604.683747 -58.818906 
L 617.943766 -57.662738 
L 631.203785 -56.235423 
L 644.463804 -56.424591 
L 657.723823 -56.602751 
L 670.983841 -55.145357 
L 684.24386 -54.997336 
L 697.503879 -54.78 
L 697.503879 -54.78 
L 697.503879 -54.78 
L 684.24386 -55.116128 
L 670.983841 -55.292835 
L 657.723823 -57.232781 
L 644.463804 -57.196142 
L 631.203785 -56.722236 
L 617.943766 -58.684392 
L 604.683747 -59.200094 
L 591.423728 -61.617362 
L 578.163709 -60.684421 
L 564.90369 -65.60493 
L 551.643672 -71.117896 
L 538.383653 -74.548942 
L 525.123634 -74.479301 
L 511.863615 -78.615551 
L 498.603596 -84.446907 
L 485.343577 -90.231894 
L 472.083558 -99.549417 
L 458.823539 -99.214485 
L 445.56352 -96.125919 
L 432.303502 -103.400413 
L 419.043483 -112.104172 
L 405.783464 -104.690775 
z
" style="stroke: #ff7f0e; stroke-opacity: 0.2"/>
    </defs>
    <g clip-path="url(#pd7bb76e061)">
     <use xlink:href="#m9a4d53889f" x="0" y="360" style="fill: #ff7f0e; fill-opacity: 0.2; stroke: #ff7f0e; stroke-opacity: 0.2"/>
    </g>
   </g>
   <g id="PolyCollection_7">
    <defs>
     <path id="mf12382741b" d="M 405.783464 -56.368281 
L 405.783464 -56.323333 
L 419.043483 -78.54444 
L 432.303502 -78.658892 
L 445.56352 -61.170759 
L 458.823539 -66.961162 
L 472.083558 -66.982431 
L 485.343577 -57.941258 
L 498.603596 -61.11716 
L 511.863615 -61.216579 
L 525.123634 -61.150362 
L 538.383653 -56.355099 
L 551.643672 -57.98518 
L 564.90369 -58.135294 
L 578.163709 -57.967421 
L 591.423728 -56.02423 
L 604.683747 -55.793044 
L 617.943766 -56.071776 
L 631.203785 -55.955075 
L 644.463804 -55.421122 
L 657.723823 -55.408774 
L 670.983841 -55.10665 
L 684.24386 -55.208036 
L 697.503879 -54.78 
L 697.503879 -54.78 
L 697.503879 -54.78 
L 684.24386 -55.287808 
L 670.983841 -55.182691 
L 657.723823 -55.605509 
L 644.463804 -55.574497 
L 631.203785 -56.226886 
L 617.943766 -56.826105 
L 604.683747 -56.076843 
L 591.423728 -56.47024 
L 578.163709 -58.170795 
L 564.90369 -58.866806 
L 551.643672 -58.27273 
L 538.383653 -56.670741 
L 525.123634 -61.640142 
L 511.863615 -62.003383 
L 498.603596 -61.878023 
L 485.343577 -58.346692 
L 472.083558 -67.649487 
L 458.823539 -67.313124 
L 445.56352 -61.941907 
L 432.303502 -79.313302 
L 419.043483 -79.076827 
L 405.783464 -56.368281 
z
" style="stroke: #2ca02c; stroke-opacity: 0.2"/>
    </defs>
    <g clip-path="url(#pd7bb76e061)">
     <use xlink:href="#mf12382741b" x="0" y="360" style="fill: #2ca02c; fill-opacity: 0.2; stroke: #2ca02c; stroke-opacity: 0.2"/>
    </g>
   </g>
   <g id="PolyCollection_8">
    <defs>
     <path id="mc272f0ca2f" d="M 405.783464 -106.71773 
L 405.783464 -105.512568 
L 419.043483 -148.814196 
L 432.303502 -171.06299 
L 445.56352 -141.594683 
L 458.823539 -168.040538 
L 472.083558 -196.762945 
L 485.343577 -177.893394 
L 498.603596 -191.600049 
L 511.863615 -213.875483 
L 525.123634 -236.728728 
L 538.383653 -230.063406 
L 551.643672 -244.833362 
L 564.90369 -268.35516 
L 578.163709 -292.432998 
L 591.423728 -291.107425 
L 604.683747 -295.527047 
L 617.943766 -302.832774 
L 631.203785 -310.421939 
L 644.463804 -308.497254 
L 657.723823 -308.12723 
L 670.983841 -310.469154 
L 684.24386 -310.654369 
L 697.503879 -310.111727 
L 697.503879 -310.227741 
L 697.503879 -310.227741 
L 684.24386 -310.752433 
L 670.983841 -310.844415 
L 657.723823 -308.894158 
L 644.463804 -309.49819 
L 631.203785 -311.18 
L 617.943766 -304.711084 
L 604.683747 -295.873651 
L 591.423728 -292.192229 
L 578.163709 -292.681316 
L 564.90369 -268.845175 
L 551.643672 -245.391552 
L 538.383653 -231.356714 
L 525.123634 -237.383009 
L 511.863615 -214.389708 
L 498.603596 -192.097536 
L 485.343577 -179.183482 
L 472.083558 -201.183048 
L 458.823539 -170.332533 
L 445.56352 -143.565731 
L 432.303502 -173.914613 
L 419.043483 -151.188705 
L 405.783464 -106.71773 
z
" style="stroke: #d62728; stroke-opacity: 0.2"/>
    </defs>
    <g clip-path="url(#pd7bb76e061)">
     <use xlink:href="#mc272f0ca2f" x="0" y="360" style="fill: #d62728; fill-opacity: 0.2; stroke: #d62728; stroke-opacity: 0.2"/>
    </g>
   </g>
   <g id="line2d_35">
    <path d="M 405.783464 304.806849 
L 419.043483 291.522623 
L 432.303502 261.283589 
L 445.56352 265.468789 
L 458.823539 247.577668 
L 472.083558 218.364389 
L 485.343577 220.600384 
L 498.603596 204.692066 
L 511.863615 176.632035 
L 525.123634 149.25203 
L 538.383653 150.743109 
L 551.643672 134.84106 
L 564.90369 106.261634 
L 578.163709 77.104239 
L 591.423728 76.415655 
L 604.683747 69.71651 
L 617.943766 61.413254 
L 631.203785 52.190275 
L 644.463804 53.733764 
L 657.723823 54.619678 
L 670.983841 50.419318 
L 684.24386 50.118857 
L 697.503879 49.826584 
" clip-path="url(#pd7bb76e061)" style="fill: none; stroke: #1f77b4; stroke-width: 1.5; stroke-linecap: round"/>
   </g>
   <g id="line2d_36">
    <path d="M 405.783464 256.001287 
L 419.043483 248.960184 
L 432.303502 257.135067 
L 445.56352 264.597546 
L 458.823539 261.471965 
L 472.083558 262.450502 
L 485.343577 270.035109 
L 498.603596 275.775644 
L 511.863615 281.559139 
L 525.123634 286.091347 
L 538.383653 286.013436 
L 551.643672 289.114578 
L 564.90369 294.51963 
L 578.163709 299.483813 
L 591.423728 298.740978 
L 604.683747 301.099671 
L 617.943766 301.998015 
L 631.203785 303.535527 
L 644.463804 303.191449 
L 657.723823 303.163701 
L 670.983841 304.803617 
L 684.24386 304.904893 
L 697.503879 305.22 
" clip-path="url(#pd7bb76e061)" style="fill: none; stroke: #ff7f0e; stroke-width: 1.5; stroke-linecap: round"/>
   </g>
   <g id="line2d_37">
    <path d="M 405.783464 303.6515 
L 419.043483 281.229796 
L 432.303502 280.980626 
L 445.56352 298.310505 
L 458.823539 292.89094 
L 472.083558 292.727922 
L 485.343577 301.952301 
L 498.603596 298.372819 
L 511.863615 298.142404 
L 525.123634 298.704687 
L 538.383653 303.41872 
L 551.643672 301.882243 
L 564.90369 301.653257 
L 578.163709 301.879576 
L 591.423728 303.871056 
L 604.683747 304.054235 
L 617.943766 303.718877 
L 631.203785 303.907376 
L 644.463804 304.477532 
L 657.723823 304.489964 
L 670.983841 304.861158 
L 684.24386 304.738874 
L 697.503879 305.22 
" clip-path="url(#pd7bb76e061)" style="fill: none; stroke: #2ca02c; stroke-width: 1.5; stroke-linecap: round"/>
   </g>
   <g id="line2d_38">
    <path d="M 405.783464 253.935405 
L 419.043483 209.919481 
L 432.303502 187.965447 
L 445.56352 217.533121 
L 458.823539 190.92536 
L 472.083558 161.610214 
L 485.343577 181.277478 
L 498.603596 168.107344 
L 511.863615 145.916504 
L 525.123634 123.074936 
L 538.383653 129.482666 
L 551.643672 114.95291 
L 564.90369 91.36309 
L 578.163709 67.50422 
L 591.423728 68.496838 
L 604.683747 64.336283 
L 617.943766 56.65858 
L 631.203785 49.316814 
L 644.463804 51.142332 
L 657.723823 51.538116 
L 670.983841 49.380888 
L 684.24386 49.29599 
L 697.503879 49.826584 
" clip-path="url(#pd7bb76e061)" style="fill: none; stroke: #d62728; stroke-width: 1.5; stroke-linecap: round"/>
   </g>
   <g id="patch_6">
    <path d="M 391.197443 318.04 
L 391.197443 36 
" style="fill: none; stroke: #cccccc; stroke-width: 0.8; stroke-linejoin: miter; stroke-linecap: square"/>
   </g>
   <g id="patch_7">
    <path d="M 391.197443 318.04 
L 712.0899 318.04 
" style="fill: none; stroke: #cccccc; stroke-width: 0.8; stroke-linejoin: miter; stroke-linecap: square"/>
   </g>
   <g id="text_23">
    <!-- client_pu = CPU -->
    <g style="fill: #262626" transform="translate(515.374922 30) scale(0.1 -0.1)">
     <defs>
      <path id="ArialMT-43" d="M 3763 1606 
L 4369 1453 
Q 4178 706 3683 314 
Q 3188 -78 2472 -78 
Q 1731 -78 1267 223 
Q 803 525 561 1097 
Q 319 1669 319 2325 
Q 319 3041 592 3573 
Q 866 4106 1370 4382 
Q 1875 4659 2481 4659 
Q 3169 4659 3637 4309 
Q 4106 3959 4291 3325 
L 3694 3184 
Q 3534 3684 3231 3912 
Q 2928 4141 2469 4141 
Q 1941 4141 1586 3887 
Q 1231 3634 1087 3207 
Q 944 2781 944 2328 
Q 944 1744 1114 1308 
Q 1284 872 1643 656 
Q 2003 441 2422 441 
Q 2931 441 3284 734 
Q 3638 1028 3763 1606 
z
" transform="scale(0.015625)"/>
     </defs>
     <use xlink:href="#ArialMT-63"/>
     <use xlink:href="#ArialMT-6c" x="50"/>
     <use xlink:href="#ArialMT-69" x="72.216797"/>
     <use xlink:href="#ArialMT-65" x="94.433594"/>
     <use xlink:href="#ArialMT-6e" x="150.048828"/>
     <use xlink:href="#ArialMT-74" x="205.664062"/>
     <use xlink:href="#ArialMT-5f" x="233.447266"/>
     <use xlink:href="#ArialMT-70" x="289.0625"/>
     <use xlink:href="#ArialMT-75" x="344.677734"/>
     <use xlink:href="#ArialMT-20" x="400.292969"/>
     <use xlink:href="#ArialMT-3d" x="428.076172"/>
     <use xlink:href="#ArialMT-20" x="486.474609"/>
     <use xlink:href="#ArialMT-43" x="514.257812"/>
     <use xlink:href="#ArialMT-50" x="586.474609"/>
     <use xlink:href="#ArialMT-55" x="653.173828"/>
    </g>
   </g>
  </g>
  <g id="text_24">
   <!-- VGG16 latency -->
   <g style="fill: #262626" transform="translate(354.819375 15.935625) scale(0.12 -0.12)">
    <defs>
     <path id="ArialMT-56" d="M 1803 0 
L 28 4581 
L 684 4581 
L 1875 1253 
Q 2019 853 2116 503 
Q 2222 878 2363 1253 
L 3600 4581 
L 4219 4581 
L 2425 0 
L 1803 0 
z
" transform="scale(0.015625)"/>
     <path id="ArialMT-47" d="M 2638 1797 
L 2638 2334 
L 4578 2338 
L 4578 638 
Q 4131 281 3656 101 
Q 3181 -78 2681 -78 
Q 2006 -78 1454 211 
Q 903 500 622 1047 
Q 341 1594 341 2269 
Q 341 2938 620 3517 
Q 900 4097 1425 4378 
Q 1950 4659 2634 4659 
Q 3131 4659 3532 4498 
Q 3934 4338 4162 4050 
Q 4391 3763 4509 3300 
L 3963 3150 
Q 3859 3500 3706 3700 
Q 3553 3900 3268 4020 
Q 2984 4141 2638 4141 
Q 2222 4141 1919 4014 
Q 1616 3888 1430 3681 
Q 1244 3475 1141 3228 
Q 966 2803 966 2306 
Q 966 1694 1177 1281 
Q 1388 869 1791 669 
Q 2194 469 2647 469 
Q 3041 469 3416 620 
Q 3791 772 3984 944 
L 3984 1797 
L 2638 1797 
z
" transform="scale(0.015625)"/>
     <path id="ArialMT-36" d="M 3184 3459 
L 2625 3416 
Q 2550 3747 2413 3897 
Q 2184 4138 1850 4138 
Q 1581 4138 1378 3988 
Q 1113 3794 959 3422 
Q 806 3050 800 2363 
Q 1003 2672 1297 2822 
Q 1591 2972 1913 2972 
Q 2475 2972 2870 2558 
Q 3266 2144 3266 1488 
Q 3266 1056 3080 686 
Q 2894 316 2569 119 
Q 2244 -78 1831 -78 
Q 1128 -78 684 439 
Q 241 956 241 2144 
Q 241 3472 731 4075 
Q 1159 4600 1884 4600 
Q 2425 4600 2770 4297 
Q 3116 3994 3184 3459 
z
M 888 1484 
Q 888 1194 1011 928 
Q 1134 663 1356 523 
Q 1578 384 1822 384 
Q 2178 384 2434 671 
Q 2691 959 2691 1453 
Q 2691 1928 2437 2201 
Q 2184 2475 1800 2475 
Q 1419 2475 1153 2201 
Q 888 1928 888 1484 
z
" transform="scale(0.015625)"/>
    </defs>
    <use xlink:href="#ArialMT-56"/>
    <use xlink:href="#ArialMT-47" x="66.699219"/>
    <use xlink:href="#ArialMT-47" x="144.482422"/>
    <use xlink:href="#ArialMT-31" x="222.265625"/>
    <use xlink:href="#ArialMT-36" x="277.880859"/>
    <use xlink:href="#ArialMT-20" x="333.496094"/>
    <use xlink:href="#ArialMT-6c" x="361.279297"/>
    <use xlink:href="#ArialMT-61" x="383.496094"/>
    <use xlink:href="#ArialMT-74" x="439.111328"/>
    <use xlink:href="#ArialMT-65" x="466.894531"/>
    <use xlink:href="#ArialMT-6e" x="522.509766"/>
    <use xlink:href="#ArialMT-63" x="578.125"/>
    <use xlink:href="#ArialMT-79" x="628.125"/>
   </g>
  </g>
  <g id="legend_1">
   <g id="text_25">
    <!-- variable -->
    <g style="fill: #262626" transform="translate(732.995156 154.294531) scale(0.1 -0.1)">
     <defs>
      <path id="ArialMT-76" d="M 1344 0 
L 81 3319 
L 675 3319 
L 1388 1331 
Q 1503 1009 1600 663 
Q 1675 925 1809 1294 
L 2547 3319 
L 3125 3319 
L 1869 0 
L 1344 0 
z
" transform="scale(0.015625)"/>
     </defs>
     <use xlink:href="#ArialMT-76"/>
     <use xlink:href="#ArialMT-61" x="50"/>
     <use xlink:href="#ArialMT-72" x="105.615234"/>
     <use xlink:href="#ArialMT-69" x="138.916016"/>
     <use xlink:href="#ArialMT-61" x="161.132812"/>
     <use xlink:href="#ArialMT-62" x="216.748047"/>
     <use xlink:href="#ArialMT-6c" x="272.363281"/>
     <use xlink:href="#ArialMT-65" x="294.580078"/>
    </g>
   </g>
   <g id="line2d_39">
    <path d="M 718.9975 164.939844 
L 728.9975 164.939844 
L 738.9975 164.939844 
" style="fill: none; stroke: #1f77b4; stroke-width: 1.5; stroke-linecap: round"/>
   </g>
   <g id="text_26">
    <!-- client -->
    <g style="fill: #262626" transform="translate(746.9975 168.439844) scale(0.1 -0.1)">
     <use xlink:href="#ArialMT-63"/>
     <use xlink:href="#ArialMT-6c" x="50"/>
     <use xlink:href="#ArialMT-69" x="72.216797"/>
     <use xlink:href="#ArialMT-65" x="94.433594"/>
     <use xlink:href="#ArialMT-6e" x="150.048828"/>
     <use xlink:href="#ArialMT-74" x="205.664062"/>
    </g>
   </g>
   <g id="line2d_40">
    <path d="M 718.9975 179.085156 
L 728.9975 179.085156 
L 738.9975 179.085156 
" style="fill: none; stroke: #ff7f0e; stroke-width: 1.5; stroke-linecap: round"/>
   </g>
   <g id="text_27">
    <!-- server -->
    <g style="fill: #262626" transform="translate(746.9975 182.585156) scale(0.1 -0.1)">
     <use xlink:href="#ArialMT-73"/>
     <use xlink:href="#ArialMT-65" x="50"/>
     <use xlink:href="#ArialMT-72" x="105.615234"/>
     <use xlink:href="#ArialMT-76" x="138.916016"/>
     <use xlink:href="#ArialMT-65" x="188.916016"/>
     <use xlink:href="#ArialMT-72" x="244.53125"/>
    </g>
   </g>
   <g id="line2d_41">
    <path d="M 718.9975 193.230469 
L 728.9975 193.230469 
L 738.9975 193.230469 
" style="fill: none; stroke: #2ca02c; stroke-width: 1.5; stroke-linecap: round"/>
   </g>
   <g id="text_28">
    <!-- network -->
    <g style="fill: #262626" transform="translate(746.9975 196.730469) scale(0.1 -0.1)">
     <defs>
      <path id="ArialMT-77" d="M 1034 0 
L 19 3319 
L 600 3319 
L 1128 1403 
L 1325 691 
Q 1338 744 1497 1375 
L 2025 3319 
L 2603 3319 
L 3100 1394 
L 3266 759 
L 3456 1400 
L 4025 3319 
L 4572 3319 
L 3534 0 
L 2950 0 
L 2422 1988 
L 2294 2553 
L 1622 0 
L 1034 0 
z
" transform="scale(0.015625)"/>
      <path id="ArialMT-6b" d="M 425 0 
L 425 4581 
L 988 4581 
L 988 1969 
L 2319 3319 
L 3047 3319 
L 1778 2088 
L 3175 0 
L 2481 0 
L 1384 1697 
L 988 1316 
L 988 0 
L 425 0 
z
" transform="scale(0.015625)"/>
     </defs>
     <use xlink:href="#ArialMT-6e"/>
     <use xlink:href="#ArialMT-65" x="55.615234"/>
     <use xlink:href="#ArialMT-74" x="111.230469"/>
     <use xlink:href="#ArialMT-77" x="139.013672"/>
     <use xlink:href="#ArialMT-6f" x="211.230469"/>
     <use xlink:href="#ArialMT-72" x="266.845703"/>
     <use xlink:href="#ArialMT-6b" x="300.146484"/>
    </g>
   </g>
   <g id="line2d_42">
    <path d="M 718.9975 207.375781 
L 728.9975 207.375781 
L 738.9975 207.375781 
" style="fill: none; stroke: #d62728; stroke-width: 1.5; stroke-linecap: round"/>
   </g>
   <g id="text_29">
    <!-- total -->
    <g style="fill: #262626" transform="translate(746.9975 210.875781) scale(0.1 -0.1)">
     <use xlink:href="#ArialMT-74"/>
     <use xlink:href="#ArialMT-6f" x="27.783203"/>
     <use xlink:href="#ArialMT-74" x="83.398438"/>
     <use xlink:href="#ArialMT-61" x="111.181641"/>
     <use xlink:href="#ArialMT-6c" x="166.796875"/>
    </g>
   </g>
  </g>
 </g>
 <defs>
  <clipPath id="p2b4ca814b0">
   <rect x="59.545475" y="36" width="320.892457" height="282.04"/>
  </clipPath>
  <clipPath id="pd7bb76e061">
   <rect x="391.197443" y="36" width="320.892457" height="282.04"/>
  </clipPath>
 </defs>
</svg>
