<?xml version="1.0" encoding="utf-8" standalone="no"?>
<!DOCTYPE svg PUBLIC "-//W3C//DTD SVG 1.1//EN"
  "http://www.w3.org/Graphics/SVG/1.1/DTD/svg11.dtd">
<svg xmlns:xlink="http://www.w3.org/1999/xlink" width="791.01pt" height="360pt" viewBox="0 0 791.01 360" xmlns="http://www.w3.org/2000/svg" version="1.1">
 <metadata>
  <rdf:RDF xmlns:dc="http://purl.org/dc/elements/1.1/" xmlns:cc="http://creativecommons.org/ns#" xmlns:rdf="http://www.w3.org/1999/02/22-rdf-syntax-ns#">
   <cc:Work>
    <dc:type rdf:resource="http://purl.org/dc/dcmitype/StillImage"/>
    <dc:date>2023-11-28T14:49:37.652531</dc:date>
    <dc:format>image/svg+xml</dc:format>
    <dc:creator>
     <cc:Agent>
      <dc:title>Matplotlib v3.8.0, https://matplotlib.org/</dc:title>
     </cc:Agent>
    </dc:creator>
   </cc:Work>
  </rdf:RDF>
 </metadata>
 <defs>
  <style type="text/css">*{stroke-linejoin: round; stroke-linecap: butt}</style>
 </defs>
 <g id="figure_1">
  <g id="patch_1">
   <path d="M 0 360 
L 791.01 360 
L 791.01 0 
L 0 0 
z
" style="fill: #ffffff"/>
  </g>
  <g id="axes_1">
   <g id="patch_2">
    <path d="M 59.545475 318.04 
L 380.437932 318.04 
L 380.437932 36 
L 59.545475 36 
z
" style="fill: #ffffff"/>
   </g>
   <g id="matplotlib.axis_1">
    <g id="xtick_1">
     <g id="line2d_1">
      <path d="M 74.131496 318.04 
L 74.131496 36 
" clip-path="url(#pb8f3e8cbbb)" style="fill: none; stroke: #cccccc; stroke-width: 0.8; stroke-linecap: round"/>
     </g>
     <g id="text_1">
      <!-- 0 -->
      <g style="fill: #262626" transform="translate(71.351027 332.197812) scale(0.1 -0.1)">
       <defs>
        <path id="ArialMT-30" d="M 266 2259 
Q 266 3072 433 3567 
Q 600 4063 929 4331 
Q 1259 4600 1759 4600 
Q 2128 4600 2406 4451 
Q 2684 4303 2865 4023 
Q 3047 3744 3150 3342 
Q 3253 2941 3253 2259 
Q 3253 1453 3087 958 
Q 2922 463 2592 192 
Q 2263 -78 1759 -78 
Q 1097 -78 719 397 
Q 266 969 266 2259 
z
M 844 2259 
Q 844 1131 1108 757 
Q 1372 384 1759 384 
Q 2147 384 2411 759 
Q 2675 1134 2675 2259 
Q 2675 3391 2411 3762 
Q 2147 4134 1753 4134 
Q 1366 4134 1134 3806 
Q 844 3388 844 2259 
z
" transform="scale(0.015625)"/>
       </defs>
       <use xlink:href="#ArialMT-30"/>
      </g>
     </g>
    </g>
    <g id="xtick_2">
     <g id="line2d_2">
      <path d="M 140.43159 318.04 
L 140.43159 36 
" clip-path="url(#pb8f3e8cbbb)" style="fill: none; stroke: #cccccc; stroke-width: 0.8; stroke-linecap: round"/>
     </g>
     <g id="text_2">
      <!-- 5 -->
      <g style="fill: #262626" transform="translate(137.651121 332.197812) scale(0.1 -0.1)">
       <defs>
        <path id="ArialMT-35" d="M 266 1200 
L 856 1250 
Q 922 819 1161 601 
Q 1400 384 1738 384 
Q 2144 384 2425 690 
Q 2706 997 2706 1503 
Q 2706 1984 2436 2262 
Q 2166 2541 1728 2541 
Q 1456 2541 1237 2417 
Q 1019 2294 894 2097 
L 366 2166 
L 809 4519 
L 3088 4519 
L 3088 3981 
L 1259 3981 
L 1013 2750 
Q 1425 3038 1878 3038 
Q 2478 3038 2890 2622 
Q 3303 2206 3303 1553 
Q 3303 931 2941 478 
Q 2500 -78 1738 -78 
Q 1113 -78 717 272 
Q 322 622 266 1200 
z
" transform="scale(0.015625)"/>
       </defs>
       <use xlink:href="#ArialMT-35"/>
      </g>
     </g>
    </g>
    <g id="xtick_3">
     <g id="line2d_3">
      <path d="M 206.731685 318.04 
L 206.731685 36 
" clip-path="url(#pb8f3e8cbbb)" style="fill: none; stroke: #cccccc; stroke-width: 0.8; stroke-linecap: round"/>
     </g>
     <g id="text_3">
      <!-- 10 -->
      <g style="fill: #262626" transform="translate(201.170747 332.197812) scale(0.1 -0.1)">
       <defs>
        <path id="ArialMT-31" d="M 2384 0 
L 1822 0 
L 1822 3584 
Q 1619 3391 1289 3197 
Q 959 3003 697 2906 
L 697 3450 
Q 1169 3672 1522 3987 
Q 1875 4303 2022 4600 
L 2384 4600 
L 2384 0 
z
" transform="scale(0.015625)"/>
       </defs>
       <use xlink:href="#ArialMT-31"/>
       <use xlink:href="#ArialMT-30" x="55.615234"/>
      </g>
     </g>
    </g>
    <g id="xtick_4">
     <g id="line2d_4">
      <path d="M 273.031779 318.04 
L 273.031779 36 
" clip-path="url(#pb8f3e8cbbb)" style="fill: none; stroke: #cccccc; stroke-width: 0.8; stroke-linecap: round"/>
     </g>
     <g id="text_4">
      <!-- 15 -->
      <g style="fill: #262626" transform="translate(267.470841 332.197812) scale(0.1 -0.1)">
       <use xlink:href="#ArialMT-31"/>
       <use xlink:href="#ArialMT-35" x="55.615234"/>
      </g>
     </g>
    </g>
    <g id="xtick_5">
     <g id="line2d_5">
      <path d="M 339.331873 318.04 
L 339.331873 36 
" clip-path="url(#pb8f3e8cbbb)" style="fill: none; stroke: #cccccc; stroke-width: 0.8; stroke-linecap: round"/>
     </g>
     <g id="text_5">
      <!-- 20 -->
      <g style="fill: #262626" transform="translate(333.770936 332.197812) scale(0.1 -0.1)">
       <defs>
        <path id="ArialMT-32" d="M 3222 541 
L 3222 0 
L 194 0 
Q 188 203 259 391 
Q 375 700 629 1000 
Q 884 1300 1366 1694 
Q 2113 2306 2375 2664 
Q 2638 3022 2638 3341 
Q 2638 3675 2398 3904 
Q 2159 4134 1775 4134 
Q 1369 4134 1125 3890 
Q 881 3647 878 3216 
L 300 3275 
Q 359 3922 746 4261 
Q 1134 4600 1788 4600 
Q 2447 4600 2831 4234 
Q 3216 3869 3216 3328 
Q 3216 3053 3103 2787 
Q 2991 2522 2730 2228 
Q 2469 1934 1863 1422 
Q 1356 997 1212 845 
Q 1069 694 975 541 
L 3222 541 
z
" transform="scale(0.015625)"/>
       </defs>
       <use xlink:href="#ArialMT-32"/>
       <use xlink:href="#ArialMT-30" x="55.615234"/>
      </g>
     </g>
    </g>
    <g id="text_6">
     <!-- offload to cloud before layer -->
     <g style="fill: #262626" transform="translate(158.377641 345.465) scale(0.1 -0.1)">
      <defs>
       <path id="ArialMT-6f" d="M 213 1659 
Q 213 2581 725 3025 
Q 1153 3394 1769 3394 
Q 2453 3394 2887 2945 
Q 3322 2497 3322 1706 
Q 3322 1066 3130 698 
Q 2938 331 2570 128 
Q 2203 -75 1769 -75 
Q 1072 -75 642 372 
Q 213 819 213 1659 
z
M 791 1659 
Q 791 1022 1069 705 
Q 1347 388 1769 388 
Q 2188 388 2466 706 
Q 2744 1025 2744 1678 
Q 2744 2294 2464 2611 
Q 2184 2928 1769 2928 
Q 1347 2928 1069 2612 
Q 791 2297 791 1659 
z
" transform="scale(0.015625)"/>
       <path id="ArialMT-66" d="M 556 0 
L 556 2881 
L 59 2881 
L 59 3319 
L 556 3319 
L 556 3672 
Q 556 4006 616 4169 
Q 697 4388 901 4523 
Q 1106 4659 1475 4659 
Q 1713 4659 2000 4603 
L 1916 4113 
Q 1741 4144 1584 4144 
Q 1328 4144 1222 4034 
Q 1116 3925 1116 3625 
L 1116 3319 
L 1763 3319 
L 1763 2881 
L 1116 2881 
L 1116 0 
L 556 0 
z
" transform="scale(0.015625)"/>
       <path id="ArialMT-6c" d="M 409 0 
L 409 4581 
L 972 4581 
L 972 0 
L 409 0 
z
" transform="scale(0.015625)"/>
       <path id="ArialMT-61" d="M 2588 409 
Q 2275 144 1986 34 
Q 1697 -75 1366 -75 
Q 819 -75 525 192 
Q 231 459 231 875 
Q 231 1119 342 1320 
Q 453 1522 633 1644 
Q 813 1766 1038 1828 
Q 1203 1872 1538 1913 
Q 2219 1994 2541 2106 
Q 2544 2222 2544 2253 
Q 2544 2597 2384 2738 
Q 2169 2928 1744 2928 
Q 1347 2928 1158 2789 
Q 969 2650 878 2297 
L 328 2372 
Q 403 2725 575 2942 
Q 747 3159 1072 3276 
Q 1397 3394 1825 3394 
Q 2250 3394 2515 3294 
Q 2781 3194 2906 3042 
Q 3031 2891 3081 2659 
Q 3109 2516 3109 2141 
L 3109 1391 
Q 3109 606 3145 398 
Q 3181 191 3288 0 
L 2700 0 
Q 2613 175 2588 409 
z
M 2541 1666 
Q 2234 1541 1622 1453 
Q 1275 1403 1131 1340 
Q 988 1278 909 1158 
Q 831 1038 831 891 
Q 831 666 1001 516 
Q 1172 366 1500 366 
Q 1825 366 2078 508 
Q 2331 650 2450 897 
Q 2541 1088 2541 1459 
L 2541 1666 
z
" transform="scale(0.015625)"/>
       <path id="ArialMT-64" d="M 2575 0 
L 2575 419 
Q 2259 -75 1647 -75 
Q 1250 -75 917 144 
Q 584 363 401 755 
Q 219 1147 219 1656 
Q 219 2153 384 2558 
Q 550 2963 881 3178 
Q 1213 3394 1622 3394 
Q 1922 3394 2156 3267 
Q 2391 3141 2538 2938 
L 2538 4581 
L 3097 4581 
L 3097 0 
L 2575 0 
z
M 797 1656 
Q 797 1019 1065 703 
Q 1334 388 1700 388 
Q 2069 388 2326 689 
Q 2584 991 2584 1609 
Q 2584 2291 2321 2609 
Q 2059 2928 1675 2928 
Q 1300 2928 1048 2622 
Q 797 2316 797 1656 
z
" transform="scale(0.015625)"/>
       <path id="ArialMT-20" transform="scale(0.015625)"/>
       <path id="ArialMT-74" d="M 1650 503 
L 1731 6 
Q 1494 -44 1306 -44 
Q 1000 -44 831 53 
Q 663 150 594 308 
Q 525 466 525 972 
L 525 2881 
L 113 2881 
L 113 3319 
L 525 3319 
L 525 4141 
L 1084 4478 
L 1084 3319 
L 1650 3319 
L 1650 2881 
L 1084 2881 
L 1084 941 
Q 1084 700 1114 631 
Q 1144 563 1211 522 
Q 1278 481 1403 481 
Q 1497 481 1650 503 
z
" transform="scale(0.015625)"/>
       <path id="ArialMT-63" d="M 2588 1216 
L 3141 1144 
Q 3050 572 2676 248 
Q 2303 -75 1759 -75 
Q 1078 -75 664 370 
Q 250 816 250 1647 
Q 250 2184 428 2587 
Q 606 2991 970 3192 
Q 1334 3394 1763 3394 
Q 2303 3394 2647 3120 
Q 2991 2847 3088 2344 
L 2541 2259 
Q 2463 2594 2264 2762 
Q 2066 2931 1784 2931 
Q 1359 2931 1093 2626 
Q 828 2322 828 1663 
Q 828 994 1084 691 
Q 1341 388 1753 388 
Q 2084 388 2306 591 
Q 2528 794 2588 1216 
z
" transform="scale(0.015625)"/>
       <path id="ArialMT-75" d="M 2597 0 
L 2597 488 
Q 2209 -75 1544 -75 
Q 1250 -75 995 37 
Q 741 150 617 320 
Q 494 491 444 738 
Q 409 903 409 1263 
L 409 3319 
L 972 3319 
L 972 1478 
Q 972 1038 1006 884 
Q 1059 663 1231 536 
Q 1403 409 1656 409 
Q 1909 409 2131 539 
Q 2353 669 2445 892 
Q 2538 1116 2538 1541 
L 2538 3319 
L 3100 3319 
L 3100 0 
L 2597 0 
z
" transform="scale(0.015625)"/>
       <path id="ArialMT-62" d="M 941 0 
L 419 0 
L 419 4581 
L 981 4581 
L 981 2947 
Q 1338 3394 1891 3394 
Q 2197 3394 2470 3270 
Q 2744 3147 2920 2923 
Q 3097 2700 3197 2384 
Q 3297 2069 3297 1709 
Q 3297 856 2875 390 
Q 2453 -75 1863 -75 
Q 1275 -75 941 416 
L 941 0 
z
M 934 1684 
Q 934 1088 1097 822 
Q 1363 388 1816 388 
Q 2184 388 2453 708 
Q 2722 1028 2722 1663 
Q 2722 2313 2464 2622 
Q 2206 2931 1841 2931 
Q 1472 2931 1203 2611 
Q 934 2291 934 1684 
z
" transform="scale(0.015625)"/>
       <path id="ArialMT-65" d="M 2694 1069 
L 3275 997 
Q 3138 488 2766 206 
Q 2394 -75 1816 -75 
Q 1088 -75 661 373 
Q 234 822 234 1631 
Q 234 2469 665 2931 
Q 1097 3394 1784 3394 
Q 2450 3394 2872 2941 
Q 3294 2488 3294 1666 
Q 3294 1616 3291 1516 
L 816 1516 
Q 847 969 1125 678 
Q 1403 388 1819 388 
Q 2128 388 2347 550 
Q 2566 713 2694 1069 
z
M 847 1978 
L 2700 1978 
Q 2663 2397 2488 2606 
Q 2219 2931 1791 2931 
Q 1403 2931 1139 2672 
Q 875 2413 847 1978 
z
" transform="scale(0.015625)"/>
       <path id="ArialMT-72" d="M 416 0 
L 416 3319 
L 922 3319 
L 922 2816 
Q 1116 3169 1280 3281 
Q 1444 3394 1641 3394 
Q 1925 3394 2219 3213 
L 2025 2691 
Q 1819 2813 1613 2813 
Q 1428 2813 1281 2702 
Q 1134 2591 1072 2394 
Q 978 2094 978 1738 
L 978 0 
L 416 0 
z
" transform="scale(0.015625)"/>
       <path id="ArialMT-79" d="M 397 -1278 
L 334 -750 
Q 519 -800 656 -800 
Q 844 -800 956 -737 
Q 1069 -675 1141 -563 
Q 1194 -478 1313 -144 
Q 1328 -97 1363 -6 
L 103 3319 
L 709 3319 
L 1400 1397 
Q 1534 1031 1641 628 
Q 1738 1016 1872 1384 
L 2581 3319 
L 3144 3319 
L 1881 -56 
Q 1678 -603 1566 -809 
Q 1416 -1088 1222 -1217 
Q 1028 -1347 759 -1347 
Q 597 -1347 397 -1278 
z
" transform="scale(0.015625)"/>
      </defs>
      <use xlink:href="#ArialMT-6f"/>
      <use xlink:href="#ArialMT-66" x="55.615234"/>
      <use xlink:href="#ArialMT-66" x="81.648438"/>
      <use xlink:href="#ArialMT-6c" x="109.431641"/>
      <use xlink:href="#ArialMT-6f" x="131.648438"/>
      <use xlink:href="#ArialMT-61" x="187.263672"/>
      <use xlink:href="#ArialMT-64" x="242.878906"/>
      <use xlink:href="#ArialMT-20" x="298.494141"/>
      <use xlink:href="#ArialMT-74" x="326.277344"/>
      <use xlink:href="#ArialMT-6f" x="354.060547"/>
      <use xlink:href="#ArialMT-20" x="409.675781"/>
      <use xlink:href="#ArialMT-63" x="437.458984"/>
      <use xlink:href="#ArialMT-6c" x="487.458984"/>
      <use xlink:href="#ArialMT-6f" x="509.675781"/>
      <use xlink:href="#ArialMT-75" x="565.291016"/>
      <use xlink:href="#ArialMT-64" x="620.90625"/>
      <use xlink:href="#ArialMT-20" x="676.521484"/>
      <use xlink:href="#ArialMT-62" x="704.304688"/>
      <use xlink:href="#ArialMT-65" x="759.919922"/>
      <use xlink:href="#ArialMT-66" x="815.535156"/>
      <use xlink:href="#ArialMT-6f" x="843.318359"/>
      <use xlink:href="#ArialMT-72" x="898.933594"/>
      <use xlink:href="#ArialMT-65" x="932.234375"/>
      <use xlink:href="#ArialMT-20" x="987.849609"/>
      <use xlink:href="#ArialMT-6c" x="1015.632812"/>
      <use xlink:href="#ArialMT-61" x="1037.849609"/>
      <use xlink:href="#ArialMT-79" x="1093.464844"/>
      <use xlink:href="#ArialMT-65" x="1143.464844"/>
      <use xlink:href="#ArialMT-72" x="1199.080078"/>
     </g>
    </g>
   </g>
   <g id="matplotlib.axis_2">
    <g id="ytick_1">
     <g id="line2d_6">
      <path d="M 59.545475 305.22 
L 380.437932 305.22 
" clip-path="url(#pb8f3e8cbbb)" style="fill: none; stroke: #cccccc; stroke-width: 0.8; stroke-linecap: round"/>
     </g>
     <g id="text_7">
      <!-- 0 -->
      <g style="fill: #262626" transform="translate(46.984537 308.798906) scale(0.1 -0.1)">
       <use xlink:href="#ArialMT-30"/>
      </g>
     </g>
    </g>
    <g id="ytick_2">
     <g id="line2d_7">
      <path d="M 59.545475 271.291768 
L 380.437932 271.291768 
" clip-path="url(#pb8f3e8cbbb)" style="fill: none; stroke: #cccccc; stroke-width: 0.8; stroke-linecap: round"/>
     </g>
     <g id="text_8">
      <!-- 250 -->
      <g style="fill: #262626" transform="translate(35.862662 274.870675) scale(0.1 -0.1)">
       <use xlink:href="#ArialMT-32"/>
       <use xlink:href="#ArialMT-35" x="55.615234"/>
       <use xlink:href="#ArialMT-30" x="111.230469"/>
      </g>
     </g>
    </g>
    <g id="ytick_3">
     <g id="line2d_8">
      <path d="M 59.545475 237.363537 
L 380.437932 237.363537 
" clip-path="url(#pb8f3e8cbbb)" style="fill: none; stroke: #cccccc; stroke-width: 0.8; stroke-linecap: round"/>
     </g>
     <g id="text_9">
      <!-- 500 -->
      <g style="fill: #262626" transform="translate(35.862662 240.942443) scale(0.1 -0.1)">
       <use xlink:href="#ArialMT-35"/>
       <use xlink:href="#ArialMT-30" x="55.615234"/>
       <use xlink:href="#ArialMT-30" x="111.230469"/>
      </g>
     </g>
    </g>
    <g id="ytick_4">
     <g id="line2d_9">
      <path d="M 59.545475 203.435305 
L 380.437932 203.435305 
" clip-path="url(#pb8f3e8cbbb)" style="fill: none; stroke: #cccccc; stroke-width: 0.8; stroke-linecap: round"/>
     </g>
     <g id="text_10">
      <!-- 750 -->
      <g style="fill: #262626" transform="translate(35.862662 207.014211) scale(0.1 -0.1)">
       <defs>
        <path id="ArialMT-37" d="M 303 3981 
L 303 4522 
L 3269 4522 
L 3269 4084 
Q 2831 3619 2401 2847 
Q 1972 2075 1738 1259 
Q 1569 684 1522 0 
L 944 0 
Q 953 541 1156 1306 
Q 1359 2072 1739 2783 
Q 2119 3494 2547 3981 
L 303 3981 
z
" transform="scale(0.015625)"/>
       </defs>
       <use xlink:href="#ArialMT-37"/>
       <use xlink:href="#ArialMT-35" x="55.615234"/>
       <use xlink:href="#ArialMT-30" x="111.230469"/>
      </g>
     </g>
    </g>
    <g id="ytick_5">
     <g id="line2d_10">
      <path d="M 59.545475 169.507074 
L 380.437932 169.507074 
" clip-path="url(#pb8f3e8cbbb)" style="fill: none; stroke: #cccccc; stroke-width: 0.8; stroke-linecap: round"/>
     </g>
     <g id="text_11">
      <!-- 1000 -->
      <g style="fill: #262626" transform="translate(30.301725 173.08598) scale(0.1 -0.1)">
       <use xlink:href="#ArialMT-31"/>
       <use xlink:href="#ArialMT-30" x="55.615234"/>
       <use xlink:href="#ArialMT-30" x="111.230469"/>
       <use xlink:href="#ArialMT-30" x="166.845703"/>
      </g>
     </g>
    </g>
    <g id="ytick_6">
     <g id="line2d_11">
      <path d="M 59.545475 135.578842 
L 380.437932 135.578842 
" clip-path="url(#pb8f3e8cbbb)" style="fill: none; stroke: #cccccc; stroke-width: 0.8; stroke-linecap: round"/>
     </g>
     <g id="text_12">
      <!-- 1250 -->
      <g style="fill: #262626" transform="translate(30.301725 139.157748) scale(0.1 -0.1)">
       <use xlink:href="#ArialMT-31"/>
       <use xlink:href="#ArialMT-32" x="55.615234"/>
       <use xlink:href="#ArialMT-35" x="111.230469"/>
       <use xlink:href="#ArialMT-30" x="166.845703"/>
      </g>
     </g>
    </g>
    <g id="ytick_7">
     <g id="line2d_12">
      <path d="M 59.545475 101.65061 
L 380.437932 101.65061 
" clip-path="url(#pb8f3e8cbbb)" style="fill: none; stroke: #cccccc; stroke-width: 0.8; stroke-linecap: round"/>
     </g>
     <g id="text_13">
      <!-- 1500 -->
      <g style="fill: #262626" transform="translate(30.301725 105.229517) scale(0.1 -0.1)">
       <use xlink:href="#ArialMT-31"/>
       <use xlink:href="#ArialMT-35" x="55.615234"/>
       <use xlink:href="#ArialMT-30" x="111.230469"/>
       <use xlink:href="#ArialMT-30" x="166.845703"/>
      </g>
     </g>
    </g>
    <g id="ytick_8">
     <g id="line2d_13">
      <path d="M 59.545475 67.722379 
L 380.437932 67.722379 
" clip-path="url(#pb8f3e8cbbb)" style="fill: none; stroke: #cccccc; stroke-width: 0.8; stroke-linecap: round"/>
     </g>
     <g id="text_14">
      <!-- 1750 -->
      <g style="fill: #262626" transform="translate(30.301725 71.301285) scale(0.1 -0.1)">
       <use xlink:href="#ArialMT-31"/>
       <use xlink:href="#ArialMT-37" x="55.615234"/>
       <use xlink:href="#ArialMT-35" x="111.230469"/>
       <use xlink:href="#ArialMT-30" x="166.845703"/>
      </g>
     </g>
    </g>
    <g id="text_15">
     <!-- ms -->
     <g style="fill: #262626" transform="translate(24.314225 183.684844) rotate(-90) scale(0.1 -0.1)">
      <defs>
       <path id="ArialMT-6d" d="M 422 0 
L 422 3319 
L 925 3319 
L 925 2853 
Q 1081 3097 1340 3245 
Q 1600 3394 1931 3394 
Q 2300 3394 2536 3241 
Q 2772 3088 2869 2813 
Q 3263 3394 3894 3394 
Q 4388 3394 4653 3120 
Q 4919 2847 4919 2278 
L 4919 0 
L 4359 0 
L 4359 2091 
Q 4359 2428 4304 2576 
Q 4250 2725 4106 2815 
Q 3963 2906 3769 2906 
Q 3419 2906 3187 2673 
Q 2956 2441 2956 1928 
L 2956 0 
L 2394 0 
L 2394 2156 
Q 2394 2531 2256 2718 
Q 2119 2906 1806 2906 
Q 1569 2906 1367 2781 
Q 1166 2656 1075 2415 
Q 984 2175 984 1722 
L 984 0 
L 422 0 
z
" transform="scale(0.015625)"/>
       <path id="ArialMT-73" d="M 197 991 
L 753 1078 
Q 800 744 1014 566 
Q 1228 388 1613 388 
Q 2000 388 2187 545 
Q 2375 703 2375 916 
Q 2375 1106 2209 1216 
Q 2094 1291 1634 1406 
Q 1016 1563 777 1677 
Q 538 1791 414 1992 
Q 291 2194 291 2438 
Q 291 2659 392 2848 
Q 494 3038 669 3163 
Q 800 3259 1026 3326 
Q 1253 3394 1513 3394 
Q 1903 3394 2198 3281 
Q 2494 3169 2634 2976 
Q 2775 2784 2828 2463 
L 2278 2388 
Q 2241 2644 2061 2787 
Q 1881 2931 1553 2931 
Q 1166 2931 1000 2803 
Q 834 2675 834 2503 
Q 834 2394 903 2306 
Q 972 2216 1119 2156 
Q 1203 2125 1616 2013 
Q 2213 1853 2448 1751 
Q 2684 1650 2818 1456 
Q 2953 1263 2953 975 
Q 2953 694 2789 445 
Q 2625 197 2315 61 
Q 2006 -75 1616 -75 
Q 969 -75 630 194 
Q 291 463 197 991 
z
" transform="scale(0.015625)"/>
      </defs>
      <use xlink:href="#ArialMT-6d"/>
      <use xlink:href="#ArialMT-73" x="83.300781"/>
     </g>
    </g>
   </g>
   <g id="PolyCollection_1">
    <defs>
     <path id="m20d1cf4ed0" d="M 74.131496 -55.309726 
L 74.131496 -55.254494 
L 87.391515 -68.394858 
L 100.651534 -68.842482 
L 113.911552 -59.572254 
L 127.171571 -62.640664 
L 140.43159 -63.231597 
L 153.691609 -60.04736 
L 166.951628 -60.109252 
L 180.211647 -60.422244 
L 193.471666 -60.696593 
L 206.731685 -58.481007 
L 219.991703 -59.967245 
L 233.251722 -59.615154 
L 246.511741 -60.458184 
L 259.77176 -59.351218 
L 273.031779 -60.419501 
L 286.291798 -61.045955 
L 299.551817 -62.030312 
L 312.811836 -61.829655 
L 326.071855 -61.781093 
L 339.331873 -104.845491 
L 352.591892 -111.835136 
L 365.851911 -113.56091 
L 365.851911 -113.671806 
L 365.851911 -113.671806 
L 352.591892 -111.911881 
L 339.331873 -104.929761 
L 326.071855 -62.178401 
L 312.811836 -62.28975 
L 299.551817 -62.796589 
L 286.291798 -61.613002 
L 273.031779 -60.741531 
L 259.77176 -59.869673 
L 246.511741 -61.671314 
L 233.251722 -61.49301 
L 219.991703 -62.346146 
L 206.731685 -60.341665 
L 193.471666 -61.936289 
L 180.211647 -61.303357 
L 166.951628 -61.442468 
L 153.691609 -61.817892 
L 140.43159 -65.068901 
L 127.171571 -64.78 
L 113.911552 -60.898925 
L 100.651534 -71.430982 
L 87.391515 -71.316482 
L 74.131496 -55.309726 
z
" style="stroke: #1f77b4; stroke-opacity: 0.2"/>
    </defs>
    <g clip-path="url(#pb8f3e8cbbb)">
     <use xlink:href="#m20d1cf4ed0" x="0" y="360" style="fill: #1f77b4; fill-opacity: 0.2; stroke: #1f77b4; stroke-opacity: 0.2"/>
    </g>
   </g>
   <g id="PolyCollection_2">
    <defs>
     <path id="m2d4090c880" d="M 74.131496 -102.67392 
L 74.131496 -99.860479 
L 87.391515 -104.179566 
L 100.651534 -100.222035 
L 113.911552 -97.956915 
L 127.171571 -95.854165 
L 140.43159 -88.683776 
L 153.691609 -90.455546 
L 166.951628 -88.540104 
L 180.211647 -82.424231 
L 193.471666 -76.139841 
L 206.731685 -75.549174 
L 219.991703 -72.557036 
L 233.251722 -65.356977 
L 246.511741 -60.178545 
L 259.77176 -59.834597 
L 273.031779 -58.660026 
L 286.291798 -57.557562 
L 299.551817 -56.457829 
L 312.811836 -56.157788 
L 326.071855 -56.350277 
L 339.331873 -55.243063 
L 352.591892 -54.974544 
L 365.851911 -54.78 
L 365.851911 -54.78 
L 365.851911 -54.78 
L 352.591892 -55.18568 
L 339.331873 -55.648444 
L 326.071855 -57.409126 
L 312.811836 -57.254841 
L 299.551817 -57.715396 
L 286.291798 -58.013126 
L 273.031779 -59.033033 
L 259.77176 -59.968963 
L 246.511741 -60.409681 
L 233.251722 -66.506795 
L 219.991703 -74.52559 
L 206.731685 -77.757369 
L 193.471666 -77.6854 
L 180.211647 -84.283817 
L 166.951628 -90.596151 
L 153.691609 -92.415668 
L 140.43159 -91.857246 
L 127.171571 -97.823672 
L 113.911552 -101.551458 
L 100.651534 -102.488159 
L 87.391515 -106.843357 
L 74.131496 -102.67392 
z
" style="stroke: #ff7f0e; stroke-opacity: 0.2"/>
    </defs>
    <g clip-path="url(#pb8f3e8cbbb)">
     <use xlink:href="#m2d4090c880" x="0" y="360" style="fill: #ff7f0e; fill-opacity: 0.2; stroke: #ff7f0e; stroke-opacity: 0.2"/>
    </g>
   </g>
   <g id="PolyCollection_3">
    <defs>
     <path id="mbc37309a9f" d="M 74.131496 -56.423966 
L 74.131496 -56.249473 
L 87.391515 -60.585625 
L 100.651534 -60.586858 
L 113.911552 -56.151074 
L 127.171571 -57.61208 
L 140.43159 -57.609888 
L 153.691609 -55.683688 
L 166.951628 -56.152625 
L 180.211647 -56.164628 
L 193.471666 -56.189454 
L 206.731685 -55.296142 
L 219.991703 -55.676733 
L 233.251722 -55.586643 
L 246.511741 -55.618779 
L 259.77176 -55.188202 
L 273.031779 -55.2011 
L 286.291798 -55.217108 
L 299.551817 -55.279758 
L 312.811836 -55.144822 
L 326.071855 -55.148335 
L 339.331873 -55.195375 
L 352.591892 -55.201102 
L 365.851911 -54.78 
L 365.851911 -54.78 
L 365.851911 -54.78 
L 352.591892 -55.31677 
L 339.331873 -55.307676 
L 326.071855 -55.265683 
L 312.811836 -55.241104 
L 299.551817 -55.489837 
L 286.291798 -55.300007 
L 273.031779 -55.282547 
L 259.77176 -55.260657 
L 246.511741 -55.713386 
L 233.251722 -55.840961 
L 219.991703 -55.83649 
L 206.731685 -55.476338 
L 193.471666 -56.248153 
L 180.211647 -56.249621 
L 166.951628 -56.215677 
L 153.691609 -55.885152 
L 140.43159 -57.832395 
L 127.171571 -57.736411 
L 113.911552 -56.281975 
L 100.651534 -61.513862 
L 87.391515 -61.336198 
L 74.131496 -56.423966 
z
" style="stroke: #2ca02c; stroke-opacity: 0.2"/>
    </defs>
    <g clip-path="url(#pb8f3e8cbbb)">
     <use xlink:href="#mbc37309a9f" x="0" y="360" style="fill: #2ca02c; fill-opacity: 0.2; stroke: #2ca02c; stroke-opacity: 0.2"/>
    </g>
   </g>
   <g id="PolyCollection_4">
    <defs>
     <path id="m2ae5729444" d="M 74.131496 -104.79825 
L 74.131496 -101.846983 
L 87.391515 -124.92729 
L 100.651534 -120.932844 
L 113.911552 -104.955211 
L 127.171571 -107.224774 
L 140.43159 -100.53205 
L 153.691609 -97.117728 
L 166.951628 -95.610772 
L 180.211647 -90.020324 
L 193.471666 -84.025958 
L 206.731685 -80.80862 
L 219.991703 -79.848723 
L 233.251722 -71.386809 
L 246.511741 -67.215924 
L 259.77176 -64.925633 
L 273.031779 -64.822112 
L 286.291798 -64.510995 
L 299.551817 -64.613318 
L 312.811836 -63.861512 
L 326.071855 -63.958224 
L 339.331873 -105.80988 
L 352.591892 -112.534167 
L 365.851911 -113.56091 
L 365.851911 -113.671806 
L 365.851911 -113.671806 
L 352.591892 -112.837693 
L 339.331873 -106.317399 
L 326.071855 -65.172522 
L 312.811836 -64.991975 
L 299.551817 -66.207704 
L 286.291798 -65.384463 
L 273.031779 -65.42906 
L 259.77176 -65.557639 
L 246.511741 -68.186115 
L 233.251722 -74.063847 
L 219.991703 -82.441976 
L 206.731685 -83.683949 
L 193.471666 -86.552356 
L 180.211647 -92.591034 
L 166.951628 -99.278123 
L 153.691609 -99.886421 
L 140.43159 -105.944034 
L 127.171571 -110.556143 
L 113.911552 -109.662553 
L 100.651534 -125.414421 
L 87.391515 -129.780895 
L 74.131496 -104.79825 
z
" style="stroke: #d62728; stroke-opacity: 0.2"/>
    </defs>
    <g clip-path="url(#pb8f3e8cbbb)">
     <use xlink:href="#m2ae5729444" x="0" y="360" style="fill: #d62728; fill-opacity: 0.2; stroke: #d62728; stroke-opacity: 0.2"/>
    </g>
   </g>
   <g id="line2d_14">
    <path d="M 74.131496 304.717224 
L 87.391515 290.410088 
L 100.651534 290.029996 
L 113.911552 300.091046 
L 127.171571 296.567057 
L 140.43159 296.260025 
L 153.691609 299.12272 
L 166.951628 299.623864 
L 180.211647 299.242859 
L 193.471666 298.903012 
L 206.731685 300.361327 
L 219.991703 298.685082 
L 233.251722 300.082243 
L 246.511741 298.920335 
L 259.77176 300.414148 
L 273.031779 299.443153 
L 286.291798 298.550739 
L 299.551817 297.515014 
L 312.811836 297.878391 
L 326.071855 297.961821 
L 339.331873 255.120168 
L 352.591892 248.118396 
L 365.851911 246.391125 
" clip-path="url(#pb8f3e8cbbb)" style="fill: none; stroke: #1f77b4; stroke-width: 1.5; stroke-linecap: round"/>
   </g>
   <g id="line2d_15">
    <path d="M 74.131496 258.80413 
L 87.391515 254.622387 
L 100.651534 258.607183 
L 113.911552 260.403507 
L 127.171571 262.982276 
L 140.43159 270.141364 
L 153.691609 268.619852 
L 166.951628 270.594475 
L 180.211647 276.796617 
L 193.471666 283.097558 
L 206.731685 283.607262 
L 219.991703 286.764135 
L 233.251722 294.393338 
L 246.511741 299.769721 
L 259.77176 300.11908 
L 273.031779 301.23481 
L 286.291798 302.231364 
L 299.551817 303.031541 
L 312.811836 303.51075 
L 326.071855 303.302193 
L 339.331873 304.40142 
L 352.591892 304.853182 
L 365.851911 305.22 
" clip-path="url(#pb8f3e8cbbb)" style="fill: none; stroke: #ff7f0e; stroke-width: 1.5; stroke-linecap: round"/>
   </g>
   <g id="line2d_16">
    <path d="M 74.131496 303.638449 
L 87.391515 299.288369 
L 100.651534 299.241088 
L 113.911552 303.82415 
L 127.171571 302.352914 
L 140.43159 302.340182 
L 153.691609 304.206777 
L 166.951628 303.825692 
L 180.211647 303.813574 
L 193.471666 303.791675 
L 206.731685 304.58577 
L 219.991703 304.230888 
L 233.251722 304.321054 
L 246.511741 304.318391 
L 259.77176 304.762394 
L 273.031779 304.755441 
L 286.291798 304.733338 
L 299.551817 304.613187 
L 312.811836 304.804372 
L 326.071855 304.791225 
L 339.331873 304.729955 
L 352.591892 304.710359 
L 365.851911 305.22 
" clip-path="url(#pb8f3e8cbbb)" style="fill: none; stroke: #2ca02c; stroke-width: 1.5; stroke-linecap: round"/>
   </g>
   <g id="line2d_17">
    <path d="M 74.131496 256.763849 
L 87.391515 233.231238 
L 100.651534 237.080672 
L 113.911552 253.33291 
L 127.171571 251.429134 
L 140.43159 257.390557 
L 153.691609 261.70041 
L 166.951628 262.830845 
L 180.211647 269.034004 
L 193.471666 274.947618 
L 206.731685 277.869611 
L 219.991703 279.010416 
L 233.251722 287.192815 
L 246.511741 292.506119 
L 259.77176 294.873117 
L 273.031779 294.882044 
L 286.291798 295.068901 
L 299.551817 294.70207 
L 312.811836 295.748213 
L 326.071855 295.622523 
L 339.331873 253.79835 
L 352.591892 247.25891 
L 365.851911 246.391125 
" clip-path="url(#pb8f3e8cbbb)" style="fill: none; stroke: #d62728; stroke-width: 1.5; stroke-linecap: round"/>
   </g>
   <g id="line2d_18"/>
   <g id="line2d_19"/>
   <g id="line2d_20"/>
   <g id="line2d_21"/>
   <g id="patch_3">
    <path d="M 59.545475 318.04 
L 59.545475 36 
" style="fill: none; stroke: #cccccc; stroke-width: 0.8; stroke-linejoin: miter; stroke-linecap: square"/>
   </g>
   <g id="patch_4">
    <path d="M 59.545475 318.04 
L 380.437932 318.04 
" style="fill: none; stroke: #cccccc; stroke-width: 0.8; stroke-linejoin: miter; stroke-linecap: square"/>
   </g>
   <g id="text_16">
    <!-- client_pu = TPU -->
    <g style="fill: #262626" transform="translate(184.367485 30) scale(0.1 -0.1)">
     <defs>
      <path id="ArialMT-69" d="M 425 3934 
L 425 4581 
L 988 4581 
L 988 3934 
L 425 3934 
z
M 425 0 
L 425 3319 
L 988 3319 
L 988 0 
L 425 0 
z
" transform="scale(0.015625)"/>
      <path id="ArialMT-6e" d="M 422 0 
L 422 3319 
L 928 3319 
L 928 2847 
Q 1294 3394 1984 3394 
Q 2284 3394 2536 3286 
Q 2788 3178 2913 3003 
Q 3038 2828 3088 2588 
Q 3119 2431 3119 2041 
L 3119 0 
L 2556 0 
L 2556 2019 
Q 2556 2363 2490 2533 
Q 2425 2703 2258 2804 
Q 2091 2906 1866 2906 
Q 1506 2906 1245 2678 
Q 984 2450 984 1813 
L 984 0 
L 422 0 
z
" transform="scale(0.015625)"/>
      <path id="ArialMT-5f" d="M -97 -1272 
L -97 -866 
L 3631 -866 
L 3631 -1272 
L -97 -1272 
z
" transform="scale(0.015625)"/>
      <path id="ArialMT-70" d="M 422 -1272 
L 422 3319 
L 934 3319 
L 934 2888 
Q 1116 3141 1344 3267 
Q 1572 3394 1897 3394 
Q 2322 3394 2647 3175 
Q 2972 2956 3137 2557 
Q 3303 2159 3303 1684 
Q 3303 1175 3120 767 
Q 2938 359 2589 142 
Q 2241 -75 1856 -75 
Q 1575 -75 1351 44 
Q 1128 163 984 344 
L 984 -1272 
L 422 -1272 
z
M 931 1641 
Q 931 1000 1190 694 
Q 1450 388 1819 388 
Q 2194 388 2461 705 
Q 2728 1022 2728 1688 
Q 2728 2322 2467 2637 
Q 2206 2953 1844 2953 
Q 1484 2953 1207 2617 
Q 931 2281 931 1641 
z
" transform="scale(0.015625)"/>
      <path id="ArialMT-3d" d="M 3381 2694 
L 356 2694 
L 356 3219 
L 3381 3219 
L 3381 2694 
z
M 3381 1303 
L 356 1303 
L 356 1828 
L 3381 1828 
L 3381 1303 
z
" transform="scale(0.015625)"/>
      <path id="ArialMT-54" d="M 1659 0 
L 1659 4041 
L 150 4041 
L 150 4581 
L 3781 4581 
L 3781 4041 
L 2266 4041 
L 2266 0 
L 1659 0 
z
" transform="scale(0.015625)"/>
      <path id="ArialMT-50" d="M 494 0 
L 494 4581 
L 2222 4581 
Q 2678 4581 2919 4538 
Q 3256 4481 3484 4323 
Q 3713 4166 3852 3881 
Q 3991 3597 3991 3256 
Q 3991 2672 3619 2267 
Q 3247 1863 2275 1863 
L 1100 1863 
L 1100 0 
L 494 0 
z
M 1100 2403 
L 2284 2403 
Q 2872 2403 3119 2622 
Q 3366 2841 3366 3238 
Q 3366 3525 3220 3729 
Q 3075 3934 2838 4000 
Q 2684 4041 2272 4041 
L 1100 4041 
L 1100 2403 
z
" transform="scale(0.015625)"/>
      <path id="ArialMT-55" d="M 3500 4581 
L 4106 4581 
L 4106 1934 
Q 4106 1244 3950 837 
Q 3794 431 3386 176 
Q 2978 -78 2316 -78 
Q 1672 -78 1262 144 
Q 853 366 678 786 
Q 503 1206 503 1934 
L 503 4581 
L 1109 4581 
L 1109 1938 
Q 1109 1341 1220 1058 
Q 1331 775 1601 622 
Q 1872 469 2263 469 
Q 2931 469 3215 772 
Q 3500 1075 3500 1938 
L 3500 4581 
z
" transform="scale(0.015625)"/>
     </defs>
     <use xlink:href="#ArialMT-63"/>
     <use xlink:href="#ArialMT-6c" x="50"/>
     <use xlink:href="#ArialMT-69" x="72.216797"/>
     <use xlink:href="#ArialMT-65" x="94.433594"/>
     <use xlink:href="#ArialMT-6e" x="150.048828"/>
     <use xlink:href="#ArialMT-74" x="205.664062"/>
     <use xlink:href="#ArialMT-5f" x="233.447266"/>
     <use xlink:href="#ArialMT-70" x="289.0625"/>
     <use xlink:href="#ArialMT-75" x="344.677734"/>
     <use xlink:href="#ArialMT-20" x="400.292969"/>
     <use xlink:href="#ArialMT-3d" x="428.076172"/>
     <use xlink:href="#ArialMT-20" x="486.474609"/>
     <use xlink:href="#ArialMT-54" x="512.507812"/>
     <use xlink:href="#ArialMT-50" x="573.591797"/>
     <use xlink:href="#ArialMT-55" x="640.291016"/>
    </g>
   </g>
  </g>
  <g id="axes_2">
   <g id="patch_5">
    <path d="M 391.197443 318.04 
L 712.0899 318.04 
L 712.0899 36 
L 391.197443 36 
z
" style="fill: #ffffff"/>
   </g>
   <g id="matplotlib.axis_3">
    <g id="xtick_6">
     <g id="line2d_22">
      <path d="M 405.783464 318.04 
L 405.783464 36 
" clip-path="url(#p0d2ede6c67)" style="fill: none; stroke: #cccccc; stroke-width: 0.8; stroke-linecap: round"/>
     </g>
     <g id="text_17">
      <!-- 0 -->
      <g style="fill: #262626" transform="translate(403.002995 332.197812) scale(0.1 -0.1)">
       <use xlink:href="#ArialMT-30"/>
      </g>
     </g>
    </g>
    <g id="xtick_7">
     <g id="line2d_23">
      <path d="M 472.083558 318.04 
L 472.083558 36 
" clip-path="url(#p0d2ede6c67)" style="fill: none; stroke: #cccccc; stroke-width: 0.8; stroke-linecap: round"/>
     </g>
     <g id="text_18">
      <!-- 5 -->
      <g style="fill: #262626" transform="translate(469.303089 332.197812) scale(0.1 -0.1)">
       <use xlink:href="#ArialMT-35"/>
      </g>
     </g>
    </g>
    <g id="xtick_8">
     <g id="line2d_24">
      <path d="M 538.383653 318.04 
L 538.383653 36 
" clip-path="url(#p0d2ede6c67)" style="fill: none; stroke: #cccccc; stroke-width: 0.8; stroke-linecap: round"/>
     </g>
     <g id="text_19">
      <!-- 10 -->
      <g style="fill: #262626" transform="translate(532.822715 332.197812) scale(0.1 -0.1)">
       <use xlink:href="#ArialMT-31"/>
       <use xlink:href="#ArialMT-30" x="55.615234"/>
      </g>
     </g>
    </g>
    <g id="xtick_9">
     <g id="line2d_25">
      <path d="M 604.683747 318.04 
L 604.683747 36 
" clip-path="url(#p0d2ede6c67)" style="fill: none; stroke: #cccccc; stroke-width: 0.8; stroke-linecap: round"/>
     </g>
     <g id="text_20">
      <!-- 15 -->
      <g style="fill: #262626" transform="translate(599.12281 332.197812) scale(0.1 -0.1)">
       <use xlink:href="#ArialMT-31"/>
       <use xlink:href="#ArialMT-35" x="55.615234"/>
      </g>
     </g>
    </g>
    <g id="xtick_10">
     <g id="line2d_26">
      <path d="M 670.983841 318.04 
L 670.983841 36 
" clip-path="url(#p0d2ede6c67)" style="fill: none; stroke: #cccccc; stroke-width: 0.8; stroke-linecap: round"/>
     </g>
     <g id="text_21">
      <!-- 20 -->
      <g style="fill: #262626" transform="translate(665.422904 332.197812) scale(0.1 -0.1)">
       <use xlink:href="#ArialMT-32"/>
       <use xlink:href="#ArialMT-30" x="55.615234"/>
      </g>
     </g>
    </g>
    <g id="text_22">
     <!-- offload to cloud before layer -->
     <g style="fill: #262626" transform="translate(490.029609 345.465) scale(0.1 -0.1)">
      <use xlink:href="#ArialMT-6f"/>
      <use xlink:href="#ArialMT-66" x="55.615234"/>
      <use xlink:href="#ArialMT-66" x="81.648438"/>
      <use xlink:href="#ArialMT-6c" x="109.431641"/>
      <use xlink:href="#ArialMT-6f" x="131.648438"/>
      <use xlink:href="#ArialMT-61" x="187.263672"/>
      <use xlink:href="#ArialMT-64" x="242.878906"/>
      <use xlink:href="#ArialMT-20" x="298.494141"/>
      <use xlink:href="#ArialMT-74" x="326.277344"/>
      <use xlink:href="#ArialMT-6f" x="354.060547"/>
      <use xlink:href="#ArialMT-20" x="409.675781"/>
      <use xlink:href="#ArialMT-63" x="437.458984"/>
      <use xlink:href="#ArialMT-6c" x="487.458984"/>
      <use xlink:href="#ArialMT-6f" x="509.675781"/>
      <use xlink:href="#ArialMT-75" x="565.291016"/>
      <use xlink:href="#ArialMT-64" x="620.90625"/>
      <use xlink:href="#ArialMT-20" x="676.521484"/>
      <use xlink:href="#ArialMT-62" x="704.304688"/>
      <use xlink:href="#ArialMT-65" x="759.919922"/>
      <use xlink:href="#ArialMT-66" x="815.535156"/>
      <use xlink:href="#ArialMT-6f" x="843.318359"/>
      <use xlink:href="#ArialMT-72" x="898.933594"/>
      <use xlink:href="#ArialMT-65" x="932.234375"/>
      <use xlink:href="#ArialMT-20" x="987.849609"/>
      <use xlink:href="#ArialMT-6c" x="1015.632812"/>
      <use xlink:href="#ArialMT-61" x="1037.849609"/>
      <use xlink:href="#ArialMT-79" x="1093.464844"/>
      <use xlink:href="#ArialMT-65" x="1143.464844"/>
      <use xlink:href="#ArialMT-72" x="1199.080078"/>
     </g>
    </g>
   </g>
   <g id="matplotlib.axis_4">
    <g id="ytick_9">
     <g id="line2d_27">
      <path d="M 391.197443 305.22 
L 712.0899 305.22 
" clip-path="url(#p0d2ede6c67)" style="fill: none; stroke: #cccccc; stroke-width: 0.8; stroke-linecap: round"/>
     </g>
    </g>
    <g id="ytick_10">
     <g id="line2d_28">
      <path d="M 391.197443 271.291768 
L 712.0899 271.291768 
" clip-path="url(#p0d2ede6c67)" style="fill: none; stroke: #cccccc; stroke-width: 0.8; stroke-linecap: round"/>
     </g>
    </g>
    <g id="ytick_11">
     <g id="line2d_29">
      <path d="M 391.197443 237.363537 
L 712.0899 237.363537 
" clip-path="url(#p0d2ede6c67)" style="fill: none; stroke: #cccccc; stroke-width: 0.8; stroke-linecap: round"/>
     </g>
    </g>
    <g id="ytick_12">
     <g id="line2d_30">
      <path d="M 391.197443 203.435305 
L 712.0899 203.435305 
" clip-path="url(#p0d2ede6c67)" style="fill: none; stroke: #cccccc; stroke-width: 0.8; stroke-linecap: round"/>
     </g>
    </g>
    <g id="ytick_13">
     <g id="line2d_31">
      <path d="M 391.197443 169.507074 
L 712.0899 169.507074 
" clip-path="url(#p0d2ede6c67)" style="fill: none; stroke: #cccccc; stroke-width: 0.8; stroke-linecap: round"/>
     </g>
    </g>
    <g id="ytick_14">
     <g id="line2d_32">
      <path d="M 391.197443 135.578842 
L 712.0899 135.578842 
" clip-path="url(#p0d2ede6c67)" style="fill: none; stroke: #cccccc; stroke-width: 0.8; stroke-linecap: round"/>
     </g>
    </g>
    <g id="ytick_15">
     <g id="line2d_33">
      <path d="M 391.197443 101.65061 
L 712.0899 101.65061 
" clip-path="url(#p0d2ede6c67)" style="fill: none; stroke: #cccccc; stroke-width: 0.8; stroke-linecap: round"/>
     </g>
    </g>
    <g id="ytick_16">
     <g id="line2d_34">
      <path d="M 391.197443 67.722379 
L 712.0899 67.722379 
" clip-path="url(#p0d2ede6c67)" style="fill: none; stroke: #cccccc; stroke-width: 0.8; stroke-linecap: round"/>
     </g>
    </g>
   </g>
   <g id="PolyCollection_5">
    <defs>
     <path id="m8890f8f0a1" d="M 405.783464 -55.293549 
L 405.783464 -55.249475 
L 419.043483 -66.516397 
L 432.303502 -94.249527 
L 445.56352 -93.164879 
L 458.823539 -109.430242 
L 472.083558 -138.67303 
L 485.343577 -139.138854 
L 498.603596 -153.476008 
L 511.863615 -180.886674 
L 525.123634 -208.449838 
L 538.383653 -208.185099 
L 551.643672 -223.599645 
L 564.90369 -254.074586 
L 578.163709 -284.008363 
L 591.423728 -284.117136 
L 604.683747 -290.671458 
L 617.943766 -297.868891 
L 631.203785 -305.962737 
L 644.463804 -305.127143 
L 657.723823 -306.916964 
L 670.983841 -309.273986 
L 684.24386 -308.381355 
L 697.503879 -309.330456 
L 697.503879 -309.440077 
L 697.503879 -309.440077 
L 684.24386 -309.093159 
L 670.983841 -310.049471 
L 657.723823 -307.015376 
L 644.463804 -305.251351 
L 631.203785 -306.099049 
L 617.943766 -298.010613 
L 604.683747 -290.823841 
L 591.423728 -284.285994 
L 578.163709 -284.155795 
L 564.90369 -254.271136 
L 551.643672 -223.844528 
L 538.383653 -208.298963 
L 525.123634 -208.604964 
L 511.863615 -181.009824 
L 498.603596 -153.61758 
L 485.343577 -139.284202 
L 472.083558 -138.807759 
L 458.823539 -109.552282 
L 445.56352 -93.268947 
L 432.303502 -97.392575 
L 419.043483 -66.639111 
L 405.783464 -55.293549 
z
" style="stroke: #1f77b4; stroke-opacity: 0.2"/>
    </defs>
    <g clip-path="url(#p0d2ede6c67)">
     <use xlink:href="#m8890f8f0a1" x="0" y="360" style="fill: #1f77b4; fill-opacity: 0.2; stroke: #1f77b4; stroke-opacity: 0.2"/>
    </g>
   </g>
   <g id="PolyCollection_6">
    <defs>
     <path id="m056fd9d033" d="M 405.783464 -105.151882 
L 405.783464 -102.824656 
L 419.043483 -107.008835 
L 432.303502 -100.678987 
L 445.56352 -96.022619 
L 458.823539 -93.280583 
L 472.083558 -87.066472 
L 485.343577 -89.013935 
L 498.603596 -84.653492 
L 511.863615 -78.361702 
L 525.123634 -73.182296 
L 538.383653 -72.638936 
L 551.643672 -70.220993 
L 564.90369 -65.499889 
L 578.163709 -60.33299 
L 591.423728 -60.355613 
L 604.683747 -59.147653 
L 617.943766 -57.691192 
L 631.203785 -56.171794 
L 644.463804 -56.258474 
L 657.723823 -56.234656 
L 670.983841 -55.114621 
L 684.24386 -54.930675 
L 697.503879 -54.78 
L 697.503879 -54.78 
L 697.503879 -54.78 
L 684.24386 -55.175532 
L 670.983841 -55.70698 
L 657.723823 -57.560792 
L 644.463804 -57.518962 
L 631.203785 -57.994832 
L 617.943766 -59.170235 
L 604.683747 -60.794726 
L 591.423728 -63.005316 
L 578.163709 -61.757256 
L 564.90369 -67.513533 
L 551.643672 -72.543265 
L 538.383653 -75.020015 
L 525.123634 -74.541834 
L 511.863615 -80.224817 
L 498.603596 -86.244092 
L 485.343577 -93.568698 
L 472.083558 -90.064346 
L 458.823539 -95.394109 
L 445.56352 -98.656702 
L 432.303502 -103.341844 
L 419.043483 -109.61341 
L 405.783464 -105.151882 
z
" style="stroke: #ff7f0e; stroke-opacity: 0.2"/>
    </defs>
    <g clip-path="url(#p0d2ede6c67)">
     <use xlink:href="#m056fd9d033" x="0" y="360" style="fill: #ff7f0e; fill-opacity: 0.2; stroke: #ff7f0e; stroke-opacity: 0.2"/>
    </g>
   </g>
   <g id="PolyCollection_7">
    <defs>
     <path id="m9dd50beced" d="M 405.783464 -56.411548 
L 405.783464 -56.180492 
L 419.043483 -61.762535 
L 432.303502 -61.08584 
L 445.56352 -56.220418 
L 458.823539 -57.686158 
L 472.083558 -57.73985 
L 485.343577 -55.624036 
L 498.603596 -56.184261 
L 511.863615 -56.226738 
L 525.123634 -56.289882 
L 538.383653 -55.520375 
L 551.643672 -55.675726 
L 564.90369 -55.676213 
L 578.163709 -55.732101 
L 591.423728 -55.237439 
L 604.683747 -55.198921 
L 617.943766 -55.192279 
L 631.203785 -55.285428 
L 644.463804 -55.094676 
L 657.723823 -55.080226 
L 670.983841 -55.087001 
L 684.24386 -55.097986 
L 697.503879 -54.78 
L 697.503879 -54.78 
L 697.503879 -54.78 
L 684.24386 -55.286958 
L 670.983841 -55.249515 
L 657.723823 -55.231746 
L 644.463804 -55.249435 
L 631.203785 -55.640405 
L 617.943766 -55.496949 
L 604.683747 -55.540324 
L 591.423728 -55.601722 
L 578.163709 -56.819034 
L 564.90369 -56.10587 
L 551.643672 -56.866251 
L 538.383653 -55.99243 
L 525.123634 -57.750975 
L 511.863615 -56.662398 
L 498.603596 -56.420941 
L 485.343577 -56.361099 
L 472.083558 -58.171266 
L 458.823539 -58.095031 
L 445.56352 -57.359997 
L 432.303502 -62.014729 
L 419.043483 -62.5688 
L 405.783464 -56.411548 
z
" style="stroke: #2ca02c; stroke-opacity: 0.2"/>
    </defs>
    <g clip-path="url(#p0d2ede6c67)">
     <use xlink:href="#m9dd50beced" x="0" y="360" style="fill: #2ca02c; fill-opacity: 0.2; stroke: #2ca02c; stroke-opacity: 0.2"/>
    </g>
   </g>
   <g id="PolyCollection_8">
    <defs>
     <path id="m8ea91b644f" d="M 405.783464 -107.263805 
L 405.783464 -104.740992 
L 419.043483 -126.202279 
L 432.303502 -148.692201 
L 445.56352 -136.544127 
L 458.823539 -151.637276 
L 472.083558 -174.670575 
L 485.343577 -175.091954 
L 498.603596 -185.063126 
L 511.863615 -206.316615 
L 525.123634 -228.81124 
L 538.383653 -226.962064 
L 551.643672 -240.284454 
L 564.90369 -266.103721 
L 578.163709 -290.749506 
L 591.423728 -290.487901 
L 604.683747 -295.622243 
L 617.943766 -301.262022 
L 631.203785 -308.087806 
L 644.463804 -307.019978 
L 657.723823 -308.749949 
L 670.983841 -310.434753 
L 684.24386 -309.080957 
L 697.503879 -309.330456 
L 697.503879 -309.440077 
L 697.503879 -309.440077 
L 684.24386 -309.896917 
L 670.983841 -311.18 
L 657.723823 -310.099947 
L 644.463804 -308.420428 
L 631.203785 -310.080313 
L 617.943766 -303.086708 
L 604.683747 -297.504411 
L 591.423728 -293.257225 
L 578.163709 -293.03198 
L 564.90369 -268.312742 
L 551.643672 -243.77776 
L 538.383653 -229.816431 
L 525.123634 -231.460846 
L 511.863615 -208.525301 
L 498.603596 -188.157027 
L 485.343577 -181.256096 
L 472.083558 -179.37945 
L 458.823539 -155.153368 
L 445.56352 -140.359323 
L 432.303502 -153.290624 
L 419.043483 -129.544141 
L 405.783464 -107.263805 
z
" style="stroke: #d62728; stroke-opacity: 0.2"/>
    </defs>
    <g clip-path="url(#p0d2ede6c67)">
     <use xlink:href="#m8ea91b644f" x="0" y="360" style="fill: #d62728; fill-opacity: 0.2; stroke: #d62728; stroke-opacity: 0.2"/>
    </g>
   </g>
   <g id="line2d_35">
    <path d="M 405.783464 304.724239 
L 419.043483 293.428411 
L 432.303502 262.752442 
L 445.56352 266.792762 
L 458.823539 250.529461 
L 472.083558 221.274197 
L 485.343577 220.795793 
L 498.603596 206.458657 
L 511.863615 179.060847 
L 525.123634 151.458769 
L 538.383653 151.768967 
L 551.643672 136.296097 
L 564.90369 105.844308 
L 578.163709 75.924129 
L 591.423728 75.794409 
L 604.683747 69.243949 
L 617.943766 62.07667 
L 631.203785 53.971517 
L 644.463804 54.813931 
L 657.723823 53.028875 
L 670.983841 50.115719 
L 684.24386 51.508105 
L 697.503879 50.610603 
" clip-path="url(#p0d2ede6c67)" style="fill: none; stroke: #1f77b4; stroke-width: 1.5; stroke-linecap: round"/>
   </g>
   <g id="line2d_36">
    <path d="M 405.783464 256.182801 
L 419.043483 251.91657 
L 432.303502 257.914667 
L 445.56352 263.024395 
L 458.823539 265.761528 
L 472.083558 272.150675 
L 485.343577 269.045808 
L 498.603596 274.520915 
L 511.863615 280.810741 
L 525.123634 286.268043 
L 538.383653 286.630457 
L 551.643672 289.061469 
L 564.90369 293.786233 
L 578.163709 299.372008 
L 591.423728 298.631572 
L 604.683747 300.462848 
L 617.943766 301.899234 
L 631.203785 303.420196 
L 644.463804 303.382026 
L 657.723823 303.434588 
L 670.983841 304.53317 
L 684.24386 304.853989 
L 697.503879 305.22 
" clip-path="url(#p0d2ede6c67)" style="fill: none; stroke: #ff7f0e; stroke-width: 1.5; stroke-linecap: round"/>
   </g>
   <g id="line2d_37">
    <path d="M 405.783464 303.735653 
L 419.043483 298.023108 
L 432.303502 298.252776 
L 445.56352 303.519433 
L 458.823539 302.088298 
L 472.083558 302.05492 
L 485.343577 304.248191 
L 498.603596 303.788579 
L 511.863615 303.520728 
L 525.123634 303.409908 
L 538.383653 304.230267 
L 551.643672 303.976388 
L 564.90369 304.098941 
L 578.163709 303.967786 
L 591.423728 304.581697 
L 604.683747 304.699909 
L 617.943766 304.716441 
L 631.203785 304.432356 
L 644.463804 304.8428 
L 657.723823 304.860448 
L 670.983841 304.807552 
L 684.24386 304.749637 
L 697.503879 305.22 
" clip-path="url(#p0d2ede6c67)" style="fill: none; stroke: #2ca02c; stroke-width: 1.5; stroke-linecap: round"/>
   </g>
   <g id="line2d_38">
    <path d="M 405.783464 254.043112 
L 419.043483 232.824409 
L 432.303502 209.03678 
L 445.56352 222.045071 
L 458.823539 207.271819 
L 472.083558 184.147614 
L 485.343577 182.973353 
L 498.603596 173.983413 
L 511.863615 152.893247 
L 525.123634 130.346397 
L 538.383653 132.228782 
L 551.643672 118.496078 
L 564.90369 93.016807 
L 578.163709 68.78883 
L 591.423728 68.597546 
L 604.683747 63.817555 
L 617.943766 58.069668 
L 631.203785 51.328432 
L 644.463804 52.536284 
L 657.723823 50.892737 
L 670.983841 49.279623 
L 684.24386 50.676945 
L 697.503879 50.610603 
" clip-path="url(#p0d2ede6c67)" style="fill: none; stroke: #d62728; stroke-width: 1.5; stroke-linecap: round"/>
   </g>
   <g id="patch_6">
    <path d="M 391.197443 318.04 
L 391.197443 36 
" style="fill: none; stroke: #cccccc; stroke-width: 0.8; stroke-linejoin: miter; stroke-linecap: square"/>
   </g>
   <g id="patch_7">
    <path d="M 391.197443 318.04 
L 712.0899 318.04 
" style="fill: none; stroke: #cccccc; stroke-width: 0.8; stroke-linejoin: miter; stroke-linecap: square"/>
   </g>
   <g id="text_23">
    <!-- client_pu = CPU -->
    <g style="fill: #262626" transform="translate(515.374922 30) scale(0.1 -0.1)">
     <defs>
      <path id="ArialMT-43" d="M 3763 1606 
L 4369 1453 
Q 4178 706 3683 314 
Q 3188 -78 2472 -78 
Q 1731 -78 1267 223 
Q 803 525 561 1097 
Q 319 1669 319 2325 
Q 319 3041 592 3573 
Q 866 4106 1370 4382 
Q 1875 4659 2481 4659 
Q 3169 4659 3637 4309 
Q 4106 3959 4291 3325 
L 3694 3184 
Q 3534 3684 3231 3912 
Q 2928 4141 2469 4141 
Q 1941 4141 1586 3887 
Q 1231 3634 1087 3207 
Q 944 2781 944 2328 
Q 944 1744 1114 1308 
Q 1284 872 1643 656 
Q 2003 441 2422 441 
Q 2931 441 3284 734 
Q 3638 1028 3763 1606 
z
" transform="scale(0.015625)"/>
     </defs>
     <use xlink:href="#ArialMT-63"/>
     <use xlink:href="#ArialMT-6c" x="50"/>
     <use xlink:href="#ArialMT-69" x="72.216797"/>
     <use xlink:href="#ArialMT-65" x="94.433594"/>
     <use xlink:href="#ArialMT-6e" x="150.048828"/>
     <use xlink:href="#ArialMT-74" x="205.664062"/>
     <use xlink:href="#ArialMT-5f" x="233.447266"/>
     <use xlink:href="#ArialMT-70" x="289.0625"/>
     <use xlink:href="#ArialMT-75" x="344.677734"/>
     <use xlink:href="#ArialMT-20" x="400.292969"/>
     <use xlink:href="#ArialMT-3d" x="428.076172"/>
     <use xlink:href="#ArialMT-20" x="486.474609"/>
     <use xlink:href="#ArialMT-43" x="514.257812"/>
     <use xlink:href="#ArialMT-50" x="586.474609"/>
     <use xlink:href="#ArialMT-55" x="653.173828"/>
    </g>
   </g>
  </g>
  <g id="text_24">
   <!-- VGG16 latency -->
   <g style="fill: #262626" transform="translate(354.819375 15.935625) scale(0.12 -0.12)">
    <defs>
     <path id="ArialMT-56" d="M 1803 0 
L 28 4581 
L 684 4581 
L 1875 1253 
Q 2019 853 2116 503 
Q 2222 878 2363 1253 
L 3600 4581 
L 4219 4581 
L 2425 0 
L 1803 0 
z
" transform="scale(0.015625)"/>
     <path id="ArialMT-47" d="M 2638 1797 
L 2638 2334 
L 4578 2338 
L 4578 638 
Q 4131 281 3656 101 
Q 3181 -78 2681 -78 
Q 2006 -78 1454 211 
Q 903 500 622 1047 
Q 341 1594 341 2269 
Q 341 2938 620 3517 
Q 900 4097 1425 4378 
Q 1950 4659 2634 4659 
Q 3131 4659 3532 4498 
Q 3934 4338 4162 4050 
Q 4391 3763 4509 3300 
L 3963 3150 
Q 3859 3500 3706 3700 
Q 3553 3900 3268 4020 
Q 2984 4141 2638 4141 
Q 2222 4141 1919 4014 
Q 1616 3888 1430 3681 
Q 1244 3475 1141 3228 
Q 966 2803 966 2306 
Q 966 1694 1177 1281 
Q 1388 869 1791 669 
Q 2194 469 2647 469 
Q 3041 469 3416 620 
Q 3791 772 3984 944 
L 3984 1797 
L 2638 1797 
z
" transform="scale(0.015625)"/>
     <path id="ArialMT-36" d="M 3184 3459 
L 2625 3416 
Q 2550 3747 2413 3897 
Q 2184 4138 1850 4138 
Q 1581 4138 1378 3988 
Q 1113 3794 959 3422 
Q 806 3050 800 2363 
Q 1003 2672 1297 2822 
Q 1591 2972 1913 2972 
Q 2475 2972 2870 2558 
Q 3266 2144 3266 1488 
Q 3266 1056 3080 686 
Q 2894 316 2569 119 
Q 2244 -78 1831 -78 
Q 1128 -78 684 439 
Q 241 956 241 2144 
Q 241 3472 731 4075 
Q 1159 4600 1884 4600 
Q 2425 4600 2770 4297 
Q 3116 3994 3184 3459 
z
M 888 1484 
Q 888 1194 1011 928 
Q 1134 663 1356 523 
Q 1578 384 1822 384 
Q 2178 384 2434 671 
Q 2691 959 2691 1453 
Q 2691 1928 2437 2201 
Q 2184 2475 1800 2475 
Q 1419 2475 1153 2201 
Q 888 1928 888 1484 
z
" transform="scale(0.015625)"/>
    </defs>
    <use xlink:href="#ArialMT-56"/>
    <use xlink:href="#ArialMT-47" x="66.699219"/>
    <use xlink:href="#ArialMT-47" x="144.482422"/>
    <use xlink:href="#ArialMT-31" x="222.265625"/>
    <use xlink:href="#ArialMT-36" x="277.880859"/>
    <use xlink:href="#ArialMT-20" x="333.496094"/>
    <use xlink:href="#ArialMT-6c" x="361.279297"/>
    <use xlink:href="#ArialMT-61" x="383.496094"/>
    <use xlink:href="#ArialMT-74" x="439.111328"/>
    <use xlink:href="#ArialMT-65" x="466.894531"/>
    <use xlink:href="#ArialMT-6e" x="522.509766"/>
    <use xlink:href="#ArialMT-63" x="578.125"/>
    <use xlink:href="#ArialMT-79" x="628.125"/>
   </g>
  </g>
  <g id="legend_1">
   <g id="text_25">
    <!-- variable -->
    <g style="fill: #262626" transform="translate(732.995156 154.294531) scale(0.1 -0.1)">
     <defs>
      <path id="ArialMT-76" d="M 1344 0 
L 81 3319 
L 675 3319 
L 1388 1331 
Q 1503 1009 1600 663 
Q 1675 925 1809 1294 
L 2547 3319 
L 3125 3319 
L 1869 0 
L 1344 0 
z
" transform="scale(0.015625)"/>
     </defs>
     <use xlink:href="#ArialMT-76"/>
     <use xlink:href="#ArialMT-61" x="50"/>
     <use xlink:href="#ArialMT-72" x="105.615234"/>
     <use xlink:href="#ArialMT-69" x="138.916016"/>
     <use xlink:href="#ArialMT-61" x="161.132812"/>
     <use xlink:href="#ArialMT-62" x="216.748047"/>
     <use xlink:href="#ArialMT-6c" x="272.363281"/>
     <use xlink:href="#ArialMT-65" x="294.580078"/>
    </g>
   </g>
   <g id="line2d_39">
    <path d="M 718.9975 164.939844 
L 728.9975 164.939844 
L 738.9975 164.939844 
" style="fill: none; stroke: #1f77b4; stroke-width: 1.5; stroke-linecap: round"/>
   </g>
   <g id="text_26">
    <!-- client -->
    <g style="fill: #262626" transform="translate(746.9975 168.439844) scale(0.1 -0.1)">
     <use xlink:href="#ArialMT-63"/>
     <use xlink:href="#ArialMT-6c" x="50"/>
     <use xlink:href="#ArialMT-69" x="72.216797"/>
     <use xlink:href="#ArialMT-65" x="94.433594"/>
     <use xlink:href="#ArialMT-6e" x="150.048828"/>
     <use xlink:href="#ArialMT-74" x="205.664062"/>
    </g>
   </g>
   <g id="line2d_40">
    <path d="M 718.9975 179.085156 
L 728.9975 179.085156 
L 738.9975 179.085156 
" style="fill: none; stroke: #ff7f0e; stroke-width: 1.5; stroke-linecap: round"/>
   </g>
   <g id="text_27">
    <!-- server -->
    <g style="fill: #262626" transform="translate(746.9975 182.585156) scale(0.1 -0.1)">
     <use xlink:href="#ArialMT-73"/>
     <use xlink:href="#ArialMT-65" x="50"/>
     <use xlink:href="#ArialMT-72" x="105.615234"/>
     <use xlink:href="#ArialMT-76" x="138.916016"/>
     <use xlink:href="#ArialMT-65" x="188.916016"/>
     <use xlink:href="#ArialMT-72" x="244.53125"/>
    </g>
   </g>
   <g id="line2d_41">
    <path d="M 718.9975 193.230469 
L 728.9975 193.230469 
L 738.9975 193.230469 
" style="fill: none; stroke: #2ca02c; stroke-width: 1.5; stroke-linecap: round"/>
   </g>
   <g id="text_28">
    <!-- network -->
    <g style="fill: #262626" transform="translate(746.9975 196.730469) scale(0.1 -0.1)">
     <defs>
      <path id="ArialMT-77" d="M 1034 0 
L 19 3319 
L 600 3319 
L 1128 1403 
L 1325 691 
Q 1338 744 1497 1375 
L 2025 3319 
L 2603 3319 
L 3100 1394 
L 3266 759 
L 3456 1400 
L 4025 3319 
L 4572 3319 
L 3534 0 
L 2950 0 
L 2422 1988 
L 2294 2553 
L 1622 0 
L 1034 0 
z
" transform="scale(0.015625)"/>
      <path id="ArialMT-6b" d="M 425 0 
L 425 4581 
L 988 4581 
L 988 1969 
L 2319 3319 
L 3047 3319 
L 1778 2088 
L 3175 0 
L 2481 0 
L 1384 1697 
L 988 1316 
L 988 0 
L 425 0 
z
" transform="scale(0.015625)"/>
     </defs>
     <use xlink:href="#ArialMT-6e"/>
     <use xlink:href="#ArialMT-65" x="55.615234"/>
     <use xlink:href="#ArialMT-74" x="111.230469"/>
     <use xlink:href="#ArialMT-77" x="139.013672"/>
     <use xlink:href="#ArialMT-6f" x="211.230469"/>
     <use xlink:href="#ArialMT-72" x="266.845703"/>
     <use xlink:href="#ArialMT-6b" x="300.146484"/>
    </g>
   </g>
   <g id="line2d_42">
    <path d="M 718.9975 207.375781 
L 728.9975 207.375781 
L 738.9975 207.375781 
" style="fill: none; stroke: #d62728; stroke-width: 1.5; stroke-linecap: round"/>
   </g>
   <g id="text_29">
    <!-- total -->
    <g style="fill: #262626" transform="translate(746.9975 210.875781) scale(0.1 -0.1)">
     <use xlink:href="#ArialMT-74"/>
     <use xlink:href="#ArialMT-6f" x="27.783203"/>
     <use xlink:href="#ArialMT-74" x="83.398438"/>
     <use xlink:href="#ArialMT-61" x="111.181641"/>
     <use xlink:href="#ArialMT-6c" x="166.796875"/>
    </g>
   </g>
  </g>
 </g>
 <defs>
  <clipPath id="pb8f3e8cbbb">
   <rect x="59.545475" y="36" width="320.892457" height="282.04"/>
  </clipPath>
  <clipPath id="p0d2ede6c67">
   <rect x="391.197443" y="36" width="320.892457" height="282.04"/>
  </clipPath>
 </defs>
</svg>
